<?xml version="1.0" encoding="utf-8"?>
<!-- Generator: Adobe Illustrator 16.0.0, SVG Export Plug-In . SVG Version: 6.00 Build 0)  -->
<!DOCTYPE svg PUBLIC "-//W3C//DTD SVG 1.1//EN" "http://www.w3.org/Graphics/SVG/1.1/DTD/svg11.dtd">
<svg version="1.1" xmlns="http://www.w3.org/2000/svg" xmlns:xlink="http://www.w3.org/1999/xlink" x="0px" y="0px"
	 width="858.776px" height="595.28px" viewBox="0 0 858.776 595.28" enable-background="new 0 0 858.776 595.28"
	 xml:space="preserve">
<g id="ruler">
	<path fill="#FFFFFF" stroke="#000000" stroke-width="2" stroke-miterlimit="10" d="M647.607,125.229
		c-1.189,1.32-10.361,3.262-20.094,7.78c-23.226-0.375-23.583,25.226-23.583,25.226s-6.722,12.801-10.923,31.249
		c-7.572,9.479-7.078,41.604-8.628,47.439c-1.548,5.836-7.521,19.39-3.096,32.379c2.433,4.895,5.751,14.308,7.298,14.495
		c1.55,0.188,3.762-6.588,3.542-9.224c-0.224-2.636-2.993-4.68-3.378-7.517c-0.384-2.837,1.477-6.681,2.491-6.791
		c1.771-0.188,3.54,10.73,6.195,9.036c2.653-1.694,2.874-9.412,2.874-9.412c1.99-3.2,0.22-10.354-2.655-11.672
		c-2.874-1.317-2.209-6.4-0.884-9.978c1.326-3.577,7.077-13.242,9.607-19.201c2.53-5.959,3.99-16.82,6.724-20.519
		c2.731-3.699,6.863-21.902,7.778-22.025c0.917-0.123,0.447,10.852,3.088,13.554c1.484,5.336-20.062,26.42-5.174,46.121
		c-8.732,26.608-11.409,49.133-6.512,65.826c4.898,16.69,8.924,18.569,9.925,20.769c1.002,2.199,0.591,13.555,2.654,16.564
		c-4.424,12.299-1.473,42.92,0.886,49.697c2.358,6.779,4.129,21.336,2.654,24.85c-1.477,3.518-12.165,13.555-16.812,15.061
		c-4.646,1.506-1.547,5.271,1.328,5.459c2.878,0.189,22.783,0.564,25.217,0.564c2.432,0,7.078-4.328,6.191-6.588
		c-0.884-2.26-2.211-11.295-1.769-13.742c0.442-2.445,2.655-33.385,7.076-37.648c4.426-4.268,1.625-31.068,0.168-34.516
		c-1.457-3.445,1.419-10.105,6.426-17.883c5.007-7.779,4.106-55.16,5.422-55.282c1.316-0.122,2.351,47.999,4.72,53.776
		c2.367,5.777,6.979,15.436,4.77,20.395c-3.556,7.596,1.722,26.354,5.705,33.133c3.979,6.775,5.529,36.52,5.529,36.52
		s-2.213,13.553-2.213,16.002c0,2.445,4.423,4.893,6.637,5.082c2.212,0.188,22.339,0,27.428,0c5.086,0,2.654-6.4-3.097-7.531
		c-3.76-1.881-8.184-5.271-10.174-8.281c-1.993-3.012-2.656-24.098-2.656-24.098s7.741-44.051,3.318-57.604
		c2.211-4.141-0.294-9.664,0.595-11.229c0.887-1.568,1.635-2.578,6.011-17.195c4.377-14.619,1.107-60.18-4.28-68.836
		c14.813-19.011-4.04-41.225-3.305-47.879c2.343-2.194,2.06-17.761,2.971-17.883c0.911-0.124,3.472,17.629,7.386,21.272
		c3.914,3.642,4.28,17.253,5.733,21.648c1.451,4.395,10.326,19.39,11.433,24.661c1.106,5.271-1.771,9.224-3.318,11.483
		c-1.547,2.258-3.981,19.201-0.883,18.824c3.095-0.376,4.422-10.918,7.298-11.295c2.877-0.376,3.318,4.518,3.318,4.518
		s1.107,4.896-1.33,8.848c-2.431,3.954,0.445,14.12,2.438,12.236c1.989-1.882,7.96-7.53,7.738-10.73
		c-0.219-3.2,3.099-17.883,0.888-21.46c-2.212-3.578-3.541-12.989-3.541-12.989s-2.32-28.114-3.125-33.32
		c-0.804-5.206-6.292-15.878-7.491-18.636c-1.2-2.759-5.801-24.35-6.385-27.673c-0.587-3.322-2.241-29.743-21.929-29.743
		c-16.146-6.589-22.341-4.33-23.889-7.342c-1.548-3.012-1.221-7.469,0.105-8.911c2.869-1.817,4.541-8.973,4.541-8.973
		c3.759-0.188,2.212-9.978,1.769-11.86c-0.444-1.882-3.317-2.635-3.317-2.635s-0.223-6.401-1.328-11.295
		c-2.654-9.977-30.084-9.977-33.18-0.941c-3.096,5.835-3.096,13.742-3.096,13.742s-2.654,0.188-3.538,1.505
		c-0.887,1.318-0.224,10.73,3.538,10.918c0.221,5.647,4.164,8.593,5.11,10.291C649.497,117.514,648.797,123.907,647.607,125.229z"/>
	<path fill="none" stroke="#000000" stroke-width="2" stroke-miterlimit="10" d="M221.254,125.479
		c-1.852,1.381-7.902,2.134-17.045,7.53c-19.455-0.376-19.27,27.108-19.27,27.108s-6.113,10.918-9.635,29.367
		c-8.893,16.001-5.928,41.603-7.225,47.439c-1.298,5.836-6.301,19.39-2.595,32.379c2.038,4.895,4.817,14.307,6.114,14.496
		s3.15-6.588,2.965-9.224c-0.186-2.636-2.508-4.681-2.828-7.516c-0.322-2.838,1.235-6.684,2.087-6.792
		c1.481-0.188,2.964,10.73,5.188,9.035c2.224-1.694,2.409-9.412,2.409-9.412c1.667-3.2,0.185-10.354-2.224-11.672
		c-2.409-1.317-1.853-6.4-0.741-9.977c1.111-3.577,6.67-11.86,9.82-18.449c3.148-6.588-0.371-20.143,2.408-21.648
		c2.779-1.506,7.967-21.649,7.967-21.649s1.668,11.483,5.002,13.742c3.336,2.259,5.494,17.319,3.768,23.846
		c-1.728,6.526-4.696,14.308-5.682,22.84c-0.986,8.537-8.152,57.481-6.423,69.028c1.729,11.545,4.446,16.814,4.446,16.814
		s0.495,13.555,2.224,16.566c-3.706,12.299-1.235,42.918,0.741,49.699c1.976,6.777,3.459,21.332,2.223,24.85
		c-1.235,3.514-10.189,13.553-14.08,15.061c-3.891,1.506-1.297,5.27,1.111,5.459c2.408,0.188,19.084,0.563,21.121,0.563
		c2.039,0,5.93-4.33,5.188-6.588s-1.853-11.295-1.482-13.742s2.224-33.385,5.929-37.648c3.706-4.27,2.224-19.83-0.988-34.139
		c-1.234-4.016,0.492-14.559,2.965-18.826c4.446-8.279,6.917-55.47,6.917-55.47h3.706c0,0,3.953,48.945,5.929,52.458
		s3.891,12.488,2.224,19.078c-3.706,15.625-1.297,29.744,2.037,36.52c3.336,6.777,4.633,36.521,4.633,36.521
		s-1.854,13.553-1.854,16.002c0,2.447,3.706,4.895,5.559,5.082c1.854,0.189,18.713,0,22.975,0c4.261,0,2.222-6.4-2.594-7.531
		c-3.15-1.881-6.855-5.27-8.523-8.283c-1.667-3.01-2.223-24.094-2.223-24.094s6.484-44.053,2.779-57.605
		c1.853-4.143,0.186-13.178,0.186-13.178s3.21-6.023,5.188-14.306c1.977-8.283-4.198-63.002-5.68-71.284
		c-1.482-8.283-0.992-13.178-3.584-21.399c-2.593-8.221-0.927-21.21,1.297-23.47c2.594-2.259,4.261-19.389,4.261-19.389
		s3.706,19.201,6.671,20.33c3.334,0.376-0.371,13.931,2.223,21.46c2.593,7.53,10.746,20.52,11.671,25.79
		c0.928,5.271-1.48,9.225-2.777,11.484c-1.297,2.258-3.336,19.202-0.742,18.825c2.594-0.376,3.705-10.918,6.115-11.294
		c2.408-0.377,2.777,4.518,2.777,4.518s0.928,4.895-1.111,8.848c-2.037,3.953,0.371,14.119,2.039,12.236s6.67-7.53,6.484-10.73
		c-0.186-3.2,2.594-17.884,0.74-21.461c-1.852-3.576-2.963-12.989-2.963-12.989s-1.113-28.614-2.779-36.333
		c-1.668-7.718-6.115-15.625-6.115-15.625s-1.482-17.695-5.188-27.107c1.482-2.447-2.037-30.309-18.527-30.309
		c-13.525-6.589-18.714-4.33-20.011-7.341c-1.297-3.013-0.927-5.271-0.556-10.166c3.335-1.694,4.447-7.718,4.447-7.718
		c3.148-0.188,1.852-9.977,1.481-11.86c-0.37-1.882-2.779-2.635-2.779-2.635s-0.185-6.4-1.111-11.295
		c-2.224-9.977-25.198-9.977-27.792-0.941c-2.594,5.836-2.594,13.742-2.594,13.742s-2.224,0.188-2.965,1.506
		c-0.74,1.318-0.186,10.73,2.965,10.918c0.248,6.338,4.817,9.413,4.817,9.413C222.366,117.007,223.105,124.098,221.254,125.479z"/>
	<g id="Ruler_Text">
	</g>
	<g id="stripes">
		
			<rect id="yellow" x="80.663" y="458.288" fill="#F9ED32" stroke="#F9ED32" stroke-miterlimit="10" width="696.201" height="35.267"/>
		
			<text transform="matrix(0.9696 0 0 1 205.6929 480.6514)" stroke="#000000" stroke-miterlimit="10" font-family="'MyriadPro-Regular'" font-size="16.2445">32</text>
		
			<text transform="matrix(0.9696 0 0 1 247.7578 481.4521)" stroke="#000000" stroke-miterlimit="10" font-family="'MyriadPro-Regular'" font-size="15.9415">33</text>
		
			<text transform="matrix(0.9696 0 0 1 289.3628 481.5293)" stroke="#000000" stroke-miterlimit="10" font-family="'MyriadPro-Regular'" font-size="16.0126">34</text>
		
			<text transform="matrix(0.9696 0 0 1 329.2773 481.5801)" stroke="#000000" stroke-miterlimit="10" font-family="'MyriadPro-Regular'" font-size="16">35</text>
		
			<text transform="matrix(0.9696 0 0 1 373.2017 481.085)" stroke="#000000" stroke-miterlimit="10" font-family="'MyriadPro-Regular'" font-size="15.068">36</text>
		
			<text transform="matrix(0.9696 0 0 1 413.9238 481.0273)" stroke="#000000" stroke-miterlimit="10" font-family="'MyriadPro-Regular'" font-size="15.2518">37</text>
		
			<text transform="matrix(0.9696 0 0 1 455.2754 480.8867)" stroke="#000000" stroke-miterlimit="10" font-family="'MyriadPro-Regular'" font-size="15.1529">38</text>
		
			<text transform="matrix(0.9696 0 0 1 495.8633 480.7354)" stroke="#000000" stroke-miterlimit="10" font-family="'MyriadPro-Regular'" font-size="14.8263">39</text>
		
			<text transform="matrix(0.9696 0 0 1 538.1953 481.3438)" stroke="#000000" stroke-miterlimit="10" font-family="'MyriadPro-Regular'" font-size="15.0026">40</text>
		
			<text transform="matrix(0.9696 0 0 1 579.4668 481.1211)" stroke="#000000" stroke-miterlimit="10" font-family="'MyriadPro-Regular'" font-size="15.0027">41</text>
		
			<text transform="matrix(0.9696 0 0 1 621.5664 481.3438)" stroke="#000000" stroke-miterlimit="10" font-family="'MyriadPro-Regular'" font-size="15">42</text>
		
			<text transform="matrix(0.9696 0 0 1 662.374 480.9805)" stroke="#000000" stroke-miterlimit="10" font-family="'MyriadPro-Regular'" font-size="15.2813">43</text>
		<g>
			<path stroke="#000000" stroke-miterlimit="10" d="M708.836,481.724v-2.782h-4.578v-0.891l4.395-6.486h1.44v6.314h1.379v1.063
				h-1.379v2.782H708.836z M708.836,477.879v-3.393c0-0.53,0.016-1.063,0.044-1.594h-0.044c-0.303,0.594-0.545,1.032-0.819,1.501
				l-2.409,3.454v0.031H708.836z"/>
			<path stroke="#000000" stroke-miterlimit="10" d="M717.368,481.872v-2.782h-4.577v-0.891l4.395-6.486h1.44v6.314h1.378v1.063
				h-1.378v2.782H717.368z M717.368,478.027v-3.393c0-0.53,0.015-1.063,0.045-1.594h-0.045c-0.303,0.594-0.545,1.032-0.818,1.501
				l-2.41,3.454v0.031H717.368z"/>
		</g>
		
			<text transform="matrix(0.9696 0 0 1 745.3672 481.0234)" stroke="#000000" stroke-miterlimit="10" font-family="'MyriadPro-Regular'" font-size="15.0492">45</text>
		
			<line fill="none" stroke="#000000" stroke-width="2" stroke-miterlimit="10" x1="223.049" y1="493.846" x2="223.049" y2="477.853"/>
		
			<line fill="none" stroke="#000000" stroke-width="2" stroke-miterlimit="10" x1="244.093" y1="493.781" x2="244.093" y2="482.664"/>
		
			<line fill="none" stroke="#000000" stroke-width="2" stroke-miterlimit="10" x1="264.653" y1="493.846" x2="264.653" y2="477.853"/>
		
			<line fill="none" stroke="#000000" stroke-width="2" stroke-miterlimit="10" x1="285.698" y1="493.781" x2="285.698" y2="482.664"/>
		
			<line fill="none" stroke="#000000" stroke-width="2" stroke-miterlimit="10" x1="306.608" y1="493.846" x2="306.608" y2="477.853"/>
		
			<line fill="none" stroke="#000000" stroke-width="2" stroke-miterlimit="10" x1="327.653" y1="493.781" x2="327.653" y2="482.664"/>
		
			<line fill="none" stroke="#000000" stroke-width="2" stroke-miterlimit="10" x1="347.807" y1="493.846" x2="347.807" y2="477.853"/>
		
			<line fill="none" stroke="#000000" stroke-width="2" stroke-miterlimit="10" x1="368.851" y1="493.781" x2="368.851" y2="482.664"/>
		
			<line fill="none" stroke="#000000" stroke-width="2" stroke-miterlimit="10" x1="389.513" y1="493.846" x2="389.513" y2="477.853"/>
		
			<line fill="none" stroke="#000000" stroke-width="2" stroke-miterlimit="10" x1="410.559" y1="493.781" x2="410.559" y2="482.664"/>
		<line fill="none" stroke="#000000" stroke-width="2" stroke-miterlimit="10" x1="431.13" y1="493.846" x2="431.13" y2="477.853"/>
		
			<line fill="none" stroke="#000000" stroke-width="2" stroke-miterlimit="10" x1="452.174" y1="493.781" x2="452.174" y2="482.664"/>
		
			<line fill="none" stroke="#000000" stroke-width="2" stroke-miterlimit="10" x1="472.327" y1="493.846" x2="472.327" y2="477.853"/>
		
			<line fill="none" stroke="#000000" stroke-width="2" stroke-miterlimit="10" x1="493.373" y1="493.781" x2="493.373" y2="482.664"/>
		
			<line fill="none" stroke="#000000" stroke-width="2" stroke-miterlimit="10" x1="513.188" y1="493.846" x2="513.188" y2="477.853"/>
		
			<line fill="none" stroke="#000000" stroke-width="2" stroke-miterlimit="10" x1="534.232" y1="493.781" x2="534.232" y2="482.664"/>
		<line fill="none" stroke="#000000" stroke-width="2" stroke-miterlimit="10" x1="555.48" y1="493.846" x2="555.48" y2="477.853"/>
		
			<line fill="none" stroke="#000000" stroke-width="2" stroke-miterlimit="10" x1="576.525" y1="493.781" x2="576.525" y2="482.664"/>
		
			<line fill="none" stroke="#000000" stroke-width="2" stroke-miterlimit="10" x1="596.418" y1="493.846" x2="596.418" y2="477.853"/>
		
			<line fill="none" stroke="#000000" stroke-width="2" stroke-miterlimit="10" x1="617.464" y1="493.781" x2="617.464" y2="482.664"/>
		
			<line fill="none" stroke="#000000" stroke-width="2" stroke-miterlimit="10" x1="637.957" y1="493.846" x2="637.957" y2="479.141"/>
		
			<line fill="none" stroke="#000000" stroke-width="2" stroke-miterlimit="10" x1="659.001" y1="493.781" x2="659.001" y2="482.664"/>
		
			<line fill="none" stroke="#000000" stroke-width="2" stroke-miterlimit="10" x1="679.571" y1="493.846" x2="679.571" y2="477.853"/>
		
			<line fill="none" stroke="#000000" stroke-width="2" stroke-miterlimit="10" x1="700.617" y1="493.781" x2="700.617" y2="482.664"/>
		
			<line fill="none" stroke="#000000" stroke-width="2" stroke-miterlimit="10" x1="721.697" y1="493.846" x2="721.697" y2="477.853"/>
		
			<line fill="none" stroke="#000000" stroke-width="2" stroke-miterlimit="10" x1="763.313" y1="493.846" x2="763.313" y2="477.853"/>
		
			<line fill="none" stroke="#000000" stroke-width="2" stroke-miterlimit="10" x1="742.742" y1="493.781" x2="742.742" y2="482.664"/>
		
			<line fill="none" stroke="#000000" stroke-width="2" stroke-miterlimit="10" x1="202.489" y1="493.781" x2="202.489" y2="482.664"/>
		
			<line fill="none" stroke="#000000" stroke-width="2" stroke-miterlimit="10" x1="207.122" y1="493.846" x2="207.122" y2="486.831"/>
		
			<line fill="none" stroke="#000000" stroke-width="2" stroke-miterlimit="10" x1="212.702" y1="493.748" x2="212.702" y2="484.289"/>
		
			<line fill="none" stroke="#000000" stroke-width="2" stroke-miterlimit="10" x1="218.375" y1="493.748" x2="218.375" y2="486.733"/>
		<line fill="none" stroke="#000000" stroke-width="2" stroke-miterlimit="10" x1="227.83" y1="493.846" x2="227.83" y2="486.831"/>
		
			<line fill="none" stroke="#000000" stroke-width="2" stroke-miterlimit="10" x1="233.409" y1="493.748" x2="233.409" y2="484.289"/>
		
			<line fill="none" stroke="#000000" stroke-width="2" stroke-miterlimit="10" x1="239.083" y1="493.748" x2="239.083" y2="486.733"/>
		
			<line fill="none" stroke="#000000" stroke-width="2" stroke-miterlimit="10" x1="248.064" y1="493.846" x2="248.064" y2="486.831"/>
		
			<line fill="none" stroke="#000000" stroke-width="2" stroke-miterlimit="10" x1="253.644" y1="493.748" x2="253.644" y2="484.289"/>
		
			<line fill="none" stroke="#000000" stroke-width="2" stroke-miterlimit="10" x1="259.318" y1="493.748" x2="259.318" y2="486.733"/>
		
			<line fill="none" stroke="#000000" stroke-width="2" stroke-miterlimit="10" x1="269.056" y1="493.846" x2="269.056" y2="486.831"/>
		
			<line fill="none" stroke="#000000" stroke-width="2" stroke-miterlimit="10" x1="274.635" y1="493.748" x2="274.635" y2="484.289"/>
		
			<line fill="none" stroke="#000000" stroke-width="2" stroke-miterlimit="10" x1="280.308" y1="493.748" x2="280.308" y2="486.733"/>
		
			<line fill="none" stroke="#000000" stroke-width="2" stroke-miterlimit="10" x1="289.859" y1="493.846" x2="289.859" y2="486.831"/>
		
			<line fill="none" stroke="#000000" stroke-width="2" stroke-miterlimit="10" x1="295.437" y1="493.748" x2="295.437" y2="484.289"/>
		<line fill="none" stroke="#000000" stroke-width="2" stroke-miterlimit="10" x1="301.11" y1="493.748" x2="301.11" y2="486.733"/>
		
			<line fill="none" stroke="#000000" stroke-width="2" stroke-miterlimit="10" x1="311.039" y1="493.846" x2="311.039" y2="486.831"/>
		
			<line fill="none" stroke="#000000" stroke-width="2" stroke-miterlimit="10" x1="316.618" y1="493.748" x2="316.618" y2="484.289"/>
		
			<line fill="none" stroke="#000000" stroke-width="2" stroke-miterlimit="10" x1="322.291" y1="493.748" x2="322.291" y2="486.733"/>
		
			<line fill="none" stroke="#000000" stroke-width="2" stroke-miterlimit="10" x1="331.841" y1="493.846" x2="331.841" y2="486.831"/>
		<line fill="none" stroke="#000000" stroke-width="2" stroke-miterlimit="10" x1="337.42" y1="493.748" x2="337.42" y2="484.289"/>
		
			<line fill="none" stroke="#000000" stroke-width="2" stroke-miterlimit="10" x1="343.093" y1="493.748" x2="343.093" y2="486.733"/>
		
			<line fill="none" stroke="#000000" stroke-width="2" stroke-miterlimit="10" x1="352.454" y1="493.846" x2="352.454" y2="486.831"/>
		
			<line fill="none" stroke="#000000" stroke-width="2" stroke-miterlimit="10" x1="358.033" y1="493.748" x2="358.033" y2="484.289"/>
		
			<line fill="none" stroke="#000000" stroke-width="2" stroke-miterlimit="10" x1="363.706" y1="493.748" x2="363.706" y2="486.733"/>
		<line fill="none" stroke="#000000" stroke-width="2" stroke-miterlimit="10" x1="99.285" y1="493.846" x2="99.285" y2="477.853"/>
		<line fill="none" stroke="#000000" stroke-width="2" stroke-miterlimit="10" x1="120.33" y1="493.781" x2="120.33" y2="482.664"/>
		<line fill="none" stroke="#000000" stroke-width="2" stroke-miterlimit="10" x1="141.24" y1="493.846" x2="141.24" y2="477.853"/>
		
			<line fill="none" stroke="#000000" stroke-width="2" stroke-miterlimit="10" x1="162.285" y1="493.781" x2="162.285" y2="482.664"/>
		
			<line fill="none" stroke="#000000" stroke-width="2" stroke-miterlimit="10" x1="182.438" y1="493.846" x2="182.438" y2="477.853"/>
		<line fill="none" stroke="#000000" stroke-width="2" stroke-miterlimit="10" x1="82.696" y1="493.846" x2="82.696" y2="486.831"/>
		<line fill="none" stroke="#000000" stroke-width="2" stroke-miterlimit="10" x1="88.275" y1="493.748" x2="88.275" y2="484.289"/>
		<line fill="none" stroke="#000000" stroke-width="2" stroke-miterlimit="10" x1="93.949" y1="493.748" x2="93.949" y2="486.733"/>
		
			<line fill="none" stroke="#000000" stroke-width="2" stroke-miterlimit="10" x1="103.688" y1="493.846" x2="103.688" y2="486.831"/>
		
			<line fill="none" stroke="#000000" stroke-width="2" stroke-miterlimit="10" x1="109.267" y1="493.748" x2="109.267" y2="484.289"/>
		<line fill="none" stroke="#000000" stroke-width="2" stroke-miterlimit="10" x1="114.94" y1="493.748" x2="114.94" y2="486.733"/>
		<line fill="none" stroke="#000000" stroke-width="2" stroke-miterlimit="10" x1="124.49" y1="493.846" x2="124.49" y2="486.831"/>
		
			<line fill="none" stroke="#000000" stroke-width="2" stroke-miterlimit="10" x1="130.069" y1="493.748" x2="130.069" y2="484.289"/>
		
			<line fill="none" stroke="#000000" stroke-width="2" stroke-miterlimit="10" x1="135.742" y1="493.748" x2="135.742" y2="486.733"/>
		<line fill="none" stroke="#000000" stroke-width="2" stroke-miterlimit="10" x1="145.67" y1="493.846" x2="145.67" y2="486.831"/>
		<line fill="none" stroke="#000000" stroke-width="2" stroke-miterlimit="10" x1="151.25" y1="493.748" x2="151.25" y2="484.289"/>
		
			<line fill="none" stroke="#000000" stroke-width="2" stroke-miterlimit="10" x1="156.923" y1="493.748" x2="156.923" y2="486.733"/>
		
			<line fill="none" stroke="#000000" stroke-width="2" stroke-miterlimit="10" x1="166.473" y1="493.846" x2="166.473" y2="486.831"/>
		
			<line fill="none" stroke="#000000" stroke-width="2" stroke-miterlimit="10" x1="172.052" y1="493.748" x2="172.052" y2="484.289"/>
		
			<line fill="none" stroke="#000000" stroke-width="2" stroke-miterlimit="10" x1="177.725" y1="493.748" x2="177.725" y2="486.733"/>
		
			<line fill="none" stroke="#000000" stroke-width="2" stroke-miterlimit="10" x1="187.086" y1="493.846" x2="187.086" y2="486.831"/>
		
			<line fill="none" stroke="#000000" stroke-width="2" stroke-miterlimit="10" x1="192.664" y1="493.748" x2="192.664" y2="484.289"/>
		
			<line fill="none" stroke="#000000" stroke-width="2" stroke-miterlimit="10" x1="198.337" y1="493.748" x2="198.337" y2="486.733"/>
		
			<line fill="none" stroke="#000000" stroke-width="2" stroke-miterlimit="10" x1="373.256" y1="493.846" x2="373.256" y2="486.831"/>
		
			<line fill="none" stroke="#000000" stroke-width="2" stroke-miterlimit="10" x1="378.835" y1="493.748" x2="378.835" y2="484.289"/>
		
			<line fill="none" stroke="#000000" stroke-width="2" stroke-miterlimit="10" x1="384.508" y1="493.748" x2="384.508" y2="486.733"/>
		
			<line fill="none" stroke="#000000" stroke-width="2" stroke-miterlimit="10" x1="393.869" y1="493.846" x2="393.869" y2="486.831"/>
		
			<line fill="none" stroke="#000000" stroke-width="2" stroke-miterlimit="10" x1="399.448" y1="493.748" x2="399.448" y2="484.289"/>
		
			<line fill="none" stroke="#000000" stroke-width="2" stroke-miterlimit="10" x1="405.122" y1="493.748" x2="405.122" y2="486.733"/>
		
			<line fill="none" stroke="#000000" stroke-width="2" stroke-miterlimit="10" x1="415.049" y1="493.846" x2="415.049" y2="486.831"/>
		
			<line fill="none" stroke="#000000" stroke-width="2" stroke-miterlimit="10" x1="420.628" y1="493.748" x2="420.628" y2="484.289"/>
		
			<line fill="none" stroke="#000000" stroke-width="2" stroke-miterlimit="10" x1="426.302" y1="493.748" x2="426.302" y2="486.733"/>
		
			<line fill="none" stroke="#000000" stroke-width="2" stroke-miterlimit="10" x1="435.473" y1="493.846" x2="435.473" y2="486.831"/>
		
			<line fill="none" stroke="#000000" stroke-width="2" stroke-miterlimit="10" x1="441.053" y1="493.748" x2="441.053" y2="484.289"/>
		
			<line fill="none" stroke="#000000" stroke-width="2" stroke-miterlimit="10" x1="446.726" y1="493.748" x2="446.726" y2="486.733"/>
		
			<line fill="none" stroke="#000000" stroke-width="2" stroke-miterlimit="10" x1="456.276" y1="493.846" x2="456.276" y2="486.831"/>
		
			<line fill="none" stroke="#000000" stroke-width="2" stroke-miterlimit="10" x1="461.854" y1="493.748" x2="461.854" y2="484.289"/>
		
			<line fill="none" stroke="#000000" stroke-width="2" stroke-miterlimit="10" x1="467.527" y1="493.748" x2="467.527" y2="486.733"/>
		<line fill="none" stroke="#000000" stroke-width="2" stroke-miterlimit="10" x1="476.7" y1="493.846" x2="476.7" y2="486.831"/>
		
			<line fill="none" stroke="#000000" stroke-width="2" stroke-miterlimit="10" x1="482.278" y1="493.748" x2="482.278" y2="484.289"/>
		
			<line fill="none" stroke="#000000" stroke-width="2" stroke-miterlimit="10" x1="487.952" y1="493.748" x2="487.952" y2="486.733"/>
		
			<line fill="none" stroke="#000000" stroke-width="2" stroke-miterlimit="10" x1="497.313" y1="493.846" x2="497.313" y2="486.831"/>
		
			<line fill="none" stroke="#000000" stroke-width="2" stroke-miterlimit="10" x1="502.892" y1="493.748" x2="502.892" y2="484.289"/>
		
			<line fill="none" stroke="#000000" stroke-width="2" stroke-miterlimit="10" x1="508.563" y1="493.748" x2="508.563" y2="486.733"/>
		
			<line fill="none" stroke="#000000" stroke-width="2" stroke-miterlimit="10" x1="517.736" y1="493.846" x2="517.736" y2="486.831"/>
		
			<line fill="none" stroke="#000000" stroke-width="2" stroke-miterlimit="10" x1="523.314" y1="493.748" x2="523.314" y2="484.289"/>
		
			<line fill="none" stroke="#000000" stroke-width="2" stroke-miterlimit="10" x1="528.987" y1="493.748" x2="528.987" y2="486.733"/>
		
			<line fill="none" stroke="#000000" stroke-width="2" stroke-miterlimit="10" x1="539.105" y1="493.846" x2="539.105" y2="486.831"/>
		
			<line fill="none" stroke="#000000" stroke-width="2" stroke-miterlimit="10" x1="544.686" y1="493.748" x2="544.686" y2="484.289"/>
		
			<line fill="none" stroke="#000000" stroke-width="2" stroke-miterlimit="10" x1="550.358" y1="493.748" x2="550.358" y2="486.733"/>
		
			<line fill="none" stroke="#000000" stroke-width="2" stroke-miterlimit="10" x1="560.286" y1="493.846" x2="560.286" y2="486.831"/>
		
			<line fill="none" stroke="#000000" stroke-width="2" stroke-miterlimit="10" x1="565.865" y1="493.748" x2="565.865" y2="484.289"/>
		
			<line fill="none" stroke="#000000" stroke-width="2" stroke-miterlimit="10" x1="571.538" y1="493.748" x2="571.538" y2="486.733"/>
		
			<line fill="none" stroke="#000000" stroke-width="2" stroke-miterlimit="10" x1="580.333" y1="493.846" x2="580.333" y2="486.831"/>
		<line fill="none" stroke="#000000" stroke-width="2" stroke-miterlimit="10" x1="585.91" y1="493.748" x2="585.91" y2="484.289"/>
		
			<line fill="none" stroke="#000000" stroke-width="2" stroke-miterlimit="10" x1="591.583" y1="493.748" x2="591.583" y2="486.733"/>
		
			<line fill="none" stroke="#000000" stroke-width="2" stroke-miterlimit="10" x1="601.512" y1="493.846" x2="601.512" y2="486.831"/>
		
			<line fill="none" stroke="#000000" stroke-width="2" stroke-miterlimit="10" x1="607.091" y1="493.748" x2="607.091" y2="484.289"/>
		
			<line fill="none" stroke="#000000" stroke-width="2" stroke-miterlimit="10" x1="612.764" y1="493.748" x2="612.764" y2="486.733"/>
		
			<line fill="none" stroke="#000000" stroke-width="2" stroke-miterlimit="10" x1="622.314" y1="493.846" x2="622.314" y2="486.831"/>
		
			<line fill="none" stroke="#000000" stroke-width="2" stroke-miterlimit="10" x1="627.894" y1="493.748" x2="627.894" y2="484.289"/>
		
			<line fill="none" stroke="#000000" stroke-width="2" stroke-miterlimit="10" x1="633.566" y1="493.748" x2="633.566" y2="486.733"/>
		
			<line fill="none" stroke="#000000" stroke-width="2" stroke-miterlimit="10" x1="642.738" y1="493.846" x2="642.738" y2="486.831"/>
		
			<line fill="none" stroke="#000000" stroke-width="2" stroke-miterlimit="10" x1="648.316" y1="493.748" x2="648.316" y2="484.289"/>
		<line fill="none" stroke="#000000" stroke-width="2" stroke-miterlimit="10" x1="653.99" y1="493.748" x2="653.99" y2="486.733"/>
		
			<line fill="none" stroke="#000000" stroke-width="2" stroke-miterlimit="10" x1="663.162" y1="493.846" x2="663.162" y2="486.831"/>
		
			<line fill="none" stroke="#000000" stroke-width="2" stroke-miterlimit="10" x1="668.741" y1="493.748" x2="668.741" y2="484.289"/>
		
			<line fill="none" stroke="#000000" stroke-width="2" stroke-miterlimit="10" x1="674.414" y1="493.748" x2="674.414" y2="486.733"/>
		
			<line fill="none" stroke="#000000" stroke-width="2" stroke-miterlimit="10" x1="683.775" y1="493.846" x2="683.775" y2="486.831"/>
		
			<line fill="none" stroke="#000000" stroke-width="2" stroke-miterlimit="10" x1="689.354" y1="493.748" x2="689.354" y2="484.289"/>
		
			<line fill="none" stroke="#000000" stroke-width="2" stroke-miterlimit="10" x1="695.028" y1="493.748" x2="695.028" y2="486.733"/>
		
			<line fill="none" stroke="#000000" stroke-width="2" stroke-miterlimit="10" x1="705.333" y1="493.846" x2="705.333" y2="486.831"/>
		
			<line fill="none" stroke="#000000" stroke-width="2" stroke-miterlimit="10" x1="710.913" y1="493.748" x2="710.913" y2="484.289"/>
		
			<line fill="none" stroke="#000000" stroke-width="2" stroke-miterlimit="10" x1="716.586" y1="493.748" x2="716.586" y2="486.733"/>
		
			<line fill="none" stroke="#000000" stroke-width="2" stroke-miterlimit="10" x1="726.515" y1="493.846" x2="726.515" y2="486.831"/>
		
			<line fill="none" stroke="#000000" stroke-width="2" stroke-miterlimit="10" x1="768.364" y1="493.846" x2="768.364" y2="486.831"/>
		
			<line fill="none" stroke="#000000" stroke-width="2" stroke-miterlimit="10" x1="732.093" y1="493.748" x2="732.093" y2="484.289"/>
		
			<line fill="none" stroke="#000000" stroke-width="2" stroke-miterlimit="10" x1="772.864" y1="494.068" x2="772.864" y2="484.609"/>
		
			<line fill="none" stroke="#000000" stroke-width="2" stroke-miterlimit="10" x1="737.767" y1="493.748" x2="737.767" y2="486.733"/>
		
			<line fill="none" stroke="#000000" stroke-width="2" stroke-miterlimit="10" x1="748.127" y1="493.846" x2="748.127" y2="486.831"/>
		
			<line fill="none" stroke="#000000" stroke-width="2" stroke-miterlimit="10" x1="752.707" y1="493.748" x2="752.707" y2="484.289"/>
		
			<line fill="none" stroke="#000000" stroke-width="2" stroke-miterlimit="10" x1="758.379" y1="493.748" x2="758.379" y2="486.733"/>
		<g>
			<path stroke="#000000" d="M82.706,481.098v-0.843l1.044-1.046c2.512-2.466,3.663-3.777,3.663-5.307
				c0-1.029-0.469-1.982-1.937-1.982c-0.894,0-1.635,0.469-2.089,0.859l-0.424-0.968c0.667-0.577,1.649-1.03,2.77-1.03
				c2.118,0,3.011,1.498,3.011,2.949c0,1.874-1.316,3.387-3.39,5.447l-0.772,0.749v0.031h4.403v1.14H82.706z"/>
			<path stroke="#000000" d="M92.283,475.896c-1.105-0.53-1.574-1.404-1.574-2.278c0-1.607,1.316-2.7,3.058-2.7
				c1.906,0,2.875,1.218,2.875,2.497c0,0.858-0.424,1.795-1.634,2.372v0.047c1.226,0.5,1.982,1.404,1.982,2.622
				c0,1.779-1.468,2.949-3.343,2.949c-2.059,0-3.299-1.248-3.299-2.73c0-1.28,0.742-2.201,1.952-2.731L92.283,475.896z
				 M95.642,478.597c0-1.218-0.832-1.826-2.164-2.217c-1.15,0.344-1.771,1.14-1.771,2.107c-0.045,1.015,0.711,1.919,1.967,1.919
				C94.87,480.406,95.642,479.643,95.642,478.597z M91.979,473.524c-0.014,1.015,0.742,1.561,1.877,1.873
				c0.847-0.297,1.498-0.921,1.498-1.842c0-0.813-0.47-1.654-1.664-1.654C92.585,471.901,91.979,472.65,91.979,473.524z"/>
		</g>
		<g>
			<path stroke="#000000" d="M125.991,479.729c0.378,0.233,1.241,0.624,2.179,0.624c1.695,0,2.239-1.108,2.224-1.967
				c-0.015-1.42-1.256-2.028-2.542-2.028h-0.741v-1.03h0.741c0.969,0,2.194-0.516,2.194-1.717c0-0.813-0.5-1.53-1.725-1.53
				c-0.787,0-1.543,0.359-1.967,0.672l-0.363-0.999c0.53-0.39,1.529-0.78,2.587-0.78c1.938,0,2.815,1.187,2.815,2.419
				c0,1.062-0.621,1.95-1.815,2.404v0.03c1.209,0.234,2.179,1.171,2.194,2.591c0,1.623-1.242,3.043-3.587,3.043
				c-1.104,0-2.073-0.358-2.557-0.687L125.991,479.729z"/>
			<path stroke="#000000" d="M139.986,476.164c0,3.449-1.255,5.353-3.419,5.353c-1.922,0-3.238-1.856-3.269-5.212
				c0-3.419,1.437-5.275,3.435-5.275C138.792,471.029,139.986,472.934,139.986,476.164z M134.645,476.32
				c0,2.638,0.787,4.135,1.997,4.135c1.347,0,1.998-1.638,1.998-4.229c0-2.497-0.605-4.136-1.998-4.136
				C135.492,472.091,134.645,473.558,134.645,476.32z"/>
		</g>
		<g>
			<path stroke="#000000" d="M168.942,479.841c0.378,0.233,1.24,0.624,2.179,0.624c1.695,0,2.24-1.108,2.225-1.967
				c-0.015-1.42-1.256-2.028-2.542-2.028h-0.742v-1.03h0.742c0.968,0,2.194-0.516,2.194-1.717c0-0.813-0.499-1.53-1.725-1.53
				c-0.787,0-1.543,0.359-1.967,0.672l-0.363-0.999c0.529-0.39,1.528-0.78,2.588-0.78c1.937,0,2.814,1.187,2.814,2.419
				c0,1.062-0.621,1.95-1.816,2.404v0.03c1.21,0.234,2.179,1.171,2.194,2.591c0,1.623-1.24,3.043-3.586,3.043
				c-1.104,0-2.073-0.358-2.557-0.687L168.942,479.841z"/>
			<path stroke="#000000" d="M179.276,472.202h-0.031l-1.71,0.952l-0.257-1.046l2.149-1.186h1.135v10.145h-1.286V472.202z"/>
		</g>
	</g>
	<ellipse fill="none" stroke="#00A651" stroke-width="2" stroke-miterlimit="10" cx="234.77" cy="212.233" rx="28.531" ry="7.377"/>
	<path d="M209.047,207.939c-0.064-0.338-1.053-0.277-1,0c0.013,0.068,0.007,0.136,0.016,0.204c-0.26,0.034-0.546,0.101-0.579,0.046
		c0.053,0.09,0.083,0.188,0.118,0.285c-0.268-0.002-0.556,0.007-0.556,0.028c0,0.229,0.002,0.452,0.006,0.676
		c-0.046,0.023-0.078,0.048-0.069,0.074c0.357,1.08-0.489,2.61,0.456,3.48c0.21,0.194,1.071,0.013,0.964-0.086
		c-0.067-0.062-0.108-0.135-0.157-0.204c0.161-0.019,0.29-0.03,0.3-0.003c-0.073-0.197-0.118-0.393-0.171-0.588
		c0.011-0.139,0.023-0.277,0.046-0.423c0.252,0,0.505-0.08,0.5-0.238C208.893,210.096,209.254,209.029,209.047,207.939z"/>
	<path d="M261.984,208.314c-0.032-0.157-0.257-0.24-0.486-0.247c-0.031-0.063-0.057-0.129-0.094-0.19
		c-0.067-0.109-0.228-0.159-0.399-0.172c-0.181-0.195-0.918-0.187-0.958,0.109c-0.045,0.338-0.01,0.663,0.041,0.986
		c-0.054,0.493,0.085,0.979,0.209,1.576c0.03,0.144,0.235,0.222,0.451,0.239c-0.006,0.132-0.012,0.261-0.013,0.386
		c-0.002,0.161,0.242,0.243,0.489,0.246c-0.013,0.209-0.023,0.418-0.052,0.629c-0.041,0.301,0.953,0.344,1,0
		C262.336,210.672,262.223,209.5,261.984,208.314z"/>
	<g>
		
			<ellipse fill="none" stroke="#ED1C24" stroke-width="2" stroke-miterlimit="10" cx="661.546" cy="212.233" rx="48.535" ry="7.377"/>
		<path d="M707.693,208.5c-0.019-0.056-0.17-0.061-0.349-0.049c-0.033-0.26-0.062-0.521-0.067-0.785s-1.006-0.255-1,0
			c0.001,0.032,0.007,0.063,0.008,0.094c-0.283-0.038-0.848,0.049-0.842,0.073c0.263,1.063,0.729,2.051,1.084,3.083
			c0.028,0.081,0.218,0.092,0.423,0.079c0.026,0.085,0.051,0.17,0.077,0.255c0.045,0.145,0.299,0.19,0.54,0.178
			c0.014,0.052,0.03,0.104,0.043,0.156c0.029,0.122,0.994-0.024,1,0C708.362,210.538,708.033,209.519,707.693,208.5z"/>
	</g>
	<path d="M616.652,207.484c-0.026,0.057-0.049,0.115-0.075,0.172c-0.235-0.033-0.499-0.038-0.549,0.083
		c-0.056,0.138-0.119,0.273-0.188,0.408c-0.267-0.017-0.591,0.014-0.593,0.103c-0.003,0.198-0.025,0.389-0.045,0.58
		c-0.188,0.016-0.348,0.053-0.345,0.101c0.003,0.02,0,0.04,0.003,0.06c-0.069,0.031-0.126,0.073-0.142,0.132
		c-0.194,0.708-0.535,1.336-0.642,2.033c-0.038,0.025-0.067,0.056-0.08,0.095c-0.147,0.459-0.08,0.887,0.083,1.333
		c0.107,0.294,1.059,0.16,1,0c-0.057-0.155-0.096-0.308-0.124-0.461c0.039-0.036,0.066-0.077,0.058-0.127
		c-0.037-0.218-0.033-0.422-0.016-0.621c0.032,0.003,0.046,0.017,0.082,0.017c0.274,0,0.407-0.097,0.429-0.2
		c0.066-0.031,0.11-0.072,0.138-0.117c0.23,0.03,0.484,0.027,0.537-0.1c0.48-1.158,0.862-2.362,1.404-3.49
		C617.599,207.463,616.771,207.238,616.652,207.484z"/>
</g>
<g id="arrows">
	<polygon fill="#8DC63F" stroke="#8DC63F" stroke-miterlimit="10" points="41.353,530.418 79.93,555.169 79.93,546.31 
		553.364,546.31 553.364,514.929 79.93,514.929 79.93,505.624 	"/>
	<polygon fill="#EF4136" stroke="#EF4136" stroke-miterlimit="10" points="818.952,531.394 780.704,506.622 780.704,515.481 
		558.364,515.481 558.364,546.862 780.704,546.862 780.704,556.167 	"/>
	<g id="Red_arrow_text">
		
			<text transform="matrix(1.0165 0 0 1 564.0625 536.3672)" stroke="#000000" stroke-miterlimit="10" font-family="'MyriadPro-Regular'" font-size="18.0754">Higher risk to heart health</text>
	</g>
	<g id="Green_arrow_text">
		
			<text transform="matrix(1.0108 0 0 1 358.0322 535.8711)" stroke="#000000" stroke-miterlimit="10" font-family="'MyriadPro-Regular'" font-size="17.5198">Lower risk to heart health</text>
	</g>
</g>
<g id="text">
	
		<text transform="matrix(1 0 0 1 283.6973 40.7646)" stroke="#000000" stroke-miterlimit="10" font-family="'MyriadPro-Regular'" font-size="36.75">Waist Measurement</text>
</g>
</svg>
