<?xml version="1.0" encoding="utf-8"?>
<!-- Generator: Adobe Illustrator 16.0.0, SVG Export Plug-In . SVG Version: 6.00 Build 0)  -->
<!DOCTYPE svg PUBLIC "-//W3C//DTD SVG 1.1//EN" "http://www.w3.org/Graphics/SVG/1.1/DTD/svg11.dtd">
<svg version="1.1" xmlns="http://www.w3.org/2000/svg" xmlns:xlink="http://www.w3.org/1999/xlink" x="0px" y="0px"
	 width="858.776px" height="595.28px" viewBox="0 0 858.776 595.28" enable-background="new 0 0 858.776 595.28"
	 xml:space="preserve">
<g id="ruler">
	<path fill="none" stroke="#000000" stroke-width="2" stroke-miterlimit="10" d="M205.254,125.479
		c-1.852,1.381-7.902,2.134-17.045,7.53c-19.455-0.376-19.27,27.108-19.27,27.108s-6.113,10.918-9.635,29.367
		c-8.893,16.001-5.928,41.603-7.225,47.439c-1.298,5.836-6.301,19.39-2.595,32.379c2.038,4.895,4.817,14.307,6.114,14.496
		s3.15-6.588,2.965-9.224c-0.186-2.636-2.508-4.681-2.828-7.516c-0.322-2.838,1.235-6.684,2.087-6.792
		c1.481-0.188,2.964,10.73,5.188,9.035c2.224-1.694,2.409-9.412,2.409-9.412c1.667-3.2,0.185-10.354-2.224-11.672
		c-2.409-1.317-1.853-6.4-0.741-9.977c1.111-3.577,6.67-11.86,9.82-18.449c3.148-6.588-0.371-20.143,2.408-21.648
		c2.779-1.506,7.967-21.649,7.967-21.649s1.668,11.483,5.002,13.742c3.336,2.259,5.494,17.319,3.768,23.846
		c-1.728,6.526-4.696,14.308-5.682,22.84c-0.986,8.537-8.152,57.481-6.423,69.028c1.729,11.545,4.446,16.814,4.446,16.814
		s0.495,13.555,2.224,16.566c-3.706,12.299-1.235,42.918,0.741,49.699c1.976,6.777,3.459,21.332,2.223,24.85
		c-1.235,3.514-10.189,13.553-14.08,15.061c-3.891,1.506-1.297,5.27,1.111,5.459c2.408,0.188,19.084,0.563,21.121,0.563
		c2.039,0,5.93-4.33,5.188-6.588s-1.853-11.295-1.482-13.742s2.224-33.385,5.929-37.648c3.706-4.27,2.224-19.83-0.988-34.139
		c-1.234-4.016,0.492-14.559,2.965-18.826c4.446-8.279,6.917-55.47,6.917-55.47h3.706c0,0,3.953,48.945,5.929,52.458
		s3.891,12.488,2.224,19.078c-3.706,15.625-1.297,29.744,2.037,36.52c3.336,6.777,4.633,36.521,4.633,36.521
		s-1.854,13.553-1.854,16.002c0,2.447,3.706,4.895,5.559,5.082c1.854,0.189,18.713,0,22.975,0c4.261,0,2.222-6.4-2.594-7.531
		c-3.15-1.881-6.855-5.27-8.523-8.283c-1.667-3.01-2.223-24.094-2.223-24.094s6.484-44.053,2.779-57.605
		c1.853-4.143,0.186-13.178,0.186-13.178s3.21-6.023,5.188-14.306c1.977-8.283-4.198-63.002-5.68-71.284
		c-1.482-8.283-0.992-13.178-3.584-21.399c-2.593-8.221-0.927-21.21,1.297-23.47c2.594-2.259,4.261-19.389,4.261-19.389
		s3.706,19.201,6.671,20.33c3.334,0.376-0.371,13.931,2.223,21.46c2.593,7.53,10.746,20.52,11.671,25.79
		c0.928,5.271-1.48,9.225-2.777,11.484c-1.297,2.258-3.336,19.202-0.742,18.825c2.594-0.376,3.705-10.918,6.115-11.294
		c2.408-0.377,2.777,4.518,2.777,4.518s0.928,4.895-1.111,8.848c-2.037,3.953,0.371,14.119,2.039,12.236s6.67-7.53,6.484-10.73
		c-0.186-3.2,2.594-17.884,0.74-21.461c-1.852-3.576-2.963-12.989-2.963-12.989s-1.113-28.614-2.779-36.333
		c-1.668-7.718-6.115-15.625-6.115-15.625s-1.482-17.695-5.188-27.107c1.482-2.447-2.037-30.309-18.527-30.309
		c-13.525-6.589-18.714-4.33-20.011-7.341c-1.297-3.013-0.927-5.271-0.556-10.166c3.335-1.694,4.447-7.718,4.447-7.718
		c3.148-0.188,1.852-9.977,1.481-11.86c-0.37-1.882-2.779-2.635-2.779-2.635s-0.185-6.4-1.111-11.295
		c-2.224-9.977-25.198-9.977-27.792-0.941c-2.594,5.836-2.594,13.742-2.594,13.742s-2.224,0.188-2.965,1.506
		c-0.74,1.318-0.186,10.73,2.965,10.918c0.248,6.338,4.817,9.413,4.817,9.413C206.366,117.007,207.105,124.098,205.254,125.479z"/>
	<g id="Ruler_Text">
	</g>
	<g id="stripes">
		
			<rect id="yellow" x="64.663" y="458.288" fill="#F9ED32" stroke="#F9ED32" stroke-miterlimit="10" width="702.224" height="35.267"/>
		<g id="Numbers_1_">
			
				<text transform="matrix(0.978 0 0 1 190.7749 480.6514)" stroke="#000000" stroke-miterlimit="10" font-family="'MyriadPro-Regular'" font-size="16.2445">32</text>
			
				<text transform="matrix(0.978 0 0 1 233.2036 481.3555)" stroke="#000000" stroke-miterlimit="10" font-family="'MyriadPro-Regular'" font-size="15.9415">33</text>
			
				<text transform="matrix(0.978 0 0 1 275.1685 481.4287)" stroke="#000000" stroke-miterlimit="10" font-family="'MyriadPro-Regular'" font-size="16.0126">34</text>
			
				<text transform="matrix(0.978 0 0 1 315.4282 481.4785)" stroke="#000000" stroke-miterlimit="10" font-family="'MyriadPro-Regular'" font-size="16">35</text>
			
				<text transform="matrix(0.978 0 0 1 359.7324 481.0469)" stroke="#000000" stroke-miterlimit="10" font-family="'MyriadPro-Regular'" font-size="15.068">36</text>
			
				<text transform="matrix(0.978 0 0 1 400.8071 480.9941)" stroke="#000000" stroke-miterlimit="10" font-family="'MyriadPro-Regular'" font-size="15.2518">37</text>
			
				<text transform="matrix(0.978 0 0 1 442.5156 480.8594)" stroke="#000000" stroke-miterlimit="10" font-family="'MyriadPro-Regular'" font-size="15.1529">38</text>
			
				<text transform="matrix(0.978 0 0 1 483.4551 480.7109)" stroke="#000000" stroke-miterlimit="10" font-family="'MyriadPro-Regular'" font-size="14.8263">39</text>
			
				<text transform="matrix(0.978 0 0 1 525.9063 481.3438)" stroke="#000000" stroke-miterlimit="10" font-family="'MyriadPro-Regular'" font-size="15.0026">40</text>
			
				<text transform="matrix(0.978 0 0 1 566.8838 481.501)" stroke="#000000" stroke-miterlimit="10" font-family="'MyriadPro-Regular'" font-size="15.8963">41</text>
			
				<text transform="matrix(0.978 0 0 1 610.2451 481.29)" stroke="#000000" stroke-miterlimit="10" font-family="'MyriadPro-Regular'" font-size="15">42</text>
			
				<text transform="matrix(0.978 0 0 1 651.4063 480.9492)" stroke="#000000" stroke-miterlimit="10" font-family="'MyriadPro-Regular'" font-size="15.2813">43</text>
			<g>
				<path stroke="#000000" stroke-miterlimit="10" d="M698.27,481.122v-2.782h-4.617v-0.891l4.433-6.486h1.452v6.314h1.392v1.063
					h-1.392v2.782H698.27z M698.27,477.277v-3.393c0-0.53,0.016-1.063,0.045-1.594h-0.045c-0.305,0.594-0.549,1.032-0.826,1.501
					l-2.43,3.454v0.031H698.27z"/>
				<path stroke="#000000" stroke-miterlimit="10" d="M706.876,481.175v-2.782h-4.617v-0.891l4.433-6.486h1.453v6.314h1.39v1.063
					h-1.39v2.782H706.876z M706.876,477.33v-3.393c0-0.53,0.015-1.063,0.045-1.594h-0.045c-0.306,0.594-0.55,1.032-0.825,1.501
					l-2.432,3.454v0.031H706.876z"/>
			</g>
			
				<text transform="matrix(0.978 0 0 1 735.1172 480.9883)" stroke="#000000" stroke-miterlimit="10" font-family="'MyriadPro-Regular'" font-size="15.0492">45</text>
		</g>
		
			<line fill="none" stroke="#000000" stroke-width="2" stroke-miterlimit="10" x1="208.281" y1="493.846" x2="208.281" y2="477.853"/>
		
			<line fill="none" stroke="#000000" stroke-width="2" stroke-miterlimit="10" x1="229.507" y1="493.781" x2="229.507" y2="482.664"/>
		
			<line fill="none" stroke="#000000" stroke-width="2" stroke-miterlimit="10" x1="250.245" y1="493.846" x2="250.245" y2="477.853"/>
		
			<line fill="none" stroke="#000000" stroke-width="2" stroke-miterlimit="10" x1="271.471" y1="493.781" x2="271.471" y2="482.664"/>
		
			<line fill="none" stroke="#000000" stroke-width="2" stroke-miterlimit="10" x1="292.563" y1="493.846" x2="292.563" y2="477.853"/>
		<line fill="none" stroke="#000000" stroke-width="2" stroke-miterlimit="10" x1="313.79" y1="493.781" x2="313.79" y2="482.664"/>
		
			<line fill="none" stroke="#000000" stroke-width="2" stroke-miterlimit="10" x1="334.118" y1="493.846" x2="334.118" y2="477.853"/>
		
			<line fill="none" stroke="#000000" stroke-width="2" stroke-miterlimit="10" x1="355.344" y1="493.781" x2="355.344" y2="482.664"/>
		
			<line fill="none" stroke="#000000" stroke-width="2" stroke-miterlimit="10" x1="376.185" y1="493.846" x2="376.185" y2="477.853"/>
		
			<line fill="none" stroke="#000000" stroke-width="2" stroke-miterlimit="10" x1="397.413" y1="493.781" x2="397.413" y2="482.664"/>
		
			<line fill="none" stroke="#000000" stroke-width="2" stroke-miterlimit="10" x1="418.162" y1="493.846" x2="418.162" y2="477.853"/>
		
			<line fill="none" stroke="#000000" stroke-width="2" stroke-miterlimit="10" x1="439.388" y1="493.781" x2="439.388" y2="482.664"/>
		
			<line fill="none" stroke="#000000" stroke-width="2" stroke-miterlimit="10" x1="459.715" y1="493.846" x2="459.715" y2="477.853"/>
		
			<line fill="none" stroke="#000000" stroke-width="2" stroke-miterlimit="10" x1="480.943" y1="493.781" x2="480.943" y2="482.664"/>
		
			<line fill="none" stroke="#000000" stroke-width="2" stroke-miterlimit="10" x1="500.929" y1="493.846" x2="500.929" y2="477.853"/>
		
			<line fill="none" stroke="#000000" stroke-width="2" stroke-miterlimit="10" x1="522.156" y1="493.781" x2="522.156" y2="482.664"/>
		
			<line fill="none" stroke="#000000" stroke-width="2" stroke-miterlimit="10" x1="543.588" y1="493.846" x2="543.588" y2="477.853"/>
		
			<line fill="none" stroke="#000000" stroke-width="2" stroke-miterlimit="10" x1="564.814" y1="493.781" x2="564.814" y2="482.664"/>
		<line fill="none" stroke="#000000" stroke-width="2" stroke-miterlimit="10" x1="584.88" y1="493.846" x2="584.88" y2="477.853"/>
		
			<line fill="none" stroke="#000000" stroke-width="2" stroke-miterlimit="10" x1="606.107" y1="493.781" x2="606.107" y2="482.664"/>
		
			<line fill="none" stroke="#000000" stroke-width="2" stroke-miterlimit="10" x1="626.778" y1="493.846" x2="626.778" y2="479.141"/>
		
			<line fill="none" stroke="#000000" stroke-width="2" stroke-miterlimit="10" x1="648.004" y1="493.781" x2="648.004" y2="482.664"/>
		
			<line fill="none" stroke="#000000" stroke-width="2" stroke-miterlimit="10" x1="668.752" y1="493.846" x2="668.752" y2="477.853"/>
		<line fill="none" stroke="#000000" stroke-width="2" stroke-miterlimit="10" x1="689.98" y1="493.781" x2="689.98" y2="482.664"/>
		
			<line fill="none" stroke="#000000" stroke-width="2" stroke-miterlimit="10" x1="711.242" y1="493.846" x2="711.242" y2="477.853"/>
		
			<line fill="none" stroke="#000000" stroke-width="2" stroke-miterlimit="10" x1="753.219" y1="493.846" x2="753.219" y2="477.853"/>
		<line fill="none" stroke="#000000" stroke-width="2" stroke-miterlimit="10" x1="732.47" y1="493.781" x2="732.47" y2="482.664"/>
		
			<line fill="none" stroke="#000000" stroke-width="2" stroke-miterlimit="10" x1="187.543" y1="493.781" x2="187.543" y2="482.664"/>
		
			<line fill="none" stroke="#000000" stroke-width="2" stroke-miterlimit="10" x1="192.216" y1="493.846" x2="192.216" y2="486.831"/>
		
			<line fill="none" stroke="#000000" stroke-width="2" stroke-miterlimit="10" x1="197.844" y1="493.748" x2="197.844" y2="484.289"/>
		
			<line fill="none" stroke="#000000" stroke-width="2" stroke-miterlimit="10" x1="203.566" y1="493.748" x2="203.566" y2="486.733"/>
		
			<line fill="none" stroke="#000000" stroke-width="2" stroke-miterlimit="10" x1="213.103" y1="493.846" x2="213.103" y2="486.831"/>
		<line fill="none" stroke="#000000" stroke-width="2" stroke-miterlimit="10" x1="218.73" y1="493.748" x2="218.73" y2="484.289"/>
		
			<line fill="none" stroke="#000000" stroke-width="2" stroke-miterlimit="10" x1="224.453" y1="493.748" x2="224.453" y2="486.733"/>
		
			<line fill="none" stroke="#000000" stroke-width="2" stroke-miterlimit="10" x1="233.513" y1="493.846" x2="233.513" y2="486.831"/>
		
			<line fill="none" stroke="#000000" stroke-width="2" stroke-miterlimit="10" x1="239.141" y1="493.748" x2="239.141" y2="484.289"/>
		
			<line fill="none" stroke="#000000" stroke-width="2" stroke-miterlimit="10" x1="244.863" y1="493.748" x2="244.863" y2="486.733"/>
		
			<line fill="none" stroke="#000000" stroke-width="2" stroke-miterlimit="10" x1="254.686" y1="493.846" x2="254.686" y2="486.831"/>
		
			<line fill="none" stroke="#000000" stroke-width="2" stroke-miterlimit="10" x1="260.313" y1="493.748" x2="260.313" y2="484.289"/>
		
			<line fill="none" stroke="#000000" stroke-width="2" stroke-miterlimit="10" x1="266.035" y1="493.748" x2="266.035" y2="486.733"/>
		
			<line fill="none" stroke="#000000" stroke-width="2" stroke-miterlimit="10" x1="275.668" y1="493.846" x2="275.668" y2="486.831"/>
		
			<line fill="none" stroke="#000000" stroke-width="2" stroke-miterlimit="10" x1="281.295" y1="493.748" x2="281.295" y2="484.289"/>
		
			<line fill="none" stroke="#000000" stroke-width="2" stroke-miterlimit="10" x1="287.018" y1="493.748" x2="287.018" y2="486.733"/>
		
			<line fill="none" stroke="#000000" stroke-width="2" stroke-miterlimit="10" x1="297.031" y1="493.846" x2="297.031" y2="486.831"/>
		
			<line fill="none" stroke="#000000" stroke-width="2" stroke-miterlimit="10" x1="302.659" y1="493.748" x2="302.659" y2="484.289"/>
		
			<line fill="none" stroke="#000000" stroke-width="2" stroke-miterlimit="10" x1="308.381" y1="493.748" x2="308.381" y2="486.733"/>
		
			<line fill="none" stroke="#000000" stroke-width="2" stroke-miterlimit="10" x1="318.014" y1="493.846" x2="318.014" y2="486.831"/>
		
			<line fill="none" stroke="#000000" stroke-width="2" stroke-miterlimit="10" x1="323.641" y1="493.748" x2="323.641" y2="484.289"/>
		
			<line fill="none" stroke="#000000" stroke-width="2" stroke-miterlimit="10" x1="329.363" y1="493.748" x2="329.363" y2="486.733"/>
		
			<line fill="none" stroke="#000000" stroke-width="2" stroke-miterlimit="10" x1="338.805" y1="493.846" x2="338.805" y2="486.831"/>
		
			<line fill="none" stroke="#000000" stroke-width="2" stroke-miterlimit="10" x1="344.432" y1="493.748" x2="344.432" y2="484.289"/>
		
			<line fill="none" stroke="#000000" stroke-width="2" stroke-miterlimit="10" x1="350.154" y1="493.748" x2="350.154" y2="486.733"/>
		<line fill="none" stroke="#000000" stroke-width="2" stroke-miterlimit="10" x1="83.446" y1="493.846" x2="83.446" y2="477.853"/>
		
			<line fill="none" stroke="#000000" stroke-width="2" stroke-miterlimit="10" x1="104.673" y1="493.781" x2="104.673" y2="482.664"/>
		
			<line fill="none" stroke="#000000" stroke-width="2" stroke-miterlimit="10" x1="125.764" y1="493.846" x2="125.764" y2="477.853"/>
		
			<line fill="none" stroke="#000000" stroke-width="2" stroke-miterlimit="10" x1="146.991" y1="493.781" x2="146.991" y2="482.664"/>
		
			<line fill="none" stroke="#000000" stroke-width="2" stroke-miterlimit="10" x1="167.319" y1="493.846" x2="167.319" y2="477.853"/>
		<line fill="none" stroke="#000000" stroke-width="2" stroke-miterlimit="10" x1="66.714" y1="493.846" x2="66.714" y2="486.831"/>
		<line fill="none" stroke="#000000" stroke-width="2" stroke-miterlimit="10" x1="72.341" y1="493.748" x2="72.341" y2="484.289"/>
		<line fill="none" stroke="#000000" stroke-width="2" stroke-miterlimit="10" x1="78.064" y1="493.748" x2="78.064" y2="486.733"/>
		<line fill="none" stroke="#000000" stroke-width="2" stroke-miterlimit="10" x1="87.887" y1="493.846" x2="87.887" y2="486.831"/>
		<line fill="none" stroke="#000000" stroke-width="2" stroke-miterlimit="10" x1="93.515" y1="493.748" x2="93.515" y2="484.289"/>
		<line fill="none" stroke="#000000" stroke-width="2" stroke-miterlimit="10" x1="99.237" y1="493.748" x2="99.237" y2="486.733"/>
		
			<line fill="none" stroke="#000000" stroke-width="2" stroke-miterlimit="10" x1="108.869" y1="493.846" x2="108.869" y2="486.831"/>
		
			<line fill="none" stroke="#000000" stroke-width="2" stroke-miterlimit="10" x1="114.496" y1="493.748" x2="114.496" y2="484.289"/>
		
			<line fill="none" stroke="#000000" stroke-width="2" stroke-miterlimit="10" x1="120.219" y1="493.748" x2="120.219" y2="486.733"/>
		
			<line fill="none" stroke="#000000" stroke-width="2" stroke-miterlimit="10" x1="130.232" y1="493.846" x2="130.232" y2="486.831"/>
		<line fill="none" stroke="#000000" stroke-width="2" stroke-miterlimit="10" x1="135.86" y1="493.748" x2="135.86" y2="484.289"/>
		
			<line fill="none" stroke="#000000" stroke-width="2" stroke-miterlimit="10" x1="141.583" y1="493.748" x2="141.583" y2="486.733"/>
		
			<line fill="none" stroke="#000000" stroke-width="2" stroke-miterlimit="10" x1="151.215" y1="493.846" x2="151.215" y2="486.831"/>
		
			<line fill="none" stroke="#000000" stroke-width="2" stroke-miterlimit="10" x1="156.842" y1="493.748" x2="156.842" y2="484.289"/>
		
			<line fill="none" stroke="#000000" stroke-width="2" stroke-miterlimit="10" x1="162.565" y1="493.748" x2="162.565" y2="486.733"/>
		
			<line fill="none" stroke="#000000" stroke-width="2" stroke-miterlimit="10" x1="172.006" y1="493.846" x2="172.006" y2="486.831"/>
		
			<line fill="none" stroke="#000000" stroke-width="2" stroke-miterlimit="10" x1="177.633" y1="493.748" x2="177.633" y2="484.289"/>
		
			<line fill="none" stroke="#000000" stroke-width="2" stroke-miterlimit="10" x1="183.355" y1="493.748" x2="183.355" y2="486.733"/>
		
			<line fill="none" stroke="#000000" stroke-width="2" stroke-miterlimit="10" x1="359.788" y1="493.846" x2="359.788" y2="486.831"/>
		
			<line fill="none" stroke="#000000" stroke-width="2" stroke-miterlimit="10" x1="365.415" y1="493.748" x2="365.415" y2="484.289"/>
		
			<line fill="none" stroke="#000000" stroke-width="2" stroke-miterlimit="10" x1="371.137" y1="493.748" x2="371.137" y2="486.733"/>
		
			<line fill="none" stroke="#000000" stroke-width="2" stroke-miterlimit="10" x1="380.579" y1="493.846" x2="380.579" y2="486.831"/>
		
			<line fill="none" stroke="#000000" stroke-width="2" stroke-miterlimit="10" x1="386.206" y1="493.748" x2="386.206" y2="484.289"/>
		
			<line fill="none" stroke="#000000" stroke-width="2" stroke-miterlimit="10" x1="391.928" y1="493.748" x2="391.928" y2="486.733"/>
		
			<line fill="none" stroke="#000000" stroke-width="2" stroke-miterlimit="10" x1="401.942" y1="493.846" x2="401.942" y2="486.831"/>
		
			<line fill="none" stroke="#000000" stroke-width="2" stroke-miterlimit="10" x1="407.569" y1="493.748" x2="407.569" y2="484.289"/>
		
			<line fill="none" stroke="#000000" stroke-width="2" stroke-miterlimit="10" x1="413.292" y1="493.748" x2="413.292" y2="486.733"/>
		
			<line fill="none" stroke="#000000" stroke-width="2" stroke-miterlimit="10" x1="422.542" y1="493.846" x2="422.542" y2="486.831"/>
		<line fill="none" stroke="#000000" stroke-width="2" stroke-miterlimit="10" x1="428.17" y1="493.748" x2="428.17" y2="484.289"/>
		
			<line fill="none" stroke="#000000" stroke-width="2" stroke-miterlimit="10" x1="433.892" y1="493.748" x2="433.892" y2="486.733"/>
		
			<line fill="none" stroke="#000000" stroke-width="2" stroke-miterlimit="10" x1="443.525" y1="493.846" x2="443.525" y2="486.831"/>
		
			<line fill="none" stroke="#000000" stroke-width="2" stroke-miterlimit="10" x1="449.151" y1="493.748" x2="449.151" y2="484.289"/>
		
			<line fill="none" stroke="#000000" stroke-width="2" stroke-miterlimit="10" x1="454.874" y1="493.748" x2="454.874" y2="486.733"/>
		
			<line fill="none" stroke="#000000" stroke-width="2" stroke-miterlimit="10" x1="464.126" y1="493.846" x2="464.126" y2="486.831"/>
		
			<line fill="none" stroke="#000000" stroke-width="2" stroke-miterlimit="10" x1="469.752" y1="493.748" x2="469.752" y2="484.289"/>
		
			<line fill="none" stroke="#000000" stroke-width="2" stroke-miterlimit="10" x1="475.476" y1="493.748" x2="475.476" y2="486.733"/>
		
			<line fill="none" stroke="#000000" stroke-width="2" stroke-miterlimit="10" x1="484.917" y1="493.846" x2="484.917" y2="486.831"/>
		
			<line fill="none" stroke="#000000" stroke-width="2" stroke-miterlimit="10" x1="490.544" y1="493.748" x2="490.544" y2="484.289"/>
		
			<line fill="none" stroke="#000000" stroke-width="2" stroke-miterlimit="10" x1="496.265" y1="493.748" x2="496.265" y2="486.733"/>
		
			<line fill="none" stroke="#000000" stroke-width="2" stroke-miterlimit="10" x1="505.518" y1="493.846" x2="505.518" y2="486.831"/>
		
			<line fill="none" stroke="#000000" stroke-width="2" stroke-miterlimit="10" x1="511.144" y1="493.748" x2="511.144" y2="484.289"/>
		
			<line fill="none" stroke="#000000" stroke-width="2" stroke-miterlimit="10" x1="516.865" y1="493.748" x2="516.865" y2="486.733"/>
		
			<line fill="none" stroke="#000000" stroke-width="2" stroke-miterlimit="10" x1="527.071" y1="493.846" x2="527.071" y2="486.831"/>
		
			<line fill="none" stroke="#000000" stroke-width="2" stroke-miterlimit="10" x1="532.699" y1="493.748" x2="532.699" y2="484.289"/>
		
			<line fill="none" stroke="#000000" stroke-width="2" stroke-miterlimit="10" x1="538.422" y1="493.748" x2="538.422" y2="486.733"/>
		
			<line fill="none" stroke="#000000" stroke-width="2" stroke-miterlimit="10" x1="548.436" y1="493.846" x2="548.436" y2="486.831"/>
		
			<line fill="none" stroke="#000000" stroke-width="2" stroke-miterlimit="10" x1="554.063" y1="493.748" x2="554.063" y2="484.289"/>
		
			<line fill="none" stroke="#000000" stroke-width="2" stroke-miterlimit="10" x1="559.784" y1="493.748" x2="559.784" y2="486.733"/>
		
			<line fill="none" stroke="#000000" stroke-width="2" stroke-miterlimit="10" x1="568.655" y1="493.846" x2="568.655" y2="486.831"/>
		
			<line fill="none" stroke="#000000" stroke-width="2" stroke-miterlimit="10" x1="574.281" y1="493.748" x2="574.281" y2="484.289"/>
		
			<line fill="none" stroke="#000000" stroke-width="2" stroke-miterlimit="10" x1="580.003" y1="493.748" x2="580.003" y2="486.733"/>
		
			<line fill="none" stroke="#000000" stroke-width="2" stroke-miterlimit="10" x1="590.018" y1="493.846" x2="590.018" y2="486.831"/>
		
			<line fill="none" stroke="#000000" stroke-width="2" stroke-miterlimit="10" x1="595.645" y1="493.748" x2="595.645" y2="484.289"/>
		
			<line fill="none" stroke="#000000" stroke-width="2" stroke-miterlimit="10" x1="601.366" y1="493.748" x2="601.366" y2="486.733"/>
		<line fill="none" stroke="#000000" stroke-width="2" stroke-miterlimit="10" x1="611" y1="493.846" x2="611" y2="486.831"/>
		
			<line fill="none" stroke="#000000" stroke-width="2" stroke-miterlimit="10" x1="616.627" y1="493.748" x2="616.627" y2="484.289"/>
		<line fill="none" stroke="#000000" stroke-width="2" stroke-miterlimit="10" x1="622.35" y1="493.748" x2="622.35" y2="486.733"/>
		
			<line fill="none" stroke="#000000" stroke-width="2" stroke-miterlimit="10" x1="631.601" y1="493.846" x2="631.601" y2="486.831"/>
		
			<line fill="none" stroke="#000000" stroke-width="2" stroke-miterlimit="10" x1="637.227" y1="493.748" x2="637.227" y2="484.289"/>
		<line fill="none" stroke="#000000" stroke-width="2" stroke-miterlimit="10" x1="642.95" y1="493.748" x2="642.95" y2="486.733"/>
		
			<line fill="none" stroke="#000000" stroke-width="2" stroke-miterlimit="10" x1="652.201" y1="493.846" x2="652.201" y2="486.831"/>
		
			<line fill="none" stroke="#000000" stroke-width="2" stroke-miterlimit="10" x1="657.828" y1="493.748" x2="657.828" y2="484.289"/>
		
			<line fill="none" stroke="#000000" stroke-width="2" stroke-miterlimit="10" x1="663.551" y1="493.748" x2="663.551" y2="486.733"/>
		
			<line fill="none" stroke="#000000" stroke-width="2" stroke-miterlimit="10" x1="672.992" y1="493.846" x2="672.992" y2="486.831"/>
		<line fill="none" stroke="#000000" stroke-width="2" stroke-miterlimit="10" x1="678.62" y1="493.748" x2="678.62" y2="484.289"/>
		
			<line fill="none" stroke="#000000" stroke-width="2" stroke-miterlimit="10" x1="684.343" y1="493.748" x2="684.343" y2="486.733"/>
		
			<line fill="none" stroke="#000000" stroke-width="2" stroke-miterlimit="10" x1="694.736" y1="493.846" x2="694.736" y2="486.831"/>
		
			<line fill="none" stroke="#000000" stroke-width="2" stroke-miterlimit="10" x1="700.365" y1="493.748" x2="700.365" y2="484.289"/>
		
			<line fill="none" stroke="#000000" stroke-width="2" stroke-miterlimit="10" x1="706.087" y1="493.748" x2="706.087" y2="486.733"/>
		
			<line fill="none" stroke="#000000" stroke-width="2" stroke-miterlimit="10" x1="716.102" y1="493.846" x2="716.102" y2="486.831"/>
		
			<line fill="none" stroke="#000000" stroke-width="2" stroke-miterlimit="10" x1="758.313" y1="493.846" x2="758.313" y2="486.831"/>
		
			<line fill="none" stroke="#000000" stroke-width="2" stroke-miterlimit="10" x1="721.728" y1="493.748" x2="721.728" y2="484.289"/>
		
			<line fill="none" stroke="#000000" stroke-width="2" stroke-miterlimit="10" x1="762.853" y1="494.068" x2="762.853" y2="484.609"/>
		
			<line fill="none" stroke="#000000" stroke-width="2" stroke-miterlimit="10" x1="727.451" y1="493.748" x2="727.451" y2="486.733"/>
		<line fill="none" stroke="#000000" stroke-width="2" stroke-miterlimit="10" x1="737.9" y1="493.846" x2="737.9" y2="486.831"/>
		
			<line fill="none" stroke="#000000" stroke-width="2" stroke-miterlimit="10" x1="742.521" y1="493.748" x2="742.521" y2="484.289"/>
		
			<line fill="none" stroke="#000000" stroke-width="2" stroke-miterlimit="10" x1="748.241" y1="493.748" x2="748.241" y2="486.733"/>
		<g>
			<path stroke="#000000" d="M66.723,481.095v-0.843l1.053-1.046c2.534-2.466,3.694-3.777,3.694-5.307
				c0-1.029-0.474-1.982-1.954-1.982c-0.901,0-1.649,0.469-2.107,0.859l-0.427-0.968c0.672-0.577,1.664-1.03,2.793-1.03
				c2.136,0,3.037,1.498,3.037,2.949c0,1.874-1.328,3.387-3.419,5.447l-0.779,0.749v0.031h4.441v1.14H66.723z"/>
			<path stroke="#000000" d="M76.383,475.883c-1.115-0.53-1.588-1.404-1.588-2.278c0-1.607,1.328-2.7,3.084-2.7
				c1.923,0,2.899,1.218,2.899,2.497c0,0.858-0.427,1.795-1.648,2.372v0.047c1.237,0.5,1.999,1.404,1.999,2.622
				c0,1.779-1.48,2.949-3.372,2.949c-2.076,0-3.328-1.248-3.328-2.73c0-1.28,0.749-2.201,1.968-2.731L76.383,475.883z
				 M79.771,478.583c0-1.218-0.839-1.826-2.182-2.217c-1.16,0.344-1.786,1.14-1.786,2.107c-0.046,1.015,0.717,1.919,1.984,1.919
				C78.993,480.393,79.771,479.629,79.771,478.583z M76.077,473.511c-0.014,1.015,0.749,1.561,1.894,1.873
				c0.854-0.297,1.511-0.921,1.511-1.842c0-0.813-0.474-1.654-1.678-1.654C76.688,471.888,76.077,472.637,76.077,473.511z"/>
		</g>
		<g>
			<path stroke="#000000" d="M110.383,479.713c0.382,0.233,1.251,0.624,2.198,0.624c1.71,0,2.258-1.108,2.243-1.967
				c-0.015-1.42-1.267-2.028-2.564-2.028h-0.748v-1.03h0.748c0.977,0,2.213-0.516,2.213-1.717c0-0.813-0.504-1.53-1.74-1.53
				c-0.794,0-1.557,0.359-1.984,0.672l-0.366-0.999c0.534-0.39,1.542-0.78,2.61-0.78c1.954,0,2.839,1.187,2.839,2.419
				c0,1.062-0.626,1.95-1.831,2.404v0.03c1.22,0.234,2.197,1.171,2.212,2.591c0,1.623-1.252,3.043-3.618,3.043
				c-1.113,0-2.091-0.358-2.579-0.687L110.383,479.713z"/>
			<path stroke="#000000" d="M124.5,476.145c0,3.449-1.266,5.353-3.449,5.353c-1.938,0-3.266-1.856-3.296-5.212
				c0-3.419,1.449-5.275,3.464-5.275C123.295,471.01,124.5,472.914,124.5,476.145z M119.112,476.301
				c0,2.638,0.794,4.135,2.015,4.135c1.359,0,2.015-1.638,2.015-4.229c0-2.497-0.61-4.136-2.015-4.136
				C119.966,472.071,119.112,473.538,119.112,476.301z"/>
		</g>
		<g>
			<path stroke="#000000" d="M153.706,479.818c0.382,0.233,1.251,0.624,2.198,0.624c1.709,0,2.259-1.108,2.244-1.967
				c-0.015-1.42-1.267-2.028-2.564-2.028h-0.748v-1.03h0.748c0.977,0,2.213-0.516,2.213-1.717c0-0.813-0.503-1.53-1.74-1.53
				c-0.793,0-1.557,0.359-1.984,0.672l-0.366-0.999c0.534-0.39,1.541-0.78,2.61-0.78c1.953,0,2.839,1.187,2.839,2.419
				c0,1.062-0.626,1.95-1.832,2.404v0.03c1.221,0.234,2.198,1.171,2.213,2.591c0,1.623-1.251,3.043-3.617,3.043
				c-1.114,0-2.091-0.358-2.579-0.687L153.706,479.818z"/>
			<path stroke="#000000" d="M164.129,472.196h-0.031l-1.725,0.952l-0.259-1.046l2.167-1.186h1.145v10.145h-1.297V472.196z"/>
		</g>
	</g>
	<ellipse fill="none" stroke="#00A651" stroke-width="2" stroke-miterlimit="10" cx="218.77" cy="212.233" rx="28.531" ry="7.377"/>
	<path fill="#FFFFFF" stroke="#000000" stroke-width="2" stroke-miterlimit="10" d="M631.607,125.229
		c-1.189,1.32-10.361,3.262-20.094,7.78c-23.226-0.375-23.583,25.226-23.583,25.226s-6.722,12.801-10.923,31.249
		c-7.572,9.479-7.078,41.604-8.628,47.439c-1.548,5.836-7.521,19.39-3.096,32.379c2.433,4.895,5.751,14.308,7.298,14.495
		c1.55,0.188,3.762-6.588,3.542-9.224c-0.224-2.636-2.993-4.68-3.378-7.517c-0.384-2.837,1.477-6.681,2.491-6.791
		c1.771-0.188,3.54,10.73,6.195,9.036c2.653-1.694,2.874-9.412,2.874-9.412c1.99-3.2,0.22-10.354-2.655-11.672
		c-2.874-1.317-2.209-6.4-0.884-9.978c1.326-3.577,7.077-13.242,9.607-19.201c2.53-5.959,3.99-16.82,6.724-20.519
		c2.731-3.699,6.863-21.902,7.778-22.025c0.917-0.123,0.447,10.852,3.088,13.554c1.484,5.336-20.062,26.42-5.174,46.121
		c-8.732,26.608-11.409,49.133-6.512,65.826c4.898,16.69,8.924,18.569,9.925,20.769c1.002,2.199,0.591,13.555,2.654,16.564
		c-4.424,12.299-1.473,42.92,0.886,49.697c2.358,6.779,4.129,21.336,2.654,24.85c-1.477,3.518-12.165,13.555-16.812,15.061
		c-4.646,1.506-1.547,5.271,1.328,5.459c2.878,0.189,22.783,0.564,25.217,0.564c2.432,0,7.078-4.328,6.191-6.588
		c-0.884-2.26-2.211-11.295-1.769-13.742c0.442-2.445,2.655-33.385,7.076-37.648c4.426-4.268,1.625-31.068,0.168-34.516
		c-1.457-3.445,1.419-10.105,6.426-17.883c5.007-7.779,4.106-55.16,5.422-55.282c1.316-0.122,2.351,47.999,4.72,53.776
		c2.367,5.777,6.979,15.436,4.77,20.395c-3.556,7.596,1.722,26.354,5.705,33.133c3.979,6.775,5.529,36.52,5.529,36.52
		s-2.213,13.553-2.213,16.002c0,2.445,4.423,4.893,6.637,5.082c2.212,0.188,22.339,0,27.428,0c5.086,0,2.654-6.4-3.097-7.531
		c-3.76-1.881-8.184-5.271-10.174-8.281c-1.993-3.012-2.656-24.098-2.656-24.098s7.741-44.051,3.318-57.604
		c2.211-4.141-0.294-9.664,0.595-11.229c0.887-1.568,1.635-2.578,6.011-17.195c4.377-14.619,1.107-60.18-4.28-68.836
		c14.813-19.011-4.04-41.225-3.305-47.879c2.343-2.194,2.06-17.761,2.971-17.883c0.911-0.124,3.472,17.629,7.386,21.272
		c3.914,3.642,4.28,17.253,5.733,21.648c1.451,4.395,10.326,19.39,11.433,24.661c1.106,5.271-1.771,9.224-3.318,11.483
		c-1.547,2.258-3.981,19.201-0.883,18.824c3.095-0.376,4.422-10.918,7.298-11.295c2.877-0.376,3.318,4.518,3.318,4.518
		s1.107,4.896-1.33,8.848c-2.431,3.954,0.445,14.12,2.438,12.236c1.989-1.882,7.96-7.53,7.738-10.73
		c-0.219-3.2,3.099-17.883,0.888-21.46c-2.212-3.578-3.541-12.989-3.541-12.989s-2.32-28.114-3.125-33.32
		c-0.804-5.206-6.292-15.878-7.491-18.636c-1.2-2.759-5.801-24.35-6.385-27.673c-0.587-3.322-2.241-29.743-21.929-29.743
		c-16.146-6.589-22.341-4.33-23.889-7.342c-1.548-3.012-1.221-7.469,0.105-8.911c2.869-1.817,4.541-8.973,4.541-8.973
		c3.759-0.188,2.212-9.978,1.769-11.86c-0.444-1.882-3.317-2.635-3.317-2.635s-0.223-6.401-1.328-11.295
		c-2.654-9.977-30.084-9.977-33.18-0.941c-3.096,5.835-3.096,13.742-3.096,13.742s-2.654,0.188-3.538,1.505
		c-0.887,1.318-0.224,10.73,3.538,10.918c0.221,5.647,4.164,8.593,5.11,10.291C633.497,117.514,632.797,123.907,631.607,125.229z"/>
	
		<ellipse fill="none" stroke="#ED1C24" stroke-width="2" stroke-miterlimit="10" cx="645.546" cy="212.233" rx="48.535" ry="7.377"/>
	<path d="M193.047,207.939c-0.064-0.338-1.053-0.277-1,0c0.013,0.068,0.007,0.136,0.016,0.204c-0.26,0.034-0.546,0.101-0.579,0.046
		c0.053,0.09,0.083,0.188,0.118,0.285c-0.268-0.002-0.556,0.007-0.556,0.028c0,0.229,0.002,0.452,0.006,0.676
		c-0.046,0.023-0.078,0.048-0.069,0.074c0.357,1.08-0.489,2.61,0.456,3.48c0.21,0.194,1.071,0.013,0.964-0.086
		c-0.067-0.062-0.108-0.135-0.157-0.204c0.161-0.019,0.29-0.03,0.3-0.003c-0.073-0.197-0.118-0.393-0.171-0.588
		c0.011-0.139,0.023-0.277,0.046-0.423c0.252,0,0.505-0.08,0.5-0.238C192.893,210.096,193.254,209.029,193.047,207.939z"/>
	<path d="M245.984,208.314c-0.032-0.157-0.257-0.24-0.486-0.247c-0.031-0.063-0.057-0.129-0.094-0.19
		c-0.067-0.109-0.228-0.159-0.399-0.172c-0.181-0.195-0.918-0.187-0.958,0.109c-0.045,0.338-0.01,0.663,0.041,0.986
		c-0.054,0.493,0.085,0.979,0.209,1.576c0.03,0.144,0.235,0.222,0.451,0.239c-0.006,0.132-0.012,0.261-0.013,0.386
		c-0.002,0.161,0.242,0.243,0.489,0.246c-0.013,0.209-0.023,0.418-0.052,0.629c-0.041,0.301,0.953,0.344,1,0
		C246.336,210.672,246.223,209.5,245.984,208.314z"/>
	<path d="M600.652,207.484c-0.026,0.057-0.049,0.115-0.075,0.172c-0.235-0.033-0.499-0.038-0.549,0.083
		c-0.056,0.138-0.119,0.273-0.188,0.408c-0.267-0.017-0.591,0.014-0.593,0.103c-0.003,0.198-0.025,0.389-0.045,0.58
		c-0.188,0.016-0.348,0.053-0.345,0.101c0.003,0.02,0,0.04,0.003,0.06c-0.069,0.031-0.126,0.073-0.142,0.132
		c-0.194,0.708-0.535,1.336-0.642,2.033c-0.038,0.025-0.067,0.056-0.08,0.095c-0.147,0.459-0.08,0.887,0.083,1.333
		c0.107,0.294,1.059,0.16,1,0c-0.057-0.155-0.096-0.308-0.124-0.461c0.039-0.036,0.066-0.077,0.058-0.127
		c-0.037-0.218-0.033-0.422-0.016-0.621c0.032,0.003,0.046,0.017,0.082,0.017c0.274,0,0.407-0.097,0.429-0.2
		c0.066-0.031,0.11-0.072,0.138-0.117c0.23,0.03,0.484,0.027,0.537-0.1c0.48-1.158,0.862-2.362,1.404-3.49
		C601.599,207.463,600.771,207.238,600.652,207.484z"/>
	<path d="M691.646,208.398c-0.019-0.056-0.17-0.061-0.349-0.049c-0.033-0.26-0.062-0.521-0.067-0.785s-1.006-0.255-1,0
		c0.001,0.032,0.007,0.063,0.008,0.094c-0.283-0.038-0.848,0.049-0.842,0.073c0.263,1.063,0.729,2.051,1.084,3.083
		c0.028,0.081,0.218,0.092,0.423,0.079c0.026,0.085,0.051,0.17,0.077,0.255c0.045,0.145,0.299,0.19,0.54,0.178
		c0.014,0.052,0.03,0.104,0.043,0.156c0.029,0.122,0.994-0.024,1,0C692.315,210.436,691.986,209.417,691.646,208.398z"/>
</g>
<g id="arrows">
	<polygon fill="#8DC63F" stroke="#8DC63F" stroke-miterlimit="10" points="25.353,530.418 63.93,555.169 63.93,546.31 
		537.364,546.31 537.364,514.929 63.93,514.929 63.93,505.624 	"/>
	<polygon fill="#EF4136" stroke="#EF4136" stroke-miterlimit="10" points="806.452,530.396 768.204,505.624 768.204,514.483 
		543.588,514.483 543.588,545.864 768.204,545.864 768.204,555.169 	"/>
	<g id="Red_arrow_text">
		
			<text transform="matrix(1.0108 0 0 1 548.4355 534.7988)" stroke="#000000" stroke-miterlimit="10" font-family="'MyriadPro-Regular'" font-size="15">Mayor riesgo a la salud del corazón</text>
	</g>
	<g id="Green_arrow_text">
		
			<text transform="matrix(1.0108 0 0 1 310.6821 534.7988)" stroke="#000000" stroke-miterlimit="10" font-family="'MyriadPro-Regular'" font-size="15">Menor riesgo a la salud del corazón</text>
	</g>
</g>
<g id="text">
	
		<text transform="matrix(1 0 0 1 290.6816 41.7646)" stroke="#000000" stroke-miterlimit="10" font-family="'MyriadPro-Regular'" font-size="36.75">Medida de Cintura</text>
</g>
</svg>
