<?xml version="1.0" encoding="utf-8"?>
<!-- Generator: Adobe Illustrator 16.0.0, SVG Export Plug-In . SVG Version: 6.00 Build 0)  -->
<!DOCTYPE svg PUBLIC "-//W3C//DTD SVG 1.1//EN" "http://www.w3.org/Graphics/SVG/1.1/DTD/svg11.dtd">
<svg version="1.1" xmlns="http://www.w3.org/2000/svg" xmlns:xlink="http://www.w3.org/1999/xlink" x="0px" y="0px"
	 width="929.564px" height="603.174px" viewBox="0 0 929.564 603.174" enable-background="new 0 0 929.564 603.174"
	 xml:space="preserve">
<g id="MB_text">
	
		<text transform="matrix(1 0 0 1 47.7285 38.9326)" stroke="#000000" stroke-miterlimit="10" font-family="'MyriadPro-Regular'" font-size="32.6081">Your Blood Pressure</text>
</g>
<g id="arrows">
	<rect x="147.374" y="460.763" fill="#FBB040" stroke="#FBB040" stroke-miterlimit="10" width="64.833" height="27.158"/>
	<rect x="147.812" y="359.028" fill="#FBB040" stroke="#FBB040" stroke-miterlimit="10" width="64.833" height="27.158"/>
	<polygon fill="#EF4136" stroke="#EF4136" stroke-miterlimit="10" points="349.946,372.799 333.521,351.361 333.521,359.028 
		216.21,359.028 216.21,386.186 333.521,386.186 333.521,394.239 	"/>
	<polygon fill="#EF4136" stroke="#EF4136" stroke-miterlimit="10" points="349.742,474.799 333.317,453.361 333.317,461.028 
		216.005,461.028 216.005,488.186 333.317,488.186 333.317,496.239 	"/>
	<polygon fill="#8DC63F" stroke="#8DC63F" stroke-miterlimit="10" points="27.944,372.134 45.003,393.573 45.003,385.906 
		144.173,385.906 144.173,358.748 45.003,358.748 45.003,350.695 	"/>
	<polygon fill="#8DC63F" stroke="#8DC63F" stroke-miterlimit="10" points="27.679,474.134 44.738,495.573 44.738,487.906 
		143.909,487.906 143.909,460.748 44.738,460.748 44.738,452.695 	"/>
</g>
<g id="arrow_text">
	<g>
		<path stroke="#000000" stroke-miterlimit="10" d="M94.004,367.631v3.383h4.091v-3.383h1.105v8.084h-1.105v-3.79h-4.091v3.79
			h-1.105v-8.084H94.004z"/>
		<path stroke="#000000" stroke-miterlimit="10" d="M101.678,373.004c0.025,1.428,0.966,2.016,2.083,2.016
			c0.791,0,1.28-0.132,1.682-0.3l0.201,0.755c-0.389,0.168-1.066,0.372-2.033,0.372c-1.871,0-2.987-1.188-2.987-2.938
			s1.08-3.118,2.849-3.118c1.996,0,2.511,1.655,2.511,2.723c0,0.216-0.013,0.372-0.038,0.491H101.678z M104.916,372.25
			c0.012-0.66-0.289-1.703-1.532-1.703c-1.129,0-1.606,0.972-1.694,1.703H104.916z"/>
		<path stroke="#000000" stroke-miterlimit="10" d="M111.622,374.324c0,0.504,0.025,0.996,0.088,1.392h-0.992l-0.088-0.731h-0.038
			c-0.339,0.456-0.992,0.863-1.857,0.863c-1.23,0-1.858-0.827-1.858-1.667c0-1.403,1.305-2.171,3.652-2.159v-0.119
			c0-0.468-0.138-1.344-1.38-1.332c-0.577,0-1.167,0.156-1.594,0.432l-0.251-0.707c0.502-0.3,1.242-0.504,2.008-0.504
			c1.857,0,2.31,1.211,2.31,2.362V374.324z M110.555,372.753c-1.205-0.024-2.573,0.18-2.573,1.307c0,0.695,0.477,1.008,1.029,1.008
			c0.803,0,1.318-0.479,1.494-0.972c0.038-0.12,0.05-0.24,0.05-0.336V372.753z"/>
		<path stroke="#000000" stroke-miterlimit="10" d="M113.407,367.2h1.105v8.516h-1.105V367.2z"/>
		<path stroke="#000000" stroke-miterlimit="10" d="M117.702,368.519v1.392h1.582v0.804h-1.582v3.13c0,0.72,0.213,1.128,0.829,1.128
			c0.301,0,0.477-0.024,0.64-0.072l0.05,0.804c-0.214,0.071-0.553,0.144-0.979,0.144c-0.515,0-0.929-0.168-1.193-0.443
			c-0.301-0.324-0.427-0.84-0.427-1.523v-3.166h-0.941v-0.804h0.941v-1.079L117.702,368.519z"/>
		<path stroke="#000000" stroke-miterlimit="10" d="M120.528,367.2h1.105v3.635h0.025c0.176-0.3,0.452-0.576,0.791-0.756
			c0.327-0.18,0.715-0.288,1.13-0.288c0.815,0,2.121,0.479,2.121,2.471v3.454h-1.105v-3.334c0-0.936-0.364-1.715-1.406-1.715
			c-0.715,0-1.267,0.479-1.481,1.043c-0.063,0.156-0.075,0.312-0.075,0.504v3.502h-1.105V367.2z"/>
		<path stroke="#000000" stroke-miterlimit="10" d="M127.737,369.911l1.318,3.43c0.15,0.384,0.301,0.84,0.401,1.188h0.025
			c0.113-0.348,0.239-0.791,0.39-1.211l1.205-3.406h1.167l-1.657,4.138c-0.791,1.991-1.331,2.998-2.084,3.634
			c-0.552,0.444-1.079,0.624-1.355,0.672l-0.276-0.876c0.276-0.084,0.64-0.252,0.967-0.516c0.301-0.228,0.665-0.636,0.928-1.175
			c0.05-0.108,0.088-0.192,0.088-0.252c0-0.061-0.025-0.145-0.088-0.276l-2.234-5.349H127.737z"/>
	</g>
	<g>
		<path stroke="#000000" stroke-miterlimit="10" d="M154.426,367.597c0.466-0.107,1.215-0.18,1.953-0.18
			c1.069,0,1.756,0.18,2.26,0.588c0.43,0.312,0.7,0.791,0.7,1.427c0,0.792-0.541,1.476-1.4,1.775v0.036
			c0.786,0.18,1.707,0.815,1.707,2.015c0,0.695-0.282,1.235-0.712,1.619c-0.564,0.516-1.498,0.756-2.849,0.756
			c-0.737,0-1.302-0.048-1.658-0.097V367.597z M155.495,370.908h0.97c1.118,0,1.781-0.588,1.781-1.367
			c0-0.936-0.725-1.319-1.806-1.319c-0.49,0-0.773,0.036-0.945,0.072V370.908z M155.495,374.769
			c0.221,0.036,0.515,0.049,0.896,0.049c1.105,0,2.125-0.396,2.125-1.571c0-1.092-0.97-1.56-2.137-1.56h-0.884V374.769z"/>
		<path stroke="#000000" stroke-miterlimit="10" d="M166.478,372.611c0,2.146-1.535,3.082-2.959,3.082
			c-1.597,0-2.85-1.151-2.85-2.986c0-1.931,1.315-3.07,2.948-3.07C165.324,369.636,166.478,370.847,166.478,372.611z
			 M161.774,372.67c0,1.271,0.736,2.231,1.793,2.231c1.031,0,1.805-0.948,1.805-2.255c0-0.983-0.503-2.219-1.781-2.219
			C162.327,370.428,161.774,371.58,161.774,372.67z"/>
		<path stroke="#000000" stroke-miterlimit="10" d="M167.845,371.567c0-0.684-0.013-1.271-0.05-1.811h0.946l0.049,1.151h0.037
			c0.271-0.779,0.934-1.271,1.658-1.271c0.111,0,0.197,0.012,0.294,0.024v0.995c-0.111-0.024-0.221-0.024-0.368-0.024
			c-0.761,0-1.302,0.552-1.45,1.344c-0.024,0.144-0.036,0.323-0.036,0.491v3.095h-1.081V371.567z"/>
		<path stroke="#000000" stroke-miterlimit="10" d="M176.862,367.045v7.017c0,0.516,0.025,1.104,0.049,1.499h-0.958l-0.049-1.008
			h-0.037c-0.319,0.648-1.031,1.14-2.002,1.14c-1.436,0-2.554-1.188-2.554-2.95c-0.012-1.931,1.228-3.106,2.665-3.106
			c0.921,0,1.523,0.42,1.793,0.876h0.025v-3.467H176.862z M175.794,372.119c0-0.132-0.013-0.312-0.05-0.443
			c-0.159-0.66-0.749-1.212-1.559-1.212c-1.118,0-1.781,0.96-1.781,2.231c0,1.175,0.603,2.146,1.756,2.146
			c0.725,0,1.388-0.479,1.584-1.259c0.037-0.145,0.05-0.288,0.05-0.456V372.119z"/>
		<path stroke="#000000" stroke-miterlimit="10" d="M179.273,372.85c0.025,1.428,0.946,2.016,2.039,2.016
			c0.774,0,1.252-0.132,1.646-0.3l0.197,0.755c-0.381,0.168-1.044,0.372-1.99,0.372c-1.83,0-2.924-1.188-2.924-2.938
			s1.057-3.118,2.788-3.118c1.953,0,2.458,1.655,2.458,2.723c0,0.216-0.013,0.372-0.037,0.491H179.273z M182.441,372.095
			c0.013-0.66-0.282-1.703-1.499-1.703c-1.104,0-1.571,0.972-1.657,1.703H182.441z"/>
		<path stroke="#000000" stroke-miterlimit="10" d="M184.828,371.567c0-0.684-0.013-1.271-0.049-1.811h0.945l0.049,1.151h0.037
			c0.271-0.779,0.934-1.271,1.658-1.271c0.111,0,0.197,0.012,0.294,0.024v0.995c-0.11-0.024-0.221-0.024-0.368-0.024
			c-0.761,0-1.302,0.552-1.449,1.344c-0.025,0.144-0.037,0.323-0.037,0.491v3.095h-1.081V371.567z"/>
		<path stroke="#000000" stroke-miterlimit="10" d="M188.896,367.045h1.081v8.516h-1.081V367.045z"/>
		<path stroke="#000000" stroke-miterlimit="10" d="M192.998,368.125c0,0.359-0.258,0.647-0.687,0.647
			c-0.394,0-0.651-0.288-0.651-0.647c0-0.36,0.27-0.66,0.675-0.66C192.729,367.465,192.998,367.753,192.998,368.125z
			 M191.794,375.561v-5.805h1.081v5.805H191.794z"/>
		<path stroke="#000000" stroke-miterlimit="10" d="M194.67,371.328c0-0.612-0.012-1.092-0.049-1.571h0.958l0.062,0.959h0.024
			c0.294-0.539,0.983-1.079,1.966-1.079c0.822,0,2.1,0.479,2.1,2.471v3.454h-1.081v-3.346c0-0.936-0.356-1.716-1.375-1.716
			c-0.7,0-1.252,0.492-1.449,1.08c-0.049,0.132-0.074,0.312-0.074,0.491v3.49h-1.081V371.328z"/>
		<path stroke="#000000" stroke-miterlimit="10" d="M202.092,372.85c0.024,1.428,0.945,2.016,2.039,2.016
			c0.773,0,1.252-0.132,1.645-0.3l0.197,0.755c-0.38,0.168-1.043,0.372-1.99,0.372c-1.83,0-2.923-1.188-2.923-2.938
			s1.056-3.118,2.788-3.118c1.953,0,2.457,1.655,2.457,2.723c0,0.216-0.012,0.372-0.037,0.491H202.092z M205.261,372.095
			c0.012-0.66-0.283-1.703-1.499-1.703c-1.105,0-1.572,0.972-1.658,1.703H205.261z"/>
	</g>
	<g>
		<path stroke="#000000" stroke-miterlimit="10" d="M229.409,367.699v3.383h4.082v-3.383h1.102v8.084h-1.102v-3.79h-4.082v3.79
			h-1.102v-8.084H229.409z"/>
		<path stroke="#000000" stroke-miterlimit="10" d="M237.802,368.347c0,0.359-0.263,0.647-0.701,0.647
			c-0.401,0-0.664-0.288-0.664-0.647c0-0.36,0.275-0.66,0.688-0.66C237.526,367.687,237.802,367.975,237.802,368.347z
			 M236.575,375.783v-5.805h1.102v5.805H236.575z"/>
		<path stroke="#000000" stroke-miterlimit="10" d="M244.689,374.931c0,1.344-0.288,2.146-0.864,2.662
			c-0.601,0.517-1.452,0.696-2.216,0.696c-0.726,0-1.527-0.168-2.016-0.479l0.275-0.816c0.401,0.252,1.027,0.468,1.778,0.468
			c1.127,0,1.953-0.563,1.953-2.038v-0.636h-0.025c-0.326,0.539-0.99,0.971-1.928,0.971c-1.502,0-2.58-1.223-2.58-2.83
			c0-1.967,1.34-3.07,2.743-3.07c1.051,0,1.615,0.516,1.89,0.995h0.026l0.037-0.875h0.977c-0.037,0.407-0.05,0.888-0.05,1.583
			V374.931z M243.587,372.269c0-0.181-0.012-0.336-0.063-0.468c-0.2-0.624-0.726-1.128-1.54-1.128c-1.052,0-1.803,0.852-1.803,2.195
			c0,1.139,0.614,2.087,1.791,2.087c0.688,0,1.302-0.408,1.527-1.08c0.063-0.18,0.087-0.384,0.087-0.563V372.269z"/>
		<path stroke="#000000" stroke-miterlimit="10" d="M246.508,367.267h1.102v3.635h0.025c0.175-0.3,0.45-0.576,0.789-0.756
			c0.326-0.18,0.713-0.288,1.127-0.288c0.813,0,2.116,0.479,2.116,2.471v3.454h-1.102v-3.334c0-0.936-0.363-1.715-1.402-1.715
			c-0.713,0-1.265,0.479-1.477,1.043c-0.063,0.156-0.075,0.312-0.075,0.504v3.502h-1.102V367.267z"/>
	</g>
	<g>
		<path stroke="#000000" stroke-miterlimit="10" d="M94.004,470.097v3.383h4.091v-3.383h1.105v8.084h-1.105v-3.79h-4.091v3.79
			h-1.105v-8.084H94.004z"/>
		<path stroke="#000000" stroke-miterlimit="10" d="M101.678,475.47c0.025,1.428,0.966,2.016,2.083,2.016
			c0.791,0,1.28-0.132,1.682-0.3l0.201,0.755c-0.389,0.168-1.066,0.372-2.033,0.372c-1.871,0-2.987-1.188-2.987-2.938
			s1.08-3.118,2.849-3.118c1.996,0,2.511,1.655,2.511,2.723c0,0.216-0.013,0.372-0.038,0.491H101.678z M104.916,474.715
			c0.012-0.66-0.289-1.703-1.532-1.703c-1.129,0-1.606,0.972-1.694,1.703H104.916z"/>
		<path stroke="#000000" stroke-miterlimit="10" d="M111.622,476.79c0,0.504,0.025,0.996,0.088,1.392h-0.992l-0.088-0.731h-0.038
			c-0.339,0.456-0.992,0.863-1.857,0.863c-1.23,0-1.858-0.827-1.858-1.667c0-1.403,1.305-2.171,3.652-2.159v-0.119
			c0-0.468-0.138-1.344-1.38-1.332c-0.577,0-1.167,0.156-1.594,0.432l-0.251-0.707c0.502-0.3,1.242-0.504,2.008-0.504
			c1.857,0,2.31,1.211,2.31,2.362V476.79z M110.555,475.219c-1.205-0.024-2.573,0.18-2.573,1.307c0,0.695,0.477,1.008,1.029,1.008
			c0.803,0,1.318-0.479,1.494-0.972c0.038-0.12,0.05-0.24,0.05-0.336V475.219z"/>
		<path stroke="#000000" stroke-miterlimit="10" d="M113.407,469.666h1.105v8.516h-1.105V469.666z"/>
		<path stroke="#000000" stroke-miterlimit="10" d="M117.702,470.985v1.392h1.582v0.804h-1.582v3.13c0,0.72,0.213,1.128,0.829,1.128
			c0.301,0,0.477-0.024,0.64-0.072l0.05,0.804c-0.214,0.071-0.553,0.144-0.979,0.144c-0.515,0-0.929-0.168-1.193-0.443
			c-0.301-0.324-0.427-0.84-0.427-1.523v-3.166h-0.941v-0.804h0.941v-1.079L117.702,470.985z"/>
		<path stroke="#000000" stroke-miterlimit="10" d="M120.528,469.666h1.105v3.635h0.025c0.176-0.3,0.452-0.576,0.791-0.756
			c0.327-0.18,0.715-0.288,1.13-0.288c0.815,0,2.121,0.479,2.121,2.471v3.454h-1.105v-3.334c0-0.936-0.364-1.715-1.406-1.715
			c-0.715,0-1.267,0.479-1.481,1.043c-0.063,0.156-0.075,0.312-0.075,0.504v3.502h-1.105V469.666z"/>
		<path stroke="#000000" stroke-miterlimit="10" d="M127.737,472.376l1.318,3.43c0.15,0.384,0.301,0.84,0.401,1.188h0.025
			c0.113-0.348,0.239-0.791,0.39-1.211l1.205-3.406h1.167l-1.657,4.138c-0.791,1.991-1.331,2.998-2.084,3.634
			c-0.552,0.444-1.079,0.624-1.355,0.672l-0.276-0.876c0.276-0.084,0.64-0.252,0.967-0.516c0.301-0.228,0.665-0.636,0.928-1.175
			c0.05-0.108,0.088-0.192,0.088-0.252c0-0.061-0.025-0.145-0.088-0.276l-2.234-5.349H127.737z"/>
	</g>
	<g>
		<path stroke="#000000" stroke-miterlimit="10" d="M154.426,470.063c0.466-0.107,1.215-0.18,1.953-0.18
			c1.069,0,1.756,0.18,2.26,0.588c0.43,0.312,0.7,0.791,0.7,1.427c0,0.792-0.541,1.476-1.4,1.775v0.036
			c0.786,0.18,1.707,0.815,1.707,2.015c0,0.695-0.282,1.235-0.712,1.619c-0.564,0.516-1.498,0.756-2.849,0.756
			c-0.737,0-1.302-0.048-1.658-0.097V470.063z M155.495,473.374h0.97c1.118,0,1.781-0.588,1.781-1.367
			c0-0.936-0.725-1.319-1.806-1.319c-0.49,0-0.773,0.036-0.945,0.072V473.374z M155.495,477.235
			c0.221,0.036,0.515,0.049,0.896,0.049c1.105,0,2.125-0.396,2.125-1.571c0-1.092-0.97-1.56-2.137-1.56h-0.884V477.235z"/>
		<path stroke="#000000" stroke-miterlimit="10" d="M166.478,475.077c0,2.146-1.535,3.082-2.959,3.082
			c-1.597,0-2.85-1.151-2.85-2.986c0-1.931,1.315-3.07,2.948-3.07C165.324,472.102,166.478,473.313,166.478,475.077z
			 M161.774,475.136c0,1.271,0.736,2.231,1.793,2.231c1.031,0,1.805-0.948,1.805-2.255c0-0.983-0.503-2.219-1.781-2.219
			C162.327,472.894,161.774,474.045,161.774,475.136z"/>
		<path stroke="#000000" stroke-miterlimit="10" d="M167.845,474.033c0-0.684-0.013-1.271-0.05-1.811h0.946l0.049,1.151h0.037
			c0.271-0.779,0.934-1.271,1.658-1.271c0.111,0,0.197,0.012,0.294,0.024v0.995c-0.111-0.024-0.221-0.024-0.368-0.024
			c-0.761,0-1.302,0.552-1.45,1.344c-0.024,0.144-0.036,0.323-0.036,0.491v3.095h-1.081V474.033z"/>
		<path stroke="#000000" stroke-miterlimit="10" d="M176.862,469.511v7.017c0,0.516,0.025,1.104,0.049,1.499h-0.958l-0.049-1.008
			h-0.037c-0.319,0.648-1.031,1.14-2.002,1.14c-1.436,0-2.554-1.188-2.554-2.95c-0.012-1.931,1.228-3.106,2.665-3.106
			c0.921,0,1.523,0.42,1.793,0.876h0.025v-3.467H176.862z M175.794,474.584c0-0.132-0.013-0.312-0.05-0.443
			c-0.159-0.66-0.749-1.212-1.559-1.212c-1.118,0-1.781,0.96-1.781,2.231c0,1.175,0.603,2.146,1.756,2.146
			c0.725,0,1.388-0.479,1.584-1.259c0.037-0.145,0.05-0.288,0.05-0.456V474.584z"/>
		<path stroke="#000000" stroke-miterlimit="10" d="M179.273,475.316c0.025,1.428,0.946,2.016,2.039,2.016
			c0.774,0,1.252-0.132,1.646-0.3l0.197,0.755c-0.381,0.168-1.044,0.372-1.99,0.372c-1.83,0-2.924-1.188-2.924-2.938
			s1.057-3.118,2.788-3.118c1.953,0,2.458,1.655,2.458,2.723c0,0.216-0.013,0.372-0.037,0.491H179.273z M182.441,474.561
			c0.013-0.66-0.282-1.703-1.499-1.703c-1.104,0-1.571,0.972-1.657,1.703H182.441z"/>
		<path stroke="#000000" stroke-miterlimit="10" d="M184.828,474.033c0-0.684-0.013-1.271-0.049-1.811h0.945l0.049,1.151h0.037
			c0.271-0.779,0.934-1.271,1.658-1.271c0.111,0,0.197,0.012,0.294,0.024v0.995c-0.11-0.024-0.221-0.024-0.368-0.024
			c-0.761,0-1.302,0.552-1.449,1.344c-0.025,0.144-0.037,0.323-0.037,0.491v3.095h-1.081V474.033z"/>
		<path stroke="#000000" stroke-miterlimit="10" d="M188.896,469.511h1.081v8.516h-1.081V469.511z"/>
		<path stroke="#000000" stroke-miterlimit="10" d="M192.998,470.591c0,0.359-0.258,0.647-0.687,0.647
			c-0.394,0-0.651-0.288-0.651-0.647c0-0.36,0.27-0.66,0.675-0.66C192.729,469.931,192.998,470.219,192.998,470.591z
			 M191.794,478.027v-5.805h1.081v5.805H191.794z"/>
		<path stroke="#000000" stroke-miterlimit="10" d="M194.67,473.793c0-0.612-0.012-1.092-0.049-1.571h0.958l0.062,0.959h0.024
			c0.294-0.539,0.983-1.079,1.966-1.079c0.822,0,2.1,0.479,2.1,2.471v3.454h-1.081v-3.346c0-0.936-0.356-1.716-1.375-1.716
			c-0.7,0-1.252,0.492-1.449,1.08c-0.049,0.132-0.074,0.312-0.074,0.491v3.49h-1.081V473.793z"/>
		<path stroke="#000000" stroke-miterlimit="10" d="M202.092,475.316c0.024,1.428,0.945,2.016,2.039,2.016
			c0.773,0,1.252-0.132,1.645-0.3l0.197,0.755c-0.38,0.168-1.043,0.372-1.99,0.372c-1.83,0-2.923-1.188-2.923-2.938
			s1.056-3.118,2.788-3.118c1.953,0,2.457,1.655,2.457,2.723c0,0.216-0.012,0.372-0.037,0.491H202.092z M205.261,474.561
			c0.012-0.66-0.283-1.703-1.499-1.703c-1.105,0-1.572,0.972-1.658,1.703H205.261z"/>
	</g>
	<g>
		<path stroke="#000000" stroke-miterlimit="10" d="M229.409,470.165v3.383h4.082v-3.383h1.102v8.084h-1.102v-3.79h-4.082v3.79
			h-1.102v-8.084H229.409z"/>
		<path stroke="#000000" stroke-miterlimit="10" d="M237.802,470.813c0,0.359-0.263,0.647-0.701,0.647
			c-0.401,0-0.664-0.288-0.664-0.647c0-0.36,0.275-0.66,0.688-0.66C237.526,470.153,237.802,470.441,237.802,470.813z
			 M236.575,478.249v-5.805h1.102v5.805H236.575z"/>
		<path stroke="#000000" stroke-miterlimit="10" d="M244.689,477.397c0,1.344-0.288,2.146-0.864,2.662
			c-0.601,0.517-1.452,0.696-2.216,0.696c-0.726,0-1.527-0.168-2.016-0.479l0.275-0.816c0.401,0.252,1.027,0.468,1.778,0.468
			c1.127,0,1.953-0.563,1.953-2.038v-0.636h-0.025c-0.326,0.539-0.99,0.971-1.928,0.971c-1.502,0-2.58-1.223-2.58-2.83
			c0-1.967,1.34-3.07,2.743-3.07c1.051,0,1.615,0.516,1.89,0.995h0.026l0.037-0.875h0.977c-0.037,0.407-0.05,0.888-0.05,1.583
			V477.397z M243.587,474.735c0-0.181-0.012-0.336-0.063-0.468c-0.2-0.624-0.726-1.128-1.54-1.128c-1.052,0-1.803,0.852-1.803,2.195
			c0,1.139,0.614,2.087,1.791,2.087c0.688,0,1.302-0.408,1.527-1.08c0.063-0.18,0.087-0.384,0.087-0.563V474.735z"/>
		<path stroke="#000000" stroke-miterlimit="10" d="M246.508,469.733h1.102v3.635h0.025c0.175-0.3,0.45-0.576,0.789-0.756
			c0.326-0.18,0.713-0.288,1.127-0.288c0.813,0,2.116,0.479,2.116,2.471v3.454h-1.102v-3.334c0-0.936-0.363-1.715-1.402-1.715
			c-0.713,0-1.265,0.479-1.477,1.043c-0.063,0.156-0.075,0.312-0.075,0.504v3.502h-1.102V469.733z"/>
	</g>
	
		<text transform="matrix(0 -1 1 0 20.7646 499.7925)" stroke="#000000" stroke-miterlimit="10" font-family="'MyriadPro-Regular'" font-size="15.3731">Diastolic</text>
	
		<text transform="matrix(0 -1 1 0 20.8364 394.9487)" stroke="#000000" stroke-miterlimit="10" font-family="'MyriadPro-Regular'" font-size="14.9899">Systolic</text>
</g>
<g id="numbers">
	<g>
		<path d="M103.164,391.082h-0.024l-1.355,0.731l-0.204-0.803l1.703-0.912h0.9v7.796h-1.02V391.082z"/>
		<path d="M109.32,391.082h-0.024l-1.355,0.731l-0.204-0.803l1.703-0.912h0.9v7.796h-1.02V391.082z"/>
		<path d="M118.378,393.913c0,2.65-0.996,4.113-2.71,4.113c-1.523,0-2.567-1.427-2.591-4.006c0-2.626,1.14-4.054,2.723-4.054
			C117.43,389.966,118.378,391.429,118.378,393.913z M114.144,394.032c0,2.027,0.624,3.179,1.583,3.179
			c1.067,0,1.583-1.26,1.583-3.25c0-1.919-0.48-3.179-1.583-3.179C114.816,390.782,114.144,391.91,114.144,394.032z"/>
	</g>
	<g>
		<path d="M138.816,391.082h-0.024l-1.355,0.731l-0.204-0.803l1.703-0.912h0.9v7.796h-1.02V391.082z"/>
		<path d="M142.681,397.894v-0.647l0.828-0.804c1.991-1.895,2.902-2.902,2.902-4.078c0-0.791-0.372-1.522-1.535-1.522
			c-0.708,0-1.295,0.359-1.655,0.659l-0.336-0.743c0.528-0.444,1.307-0.792,2.195-0.792c1.679,0,2.387,1.151,2.387,2.267
			c0,1.439-1.043,2.603-2.687,4.186l-0.612,0.576v0.023h3.49v0.876H142.681z"/>
		<path d="M154.03,393.913c0,2.65-0.996,4.113-2.71,4.113c-1.523,0-2.567-1.427-2.591-4.006c0-2.626,1.14-4.054,2.723-4.054
			C153.082,389.966,154.03,391.429,154.03,393.913z M149.796,394.032c0,2.027,0.624,3.179,1.583,3.179
			c1.067,0,1.583-1.26,1.583-3.25c0-1.919-0.48-3.179-1.583-3.179C150.468,390.782,149.796,391.91,149.796,394.032z"/>
	</g>
	<g>
		<path d="M174.201,391.082h-0.024l-1.355,0.731l-0.204-0.803l1.703-0.912h0.9v7.796h-1.02V391.082z"/>
		<path d="M178.318,396.695c0.3,0.18,0.983,0.479,1.727,0.479c1.343,0,1.775-0.852,1.763-1.511c-0.012-1.092-0.996-1.56-2.015-1.56
			h-0.587v-0.791h0.587c0.768,0,1.739-0.396,1.739-1.319c0-0.624-0.396-1.176-1.367-1.176c-0.624,0-1.224,0.276-1.559,0.516
			l-0.288-0.768c0.42-0.3,1.211-0.6,2.051-0.6c1.535,0,2.231,0.911,2.231,1.859c0,0.815-0.492,1.499-1.439,1.847v0.024
			c0.959,0.18,1.727,0.899,1.739,1.99c0,1.248-0.983,2.339-2.842,2.339c-0.875,0-1.643-0.275-2.027-0.527L178.318,396.695z"/>
		<path d="M189.415,393.913c0,2.65-0.996,4.113-2.71,4.113c-1.523,0-2.567-1.427-2.591-4.006c0-2.626,1.14-4.054,2.723-4.054
			C188.467,389.966,189.415,391.429,189.415,393.913z M185.181,394.032c0,2.027,0.624,3.179,1.583,3.179
			c1.067,0,1.583-1.26,1.583-3.25c0-1.919-0.48-3.179-1.583-3.179C185.853,390.782,185.181,391.91,185.181,394.032z"/>
	</g>
	<g>
		<path d="M209.218,391.082h-0.024l-1.355,0.731l-0.204-0.803l1.703-0.912h0.9v7.796h-1.02V391.082z"/>
		<path d="M216.345,397.894v-2.135h-3.622v-0.684l3.479-4.978h1.139v4.846h1.091v0.815h-1.091v2.135H216.345z M216.345,394.944
			v-2.603c0-0.408,0.012-0.815,0.036-1.224h-0.036c-0.24,0.456-0.432,0.792-0.647,1.151l-1.907,2.65v0.024H216.345z"/>
		<path d="M224.432,393.913c0,2.65-0.996,4.113-2.71,4.113c-1.523,0-2.567-1.427-2.591-4.006c0-2.626,1.14-4.054,2.723-4.054
			C223.484,389.966,224.432,391.429,224.432,393.913z M220.198,394.032c0,2.027,0.624,3.179,1.583,3.179
			c1.067,0,1.583-1.26,1.583-3.25c0-1.919-0.48-3.179-1.583-3.179C220.87,390.782,220.198,391.91,220.198,394.032z"/>
	</g>
	<g>
		<path d="M246.231,391.082h-0.024l-1.355,0.731l-0.204-0.803l1.703-0.912h0.9v7.796h-1.02V391.082z"/>
		<path d="M254.75,390.986h-2.975l-0.3,2.003c0.18-0.024,0.348-0.036,0.636-0.036c0.612,0,1.199,0.12,1.679,0.42
			c0.611,0.336,1.115,1.02,1.115,1.991c0,1.522-1.211,2.662-2.902,2.662c-0.852,0-1.559-0.24-1.943-0.479l0.264-0.804
			c0.324,0.192,0.959,0.432,1.679,0.432c0.983,0,1.847-0.647,1.835-1.691c0-1.007-0.684-1.715-2.231-1.715
			c-0.456,0-0.803,0.036-1.091,0.072l0.504-3.742h3.73V390.986z"/>
		<path d="M261.445,393.913c0,2.65-0.996,4.113-2.71,4.113c-1.523,0-2.567-1.427-2.591-4.006c0-2.626,1.14-4.054,2.723-4.054
			C260.498,389.966,261.445,391.429,261.445,393.913z M257.211,394.032c0,2.027,0.624,3.179,1.583,3.179
			c1.067,0,1.583-1.26,1.583-3.25c0-1.919-0.48-3.179-1.583-3.179C257.883,390.782,257.211,391.91,257.211,394.032z"/>
	</g>
	<g>
		<path d="M108.935,492.765v0.695l-3.395,7.101h-1.091l3.382-6.896v-0.023h-3.814v-0.876H108.935z"/>
		<path d="M114.683,493.653h-2.975l-0.3,2.003c0.18-0.024,0.348-0.036,0.636-0.036c0.611,0,1.199,0.12,1.679,0.42
			c0.611,0.336,1.115,1.02,1.115,1.991c0,1.522-1.211,2.662-2.902,2.662c-0.852,0-1.559-0.24-1.943-0.479l0.264-0.804
			c0.324,0.191,0.959,0.432,1.679,0.432c0.983,0,1.847-0.647,1.835-1.691c0-1.007-0.684-1.715-2.231-1.715
			c-0.456,0-0.804,0.036-1.091,0.072l0.504-3.742h3.73V493.653z"/>
	</g>
	<g>
		<path d="M139.918,496.459c-0.875-0.408-1.248-1.079-1.248-1.751c0-1.235,1.043-2.075,2.423-2.075c1.511,0,2.279,0.936,2.279,1.919
			c0,0.66-0.336,1.379-1.295,1.823v0.036c0.972,0.384,1.571,1.079,1.571,2.015c0,1.367-1.164,2.267-2.651,2.267
			c-1.631,0-2.614-0.959-2.614-2.099c0-0.983,0.587-1.691,1.547-2.099L139.918,496.459z M142.581,498.534
			c0-0.935-0.66-1.402-1.715-1.702c-0.911,0.264-1.403,0.875-1.403,1.619c-0.036,0.779,0.564,1.475,1.56,1.475
			C141.969,499.925,142.581,499.337,142.581,498.534z M139.678,494.636c-0.012,0.779,0.587,1.199,1.487,1.439
			c0.672-0.229,1.188-0.708,1.188-1.415c0-0.624-0.372-1.271-1.319-1.271C140.158,493.389,139.678,493.964,139.678,494.636z"/>
		<path d="M149.828,496.58c0,2.65-0.996,4.113-2.71,4.113c-1.523,0-2.567-1.427-2.591-4.006c0-2.626,1.14-4.054,2.723-4.054
			C148.88,492.633,149.828,494.096,149.828,496.58z M145.594,496.699c0,2.027,0.624,3.179,1.583,3.179
			c1.067,0,1.583-1.26,1.583-3.25c0-1.919-0.48-3.179-1.583-3.179C146.266,493.449,145.594,494.577,145.594,496.699z"/>
	</g>
	<g>
		<path d="M176.974,496.459c-0.875-0.408-1.248-1.079-1.248-1.751c0-1.235,1.043-2.075,2.423-2.075c1.511,0,2.279,0.936,2.279,1.919
			c0,0.66-0.336,1.379-1.295,1.823v0.036c0.972,0.384,1.571,1.079,1.571,2.015c0,1.367-1.164,2.267-2.651,2.267
			c-1.631,0-2.614-0.959-2.614-2.099c0-0.983,0.587-1.691,1.547-2.099L176.974,496.459z M179.637,498.534
			c0-0.935-0.66-1.402-1.715-1.702c-0.911,0.264-1.403,0.875-1.403,1.619c-0.036,0.779,0.564,1.475,1.56,1.475
			C179.025,499.925,179.637,499.337,179.637,498.534z M176.734,494.636c-0.012,0.779,0.587,1.199,1.487,1.439
			c0.672-0.229,1.188-0.708,1.188-1.415c0-0.624-0.372-1.271-1.319-1.271C177.214,493.389,176.734,493.964,176.734,494.636z"/>
		<path d="M186.344,493.653h-2.975l-0.3,2.003c0.18-0.024,0.348-0.036,0.636-0.036c0.611,0,1.199,0.12,1.679,0.42
			c0.611,0.336,1.115,1.02,1.115,1.991c0,1.522-1.211,2.662-2.902,2.662c-0.852,0-1.559-0.24-1.943-0.479l0.264-0.804
			c0.324,0.191,0.959,0.432,1.679,0.432c0.983,0,1.847-0.647,1.835-1.691c0-1.007-0.684-1.715-2.231-1.715
			c-0.456,0-0.804,0.036-1.091,0.072l0.504-3.742h3.73V493.653z"/>
	</g>
	<g>
		<path d="M209.801,499.568c0.228,0.023,0.492,0,0.852-0.036c0.612-0.084,1.188-0.324,1.631-0.756
			c0.516-0.468,0.888-1.151,1.032-2.063h-0.036c-0.432,0.527-1.055,0.827-1.847,0.827c-1.392,0-2.291-1.056-2.291-2.387
			c0-1.476,1.067-2.771,2.663-2.771s2.579,1.283,2.579,3.298c0,1.703-0.576,2.902-1.343,3.646c-0.6,0.588-1.427,0.947-2.267,1.043
			c-0.384,0.061-0.72,0.072-0.972,0.061V499.568z M210.185,495.094c0,0.971,0.588,1.654,1.499,1.654
			c0.708,0,1.259-0.348,1.535-0.815c0.06-0.107,0.096-0.216,0.096-0.396c0-1.331-0.492-2.351-1.607-2.351
			C210.821,493.187,210.185,493.978,210.185,495.094z"/>
		<path d="M220.539,496.33c0,2.65-0.996,4.113-2.71,4.113c-1.523,0-2.567-1.427-2.591-4.006c0-2.626,1.14-4.054,2.723-4.054
			C219.591,492.383,220.539,493.846,220.539,496.33z M216.305,496.449c0,2.027,0.624,3.179,1.583,3.179
			c1.067,0,1.583-1.26,1.583-3.25c0-1.919-0.48-3.179-1.583-3.179C216.977,493.199,216.305,494.327,216.305,496.449z"/>
	</g>
	<g>
		<path d="M247.407,499.818c0.228,0.023,0.492,0,0.852-0.036c0.612-0.084,1.188-0.324,1.631-0.756
			c0.516-0.468,0.888-1.151,1.032-2.063h-0.036c-0.432,0.527-1.055,0.827-1.847,0.827c-1.391,0-2.291-1.056-2.291-2.387
			c0-1.476,1.067-2.771,2.663-2.771s2.579,1.283,2.579,3.298c0,1.703-0.576,2.902-1.343,3.646c-0.6,0.588-1.427,0.947-2.267,1.043
			c-0.384,0.061-0.72,0.072-0.972,0.061V499.818z M247.791,495.344c0,0.971,0.588,1.654,1.499,1.654
			c0.708,0,1.259-0.348,1.535-0.815c0.06-0.107,0.096-0.216,0.096-0.396c0-1.331-0.492-2.351-1.607-2.351
			C248.427,493.437,247.791,494.228,247.791,495.344z"/>
		<path d="M257.605,493.653h-2.975l-0.3,2.003c0.18-0.024,0.348-0.036,0.636-0.036c0.612,0,1.199,0.12,1.679,0.42
			c0.611,0.336,1.115,1.02,1.115,1.991c0,1.522-1.211,2.662-2.902,2.662c-0.852,0-1.559-0.24-1.943-0.479l0.264-0.804
			c0.324,0.191,0.959,0.432,1.679,0.432c0.983,0,1.847-0.647,1.835-1.691c0-1.007-0.684-1.715-2.231-1.715
			c-0.456,0-0.803,0.036-1.091,0.072l0.504-3.742h3.73V493.653z"/>
	</g>
</g>
<g id="leftside_Drawing">
	<path opacity="0.8" fill="#C49A6C" stroke="#A97C50" stroke-width="3" d="M51.828,132.663
		c27.965,21.789,34.256,38.801,34.256,38.801l51.035,59.425c0,0,23.188,16.313,26.217,18.759c3.03,2.447,16.313,4.545,31.228,8.622
		c9.205,2.681,53.249,26.799,62.57,28.78s32.043,10.953,32.043,10.953l2.446,19.925l-10.836,5.942c0,0-90.186-8.972-96.827-8.739
		c-6.642,0.233-35.072-12.584-40.897-13.632c-5.826-1.049-15.265-4.895-19.459-7.458c-4.194-2.563-51.501-43.927-51.501-43.927
		l-11.886-9.438c0,0-2.563,1.281-5.942,0.699c-3.379-0.582-10.137-6.292-10.137-6.292l0.117-102.653L51.828,132.663z"/>
	<path stroke="#000000" d="M111.835,198.379l1.864,3.379c0,0,5.126-18.644,19.924-23.188c14.799-4.544,27.965,5.127,27.965,5.127
		l3.029-5.36c0,0-13.284-8.04-32.393-3.263C113.117,179.852,111.835,198.379,111.835,198.379z"/>
	<path fill="#9B8579" stroke="#000000" stroke-width="2" d="M142.188,258.852c1.747-4.02,17.652-14.157,21.147-11.011
		c3.496,3.146-0.873-5.593-4.02-9.963c-3.146-4.369-44.219-35.305-47.19-37.577c-2.971-2.271-27.265-0.524-27.265-0.524
		S140.44,262.873,142.188,258.852z"/>
	<path fill="#58595B" stroke="#000000" stroke-width="3" d="M68.869,181.6c0,0-0.088,7.574,0.087,8.651
		c0.175,1.078,6.408,8.303,10.574,8.652c4.166,0.349,10.924,0.262,10.924,0.262s10.293-10.111,11.04-11.099
		c1.719-2.271,1.106-6.554,1.106-6.554s-4.106,9.7-16.865,9.642S68.869,181.6,68.869,181.6z"/>
	<ellipse fill="#414042" stroke="#000000" stroke-width="4" cx="85.386" cy="177.989" rx="17.361" ry="12.816"/>
	<ellipse fill="#6D6E71" stroke="#6D6E71" cx="85.153" cy="177.29" rx="16.545" ry="11.302"/>
	<ellipse fill="#BCBEC0" cx="85.968" cy="177.989" rx="15.031" ry="10.137"/>
	<path fill="#58595B" stroke="#000000" stroke-width="3" d="M98.522,209.041c0.787,2.33-7.312-6.584-9.06-8.506
		c-1.747-1.923,0.933-5.768,4.603-9.788c3.671-4.02,9.847-4.078,10.808-3.379s10.399,8.914,7.865,7.604
		C110.204,193.66,97.736,206.71,98.522,209.041z"/>
	<ellipse fill="#E6E7E8" cx="85.969" cy="179.27" rx="13.633" ry="9.321"/>
	
		<ellipse transform="matrix(0.7595 -0.6505 0.6505 0.7595 -106.1476 117.8307)" fill="#6D6E71" stroke="#000000" stroke-width="3" cx="106.299" cy="202.486" rx="10.043" ry="5.753"/>
	
		<ellipse transform="matrix(0.7596 -0.6504 0.6504 0.7596 -106.3699 118.0328)" fill="#58595B" stroke="#000000" cx="106.469" cy="202.895" rx="9.274" ry="5.017"/>
	
		<ellipse transform="matrix(0.7596 -0.6504 0.6504 0.7596 -106.8195 117.867)" fill="#6D6E71" stroke="#000000" cx="106.022" cy="203.422" rx="5.762" ry="3.301"/>
	
		<ellipse transform="matrix(0.7596 -0.6504 0.6504 0.7596 -106.9753 118.3168)" fill="#414042" stroke="#000000" cx="106.551" cy="203.856" rx="5.163" ry="2.856"/>
	<path fill="#C2B59B" stroke="#000000" stroke-width="2" d="M81.836,196.631c2.504-2.622,56.884,51.21,56.884,51.21
		s5.545,10.486,6.261,11.885s-0.895,2.622-0.895,2.622s-2.146-1.748-4.114-2.622s-20.75,25.867-18.246,30.062
		c2.505,4.195,3.075,1.139,3.22,4.021s-4.293,2.621-6.797,1.398c-2.504-1.224-55.095-44.22-58.136-49.987s-4.651-4.894-5.725-6.642
		c-1.073-1.747-0.357-7.864-0.357-7.864C55.183,225.819,80.404,196.806,81.836,196.631z"/>
	<path stroke="#000000" d="M146.266,256.172l4.263-4.748c0,0,23.248,1.718,34.888,5.681c11.641,3.961,43.735,18.06,62.194,23.536
		s36.681,5.127,50.202,2.098s22.3-11.594,22.3-11.594v7.399c-2.468,1.631-13.953,7.573-22.888,9.787s-37.623,2.447-58.785-4.544
		c-21.161-6.991-38.915-18.177-53.376-23.071C170.604,255.823,146.266,256.172,146.266,256.172z"/>
	<path opacity="0.43" fill="none" stroke="#FFFFFF" d="M161.123,253.842c0,0,19.341,2.563,29.595,6.408s57.444,24.585,53.133,22.838
		"/>
	<path stroke="#000000" d="M105.893,205.371c-0.583-1.224,2.912-3.38,3.495-2.797s11.768,12.816,16.313,15.847
		c4.545,3.029,47.307,33.79,58.026,40.781c10.721,6.991,35.071,19.691,42.763,31.228c7.69,11.535,3.823,32.418,3.823,32.418h-4.484
		c0,0,3.807-16.106-2.368-27.408c-6.175-11.303-43.579-33.791-55.114-42.063c-11.534-8.272-34.023-24.003-34.023-24.003
		s-6.874-4.66-10.777-6.699S106.475,206.593,105.893,205.371z"/>
	<path stroke="#000000" d="M148.771,254.668c0.117,2.016,5.709,30.108,7.458,38.288c1.748,8.179,14.857,30.022,14.857,30.022
		l-5.564,0.017c0,0-11.273-17.564-13.255-28.024c-1.385-7.309-8.623-35.917-8.272-37.576
		C144.344,255.736,148.654,252.654,148.771,254.668z"/>
	<path fill="#A97C50" stroke="#8B5E3C" stroke-width="2" d="M233.598,185.271c3.146,1.106,10.312,7.34,10.312,7.34
		s11.477,3.205,15.729,4.021c4.254,0.815,60.998,27.615,60.998,27.615l0.524,48.588c-6.117,0.466-68.105-41.947-70.028-44.103
		c-1.922-2.155-7.981-4.02-10.719-2.214c-2.738,1.807-10.895,2.155-17.886,3.962c-6.991,1.806-30.762,0.758-33.849,0.291
		c-3.088-0.466-3.321-5.826-3.321-5.826s-1.049-7.34-0.874-6.815c0.175,0.523,9.438-16.08,9.438-16.08l11.36-7.516"/>
	<path stroke="#000000" d="M170.691,190.268l3.328-7.725l6.911,4.184c5.243-2.447,20.273,3.029,20.273,3.029
		s16.778,15.03,17.711,16.778s0.698,10.138-2.098,12.584c-2.795,2.448-12.118,3.496-12.118,3.496l-22.604-9.321l-7.457-12.817
		l0.233-7.69L170.691,190.268z"/>
	<path fill="#A97C50" stroke="#8B5E3C" stroke-width="2" d="M167.706,188.475c2.039,1.98,7.282,3.962,8.738,5.709
		c1.457,1.748,2.039,7.225-1.223,7.632c-3.263,0.408-7.341,0.059-7.341,0.059s-3.379-2.68-4.021-5.709
		c-0.641-3.03,0.059-3.729,0.699-5.826C165.201,188.242,165.666,186.494,167.706,188.475z"/>
	<path fill="#A97C50" stroke="#8B5E3C" stroke-width="2" d="M168.113,202.458c0,0-2.447,2.563-0.757,5.709
		c1.689,3.146,3.554,5.243,5.826,5.534c2.271,0.292,7.981-0.291,11.477-1.106c3.496-0.815,1.864-8.156-0.874-9.496
		S168.113,202.458,168.113,202.458z"/>
	<path fill="#A97C50" stroke="#8B5E3C" stroke-width="2" d="M187.456,231.062c2.621-0.523,13.05-4.835,15.205-6.059
		c2.156-1.224,2.854-7.398,0.35-8.098s-3.32-0.583-6.583,0.175c-3.263,0.757-14.332,3.204-14.739,6.991
		C181.28,227.859,184.834,231.586,187.456,231.062z"/>
	<path fill="#A97C50" stroke="#8B5E3C" stroke-width="2" d="M173.823,214.284c0,0-0.233,5.651,3.612,8.098
		c3.845,2.447,5.106,1.108,9.02,0.205c3.914-0.903,6.244-1.021,7.759-2.419c1.515-1.397,2.563-7.34-0.524-7.923
		c-3.088-0.582-11.595,1.049-11.595,1.049L173.823,214.284z"/>
	<path fill="#A97C50" stroke="#8B5E3C" stroke-width="2" d="M321.219,301.847c0,0-0.815-2.33-7.224-4.194
		c-13.632-1.631-20.041-3.146-23.77-4.194s-15.38-0.116-20.158-0.699c-4.777-0.583-9.205-0.467-9.205-0.467
		s-4.312-0.466-7.224-1.165c-2.913-0.698-9.322,0.233-9.322,0.233s-1.98,1.981-0.232,4.312s8.854,8.155,13.749,9.204
		c4.895,1.05,7.689,0.35,10.254,0.117c2.563-0.233,8.039,2.214,9.555,2.563c1.515,0.35,1.165,2.913,1.165,2.913l-11.419,5.826
		l-6.525,6.524l58.726,1.165"/>
	<polygon fill="#414042" stroke="#000000" points="161.588,183.698 170.677,189.99 173.706,183.232 164.617,178.337 	"/>
	<path opacity="0.43" fill="none" stroke="#FFFFFF" d="M147.082,265.319c-0.658-3.024,6.313,28.405,7.668,32.684
		c3.431,10.836,14.092,26.392,14.092,26.392"/>
	<path opacity="0.53" fill="none" stroke="#FFFFFF" d="M108.106,204.846c0,0,11.186,12.584,16.079,16.079
		c12.41,7.603,42.559,28.11,47.19,32.218s43.345,29.392,37.577,25.634"/>
	<path opacity="0.43" fill="none" stroke="#FFFFFF" d="M323.666,270.504c0,0-7.69,7.224-20.507,12.816
		c-13.167,5.127-34.14,3.612-31.11,3.496"/>
	<path opacity="0.43" fill="none" stroke="#FFFFFF" d="M162.638,180.785c0,0-8.273-5.359-15.964-5.709
		c-7.689-0.35-14.215,1.747-12.001,1.281"/>
	<polyline fill="#6D6E71" points="162.527,183.989 163.783,182.795 170.378,187.128 170.252,189.452 	"/>
	<polyline fill="#6D6E71" points="165.73,179.089 164.914,181.602 171.006,186.186 172.827,182.858 	"/>
	<path fill="#A97C50" stroke="#8B5E3C" stroke-width="2" d="M240.938,190.106l-6.292-4.311c0,0-17.71-6.875-22.546-8.39
		s-22.022-2.098-22.022-2.098h-8.389c0,0-3.321,0.466-5.594-0.699c-2.271-1.165-9.03-2.446-9.03-2.446s-0.814,5.593,1.807,7.689
		c2.621,2.098,5.885,4.778,8.972,5.826c3.088,1.049,5.419,1.049,8.448,0.292c4.077-0.292,13.516,2.737,15.146,4.369
		c1.632,1.631,14.507,16.254,14.507,16.254s3.903,4.603,7.865,4.021c3.962-0.583,14.332-7.516,14.332-7.166"/>
	<path opacity="0.45" fill="#FFFFFF" d="M173.267,188.071c0,0,1.57-0.063,2.951-0.252c1.382-0.188,1.508,2.136,1.57,2.575
		s-1.444,2.135-1.695,1.507c-0.252-0.628-1.382-1.192-2.512-1.569C172.45,189.955,173.267,188.071,173.267,188.071z"/>
	<path opacity="0.34" fill="#FFFFFF" d="M180.301,191.399c1.444,0.377,2.072-0.88,3.517-0.439c1.444,0.439,4.835,3.956,5.589,5.526
		s2.574,8.227,1.759,8.792c-0.816,0.565-6.845-3.58-8.604-3.643s-1.821-2.323-0.565-3.14s-2.764-2.764-2.952-4.082
		C178.855,193.094,178.856,191.022,180.301,191.399z"/>
	<path fill="#C49A6C" stroke="#C49A6C" d="M175.222,195.117c0.611,0.116,2.271,4.748,1.048,5.01
		c-1.223,0.263-8.185,1.107-8.506-2.68C167.443,193.66,174.609,195,175.222,195.117z"/>
	<path fill="#C49A6C" stroke="#C49A6C" d="M183.728,204.904c0,0,1.835,6.496,0.815,6.759c-1.02,0.262-7.574,0.523-8.972-3.146
		C174.173,204.846,183.728,204.904,183.728,204.904z"/>
	<path fill="#C49A6C" stroke="#C49A6C" d="M194.447,213.293c0.961,0.116,0.758,5.359-0.233,5.359c-0.99,0-8.419,0.758-7.457-2.33
		C187.718,213.235,193.485,213.177,194.447,213.293z"/>
	<path fill="#C49A6C" stroke="#C49A6C" d="M202.953,217.721c0,0,1.049,4.194,0.466,4.312c-0.583,0.116-6.496,1.077-6.554-1.544
		C196.807,217.867,202.953,217.721,202.953,217.721z"/>
	<path fill="#C49A6C" stroke="#C49A6C" d="M243.501,294.507c-0.233-0.699,0.35-2.913,1.398-2.913s9.321,0.466,8.506,2.796
		S243.734,295.207,243.501,294.507z"/>
	
		<ellipse transform="matrix(0.8277 -0.5611 0.5611 0.8277 -85.9225 79.32)" stroke="#000000" cx="86.225" cy="179.599" rx="1.297" ry="1.049"/>
	<line fill="none" stroke="#000000" stroke-width="2" x1="74.316" y1="179.27" x2="89.93" y2="179.62"/>
	
		<rect x="43.128" y="132" fill="none" stroke="#FFFFFF" stroke-width="10" stroke-miterlimit="10" width="276.835" height="190.849"/>
</g>
<g id="Layer_9">
	<g>
		<path fill="none" stroke="#000000" stroke-width="3" stroke-miterlimit="10" d="M186.323,84.984v44.98c0,6.62-5.37,12-12,12
			h-19.67l-41.58,16.69l13.92-16.28l0,0l-6-0.41c-6.63,0-12-5.38-12-12v-44.98c0-6.63,5.37-12,12-12h53.33
			C180.953,72.984,186.323,78.354,186.323,84.984z"/>
	</g>
	
		<line fill="none" stroke="#000000" stroke-width="2.5" stroke-miterlimit="10" x1="125.033" y1="107.404" x2="170.283" y2="107.404"/>
</g>
<g id="left_side">
	<line fill="none" stroke="#000000" stroke-width="3" stroke-miterlimit="10" x1="362" y1="48.894" x2="362" y2="555.894"/>
</g>
<g id="Figure_x2F_text">
	<path opacity="0.7" fill="#C49A6C" stroke="#C49A6C" stroke-width="2" stroke-miterlimit="10" d="M551.956,544.892h185.419
		c-4.355-55.816-21.782-71.609-19.06-86.856c2.724-15.249,8.171-83.317,14.976-83.861c6.804-0.543,13.478,38.392,23.688,63.714
		c2.451,8.168-9.799,32.126-3.267,53.91c6.53,21.783,8.984,52.276,8.984,52.276h26.955c0,0,9.261-36.488,10.619-56.906
		c1.358-20.42-4.082-25.321-4.9-36.212c-0.819-10.892,1.907-13.612,3.268-45.742c1.358-32.131-5.176-62.624-8.714-84.95
		c0.271-38.665-11.161-64.256-44.653-63.984c-31.856-5.718-36.209-0.815-48.735-5.174c-12.528-4.358-22.868-38.116-17.427-45.197
		c5.442-7.082,20.151-27.226,23.96-40.024c3.809-12.799-0.541-40.567-5.719-48.465c-5.177-7.899-16.06-25.864-35.669-27.228
		c-19.606-1.364-57.717-0.814-68.067,7.08c-10.35,7.893-18.511,13.888-17.97,22.053c0.541,8.166,3.267,10.619,3.267,10.619
		s-5.99,25.322-4.083,32.673c1.905,7.352-13.07,19.059-12.253,22.054s7.623,3.268,9.802,4.901c2.18,1.633-3.269,8.576-2.858,9.189
		c0.407,0.612,3.675,2.246,3.675,2.246s-3.472,4.697-2.45,5.718s4.288,2.45,4.085,4.084c-0.205,1.634-6.535,15.249,1.634,16.064
		c8.167,0.816,30.493-1.634,31.855,2.722c1.361,4.356-1.089,14.975-9.257,21.783c-8.17,6.807-19.061-2.995-56.634,4.628
		c-30.494,1.089-49.011,43.563-49.011,64.257c-0.001,20.693-10.892,34.852-1.905,109.455c2.449,13.614-4.9,31.04-4.9,31.04
		s-8.983,25.048-7.896,47.103c1.087,22.056,2.176,37.03,2.176,37.03h35.125c0,0,12.254-29.679,10.619-50.1
		c-1.636-20.418-4.899-40.024-0.817-51.188c11.162-24.775,17.7-69.432,22.871-70.246c5.172-0.817,1.903,31.855,15.521,80.865
		C567.472,469.472,549.502,505.958,551.956,544.892z"/>
	<g>
		<path fill="#EF4136" stroke="#000000" stroke-width="2" stroke-miterlimit="10" d="M638.074,432.169
			c-0.205,0.816,2.246,47.376-1.634,56.974c-2.656,1.838-8.373,5.31-8.373,5.31l1.021,3.472c0,0,6.398-5.31,7.352-5.31
			c0.952,0,1.224,49.01,1.224,49.01h11.641c0,0-1.293-61.809-1.021-62.896s8.782,4.086,8.782,4.086l0.815-4.086
			c0,0-8.1-3.267-9.598-4.287c-1.497-1.021-0.612-42.679-0.612-42.679S638.277,431.352,638.074,432.169z"/>
		<path fill="#00AEEF" stroke="#000000" stroke-width="2" stroke-miterlimit="10" d="M641.341,425.635
			c0,0,0.204,46.625-0.816,48.736c-1.021,2.11-15.247,13.614-15.247,13.614l1.089,3.266c0,0,13.068-10.004,14.431-10.345
			c1.36-0.341,0.272,61.534,0.272,61.534h11.163c0,0-3.2-69.295-2.451-69.976c0.749-0.679,9.258,4.902,9.258,4.902l2.45-3.269
			c0,0-10.347-4.016-11.164-6.126c-0.815-2.109-1.361-42.338-1.361-42.338"/>
		<path fill="#A97C50" stroke="#6A3E14" stroke-width="2" stroke-miterlimit="10" d="M664.824,469.539c0,0-10.415,8.102-11.3,13.275
			c-0.884,5.172,1.702,58.811,1.702,58.811l4.901,0.204c0,0-4.765-37.914-2.313-52.004c2.313-5.922,10.073-9.054,10.073-9.054
			L664.824,469.539z"/>
		<path fill="#A97C50" stroke="#6A3E14" stroke-width="2" stroke-miterlimit="10" d="M621.532,497.924c0,0,7.829,2.587,8.237,9.938
			c0.975,17.549-0.478,33.354-0.478,33.354h4.289c0,0-0.136-46.151-1.973-48.875c-1.839-2.722-10.688-4.832-10.688-4.832
			L621.532,497.924z"/>
		<path fill="#C2B59B" d="M623.778,489.552c0,0,5.004,0.613,7.045,3.472c2.043,2.858,1.839,29.609,1.839,32.061
			c0,2.45-1.156,2.96-1.259,1.837s0.952-13.478-0.92-24.402c-0.808-4.717-4.355-4.697-6.091-5.82
			C622.656,495.576,623.778,489.552,623.778,489.552z"/>
		<path fill="#C2B59B" d="M664.109,471.887c0.205-1.633-8.678,6.025-9.903,10.927c-1.226,4.9,1.123,47.682,1.43,50.745
			s1.021,0.305,0.919-1.736c-0.103-2.042-2.246-41.454,0.204-44.619s8.065-6.841,8.065-6.841
			C664.416,479.648,663.906,473.522,664.109,471.887z"/>
		<path fill="#F27A91" stroke="#000000" stroke-width="3" stroke-miterlimit="10" d="M622.962,488.531c0,0,1.226,6.33-0.408,13.07
			c9.189,6.126,7.148,21.237-7.351,24.3c-14.499,3.063-16.338-17.767-16.95-21.034c-0.611-3.266-1.17-21.136,2.042-29.405
			c3.211-8.269,15.315-25.229,29.539-11.237S622.962,488.531,622.962,488.531z"/>
		<path fill="#F27A91" stroke="#000000" stroke-width="3" stroke-miterlimit="10" d="M664.621,470.561
			c-0.409,4.288-1.43,6.942,1.429,12.864c-2.654,1.838-13.409,16.745-0.748,23.893s26.886,1.838,25.253-31.447
			c-1.634-33.286-19.399-33.898-29.405-31.04C651.143,447.69,651.551,470.561,664.621,470.561z"/>
		<path opacity="0.44" fill="#ED1C24" d="M630.587,476.958c1.078,4.913-4.858,9.02-8.715,10.213
			c0.274,5.854,0.274,10.891-2.177,14.021c3.676,3.676,8.304,6.399,5.31,8.441c-2.995,2.043-10.892-2.725-11.98-8.849
			c-1.089-6.126-1.769-15.112,2.723-21.919C620.239,472.058,629.361,471.377,630.587,476.958z"/>
		<path opacity="0.44" fill="#ED1C24" d="M658.086,462.665c2.178,6.263,4.221,5.854,8.305,6.398c-1.09,4.9,0.816,13.479,1.226,14.84
			c-1.771,1.36-4.901,5.582-3.676,8.304c1.224,2.724,7.216,1.498,10.483-5.036c3.266-6.535,3.404-16.473-0.273-23.28
			C670.475,457.083,655.907,456.402,658.086,462.665z"/>
		<path opacity="0.75" fill="#D7E1F2" d="M642.873,424.839c0,0-0.24,46.485-0.512,49.143c-0.271,2.653-6.262,6.532-6.533,6.738
			c-0.272,0.205-0.41,2.244,0.612,1.43c1.021-0.817,6.33-4.903,6.33-2.451c0,2.451,0.34,61.806,0.34,61.806h7.351
			c0,0-2.178-68.342-1.973-69.974c0.204-1.634,6.67,3.061,7.01,2.041c0.342-1.021-6.193-3.745-6.466-5.786
			c-0.271-2.042-1.77-42.844-1.77-42.844L642.873,424.839z"/>
	</g>
	<g>
		
			<line fill="#C1272D" stroke="#C1272D" stroke-width="3" stroke-miterlimit="10" x1="806.261" y1="449.964" x2="701.263" y2="475.015"/>
		<circle fill="#C1272D" stroke="#C1272D" stroke-width="2" stroke-miterlimit="10" cx="698.444" cy="475.394" r="4.289"/>
	</g>
	<path fill="#C1272D" stroke="#C1272D" stroke-width="2" stroke-miterlimit="10" d="M814.026,426.99h2.927v10.902h0.1
		c0.605-0.874,1.212-1.68,1.783-2.417l6.927-8.485h3.632l-8.206,9.594l8.845,13.013h-3.464l-7.432-11.103l-2.185,2.483v8.619h-2.927
		V426.99z"/>
	<path fill="#C1272D" stroke="#C1272D" stroke-width="2" stroke-miterlimit="10" d="M835.783,428.801
		c0,1.006-0.708,1.809-1.884,1.809c-1.077,0-1.784-0.803-1.784-1.809c0-1.007,0.741-1.846,1.852-1.846
		C835.042,426.956,835.783,427.761,835.783,428.801z M832.487,449.596v-16.234h2.958v16.234H832.487z"/>
	<path fill="#C1272D" stroke="#C1272D" stroke-width="2" stroke-miterlimit="10" d="M854.377,425.782v19.622
		c0,1.441,0.066,3.086,0.132,4.192h-2.621l-0.135-2.817h-0.101c-0.875,1.811-2.824,3.186-5.481,3.186
		c-3.934,0-6.993-3.32-6.993-8.251c-0.035-5.4,3.362-8.687,7.296-8.687c2.523,0,4.17,1.174,4.909,2.448h0.067v-9.693H854.377z
		 M851.45,439.97c0-0.37-0.032-0.874-0.134-1.242c-0.438-1.845-2.051-3.387-4.271-3.387c-3.06,0-4.876,2.683-4.876,6.237
		c0,3.286,1.648,6.003,4.808,6.003c1.984,0,3.8-1.341,4.339-3.52c0.102-0.403,0.134-0.806,0.134-1.275V439.97z"/>
	<path fill="#C1272D" stroke="#C1272D" stroke-width="2" stroke-miterlimit="10" d="M859.319,437.754
		c0-1.71-0.035-3.052-0.136-4.393h2.623l0.168,2.683h0.067c0.808-1.508,2.69-3.018,5.38-3.018c2.254,0,5.75,1.342,5.75,6.909v9.66
		h-2.958v-9.358c0-2.616-0.976-4.796-3.768-4.796c-1.916,0-3.429,1.375-3.966,3.02c-0.137,0.368-0.203,0.871-0.203,1.374v9.761
		h-2.958V437.754z"/>
	<path fill="#C1272D" stroke="#C1272D" stroke-width="2" stroke-miterlimit="10" d="M879.627,442.014
		c0.068,3.992,2.59,5.636,5.583,5.636c2.119,0,3.43-0.369,4.506-0.837l0.537,2.111c-1.041,0.471-2.858,1.04-5.447,1.04
		c-5.01,0-8.003-3.32-8.003-8.217c0-4.897,2.893-8.721,7.635-8.721c5.346,0,6.725,4.628,6.725,7.612c0,0.605-0.034,1.04-0.102,1.375
		H879.627z M888.303,439.902c0.034-1.844-0.773-4.762-4.102-4.762c-3.025,0-4.303,2.717-4.54,4.762H888.303z"/>
	<path fill="#C1272D" stroke="#C1272D" stroke-width="2" stroke-miterlimit="10" d="M895.902,433.362l3.529,9.593
		c0.404,1.073,0.809,2.349,1.076,3.32h0.068c0.303-0.972,0.639-2.213,1.041-3.388l3.229-9.525h3.127l-4.438,11.571
		c-2.119,5.566-3.565,8.385-5.582,10.164c-1.48,1.239-2.892,1.744-3.633,1.878l-0.738-2.45c0.738-0.233,1.715-0.703,2.589-1.44
		c0.807-0.638,1.782-1.778,2.488-3.286c0.135-0.303,0.234-0.538,0.234-0.707c0-0.167-0.066-0.401-0.234-0.771l-5.986-14.959H895.902
		z"/>
	<path fill="#C1272D" stroke="#C1272D" stroke-width="2" stroke-miterlimit="10" d="M842.024,479.694
		c0,1.408,0.064,2.785,0.226,3.892h-2.56l-0.227-2.047h-0.099c-0.874,1.275-2.561,2.415-4.797,2.415
		c-3.177,0-4.797-2.313-4.797-4.661c0-3.924,3.37-6.071,9.434-6.038v-0.336c0-1.308-0.358-3.755-3.567-3.723
		c-1.491,0-3.015,0.437-4.116,1.207l-0.647-1.978c1.296-0.838,3.208-1.41,5.185-1.41c4.799,0,5.966,3.388,5.966,6.609V479.694z
		 M839.269,475.3c-3.111-0.066-6.646,0.503-6.646,3.656c0,1.945,1.231,2.815,2.658,2.815c2.076,0,3.403-1.339,3.857-2.714
		c0.098-0.337,0.13-0.673,0.13-0.94V475.3z"/>
	<path fill="#C1272D" stroke="#C1272D" stroke-width="2" stroke-miterlimit="10" d="M848.625,462.791c0,1.006-0.683,1.81-1.816,1.81
		c-1.038,0-1.718-0.804-1.718-1.81s0.712-1.846,1.782-1.846C847.911,460.945,848.625,461.75,848.625,462.791z M845.447,483.585
		V467.35h2.853v16.235H845.447z"/>
	<path fill="#C1272D" stroke="#C1272D" stroke-width="2" stroke-miterlimit="10" d="M853.03,459.771h2.853v23.814h-2.853V459.771z"
		/>
	<path fill="#C1272D" stroke="#C1272D" stroke-width="2" stroke-miterlimit="10" d="M873.808,479.125c0,1.71,0.032,3.187,0.13,4.461
		h-2.529l-0.162-2.65h-0.064c-0.714,1.309-2.399,3.019-5.188,3.019c-2.463,0-5.412-1.442-5.412-7.11v-9.493h2.854v8.957
		c0,3.085,0.939,5.198,3.5,5.198c1.913,0,3.241-1.375,3.76-2.717c0.163-0.403,0.261-0.939,0.261-1.51v-9.929h2.852V479.125z"/>
	<path fill="#C1272D" stroke="#C1272D" stroke-width="2" stroke-miterlimit="10" d="M878.539,472.416
		c0-1.911-0.033-3.556-0.129-5.065h2.496l0.129,3.223h0.098c0.712-2.182,2.463-3.558,4.376-3.558c0.291,0,0.518,0.034,0.776,0.067
		v2.783c-0.291-0.065-0.583-0.065-0.972-0.065c-2.01,0-3.437,1.542-3.825,3.757c-0.064,0.401-0.097,0.903-0.097,1.374v8.654h-2.853
		V472.416z"/>
	<path fill="#C1272D" stroke="#C1272D" stroke-width="2" stroke-miterlimit="10" d="M890.4,476.004
		c0.066,3.991,2.496,5.636,5.382,5.636c2.042,0,3.307-0.37,4.344-0.838l0.518,2.111c-1.004,0.471-2.755,1.04-5.251,1.04
		c-4.829,0-7.714-3.32-7.714-8.217s2.788-8.722,7.357-8.722c5.154,0,6.482,4.629,6.482,7.613c0,0.605-0.031,1.04-0.097,1.376H890.4z
		 M898.764,473.891c0.033-1.844-0.746-4.762-3.954-4.762c-2.917,0-4.148,2.717-4.376,4.762H898.764z"/>
	<text transform="matrix(1.0095 0 0 1 802.7217 516.4077)" fill="#C1272D" font-family="'MyriadPro-It'" font-size="22.9297">Renal failure</text>
	<g>
		<polyline fill="#00AEEF" stroke="#000000" stroke-width="2" stroke-miterlimit="10" points="623.02,378.803 624.926,360.016 
			632.821,372.542 629.554,379.893 		"/>
		<path opacity="0.66" fill="#D1D3D4" d="M669.578,305.833c0,0-15.385,4.355-17.835,14.976c-2.449,10.618,3.405,13.749,3.677,10.891
			c0.272-2.859,0.953-16.337,17.018-20.966"/>
		<path fill="#00AEEF" stroke="#414042" stroke-width="2" stroke-miterlimit="10" d="M614.033,329.522
			c5.854-1.226,18.379-0.41,23.008,4.355c4.631,4.766,22.193-14.701,15.249-17.29c-6.943-2.586-33.219,2.724-38.528,5.854"/>
		<path fill="#00AEEF" stroke="#414042" stroke-width="2" stroke-miterlimit="10" d="M621.386,314.545l0.273,26.685l7.622-3.813
			c0,0-1.635-7.352-1.635-8.167c0-0.816,5.72,3.268,5.72,3.268l3.336-5.514c0,0-8.373-0.611-8.782-2.791
			c-0.407-2.178-0.273-11.572-0.273-11.572"/>
		<path fill="#BE1E2D" stroke="#BE1E2D" stroke-width="3" stroke-miterlimit="10" d="M610.495,346.267
			c0.987-1.295,3.947-4.087,8.576-1.635c4.629,2.451,2.586-4.9,0.408-6.67c-2.179-1.77-7.759-1.089-10.073,0.816"/>
		<polyline opacity="0.75" fill="#D1D3D4" points="624.449,380.608 625.504,369.205 628.227,372.746 626.456,381.049 		"/>
		<path opacity="0.72" fill="#F27A91" stroke="#000000" stroke-width="3" stroke-miterlimit="10" d="M617.574,341.23
			c-0.817,5.989,1.361,11.708,7.078,23.416c5.719,11.707,26.683,28.042,46.832,27.228c20.147-0.817,19.874-3.541,18.241-11.98
			c-1.633-8.441,1.634-18.245-3.539-30.496c-5.173-12.252-17.424-21.236-23.415-25.321
			C656.781,319.993,618.391,335.24,617.574,341.23z"/>
		<path fill="#F27A91" stroke="#000000" stroke-width="5" stroke-miterlimit="10" d="M617.574,341.23
			c-0.817,5.989,1.361,11.708,7.078,23.416c5.719,11.707,26.683,28.042,46.832,27.228c20.147-0.817,19.874-3.541,18.241-11.98
			c-1.633-8.441,1.634-18.245-3.539-30.496c-5.173-12.252-17.424-21.236-23.415-25.321
			C656.781,319.993,618.391,335.24,617.574,341.23z"/>
		<path fill="#00AEEF" stroke="#000000" stroke-width="2" stroke-miterlimit="10" d="M668.353,305.561
			c-3.948-0.409-17.425,4.221-18.922,20.694c-0.387,4.158,8.462,13.001,8.576,11.572c0.271-3.405-0.546-23.01,14.567-23.826
			L668.353,305.561z"/>
		<path opacity="0.75" fill="#D1D3D4" d="M652.017,321.897c0.66-9.64,13.229-15.941,15.315-15.11l2.273,4.53
			c-2.371-0.058-12.289,1.63-14.169,10.281L652.017,321.897z"/>
		<path fill="#F27A91" stroke="#000000" stroke-width="2" stroke-miterlimit="10" d="M647.525,300.932
			c-0.937-0.232-1.849-0.375-2.73-0.429l-0.675-8.419l-4.22,1.226l0.699,7.693c-0.876,0.281-1.699,0.678-2.468,1.184l-4.357-6.427
			l-3.131,2.314l4.388,7.207c-1.294,1.905-2.24,4.362-2.754,7.36c-1.634,9.528,5.989,21.51,10.891,23.96
			c2.178,1.089,5.854-10.619,5.854-10.619s-6.943-10.345-4.493-13.886c2.451-3.539,7.41,3.713,7.41,3.713s1.621-3.654,5.57-6.648
			C657.509,309.16,655.149,302.838,647.525,300.932z"/>
		<path fill="#B5804B" d="M661.002,324.348c1.77-0.68,13.886,7.762,12.524,10.348s-10.212,10.347-12.253,11.436
			C656.373,347.901,659.232,325.031,661.002,324.348z"/>
		<path opacity="0.89" fill="#D1D3D4" d="M622.815,312.095c0,0-0.354,18.519,0.204,18.991c0.558,0.475,3.436-2.621,3.543-4.202
			c0.109-1.581-0.276-16.218-0.276-16.218"/>
		<path fill="#D069A9" d="M632.141,298.482l4.151,6.943c-7.146,13.308,2.962,25.661,4.902,27.704
			c2.349,3.165,5.411-3.37,3.846-5.889c-2.417-5.241-5.174-8.236-5.582-11.742c-0.407-3.505,0.919-6.807,2.757-8.576
			c1.838-1.77-4.254-3.574-4.254-3.574c-1.669-2.279-4.322-6.092-4.322-6.092L632.141,298.482z"/>
		<path fill="#8967AC" stroke="#000000" stroke-miterlimit="10" d="M647.166,332.175c1.347-1.327,1.531-11.911,4.697-6.397
			c3.166,5.513,0.664,11.162,4.748,11.877"/>
		<path opacity="0.63" fill="#8967AC" d="M676.113,347.423c-0.136-5.309,8.906,0.723,10.073,10.888
			c1.166,10.167,0.05,13.708,0.765,18.449c1.183,7.874,1.996,8.12-1.066,10.773c-3.063,2.656-11.201-1.514-13.243-9.274
			C670.599,370.5,676.249,352.732,676.113,347.423z"/>
		<path fill="none" stroke="#000000" stroke-miterlimit="10" d="M668.218,344.497c1.089-0.952,4.901-0.137,5.581,0.545
			c0.68,0.681,0.682,5.444,0.137,6.126s-5.854,0.408-6.263,0.137C667.264,351.032,667.128,345.451,668.218,344.497z"/>
		<path fill="none" stroke="#000000" stroke-miterlimit="10" d="M672.302,351.711c0.817,1.09,0.953,6.808,1.089,8.851
			c0.137,2.042-2.995,5.447-1.226,7.624c1.771,2.178,6.671,6.125,8.031,7.486c1.363,1.361,0.682,6.671,0.682,6.671"/>
		<path fill="none" stroke="#000000" stroke-miterlimit="10" d="M672.778,369.002c-1.18,1.064,0.886,3.947,0.886,5.512
			c0,1.567-2.315,2.248-3.268,2.52"/>
		<path fill="none" stroke="#000000" stroke-miterlimit="10" d="M673.54,375.389c1.011,1.058-0.226,3.505-0.226,3.505"/>
		<path fill="none" stroke="#000000" stroke-miterlimit="10" d="M674.343,350.555c2.654,1.156,5.923,5.174,6.194,8.235"/>
		<path fill="none" stroke="#000000" stroke-miterlimit="10" d="M677.203,352.598c1.293,2.721,0.611,3.88-0.546,5.444"/>
		<path fill="none" stroke="#000000" stroke-miterlimit="10" d="M668.115,344.396c-1.293-0.546,0.442-2.895,0.34-5.957
			c-0.103-3.063-8.882-9.292-6.738-7.453"/>
		<path fill="none" stroke="#000000" stroke-miterlimit="10" d="M634.863,342.421c-1.769-1.191,5.174,2.211,2.041,8.677
			c-2.859,5.905-1.327,11.539,4.596,14.194"/>
		<path fill="none" stroke="#000000" stroke-miterlimit="10" d="M637.313,350.079c-1.769,5.718,4.425,4.083,7.862,7.453"/>
		<path fill="none" stroke="#000000" stroke-miterlimit="10" d="M624.039,353.344c0,0,3.269,8.477,5.107,10.825
			c1.836,2.349,7.146,4.084,9.188,5.718c2.042,1.634,2.96,5.104,5.819,6.636c2.858,1.531,5.719-2.552,9.088,0.103
			s2.212,10.455,6.807,12.189c4.595,1.736,8.141,2.305,11.715,1.794"/>
		<path fill="none" stroke="#000000" stroke-miterlimit="10" d="M637.291,369.372c-0.205,4.236,1.354,7.119,5.943,9.701"/>
		<path fill="none" stroke="#000000" stroke-miterlimit="10" d="M653.446,376.625c2.858-0.612,4.492,5.003,7.351,5.616
			c2.859,0.612,3.574-4.901,3.574-4.901"/>
		<path fill="#B5804B" d="M618.527,340.48c-1.361,2.724,0,13.069,4.22,15.452c7.079-9.529,14.568-16.336,18.379-16.336
			s-4.013-8.349-4.923-9.352C635.064,329.014,619.888,337.756,618.527,340.48z"/>
	</g>
	<g>
		
			<line fill="#C1272D" stroke="#C1272D" stroke-width="3" stroke-miterlimit="10" x1="806.261" y1="308.828" x2="695.47" y2="336.998"/>
		<circle fill="#C1272D" stroke="#C1272D" stroke-width="2" stroke-miterlimit="10" cx="692.74" cy="337.795" r="4.289"/>
	</g>
	<path fill="#C1272D" stroke="#C1272D" stroke-width="2" stroke-miterlimit="10" d="M830.442,236.668v9.458h11.332v-9.458h3.059
		v22.606h-3.059v-10.599h-11.332v10.599h-3.06v-22.606H830.442z"/>
	<path fill="#C1272D" stroke="#C1272D" stroke-width="2" stroke-miterlimit="10" d="M851.686,251.694
		c0.068,3.991,2.675,5.635,5.77,5.635c2.19,0,3.545-0.369,4.658-0.839l0.556,2.113c-1.077,0.47-2.954,1.04-5.631,1.04
		c-5.18,0-8.273-3.32-8.273-8.217c0-4.897,2.989-8.721,7.89-8.721c5.527,0,6.953,4.629,6.953,7.614c0,0.604-0.035,1.04-0.104,1.375
		H851.686z M860.654,249.581c0.033-1.845-0.802-4.763-4.243-4.763c-3.128,0-4.449,2.717-4.692,4.763H860.654z"/>
	<path fill="#C1272D" stroke="#C1272D" stroke-width="2" stroke-miterlimit="10" d="M879.217,255.383
		c0,1.409,0.07,2.784,0.244,3.891h-2.747l-0.244-2.046h-0.103c-0.938,1.274-2.746,2.415-5.145,2.415
		c-3.407,0-5.146-2.314-5.146-4.662c0-3.924,3.615-6.071,10.115-6.038v-0.334c0-1.308-0.382-3.757-3.823-3.723
		c-1.6,0-3.233,0.436-4.415,1.207l-0.695-1.978c1.392-0.839,3.441-1.409,5.563-1.409c5.145,0,6.396,3.387,6.396,6.607V255.383z
		 M876.263,250.99c-3.337-0.067-7.127,0.502-7.127,3.656c0,1.944,1.322,2.817,2.852,2.817c2.226,0,3.649-1.342,4.136-2.717
		c0.104-0.335,0.14-0.671,0.14-0.939V250.99z"/>
	<path fill="#C1272D" stroke="#C1272D" stroke-width="2" stroke-miterlimit="10" d="M883.339,248.105
		c0-1.912-0.033-3.555-0.139-5.064h2.677l0.14,3.22h0.104c0.765-2.181,2.642-3.556,4.693-3.556c0.313,0,0.556,0.033,0.833,0.067
		v2.784c-0.312-0.067-0.625-0.067-1.042-0.067c-2.155,0-3.685,1.543-4.102,3.756c-0.07,0.402-0.104,0.906-0.104,1.375v8.653h-3.06
		V248.105z"/>
	<path fill="#C1272D" stroke="#C1272D" stroke-width="2" stroke-miterlimit="10" d="M900.042,239.15v3.891h4.381v2.247h-4.381v8.755
		c0,2.012,0.592,3.153,2.296,3.153c0.834,0,1.32-0.067,1.771-0.202l0.14,2.248c-0.591,0.201-1.529,0.402-2.711,0.402
		c-1.426,0-2.572-0.469-3.304-1.24c-0.833-0.906-1.181-2.348-1.181-4.26v-8.855h-2.607v-2.247h2.607v-3.019L900.042,239.15z"/>
	<path fill="#C1272D" stroke="#C1272D" stroke-width="2" stroke-miterlimit="10" d="M823.314,288.033l-2.434,7.111h-3.129
		l7.996-22.607h3.615l7.995,22.607h-3.232l-2.504-7.111H823.314z M831.031,285.752l-2.328-6.507
		c-0.522-1.476-0.87-2.817-1.218-4.125h-0.069c-0.349,1.308-0.695,2.717-1.182,4.092l-2.295,6.541H831.031z"/>
	<path fill="#C1272D" stroke="#C1272D" stroke-width="2" stroke-miterlimit="10" d="M842.401,275.019v3.891h4.38v2.248h-4.38v8.753
		c0,2.012,0.592,3.153,2.295,3.153c0.834,0,1.321-0.068,1.771-0.202l0.14,2.248c-0.59,0.201-1.529,0.403-2.711,0.403
		c-1.425,0-2.572-0.47-3.303-1.241c-0.834-0.907-1.182-2.349-1.182-4.26v-8.854h-2.607v-2.248h2.607v-3.019L842.401,275.019z"/>
	<path fill="#C1272D" stroke="#C1272D" stroke-width="2" stroke-miterlimit="10" d="M855.543,275.019v3.891h4.379v2.248h-4.379
		v8.753c0,2.012,0.591,3.153,2.295,3.153c0.833,0,1.32-0.068,1.772-0.202l0.138,2.248c-0.59,0.201-1.529,0.403-2.711,0.403
		c-1.425,0-2.571-0.47-3.303-1.241c-0.834-0.907-1.182-2.349-1.182-4.26v-8.854h-2.607v-2.248h2.607v-3.019L855.543,275.019z"/>
	<path fill="#C1272D" stroke="#C1272D" stroke-width="2" stroke-miterlimit="10" d="M875.184,291.252
		c0,1.409,0.07,2.784,0.245,3.892h-2.747l-0.243-2.047h-0.105c-0.938,1.275-2.745,2.416-5.145,2.416
		c-3.406,0-5.145-2.314-5.145-4.663c0-3.924,3.615-6.07,10.115-6.037v-0.336c0-1.307-0.382-3.756-3.822-3.723
		c-1.601,0-3.234,0.436-4.416,1.207l-0.694-1.978c1.391-0.839,3.44-1.41,5.561-1.41c5.146,0,6.396,3.388,6.396,6.607V291.252z
		 M872.229,286.859c-3.338-0.067-7.127,0.503-7.127,3.656c0,1.945,1.322,2.817,2.852,2.817c2.226,0,3.648-1.342,4.137-2.717
		c0.104-0.336,0.139-0.671,0.139-0.939V286.859z"/>
	<path fill="#C1272D" stroke="#C1272D" stroke-width="2" stroke-miterlimit="10" d="M892.116,294.573
		c-0.801,0.369-2.573,0.939-4.833,0.939c-5.074,0-8.376-3.321-8.376-8.285c0-4.998,3.544-8.653,9.038-8.653
		c1.808,0,3.405,0.436,4.24,0.872l-0.696,2.248c-0.729-0.37-1.877-0.771-3.544-0.771c-3.86,0-5.946,2.784-5.946,6.138
		c0,3.757,2.504,6.07,5.841,6.07c1.738,0,2.885-0.402,3.755-0.771L892.116,294.573z"/>
	<path fill="#C1272D" stroke="#C1272D" stroke-width="2" stroke-miterlimit="10" d="M898.724,286.355h0.068
		c0.417-0.57,0.973-1.274,1.461-1.845l4.97-5.601h3.649l-6.466,6.674l7.405,9.56h-3.755l-5.771-7.782l-1.563,1.678v6.104h-3.025
		v-23.815h3.025V286.355z"/>
	<path fill="#C1272D" d="M828.116,325.625l1.059-8.026c0.197-1.41,0.529-3.594,0.794-5.025H829.9
		c-0.683,1.498-1.521,3.262-2.315,4.783l-4.43,8.18h-1.391l-1.102-8.003c-0.222-1.72-0.376-3.44-0.463-4.96h-0.066
		c-0.309,1.367-0.772,3.615-1.126,5.025l-2.027,8.026h-1.721l3.86-14.86h2.337l1.168,8.51c0.155,1.279,0.31,2.624,0.354,3.728h0.064
		c0.463-1.104,1.104-2.426,1.743-3.661l4.585-8.576h2.404l-1.896,14.86H828.116z"/>
	<path fill="#C1272D" d="M835.28,314.955l1.059,5.732c0.242,1.233,0.375,2.027,0.484,2.821h0.044
		c0.287-0.683,0.596-1.433,1.146-2.625l2.734-5.929h1.94l-4.013,8.113c-1.146,2.292-2.228,4.166-3.683,5.599
		c-1.189,1.214-2.491,1.721-3.087,1.853l-0.463-1.586c0.463-0.154,1.235-0.442,1.963-1.015c0.728-0.551,1.5-1.41,2.073-2.469
		c0.087-0.178,0.087-0.288,0.043-0.485l-2.138-10.01H835.28z"/>
	<path fill="#C1272D" d="M852.742,319.144c0,3.307-2.339,6.725-5.932,6.725c-2.668,0-4.167-1.985-4.167-4.389
		c0-3.528,2.448-6.769,5.909-6.769C851.441,314.711,852.742,316.894,852.742,319.144z M844.54,321.414
		c0,1.742,0.97,2.999,2.513,2.999c2.161,0,3.793-2.778,3.793-5.269c0-1.236-0.573-2.979-2.493-2.979
		C846.061,316.166,844.54,318.966,844.54,321.414z"/>
	<path fill="#C1272D" d="M861.405,325.184c-0.551,0.287-1.653,0.661-3.086,0.661c-2.756,0-4.103-1.852-4.103-4.123
		c0-3.637,2.69-6.989,6.526-6.989c0.993,0,1.896,0.286,2.229,0.464l-0.53,1.455c-0.419-0.199-1.015-0.396-1.809-0.396
		c-2.777,0-4.52,2.733-4.52,5.246c0,1.721,0.904,2.845,2.646,2.845c1.104,0,1.919-0.33,2.47-0.595L861.405,325.184z"/>
	<path fill="#C1272D" d="M870.137,325.625c0-0.641,0.109-1.654,0.243-2.757h-0.045c-1.146,2.228-2.624,3-4.146,3
		c-1.895,0-3.063-1.501-3.063-3.529c0-3.727,2.732-7.628,7.385-7.628c1.038,0,2.139,0.176,2.89,0.397l-1.104,5.578
		c-0.353,1.851-0.484,3.748-0.441,4.938H870.137z M871.328,316.322c-0.244-0.09-0.641-0.156-1.258-0.156
		c-2.778,0-5.05,2.866-5.05,5.844c0,1.191,0.419,2.358,1.831,2.358c1.52,0,3.329-1.983,3.857-4.828L871.328,316.322z"/>
	<path fill="#C1272D" d="M874.589,325.625l1.302-6.88c0.241-1.389,0.418-2.8,0.527-3.791h1.61c-0.088,0.748-0.178,1.498-0.287,2.314
		h0.066c0.685-1.455,1.83-2.558,3.264-2.558c0.177,0,0.376,0.021,0.53,0.045l-0.354,1.807c-0.134-0.022-0.31-0.044-0.508-0.044
		c-1.587,0-2.999,1.918-3.461,4.41l-0.883,4.696H874.589z"/>
	<path fill="#C1272D" d="M892.777,309.97l-2.337,12.26c-0.197,1.124-0.375,2.358-0.439,3.396h-1.677l0.287-2.117h-0.044
		c-0.97,1.522-2.315,2.36-3.838,2.36c-2.071,0-3.196-1.698-3.196-3.882c0-3.792,2.822-7.275,6.592-7.275
		c0.686,0,1.435,0.154,1.898,0.375l0.946-5.116H892.777z M889.714,316.63c-0.353-0.266-0.97-0.465-1.741-0.465
		c-2.56,0-4.542,2.735-4.542,5.58c0,1.277,0.439,2.622,2.006,2.622c1.41,0,3.107-1.608,3.571-4.013L889.714,316.63z"/>
	<path fill="#C1272D" d="M893.02,325.625l2.051-10.671h1.808l-2.029,10.671H893.02z M895.401,312
		c0.021-0.705,0.551-1.234,1.19-1.234c0.661,0,1.103,0.484,1.103,1.146c-0.022,0.727-0.529,1.234-1.258,1.234
		C895.798,313.146,895.401,312.661,895.401,312z"/>
	<path fill="#C1272D" d="M905.146,325.625c0-0.641,0.11-1.654,0.244-2.757h-0.046c-1.146,2.228-2.623,3-4.146,3
		c-1.895,0-3.063-1.501-3.063-3.529c0-3.727,2.733-7.628,7.385-7.628c1.037,0,2.141,0.176,2.888,0.397l-1.101,5.578
		c-0.354,1.851-0.484,3.748-0.44,4.938H905.146z M906.336,316.322c-0.241-0.09-0.639-0.156-1.255-0.156
		c-2.779,0-5.051,2.866-5.051,5.844c0,1.191,0.419,2.358,1.831,2.358c1.521,0,3.33-1.983,3.858-4.828L906.336,316.322z"/>
	<path fill="#C1272D" d="M909.6,325.625l2.977-15.655h1.83l-2.977,15.655H909.6z"/>
	<path fill="#C1272D" d="M821.718,354.125l2.052-10.671h1.808l-2.028,10.671H821.718z M824.099,340.498
		c0.023-0.705,0.552-1.235,1.191-1.235c0.661,0,1.104,0.485,1.104,1.147c-0.023,0.729-0.531,1.234-1.259,1.234
		C824.496,341.644,824.099,341.16,824.099,340.498z"/>
	<path fill="#C1272D" d="M826.789,354.125l1.411-7.563c0.242-1.19,0.396-2.227,0.507-3.107h1.632l-0.265,2.094h0.044
		c0.948-1.499,2.403-2.337,3.946-2.337c1.279,0,2.713,0.728,2.713,2.954c0,0.485-0.089,1.147-0.199,1.72l-1.191,6.24h-1.807
		l1.168-6.173c0.067-0.42,0.133-0.906,0.133-1.368c0-1.059-0.419-1.852-1.676-1.852c-1.303,0-3.152,1.565-3.639,4.211l-0.971,5.182
		H826.789z"/>
	<path fill="#C1272D" d="M838.782,354.125l1.765-9.238h-1.433l0.285-1.433h1.411l0.111-0.574c0.264-1.478,0.792-2.844,1.741-3.704
		c0.684-0.617,1.609-0.948,2.534-0.948c0.729,0,1.213,0.132,1.479,0.286l-0.396,1.456c-0.287-0.133-0.663-0.198-1.082-0.198
		c-1.455,0-2.159,1.411-2.469,3.174l-0.088,0.509H845l-0.265,1.433h-2.382l-1.741,9.238H838.782z"/>
	<path fill="#C1272D" d="M851.703,354.125c0-0.64,0.108-1.653,0.242-2.757H851.9c-1.146,2.228-2.623,2.999-4.144,2.999
		c-1.896,0-3.065-1.5-3.065-3.527c0-3.727,2.733-7.629,7.387-7.629c1.036,0,2.138,0.175,2.888,0.397l-1.104,5.577
		c-0.352,1.853-0.484,3.748-0.439,4.939H851.703z M852.894,344.819c-0.243-0.087-0.639-0.154-1.257-0.154
		c-2.778,0-5.049,2.867-5.049,5.844c0,1.19,0.419,2.358,1.829,2.358c1.521,0,3.329-1.983,3.858-4.828L852.894,344.819z"/>
	<path fill="#C1272D" d="M856.156,354.125l1.3-6.88c0.241-1.388,0.419-2.8,0.53-3.791h1.609c-0.089,0.749-0.178,1.499-0.288,2.313
		h0.066c0.684-1.454,1.83-2.557,3.264-2.557c0.176,0,0.375,0.021,0.529,0.044l-0.354,1.809c-0.132-0.022-0.309-0.046-0.506-0.046
		c-1.588,0-3,1.919-3.462,4.41l-0.882,4.697H856.156z"/>
	<path fill="#C1272D" d="M870.354,353.683c-0.553,0.287-1.654,0.661-3.087,0.661c-2.757,0-4.102-1.852-4.102-4.123
		c0-3.638,2.69-6.989,6.526-6.989c0.993,0,1.896,0.287,2.227,0.463l-0.529,1.456c-0.419-0.198-1.014-0.397-1.808-0.397
		c-2.777,0-4.52,2.733-4.52,5.247c0,1.721,0.903,2.846,2.646,2.846c1.102,0,1.918-0.332,2.469-0.596L870.354,353.683z"/>
	<path fill="#C1272D" d="M877.188,340.895l-0.484,2.559h2.557l-0.287,1.433h-2.558l-0.97,5.182c-0.132,0.595-0.22,1.146-0.22,1.695
		c0,0.641,0.308,1.038,1.014,1.038c0.33,0,0.617-0.022,0.859-0.089l-0.089,1.435c-0.33,0.132-0.881,0.197-1.409,0.197
		c-1.61,0-2.249-0.97-2.249-2.072c0-0.618,0.088-1.213,0.242-1.983l1.036-5.402h-1.521l0.265-1.433h1.521l0.375-1.985
		L877.188,340.895z"/>
	<path fill="#C1272D" d="M879.371,354.125l2.051-10.671h1.808l-2.029,10.671H879.371z M881.751,340.498
		c0.023-0.705,0.552-1.235,1.191-1.235c0.661,0,1.103,0.485,1.103,1.147c-0.021,0.729-0.529,1.234-1.256,1.234
		C882.148,341.644,881.751,341.16,881.751,340.498z"/>
	<path fill="#C1272D" d="M894.673,347.642c0,3.307-2.338,6.725-5.932,6.725c-2.667,0-4.168-1.985-4.168-4.387
		c0-3.529,2.447-6.77,5.909-6.77C893.37,343.21,894.673,345.392,894.673,347.642z M886.471,349.914c0,1.74,0.969,2.998,2.514,2.998
		c2.159,0,3.791-2.778,3.791-5.27c0-1.235-0.574-2.978-2.491-2.978C887.991,344.665,886.471,347.465,886.471,349.914z"/>
	<path fill="#C1272D" d="M895.95,354.125l1.411-7.563c0.242-1.19,0.396-2.227,0.506-3.107h1.632l-0.265,2.094h0.044
		c0.949-1.499,2.403-2.337,3.946-2.337c1.279,0,2.713,0.728,2.713,2.954c0,0.485-0.089,1.147-0.199,1.72l-1.19,6.24h-1.808
		l1.168-6.173c0.066-0.42,0.133-0.906,0.133-1.368c0-1.059-0.418-1.852-1.676-1.852c-1.3,0-3.152,1.565-3.639,4.211l-0.969,5.182
		H895.95z"/>
	<g>
		<path opacity="0.69" fill="#FBB040" stroke="#754C29" stroke-miterlimit="10" d="M639.221,163.161c0,0-2.009,10.789,11.57,16.201
			c-0.715,10.21,6.943,19.536,8.883,20.387c1.94,0.851,5.004-5.412,5.004-5.412s-7.964-7.521-9.258-13.75
			c0.477-1.633,8.305,0.035,8.271,2.519s1.362,14.226,2.349,15.043s6.093,1.701,5.173-0.272c-0.919-1.974-4.016-18.276-3.131-19.876
			c0.885-1.6-22.6-19.06-22.6-19.06L639.221,163.161z"/>
		<path fill="#6A3C00" stroke="#754D24" stroke-width="2" stroke-miterlimit="10" d="M650.52,160.098
			c-2.043-0.681-6.74,0.543-6.943,2.314c-0.204,1.77,4.151,12.933,22.122,16.881c17.97,3.947,20.013-19.876,20.013-19.876"/>
		<path opacity="0.8" fill="#FEC77C" stroke="#754D24" stroke-miterlimit="10" d="M650.046,160.732c0,0,3.72-3.234,7.439-2.912
			c3.722,0.323,7.765,2.588,24.103,1.617c0,0,0.971,15.043-14.234,15.367S650.046,160.732,650.046,160.732z"/>
		<path fill="#C59B6C" stroke="#754D24" stroke-miterlimit="10" d="M667.435,159.655c-16.411-4.046-14.143,2.13-13.956,2.588
			c2.192,5.4,17.938,15.178,24.16-1.103"/>
		<path fill="#754D24" stroke="#754D24" stroke-miterlimit="10" d="M672.529,160.894c2.103,0.485,5.824,0.485,5.824,0.485
			c-2.649,5.934-7.091,7.981-8.171,8.149c-1.081,0.167,3.562-3.779,2.937-8.341"/>
		<path fill="#FBB03B" stroke="#754C29" stroke-miterlimit="10" d="M621.386,154.72c1.771-0.272,3.266,8.441,11.367,9.938
			c8.102,1.497,10.277-3.676,10.277-3.676c4.222,2.314,12.934-0.884,14.023-2.995c14.294,5.037,27.636,2.586,33.967,0.136
			c6.329-2.45,2.654-11.435,2.654-11.435s3.947-16.337-0.817-19.196c-1.226-3.54-0.952-7.76-7.555-9.394
			c-0.75-4.356-5.649-10.347-11.027-10.006c0,0-3.472-4.289-9.189-3.472c-3.948-5.582-14.907-3.472-14.907-3.472
			s-3.88-4.288-9.598-1.021c-4.22-4.357-13.068-1.77-15.314,1.225c-4.153-1.225-14.227-0.272-15.929,3.676
			c-12.05,2.042-13.818,5.99-14.703,10.618c0,0-4.697,3.675-2.656,7.556c-3.266,2.519-4.627,5.922-3.402,10.619
			c-0.544,5.786-0.544,7.964,5.446,14.159C596.472,159.213,619.616,154.993,621.386,154.72z"/>
	</g>
	<g>
		<path fill="none" stroke="#FFFFFF" stroke-miterlimit="10" d="M598.649,142.468c0,0,2.043-4.084,2.316-6.535
			c0.271-2.45-2.995-5.037-4.494-7.76c-1.497-2.723-4.355,6.126-2.178,7.352s2.178,4.357,2.178,4.357"/>
		<path fill="none" stroke="#FFFFFF" stroke-miterlimit="10" d="M606.275,131.577c0,0-1.634-5.445-4.085-6.807
			c-2.451-1.361,1.497-3.404,3.402-3.131c1.907,0.272,7.762,5.991,4.903,6.399c-2.861,0.408-2.452,2.177-2.452,2.177"/>
		<path fill="none" stroke="#FFFFFF" stroke-miterlimit="10" d="M607.09,147.096c0,0,4.221-4.356,8.17-3.131"/>
		<path fill="none" stroke="#FFFFFF" stroke-miterlimit="10" d="M617.166,137.294c3.811-6.262-0.816-9.394,1.633-9.666
			c2.45-0.271,7.487,6.127,6.67,7.488c-0.816,1.36-3.402,2.178-3.402,2.178"/>
		<path fill="none" stroke="#FFFFFF" stroke-miterlimit="10" d="M608.181,116.33c0,0,5.718,1.497,6.807,5.445
			c1.09,3.948,0.68-8.032,5.037-7.352c4.355,0.681,12.66,7.624,12.797,10.755c0.135,3.131-4.085,6.806-4.901,3.267
			c-0.817-3.54-3.948-4.356-4.492-4.492"/>
		<path fill="none" stroke="#FFFFFF" stroke-miterlimit="10" d="M615.26,112.79c0,0,2.723,0.135,5.174-3.131
			c2.449-3.268,6.262,2.995,8.985,4.629c2.722,1.634-0.817-6.671-2.044-8.985c-1.224-2.314,3.813-2.45,5.037-2.587
			c1.227-0.136,3.541,3.948,5.175,4.901s1.361-5.854,1.361-5.854"/>
		<path fill="none" stroke="#FFFFFF" stroke-miterlimit="10" d="M631.46,116.874c3.13-0.817,4.629,8.44,5.854,8.849
			c1.225,0.408,0-15.928,0.545-8.985c0.545,6.942,3.948,6.942,3.948,6.942"/>
		<path fill="none" stroke="#FFFFFF" stroke-miterlimit="10" d="M644.53,131.304c0,0,6.125-2.995,4.627-4.628
			c-1.497-1.634,0.545-2.859,4.766-1.77c4.22,1.089,10.755-1.225,8.032-3.403c-2.723-2.179-2.995-5.582-0.817-7.624
			c2.179-2.042,6.126-2.995,6.264-2.586"/>
		<path fill="none" stroke="#FFFFFF" stroke-miterlimit="10" d="M668.218,118.099c0,0,1.36-3.812,3.947-3.676
			c2.587,0.136-0.136,6.535,1.634,9.666c1.77,3.132-1.77,5.446-5.038,5.99c-3.267,0.545-5.99-0.408-8.167,2.86
			c-2.178,3.267-1.226,4.9-5.718,5.037c-4.492,0.136-3.947,5.173-0.953,4.493s9.529-2.587,11.299-5.037
			c1.771-2.451,3.677-4.084,5.991-3.54s5.037,7.215,6.127,7.487c1.088,0.273,6.533-0.271,2.994,4.357
			c-3.54,4.628,2.178,8.985,2.178,8.985"/>
		<path fill="none" stroke="#FFFFFF" stroke-miterlimit="10" d="M633.366,147.233c0,0-0.273,4.22,5.037,5.173
			c5.31,0.953,1.769,6.398,1.769,6.398"/>
	</g>
	<g>
		<path fill="none" stroke="#ED1C24" stroke-width="2" stroke-miterlimit="10" d="M617.711,152.951c0,0,3.675-2.995,6.261-7.215
			c2.587-4.22,17.153-12.253,20.148-11.844c2.995,0.409,8.441-6.125,12.525-6.943c4.084-0.817,7.352,1.634,9.257,0.68
			c1.905-0.953,4.766-7.079,7.353-8.168c2.585-1.089,6.941,3.131,6.941,3.131"/>
		<path fill="none" stroke="#ED1C24" stroke-miterlimit="10" d="M665.902,127.628c0,0,3.642-1.421,5.31-0.953
			s4.628,5.173,4.628,5.173"/>
		<path fill="none" stroke="#ED1C24" stroke-miterlimit="10" d="M675.239,119.367c2.949-2.704,6.555-0.573,6.555-0.573"/>
		<path fill="none" stroke="#ED1C24" stroke-miterlimit="10" d="M651.915,129.331c1.021-5.616,3.164-5.922,7.861-7.862
			c4.696-1.94,1.327-6.637,5.82-8.475"/>
		<path fill="none" stroke="#ED1C24" stroke-miterlimit="10" d="M617.846,109.25c0,0,4.63,5.173,9.529,6.807
			c4.902,1.633,7.624,3.948,8.033,9.802c0.41,5.854,2.313,9.803,2.313,9.803"/>
		<path fill="none" stroke="#ED1C24" stroke-miterlimit="10" d="M633.706,120.073c3.063-3.812-1.429-8.508-1.429-8.508"/>
		<path fill="none" stroke="#ED1C24" stroke-miterlimit="10" d="M632.072,139.132c0,0,2.245-4.695-3.336-7.146
			c-5.58-2.45-5.443-6.262-8.44-6.807c-2.995-0.545-6.126,1.633-8.438-2.451c-2.316-4.084-7.489-2.587-7.489-2.587"/>
		<path fill="none" stroke="#ED1C24" stroke-miterlimit="10" d="M610.563,121.162c1.566-7.487-7.487-7.76-7.487-7.76"/>
		<path fill="none" stroke="#ED1C24" stroke-miterlimit="10" d="M608.01,144.442c0,0,5.106-0.919,6.33,1.225
			c1.226,2.145,5.003,2.247,7.148,3.268c2.144,1.021,3.778-2.451,5.207-0.613c1.43,1.838-0.919,4.595,0.612,7.25
			c1.531,2.655,7.862,6.126,7.862,6.126"/>
		<path fill="none" stroke="#ED1C24" stroke-miterlimit="10" d="M618.426,147.914c1.326-1.94-0.205-6.739-4.086-9.088
			c-3.88-2.349-5.104-1.531-8.984-2.96c-3.88-1.429-5.004-7.862-5.004-7.862"/>
		<path fill="none" stroke="#ED1C24" stroke-miterlimit="10" d="M630.473,140.154c2.246,1.735,3.778-1.736,7.965,1.735
			c4.186,3.472,9.29,1.43,9.29,1.43"/>
		<path fill="none" stroke="#ED1C24" stroke-miterlimit="10" d="M635.17,140.255c-0.512,2.348,1.837,1.532,3.573,6.331
			c1.736,4.798,5.411,3.267,7.76,6.229c2.349,2.961,7.045,0.817,7.045,0.817"/>
		<path fill="none" stroke="#ED1C24" stroke-miterlimit="10" d="M626.899,148.73c2.042,0.307,0.918,3.268,3.676,4.595
			c2.756,1.328,5.207-1.123,5.207-1.123"/>
		<path fill="none" stroke="#ED1C24" stroke-miterlimit="10" d="M636.089,136.954c3.607,0.885,8.237-1.633,10.891-1.429
			c2.653,0.205,3.404,3.744,5.174,4.493s4.426,0.068,7.487,1.225c3.063,1.157,6.194,6.194,6.126,8.713
			c-0.068,2.519,2.723,5.445,2.723,5.445"/>
		<path fill="none" stroke="#ED1C24" stroke-miterlimit="10" d="M665.631,148.593c6.875-0.476,10.891,4.766,10.891,4.766"/>
		<path fill="none" stroke="#ED1C24" stroke-miterlimit="10" d="M650.52,130.487c2.313-0.952,4.084-0.544,8.303,0.545
			c4.221,1.089,5.72,3.404,8.033,4.357c2.314,0.952,5.719,0.272,6.943,3.811c1.225,3.54,2.587,3.677,7.487,6.399
			c4.902,2.722,2.451-3.813,8.986-0.682"/>
		<path fill="none" stroke="#ED1C24" stroke-miterlimit="10" d="M680.334,144.918c0,0,0.407,4.493,5.58,6.399"/>
		<path fill="none" stroke="#ED1C24" stroke-miterlimit="10" d="M641.397,134.333c1.226-5.514,4.595-5.718,5.208-10.21
			c0.612-4.493,0.919-10.415,0.204-11.947c-0.716-1.531,1.634-3.471-0.307-5.105c-1.939-1.633-6.637-3.88-6.637-3.88"/>
		<path fill="none" stroke="#ED1C24" stroke-miterlimit="10" d="M647.32,114.117c1.123-3.778,3.676-10.721,7.146-9.496"/>
		<path fill="none" stroke="#ED1C24" stroke-miterlimit="10" d="M646.911,122.285c0,0,3.37-0.51,5.821-2.246
			c2.449-1.736,3.572-3.778,3.879-7.147"/>
	</g>
	<g>
		
			<line fill="#C1272D" stroke="#C1272D" stroke-width="3" stroke-miterlimit="10" x1="749.259" y1="141.982" x2="704.344" y2="132.228"/>
		
			<ellipse transform="matrix(-0.9715 0.2369 -0.2369 -0.9715 1415.9126 93.7693)" fill="#C1272D" stroke="#C1272D" stroke-width="2" stroke-miterlimit="10" cx="702.324" cy="131.936" rx="3.055" ry="3.201"/>
	</g>
	
		<text transform="matrix(1 0 0 1 785.5693 127.9751)" fill="#C1272D" stroke="#C1272D" stroke-width="2" stroke-miterlimit="10" font-family="'MyriadPro-Regular'" font-size="33.5442">Stroke</text>
	<path fill="#C1272D" d="M767.572,154.774c-0.893,0.379-2.327,0.714-4.114,0.714c-3.996,0-6.417-2.387-6.417-6.225
		c0-2.833,1.199-5.533,3.361-7.251c1.646-1.316,3.667-2.007,5.995-2.007c1.738,0,3.009,0.424,3.432,0.714l-0.636,1.495
		c-0.587-0.335-1.715-0.603-3.125-0.603c-1.646,0-3.315,0.603-4.538,1.673c-1.48,1.316-2.422,3.436-2.422,5.711
		c0,2.7,1.294,4.908,4.819,4.908c1.199,0,2.517-0.223,3.386-0.646L767.572,154.774z"/>
	<path fill="#C1272D" d="M777.634,154.662c-0.846,0.447-2.233,0.848-3.761,0.848c-3.01,0-4.325-1.963-4.325-4.35
		c0-3.258,2.538-6.939,6.206-6.939c2.162,0,3.337,1.228,3.337,2.79c0,2.833-3.36,3.569-7.568,3.502
		c-0.095,0.469-0.024,1.473,0.234,2.054c0.445,0.98,1.364,1.45,2.54,1.45c1.338,0,2.35-0.379,3.055-0.736L777.634,154.662z
		 M775.472,145.671c-1.857,0-3.245,1.718-3.738,3.414c3.08,0.044,5.479-0.357,5.479-2.052
		C777.212,146.162,776.505,145.671,775.472,145.671z"/>
	<path fill="#C1272D" d="M780.104,155.265l1.385-6.96c0.259-1.406,0.447-2.833,0.565-3.838h1.716
		c-0.094,0.758-0.188,1.518-0.305,2.343h0.069c0.729-1.473,1.952-2.589,3.479-2.589c0.189,0,0.4,0.023,0.565,0.045l-0.376,1.83
		c-0.142-0.022-0.328-0.045-0.541-0.045c-1.692,0-3.196,1.941-3.69,4.462l-0.941,4.752H780.104z"/>
	<path fill="#C1272D" d="M795.617,154.662c-0.845,0.447-2.232,0.848-3.76,0.848c-3.009,0-4.326-1.963-4.326-4.35
		c0-3.258,2.539-6.939,6.206-6.939c2.162,0,3.339,1.228,3.339,2.79c0,2.833-3.362,3.569-7.569,3.502
		c-0.095,0.469-0.024,1.473,0.234,2.054c0.445,0.98,1.363,1.45,2.538,1.45c1.34,0,2.351-0.379,3.057-0.736L795.617,154.662z
		 M793.456,145.671c-1.857,0-3.245,1.718-3.739,3.414c3.08,0.044,5.478-0.357,5.478-2.052
		C795.194,146.162,794.489,145.671,793.456,145.671z"/>
	<path fill="#C1272D" d="M803.093,139.425l-1.504,7.005h0.047c1.012-1.45,2.469-2.209,3.997-2.209c2.491,0,3.431,1.964,3.431,3.883
		c0,3.324-2.515,7.406-7.075,7.406c-1.998,0-3.503-0.78-3.503-2.766c0-0.535,0.094-1.183,0.213-1.695l2.444-11.624H803.093z
		 M800.626,151.093c-0.096,0.379-0.166,0.803-0.142,1.383c0,1.026,0.635,1.584,1.833,1.584c2.938,0,4.725-3.324,4.725-5.734
		c0-1.339-0.61-2.565-2.162-2.565c-1.692,0-3.433,1.65-3.996,4.193L800.626,151.093z"/>
	<path fill="#C1272D" d="M810.429,155.265l1.387-6.96c0.258-1.406,0.446-2.833,0.564-3.838h1.715
		c-0.094,0.758-0.188,1.518-0.305,2.343h0.069c0.73-1.473,1.952-2.589,3.479-2.589c0.188,0,0.401,0.023,0.565,0.045l-0.377,1.83
		c-0.141-0.022-0.327-0.045-0.54-0.045c-1.691,0-3.196,1.941-3.69,4.462l-0.94,4.752H810.429z"/>
	<path fill="#C1272D" d="M828.669,148.705c0,3.347-2.492,6.805-6.324,6.805c-2.843,0-4.442-2.007-4.442-4.439
		c0-3.569,2.609-6.85,6.3-6.85C827.282,144.221,828.669,146.43,828.669,148.705z M819.924,151.003c0,1.763,1.036,3.035,2.68,3.035
		c2.306,0,4.044-2.812,4.044-5.333c0-1.249-0.611-3.011-2.655-3.011C821.547,145.694,819.924,148.527,819.924,151.003z"/>
	<path fill="#C1272D" d="M832.385,144.466l0.986,6.158c0.164,1.227,0.33,2.052,0.354,2.655h0.071
		c0.259-0.58,0.563-1.294,1.221-2.521l3.456-6.292h2.14l-6.323,10.798h-1.904l-1.976-10.798H832.385z"/>
	<path fill="#C1272D" d="M847.688,155.265c0-0.646,0.118-1.673,0.26-2.789h-0.048c-1.223,2.253-2.797,3.034-4.419,3.034
		c-2.021,0-3.268-1.517-3.268-3.569c0-3.77,2.915-7.72,7.874-7.72c1.106,0,2.281,0.179,3.081,0.402l-1.177,5.644
		c-0.375,1.874-0.518,3.793-0.471,4.998H847.688z M848.957,145.85c-0.258-0.089-0.682-0.156-1.341-0.156
		c-2.962,0-5.382,2.9-5.382,5.912c0,1.205,0.447,2.387,1.951,2.387c1.622,0,3.551-2.008,4.114-4.886L848.957,145.85z"/>
	<path fill="#C1272D" d="M852.53,153.391c0.542,0.313,1.505,0.669,2.443,0.669c1.316,0,2.164-0.803,2.164-1.763
		c0-0.848-0.399-1.36-1.599-1.985c-1.316-0.692-2.045-1.651-2.045-2.767c0-1.874,1.716-3.325,4.114-3.325
		c1.034,0,1.951,0.268,2.373,0.536l-0.539,1.406c-0.4-0.223-1.129-0.491-1.975-0.491c-1.178,0-2.021,0.691-2.021,1.628
		c0,0.782,0.54,1.272,1.575,1.808c1.268,0.669,2.114,1.628,2.114,2.833c0,2.276-1.927,3.547-4.325,3.547
		c-1.222-0.022-2.326-0.357-2.845-0.736L852.53,153.391z"/>
	<path fill="#C1272D" d="M869.008,154.818c-0.587,0.291-1.762,0.669-3.289,0.669c-2.938,0-4.373-1.874-4.373-4.172
		c0-3.682,2.868-7.072,6.958-7.072c1.058,0,2.021,0.29,2.374,0.469l-0.564,1.472c-0.446-0.201-1.081-0.402-1.927-0.402
		c-2.962,0-4.819,2.767-4.819,5.31c0,1.74,0.964,2.878,2.821,2.878c1.175,0,2.045-0.334,2.632-0.603L869.008,154.818z"/>
	<path fill="#C1272D" d="M882.22,144.466l-1.527,7.653c-0.258,1.204-0.399,2.253-0.517,3.146h-1.74l0.282-2.03h-0.046
		c-1.012,1.405-2.493,2.275-3.997,2.275c-1.458,0-3.009-0.668-3.009-3.123c0-0.513,0.07-1.116,0.211-1.83l1.247-6.091h1.926
		l-1.197,6.024c-0.119,0.603-0.188,1.116-0.188,1.584c0,1.115,0.47,1.874,1.811,1.874c1.41,0,3.22-1.584,3.689-3.949l1.104-5.533
		H882.22z"/>
	<path fill="#C1272D" d="M883.514,155.265l3.174-15.84h1.951l-3.174,15.84H883.514z"/>
	<path fill="#C1272D" d="M896.42,155.265c0-0.646,0.117-1.673,0.258-2.789h-0.048c-1.222,2.253-2.797,3.034-4.418,3.034
		c-2.022,0-3.269-1.517-3.269-3.569c0-3.77,2.915-7.72,7.877-7.72c1.104,0,2.278,0.179,3.078,0.402l-1.175,5.644
		c-0.377,1.874-0.519,3.793-0.472,4.998H896.42z M897.688,145.85c-0.258-0.089-0.681-0.156-1.338-0.156
		c-2.963,0-5.384,2.9-5.384,5.912c0,1.205,0.446,2.387,1.951,2.387c1.621,0,3.55-2.008,4.113-4.886L897.688,145.85z"/>
	<path fill="#C1272D" d="M901.167,155.265l1.387-6.96c0.259-1.406,0.446-2.833,0.565-3.838h1.716
		c-0.094,0.758-0.188,1.518-0.307,2.343h0.071c0.729-1.473,1.952-2.589,3.479-2.589c0.189,0,0.4,0.023,0.565,0.045l-0.376,1.83
		c-0.142-0.022-0.329-0.045-0.541-0.045c-1.691,0-3.198,1.941-3.691,4.462l-0.939,4.752H901.167z"/>
	<path fill="#C1272D" d="M798.945,182.856c0-0.646,0.116-1.673,0.258-2.789h-0.047c-1.222,2.253-2.799,3.034-4.419,3.034
		c-2.022,0-3.268-1.517-3.268-3.569c0-3.77,2.915-7.72,7.875-7.72c1.104,0,2.28,0.179,3.079,0.402l-1.176,5.644
		c-0.376,1.875-0.518,3.793-0.469,4.998H798.945z M800.214,173.441c-0.258-0.088-0.682-0.156-1.34-0.156
		c-2.963,0-5.384,2.9-5.384,5.912c0,1.205,0.447,2.387,1.951,2.387c1.623,0,3.551-2.008,4.114-4.886L800.214,173.441z"/>
	<path fill="#C1272D" d="M811.497,182.41c-0.588,0.291-1.763,0.669-3.289,0.669c-2.939,0-4.374-1.874-4.374-4.172
		c0-3.682,2.868-7.072,6.958-7.072c1.058,0,2.021,0.289,2.375,0.468l-0.564,1.472c-0.447-0.201-1.081-0.401-1.928-0.401
		c-2.962,0-4.819,2.767-4.819,5.31c0,1.741,0.965,2.878,2.821,2.878c1.175,0,2.045-0.334,2.632-0.603L811.497,182.41z"/>
	<path fill="#C1272D" d="M821.23,182.41c-0.589,0.291-1.764,0.669-3.29,0.669c-2.939,0-4.374-1.874-4.374-4.172
		c0-3.682,2.869-7.072,6.958-7.072c1.058,0,2.021,0.289,2.374,0.468l-0.563,1.472c-0.446-0.201-1.081-0.401-1.928-0.401
		c-2.962,0-4.819,2.767-4.819,5.31c0,1.741,0.965,2.878,2.822,2.878c1.175,0,2.044-0.334,2.631-0.603L821.23,182.41z"/>
	<path fill="#C1272D" d="M823.346,182.856l2.187-10.798h1.928l-2.162,10.798H823.346z M825.885,169.069
		c0.022-0.714,0.587-1.25,1.271-1.25c0.704,0,1.174,0.491,1.174,1.16c-0.023,0.737-0.564,1.25-1.34,1.25
		C826.308,170.229,825.885,169.738,825.885,169.069z"/>
	<path fill="#C1272D" d="M840.813,167.016l-2.492,12.405c-0.212,1.138-0.399,2.387-0.47,3.436h-1.787l0.307-2.142h-0.047
		c-1.035,1.539-2.469,2.387-4.092,2.387c-2.208,0-3.408-1.717-3.408-3.927c0-3.837,3.009-7.362,7.03-7.362
		c0.728,0,1.527,0.157,2.021,0.38l1.011-5.176H840.813z M837.545,173.754c-0.377-0.268-1.035-0.468-1.857-0.468
		c-2.727,0-4.842,2.766-4.842,5.644c0,1.294,0.47,2.655,2.139,2.655c1.505,0,3.314-1.629,3.809-4.06L837.545,173.754z"/>
	<path fill="#C1272D" d="M849.275,182.254c-0.847,0.447-2.233,0.848-3.76,0.848c-3.011,0-4.327-1.963-4.327-4.35
		c0-3.258,2.54-6.939,6.206-6.939c2.163,0,3.338,1.228,3.338,2.79c0,2.833-3.361,3.569-7.568,3.502
		c-0.095,0.469-0.023,1.473,0.235,2.054c0.445,0.981,1.363,1.45,2.537,1.45c1.341,0,2.351-0.379,3.058-0.736L849.275,182.254z
		 M847.113,173.263c-1.856,0-3.244,1.718-3.738,3.414c3.079,0.044,5.477-0.357,5.477-2.052
		C848.852,173.754,848.146,173.263,847.113,173.263z"/>
	<path fill="#C1272D" d="M851.743,182.856l1.505-7.652c0.259-1.205,0.422-2.254,0.541-3.146h1.738l-0.281,2.119h0.047
		c1.012-1.517,2.562-2.365,4.207-2.365c1.363,0,2.892,0.737,2.892,2.99c0,0.491-0.094,1.159-0.211,1.74l-1.271,6.313h-1.927
		l1.246-6.247c0.07-0.424,0.142-0.915,0.142-1.384c0-1.07-0.448-1.873-1.787-1.873c-1.387,0-3.361,1.584-3.879,4.261l-1.035,5.243
		H851.743z"/>
	<path fill="#C1272D" d="M869.304,169.471l-0.517,2.588h2.727l-0.306,1.45h-2.726l-1.035,5.244c-0.142,0.603-0.234,1.16-0.234,1.718
		c0,0.647,0.328,1.048,1.08,1.048c0.353,0,0.658-0.022,0.917-0.089l-0.094,1.45c-0.353,0.134-0.94,0.201-1.504,0.201
		c-1.717,0-2.398-0.981-2.398-2.097c0-0.624,0.095-1.227,0.259-2.007l1.105-5.467h-1.623l0.282-1.45h1.622l0.399-2.008
		L869.304,169.471z"/>
	<path fill="#F7941E" stroke="#4D4D4E" stroke-miterlimit="10" d="M594.931,158.404c-0.89-2.909-10.511-12.917-17.752-1.243
		c0,0-7.466,4.327-0.021,10.022c7.268,11.85,16.593,1.266,16.593,1.266"/>
	<path fill="#00AEEF" stroke="#4D4D4E" stroke-miterlimit="10" d="M577.415,156.952c-4.382,0.112-7.168,6.668-0.403,9.987"/>
	<path opacity="0.8" fill="#6FCCDD" d="M577.064,165.659c5.733-0.148,4.324-7.909,0.303-7.844"/>
	<path opacity="0.57" fill="#FBB040" d="M588.319,156.94c1.039,6.697-3.635,11.209-3.796,11.401
		c-2.923,3.497,3.154,2.954,5.357,1.592c2.325-1.438,3.63-1.44,4.397-7.095c0.767-5.656-8.784-14.628-5.996-6.111"/>
	
		<text transform="matrix(1 0 0 1 386.6826 133.4351)" fill="#C1272D" stroke="#C1272D" stroke-width="2" stroke-miterlimit="10" font-family="'MyriadPro-Regular'" font-size="31.9046">Vision Loss</text>
	<text transform="matrix(1.0348 0 0 1 384.5059 164.7729)"><tspan x="0" y="0" fill="#C1272D" font-family="'MyriadPro-It'" font-size="22.3124">Hypertensive</tspan><tspan x="0" y="26.775" fill="#C1272D" font-family="'MyriadPro-It'" font-size="22.3124">retinopathy</tspan></text>
	<g>
		
			<line fill="#C1272D" stroke="#C1272D" stroke-width="3" stroke-miterlimit="10" x1="514.579" y1="138.762" x2="561.018" y2="152.317"/>
		<circle fill="#C1272D" stroke="#C1272D" stroke-width="2" stroke-miterlimit="10" cx="563.119" cy="152.779" r="3.244"/>
	</g>
	<path opacity="0.95" fill="#EC2127" stroke="#C1272D" stroke-miterlimit="10" d="M477.624,415.561l-26.683,1.906
		C414.728,374.992,403.565,304.2,403.565,304.2l19.876-0.272C442.5,370.635,477.624,415.561,477.624,415.561z"/>
	<path fill="#FBB03B" stroke="#C1272D" stroke-miterlimit="10" d="M418.722,365.613c17.235-0.614,28.542,19.847,15.808,32.821"/>
	<path fill="#FBB03B" stroke="#C1272D" stroke-miterlimit="10" d="M445.604,357.752c-7.859,10.718,5.224,31.062,16.219,31.612"/>
	<path fill="#C1272D" stroke="#C1272D" stroke-width="2" stroke-miterlimit="10" d="M375.815,430.492
		c1.301-0.284,3.391-0.473,5.445-0.473c2.98,0,4.898,0.473,6.302,1.549c1.199,0.82,1.952,2.083,1.952,3.76
		c0,2.084-1.507,3.885-3.904,4.676v0.096c2.192,0.472,4.761,2.146,4.761,5.307c0,1.832-0.788,3.255-1.986,4.267
		c-1.576,1.357-4.178,1.989-7.945,1.989c-2.055,0-3.63-0.126-4.624-0.252V430.492z M378.795,439.212h2.706
		c3.117,0,4.966-1.549,4.966-3.602c0-2.465-2.021-3.477-5.034-3.477c-1.371,0-2.158,0.096-2.638,0.19V439.212z M378.795,449.387
		c0.616,0.096,1.439,0.125,2.5,0.125c3.082,0,5.925-1.041,5.925-4.138c0-2.874-2.706-4.107-5.959-4.107h-2.466V449.387z"/>
	<path fill="#C1272D" stroke="#C1272D" stroke-width="2" stroke-miterlimit="10" d="M394.277,429.039h3.015v22.434h-3.015V429.039z"
		/>
	<path fill="#C1272D" stroke="#C1272D" stroke-width="2" stroke-miterlimit="10" d="M417.362,443.701
		c0,5.656-4.281,8.119-8.253,8.119c-4.453,0-7.946-3.032-7.946-7.867c0-5.088,3.665-8.09,8.22-8.09
		C414.144,435.863,417.362,439.056,417.362,443.701z M404.245,443.857c0,3.351,2.055,5.878,5,5.878c2.877,0,5.035-2.497,5.035-5.941
		c0-2.59-1.404-5.845-4.966-5.845C405.787,437.949,404.245,440.984,404.245,443.857z"/>
	<path fill="#C1272D" stroke="#C1272D" stroke-width="2" stroke-miterlimit="10" d="M436.166,443.701
		c0,5.656-4.28,8.119-8.253,8.119c-4.452,0-7.945-3.032-7.945-7.867c0-5.088,3.664-8.09,8.22-8.09
		C432.947,435.863,436.166,439.056,436.166,443.701z M423.05,443.857c0,3.351,2.056,5.878,5.001,5.878
		c2.876,0,5.034-2.497,5.034-5.941c0-2.59-1.404-5.845-4.966-5.845C424.591,437.949,423.05,440.984,423.05,443.857z"/>
	<path fill="#C1272D" stroke="#C1272D" stroke-width="2" stroke-miterlimit="10" d="M454.253,429.039v18.485
		c0,1.358,0.069,2.907,0.138,3.948h-2.673l-0.136-2.653h-0.103c-0.891,1.705-2.877,3.001-5.583,3.001
		c-4.007,0-7.123-3.129-7.123-7.773c-0.034-5.086,3.425-8.184,7.432-8.184c2.568,0,4.247,1.107,5,2.307h0.067v-9.131H454.253z
		 M451.272,442.404c0-0.348-0.032-0.822-0.136-1.168c-0.446-1.738-2.09-3.192-4.35-3.192c-3.118,0-4.967,2.527-4.967,5.878
		c0,3.097,1.68,5.655,4.898,5.655c2.02,0,3.87-1.264,4.418-3.316c0.104-0.381,0.136-0.759,0.136-1.201V442.404z"/>
	<path fill="#C1272D" stroke="#C1272D" stroke-width="2" stroke-miterlimit="10" d="M470.489,451.472l-7.568-21.297h3.254
		l3.598,10.49c0.958,2.876,1.814,5.469,2.466,7.963h0.066c0.651-2.463,1.575-5.15,2.638-7.931l3.905-10.522h3.184l-8.254,21.297
		H470.489z"/>
	<path fill="#C1272D" stroke="#C1272D" stroke-width="2" stroke-miterlimit="10" d="M484.98,444.331
		c0.068,3.761,2.637,5.31,5.685,5.31c2.157,0,3.492-0.348,4.589-0.789l0.548,1.989c-1.061,0.442-2.91,0.979-5.549,0.979
		c-5.102,0-8.148-3.129-8.148-7.741c0-4.613,2.944-8.216,7.773-8.216c5.444,0,6.849,4.361,6.849,7.173
		c0,0.569-0.033,0.979-0.104,1.295H484.98z M493.815,442.34c0.035-1.737-0.787-4.486-4.178-4.486c-3.083,0-4.383,2.562-4.625,4.486
		H493.815z"/>
	<path fill="#C1272D" stroke="#C1272D" stroke-width="2" stroke-miterlimit="10" d="M500.053,448.661
		c0.924,0.506,2.499,1.074,4.007,1.074c2.156,0,3.185-0.979,3.185-2.275c0-1.325-0.857-2.021-3.049-2.78
		c-3.015-1.011-4.418-2.495-4.418-4.328c0-2.465,2.192-4.488,5.719-4.488c1.678,0,3.151,0.412,4.043,0.949l-0.72,2.022
		c-0.651-0.379-1.85-0.916-3.392-0.916c-1.78,0-2.739,0.946-2.739,2.085c0,1.264,0.959,1.833,3.116,2.622
		c2.843,0.979,4.351,2.308,4.351,4.582c0,2.718-2.295,4.612-6.165,4.612c-1.815,0-3.493-0.442-4.658-1.074L500.053,448.661z"/>
	<path fill="#C1272D" stroke="#C1272D" stroke-width="2" stroke-miterlimit="10" d="M513.616,448.661
		c0.925,0.506,2.499,1.074,4.006,1.074c2.158,0,3.186-0.979,3.186-2.275c0-1.325-0.856-2.021-3.047-2.78
		c-3.015-1.011-4.419-2.495-4.419-4.328c0-2.465,2.191-4.488,5.719-4.488c1.679,0,3.152,0.412,4.043,0.949l-0.72,2.022
		c-0.651-0.379-1.851-0.916-3.391-0.916c-1.781,0-2.74,0.946-2.74,2.085c0,1.264,0.959,1.833,3.117,2.622
		c2.843,0.979,4.349,2.308,4.349,4.582c0,2.718-2.294,4.612-6.164,4.612c-1.816,0-3.493-0.442-4.658-1.074L513.616,448.661z"/>
	<path fill="#C1272D" stroke="#C1272D" stroke-width="2" stroke-miterlimit="10" d="M529.269,444.331
		c0.069,3.761,2.638,5.31,5.687,5.31c2.156,0,3.492-0.348,4.589-0.789l0.548,1.989c-1.061,0.442-2.911,0.979-5.549,0.979
		c-5.103,0-8.151-3.129-8.151-7.741c0-4.613,2.946-8.216,7.775-8.216c5.444,0,6.849,4.361,6.849,7.173
		c0,0.569-0.033,0.979-0.102,1.295H529.269z M538.105,442.34c0.034-1.737-0.788-4.486-4.179-4.486c-3.083,0-4.383,2.562-4.622,4.486
		H538.105z"/>
	<path fill="#C1272D" stroke="#C1272D" stroke-width="2" stroke-miterlimit="10" d="M544.752,429.039h3.014v22.434h-3.014V429.039z"
		/>
	<path fill="#C1272D" stroke="#C1272D" stroke-width="2" stroke-miterlimit="10" d="M374.455,464.861
		c1.891-0.297,4.14-0.495,6.603-0.495c4.461,0,7.637,0.987,9.743,2.767c2.176,1.811,3.426,4.379,3.426,7.967
		c0,3.624-1.25,6.587-3.462,8.628c-2.284,2.073-5.996,3.194-10.67,3.194c-2.249,0-4.069-0.099-5.639-0.264V464.861z
		 M377.559,484.484c0.786,0.1,1.928,0.132,3.141,0.132c6.673,0,10.243-3.424,10.243-9.416c0.036-5.236-3.176-8.562-9.744-8.562
		c-1.605,0-2.819,0.133-3.64,0.296V484.484z"/>
	<path fill="#C1272D" stroke="#C1272D" stroke-width="2" stroke-miterlimit="10" d="M410.254,482.903c0,1.384,0.071,2.734,0.25,3.82
		h-2.82l-0.25-2.009h-0.107c-0.964,1.251-2.819,2.37-5.282,2.37c-3.498,0-5.282-2.271-5.282-4.576c0-3.854,3.712-5.958,10.385-5.927
		v-0.328c0-1.284-0.392-3.689-3.925-3.654c-1.642,0-3.319,0.428-4.533,1.185l-0.713-1.942c1.427-0.823,3.533-1.385,5.71-1.385
		c5.282,0,6.566,3.327,6.566,6.489V482.903z M407.22,478.59c-3.426-0.065-7.316,0.494-7.316,3.589c0,1.91,1.356,2.766,2.926,2.766
		c2.284,0,3.748-1.316,4.247-2.666c0.106-0.331,0.143-0.66,0.143-0.922V478.59z"/>
	<path fill="#C1272D" stroke="#C1272D" stroke-width="2" stroke-miterlimit="10" d="M415.324,475.099
		c0-1.679-0.072-2.995-0.143-4.312h2.748l0.143,2.601h0.107c0.963-1.515,2.57-2.932,5.461-2.932c2.319,0,4.104,1.318,4.854,3.196
		h0.071c0.535-0.923,1.249-1.581,1.963-2.076c1.036-0.725,2.141-1.12,3.783-1.12c2.318,0,5.711,1.385,5.711,6.916v9.351h-3.07
		v-8.987c0-3.096-1.249-4.907-3.747-4.907c-1.82,0-3.177,1.218-3.748,2.601c-0.143,0.429-0.249,0.923-0.249,1.449v9.845h-3.069
		v-9.548c0-2.535-1.214-4.347-3.604-4.347c-1.927,0-3.391,1.45-3.89,2.896c-0.179,0.395-0.25,0.924-0.25,1.417v9.581h-3.069V475.099
		z"/>
	<path fill="#C1272D" stroke="#C1272D" stroke-width="2" stroke-miterlimit="10" d="M457.228,482.903c0,1.384,0.07,2.734,0.248,3.82
		h-2.819l-0.248-2.009h-0.107c-0.964,1.251-2.82,2.37-5.281,2.37c-3.499,0-5.282-2.271-5.282-4.576
		c0-3.854,3.712-5.958,10.386-5.927v-0.328c0-1.284-0.394-3.689-3.927-3.654c-1.642,0-3.319,0.428-4.532,1.185l-0.715-1.942
		c1.428-0.823,3.533-1.385,5.711-1.385c5.283,0,6.567,3.327,6.567,6.489V482.903z M454.193,478.59
		c-3.426-0.065-7.316,0.494-7.316,3.589c0,1.91,1.356,2.766,2.928,2.766c2.282,0,3.746-1.316,4.245-2.666
		c0.108-0.331,0.144-0.66,0.144-0.922V478.59z"/>
	<path fill="#C1272D" stroke="#C1272D" stroke-width="2" stroke-miterlimit="10" d="M477.072,484.385
		c0,3.688-0.82,5.894-2.462,7.312c-1.713,1.414-4.141,1.909-6.318,1.909c-2.068,0-4.353-0.463-5.745-1.317l0.785-2.239
		c1.142,0.691,2.927,1.282,5.067,1.282c3.212,0,5.568-1.547,5.568-5.596v-1.745h-0.071c-0.929,1.482-2.819,2.667-5.497,2.667
		c-4.283,0-7.352-3.358-7.352-7.771c0-5.4,3.819-8.431,7.815-8.431c2.998,0,4.604,1.417,5.39,2.733h0.071l0.108-2.402h2.783
		c-0.106,1.12-0.144,2.435-0.144,4.345V484.385z M473.932,477.076c0-0.494-0.035-0.921-0.18-1.284
		c-0.57-1.711-2.068-3.094-4.389-3.094c-2.998,0-5.139,2.336-5.139,6.025c0,3.128,1.748,5.729,5.104,5.729
		c1.962,0,3.71-1.12,4.354-2.963c0.178-0.494,0.249-1.055,0.249-1.55V477.076z"/>
	<path fill="#C1272D" stroke="#C1272D" stroke-width="2" stroke-miterlimit="10" d="M483.999,479.282
		c0.071,3.918,2.747,5.531,5.925,5.531c2.248,0,3.639-0.361,4.781-0.822l0.571,2.073c-1.106,0.462-3.032,1.021-5.781,1.021
		c-5.317,0-8.494-3.259-8.494-8.066s3.069-8.562,8.102-8.562c5.674,0,7.138,4.545,7.138,7.477c0,0.592-0.035,1.019-0.107,1.349
		H483.999z M493.207,477.208c0.034-1.812-0.821-4.676-4.354-4.676c-3.212,0-4.567,2.668-4.817,4.676H493.207z"/>
	<g>
		<path fill="#C1272D" d="M377.762,511.237l-2.571,5.011h-2.114l8.386-15.853h2.331l2.258,15.853h-2.042l-0.673-5.011H377.762z
			 M383.193,509.685l-0.625-4.586c-0.097-0.824-0.217-1.999-0.289-2.917h-0.048c-0.433,0.942-0.841,1.93-1.321,2.893l-2.428,4.61
			H383.193z"/>
		<path fill="#C1272D" d="M393.09,502.134l-0.529,2.729h2.788l-0.312,1.529h-2.787l-1.058,5.526c-0.145,0.635-0.24,1.223-0.24,1.811
			c0,0.683,0.336,1.106,1.104,1.106c0.361,0,0.673-0.024,0.937-0.095l-0.096,1.528c-0.361,0.142-0.961,0.212-1.538,0.212
			c-1.754,0-2.452-1.033-2.452-2.211c0-0.658,0.096-1.292,0.264-2.116l1.129-5.762h-1.657l0.288-1.529h1.658l0.408-2.117
			L393.09,502.134z"/>
		<path fill="#C1272D" d="M395.467,516.248l3.244-16.698h1.995l-1.442,7.314h0.048c0.985-1.389,2.402-2.26,4.156-2.26
			c1.322,0,2.884,0.778,2.884,3.059c0,0.587-0.073,1.341-0.193,1.904l-1.297,6.681h-1.995l1.298-6.586
			c0.072-0.4,0.144-0.941,0.144-1.576c0-1.034-0.504-1.857-1.802-1.857c-1.537,0-3.484,1.764-3.965,4.304l-1.082,5.716H395.467z"/>
		<path fill="#C1272D" d="M416.682,515.612c-0.865,0.471-2.283,0.894-3.845,0.894c-3.076,0-4.421-2.068-4.421-4.586
			c0-3.434,2.595-7.315,6.344-7.315c2.21,0,3.412,1.295,3.412,2.94c0,2.987-3.436,3.764-7.737,3.692
			c-0.096,0.493-0.024,1.554,0.24,2.164c0.457,1.036,1.394,1.528,2.595,1.528c1.37,0,2.403-0.399,3.124-0.775L416.682,515.612z
			 M414.471,506.134c-1.898,0-3.316,1.812-3.82,3.598c3.147,0.047,5.599-0.377,5.599-2.164
			C416.249,506.651,415.528,506.134,414.471,506.134z"/>
		<path fill="#C1272D" d="M419.202,516.248l1.418-7.339c0.264-1.481,0.457-2.986,0.577-4.045h1.754
			c-0.096,0.8-0.191,1.6-0.313,2.469h0.072c0.745-1.554,1.995-2.729,3.557-2.729c0.192,0,0.408,0.024,0.577,0.049l-0.385,1.928
			c-0.144-0.023-0.337-0.048-0.553-0.048c-1.729,0-3.269,2.047-3.772,4.704l-0.962,5.011H419.202z"/>
		<path fill="#C1272D" d="M437.846,509.333c0,3.526-2.545,7.172-6.462,7.172c-2.907,0-4.542-2.117-4.542-4.681
			c0-3.764,2.668-7.221,6.439-7.221C436.431,504.604,437.846,506.934,437.846,509.333z M428.908,511.754
			c0,1.858,1.058,3.199,2.738,3.199c2.355,0,4.134-2.964,4.134-5.62c0-1.318-0.624-3.177-2.715-3.177
			C430.567,506.157,428.908,509.145,428.908,511.754z"/>
		<path fill="#C1272D" d="M439.333,514.271c0.554,0.329,1.538,0.707,2.499,0.707c1.347,0,2.211-0.849,2.211-1.86
			c0-0.893-0.409-1.434-1.635-2.093c-1.345-0.729-2.088-1.74-2.088-2.916c0-1.975,1.752-3.505,4.204-3.505
			c1.057,0,1.994,0.283,2.427,0.565l-0.553,1.481c-0.41-0.234-1.153-0.517-2.019-0.517c-1.201,0-2.066,0.729-2.066,1.717
			c0,0.823,0.553,1.34,1.61,1.903c1.296,0.707,2.161,1.718,2.161,2.988c0,2.398-1.97,3.739-4.421,3.739
			c-1.25-0.024-2.38-0.377-2.906-0.774L439.333,514.271z"/>
		<path fill="#C1272D" d="M456.176,515.777c-0.6,0.306-1.802,0.705-3.363,0.705c-3.004,0-4.471-1.975-4.471-4.398
			c0-3.88,2.932-7.455,7.113-7.455c1.081,0,2.066,0.306,2.427,0.494l-0.577,1.553c-0.455-0.212-1.105-0.425-1.971-0.425
			c-3.025,0-4.926,2.916-4.926,5.599c0,1.834,0.986,3.034,2.885,3.034c1.201,0,2.09-0.354,2.691-0.634L456.176,515.777z"/>
		<path fill="#C1272D" d="M458.36,516.248l3.243-16.698h1.995l-3.244,16.698H458.36z"/>
		<path fill="#C1272D" d="M472.223,515.612c-0.865,0.471-2.282,0.894-3.844,0.894c-3.077,0-4.42-2.068-4.42-4.586
			c0-3.434,2.593-7.315,6.342-7.315c2.212,0,3.412,1.295,3.412,2.94c0,2.987-3.436,3.764-7.737,3.692
			c-0.095,0.493-0.023,1.554,0.239,2.164c0.459,1.036,1.394,1.528,2.597,1.528c1.369,0,2.401-0.399,3.123-0.775L472.223,515.612z
			 M470.013,506.134c-1.897,0-3.316,1.812-3.82,3.598c3.147,0.047,5.6-0.377,5.6-2.164
			C471.792,506.651,471.07,506.134,470.013,506.134z"/>
		<path fill="#C1272D" d="M474.744,516.248l1.419-7.339c0.263-1.481,0.454-2.986,0.576-4.045h1.754
			c-0.098,0.8-0.193,1.6-0.313,2.469h0.071c0.745-1.554,1.995-2.729,3.557-2.729c0.192,0,0.408,0.024,0.577,0.049l-0.385,1.928
			c-0.146-0.023-0.337-0.048-0.553-0.048c-1.729,0-3.268,2.047-3.772,4.704l-0.962,5.011H474.744z"/>
		<path fill="#C1272D" d="M493.388,509.333c0,3.526-2.546,7.172-6.464,7.172c-2.906,0-4.54-2.117-4.54-4.681
			c0-3.764,2.667-7.221,6.439-7.221C491.972,504.604,493.388,506.934,493.388,509.333z M484.45,511.754
			c0,1.858,1.058,3.199,2.739,3.199c2.355,0,4.133-2.964,4.133-5.62c0-1.318-0.626-3.177-2.716-3.177
			C486.108,506.157,484.45,509.145,484.45,511.754z"/>
		<path fill="#C1272D" d="M494.876,514.271c0.552,0.329,1.538,0.707,2.498,0.707c1.347,0,2.213-0.849,2.213-1.86
			c0-0.893-0.41-1.434-1.635-2.093c-1.347-0.729-2.092-1.74-2.092-2.916c0-1.975,1.755-3.505,4.205-3.505
			c1.058,0,1.994,0.283,2.428,0.565l-0.553,1.481c-0.408-0.234-1.153-0.517-2.018-0.517c-1.202,0-2.067,0.729-2.067,1.717
			c0,0.823,0.553,1.34,1.609,1.903c1.298,0.707,2.163,1.718,2.163,2.988c0,2.398-1.97,3.739-4.421,3.739
			c-1.25-0.024-2.38-0.377-2.908-0.774L494.876,514.271z"/>
		<path fill="#C1272D" d="M503.715,516.248l2.236-11.384h1.97l-2.21,11.384H503.715z M506.312,501.711
			c0.023-0.752,0.601-1.316,1.298-1.316c0.722,0,1.2,0.517,1.2,1.223c-0.023,0.776-0.575,1.318-1.368,1.318
			C506.744,502.936,506.312,502.417,506.312,501.711z"/>
		<path fill="#C1272D" d="M509.339,514.271c0.551,0.329,1.537,0.707,2.498,0.707c1.347,0,2.21-0.849,2.21-1.86
			c0-0.893-0.407-1.434-1.634-2.093c-1.345-0.729-2.091-1.74-2.091-2.916c0-1.975,1.755-3.505,4.206-3.505
			c1.058,0,1.994,0.283,2.426,0.565l-0.552,1.481c-0.409-0.234-1.153-0.517-2.018-0.517c-1.201,0-2.068,0.729-2.068,1.717
			c0,0.823,0.554,1.34,1.611,1.903c1.297,0.707,2.161,1.718,2.161,2.988c0,2.398-1.971,3.739-4.421,3.739
			c-1.249-0.024-2.378-0.377-2.908-0.774L509.339,514.271z"/>
	</g>
	<g>
		
			<line fill="#C1272D" stroke="#C1272D" stroke-width="3" stroke-miterlimit="10" x1="452.711" y1="345.585" x2="510.704" y2="372.542"/>
		<circle fill="#C1272D" stroke="#C1272D" stroke-width="2" stroke-miterlimit="10" cx="513.359" cy="373.562" r="4.288"/>
	</g>
	<g>
		<path fill="#C1272D" stroke="#C1272D" stroke-width="2" stroke-miterlimit="10" d="M816.276,460.301h12.432v2.535h-9.418v7.774
			h8.699v2.499h-8.699v10.587h-3.014V460.301z"/>
	</g>
</g>
<g id="BP_text">
	
		<text transform="matrix(1 0 0 1 439 38.8916)" stroke="#000000" stroke-miterlimit="10" font-family="'MyriadPro-Regular'" font-size="32.4677">Risks of High Blood Pressure</text>
</g>
</svg>
