<?xml version="1.0" encoding="utf-8"?>
<!-- Generator: Adobe Illustrator 16.0.0, SVG Export Plug-In . SVG Version: 6.00 Build 0)  -->
<!DOCTYPE svg PUBLIC "-//W3C//DTD SVG 1.1//EN" "http://www.w3.org/Graphics/SVG/1.1/DTD/svg11.dtd">
<svg version="1.1" xmlns="http://www.w3.org/2000/svg" xmlns:xlink="http://www.w3.org/1999/xlink" x="0px" y="0px"
	 width="929.564px" height="603.174px" viewBox="0 0 929.564 603.174" enable-background="new 0 0 929.564 603.174"
	 xml:space="preserve">
<g id="MB_text">
	
		<text transform="matrix(1 0 0 1 64.3604 38.894)" stroke="#000000" stroke-miterlimit="10" font-family="'MyriadPro-Regular'" font-size="32.6081">Su Presión Arterial</text>
</g>
<g id="arrows">
	<rect x="151.762" y="462.098" fill="#FBB040" stroke="#FBB040" stroke-miterlimit="10" width="64.833" height="27.158"/>
	<rect x="152.199" y="360.02" fill="#FBB040" stroke="#FBB040" stroke-miterlimit="10" width="64.834" height="27.158"/>
	<polygon fill="#EF4136" stroke="#EF4136" stroke-miterlimit="10" points="354.334,373.625 337.908,352.186 337.908,359.853 
		220.598,359.853 220.598,387.011 337.908,387.011 337.908,395.064 	"/>
	<polygon fill="#EF4136" stroke="#EF4136" stroke-miterlimit="10" points="354.129,475.625 337.705,454.186 337.705,461.853 
		220.393,461.853 220.393,489.011 337.705,489.011 337.705,497.064 	"/>
	<polygon fill="#8DC63F" stroke="#8DC63F" stroke-miterlimit="10" points="32.332,372.959 49.391,394.398 49.391,386.731 
		148.561,386.731 148.561,359.573 49.391,359.573 49.391,351.52 	"/>
	<polygon fill="#8DC63F" stroke="#8DC63F" stroke-miterlimit="10" points="32.066,474.959 49.126,496.398 49.126,488.731 
		148.297,488.731 148.297,461.573 49.126,461.573 49.126,453.52 	"/>
</g>
<g id="arrow_text">
	
		<text transform="matrix(0 -1 1 0 25.1514 505.5815)" stroke="#000000" stroke-miterlimit="10" font-family="'MyriadPro-Regular'" font-size="14.9899">Diastólica</text>
	
		<text transform="matrix(0 -1 1 0 25.1523 398.5132)" stroke="#000000" stroke-miterlimit="10" font-family="'MyriadPro-Regular'" font-size="14.9899">Sistólica</text>
	
		<text transform="matrix(1 0 0 1 156.8184 377.1206)" stroke="#000000" stroke-miterlimit="10" font-family="'MyriadPro-Regular'" font-size="11">Alta-Normal</text>
	
		<text transform="matrix(1 0 0 1 233.0693 377.1206)" stroke="#000000" stroke-miterlimit="10" font-family="'MyriadPro-Regular'" font-size="11">Alta</text>
	
		<text transform="matrix(1 0 0 1 101.6777 377.1206)" stroke="#000000" stroke-miterlimit="10" font-family="'MyriadPro-Regular'" font-size="11">Normal</text>
	
		<text transform="matrix(1 0 0 1 156.8145 479.4155)" stroke="#000000" stroke-miterlimit="10" font-family="'MyriadPro-Regular'" font-size="11">Alta-Normal</text>
	
		<text transform="matrix(1 0 0 1 233.0693 478.9058)" stroke="#000000" stroke-miterlimit="10" font-family="'MyriadPro-Regular'" font-size="11">Alta</text>
	
		<text transform="matrix(1 0 0 1 101.6816 479.6831)" stroke="#000000" stroke-miterlimit="10" font-family="'MyriadPro-Regular'" font-size="11">Normal</text>
</g>
<g id="numbers">
	<g>
		<path d="M107.552,391.907h-0.024l-1.355,0.731l-0.203-0.803l1.703-0.912h0.899v7.796h-1.02V391.907z"/>
		<path d="M113.707,391.907h-0.023l-1.355,0.731l-0.204-0.803l1.703-0.912h0.899v7.796h-1.02V391.907z"/>
		<path d="M122.766,394.738c0,2.65-0.996,4.113-2.711,4.113c-1.523,0-2.566-1.427-2.59-4.006c0-2.626,1.139-4.054,2.723-4.054
			C121.818,390.792,122.766,392.254,122.766,394.738z M118.531,394.857c0,2.027,0.625,3.179,1.584,3.179
			c1.067,0,1.583-1.26,1.583-3.25c0-1.919-0.479-3.179-1.583-3.179C119.203,391.607,118.531,392.735,118.531,394.857z"/>
	</g>
	<g>
		<path d="M143.203,391.907h-0.023l-1.355,0.731l-0.204-0.803l1.703-0.912h0.899v7.796h-1.02V391.907z"/>
		<path d="M147.068,398.719v-0.647l0.828-0.804c1.99-1.895,2.902-2.902,2.902-4.078c0-0.791-0.372-1.522-1.535-1.522
			c-0.708,0-1.296,0.359-1.655,0.659l-0.336-0.743c0.528-0.444,1.308-0.792,2.194-0.792c1.68,0,2.387,1.151,2.387,2.267
			c0,1.439-1.043,2.603-2.686,4.186l-0.612,0.576v0.023h3.49v0.876H147.068z"/>
		<path d="M158.418,394.738c0,2.65-0.996,4.113-2.711,4.113c-1.523,0-2.566-1.427-2.591-4.006c0-2.626,1.14-4.054,2.723-4.054
			C157.47,390.792,158.418,392.254,158.418,394.738z M154.184,394.857c0,2.027,0.624,3.179,1.584,3.179
			c1.066,0,1.582-1.26,1.582-3.25c0-1.919-0.479-3.179-1.582-3.179C154.855,391.607,154.184,392.735,154.184,394.857z"/>
	</g>
	<g>
		<path d="M178.589,391.907h-0.024l-1.355,0.731l-0.203-0.803l1.703-0.912h0.899v7.796h-1.02V391.907z"/>
		<path d="M182.705,397.52c0.301,0.18,0.984,0.479,1.728,0.479c1.343,0,1.774-0.852,1.763-1.511c-0.012-1.092-0.995-1.56-2.015-1.56
			h-0.587v-0.791h0.587c0.768,0,1.739-0.396,1.739-1.319c0-0.624-0.396-1.176-1.367-1.176c-0.623,0-1.224,0.276-1.559,0.516
			l-0.289-0.768c0.42-0.3,1.212-0.6,2.051-0.6c1.535,0,2.231,0.911,2.231,1.859c0,0.815-0.491,1.499-1.439,1.847v0.024
			c0.96,0.18,1.728,0.899,1.739,1.99c0,1.248-0.983,2.339-2.842,2.339c-0.876,0-1.644-0.275-2.027-0.527L182.705,397.52z"/>
		<path d="M193.803,394.738c0,2.65-0.996,4.113-2.711,4.113c-1.523,0-2.566-1.427-2.59-4.006c0-2.626,1.139-4.054,2.723-4.054
			C192.855,390.792,193.803,392.254,193.803,394.738z M189.568,394.857c0,2.027,0.625,3.179,1.584,3.179
			c1.067,0,1.583-1.26,1.583-3.25c0-1.919-0.479-3.179-1.583-3.179C190.24,391.607,189.568,392.735,189.568,394.857z"/>
	</g>
	<g>
		<path d="M213.605,391.907h-0.023l-1.355,0.731l-0.204-0.803l1.702-0.912h0.9v7.796h-1.02V391.907z"/>
		<path d="M220.732,398.719v-2.135h-3.622v-0.684l3.479-4.978h1.14v4.846h1.091v0.815h-1.091v2.135H220.732z M220.732,395.769
			v-2.603c0-0.408,0.012-0.815,0.036-1.224h-0.036c-0.24,0.456-0.432,0.792-0.647,1.151l-1.907,2.65v0.024H220.732z"/>
		<path d="M228.819,394.738c0,2.65-0.995,4.113-2.71,4.113c-1.523,0-2.567-1.427-2.592-4.006c0-2.626,1.141-4.054,2.723-4.054
			C227.871,390.792,228.819,392.254,228.819,394.738z M224.586,394.857c0,2.027,0.623,3.179,1.583,3.179
			c1.067,0,1.583-1.26,1.583-3.25c0-1.919-0.48-3.179-1.583-3.179C225.258,391.607,224.586,392.735,224.586,394.857z"/>
	</g>
	<g>
		<path d="M250.619,391.907h-0.023l-1.355,0.731l-0.205-0.803l1.703-0.912h0.9v7.796h-1.02V391.907z"/>
		<path d="M259.138,391.811h-2.975l-0.3,2.003c0.18-0.024,0.348-0.036,0.636-0.036c0.612,0,1.199,0.12,1.679,0.42
			c0.611,0.336,1.115,1.02,1.115,1.991c0,1.522-1.211,2.662-2.902,2.662c-0.852,0-1.559-0.24-1.942-0.479l0.264-0.804
			c0.323,0.192,0.96,0.432,1.679,0.432c0.984,0,1.848-0.647,1.836-1.691c0-1.007-0.684-1.715-2.231-1.715
			c-0.456,0-0.804,0.036-1.091,0.072l0.504-3.742h3.729V391.811z"/>
		<path d="M265.833,394.738c0,2.65-0.995,4.113-2.71,4.113c-1.523,0-2.567-1.427-2.592-4.006c0-2.626,1.141-4.054,2.723-4.054
			C264.885,390.792,265.833,392.254,265.833,394.738z M261.6,394.857c0,2.027,0.623,3.179,1.583,3.179
			c1.067,0,1.583-1.26,1.583-3.25c0-1.919-0.48-3.179-1.583-3.179C262.271,391.607,261.6,392.735,261.6,394.857z"/>
	</g>
	<g>
		<path d="M113.322,493.59v0.695l-3.395,7.101h-1.092l3.383-6.896v-0.023h-3.814v-0.876H113.322z"/>
		<path d="M119.07,494.478h-2.975l-0.3,2.003c0.18-0.024,0.348-0.036,0.636-0.036c0.611,0,1.199,0.12,1.68,0.42
			c0.611,0.336,1.115,1.02,1.115,1.991c0,1.522-1.212,2.662-2.902,2.662c-0.852,0-1.56-0.24-1.943-0.479l0.264-0.804
			c0.324,0.191,0.959,0.432,1.68,0.432c0.982,0,1.846-0.647,1.834-1.691c0-1.007-0.684-1.715-2.23-1.715
			c-0.455,0-0.804,0.036-1.092,0.072l0.504-3.742h3.73V494.478z"/>
	</g>
	<g>
		<path d="M144.306,497.285c-0.876-0.408-1.247-1.079-1.247-1.751c0-1.235,1.043-2.075,2.422-2.075c1.512,0,2.279,0.936,2.279,1.919
			c0,0.66-0.336,1.379-1.295,1.823v0.036c0.971,0.384,1.57,1.079,1.57,2.015c0,1.367-1.163,2.267-2.65,2.267
			c-1.631,0-2.614-0.959-2.614-2.099c0-0.983,0.587-1.691,1.547-2.099L144.306,497.285z M146.969,499.359
			c0-0.935-0.66-1.402-1.716-1.702c-0.911,0.264-1.403,0.875-1.403,1.619c-0.035,0.779,0.564,1.475,1.56,1.475
			C146.356,500.75,146.969,500.163,146.969,499.359z M144.066,495.461c-0.013,0.779,0.587,1.199,1.486,1.439
			c0.672-0.229,1.188-0.708,1.188-1.415c0-0.624-0.371-1.271-1.319-1.271C144.545,494.214,144.066,494.79,144.066,495.461z"/>
		<path d="M154.215,497.405c0,2.65-0.995,4.113-2.71,4.113c-1.523,0-2.567-1.427-2.591-4.006c0-2.626,1.14-4.054,2.723-4.054
			C153.268,493.458,154.215,494.921,154.215,497.405z M149.981,497.524c0,2.027,0.624,3.179,1.583,3.179
			c1.068,0,1.584-1.26,1.584-3.25c0-1.919-0.48-3.179-1.584-3.179C150.653,494.274,149.981,495.402,149.981,497.524z"/>
	</g>
	<g>
		<path d="M181.361,497.285c-0.875-0.408-1.247-1.079-1.247-1.751c0-1.235,1.044-2.075,2.423-2.075c1.512,0,2.279,0.936,2.279,1.919
			c0,0.66-0.336,1.379-1.296,1.823v0.036c0.972,0.384,1.571,1.079,1.571,2.015c0,1.367-1.164,2.267-2.65,2.267
			c-1.631,0-2.615-0.959-2.615-2.099c0-0.983,0.588-1.691,1.547-2.099L181.361,497.285z M184.024,499.359
			c0-0.935-0.659-1.402-1.716-1.702c-0.91,0.264-1.402,0.875-1.402,1.619c-0.036,0.779,0.563,1.475,1.559,1.475
			C183.412,500.75,184.024,500.163,184.024,499.359z M181.122,495.461c-0.013,0.779,0.587,1.199,1.487,1.439
			c0.672-0.229,1.188-0.708,1.188-1.415c0-0.624-0.372-1.271-1.32-1.271C181.602,494.214,181.122,494.79,181.122,495.461z"/>
		<path d="M190.732,494.478h-2.975l-0.301,2.003c0.18-0.024,0.348-0.036,0.637-0.036c0.611,0,1.199,0.12,1.679,0.42
			c0.611,0.336,1.115,1.02,1.115,1.991c0,1.522-1.212,2.662-2.902,2.662c-0.852,0-1.56-0.24-1.942-0.479l0.264-0.804
			c0.323,0.191,0.959,0.432,1.679,0.432c0.983,0,1.847-0.647,1.835-1.691c0-1.007-0.684-1.715-2.23-1.715
			c-0.456,0-0.805,0.036-1.092,0.072l0.504-3.742h3.73V494.478z"/>
	</g>
	<g>
		<path d="M214.189,500.393c0.228,0.023,0.491,0,0.852-0.036c0.611-0.084,1.188-0.324,1.631-0.756
			c0.516-0.468,0.887-1.151,1.031-2.063h-0.036c-0.432,0.527-1.056,0.827-1.847,0.827c-1.392,0-2.291-1.056-2.291-2.387
			c0-1.476,1.067-2.771,2.662-2.771c1.596,0,2.579,1.283,2.579,3.298c0,1.703-0.575,2.902-1.343,3.646
			c-0.6,0.588-1.428,0.947-2.268,1.043c-0.383,0.061-0.719,0.072-0.971,0.061V500.393z M214.572,495.919
			c0,0.971,0.588,1.654,1.5,1.654c0.707,0,1.259-0.348,1.535-0.815c0.06-0.107,0.096-0.216,0.096-0.396
			c0-1.331-0.492-2.351-1.607-2.351C215.209,494.012,214.572,494.803,214.572,495.919z"/>
		<path d="M224.926,497.155c0,2.65-0.995,4.113-2.71,4.113c-1.523,0-2.567-1.427-2.591-4.006c0-2.626,1.14-4.054,2.723-4.054
			C223.979,493.208,224.926,494.671,224.926,497.155z M220.692,497.274c0,2.027,0.624,3.179,1.583,3.179
			c1.068,0,1.584-1.26,1.584-3.25c0-1.919-0.48-3.179-1.584-3.179C221.364,494.024,220.692,495.152,220.692,497.274z"/>
	</g>
	<g>
		<path d="M251.795,500.643c0.229,0.023,0.492,0,0.852-0.036c0.611-0.084,1.188-0.324,1.631-0.756
			c0.516-0.468,0.888-1.151,1.031-2.063h-0.035c-0.432,0.527-1.056,0.827-1.848,0.827c-1.391,0-2.291-1.056-2.291-2.387
			c0-1.476,1.068-2.771,2.663-2.771s2.579,1.283,2.579,3.298c0,1.703-0.576,2.902-1.344,3.646c-0.6,0.588-1.428,0.947-2.267,1.043
			c-0.384,0.061-0.72,0.072-0.972,0.061V500.643z M252.179,496.169c0,0.971,0.588,1.654,1.499,1.654c0.708,0,1.26-0.348,1.535-0.815
			c0.061-0.107,0.096-0.216,0.096-0.396c0-1.331-0.491-2.351-1.607-2.351C252.814,494.262,252.179,495.053,252.179,496.169z"/>
		<path d="M261.992,494.478h-2.975l-0.299,2.003c0.18-0.024,0.348-0.036,0.635-0.036c0.612,0,1.199,0.12,1.68,0.42
			c0.611,0.336,1.115,1.02,1.115,1.991c0,1.522-1.211,2.662-2.902,2.662c-0.852,0-1.559-0.24-1.943-0.479l0.264-0.804
			c0.324,0.191,0.96,0.432,1.68,0.432c0.983,0,1.847-0.647,1.835-1.691c0-1.007-0.684-1.715-2.231-1.715
			c-0.455,0-0.803,0.036-1.091,0.072l0.504-3.742h3.729V494.478z"/>
	</g>
</g>
<g id="leftside_Drawing">
	<path opacity="0.8" fill="#C49A6C" stroke="#A97C50" stroke-width="3" d="M56.216,133.488
		c27.965,21.789,34.256,38.801,34.256,38.801l51.035,59.425c0,0,23.188,16.313,26.217,18.759c3.03,2.447,16.313,4.545,31.228,8.622
		c9.205,2.681,53.249,26.799,62.57,28.78s32.043,10.953,32.043,10.953l2.446,19.925l-10.836,5.942c0,0-90.186-8.972-96.827-8.739
		c-6.642,0.233-35.072-12.584-40.897-13.632c-5.826-1.049-15.265-4.895-19.459-7.458c-4.194-2.563-51.501-43.927-51.501-43.927
		L64.604,241.5c0,0-2.563,1.281-5.942,0.699c-3.379-0.582-10.137-6.292-10.137-6.292l0.117-102.653L56.216,133.488z"/>
	<path stroke="#000000" d="M116.223,199.205l1.864,3.379c0,0,5.126-18.644,19.924-23.188c14.799-4.544,27.965,5.127,27.965,5.127
		l3.029-5.36c0,0-13.284-8.04-32.393-3.263C117.505,180.677,116.223,199.205,116.223,199.205z"/>
	<path fill="#9B8579" stroke="#000000" stroke-width="2" d="M146.576,259.677c1.747-4.02,17.652-14.157,21.147-11.011
		c3.496,3.146-0.873-5.593-4.02-9.963c-3.146-4.369-44.219-35.305-47.19-37.577c-2.971-2.271-27.265-0.524-27.265-0.524
		S144.828,263.698,146.576,259.677z"/>
	<path fill="#58595B" stroke="#000000" stroke-width="3" d="M73.257,182.425c0,0-0.088,7.574,0.087,8.651
		c0.175,1.078,6.408,8.303,10.574,8.652c4.166,0.349,10.924,0.262,10.924,0.262s10.293-10.111,11.04-11.099
		c1.719-2.271,1.106-6.554,1.106-6.554s-4.106,9.7-16.865,9.642S73.257,182.425,73.257,182.425z"/>
	<ellipse fill="#414042" stroke="#000000" stroke-width="4" cx="89.773" cy="178.814" rx="17.361" ry="12.816"/>
	<ellipse fill="#6D6E71" stroke="#6D6E71" cx="89.541" cy="178.115" rx="16.545" ry="11.302"/>
	<ellipse fill="#BCBEC0" cx="90.356" cy="178.814" rx="15.031" ry="10.137"/>
	<path fill="#58595B" stroke="#000000" stroke-width="3" d="M102.91,209.866c0.787,2.33-7.312-6.584-9.06-8.506
		c-1.747-1.923,0.933-5.768,4.603-9.788c3.671-4.02,9.847-4.078,10.808-3.379s10.399,8.914,7.865,7.604
		C114.592,194.485,102.124,207.536,102.91,209.866z"/>
	<ellipse fill="#E6E7E8" cx="90.356" cy="180.095" rx="13.633" ry="9.321"/>
	
		<ellipse transform="matrix(0.7595 -0.6505 0.6505 0.7595 -105.6293 120.8831)" fill="#6D6E71" stroke="#000000" stroke-width="3" cx="110.687" cy="203.312" rx="10.043" ry="5.753"/>
	
		<ellipse transform="matrix(0.7596 -0.6504 0.6504 0.7596 -105.8517 121.0851)" fill="#58595B" stroke="#000000" cx="110.857" cy="203.72" rx="9.274" ry="5.017"/>
	
		<ellipse transform="matrix(0.7596 -0.6504 0.6504 0.7596 -106.3013 120.9192)" fill="#6D6E71" stroke="#000000" cx="110.41" cy="204.247" rx="5.762" ry="3.301"/>
	
		<ellipse transform="matrix(0.7596 -0.6504 0.6504 0.7596 -106.4571 121.369)" fill="#414042" stroke="#000000" cx="110.939" cy="204.682" rx="5.163" ry="2.856"/>
	<path fill="#C2B59B" stroke="#000000" stroke-width="2" d="M86.224,197.457c2.504-2.622,56.884,51.21,56.884,51.21
		s5.545,10.486,6.261,11.885s-0.895,2.622-0.895,2.622s-2.146-1.748-4.114-2.622s-20.75,25.867-18.246,30.062
		c2.505,4.195,3.075,1.139,3.22,4.021s-4.293,2.621-6.797,1.398c-2.504-1.224-55.095-44.22-58.136-49.987s-4.651-4.894-5.725-6.642
		c-1.073-1.747-0.357-7.864-0.357-7.864C59.57,226.644,84.792,197.631,86.224,197.457z"/>
	<path stroke="#000000" d="M150.653,256.998l4.263-4.748c0,0,23.248,1.718,34.888,5.681c11.641,3.961,43.735,18.06,62.194,23.536
		s36.681,5.127,50.202,2.098s22.3-11.594,22.3-11.594v7.399c-2.468,1.631-13.953,7.573-22.888,9.787s-37.623,2.447-58.785-4.544
		c-21.161-6.991-38.915-18.177-53.376-23.071C174.991,256.648,150.653,256.998,150.653,256.998z"/>
	<path opacity="0.43" fill="none" stroke="#FFFFFF" d="M165.511,254.667c0,0,19.341,2.563,29.595,6.408s57.444,24.585,53.133,22.838
		"/>
	<path stroke="#000000" d="M110.28,206.196c-0.583-1.224,2.912-3.38,3.495-2.797s11.768,12.816,16.313,15.847
		c4.545,3.029,47.307,33.79,58.026,40.781c10.721,6.991,35.071,19.691,42.763,31.228c7.69,11.535,3.823,32.418,3.823,32.418h-4.484
		c0,0,3.807-16.106-2.368-27.408c-6.175-11.303-43.579-33.791-55.114-42.063c-11.534-8.272-34.023-24.003-34.023-24.003
		s-6.874-4.66-10.777-6.699S110.862,207.418,110.28,206.196z"/>
	<path stroke="#000000" d="M153.158,255.494c0.117,2.016,5.709,30.108,7.458,38.288c1.748,8.179,14.857,30.022,14.857,30.022
		l-5.564,0.017c0,0-11.273-17.564-13.255-28.024c-1.385-7.309-8.623-35.917-8.272-37.576
		C148.731,256.561,153.042,253.479,153.158,255.494z"/>
	<path fill="#A97C50" stroke="#8B5E3C" stroke-width="2" d="M237.985,186.096c3.146,1.106,10.312,7.34,10.312,7.34
		s11.477,3.205,15.729,4.021c4.254,0.815,60.998,27.615,60.998,27.615l0.524,48.588c-6.117,0.466-68.105-41.947-70.028-44.103
		c-1.922-2.155-7.981-4.02-10.719-2.214c-2.738,1.807-10.895,2.155-17.886,3.962c-6.991,1.806-30.762,0.758-33.849,0.291
		c-3.088-0.466-3.321-5.826-3.321-5.826s-1.049-7.34-0.874-6.815c0.175,0.523,9.438-16.08,9.438-16.08l11.36-7.516"/>
	<path stroke="#000000" d="M175.079,191.093l3.328-7.725l6.911,4.184c5.243-2.447,20.273,3.029,20.273,3.029
		s16.778,15.03,17.711,16.778s0.698,10.138-2.098,12.584c-2.795,2.448-12.118,3.496-12.118,3.496l-22.604-9.321l-7.457-12.817
		l0.233-7.69L175.079,191.093z"/>
	<path fill="#A97C50" stroke="#8B5E3C" stroke-width="2" d="M172.094,189.3c2.039,1.98,7.282,3.962,8.738,5.709
		c1.457,1.748,2.039,7.225-1.223,7.632c-3.263,0.408-7.341,0.059-7.341,0.059s-3.379-2.68-4.021-5.709
		c-0.641-3.03,0.059-3.729,0.699-5.826C169.589,189.067,170.054,187.319,172.094,189.3z"/>
	<path fill="#A97C50" stroke="#8B5E3C" stroke-width="2" d="M172.501,203.283c0,0-2.447,2.563-0.757,5.709
		c1.689,3.146,3.554,5.243,5.826,5.534c2.271,0.292,7.981-0.291,11.477-1.106c3.496-0.815,1.864-8.156-0.874-9.496
		S172.501,203.283,172.501,203.283z"/>
	<path fill="#A97C50" stroke="#8B5E3C" stroke-width="2" d="M191.844,231.887c2.621-0.523,13.05-4.835,15.205-6.059
		c2.156-1.224,2.854-7.398,0.35-8.098s-3.32-0.583-6.583,0.175c-3.263,0.757-14.332,3.204-14.739,6.991
		C185.668,228.684,189.222,232.412,191.844,231.887z"/>
	<path fill="#A97C50" stroke="#8B5E3C" stroke-width="2" d="M178.211,215.109c0,0-0.233,5.651,3.612,8.098
		c3.845,2.447,5.106,1.108,9.02,0.205c3.914-0.903,6.244-1.021,7.759-2.419c1.515-1.397,2.563-7.34-0.524-7.923
		c-3.088-0.582-11.595,1.049-11.595,1.049L178.211,215.109z"/>
	<path fill="#A97C50" stroke="#8B5E3C" stroke-width="2" d="M325.606,302.672c0,0-0.815-2.33-7.224-4.194
		c-13.632-1.631-20.041-3.146-23.77-4.194s-15.38-0.116-20.158-0.699c-4.777-0.583-9.205-0.467-9.205-0.467
		s-4.312-0.466-7.224-1.165c-2.913-0.698-9.322,0.233-9.322,0.233s-1.98,1.981-0.232,4.312s8.854,8.155,13.749,9.204
		c4.895,1.05,7.689,0.35,10.254,0.117c2.563-0.233,8.039,2.214,9.555,2.563c1.515,0.35,1.165,2.913,1.165,2.913l-11.419,5.826
		l-6.525,6.524l58.726,1.165"/>
	<polygon fill="#414042" stroke="#000000" points="165.976,184.523 175.064,190.815 178.094,184.057 169.005,179.163 	"/>
	<path opacity="0.43" fill="none" stroke="#FFFFFF" d="M151.47,266.144c-0.658-3.024,6.313,28.405,7.668,32.684
		c3.431,10.836,14.092,26.392,14.092,26.392"/>
	<path opacity="0.53" fill="none" stroke="#FFFFFF" d="M112.494,205.671c0,0,11.186,12.584,16.079,16.079
		c12.41,7.603,42.559,28.11,47.19,32.218s43.345,29.392,37.577,25.634"/>
	<path opacity="0.43" fill="none" stroke="#FFFFFF" d="M328.054,271.33c0,0-7.69,7.224-20.507,12.816
		c-13.167,5.127-34.14,3.612-31.11,3.496"/>
	<path opacity="0.43" fill="none" stroke="#FFFFFF" d="M167.025,181.61c0,0-8.273-5.359-15.964-5.709
		c-7.689-0.35-14.215,1.747-12.001,1.281"/>
	<polyline fill="#6D6E71" points="166.915,184.814 168.171,183.621 174.766,187.954 174.64,190.277 	"/>
	<polyline fill="#6D6E71" points="170.118,179.915 169.302,182.427 175.394,187.011 177.215,183.683 	"/>
	<path fill="#A97C50" stroke="#8B5E3C" stroke-width="2" d="M245.325,190.931l-6.292-4.311c0,0-17.71-6.875-22.546-8.39
		s-22.022-2.098-22.022-2.098h-8.389c0,0-3.321,0.466-5.594-0.699c-2.271-1.165-9.03-2.446-9.03-2.446s-0.814,5.593,1.807,7.689
		c2.621,2.098,5.885,4.778,8.972,5.826c3.088,1.049,5.419,1.049,8.448,0.292c4.077-0.292,13.516,2.737,15.146,4.369
		c1.632,1.631,14.507,16.254,14.507,16.254s3.903,4.603,7.865,4.021c3.962-0.583,14.332-7.516,14.332-7.166"/>
	<path opacity="0.45" fill="#FFFFFF" d="M177.654,188.896c0,0,1.57-0.063,2.951-0.252c1.382-0.188,1.508,2.136,1.57,2.575
		s-1.444,2.135-1.695,1.507c-0.252-0.628-1.382-1.192-2.512-1.569C176.838,190.78,177.654,188.896,177.654,188.896z"/>
	<path opacity="0.34" fill="#FFFFFF" d="M184.688,192.224c1.444,0.377,2.072-0.88,3.517-0.439c1.444,0.439,4.835,3.956,5.589,5.526
		s2.574,8.227,1.759,8.792c-0.816,0.565-6.845-3.58-8.604-3.643s-1.821-2.323-0.565-3.14s-2.764-2.764-2.952-4.082
		C183.243,193.919,183.244,191.847,184.688,192.224z"/>
	<path fill="#C49A6C" stroke="#C49A6C" d="M179.609,195.942c0.611,0.116,2.271,4.748,1.048,5.01
		c-1.223,0.263-8.185,1.107-8.506-2.68C171.831,194.485,178.997,195.826,179.609,195.942z"/>
	<path fill="#C49A6C" stroke="#C49A6C" d="M188.115,205.729c0,0,1.835,6.496,0.815,6.759c-1.02,0.262-7.574,0.523-8.972-3.146
		C178.561,205.671,188.115,205.729,188.115,205.729z"/>
	<path fill="#C49A6C" stroke="#C49A6C" d="M198.835,214.119c0.961,0.116,0.758,5.359-0.233,5.359c-0.99,0-8.419,0.758-7.457-2.33
		C192.105,214.06,197.873,214.002,198.835,214.119z"/>
	<path fill="#C49A6C" stroke="#C49A6C" d="M207.341,218.546c0,0,1.049,4.194,0.466,4.312c-0.583,0.116-6.496,1.077-6.554-1.544
		C201.194,218.692,207.341,218.546,207.341,218.546z"/>
	<path fill="#C49A6C" stroke="#C49A6C" d="M247.889,295.333c-0.233-0.699,0.35-2.913,1.398-2.913s9.321,0.466,8.506,2.796
		S248.122,296.032,247.889,295.333z"/>
	
		<ellipse transform="matrix(0.8277 -0.5611 0.5611 0.8277 -85.6297 81.9241)" stroke="#000000" cx="90.612" cy="180.424" rx="1.297" ry="1.049"/>
	<line fill="none" stroke="#000000" stroke-width="2" x1="78.704" y1="180.095" x2="94.317" y2="180.445"/>
	
		<rect x="47.516" y="132.826" fill="none" stroke="#FFFFFF" stroke-width="10" stroke-miterlimit="10" width="276.835" height="190.849"/>
</g>
<g id="Layer_9">
	<g>
		<path fill="none" stroke="#000000" stroke-width="3" stroke-miterlimit="10" d="M190.711,85.81v44.98c0,6.62-5.37,12-12,12h-19.67
			l-41.58,16.69l13.92-16.28l0,0l-6-0.41c-6.63,0-12-5.38-12-12V85.81c0-6.63,5.37-12,12-12h53.33
			C185.341,73.81,190.711,79.18,190.711,85.81z"/>
	</g>
	
		<line fill="none" stroke="#000000" stroke-width="2.5" stroke-miterlimit="10" x1="129.421" y1="108.229" x2="174.671" y2="108.229"/>
</g>
<g id="left_side">
	<line fill="none" stroke="#000000" stroke-width="3" stroke-miterlimit="10" x1="366.388" y1="49.719" x2="366.388" y2="556.719"/>
</g>
<g id="Figure_x2F_text">
	<path opacity="0.7" fill="#C49A6C" stroke="#C49A6C" stroke-width="2" stroke-miterlimit="10" d="M556.344,545.717h185.419
		c-4.355-55.816-21.782-71.609-19.06-86.856c2.724-15.249,8.171-83.317,14.976-83.861c6.804-0.543,13.478,38.392,23.688,63.714
		c2.451,8.168-9.799,32.126-3.267,53.91c6.53,21.783,8.984,52.276,8.984,52.276h26.955c0,0,9.261-36.488,10.619-56.906
		c1.358-20.42-4.082-25.321-4.9-36.212c-0.819-10.892,1.907-13.612,3.268-45.742c1.358-32.131-5.176-62.624-8.714-84.95
		c0.271-38.665-11.161-64.256-44.653-63.984c-31.856-5.718-36.209-0.815-48.735-5.174c-12.528-4.358-22.868-38.116-17.427-45.197
		c5.442-7.082,20.151-27.226,23.96-40.024c3.809-12.799-0.541-40.567-5.719-48.465c-5.177-7.899-16.06-25.864-35.669-27.228
		c-19.606-1.364-57.717-0.814-68.067,7.08c-10.35,7.893-18.511,13.888-17.97,22.053c0.541,8.166,3.267,10.619,3.267,10.619
		s-5.99,25.322-4.083,32.673c1.905,7.352-13.07,19.059-12.253,22.054s7.623,3.268,9.802,4.901c2.18,1.633-3.269,8.576-2.858,9.189
		c0.407,0.612,3.675,2.246,3.675,2.246s-3.472,4.697-2.45,5.718s4.288,2.45,4.085,4.084c-0.205,1.634-6.535,15.249,1.634,16.064
		c8.167,0.816,30.493-1.634,31.855,2.722c1.361,4.356-1.089,14.975-9.257,21.783c-8.17,6.807-19.061-2.995-56.634,4.628
		c-30.494,1.089-49.011,43.563-49.011,64.257c-0.001,20.693-10.892,34.852-1.905,109.455c2.449,13.614-4.9,31.04-4.9,31.04
		s-8.983,25.048-7.896,47.103c1.087,22.056,2.176,37.03,2.176,37.03h35.125c0,0,12.254-29.679,10.619-50.1
		c-1.636-20.418-4.899-40.024-0.817-51.188c11.162-24.775,17.7-69.432,22.871-70.246c5.172-0.817,1.903,31.855,15.521,80.865
		C571.859,470.297,553.89,506.783,556.344,545.717z"/>
	<g>
		<path fill="#EF4136" stroke="#000000" stroke-width="2" stroke-miterlimit="10" d="M642.462,432.995
			c-0.205,0.816,2.246,47.376-1.634,56.974c-2.656,1.838-8.373,5.31-8.373,5.31l1.021,3.472c0,0,6.398-5.31,7.352-5.31
			c0.952,0,1.224,49.01,1.224,49.01h11.641c0,0-1.293-61.809-1.021-62.896s8.782,4.086,8.782,4.086l0.815-4.086
			c0,0-8.1-3.267-9.598-4.287c-1.497-1.021-0.612-42.679-0.612-42.679S642.665,432.177,642.462,432.995z"/>
		<path fill="#00AEEF" stroke="#000000" stroke-width="2" stroke-miterlimit="10" d="M645.729,426.46c0,0,0.204,46.625-0.816,48.736
			c-1.021,2.11-15.247,13.614-15.247,13.614l1.089,3.266c0,0,13.068-10.004,14.431-10.345c1.36-0.341,0.272,61.534,0.272,61.534
			h11.163c0,0-3.2-69.295-2.451-69.976c0.749-0.679,9.258,4.902,9.258,4.902l2.45-3.269c0,0-10.347-4.016-11.164-6.126
			c-0.815-2.109-1.361-42.338-1.361-42.338"/>
		<path fill="#A97C50" stroke="#6A3E14" stroke-width="2" stroke-miterlimit="10" d="M669.212,470.364c0,0-10.415,8.102-11.3,13.275
			c-0.884,5.172,1.702,58.811,1.702,58.811l4.901,0.204c0,0-4.765-37.914-2.313-52.004c2.313-5.922,10.073-9.054,10.073-9.054
			L669.212,470.364z"/>
		<path fill="#A97C50" stroke="#6A3E14" stroke-width="2" stroke-miterlimit="10" d="M625.92,498.75c0,0,7.829,2.587,8.237,9.938
			c0.975,17.549-0.478,33.354-0.478,33.354h4.289c0,0-0.136-46.151-1.973-48.875c-1.839-2.722-10.688-4.832-10.688-4.832
			L625.92,498.75z"/>
		<path fill="#C2B59B" d="M628.166,490.377c0,0,5.004,0.613,7.045,3.472c2.043,2.858,1.839,29.609,1.839,32.061
			c0,2.45-1.156,2.96-1.259,1.837s0.952-13.478-0.92-24.402c-0.808-4.717-4.355-4.697-6.091-5.82
			C627.044,496.401,628.166,490.377,628.166,490.377z"/>
		<path fill="#C2B59B" d="M668.497,472.712c0.205-1.633-8.678,6.025-9.903,10.927c-1.226,4.9,1.123,47.682,1.43,50.745
			s1.021,0.305,0.919-1.736c-0.103-2.042-2.246-41.454,0.204-44.619s8.065-6.841,8.065-6.841
			C668.804,480.473,668.294,474.347,668.497,472.712z"/>
		<path fill="#F27A91" stroke="#000000" stroke-width="3" stroke-miterlimit="10" d="M627.35,489.356c0,0,1.226,6.33-0.408,13.07
			c9.189,6.126,7.148,21.237-7.351,24.3c-14.499,3.063-16.338-17.767-16.95-21.034c-0.611-3.266-1.17-21.136,2.042-29.405
			c3.211-8.269,15.315-25.229,29.539-11.237S627.35,489.356,627.35,489.356z"/>
		<path fill="#F27A91" stroke="#000000" stroke-width="3" stroke-miterlimit="10" d="M669.009,471.386
			c-0.409,4.288-1.43,6.942,1.429,12.864c-2.654,1.838-13.409,16.745-0.748,23.893s26.886,1.838,25.253-31.447
			c-1.634-33.286-19.399-33.898-29.405-31.04C655.53,448.515,655.938,471.386,669.009,471.386z"/>
		<path opacity="0.44" fill="#ED1C24" d="M634.975,477.783c1.078,4.913-4.858,9.02-8.715,10.213
			c0.274,5.854,0.274,10.891-2.177,14.021c3.676,3.676,8.304,6.399,5.31,8.441c-2.995,2.043-10.892-2.725-11.98-8.849
			c-1.089-6.126-1.769-15.112,2.723-21.919C624.627,472.883,633.749,472.203,634.975,477.783z"/>
		<path opacity="0.44" fill="#ED1C24" d="M662.474,463.49c2.178,6.263,4.221,5.854,8.305,6.398c-1.09,4.9,0.816,13.479,1.226,14.84
			c-1.771,1.36-4.901,5.582-3.676,8.304c1.224,2.724,7.216,1.498,10.483-5.036c3.266-6.535,3.404-16.473-0.273-23.28
			C674.862,457.908,660.295,457.227,662.474,463.49z"/>
		<path opacity="0.75" fill="#D7E1F2" d="M647.261,425.665c0,0-0.24,46.485-0.512,49.143c-0.271,2.653-6.262,6.532-6.533,6.738
			c-0.272,0.205-0.41,2.244,0.612,1.43c1.021-0.817,6.33-4.903,6.33-2.451c0,2.451,0.34,61.806,0.34,61.806h7.351
			c0,0-2.178-68.342-1.973-69.974c0.204-1.634,6.67,3.061,7.01,2.041c0.342-1.021-6.193-3.745-6.466-5.786
			c-0.271-2.042-1.77-42.844-1.77-42.844L647.261,425.665z"/>
	</g>
	<g>
		
			<line fill="#C1272D" stroke="#C1272D" stroke-width="3" stroke-miterlimit="10" x1="776.037" y1="449.173" x2="705.65" y2="474.84"/>
		<circle fill="#C1272D" stroke="#C1272D" stroke-width="2" stroke-miterlimit="10" cx="702.832" cy="475.219" r="4.289"/>
	</g>
	<g>
		<polyline fill="#00AEEF" stroke="#000000" stroke-width="2" stroke-miterlimit="10" points="627.407,379.628 629.313,360.841 
			637.209,373.367 633.941,380.718 		"/>
		<path opacity="0.66" fill="#D1D3D4" d="M673.966,306.659c0,0-15.385,4.355-17.835,14.976c-2.449,10.618,3.405,13.749,3.677,10.891
			c0.272-2.859,0.953-16.337,17.018-20.965"/>
		<path fill="#00AEEF" stroke="#414042" stroke-width="2" stroke-miterlimit="10" d="M618.421,330.347
			c5.854-1.226,18.379-0.41,23.008,4.355c4.631,4.766,22.193-14.701,15.249-17.289c-6.943-2.587-33.219,2.723-38.528,5.854"/>
		<path fill="#00AEEF" stroke="#414042" stroke-width="2" stroke-miterlimit="10" d="M625.773,315.371l0.273,26.685l7.622-3.813
			c0,0-1.635-7.352-1.635-8.167c0-0.816,5.72,3.268,5.72,3.268l3.336-5.514c0,0-8.373-0.611-8.782-2.791
			c-0.407-2.178-0.273-11.572-0.273-11.572"/>
		<path fill="#BE1E2D" stroke="#BE1E2D" stroke-width="3" stroke-miterlimit="10" d="M614.883,347.092
			c0.987-1.295,3.947-4.087,8.576-1.635c4.629,2.451,2.586-4.9,0.408-6.67c-2.179-1.77-7.759-1.089-10.073,0.816"/>
		<polyline opacity="0.75" fill="#D1D3D4" points="628.837,381.433 629.892,370.03 632.614,373.571 630.844,381.875 		"/>
		<path opacity="0.72" fill="#F27A91" stroke="#000000" stroke-width="3" stroke-miterlimit="10" d="M621.962,342.055
			c-0.817,5.989,1.361,11.708,7.078,23.416c5.719,11.707,26.683,28.042,46.832,27.228c20.147-0.817,19.874-3.541,18.241-11.98
			c-1.633-8.441,1.634-18.245-3.539-30.496c-5.173-12.252-17.424-21.236-23.415-25.321
			C661.169,320.818,622.778,336.065,621.962,342.055z"/>
		<path fill="#F27A91" stroke="#000000" stroke-width="5" stroke-miterlimit="10" d="M621.962,342.055
			c-0.817,5.989,1.361,11.708,7.078,23.416c5.719,11.707,26.683,28.042,46.832,27.228c20.147-0.817,19.874-3.541,18.241-11.98
			c-1.633-8.441,1.634-18.245-3.539-30.496c-5.173-12.252-17.424-21.236-23.415-25.321
			C661.169,320.818,622.778,336.065,621.962,342.055z"/>
		<path fill="#00AEEF" stroke="#000000" stroke-width="2" stroke-miterlimit="10" d="M672.74,306.386
			c-3.948-0.409-17.425,4.221-18.922,20.694c-0.387,4.158,8.462,13.001,8.576,11.572c0.271-3.405-0.546-23.009,14.567-23.826
			L672.74,306.386z"/>
		<path opacity="0.75" fill="#D1D3D4" d="M656.404,322.722c0.66-9.639,13.229-15.941,15.315-15.11l2.273,4.53
			c-2.371-0.058-12.289,1.631-14.169,10.281L656.404,322.722z"/>
		<path fill="#F27A91" stroke="#000000" stroke-width="2" stroke-miterlimit="10" d="M651.913,301.757
			c-0.937-0.232-1.849-0.375-2.73-0.429l-0.675-8.419l-4.22,1.226l0.699,7.693c-0.876,0.281-1.699,0.678-2.468,1.184l-4.357-6.427
			l-3.131,2.314l4.388,7.207c-1.294,1.904-2.24,4.363-2.754,7.36c-1.634,9.528,5.989,21.51,10.891,23.96
			c2.178,1.089,5.854-10.619,5.854-10.619s-6.943-10.345-4.493-13.885c2.451-3.54,7.41,3.712,7.41,3.712s1.621-3.653,5.57-6.649
			C661.896,309.984,659.537,303.664,651.913,301.757z"/>
		<path fill="#B5804B" d="M665.39,325.173c1.77-0.68,13.886,7.762,12.524,10.348s-10.212,10.347-12.253,11.436
			C660.761,348.726,663.62,325.856,665.39,325.173z"/>
		<path opacity="0.89" fill="#D1D3D4" d="M627.203,312.921c0,0-0.354,18.518,0.204,18.99c0.558,0.475,3.436-2.621,3.543-4.202
			c0.109-1.581-0.276-16.218-0.276-16.218"/>
		<path fill="#D069A9" d="M636.528,299.307l4.151,6.943c-7.146,13.308,2.962,25.661,4.902,27.704
			c2.349,3.165,5.411-3.37,3.846-5.889c-2.417-5.241-5.174-8.236-5.582-11.742c-0.407-3.506,0.919-6.807,2.757-8.576
			c1.838-1.77-4.254-3.574-4.254-3.574c-1.669-2.279-4.322-6.092-4.322-6.092L636.528,299.307z"/>
		<path fill="#8967AC" stroke="#000000" stroke-miterlimit="10" d="M651.554,333c1.347-1.327,1.531-11.911,4.697-6.397
			c3.166,5.513,0.664,11.162,4.748,11.877"/>
		<path opacity="0.63" fill="#8967AC" d="M680.501,348.249c-0.136-5.309,8.906,0.723,10.073,10.888
			c1.166,10.167,0.05,13.708,0.765,18.449c1.183,7.874,1.996,8.12-1.066,10.773c-3.063,2.656-11.201-1.514-13.243-9.274
			C674.986,371.325,680.637,353.557,680.501,348.249z"/>
		<path fill="none" stroke="#000000" stroke-miterlimit="10" d="M672.605,345.322c1.089-0.952,4.901-0.137,5.581,0.545
			c0.68,0.681,0.682,5.444,0.137,6.126s-5.854,0.408-6.263,0.137C671.651,351.857,671.516,346.276,672.605,345.322z"/>
		<path fill="none" stroke="#000000" stroke-miterlimit="10" d="M676.689,352.537c0.817,1.09,0.953,6.808,1.089,8.851
			c0.137,2.042-2.995,5.447-1.226,7.624c1.771,2.178,6.671,6.125,8.031,7.486c1.363,1.361,0.682,6.671,0.682,6.671"/>
		<path fill="none" stroke="#000000" stroke-miterlimit="10" d="M677.166,369.828c-1.18,1.064,0.886,3.947,0.886,5.512
			c0,1.567-2.315,2.248-3.268,2.52"/>
		<path fill="none" stroke="#000000" stroke-miterlimit="10" d="M677.928,376.214c1.011,1.058-0.226,3.505-0.226,3.505"/>
		<path fill="none" stroke="#000000" stroke-miterlimit="10" d="M678.73,351.38c2.654,1.156,5.923,5.174,6.194,8.235"/>
		<path fill="none" stroke="#000000" stroke-miterlimit="10" d="M681.591,353.423c1.293,2.721,0.611,3.88-0.546,5.444"/>
		<path fill="none" stroke="#000000" stroke-miterlimit="10" d="M672.503,345.221c-1.293-0.546,0.442-2.895,0.34-5.957
			c-0.103-3.063-8.882-9.292-6.738-7.453"/>
		<path fill="none" stroke="#000000" stroke-miterlimit="10" d="M639.251,343.247c-1.769-1.191,5.174,2.211,2.041,8.677
			c-2.859,5.905-1.327,11.539,4.596,14.194"/>
		<path fill="none" stroke="#000000" stroke-miterlimit="10" d="M641.701,350.904c-1.769,5.718,4.425,4.083,7.862,7.453"/>
		<path fill="none" stroke="#000000" stroke-miterlimit="10" d="M628.427,354.169c0,0,3.269,8.477,5.107,10.825
			c1.836,2.349,7.146,4.084,9.188,5.718c2.042,1.634,2.96,5.104,5.819,6.636c2.858,1.531,5.719-2.552,9.088,0.103
			s2.212,10.455,6.807,12.189c4.595,1.736,8.141,2.305,11.715,1.794"/>
		<path fill="none" stroke="#000000" stroke-miterlimit="10" d="M641.679,370.197c-0.205,4.236,1.354,7.119,5.943,9.701"/>
		<path fill="none" stroke="#000000" stroke-miterlimit="10" d="M657.834,377.451c2.858-0.612,4.492,5.003,7.351,5.616
			c2.859,0.612,3.574-4.901,3.574-4.901"/>
		<path fill="#B5804B" d="M622.915,341.305c-1.361,2.724,0,13.069,4.22,15.452c7.079-9.529,14.568-16.336,18.379-16.336
			s-4.013-8.349-4.923-9.352C639.452,329.839,624.275,338.582,622.915,341.305z"/>
	</g>
	<g>
		
			<line fill="#C1272D" stroke="#C1272D" stroke-width="3" stroke-miterlimit="10" x1="801.334" y1="287.939" x2="699.857" y2="337.823"/>
		<circle fill="#C1272D" stroke="#C1272D" stroke-width="2" stroke-miterlimit="10" cx="697.127" cy="338.621" r="4.289"/>
	</g>
	<g>
		<path opacity="0.69" fill="#FBB040" stroke="#754C29" stroke-miterlimit="10" d="M643.608,163.986c0,0-2.009,10.789,11.57,16.201
			c-0.715,10.21,6.943,19.536,8.883,20.387c1.94,0.851,5.004-5.412,5.004-5.412s-7.964-7.521-9.258-13.75
			c0.477-1.633,8.305,0.035,8.271,2.519s1.362,14.226,2.349,15.043s6.093,1.701,5.173-0.272c-0.919-1.974-4.016-18.276-3.131-19.876
			c0.885-1.6-22.6-19.06-22.6-19.06L643.608,163.986z"/>
		<path fill="#6A3C00" stroke="#754D24" stroke-width="2" stroke-miterlimit="10" d="M654.907,160.923
			c-2.043-0.681-6.74,0.543-6.943,2.314c-0.204,1.77,4.151,12.933,22.122,16.881c17.97,3.947,20.013-19.876,20.013-19.876"/>
		<path opacity="0.8" fill="#FEC77C" stroke="#754D24" stroke-miterlimit="10" d="M654.434,161.557c0,0,3.72-3.234,7.439-2.912
			c3.722,0.323,7.765,2.588,24.103,1.617c0,0,0.971,15.043-14.234,15.367S654.434,161.557,654.434,161.557z"/>
		<path fill="#C59B6C" stroke="#754D24" stroke-miterlimit="10" d="M671.822,160.48c-16.411-4.046-14.143,2.13-13.956,2.588
			c2.192,5.4,17.938,15.178,24.16-1.103"/>
		<path fill="#754D24" stroke="#754D24" stroke-miterlimit="10" d="M676.917,161.719c2.103,0.485,5.824,0.485,5.824,0.485
			c-2.649,5.934-7.091,7.981-8.171,8.149c-1.081,0.167,3.562-3.779,2.937-8.341"/>
		<path fill="#FBB03B" stroke="#754C29" stroke-miterlimit="10" d="M625.773,155.545c1.771-0.272,3.266,8.441,11.367,9.938
			c8.102,1.497,10.277-3.676,10.277-3.676c4.222,2.314,12.934-0.884,14.023-2.995c14.294,5.037,27.636,2.586,33.967,0.136
			c6.329-2.45,2.654-11.435,2.654-11.435s3.947-16.337-0.817-19.196c-1.226-3.54-0.952-7.76-7.555-9.394
			c-0.75-4.356-5.649-10.347-11.027-10.006c0,0-3.472-4.289-9.189-3.472c-3.948-5.582-14.907-3.472-14.907-3.472
			s-3.88-4.288-9.598-1.021c-4.22-4.357-13.068-1.77-15.314,1.225c-4.153-1.225-14.227-0.272-15.929,3.676
			c-12.05,2.042-13.818,5.99-14.703,10.618c0,0-4.697,3.675-2.656,7.556c-3.266,2.519-4.627,5.922-3.402,10.619
			c-0.544,5.786-0.544,7.964,5.446,14.159C600.859,160.039,624.004,155.818,625.773,155.545z"/>
	</g>
	<g>
		<path fill="none" stroke="#FFFFFF" stroke-miterlimit="10" d="M603.037,143.293c0,0,2.043-4.084,2.316-6.535
			c0.271-2.45-2.995-5.037-4.494-7.76c-1.497-2.723-4.355,6.126-2.178,7.352s2.178,4.357,2.178,4.357"/>
		<path fill="none" stroke="#FFFFFF" stroke-miterlimit="10" d="M610.663,132.402c0,0-1.634-5.445-4.085-6.807
			c-2.451-1.361,1.497-3.404,3.402-3.131c1.907,0.272,7.762,5.991,4.903,6.399c-2.861,0.408-2.452,2.177-2.452,2.177"/>
		<path fill="none" stroke="#FFFFFF" stroke-miterlimit="10" d="M611.478,147.921c0,0,4.221-4.356,8.17-3.131"/>
		<path fill="none" stroke="#FFFFFF" stroke-miterlimit="10" d="M621.554,138.12c3.811-6.262-0.816-9.394,1.633-9.666
			c2.45-0.271,7.487,6.127,6.67,7.488c-0.816,1.36-3.402,2.178-3.402,2.178"/>
		<path fill="none" stroke="#FFFFFF" stroke-miterlimit="10" d="M612.568,117.155c0,0,5.718,1.497,6.807,5.445
			c1.09,3.948,0.68-8.032,5.037-7.352c4.355,0.681,12.66,7.624,12.797,10.755c0.135,3.131-4.085,6.806-4.901,3.267
			c-0.817-3.54-3.948-4.356-4.492-4.492"/>
		<path fill="none" stroke="#FFFFFF" stroke-miterlimit="10" d="M619.647,113.615c0,0,2.723,0.135,5.174-3.131
			c2.449-3.268,6.262,2.995,8.985,4.629c2.722,1.634-0.817-6.671-2.044-8.985c-1.224-2.314,3.813-2.45,5.037-2.587
			c1.227-0.136,3.541,3.948,5.175,4.901s1.361-5.854,1.361-5.854"/>
		<path fill="none" stroke="#FFFFFF" stroke-miterlimit="10" d="M635.848,117.699c3.13-0.817,4.629,8.44,5.854,8.849
			c1.225,0.408,0-15.928,0.545-8.985c0.545,6.942,3.948,6.942,3.948,6.942"/>
		<path fill="none" stroke="#FFFFFF" stroke-miterlimit="10" d="M648.918,132.129c0,0,6.125-2.995,4.627-4.628
			c-1.497-1.634,0.545-2.859,4.766-1.77c4.22,1.089,10.755-1.225,8.032-3.403c-2.723-2.179-2.995-5.582-0.817-7.624
			c2.179-2.042,6.126-2.995,6.264-2.586"/>
		<path fill="none" stroke="#FFFFFF" stroke-miterlimit="10" d="M672.605,118.924c0,0,1.36-3.812,3.947-3.676
			c2.587,0.136-0.136,6.535,1.634,9.666c1.77,3.132-1.77,5.446-5.038,5.99c-3.267,0.545-5.99-0.408-8.167,2.86
			c-2.178,3.267-1.226,4.9-5.718,5.037c-4.492,0.136-3.947,5.173-0.953,4.493s9.529-2.587,11.299-5.037
			c1.771-2.451,3.677-4.084,5.991-3.54s5.037,7.215,6.127,7.487c1.088,0.273,6.533-0.271,2.994,4.357
			c-3.54,4.628,2.178,8.985,2.178,8.985"/>
		<path fill="none" stroke="#FFFFFF" stroke-miterlimit="10" d="M637.754,148.059c0,0-0.273,4.22,5.037,5.173
			c5.31,0.953,1.769,6.398,1.769,6.398"/>
	</g>
	<g>
		<path fill="none" stroke="#ED1C24" stroke-width="2" stroke-miterlimit="10" d="M622.099,153.776c0,0,3.675-2.995,6.261-7.215
			c2.587-4.22,17.153-12.253,20.148-11.844c2.995,0.409,8.441-6.125,12.525-6.943c4.084-0.817,7.352,1.634,9.257,0.68
			c1.905-0.953,4.766-7.079,7.353-8.168c2.585-1.089,6.941,3.131,6.941,3.131"/>
		<path fill="none" stroke="#ED1C24" stroke-miterlimit="10" d="M670.29,128.454c0,0,3.642-1.421,5.31-0.953
			s4.628,5.173,4.628,5.173"/>
		<path fill="none" stroke="#ED1C24" stroke-miterlimit="10" d="M679.627,120.192c2.949-2.704,6.555-0.573,6.555-0.573"/>
		<path fill="none" stroke="#ED1C24" stroke-miterlimit="10" d="M656.303,130.156c1.021-5.616,3.164-5.922,7.861-7.862
			c4.696-1.94,1.327-6.637,5.82-8.475"/>
		<path fill="none" stroke="#ED1C24" stroke-miterlimit="10" d="M622.233,110.075c0,0,4.63,5.173,9.529,6.807
			c4.902,1.633,7.624,3.948,8.033,9.802c0.41,5.854,2.313,9.803,2.313,9.803"/>
		<path fill="none" stroke="#ED1C24" stroke-miterlimit="10" d="M638.094,120.898c3.063-3.812-1.429-8.508-1.429-8.508"/>
		<path fill="none" stroke="#ED1C24" stroke-miterlimit="10" d="M636.46,139.957c0,0,2.245-4.695-3.336-7.146
			c-5.58-2.45-5.443-6.262-8.44-6.807c-2.995-0.545-6.126,1.633-8.438-2.451c-2.316-4.084-7.489-2.587-7.489-2.587"/>
		<path fill="none" stroke="#ED1C24" stroke-miterlimit="10" d="M614.95,121.987c1.566-7.487-7.487-7.76-7.487-7.76"/>
		<path fill="none" stroke="#ED1C24" stroke-miterlimit="10" d="M612.397,145.267c0,0,5.106-0.919,6.33,1.225
			c1.226,2.145,5.003,2.247,7.148,3.268c2.144,1.021,3.778-2.451,5.207-0.613c1.43,1.838-0.919,4.595,0.612,7.25
			c1.531,2.655,7.862,6.126,7.862,6.126"/>
		<path fill="none" stroke="#ED1C24" stroke-miterlimit="10" d="M622.813,148.739c1.326-1.94-0.205-6.739-4.086-9.088
			c-3.88-2.349-5.104-1.531-8.984-2.96c-3.88-1.429-5.004-7.862-5.004-7.862"/>
		<path fill="none" stroke="#ED1C24" stroke-miterlimit="10" d="M634.86,140.979c2.246,1.735,3.778-1.736,7.965,1.735
			c4.186,3.472,9.29,1.43,9.29,1.43"/>
		<path fill="none" stroke="#ED1C24" stroke-miterlimit="10" d="M639.558,141.081c-0.512,2.348,1.837,1.532,3.573,6.331
			c1.736,4.798,5.411,3.267,7.76,6.229c2.349,2.961,7.045,0.817,7.045,0.817"/>
		<path fill="none" stroke="#ED1C24" stroke-miterlimit="10" d="M631.287,149.555c2.042,0.307,0.918,3.268,3.676,4.595
			c2.756,1.328,5.207-1.123,5.207-1.123"/>
		<path fill="none" stroke="#ED1C24" stroke-miterlimit="10" d="M640.477,137.779c3.607,0.885,8.237-1.633,10.891-1.429
			c2.653,0.205,3.404,3.744,5.174,4.493s4.426,0.068,7.487,1.225c3.063,1.157,6.194,6.194,6.126,8.713
			c-0.068,2.519,2.723,5.445,2.723,5.445"/>
		<path fill="none" stroke="#ED1C24" stroke-miterlimit="10" d="M670.019,149.418c6.875-0.476,10.891,4.766,10.891,4.766"/>
		<path fill="none" stroke="#ED1C24" stroke-miterlimit="10" d="M654.907,131.313c2.313-0.952,4.084-0.544,8.303,0.545
			c4.221,1.089,5.72,3.404,8.033,4.357c2.314,0.952,5.719,0.272,6.943,3.811c1.225,3.54,2.587,3.677,7.487,6.399
			c4.902,2.722,2.451-3.813,8.986-0.682"/>
		<path fill="none" stroke="#ED1C24" stroke-miterlimit="10" d="M684.722,145.743c0,0,0.407,4.493,5.58,6.399"/>
		<path fill="none" stroke="#ED1C24" stroke-miterlimit="10" d="M645.785,135.159c1.226-5.514,4.595-5.718,5.208-10.21
			c0.612-4.493,0.919-10.415,0.204-11.947c-0.716-1.531,1.634-3.471-0.307-5.105c-1.939-1.633-6.637-3.88-6.637-3.88"/>
		<path fill="none" stroke="#ED1C24" stroke-miterlimit="10" d="M651.708,114.942c1.123-3.778,3.676-10.721,7.146-9.496"/>
		<path fill="none" stroke="#ED1C24" stroke-miterlimit="10" d="M651.299,123.11c0,0,3.37-0.51,5.821-2.246
			c2.449-1.736,3.572-3.778,3.879-7.147"/>
	</g>
	<g>
		
			<line fill="#C1272D" stroke="#C1272D" stroke-width="3" stroke-miterlimit="10" x1="753.646" y1="142.808" x2="708.731" y2="133.053"/>
		
			<ellipse transform="matrix(-0.9715 0.2369 -0.2369 -0.9715 1424.7585 94.3569)" fill="#C1272D" stroke="#C1272D" stroke-width="2" stroke-miterlimit="10" cx="706.711" cy="132.761" rx="3.055" ry="3.201"/>
	</g>
	<path fill="#F7941E" stroke="#4D4D4E" stroke-miterlimit="10" d="M599.318,159.229c-0.89-2.909-10.511-12.917-17.752-1.243
		c0,0-7.466,4.327-0.021,10.022c7.268,11.85,16.593,1.266,16.593,1.266"/>
	<path fill="#00AEEF" stroke="#4D4D4E" stroke-miterlimit="10" d="M581.803,157.777c-4.382,0.112-7.168,6.668-0.403,9.987"/>
	<path opacity="0.8" fill="#6FCCDD" d="M581.452,166.484c5.733-0.148,4.324-7.909,0.303-7.844"/>
	<path opacity="0.57" fill="#FBB040" d="M592.707,157.766c1.039,6.697-3.635,11.209-3.796,11.401
		c-2.923,3.497,3.154,2.954,5.357,1.592c2.325-1.438,3.63-1.44,4.397-7.095c0.767-5.656-8.784-14.628-5.996-6.111"/>
	<text transform="matrix(1 0 0 1 391.0703 122.2603)"><tspan x="0" y="0" fill="#C1272D" stroke="#C1272D" stroke-width="2" stroke-miterlimit="10" font-family="'MyriadPro-Regular'" font-size="30">Pérdida de</tspan><tspan x="0" y="34" fill="#C1272D" stroke="#C1272D" stroke-width="2" stroke-miterlimit="10" font-family="'MyriadPro-Regular'" font-size="30">la visión</tspan></text>
	<text transform="matrix(1 0 0 1 391.0703 454.1694)"><tspan x="0" y="0" fill="#C1272D" stroke="#C1272D" stroke-width="2" stroke-miterlimit="10" font-family="'MyriadPro-Regular'" font-size="30">Daño a los vasos </tspan><tspan x="0" y="34" fill="#C1272D" stroke="#C1272D" stroke-width="2" stroke-miterlimit="10" font-family="'MyriadPro-Regular'" font-size="30">sanguíneos</tspan></text>
	<text transform="matrix(1.0348 0 0 1 391.8936 185.5981)"><tspan x="0" y="0" fill="#C1272D" font-family="'MyriadPro-It'" font-size="22.3124">Retinopatía</tspan><tspan x="0" y="26.775" fill="#C1272D" font-family="'MyriadPro-It'" font-size="22.3124">hipertensiva</tspan></text>
	<text transform="matrix(1.0348 0 0 1 391.0703 515.6519)" fill="#C1272D" font-family="'MyriadPro-It'" font-size="22.3124">Aterosclerosis</text>
	<text transform="matrix(1 0 0 1 782.2188 458.6362)"><tspan x="0" y="0" fill="#C1272D" stroke="#C1272D" stroke-width="2" stroke-miterlimit="10" font-family="'MyriadPro-Regular'" font-size="30">Fallo de los</tspan><tspan x="23.145" y="34" fill="#C1272D" stroke="#C1272D" stroke-width="2" stroke-miterlimit="10" font-family="'MyriadPro-Regular'" font-size="30">riñones</tspan></text>
	<text transform="matrix(1.0348 0 0 1 802.5732 520.1187)" fill="#C1272D" font-family="'MyriadPro-It'" font-size="22.3124">Fallo renal</text>
	<text transform="matrix(1 0 0 1 782.7842 239.6514)"><tspan x="0" y="0" fill="#C1272D" stroke="#C1272D" stroke-width="2" stroke-miterlimit="10" font-family="'MyriadPro-Regular'" font-size="30">Ataque del</tspan><tspan x="18.225" y="34" fill="#C1272D" stroke="#C1272D" stroke-width="2" stroke-miterlimit="10" font-family="'MyriadPro-Regular'" font-size="30">corazón</tspan></text>
	<text transform="matrix(1.0348 0 0 1 811.9297 299.9697)"><tspan x="0" y="0" fill="#C1272D" font-family="'MyriadPro-It'" font-size="22.3124">Infarto de</tspan><tspan x="-2.376" y="26.775" fill="#C1272D" font-family="'MyriadPro-It'" font-size="22.3124">miocardio</tspan></text>
	
		<text transform="matrix(1 0 0 1 720.1357 125.1055)" fill="#C1272D" stroke="#C1272D" stroke-width="2" stroke-miterlimit="10" font-family="'MyriadPro-Regular'" font-size="30">Ataque cerebral</text>
	<text transform="matrix(1.0348 0 0 1 778.2148 149.8936)"><tspan x="0" y="0" fill="#C1272D" font-family="'MyriadPro-It'" font-size="22.3124">Accidente</tspan><tspan x="-27.432" y="26.775" fill="#C1272D" font-family="'MyriadPro-It'" font-size="22.3124">cerebrovascular</tspan></text>
	<g>
		
			<line fill="#C1272D" stroke="#C1272D" stroke-width="3" stroke-miterlimit="10" x1="518.967" y1="139.587" x2="565.405" y2="153.142"/>
		<circle fill="#C1272D" stroke="#C1272D" stroke-width="2" stroke-miterlimit="10" cx="567.506" cy="153.604" r="3.244"/>
	</g>
	<path opacity="0.95" fill="#EC2127" stroke="#C1272D" stroke-miterlimit="10" d="M482.012,416.386l-26.683,1.906
		c-36.214-42.476-47.376-113.268-47.376-113.268l19.876-0.272C446.888,371.46,482.012,416.386,482.012,416.386z"/>
	<path fill="#FBB03B" stroke="#C1272D" stroke-miterlimit="10" d="M423.109,366.438c17.235-0.614,28.542,19.847,15.809,32.821"/>
	<path fill="#FBB03B" stroke="#C1272D" stroke-miterlimit="10" d="M449.992,358.578c-7.859,10.718,5.224,31.062,16.219,31.612"/>
	<g>
		
			<line fill="#C1272D" stroke="#C1272D" stroke-width="3" stroke-miterlimit="10" x1="457.099" y1="346.411" x2="515.092" y2="373.367"/>
		<circle fill="#C1272D" stroke="#C1272D" stroke-width="2" stroke-miterlimit="10" cx="517.747" cy="374.387" r="4.288"/>
	</g>
</g>
<g id="BP_text">
	
		<text transform="matrix(1 0 0 1 443.3877 38.894)" stroke="#000000" stroke-miterlimit="10" font-family="'MyriadPro-Regular'" font-size="32.4677">Riesgos de Presión Arterial Alta</text>
</g>
</svg>
