<?xml version="1.0" encoding="utf-8"?>
<!-- Generator: Adobe Illustrator 16.0.0, SVG Export Plug-In . SVG Version: 6.00 Build 0)  -->
<!DOCTYPE svg PUBLIC "-//W3C//DTD SVG 1.1//EN" "http://www.w3.org/Graphics/SVG/1.1/DTD/svg11.dtd">
<svg version="1.1" id="Layer_9" xmlns="http://www.w3.org/2000/svg" xmlns:xlink="http://www.w3.org/1999/xlink" x="0px" y="0px"
	 width="864px" height="648px" viewBox="0 0 864 648" enable-background="new 0 0 864 648" xml:space="preserve">
<g>
	<g>
		
			<image overflow="visible" opacity="0.75" width="311" height="237" xlink:href="BB69C9B5.png"  transform="matrix(0.24 0 0 0.24 426.6196 436.4995)">
		</image>
		<g>
			<path fill="#FFFFFF" d="M488.667,467.275c0,7.426-6.256,13.445-13.973,13.445h-28.721c-7.717,0-13.973-6.02-13.973-13.445
				v-11.949c0-7.426,6.256-13.445,13.973-13.445h28.721c7.717,0,13.973,6.02,13.973,13.445V467.275z"/>
			<path fill="none" stroke="#000000" stroke-width="5" stroke-miterlimit="10" d="M488.667,467.275
				c0,7.426-6.256,13.445-13.973,13.445h-28.721c-7.717,0-13.973-6.02-13.973-13.445v-11.949c0-7.426,6.256-13.445,13.973-13.445
				h28.721c7.717,0,13.973,6.02,13.973,13.445V467.275z"/>
		</g>
	</g>
</g>
</svg>
