<?xml version="1.0" encoding="utf-8"?>
<!-- Generator: Adobe Illustrator 16.0.0, SVG Export Plug-In . SVG Version: 6.00 Build 0)  -->
<!DOCTYPE svg PUBLIC "-//W3C//DTD SVG 1.1//EN" "http://www.w3.org/Graphics/SVG/1.1/DTD/svg11.dtd">
<svg version="1.1" xmlns="http://www.w3.org/2000/svg" xmlns:xlink="http://www.w3.org/1999/xlink" x="0px" y="0px" width="864px"
	 height="648px" viewBox="0 0 864 648" enable-background="new 0 0 864 648" xml:space="preserve">
<g id="ruler">
	<g id="numbers">
		<path stroke="#000000" stroke-miterlimit="10" d="M88.401,522.663h-0.024l-1.381,0.872l-0.208-0.958l1.736-1.086h0.917v9.293
			h-1.039V522.663z"/>
		<path stroke="#000000" stroke-miterlimit="10" d="M97.079,522.548h-3.031l-0.306,2.388c0.183-0.028,0.354-0.043,0.648-0.043
			c0.623,0,1.222,0.143,1.711,0.5c0.624,0.4,1.137,1.216,1.137,2.374c0,1.815-1.234,3.174-2.958,3.174
			c-0.868,0-1.589-0.286-1.98-0.572l0.269-0.958c0.33,0.229,0.978,0.516,1.711,0.516c1.002,0,1.882-0.772,1.87-2.017
			c0-1.201-0.697-2.044-2.273-2.044c-0.464,0-0.819,0.043-1.112,0.085l0.514-4.46h3.801V522.548z"/>
		<g>
			<path stroke="#000000" stroke-miterlimit="10" d="M121.651,522.663h-0.024l-1.381,0.872l-0.208-0.958l1.736-1.086h0.917v9.293
				h-1.039V522.663z"/>
			<path stroke="#000000" stroke-miterlimit="10" d="M130.121,522.376c-0.22-0.014-0.501,0.015-0.807,0.072
				c-1.699,0.314-2.579,1.744-2.762,3.288h0.024c0.379-0.601,1.051-1.087,1.931-1.087c1.405,0,2.396,1.201,2.396,3.003
				c0,1.716-0.99,3.288-2.652,3.288c-1.687,0-2.799-1.544-2.799-3.96c0-1.83,0.55-3.274,1.344-4.189
				c0.66-0.758,1.54-1.229,2.542-1.373c0.318-0.057,0.586-0.071,0.782-0.071V522.376z M129.815,527.739
				c0-1.33-0.647-2.131-1.638-2.131c-0.648,0-1.259,0.458-1.552,1.144c-0.061,0.144-0.11,0.314-0.11,0.544
				c0.012,1.529,0.623,2.673,1.76,2.673C129.192,529.968,129.815,529.068,129.815,527.739z"/>
		</g>
		<g>
			<path stroke="#000000" stroke-miterlimit="10" d="M157.163,522.663h-0.024l-1.381,0.872l-0.208-0.958l1.736-1.086h0.917v9.293
				h-1.039V522.663z"/>
			<path stroke="#000000" stroke-miterlimit="10" d="M166.257,521.491v0.829l-3.459,8.464h-1.112l3.447-8.221v-0.029h-3.887v-1.043
				H166.257z"/>
		</g>
		<g>
			<path stroke="#000000" stroke-miterlimit="10" d="M191.139,522.663h-0.024l-1.381,0.872l-0.208-0.958l1.736-1.086h0.917v9.293
				h-1.039V522.663z"/>
			<path stroke="#000000" stroke-miterlimit="10" d="M196.541,525.894c-0.892-0.486-1.271-1.287-1.271-2.088
				c0-1.473,1.063-2.473,2.469-2.473c1.54,0,2.322,1.115,2.322,2.287c0,0.786-0.342,1.645-1.32,2.173v0.043
				c0.99,0.458,1.601,1.287,1.601,2.402c0,1.63-1.186,2.702-2.701,2.702c-1.662,0-2.665-1.144-2.665-2.502
				c0-1.173,0.599-2.016,1.577-2.502L196.541,525.894z M199.254,528.368c0-1.115-0.672-1.673-1.748-2.03
				c-0.929,0.314-1.43,1.044-1.43,1.93c-0.037,0.93,0.574,1.759,1.589,1.759C198.631,530.026,199.254,529.326,199.254,528.368z
				 M196.297,523.721c-0.012,0.929,0.599,1.43,1.515,1.715c0.685-0.271,1.21-0.843,1.21-1.687c0-0.743-0.378-1.516-1.344-1.516
				C196.786,522.234,196.297,522.92,196.297,523.721z"/>
		</g>
		<g>
			<path stroke="#000000" stroke-miterlimit="10" d="M225.425,522.663H225.4l-1.381,0.872l-0.208-0.958l1.736-1.086h0.917v9.293
				h-1.039V522.663z"/>
			<path stroke="#000000" stroke-miterlimit="10" d="M229.984,529.897c0.232,0.029,0.501,0,0.868-0.043
				c0.624-0.1,1.21-0.386,1.662-0.9c0.526-0.558,0.905-1.373,1.051-2.459h-0.037c-0.44,0.629-1.076,0.986-1.882,0.986
				c-1.417,0-2.334-1.258-2.334-2.845c0-1.759,1.088-3.303,2.713-3.303s2.628,1.529,2.628,3.932c0,2.03-0.587,3.46-1.369,4.346
				c-0.611,0.701-1.454,1.13-2.31,1.244c-0.391,0.071-0.733,0.086-0.99,0.071V529.897z M230.375,524.564
				c0,1.158,0.599,1.974,1.528,1.974c0.721,0,1.283-0.415,1.564-0.973c0.061-0.129,0.098-0.257,0.098-0.472
				c0-1.587-0.501-2.803-1.638-2.803C231.023,522.291,230.375,523.235,230.375,524.564z"/>
		</g>
		<g>
			<path stroke="#000000" stroke-miterlimit="10" d="M257.7,530.784v-0.772l0.844-0.958c2.029-2.259,2.958-3.46,2.958-4.86
				c0-0.944-0.379-1.816-1.564-1.816c-0.721,0-1.32,0.43-1.687,0.787l-0.342-0.887c0.538-0.529,1.332-0.943,2.237-0.943
				c1.711,0,2.432,1.372,2.432,2.702c0,1.715-1.063,3.103-2.738,4.989l-0.624,0.687v0.028h3.557v1.044H257.7z"/>
			<path stroke="#000000" stroke-miterlimit="10" d="M269.262,526.037c0,3.16-1.015,4.904-2.762,4.904
				c-1.552,0-2.616-1.701-2.64-4.775c0-3.131,1.161-4.832,2.774-4.832C268.296,521.333,269.262,523.078,269.262,526.037z
				 M264.948,526.18c0,2.416,0.636,3.788,1.613,3.788c1.088,0,1.613-1.501,1.613-3.874c0-2.288-0.489-3.789-1.613-3.789
				C265.632,522.305,264.948,523.649,264.948,526.18z"/>
		</g>
		<g>
			<path stroke="#000000" stroke-miterlimit="10" d="M291.877,530.784v-0.772l0.844-0.958c2.029-2.259,2.958-3.46,2.958-4.86
				c0-0.944-0.379-1.816-1.564-1.816c-0.721,0-1.32,0.43-1.687,0.787l-0.342-0.887c0.538-0.529,1.332-0.943,2.237-0.943
				c1.711,0,2.432,1.372,2.432,2.702c0,1.715-1.063,3.103-2.738,4.989l-0.624,0.687v0.028h3.557v1.044H291.877z"/>
			<path stroke="#000000" stroke-miterlimit="10" d="M300.482,522.663h-0.024l-1.381,0.872l-0.208-0.958l1.736-1.086h0.917v9.293
				h-1.039V522.663z"/>
		</g>
		<g>
			<path stroke="#000000" stroke-miterlimit="10" d="M327.484,530.784v-0.772l0.844-0.958c2.029-2.259,2.958-3.46,2.958-4.86
				c0-0.944-0.379-1.816-1.564-1.816c-0.721,0-1.32,0.43-1.687,0.787l-0.342-0.887c0.538-0.529,1.332-0.943,2.237-0.943
				c1.711,0,2.432,1.372,2.432,2.702c0,1.715-1.063,3.103-2.738,4.989L329,529.711v0.028h3.557v1.044H327.484z"/>
			<path stroke="#000000" stroke-miterlimit="10" d="M333.754,530.784v-0.772l0.844-0.958c2.029-2.259,2.958-3.46,2.958-4.86
				c0-0.944-0.379-1.816-1.564-1.816c-0.721,0-1.32,0.43-1.687,0.787l-0.342-0.887c0.538-0.529,1.332-0.943,2.237-0.943
				c1.711,0,2.432,1.372,2.432,2.702c0,1.715-1.063,3.103-2.738,4.989l-0.624,0.687v0.028h3.557v1.044H333.754z"/>
		</g>
		<g>
			<path stroke="#000000" stroke-miterlimit="10" d="M362.275,530.784v-0.772l0.844-0.958c2.029-2.259,2.958-3.46,2.958-4.86
				c0-0.944-0.379-1.816-1.564-1.816c-0.721,0-1.32,0.43-1.687,0.787l-0.342-0.887c0.538-0.529,1.332-0.943,2.237-0.943
				c1.711,0,2.432,1.372,2.432,2.702c0,1.715-1.063,3.103-2.738,4.989l-0.624,0.687v0.028h3.557v1.044H362.275z"/>
			<path stroke="#000000" stroke-miterlimit="10" d="M368.802,529.354c0.306,0.215,1.002,0.572,1.76,0.572
				c1.369,0,1.809-1.016,1.796-1.802c-0.012-1.301-1.014-1.858-2.053-1.858h-0.599v-0.944h0.599c0.782,0,1.772-0.472,1.772-1.572
				c0-0.743-0.403-1.401-1.393-1.401c-0.636,0-1.247,0.329-1.589,0.615l-0.293-0.915c0.428-0.357,1.234-0.715,2.09-0.715
				c1.564,0,2.273,1.086,2.273,2.216c0,0.972-0.501,1.787-1.467,2.201v0.029c0.978,0.214,1.76,1.072,1.772,2.373
				c0,1.487-1.002,2.788-2.896,2.788c-0.893,0-1.675-0.329-2.066-0.629L368.802,529.354z"/>
		</g>
		<g>
			<path stroke="#000000" stroke-miterlimit="10" d="M396.2,530.784v-0.772l0.844-0.958c2.029-2.259,2.958-3.46,2.958-4.86
				c0-0.944-0.379-1.816-1.564-1.816c-0.721,0-1.32,0.43-1.687,0.787l-0.342-0.887c0.538-0.529,1.332-0.943,2.237-0.943
				c1.711,0,2.432,1.372,2.432,2.702c0,1.715-1.063,3.103-2.738,4.989l-0.624,0.687v0.028h3.557v1.044H396.2z"/>
			<path stroke="#000000" stroke-miterlimit="10" d="M405.794,530.784v-2.545h-3.691v-0.815l3.545-5.933h1.161v5.775h1.112v0.973
				h-1.112v2.545H405.794z M405.794,527.266v-3.103c0-0.485,0.012-0.972,0.037-1.458h-0.037c-0.245,0.543-0.44,0.943-0.66,1.373
				l-1.943,3.159v0.028H405.794z"/>
		</g>
		<g>
			<path stroke="#000000" stroke-miterlimit="10" d="M430.275,530.784v-0.772l0.844-0.958c2.029-2.259,2.958-3.46,2.958-4.86
				c0-0.944-0.379-1.816-1.564-1.816c-0.721,0-1.32,0.43-1.687,0.787l-0.342-0.887c0.538-0.529,1.332-0.943,2.237-0.943
				c1.711,0,2.433,1.372,2.433,2.702c0,1.715-1.064,3.103-2.738,4.989l-0.624,0.687v0.028h3.557v1.044H430.275z"/>
			<path stroke="#000000" stroke-miterlimit="10" d="M441.288,522.548h-3.031l-0.305,2.388c0.183-0.028,0.354-0.043,0.647-0.043
				c0.623,0,1.222,0.143,1.711,0.5c0.624,0.4,1.137,1.216,1.137,2.374c0,1.815-1.234,3.174-2.958,3.174
				c-0.867,0-1.589-0.286-1.98-0.572l0.27-0.958c0.33,0.229,0.978,0.516,1.711,0.516c1.002,0,1.883-0.772,1.87-2.017
				c0-1.201-0.696-2.044-2.273-2.044c-0.464,0-0.819,0.043-1.112,0.085l0.514-4.46h3.801V522.548z"/>
		</g>
		<g>
			<path stroke="#000000" stroke-miterlimit="10" d="M463.817,530.784v-0.772l0.844-0.958c2.028-2.259,2.957-3.46,2.957-4.86
				c0-0.944-0.379-1.816-1.564-1.816c-0.721,0-1.32,0.43-1.687,0.787l-0.343-0.887c0.538-0.529,1.332-0.943,2.237-0.943
				c1.711,0,2.433,1.372,2.433,2.702c0,1.715-1.064,3.103-2.738,4.989l-0.623,0.687v0.028h3.557v1.044H463.817z"/>
			<path stroke="#000000" stroke-miterlimit="10" d="M474.622,522.376c-0.221-0.014-0.502,0.015-0.807,0.072
				c-1.699,0.314-2.58,1.744-2.763,3.288h0.024c0.379-0.601,1.051-1.087,1.932-1.087c1.404,0,2.395,1.201,2.395,3.003
				c0,1.716-0.99,3.288-2.652,3.288c-1.686,0-2.799-1.544-2.799-3.96c0-1.83,0.551-3.274,1.345-4.189
				c0.66-0.758,1.54-1.229,2.542-1.373c0.318-0.057,0.587-0.071,0.783-0.071V522.376z M474.315,527.739
				c0-1.33-0.646-2.131-1.637-2.131c-0.648,0-1.26,0.458-1.553,1.144c-0.061,0.144-0.109,0.314-0.109,0.544
				c0.012,1.529,0.623,2.673,1.76,2.673C473.692,529.968,474.315,529.068,474.315,527.739z"/>
		</g>
		<g>
			<path stroke="#000000" stroke-miterlimit="10" d="M497.639,530.784v-0.772l0.844-0.958c2.029-2.259,2.957-3.46,2.957-4.86
				c0-0.944-0.379-1.816-1.564-1.816c-0.721,0-1.319,0.43-1.686,0.787l-0.343-0.887c0.538-0.529,1.332-0.943,2.237-0.943
				c1.711,0,2.432,1.372,2.432,2.702c0,1.715-1.063,3.103-2.738,4.989l-0.623,0.687v0.028h3.557v1.044H497.639z"/>
			<path stroke="#000000" stroke-miterlimit="10" d="M509.067,521.491v0.829l-3.459,8.464h-1.112l3.446-8.221v-0.029h-3.887v-1.043
				H509.067z"/>
		</g>
		<g>
			<path stroke="#000000" stroke-miterlimit="10" d="M533.611,530.784v-0.772l0.844-0.958c2.028-2.259,2.958-3.46,2.958-4.86
				c0-0.944-0.379-1.816-1.564-1.816c-0.722,0-1.32,0.43-1.688,0.787l-0.342-0.887c0.537-0.529,1.332-0.943,2.236-0.943
				c1.711,0,2.433,1.372,2.433,2.702c0,1.715-1.063,3.103-2.737,4.989l-0.624,0.687v0.028h3.557v1.044H533.611z"/>
			<path stroke="#000000" stroke-miterlimit="10" d="M541.348,525.894c-0.893-0.486-1.271-1.287-1.271-2.088
				c0-1.473,1.063-2.473,2.469-2.473c1.54,0,2.322,1.115,2.322,2.287c0,0.786-0.342,1.645-1.32,2.173v0.043
				c0.99,0.458,1.602,1.287,1.602,2.402c0,1.63-1.186,2.702-2.701,2.702c-1.662,0-2.664-1.144-2.664-2.502
				c0-1.173,0.599-2.016,1.576-2.502L541.348,525.894z M544.061,528.368c0-1.115-0.672-1.673-1.748-2.03
				c-0.929,0.314-1.43,1.044-1.43,1.93c-0.037,0.93,0.574,1.759,1.589,1.759C543.438,530.026,544.061,529.326,544.061,528.368z
				 M541.104,523.721c-0.013,0.929,0.598,1.43,1.515,1.715c0.685-0.271,1.21-0.843,1.21-1.687c0-0.743-0.379-1.516-1.344-1.516
				C541.592,522.234,541.104,522.92,541.104,523.721z"/>
		</g>
		<g>
			<path stroke="#000000" stroke-miterlimit="10" d="M567.292,530.784v-0.772l0.844-0.958c2.029-2.259,2.958-3.46,2.958-4.86
				c0-0.944-0.379-1.816-1.564-1.816c-0.722,0-1.319,0.43-1.687,0.787l-0.342-0.887c0.537-0.529,1.332-0.943,2.236-0.943
				c1.711,0,2.432,1.372,2.432,2.702c0,1.715-1.063,3.103-2.737,4.989l-0.624,0.687v0.028h3.557v1.044H567.292z"/>
			<path stroke="#000000" stroke-miterlimit="10" d="M574.186,529.897c0.232,0.029,0.5,0,0.867-0.043
				c0.623-0.1,1.21-0.386,1.662-0.9c0.525-0.558,0.904-1.373,1.051-2.459h-0.036c-0.44,0.629-1.075,0.986-1.882,0.986
				c-1.418,0-2.335-1.258-2.335-2.845c0-1.759,1.088-3.303,2.714-3.303c1.625,0,2.627,1.529,2.627,3.932
				c0,2.03-0.586,3.46-1.369,4.346c-0.61,0.701-1.453,1.13-2.309,1.244c-0.392,0.071-0.734,0.086-0.99,0.071V529.897z
				 M574.577,524.564c0,1.158,0.6,1.974,1.527,1.974c0.722,0,1.283-0.415,1.564-0.973c0.062-0.129,0.098-0.257,0.098-0.472
				c0-1.587-0.5-2.803-1.637-2.803C575.225,522.291,574.577,523.235,574.577,524.564z"/>
		</g>
		<g>
			<path stroke="#000000" stroke-miterlimit="10" d="M602.173,529.354c0.306,0.215,1.003,0.572,1.761,0.572
				c1.368,0,1.809-1.016,1.796-1.802c-0.013-1.301-1.015-1.858-2.054-1.858h-0.599v-0.944h0.599c0.783,0,1.772-0.472,1.772-1.572
				c0-0.743-0.403-1.401-1.394-1.401c-0.635,0-1.246,0.329-1.588,0.615l-0.294-0.915c0.428-0.357,1.234-0.715,2.09-0.715
				c1.564,0,2.273,1.086,2.273,2.216c0,0.972-0.501,1.787-1.467,2.201v0.029c0.978,0.214,1.761,1.072,1.772,2.373
				c0,1.487-1.002,2.788-2.896,2.788c-0.893,0-1.675-0.329-2.066-0.629L602.173,529.354z"/>
			<path stroke="#000000" stroke-miterlimit="10" d="M613.479,526.037c0,3.16-1.015,4.904-2.762,4.904
				c-1.553,0-2.616-1.701-2.641-4.775c0-3.131,1.161-4.832,2.774-4.832C612.513,521.333,613.479,523.078,613.479,526.037z
				 M609.165,526.18c0,2.416,0.636,3.788,1.613,3.788c1.088,0,1.613-1.501,1.613-3.874c0-2.288-0.488-3.789-1.613-3.789
				C609.849,522.305,609.165,523.649,609.165,526.18z"/>
		</g>
		<g>
			<path stroke="#000000" stroke-miterlimit="10" d="M638.18,529.354c0.306,0.215,1.002,0.572,1.76,0.572
				c1.369,0,1.809-1.016,1.797-1.802c-0.012-1.301-1.014-1.858-2.053-1.858h-0.6v-0.944h0.6c0.781,0,1.771-0.472,1.771-1.572
				c0-0.743-0.403-1.401-1.393-1.401c-0.637,0-1.247,0.329-1.59,0.615l-0.293-0.915c0.428-0.357,1.234-0.715,2.09-0.715
				c1.564,0,2.273,1.086,2.273,2.216c0,0.972-0.501,1.787-1.467,2.201v0.029c0.979,0.214,1.76,1.072,1.772,2.373
				c0,1.487-1.003,2.788-2.896,2.788c-0.893,0-1.675-0.329-2.065-0.629L638.18,529.354z"/>
			<path stroke="#000000" stroke-miterlimit="10" d="M646.528,522.663h-0.024l-1.381,0.872l-0.208-0.958l1.736-1.086h0.916v9.293
				h-1.039V522.663z"/>
		</g>
		<g>
			<path stroke="#000000" stroke-miterlimit="10" d="M672.551,529.354c0.305,0.215,1.002,0.572,1.76,0.572
				c1.369,0,1.809-1.016,1.797-1.802c-0.013-1.301-1.015-1.858-2.054-1.858h-0.599v-0.944h0.599c0.782,0,1.772-0.472,1.772-1.572
				c0-0.743-0.404-1.401-1.394-1.401c-0.636,0-1.247,0.329-1.589,0.615l-0.293-0.915c0.428-0.357,1.234-0.715,2.09-0.715
				c1.564,0,2.273,1.086,2.273,2.216c0,0.972-0.502,1.787-1.467,2.201v0.029c0.978,0.214,1.76,1.072,1.771,2.373
				c0,1.487-1.002,2.788-2.896,2.788c-0.893,0-1.674-0.329-2.065-0.629L672.551,529.354z"/>
			<path stroke="#000000" stroke-miterlimit="10" d="M678.564,530.784v-0.772l0.844-0.958c2.028-2.259,2.958-3.46,2.958-4.86
				c0-0.944-0.379-1.816-1.564-1.816c-0.722,0-1.32,0.43-1.688,0.787l-0.342-0.887c0.537-0.529,1.332-0.943,2.236-0.943
				c1.711,0,2.433,1.372,2.433,2.702c0,1.715-1.063,3.103-2.737,4.989l-0.624,0.687v0.028h3.557v1.044H678.564z"/>
		</g>
		<g>
			<path stroke="#000000" stroke-miterlimit="10" d="M705.532,529.354c0.305,0.215,1.002,0.572,1.76,0.572
				c1.369,0,1.809-1.016,1.797-1.802c-0.013-1.301-1.015-1.858-2.054-1.858h-0.599v-0.944h0.599c0.782,0,1.772-0.472,1.772-1.572
				c0-0.743-0.404-1.401-1.394-1.401c-0.636,0-1.247,0.329-1.589,0.615l-0.293-0.915c0.428-0.357,1.234-0.715,2.09-0.715
				c1.564,0,2.273,1.086,2.273,2.216c0,0.972-0.502,1.787-1.467,2.201v0.029c0.978,0.214,1.76,1.072,1.771,2.373
				c0,1.487-1.002,2.788-2.896,2.788c-0.893,0-1.674-0.329-2.065-0.629L705.532,529.354z"/>
			<path stroke="#000000" stroke-miterlimit="10" d="M711.801,529.354c0.306,0.215,1.002,0.572,1.76,0.572
				c1.369,0,1.809-1.016,1.797-1.802c-0.012-1.301-1.014-1.858-2.053-1.858h-0.6v-0.944h0.6c0.781,0,1.771-0.472,1.771-1.572
				c0-0.743-0.403-1.401-1.393-1.401c-0.637,0-1.247,0.329-1.59,0.615l-0.293-0.915c0.428-0.357,1.234-0.715,2.09-0.715
				c1.564,0,2.273,1.086,2.273,2.216c0,0.972-0.501,1.787-1.467,2.201v0.029c0.979,0.214,1.76,1.072,1.772,2.373
				c0,1.487-1.003,2.788-2.896,2.788c-0.893,0-1.675-0.329-2.065-0.629L711.801,529.354z"/>
		</g>
		<g>
			<path stroke="#000000" stroke-miterlimit="10" d="M740.399,529.354c0.306,0.215,1.002,0.572,1.76,0.572
				c1.369,0,1.809-1.016,1.797-1.802c-0.012-1.301-1.014-1.858-2.053-1.858h-0.6v-0.944h0.6c0.781,0,1.771-0.472,1.771-1.572
				c0-0.743-0.403-1.401-1.393-1.401c-0.637,0-1.247,0.329-1.59,0.615l-0.293-0.915c0.428-0.357,1.234-0.715,2.09-0.715
				c1.564,0,2.273,1.086,2.273,2.216c0,0.972-0.501,1.787-1.467,2.201v0.029c0.979,0.214,1.76,1.072,1.772,2.373
				c0,1.487-1.003,2.788-2.896,2.788c-0.893,0-1.675-0.329-2.065-0.629L740.399,529.354z"/>
			<path stroke="#000000" stroke-miterlimit="10" d="M749.737,530.784v-2.545h-3.691v-0.815l3.545-5.933h1.161v5.775h1.112v0.973
				h-1.112v2.545H749.737z M749.737,527.266v-3.103c0-0.485,0.012-0.972,0.037-1.458h-0.037c-0.244,0.543-0.439,0.943-0.66,1.373
				l-1.943,3.159v0.028H749.737z"/>
		</g>
		<g>
			<path stroke="#000000" stroke-miterlimit="10" d="M775.023,529.354c0.307,0.215,1.003,0.572,1.761,0.572
				c1.368,0,1.809-1.016,1.796-1.802c-0.012-1.301-1.014-1.858-2.053-1.858h-0.6v-0.944h0.6c0.782,0,1.771-0.472,1.771-1.572
				c0-0.743-0.402-1.401-1.393-1.401c-0.636,0-1.246,0.329-1.589,0.615l-0.294-0.915c0.428-0.357,1.234-0.715,2.09-0.715
				c1.564,0,2.273,1.086,2.273,2.216c0,0.972-0.5,1.787-1.467,2.201v0.029c0.979,0.214,1.761,1.072,1.773,2.373
				c0,1.487-1.003,2.788-2.896,2.788c-0.893,0-1.676-0.329-2.066-0.629L775.023,529.354z"/>
			<path stroke="#000000" stroke-miterlimit="10" d="M785.779,522.548h-3.031l-0.305,2.388c0.183-0.028,0.354-0.043,0.647-0.043
				c0.623,0,1.222,0.143,1.711,0.5c0.624,0.4,1.137,1.216,1.137,2.374c0,1.815-1.234,3.174-2.958,3.174
				c-0.867,0-1.589-0.286-1.98-0.572l0.27-0.958c0.33,0.229,0.979,0.516,1.711,0.516c1.002,0,1.883-0.772,1.87-2.017
				c0-1.201-0.696-2.044-2.273-2.044c-0.464,0-0.819,0.043-1.112,0.085l0.514-4.46h3.801V522.548z"/>
		</g>
	</g>
	<g>
		<g>
			<polyline fill="none" stroke="#000000" stroke-width="2" stroke-miterlimit="10" points="91.443,515.371 91.443,512.402 
				779.151,512.402 779.151,515.736 			"/>
			
				<line fill="none" stroke="#000000" stroke-width="2" stroke-miterlimit="10" x1="125.139" y1="511.985" x2="125.139" y2="515.235"/>
			
				<line fill="none" stroke="#000000" stroke-width="2" stroke-miterlimit="10" x1="160.202" y1="512.235" x2="160.202" y2="515.485"/>
			
				<line fill="none" stroke="#000000" stroke-width="2" stroke-miterlimit="10" x1="194.702" y1="512.235" x2="194.702" y2="515.485"/>
			
				<line fill="none" stroke="#000000" stroke-width="2" stroke-miterlimit="10" x1="228.327" y1="511.922" x2="228.327" y2="515.172"/>
			
				<line fill="none" stroke="#000000" stroke-width="2" stroke-miterlimit="10" x1="263.452" y1="512.047" x2="263.452" y2="515.297"/>
			
				<line fill="none" stroke="#000000" stroke-width="2" stroke-miterlimit="10" x1="298.014" y1="512.297" x2="298.014" y2="515.547"/>
			
				<line fill="none" stroke="#000000" stroke-width="2" stroke-miterlimit="10" x1="332.139" y1="512.11" x2="332.139" y2="515.36"/>
			
				<line fill="none" stroke="#000000" stroke-width="2" stroke-miterlimit="10" x1="367.139" y1="511.985" x2="367.139" y2="515.235"/>
			
				<line fill="none" stroke="#000000" stroke-width="2" stroke-miterlimit="10" x1="401.514" y1="512.297" x2="401.514" y2="515.547"/>
			
				<line fill="none" stroke="#000000" stroke-width="2" stroke-miterlimit="10" x1="435.639" y1="511.797" x2="435.639" y2="515.047"/>
			
				<line fill="none" stroke="#000000" stroke-width="2" stroke-miterlimit="10" x1="504.514" y1="512.297" x2="504.514" y2="515.547"/>
			
				<line fill="none" stroke="#000000" stroke-width="2" stroke-miterlimit="10" x1="538.889" y1="512.36" x2="538.889" y2="515.61"/>
			
				<line fill="none" stroke="#000000" stroke-width="2" stroke-miterlimit="10" x1="573.827" y1="512.297" x2="573.827" y2="515.547"/>
			
				<line fill="none" stroke="#000000" stroke-width="2" stroke-miterlimit="10" x1="608.202" y1="512.297" x2="608.202" y2="515.547"/>
			
				<line fill="none" stroke="#000000" stroke-width="2" stroke-miterlimit="10" x1="642.327" y1="512.485" x2="642.327" y2="515.735"/>
			
				<line fill="none" stroke="#000000" stroke-width="2" stroke-miterlimit="10" x1="677.077" y1="512.422" x2="677.077" y2="515.672"/>
			
				<line fill="none" stroke="#000000" stroke-width="2" stroke-miterlimit="10" x1="711.639" y1="512.297" x2="711.639" y2="515.547"/>
			
				<line fill="none" stroke="#000000" stroke-width="2" stroke-miterlimit="10" x1="745.952" y1="512.547" x2="745.952" y2="515.797"/>
		</g>
		
			<line fill="none" stroke="#000000" stroke-width="2" stroke-miterlimit="10" x1="469.639" y1="511.813" x2="469.639" y2="515.063"/>
	</g>
</g>
<g id="arrows">
	<polygon fill="#FBB040" stroke="#FBB040" stroke-miterlimit="10" points="44.85,479.674 79.287,514.861 79.287,502.279 
		209.85,502.173 209.85,457.597 79.287,457.703 79.287,444.485 	"/>
	<polygon fill="#EF4136" stroke="#EF4136" stroke-miterlimit="10" points="819.608,480.259 785.186,445.058 785.756,457.724 
		610.573,457.587 610.573,502.585 785.756,502.722 785.155,515.434 	"/>
	<polygon fill="#FBB040" stroke="#FBB040" stroke-miterlimit="10" points="606.637,502.183 436.831,502.32 436.831,457.661 
		606.637,457.524 	"/>
	<polygon fill="#8DC63F" stroke="#8DC63F" stroke-miterlimit="10" points="433.304,502.154 213.6,502.4 213.6,457.741 
		433.304,457.495 	"/>
	<g id="text_1_">
		<g>
			<path stroke="#000000" stroke-miterlimit="10" d="M85.221,470.843v8.808c0,3.303,1.476,4.712,3.457,4.712
				c2.18,0,3.611-1.453,3.611-4.712v-8.808h1.938v8.676c0,4.558-2.4,6.407-5.615,6.407c-3.039,0-5.329-1.718-5.329-6.341v-8.742
				H85.221z"/>
			<path stroke="#000000" stroke-miterlimit="10" d="M97.481,477.912c0-1.123-0.022-2.004-0.088-2.885h1.718l0.11,1.762h0.044
				c0.529-0.991,1.762-1.981,3.523-1.981c1.476,0,3.765,0.881,3.765,4.535v6.342h-1.938v-6.144c0-1.717-0.639-3.148-2.466-3.148
				c-1.255,0-2.246,0.903-2.598,1.981c-0.088,0.242-0.132,0.573-0.132,0.903v6.407h-1.938V477.912z"/>
			<path stroke="#000000" stroke-miterlimit="10" d="M118.88,470.051v12.881c0,0.946,0.044,2.025,0.088,2.752h-1.717l-0.088-1.85
				h-0.066c-0.572,1.189-1.85,2.092-3.589,2.092c-2.576,0-4.58-2.18-4.58-5.417c-0.022-3.545,2.202-5.702,4.778-5.702
				c1.651,0,2.73,0.771,3.215,1.607h0.044v-6.363H118.88z M116.965,479.365c0-0.242-0.022-0.572-0.088-0.814
				c-0.286-1.211-1.343-2.224-2.796-2.224c-2.003,0-3.192,1.761-3.192,4.095c0,2.158,1.079,3.941,3.148,3.941
				c1.299,0,2.488-0.881,2.84-2.312c0.066-0.265,0.088-0.528,0.088-0.837V479.365z"/>
			<path stroke="#000000" stroke-miterlimit="10" d="M123.193,480.708c0.044,2.62,1.696,3.699,3.655,3.699
				c1.387,0,2.246-0.242,2.951-0.55l0.352,1.387c-0.683,0.309-1.872,0.683-3.567,0.683c-3.281,0-5.24-2.18-5.24-5.395
				s1.894-5.725,4.998-5.725c3.501,0,4.404,3.038,4.404,4.998c0,0.396-0.022,0.683-0.066,0.902H123.193z M128.874,479.321
				c0.022-1.211-0.507-3.127-2.687-3.127c-1.981,0-2.818,1.784-2.972,3.127H128.874z"/>
			<path stroke="#000000" stroke-miterlimit="10" d="M133.143,478.352c0-1.255-0.022-2.334-0.088-3.325h1.696l0.088,2.114h0.066
				c0.484-1.432,1.673-2.334,2.973-2.334c0.198,0,0.352,0.021,0.528,0.044v1.827c-0.198-0.044-0.396-0.044-0.661-0.044
				c-1.365,0-2.334,1.013-2.598,2.466c-0.044,0.265-0.066,0.595-0.066,0.903v5.681h-1.938V478.352z"/>
			<path stroke="#000000" stroke-miterlimit="10" d="M141.662,475.027l1.431,5.417c0.286,1.188,0.573,2.29,0.771,3.391h0.066
				c0.242-1.079,0.594-2.224,0.947-3.369l1.739-5.438h1.629l1.651,5.329c0.396,1.276,0.705,2.399,0.947,3.479h0.066
				c0.176-1.079,0.462-2.202,0.815-3.457l1.519-5.351h1.916l-3.435,10.657h-1.762l-1.629-5.086
				c-0.375-1.189-0.683-2.246-0.947-3.501h-0.044c-0.264,1.276-0.594,2.378-0.969,3.522l-1.717,5.064h-1.762l-3.214-10.657H141.662z
				"/>
			<path stroke="#000000" stroke-miterlimit="10" d="M157.951,480.708c0.044,2.62,1.696,3.699,3.655,3.699
				c1.387,0,2.246-0.242,2.951-0.55l0.352,1.387c-0.683,0.309-1.872,0.683-3.567,0.683c-3.281,0-5.24-2.18-5.24-5.395
				s1.894-5.725,4.998-5.725c3.501,0,4.404,3.038,4.404,4.998c0,0.396-0.022,0.683-0.066,0.902H157.951z M163.632,479.321
				c0.022-1.211-0.507-3.127-2.687-3.127c-1.981,0-2.818,1.784-2.972,3.127H163.632z"/>
			<path stroke="#000000" stroke-miterlimit="10" d="M170.059,472.033c0,0.66-0.462,1.188-1.233,1.188
				c-0.705,0-1.167-0.528-1.167-1.188s0.484-1.211,1.211-1.211C169.574,470.822,170.059,471.35,170.059,472.033z M167.901,485.684
				v-10.657h1.938v10.657H167.901z"/>
			<path stroke="#000000" stroke-miterlimit="10" d="M182.167,484.121c0,2.466-0.506,3.941-1.52,4.889
				c-1.057,0.946-2.554,1.276-3.897,1.276c-1.277,0-2.687-0.308-3.545-0.881l0.484-1.497c0.705,0.463,1.805,0.859,3.126,0.859
				c1.981,0,3.435-1.035,3.435-3.743v-1.167h-0.044c-0.572,0.99-1.739,1.783-3.391,1.783c-2.642,0-4.536-2.246-4.536-5.196
				c0-3.611,2.356-5.637,4.822-5.637c1.85,0,2.84,0.946,3.325,1.827h0.044l0.066-1.607h1.717c-0.066,0.749-0.088,1.63-0.088,2.907
				V484.121z M180.229,479.233c0-0.33-0.022-0.617-0.11-0.859c-0.353-1.145-1.277-2.069-2.708-2.069c-1.849,0-3.17,1.563-3.17,4.029
				c0,2.092,1.079,3.831,3.148,3.831c1.211,0,2.29-0.748,2.687-1.981c0.11-0.33,0.154-0.704,0.154-1.035V479.233z"/>
			<path stroke="#000000" stroke-miterlimit="10" d="M185.357,470.051h1.938v6.671h0.044c0.309-0.55,0.793-1.057,1.387-1.387
				c0.573-0.33,1.255-0.528,1.982-0.528c1.431,0,3.721,0.881,3.721,4.535v6.342h-1.938v-6.121c0-1.718-0.639-3.148-2.466-3.148
				c-1.255,0-2.224,0.881-2.598,1.915c-0.11,0.286-0.132,0.573-0.132,0.925v6.43h-1.938V470.051z"/>
			<path stroke="#000000" stroke-miterlimit="10" d="M199.82,472.473v2.554h2.774v1.476h-2.774v5.747
				c0,1.321,0.374,2.069,1.453,2.069c0.528,0,0.837-0.044,1.123-0.132l0.088,1.475c-0.374,0.133-0.969,0.265-1.717,0.265
				c-0.903,0-1.629-0.309-2.092-0.814c-0.528-0.595-0.749-1.541-0.749-2.797v-5.813h-1.651v-1.476h1.651v-1.981L199.82,472.473z"/>
		</g>
		<g>
			<path stroke="#000000" stroke-miterlimit="10" d="M288.31,485.563v-14.841h2.114l4.734,7.509c1.079,1.739,1.96,3.303,2.643,4.822
				l0.066-0.022c-0.176-1.981-0.22-3.787-0.22-6.099v-6.21h1.806v14.841h-1.938l-4.712-7.53c-1.035-1.651-2.025-3.347-2.752-4.954
				l-0.066,0.021c0.11,1.872,0.132,3.655,0.132,6.121v6.342H288.31z"/>
			<path stroke="#000000" stroke-miterlimit="10" d="M312.373,480.146c0,3.941-2.752,5.659-5.307,5.659
				c-2.862,0-5.108-2.113-5.108-5.482c0-3.545,2.356-5.637,5.284-5.637C310.303,474.686,312.373,476.91,312.373,480.146z
				 M303.939,480.256c0,2.334,1.321,4.096,3.215,4.096c1.85,0,3.236-1.739,3.236-4.14c0-1.806-0.902-4.073-3.192-4.073
				C304.93,476.139,303.939,478.252,303.939,480.256z"/>
			<path stroke="#000000" stroke-miterlimit="10" d="M314.814,478.231c0-1.255-0.022-2.334-0.088-3.325h1.696l0.088,2.114h0.066
				c0.484-1.432,1.673-2.334,2.973-2.334c0.198,0,0.353,0.021,0.528,0.044v1.827c-0.198-0.044-0.396-0.044-0.661-0.044
				c-1.365,0-2.333,1.013-2.598,2.466c-0.044,0.265-0.066,0.595-0.066,0.903v5.681h-1.938V478.231z"/>
			<path stroke="#000000" stroke-miterlimit="10" d="M322.1,477.791c0-1.123-0.044-2.004-0.088-2.885h1.696l0.088,1.74h0.066
				c0.595-1.014,1.585-1.96,3.369-1.96c1.431,0,2.532,0.881,2.994,2.136h0.044c0.33-0.616,0.771-1.057,1.211-1.388
				c0.638-0.484,1.321-0.748,2.334-0.748c1.431,0,3.523,0.925,3.523,4.624v6.253h-1.894v-6.011c0-2.07-0.771-3.281-2.312-3.281
				c-1.123,0-1.96,0.814-2.312,1.739c-0.088,0.287-0.154,0.617-0.154,0.969v6.584h-1.894v-6.386c0-1.695-0.749-2.906-2.224-2.906
				c-1.189,0-2.092,0.969-2.4,1.938c-0.11,0.265-0.154,0.617-0.154,0.947v6.407H322.1V477.791z"/>
			<path stroke="#000000" stroke-miterlimit="10" d="M347.945,483.009c0,0.925,0.044,1.827,0.154,2.554h-1.739l-0.154-1.343h-0.066
				c-0.595,0.836-1.739,1.585-3.259,1.585c-2.158,0-3.259-1.52-3.259-3.061c0-2.576,2.29-3.985,6.408-3.963v-0.221
				c0-0.858-0.242-2.466-2.422-2.444c-1.013,0-2.047,0.286-2.796,0.793l-0.44-1.299c0.881-0.551,2.18-0.925,3.523-0.925
				c3.259,0,4.052,2.224,4.052,4.338V483.009z M346.074,480.125c-2.114-0.044-4.514,0.33-4.514,2.4c0,1.276,0.836,1.849,1.805,1.849
				c1.409,0,2.312-0.88,2.62-1.783c0.066-0.22,0.088-0.44,0.088-0.616V480.125z"/>
			<path stroke="#000000" stroke-miterlimit="10" d="M351.069,469.93h1.938v15.633h-1.938V469.93z"/>
		</g>
		<g>
			<path stroke="#000000" stroke-miterlimit="10" d="M481.219,477.614c0,5.086-3.104,7.816-6.891,7.816
				c-3.941,0-6.672-3.061-6.672-7.553c0-4.712,2.906-7.794,6.869-7.794C478.6,470.083,481.219,473.188,481.219,477.614z
				 M469.682,477.833c0,3.193,1.717,6.033,4.756,6.033s4.756-2.796,4.756-6.165c0-2.973-1.541-6.055-4.734-6.055
				C471.268,471.647,469.682,474.597,469.682,477.833z"/>
			<path stroke="#000000" stroke-miterlimit="10" d="M484.696,474.531l2.092,5.968c0.352,0.99,0.639,1.871,0.857,2.752h0.066
				c0.242-0.881,0.551-1.762,0.902-2.752l2.07-5.968h2.025l-4.184,10.657h-1.85l-4.051-10.657H484.696z"/>
			<path stroke="#000000" stroke-miterlimit="10" d="M495.393,480.211c0.045,2.62,1.695,3.699,3.656,3.699
				c1.387,0,2.246-0.242,2.949-0.55l0.354,1.387c-0.684,0.309-1.873,0.683-3.568,0.683c-3.279,0-5.24-2.18-5.24-5.395
				s1.895-5.725,4.998-5.725c3.502,0,4.404,3.038,4.404,4.998c0,0.396-0.021,0.683-0.066,0.902H495.393z M501.075,478.825
				c0.021-1.211-0.508-3.127-2.688-3.127c-1.98,0-2.818,1.784-2.971,3.127H501.075z"/>
			<path stroke="#000000" stroke-miterlimit="10" d="M505.342,477.856c0-1.255-0.021-2.334-0.088-3.325h1.695l0.088,2.114h0.066
				c0.484-1.432,1.674-2.334,2.973-2.334c0.199,0,0.354,0.021,0.529,0.044v1.827c-0.199-0.044-0.396-0.044-0.662-0.044
				c-1.363,0-2.332,1.013-2.598,2.466c-0.043,0.265-0.066,0.595-0.066,0.903v5.681h-1.938V477.856z"/>
			<path stroke="#000000" stroke-miterlimit="10" d="M513.862,474.531l1.432,5.417c0.285,1.188,0.572,2.29,0.771,3.391h0.064
				c0.242-1.079,0.596-2.224,0.947-3.369l1.74-5.438h1.629l1.65,5.329c0.396,1.276,0.705,2.399,0.947,3.479h0.066
				c0.176-1.079,0.463-2.202,0.814-3.457l1.52-5.351h1.916l-3.436,10.657h-1.762l-1.629-5.086c-0.375-1.189-0.682-2.246-0.947-3.501
				h-0.043c-0.266,1.276-0.596,2.378-0.969,3.522l-1.719,5.064h-1.762l-3.213-10.657H513.862z"/>
			<path stroke="#000000" stroke-miterlimit="10" d="M530.151,480.211c0.045,2.62,1.697,3.699,3.656,3.699
				c1.387,0,2.246-0.242,2.951-0.55l0.352,1.387c-0.684,0.309-1.871,0.683-3.566,0.683c-3.281,0-5.24-2.18-5.24-5.395
				s1.893-5.725,4.998-5.725c3.5,0,4.402,3.038,4.402,4.998c0,0.396-0.021,0.683-0.066,0.902H530.151z M535.833,478.825
				c0.021-1.211-0.506-3.127-2.686-3.127c-1.982,0-2.818,1.784-2.973,3.127H535.833z"/>
			<path stroke="#000000" stroke-miterlimit="10" d="M542.258,471.537c0,0.66-0.461,1.188-1.232,1.188
				c-0.705,0-1.166-0.528-1.166-1.188s0.484-1.211,1.211-1.211C541.774,470.326,542.258,470.854,542.258,471.537z M540.102,485.188
				v-10.657h1.938v10.657H540.102z"/>
			<path stroke="#000000" stroke-miterlimit="10" d="M554.368,483.625c0,2.466-0.506,3.941-1.52,4.889
				c-1.057,0.946-2.555,1.276-3.896,1.276c-1.277,0-2.688-0.308-3.545-0.881l0.484-1.497c0.705,0.463,1.805,0.859,3.127,0.859
				c1.98,0,3.434-1.035,3.434-3.743v-1.167h-0.043c-0.572,0.99-1.74,1.783-3.391,1.783c-2.643,0-4.537-2.246-4.537-5.196
				c0-3.611,2.357-5.637,4.822-5.637c1.85,0,2.84,0.946,3.324,1.827h0.045l0.066-1.607h1.717c-0.066,0.749-0.088,1.63-0.088,2.907
				V483.625z M552.43,478.737c0-0.33-0.021-0.617-0.109-0.859c-0.354-1.145-1.277-2.069-2.709-2.069c-1.85,0-3.17,1.563-3.17,4.029
				c0,2.092,1.078,3.831,3.148,3.831c1.211,0,2.289-0.748,2.686-1.981c0.109-0.33,0.154-0.704,0.154-1.035V478.737z"/>
			<path stroke="#000000" stroke-miterlimit="10" d="M557.557,469.555h1.938v6.671h0.045c0.309-0.55,0.793-1.057,1.387-1.387
				c0.572-0.33,1.256-0.528,1.982-0.528c1.43,0,3.721,0.881,3.721,4.535v6.342h-1.938v-6.121c0-1.718-0.639-3.148-2.467-3.148
				c-1.256,0-2.225,0.881-2.598,1.915c-0.111,0.286-0.133,0.573-0.133,0.925v6.43h-1.938V469.555z"/>
			<path stroke="#000000" stroke-miterlimit="10" d="M572.02,471.977v2.554h2.775v1.476h-2.775v5.747
				c0,1.321,0.375,2.069,1.453,2.069c0.529,0,0.838-0.044,1.123-0.132l0.088,1.475c-0.373,0.133-0.969,0.265-1.717,0.265
				c-0.902,0-1.629-0.309-2.092-0.814c-0.527-0.595-0.748-1.541-0.748-2.797v-5.813h-1.652v-1.476h1.652v-1.981L572.02,471.977z"/>
		</g>
		<g>
			<path stroke="#000000" stroke-miterlimit="10" d="M690.79,478.854c0,5.086-3.104,7.816-6.891,7.816
				c-3.941,0-6.672-3.061-6.672-7.553c0-4.712,2.906-7.794,6.869-7.794C688.17,471.324,690.79,474.428,690.79,478.854z
				 M679.252,479.074c0,3.193,1.717,6.033,4.756,6.033s4.756-2.796,4.756-6.165c0-2.973-1.541-6.055-4.734-6.055
				C680.838,472.887,679.252,475.837,679.252,479.074z"/>
			<path stroke="#000000" stroke-miterlimit="10" d="M693.209,470.795h1.914v6.693h0.045c0.682-1.189,1.916-1.938,3.633-1.938
				c2.664,0,4.514,2.202,4.514,5.416c0,3.81-2.422,5.703-4.801,5.703c-1.541,0-2.773-0.595-3.588-1.981h-0.045l-0.109,1.739h-1.652
				c0.045-0.727,0.09-1.806,0.09-2.752V470.795z M695.124,482.157c0,0.242,0.023,0.484,0.088,0.704
				c0.354,1.344,1.498,2.269,2.908,2.269c2.047,0,3.236-1.651,3.236-4.096c0-2.136-1.102-3.963-3.193-3.963
				c-1.299,0-2.531,0.925-2.928,2.378c-0.066,0.242-0.111,0.506-0.111,0.814V482.157z"/>
			<path stroke="#000000" stroke-miterlimit="10" d="M706.813,481.452c0.045,2.62,1.695,3.699,3.654,3.699
				c1.389,0,2.246-0.242,2.951-0.55l0.352,1.387c-0.682,0.309-1.871,0.683-3.566,0.683c-3.281,0-5.24-2.18-5.24-5.395
				s1.895-5.725,4.998-5.725c3.502,0,4.404,3.038,4.404,4.998c0,0.396-0.021,0.683-0.066,0.902H706.813z M712.495,480.065
				c0.021-1.211-0.508-3.127-2.688-3.127c-1.98,0-2.818,1.784-2.973,3.127H712.495z"/>
			<path stroke="#000000" stroke-miterlimit="10" d="M716.499,484.468c0.594,0.353,1.607,0.749,2.576,0.749
				c1.387,0,2.047-0.683,2.047-1.585c0-0.925-0.551-1.409-1.959-1.938c-1.938-0.704-2.84-1.739-2.84-3.016
				c0-1.718,1.408-3.127,3.676-3.127c1.08,0,2.025,0.286,2.6,0.66l-0.463,1.409c-0.418-0.264-1.189-0.639-2.18-0.639
				c-1.145,0-1.762,0.661-1.762,1.453c0,0.881,0.617,1.277,2.004,1.828c1.826,0.683,2.795,1.607,2.795,3.192
				c0,1.894-1.475,3.215-3.963,3.215c-1.166,0-2.246-0.309-2.994-0.749L716.499,484.468z"/>
			<path stroke="#000000" stroke-miterlimit="10" d="M726.559,481.452c0.043,2.62,1.695,3.699,3.654,3.699
				c1.387,0,2.246-0.242,2.951-0.55l0.352,1.387c-0.682,0.309-1.871,0.683-3.566,0.683c-3.281,0-5.24-2.18-5.24-5.395
				s1.893-5.725,4.998-5.725c3.5,0,4.404,3.038,4.404,4.998c0,0.396-0.023,0.683-0.066,0.902H726.559z M732.239,480.065
				c0.023-1.211-0.506-3.127-2.686-3.127c-1.982,0-2.818,1.784-2.973,3.127H732.239z"/>
		</g>
	</g>
</g>
<g id="text">
	
		<text transform="matrix(1 0 0 1 249.0552 60.4946)" stroke="#000000" stroke-miterlimit="10" font-family="'MyriadPro-Regular'" font-size="39.2186">Body Mass Index (BMI)</text>
	
		<text transform="matrix(1 0 0 1 404.8257 96.2808)" stroke="#000000" stroke-miterlimit="10" font-family="'MyriadPro-Regular'" font-size="21.8342">kg/m</text>
	
		<text transform="matrix(1 0 0 1 450.7739 87.2915)" stroke="#000000" stroke-miterlimit="10" font-family="'MyriadPro-Regular'" font-size="12">2</text>
	
		<text transform="matrix(1 0 0 1 43.8496 572.6655)" stroke="#000000" stroke-miterlimit="10" font-family="'MyriadPro-Regular'" font-size="20.0256">Body Mass Index (BMI) uses your height and weight to estimate how much body fat you have.</text>
</g>
<g id="Layer_9">
	<g>
		<path fill="#754C29" stroke="#754C29" stroke-miterlimit="10" d="M144.383,111.881c13.813-0.323,16.551,14.562,16.96,19.577
			c0.409,5.015,2.053,25.077,1.095,28.799c-0.958,3.721-5.027,3.906-7.694,4.14s-19.424,0.431-21.75-0.378
			c-2.324-0.81-5.709-1.981-6.258-5.542c-0.547-3.56-0.546-22.489,0-26.534C127.283,127.898,130.566,112.205,144.383,111.881z"/>
		<path fill="#FFFFFF" stroke="#000000" stroke-width="2" stroke-miterlimit="10" d="M131.352,141.506
			c0,6.875,4,10.875,5.368,15.042c1.369,4.167,0.684,12.333,0.684,12.333s-11.352,0.333-16.414,0.5c-5.061,0.167-6.565,18-6.565,18
			l-1.641,20c-1.093,3.333-5.2,15.5-5.608,23.334c-0.41,7.832-0.82,40.666-0.958,44.666c-0.136,4-1.365,11.167-2.188,15.667
			c-0.82,4.5,4.854,11.584,5.882,13.334c1.025,1.75,2.733-2.834,1.914-5.5c-0.819-2.668-4.203-8.336-1.824-9.834
			c2.379-1.5,3.008,7.166,3.693,6.666s1.955-4.5,0.82-7.832c-1.135-3.334-2.591-5.25-2.759-8.25c-0.168-3,1.573-19.084,2.668-22.25
			s3.831-10.5,4.925-15.5c1.096-5,0.409-19,0.409-19c1.644-2.5,3.694-19.583,4.107-19.333c0.41,0.25-0.687,13.667,3.143,17.333
			c1.743,1.875-0.879,14.166-1.337,19s-5.912,14-6.732,18.5c-0.819,4.5-2.462,32.25-0.819,46.5c1.64,14.25,5.949,28.75,7.385,36.75
			c0,0-0.958,6.25,0.418,17.742c-0.047,5.641-0.28,12.342,0.13,19.592c0.411,7.248,4.377,24.666,5.196,29.916
			c0.82,5.25,0.548,9.834,0.139,14.666c-0.41,4.834-5.063,7.334-5.745,10.166c-0.684,2.834,12.036,3.502,13.405,1.668
			s2.732-5.834,2.461-8.5c-0.271-2.668-0.958-6.166-0.821-9.5c0.14-3.334-1.23-16,0-22c1.231-6,3.695-22.25,0.412-35
			c0,0,1.025-8,0.409-12.5c2.463-17.5-0.17-58.625-0.17-58.625l6.125-0.125c0,0-2.126,53.416-1.167,58.748
			c-0.548,1.834,0.274,9.002,1.229,13.002c-0.955,3.5-2.734,26.166-1.23,33c1.506,6.832,0.959,23,0.959,23s-1.362,7.57-1.232,9.5
			c0.133,1.928,3.214,7.469,4.515,8.5c1.303,1.029,10.586,1.658,11.491,0.5c0.901-1.16-4.642-7.861-5.336-10
			c-0.694-2.141-1.096-11.834-0.001-17.168c1.094-5.332,4.379-17.998,5.337-22.498c0.509-2.396,1.229-15.834-0.033-27.84
			c0.99-5.494,0.853-13.494,0.716-17.662c0.957-3.5,5.504-19.332,7.113-32.333c1.003-8.104-0.98-50.999-2.462-54.999
			s-5.063-9.834-5.744-13c-0.684-3.166-2.327-16.499-0.138-19.5c3.42-5.334,0.957-16.334,1.778-16.834
			c0.822-0.5,2.599,11.333,4.376,14c0.001,7,0.857,20,2.052,23.333s5.062,12.666,5.746,15.833s2.344,15.042,2.188,17.667
			s-1.966,6.5-2.77,8s-0.204,12.375,0.41,12.875c0.615,0.5,1.549-8.377,3.334-7.877c1.785,0.502,0.154,7.002-0.358,9.002
			s1.025,8.25,1.436,6.5s5.54-12.125,5.13-16.25s-1.538-12-1.948-17.25c-0.412-5.25-0.994-33.999-1.813-40
			c-0.82-6-5.061-21.5-5.061-21.5s-1.779-13.167-1.642-17.667s-2.052-18-4.514-19.833c-2.461-1.833-17.646-2-17.646-2
			s-0.684-7.167,0-10c0.685-2.833,5.233-11.125,5.54-15.875c-3.795-1.875-12.925-17.625-12.925-17.625
			S137.199,137.381,131.352,141.506z"/>
		<path fill="#FFFFFF" stroke="#000000" stroke-width="2" stroke-miterlimit="10" d="M131.185,141.256
			c0,6.875,4,10.875,5.368,15.042c1.369,4.167,0.684,12.333,0.684,12.333s-11.352,0.333-16.414,0.5c-5.061,0.167-6.565,18-6.565,18
			l-1.641,20c-1.093,3.333-5.2,15.5-5.608,23.334c-0.41,7.832-0.82,40.666-0.958,44.666c-0.136,4-1.365,11.167-2.188,15.667
			c-0.82,4.5,4.854,11.584,5.882,13.334c1.025,1.75,2.733-2.834,1.914-5.5c-0.819-2.668-4.203-8.336-1.824-9.834
			c2.379-1.5,3.008,7.166,3.693,6.666s1.955-4.5,0.82-7.832c-1.135-3.334-2.591-5.25-2.759-8.25c-0.168-3,1.573-19.084,2.668-22.25
			s3.831-10.5,4.925-15.5c1.096-5,0.409-19,0.409-19c1.644-2.5,3.694-19.583,4.107-19.333c0.41,0.25-0.687,13.667,3.143,17.333
			c1.743,1.875-0.879,14.166-1.337,19s-5.912,14-6.732,18.5c-0.819,4.5-2.462,32.25-0.819,46.5c1.64,14.25,5.949,28.75,7.385,36.75
			c0,0-0.958,6.25,0.418,17.742c-0.047,5.641-0.28,12.342,0.13,19.592c0.411,7.248,4.377,24.666,5.196,29.916
			c0.82,5.25,0.548,9.834,0.139,14.666c-0.41,4.834-5.063,7.334-5.745,10.166c-0.684,2.834,12.036,3.502,13.405,1.668
			s2.732-5.834,2.461-8.5c-0.271-2.668-0.958-6.166-0.821-9.5c0.14-3.334-1.23-16,0-22c1.231-6,3.695-22.25,0.412-35
			c0,0,1.025-8,0.409-12.5c2.463-17.5-0.17-58.625-0.17-58.625l6.125-0.125c0,0-2.126,53.416-1.167,58.748
			c-0.548,1.834,0.274,9.002,1.229,13.002c-0.955,3.5-2.734,26.166-1.23,33c1.506,6.832,0.959,23,0.959,23s-1.362,7.57-1.232,9.5
			c0.133,1.928,3.214,7.469,4.515,8.5c1.303,1.029,10.586,1.658,11.491,0.5c0.901-1.16-4.642-7.861-5.336-10
			c-0.694-2.141-1.096-11.834-0.001-17.168c1.094-5.332,4.379-17.998,5.337-22.498c0.509-2.396,1.229-15.834-0.033-27.84
			c0.99-5.494,0.853-13.494,0.716-17.662c0.957-3.5,5.504-19.332,7.113-32.333c1.003-8.104-0.98-50.999-2.462-54.999
			s-5.063-9.834-5.744-13c-0.684-3.166-2.327-16.499-0.138-19.5c3.42-5.334,0.957-16.334,1.778-16.834
			c0.822-0.5,2.599,11.333,4.376,14c0.001,7,0.857,20,2.052,23.333s5.062,12.666,5.746,15.833s2.344,15.042,2.188,17.667
			s-1.966,6.5-2.77,8s-0.204,12.375,0.41,12.875c0.615,0.5,1.549-8.377,3.334-7.877c1.785,0.502,0.154,7.002-0.358,9.002
			s1.025,8.25,1.436,6.5s5.54-12.125,5.13-16.25s-1.538-12-1.948-17.25c-0.412-5.25-0.994-33.999-1.813-40
			c-0.82-6-5.061-21.5-5.061-21.5s-1.779-13.167-1.642-17.667s-2.052-18-4.514-19.833c-2.461-1.833-17.646-2-17.646-2
			s-0.684-7.167,0-10c0.685-2.833,5.233-11.125,5.54-15.875c-3.795-1.875-12.925-17.625-12.925-17.625
			S137.032,137.131,131.185,141.256z"/>
		<path fill="#FBB040" stroke="#000000" stroke-miterlimit="10" d="M117.297,297.382c0.411,1.416,24.505,2.041,24.916,1.625
			c0.41-0.416-0.866-10.5-0.25-9.75s4.385,0.873,5,0.125c0.616-0.75-0.536,9.207-0.125,9.625c0.41,0.416,23.462-0.459,23.807-1.125
			c0.342-0.666-1.301-35.584-2.053-36.5c-17.575,5.417-40.557,3.667-50.132-0.083C117.298,263.798,116.613,293.966,117.297,297.382z
			"/>
		<path fill="none" stroke="#000000" stroke-miterlimit="10" d="M123.714,171.715c0,0,13.604,0.479,14.771,1.229
			s1.73,1.563,2.354,1.813"/>
		<path fill="none" stroke="#000000" stroke-miterlimit="10" d="M153.588,228.006c-0.459,0.291,0.164-0.069,0.434-0.21
			c0.988-0.517,3.395-1.993,4.326-4.505"/>
		<path fill="none" stroke="#000000" stroke-miterlimit="10" d="M148.38,174.881c0.771-0.5,1.126-1.646,2.229-1.854
			s12.854-1.479,12.854-1.479"/>
		<path fill="none" stroke="#000000" stroke-miterlimit="10" d="M129.358,222.902c0,0,1.485,2.585,4.232,3.727
			c0.297,0.124,1.539,0.502,0.935,0.315"/>
		<path fill="none" stroke="#000000" stroke-miterlimit="10" d="M155.275,230.006c-0.604,0.25,0.218-0.08,0.564-0.245
			c1.083-0.513,3.429-1.843,4.342-4.074"/>
		<path fill="none" stroke="#000000" stroke-miterlimit="10" d="M157.15,232.569c-0.563,0.313,0.209-0.1,0.527-0.303
			c0.805-0.51,2.313-1.672,2.941-3.516"/>
		<path fill="none" stroke="#000000" stroke-miterlimit="10" d="M127.9,224.965c0,0,1.438,2.745,4.099,3.924
			c0.268,0.119,1.381,0.533,0.839,0.305"/>
		<path fill="none" stroke="#000000" stroke-miterlimit="10" d="M127.3,227.554c0,0,0.785,2.188,2.666,3.538
			c0.303,0.218,1.575,0.902,0.994,0.575"/>
		<path fill="none" stroke="#000000" stroke-miterlimit="10" d="M130.214,264.465c0,0,0.083-4.167-0.25-5.5
			c-0.247-0.99-1.825-3.632-2.623-4.929c-0.277-0.45-1.167-1.884-0.46-0.738"/>
		<path fill="none" stroke="#000000" stroke-miterlimit="10" d="M156.548,264.715c0,0-0.417-5.418-0.083-6.668
			c0.235-0.881,1.588-3.172,2.366-4.445c0.325-0.532,1.1-1.774,0.55-0.887"/>
		<path fill="#FBB040" stroke="#000000" stroke-miterlimit="10" d="M127.692,223.548c7.522-2.333,24.898-1.416,32.354,1.167
			c0.357,0.092,0.84-2.589,1.209-3.771c2.381-3.381,2.958-12.396,1.502-16.813c-3.544-3.75-3.124-35.083-3.193-35.75
			c-0.067-0.667-3.691-0.917-3.83-0.25c-0.136,0.667-1.778,29.917-11.968,30c-10.19,0.083-12.175-28.333-12.312-29.25
			c-0.136-0.917-4.514-0.667-4.513,0.083s0.546,26.5-3.489,38.417c-0.137,1.667,0.594,9,3.008,13.308
			C126.972,222.506,127.425,223.711,127.692,223.548z"/>
	</g>
	<g>
		<path fill="#754C29" stroke="#754C29" stroke-miterlimit="10" d="M323.304,111.88c16.833-0.323,20.168,14.562,20.667,19.577
			c0.499,5.015,2.5,25.077,1.333,28.799c-1.167,3.721-6.126,3.906-9.376,4.14s-23.667,0.431-26.5-0.378
			c-2.833-0.81-6.957-1.981-7.624-5.542c-0.667-3.56-0.666-22.489,0-26.534C302.47,127.897,306.471,112.203,323.304,111.88z"/>
		<path fill="#FFFFFF" stroke="#000000" stroke-width="2" stroke-miterlimit="10" d="M307.428,141.505
			c0,6.875,4.873,10.875,6.541,15.042s0.834,12.333,0.834,12.333s-13.834,0.333-20,0.5s-8,18-8,18l-2,20
			c-1.332,3.333-6.336,15.5-6.834,23.333s-1,40.667-1.166,44.667s-1.666,11.167-2.666,15.667s5.916,11.583,7.166,13.333
			s3.332-2.833,2.333-5.5s-4.5-7.833-1.833-10.166c1.631-1.427,2.166,7.666,3.5,7.166s1.166-7,0.833-9.5s-2-4.5-2.583-6.75
			s1.916-19.083,3.25-22.25s4.666-10.5,6-15.5s0.499-19,0.499-19c2.002-2.5,4.502-19.583,5.002-19.333s-0.834,13.667,3.832,17.333
			c2.125,1.875-1.083,15-1.833,19.5s-6,8.167-8,18c-0.919,4.517-3,32.25-1,46.5s7.25,28.75,9,36.75c0,0-1.166,6.25,0.509,17.742
			c-0.058,5.641-0.343,12.344,0.158,19.592c0.501,7.25,5.333,24.666,6.333,29.916s0.666,9.834,0.167,14.668
			c-0.499,4.832-6.167,7.332-7,10.166c-0.833,2.832,14.665,3.5,16.333,1.666s3.332-5.832,3-8.5c-0.332-2.666-1.168-6.166-1-9.5
			s-1.5-16,0-22s4.5-22.25,0.5-35c0,0,1.25-8,0.5-12.5c3-17.5,1.5-59,1.5-59l4,0.166c0,0-0.834,53.501,0.334,58.833
			c-0.667,1.834,0.333,9,1.499,13c-1.166,3.5-3.334,26.168-1.5,33c1.834,6.834,1.167,23,1.167,23s-1.66,7.572-1.5,9.5
			c0.16,1.93,3.914,7.471,5.5,8.5c1.586,1.031,12.899,1.66,14,0.5c1.101-1.158-5.654-7.859-6.5-10
			c-0.846-2.139-1.335-11.834-0.001-17.166c1.334-5.334,5.335-17.998,6.501-22.5c0.621-2.395,1.5-15.834-0.039-27.84
			c1.206-5.494,0.956-11.576,0.789-15.744c2.167-4.832,6-18.5,8.75-34.25c1.418-8.122-1.001-48.166-3-54.999s-6.168-9.833-7-13
			s-1.833-15.167-0.166-19.5c4.167-5.334,1.166-16.334,2.167-16.834s3.165,11.333,5.333,14c0.001,7-0.168,18.333,2.499,23.333
			s6.167,12.666,7.001,15.833s2.666,17.667,2.666,17.667s-3.5,5.875-3.375,8s-0.25,12.375,0.5,12.875s1.708-8.542,4.542-8.209
			c1.999-0.166-0.292,7.334-0.917,9.334s1.25,8.25,1.75,6.5s6.75-12.125,6.25-16.25s-1.875-12-2.375-17.25s-1.21-33.999-2.209-40
			s-6.166-21.5-6.166-21.5s-2.168-13.167-2-17.667s-2.501-18-5.5-19.833s-21.5-2-21.5-2s-0.834-7.167,0-10s6.375-11.125,6.75-15.875
			c-4.625-1.875-15.75-17.625-15.75-17.625S314.553,137.38,307.428,141.505z"/>
		<path fill="#FFFFFF" stroke="#000000" stroke-miterlimit="10" d="M304.637,264.88c0,0,0.335-6.167-0.083-8.083
			s-2.054-4.105-2.054-4.105s-1.611-2.478-0.696-1.145"/>
		<path fill="#FFFFFF" stroke="#000000" stroke-miterlimit="10" d="M338.829,264.725c0,0-0.488-6.819,0.058-8.277
			c0.545-1.457,2.261-4.074,2.261-4.074s1.044-1.903,0.522-0.952"/>
		<path fill="none" stroke="#000000" stroke-miterlimit="10" d="M302.103,173.462c0,0,13.604,0.479,14.771,1.229
			s1.73,1.563,2.354,1.813"/>
		<path fill="none" stroke="#000000" stroke-miterlimit="10" d="M326.769,176.629c0.771-0.5,1.126-1.646,2.229-1.854
			s12.854-1.479,12.854-1.479"/>
		<path fill="#8DC63F" stroke="#000000" stroke-miterlimit="10" d="M290.303,297.38c0.501,1.417,30.999,2.166,31.5,1.75
			s-0.917-10.5-0.166-9.75s2.666,0.749,3.417,0s-0.669,9.25-0.168,9.667s29.999-0.501,30.417-1.167s-1.584-35.583-2.5-36.5
			c-21.416,5.417-49.416,3.667-61.083-0.083C290.304,263.797,289.471,293.964,290.303,297.38z"/>
		<path fill="#8DC63F" stroke="#000000" stroke-miterlimit="10" d="M302.97,223.546c9.166-2.333,31.249-1.75,40.333,0.833
			c0.435,0.092,0.856-1.28,1.24-3.319c3.426-5.347,2.344-14.098,1.76-15.431c-4.25-10.417-4.417-36.583-4.5-37.25
			s-4.5-0.917-4.666-0.25s-2.167,29.917-14.584,30s-14.834-28.333-15-29.25s-5.501-0.667-5.5,0.083s0.666,26.5-4.25,38.417
			c-0.167,1.667,0,10.25,3.664,13.308C302.091,222.505,302.643,223.71,302.97,223.546z"/>
	</g>
	<g>
		<path fill="#754C29" stroke="#754C29" stroke-miterlimit="10" d="M521.031,112.266c19.225-0.323,23.033,14.562,23.604,19.577
			c0.57,5.015,2.855,25.077,1.521,28.799c-1.332,3.721-6.996,3.906-10.709,4.14c-3.711,0.234-27.027,0.431-30.264-0.378
			c-3.234-0.81-7.945-1.981-8.707-5.542c-0.762-3.56-0.762-22.489,0-26.534C497.236,128.283,501.806,112.589,521.031,112.266z"/>
		<path fill="#FFFFFF" stroke="#000000" stroke-width="2" stroke-miterlimit="10" d="M502.9,141.891
			c0,6.875,5.564,10.875,7.469,15.042c1.906,4.167,0.953,12.333,0.953,12.333s-15.799,0.333-22.842,0.5
			c-7.041,0.167-9.137,18-9.137,18l-2.283,20c-1.521,3.333-7.236,15.5-7.805,23.333s-1.143,40.667-1.332,44.667
			s-1.902,11.167-3.045,15.667s6.756,11.583,8.184,13.333s3.805-2.833,2.664-5.5s-3.695-7.875-2.195-11c2.375-2.375,2.576,8.5,4.1,8
			s1.143-8,1.143-8s-1.57-5.625-3.141-8.25c-0.189-2.667,2.188-19.083,3.711-22.25s5.33-10.5,6.854-15.5s1.07-20.5,1.07-20.5
			c3.098-3.667,4.641-18.083,5.213-17.833c0.57,0.25-0.953,13.667,4.375,17.333c0,0-2.49,12.333-1.926,18.667
			c-5.898,3.833-9.898,13.833-9.303,18.833c-1.143,4.5-3.428,32.25-1.143,46.5c2.283,14.25,8.279,28.75,10.277,36.75
			c0,0-1.33,6.25,0.582,17.742c-0.066,5.641-0.393,12.342,0.18,19.592c0.572,7.248,6.092,24.666,7.234,29.916
			c1.141,5.25,0.76,9.834,0.189,14.666c-0.57,4.834-7.043,7.334-7.994,10.166c-0.951,2.834,16.748,3.502,18.654,1.668
			c1.904-1.834,3.805-5.834,3.426-8.5c-0.381-2.668-1.334-6.166-1.143-9.5s-1.713-16,0-22s5.139-22.25,0.57-35
			c0,0,1.428-8,0.572-12.5c6.998-38,1.998-57,1.998-57l4.166-0.166c0,0-5.166,45.167,0.834,57.667
			c-0.762,1.834,0.045,8.5,1.377,12.5c-1.332,3.5-3.809,26.166-1.713,33c2.094,6.832,1.332,23,1.332,23s-1.896,7.57-1.713,9.5
			c0.182,1.928,4.471,7.469,6.281,8.5c1.811,1.029,14.732,1.658,15.988,0.5c1.258-1.16-6.457-7.861-7.422-10
			c-0.967-2.141-1.525-11.834-0.002-17.168c1.523-5.332,6.092-17.998,7.424-22.498c0.711-2.396,1.713-15.834-0.045-27.84
			c1.379-5.494,1.492-12.494,0.826-16.328c1.332-3.5,7.641-16.668,9.57-28.833c1.93-12.166-1.283-50.832-2.094-57.833
			s-3.752-12.584-8.436-16.25c0.684-6.167-0.582-18.25-0.582-18.25c4.758-5.334,1.33-16.334,2.475-16.834
			c1.143-0.5,3.615,11.333,6.09,14c0.002,7,1.066,15.167,2.355,21.167c1.287,6,6.035,13.499,7.494,18s4.045,17.667,4.045,17.667
			s-3.996,5.875-3.854,8s-0.287,12.375,0.57,12.875s2.281-8.125,4.156-8c1.377,0.092,0.697,7.125-0.016,9.125
			c-0.715,2,1.428,8.25,1.998,6.5s7.709-12.125,7.139-16.25c-0.572-4.125-2.143-12-2.713-17.25s-1.381-33.999-2.523-40
			c-1.141-6-7.041-21.5-7.041-21.5s-2.477-13.167-2.285-17.667c0.193-4.5-2.855-18-6.281-19.833c-3.424-1.833-24.555-2-24.555-2
			s-0.951-7.167,0-10c0.953-2.833,7.281-11.125,7.709-15.875c-5.281-1.875-17.986-17.625-17.986-17.625
			S511.037,137.766,502.9,141.891z"/>
		<path fill="#FBB040" stroke="#000000" stroke-miterlimit="10" d="M483.341,297.766c0.572,1.417,35.402,2.166,35.975,1.75
			s-1.047-10.5-0.189-9.75s3.045,0.749,3.902,0s-0.764,9.25-0.191,9.667s33.549-0.334,34.027-1
			c0.477-0.666-1.098-35.75-2.145-36.667c-22.939,8.25-53.689,7.75-69.76-0.083C483.341,264.183,482.39,294.35,483.341,297.766z"/>
		<path fill="#FFFFFF" stroke="#000000" stroke-width="2" stroke-miterlimit="10" d="M495.886,260.779
			c-0.564-0.68,1.027,1.042,1.584,1.533c11.24,9.927,33.854,11.81,44.803-0.043c0.549-0.592,2.264-2.841,1.553-1.88"/>
		<path fill="#FBB040" stroke="#000000" stroke-miterlimit="10" d="M496.865,224.933c10.469-2.333,38.072-2.156,48.447,0.427
			c0,0,0.318-2.708-0.025-4.163c3.914-5.347,3.244-11.223,1.744-15.764c-9.834-6.667-4.779-36-4.873-36.667s-5.139-0.917-5.328-0.25
			s1.035,30.083-16.656,30c-14.182-0.067-16.941-28.333-17.131-29.25c-0.191-0.917-6.283-0.667-6.283,0.083
			c0.002,0.75,5.771,28.417-4.686,37.917c-0.191,1.667-0.168,10.75,4.018,13.808C495.865,223.099,496.49,225.096,496.865,224.933z"
			/>
	</g>
	<g>
		<path fill="#754C29" stroke="#754C29" stroke-miterlimit="10" d="M705.664,110.881c21.447-0.563,25.863,14.273,26.555,19.281
			c0.693,5.008,3.467,25.04,2.021,28.778s-7.764,3.994-11.902,4.273c-4.139,0.28-30.156,0.769-33.773,0
			c-3.621-0.77-8.889-1.882-9.779-5.433c-0.889-3.55-1.1-22.478-0.297-26.532C679.291,127.194,684.214,111.444,705.664,110.881z"/>
		<path fill="#FFFFFF" stroke="#000000" stroke-width="2" stroke-miterlimit="10" d="M682.859,142.96
			c0.102,8.042,5.68,9.541,8.195,13.708l0.256,12c-4.684-2.667-22.363-1.25-32.232,2.417c-9.867,3.667-11.193,17.417-14.406,28.417
			c-3.211,11-11.057,30.167-10.635,42.083c0.424,11.917,0.131,28.292-0.119,32.292c-0.25,4-1.4,12.792-2.908,17.292
			c-1.506,4.5,8.918,11.582,10.803,13.332s5.023-2.832,3.516-5.5c-1.504-2.666-2.92-6.5-2.52-9.25c0.402-2.75,3.023,6.75,5.033,6.25
			c2.012-0.5,1.508-8,1.508-8s-3.4-6.75-3.645-9.75c-0.244-3,0.453-14.458,2.463-17.625c2.012-3.167,7.49-14.25,9.5-19.25
			s3.232-17.042,3.232-17.042c5.561-4.333,5.785-20.917,6.539-20.667s-1.258,13.667,5.777,17.333c0,0-5.756,7.333-6.18,18.333
			c-5.576,4.167-9.244,7.5-8.893,19.917c-1.508,4.5-4.684,29.917-1.342,48.25c3.35,16.617,11.012,26.25,13.65,34.25
			c0,0-1.758,6.25,0.768,17.742c-0.086,5.641-0.518,12.344,0.238,19.592c0.754,7.25,8.039,24.666,9.547,29.916
			c1.506,5.25,1.004,9.834,0.252,14.668c-0.754,4.832-9.297,7.332-10.553,10.166c-1.256,2.832,22.105,3.5,24.621,1.666
			c2.514-1.834,5.021-5.832,4.521-8.5c-0.5-2.666-1.76-6.166-1.508-9.5c0.254-3.334-2.262-16,0-22s7.078-20.25,2.004-35
			c0,0,1.699-7.625,0.629-12.625c5.613-21.832,2.195-57.875,2.195-57.875l2.916,0.543c0,0-5.166,39.082,1.182,55.832
			c-1.223,3-0.348,10.5,0.512,15c-2.359,4.375-1.902,25.793,0.863,32.625c2.764,6.834,1.76,23,1.76,23s-2.504,7.572-2.262,9.5
			c0.24,1.93,5.9,7.471,8.289,8.5c2.393,1.031,19.445,1.66,21.104,0.5c1.66-1.158-8.521-7.859-9.797-10
			c-1.275-2.139-2.012-11.834-0.002-17.166c2.012-5.334,8.041-17.998,9.799-22.5c0.938-2.395,2.262-15.834-0.059-27.84
			c1.818-5.494,2.816-12.744,2.564-16.91c2.924-5.584,6.758-12.699,11.314-25.583c4.775-13.5-2.021-57-2.021-57
			c2.131-12.5-6.982-18.5-10.301-22c0.098-8.167-2.5-16-2.5-16c6.281-5.334,1.768-17.834,2.934-18.001
			c2.33,0.334,3.164,12.834,7.039,15c2.791,3,1.74,16.75,5.1,23.5s6.746,12.166,9.053,16.083s4.482,13.417,4.52,16.667
			s-4.277,6.625-4.088,8.75c0.188,2.125-0.377,12.375,0.754,12.875c1.129,0.5,3.576-6.125,5.098-8.125
			c1.523-2,1.309,7.25,0.367,9.25c-0.943,2,1.883,8.25,2.637,6.5s8.752-8.072,9.229-14.125s-2.633-14.125-3.387-19.375
			s-0.088-28.999-0.83-34.75s-6.098-23.583-9.045-28.417s-2.447-27.083-13.889-35.333c-6.059-4.667-25.393-4.667-32.576-2.5v-10
			c2.018-2,7.518-7.833,7.508-15.708c-6.971-1.875-21.074-17.792-21.074-17.792S693.599,138.835,682.859,142.96z"/>
		<path fill="#EF4136" stroke="#000000" stroke-miterlimit="10" d="M655.337,297.376c0.754,1.418,46.727,2.166,47.482,1.75
			c1.754-0.75,1.359-8.33,1.932-8.416c0.572-0.084,0.072,8.416,1.666,8.334c0.756,0.416,46.604-0.836,47.234-1.502
			c3.934-11.666,0.434-32.166-4.104-36.166c-24.881,16-72.631,13.25-92.074-0.083C653.417,265.21,649.167,283.876,655.337,297.376z"
			/>
		<path fill="#EF4136" stroke="#000000" stroke-miterlimit="10" d="M673.583,223.543c13.818-2.333,48.975-1.916,62.668,0.667
			c0.832,0,1.422-2.461,2-4.5c5.164-5.347,4.668-12.845,0-17.083c-8.152-7.403-5.209-34.917-5.334-35.583s-6.584-1-6.834-0.333
			s2.23,31.5-21.635,32.417s-24.117-31.226-24.367-32.142s-6.998-0.025-6.998,0.726c0.002,0.75,4.846,30.146-5.107,38.333
			c-3.771,3.102-2.414,10.942,3.107,14C672.025,221.86,673.091,223.707,673.583,223.543z"/>
		<path fill="#FFFFFF" stroke="#000000" stroke-width="2" stroke-miterlimit="10" d="M666.994,239.21
			c5.172-4.108,9.057-3.096,7.865-3.298"/>
		<path fill="#FFFFFF" stroke="#000000" stroke-width="2" stroke-miterlimit="10" d="M739.251,236.71
			c-2.75-2.167-6.938-1.458-5.416-1.583"/>
		<path fill="#FFFFFF" stroke="#000000" stroke-width="2" stroke-miterlimit="10" d="M668.3,262.5
			c-1.467-1.882,1.043,1.418,1.549,1.958c15.377,16.377,51.799,19.702,66.672-0.543c0.309-0.419,1.895-2.745,0.895-1.287"/>
	</g>
</g>
</svg>
