<?xml version="1.0" encoding="utf-8"?>
<!-- Generator: Adobe Illustrator 16.0.0, SVG Export Plug-In . SVG Version: 6.00 Build 0)  -->
<!DOCTYPE svg PUBLIC "-//W3C//DTD SVG 1.1//EN" "http://www.w3.org/Graphics/SVG/1.1/DTD/svg11.dtd">
<svg version="1.1" xmlns="http://www.w3.org/2000/svg" xmlns:xlink="http://www.w3.org/1999/xlink" x="0px" y="0px" width="864px"
	 height="648px" viewBox="0 0 864 648" enable-background="new 0 0 864 648" xml:space="preserve">
<g id="ruler">
	<g id="numbers">
		<path stroke="#000000" stroke-miterlimit="10" d="M88.401,522.663h-0.024l-1.381,0.872l-0.208-0.958l1.736-1.086h0.917v9.293
			h-1.039V522.663z"/>
		<path stroke="#000000" stroke-miterlimit="10" d="M97.079,522.548h-3.031l-0.306,2.388c0.183-0.028,0.354-0.043,0.648-0.043
			c0.623,0,1.222,0.143,1.711,0.5c0.624,0.4,1.137,1.216,1.137,2.374c0,1.815-1.234,3.174-2.958,3.174
			c-0.868,0-1.589-0.286-1.98-0.572l0.269-0.958c0.33,0.229,0.978,0.516,1.711,0.516c1.002,0,1.882-0.772,1.87-2.017
			c0-1.201-0.697-2.044-2.273-2.044c-0.464,0-0.819,0.043-1.112,0.085l0.514-4.46h3.801V522.548z"/>
		<g>
			<path stroke="#000000" stroke-miterlimit="10" d="M121.651,522.663h-0.024l-1.381,0.872l-0.208-0.958l1.736-1.086h0.917v9.293
				h-1.039V522.663z"/>
			<path stroke="#000000" stroke-miterlimit="10" d="M130.121,522.376c-0.22-0.014-0.501,0.015-0.807,0.072
				c-1.699,0.314-2.579,1.744-2.762,3.288h0.024c0.379-0.601,1.051-1.087,1.931-1.087c1.405,0,2.396,1.201,2.396,3.003
				c0,1.716-0.99,3.288-2.652,3.288c-1.687,0-2.799-1.544-2.799-3.96c0-1.83,0.55-3.274,1.344-4.189
				c0.66-0.758,1.54-1.229,2.542-1.373c0.318-0.057,0.586-0.071,0.782-0.071V522.376z M129.815,527.739
				c0-1.33-0.647-2.131-1.638-2.131c-0.648,0-1.259,0.458-1.552,1.144c-0.061,0.144-0.11,0.314-0.11,0.544
				c0.012,1.529,0.623,2.673,1.76,2.673C129.192,529.968,129.815,529.068,129.815,527.739z"/>
		</g>
		<g>
			<path stroke="#000000" stroke-miterlimit="10" d="M157.163,522.663h-0.024l-1.381,0.872l-0.208-0.958l1.736-1.086h0.917v9.293
				h-1.039V522.663z"/>
			<path stroke="#000000" stroke-miterlimit="10" d="M166.257,521.491v0.829l-3.459,8.464h-1.112l3.447-8.221v-0.029h-3.887v-1.043
				H166.257z"/>
		</g>
		<g>
			<path stroke="#000000" stroke-miterlimit="10" d="M191.139,522.663h-0.024l-1.381,0.872l-0.208-0.958l1.736-1.086h0.917v9.293
				h-1.039V522.663z"/>
			<path stroke="#000000" stroke-miterlimit="10" d="M196.541,525.894c-0.892-0.486-1.271-1.287-1.271-2.088
				c0-1.473,1.063-2.473,2.469-2.473c1.54,0,2.322,1.115,2.322,2.287c0,0.786-0.342,1.645-1.32,2.173v0.043
				c0.99,0.458,1.601,1.287,1.601,2.402c0,1.63-1.186,2.702-2.701,2.702c-1.662,0-2.665-1.144-2.665-2.502
				c0-1.173,0.599-2.016,1.577-2.502L196.541,525.894z M199.254,528.368c0-1.115-0.672-1.673-1.748-2.03
				c-0.929,0.314-1.43,1.044-1.43,1.93c-0.037,0.93,0.574,1.759,1.589,1.759C198.631,530.026,199.254,529.326,199.254,528.368z
				 M196.297,523.721c-0.012,0.929,0.599,1.43,1.515,1.715c0.685-0.271,1.21-0.843,1.21-1.687c0-0.743-0.378-1.516-1.344-1.516
				C196.786,522.234,196.297,522.92,196.297,523.721z"/>
		</g>
		<g>
			<path stroke="#000000" stroke-miterlimit="10" d="M225.425,522.663H225.4l-1.381,0.872l-0.208-0.958l1.736-1.086h0.917v9.293
				h-1.039V522.663z"/>
			<path stroke="#000000" stroke-miterlimit="10" d="M229.984,529.897c0.232,0.029,0.501,0,0.868-0.043
				c0.624-0.1,1.21-0.386,1.662-0.9c0.526-0.558,0.905-1.373,1.051-2.459h-0.037c-0.44,0.629-1.076,0.986-1.882,0.986
				c-1.417,0-2.334-1.258-2.334-2.845c0-1.759,1.088-3.303,2.713-3.303s2.628,1.529,2.628,3.932c0,2.03-0.587,3.46-1.369,4.346
				c-0.611,0.701-1.454,1.13-2.31,1.244c-0.391,0.071-0.733,0.086-0.99,0.071V529.897z M230.375,524.564
				c0,1.158,0.599,1.974,1.528,1.974c0.721,0,1.283-0.415,1.564-0.973c0.061-0.129,0.098-0.257,0.098-0.472
				c0-1.587-0.501-2.803-1.638-2.803C231.023,522.291,230.375,523.235,230.375,524.564z"/>
		</g>
		<g>
			<path stroke="#000000" stroke-miterlimit="10" d="M257.7,530.784v-0.772l0.844-0.958c2.029-2.259,2.958-3.46,2.958-4.86
				c0-0.944-0.379-1.816-1.564-1.816c-0.721,0-1.32,0.43-1.687,0.787l-0.342-0.887c0.538-0.529,1.332-0.943,2.237-0.943
				c1.711,0,2.432,1.372,2.432,2.702c0,1.715-1.063,3.103-2.738,4.989l-0.624,0.687v0.028h3.557v1.044H257.7z"/>
			<path stroke="#000000" stroke-miterlimit="10" d="M269.262,526.037c0,3.16-1.015,4.904-2.762,4.904
				c-1.552,0-2.616-1.701-2.64-4.775c0-3.131,1.161-4.832,2.774-4.832C268.296,521.333,269.262,523.078,269.262,526.037z
				 M264.948,526.18c0,2.416,0.636,3.788,1.613,3.788c1.088,0,1.613-1.501,1.613-3.874c0-2.288-0.489-3.789-1.613-3.789
				C265.632,522.305,264.948,523.649,264.948,526.18z"/>
		</g>
		<g>
			<path stroke="#000000" stroke-miterlimit="10" d="M291.877,530.784v-0.772l0.844-0.958c2.029-2.259,2.958-3.46,2.958-4.86
				c0-0.944-0.379-1.816-1.564-1.816c-0.721,0-1.32,0.43-1.687,0.787l-0.342-0.887c0.538-0.529,1.332-0.943,2.237-0.943
				c1.711,0,2.432,1.372,2.432,2.702c0,1.715-1.063,3.103-2.738,4.989l-0.624,0.687v0.028h3.557v1.044H291.877z"/>
			<path stroke="#000000" stroke-miterlimit="10" d="M300.482,522.663h-0.024l-1.381,0.872l-0.208-0.958l1.736-1.086h0.917v9.293
				h-1.039V522.663z"/>
		</g>
		<g>
			<path stroke="#000000" stroke-miterlimit="10" d="M327.484,530.784v-0.772l0.844-0.958c2.029-2.259,2.958-3.46,2.958-4.86
				c0-0.944-0.379-1.816-1.564-1.816c-0.721,0-1.32,0.43-1.687,0.787l-0.342-0.887c0.538-0.529,1.332-0.943,2.237-0.943
				c1.711,0,2.432,1.372,2.432,2.702c0,1.715-1.063,3.103-2.738,4.989L329,529.711v0.028h3.557v1.044H327.484z"/>
			<path stroke="#000000" stroke-miterlimit="10" d="M333.754,530.784v-0.772l0.844-0.958c2.029-2.259,2.958-3.46,2.958-4.86
				c0-0.944-0.379-1.816-1.564-1.816c-0.721,0-1.32,0.43-1.687,0.787l-0.342-0.887c0.538-0.529,1.332-0.943,2.237-0.943
				c1.711,0,2.432,1.372,2.432,2.702c0,1.715-1.063,3.103-2.738,4.989l-0.624,0.687v0.028h3.557v1.044H333.754z"/>
		</g>
		<g>
			<path stroke="#000000" stroke-miterlimit="10" d="M362.275,530.784v-0.772l0.844-0.958c2.029-2.259,2.958-3.46,2.958-4.86
				c0-0.944-0.379-1.816-1.564-1.816c-0.721,0-1.32,0.43-1.687,0.787l-0.342-0.887c0.538-0.529,1.332-0.943,2.237-0.943
				c1.711,0,2.432,1.372,2.432,2.702c0,1.715-1.063,3.103-2.738,4.989l-0.624,0.687v0.028h3.557v1.044H362.275z"/>
			<path stroke="#000000" stroke-miterlimit="10" d="M368.802,529.354c0.306,0.215,1.002,0.572,1.76,0.572
				c1.369,0,1.809-1.016,1.796-1.802c-0.012-1.301-1.014-1.858-2.053-1.858h-0.599v-0.944h0.599c0.782,0,1.772-0.472,1.772-1.572
				c0-0.743-0.403-1.401-1.393-1.401c-0.636,0-1.247,0.329-1.589,0.615l-0.293-0.915c0.428-0.357,1.234-0.715,2.09-0.715
				c1.564,0,2.273,1.086,2.273,2.216c0,0.972-0.501,1.787-1.467,2.201v0.029c0.978,0.214,1.76,1.072,1.772,2.373
				c0,1.487-1.002,2.788-2.896,2.788c-0.893,0-1.675-0.329-2.066-0.629L368.802,529.354z"/>
		</g>
		<g>
			<path stroke="#000000" stroke-miterlimit="10" d="M396.2,530.784v-0.772l0.844-0.958c2.029-2.259,2.958-3.46,2.958-4.86
				c0-0.944-0.379-1.816-1.564-1.816c-0.721,0-1.32,0.43-1.687,0.787l-0.342-0.887c0.538-0.529,1.332-0.943,2.237-0.943
				c1.711,0,2.432,1.372,2.432,2.702c0,1.715-1.063,3.103-2.738,4.989l-0.624,0.687v0.028h3.557v1.044H396.2z"/>
			<path stroke="#000000" stroke-miterlimit="10" d="M405.794,530.784v-2.545h-3.691v-0.815l3.545-5.933h1.161v5.775h1.112v0.973
				h-1.112v2.545H405.794z M405.794,527.266v-3.103c0-0.485,0.012-0.972,0.037-1.458h-0.037c-0.245,0.543-0.44,0.943-0.66,1.373
				l-1.943,3.159v0.028H405.794z"/>
		</g>
		<g>
			<path stroke="#000000" stroke-miterlimit="10" d="M430.275,530.784v-0.772l0.844-0.958c2.029-2.259,2.958-3.46,2.958-4.86
				c0-0.944-0.379-1.816-1.564-1.816c-0.721,0-1.32,0.43-1.687,0.787l-0.342-0.887c0.538-0.529,1.332-0.943,2.237-0.943
				c1.711,0,2.433,1.372,2.433,2.702c0,1.715-1.064,3.103-2.738,4.989l-0.624,0.687v0.028h3.557v1.044H430.275z"/>
			<path stroke="#000000" stroke-miterlimit="10" d="M441.288,522.548h-3.031l-0.305,2.388c0.183-0.028,0.354-0.043,0.647-0.043
				c0.623,0,1.222,0.143,1.711,0.5c0.624,0.4,1.137,1.216,1.137,2.374c0,1.815-1.234,3.174-2.958,3.174
				c-0.867,0-1.589-0.286-1.98-0.572l0.27-0.958c0.33,0.229,0.978,0.516,1.711,0.516c1.002,0,1.883-0.772,1.87-2.017
				c0-1.201-0.696-2.044-2.273-2.044c-0.464,0-0.819,0.043-1.112,0.085l0.514-4.46h3.801V522.548z"/>
		</g>
		<g>
			<path stroke="#000000" stroke-miterlimit="10" d="M463.817,530.784v-0.772l0.844-0.958c2.028-2.259,2.957-3.46,2.957-4.86
				c0-0.944-0.379-1.816-1.564-1.816c-0.721,0-1.32,0.43-1.687,0.787l-0.343-0.887c0.538-0.529,1.332-0.943,2.237-0.943
				c1.711,0,2.433,1.372,2.433,2.702c0,1.715-1.064,3.103-2.738,4.989l-0.623,0.687v0.028h3.557v1.044H463.817z"/>
			<path stroke="#000000" stroke-miterlimit="10" d="M474.622,522.376c-0.221-0.014-0.502,0.015-0.807,0.072
				c-1.699,0.314-2.58,1.744-2.763,3.288h0.024c0.379-0.601,1.051-1.087,1.932-1.087c1.404,0,2.395,1.201,2.395,3.003
				c0,1.716-0.99,3.288-2.652,3.288c-1.686,0-2.799-1.544-2.799-3.96c0-1.83,0.551-3.274,1.345-4.189
				c0.66-0.758,1.54-1.229,2.542-1.373c0.318-0.057,0.587-0.071,0.783-0.071V522.376z M474.315,527.739
				c0-1.33-0.646-2.131-1.637-2.131c-0.648,0-1.26,0.458-1.553,1.144c-0.061,0.144-0.109,0.314-0.109,0.544
				c0.012,1.529,0.623,2.673,1.76,2.673C473.692,529.968,474.315,529.068,474.315,527.739z"/>
		</g>
		<g>
			<path stroke="#000000" stroke-miterlimit="10" d="M497.639,530.784v-0.772l0.844-0.958c2.029-2.259,2.957-3.46,2.957-4.86
				c0-0.944-0.379-1.816-1.564-1.816c-0.721,0-1.319,0.43-1.686,0.787l-0.343-0.887c0.538-0.529,1.332-0.943,2.237-0.943
				c1.711,0,2.432,1.372,2.432,2.702c0,1.715-1.063,3.103-2.738,4.989l-0.623,0.687v0.028h3.557v1.044H497.639z"/>
			<path stroke="#000000" stroke-miterlimit="10" d="M509.067,521.491v0.829l-3.459,8.464h-1.112l3.446-8.221v-0.029h-3.887v-1.043
				H509.067z"/>
		</g>
		<g>
			<path stroke="#000000" stroke-miterlimit="10" d="M533.611,530.784v-0.772l0.844-0.958c2.028-2.259,2.958-3.46,2.958-4.86
				c0-0.944-0.379-1.816-1.564-1.816c-0.722,0-1.32,0.43-1.688,0.787l-0.342-0.887c0.537-0.529,1.332-0.943,2.236-0.943
				c1.711,0,2.433,1.372,2.433,2.702c0,1.715-1.063,3.103-2.737,4.989l-0.624,0.687v0.028h3.557v1.044H533.611z"/>
			<path stroke="#000000" stroke-miterlimit="10" d="M541.348,525.894c-0.893-0.486-1.271-1.287-1.271-2.088
				c0-1.473,1.063-2.473,2.469-2.473c1.54,0,2.322,1.115,2.322,2.287c0,0.786-0.342,1.645-1.32,2.173v0.043
				c0.99,0.458,1.602,1.287,1.602,2.402c0,1.63-1.186,2.702-2.701,2.702c-1.662,0-2.664-1.144-2.664-2.502
				c0-1.173,0.599-2.016,1.576-2.502L541.348,525.894z M544.061,528.368c0-1.115-0.672-1.673-1.748-2.03
				c-0.929,0.314-1.43,1.044-1.43,1.93c-0.037,0.93,0.574,1.759,1.589,1.759C543.438,530.026,544.061,529.326,544.061,528.368z
				 M541.104,523.721c-0.013,0.929,0.598,1.43,1.515,1.715c0.685-0.271,1.21-0.843,1.21-1.687c0-0.743-0.379-1.516-1.344-1.516
				C541.592,522.234,541.104,522.92,541.104,523.721z"/>
		</g>
		<g>
			<path stroke="#000000" stroke-miterlimit="10" d="M567.292,530.784v-0.772l0.844-0.958c2.029-2.259,2.958-3.46,2.958-4.86
				c0-0.944-0.379-1.816-1.564-1.816c-0.722,0-1.319,0.43-1.687,0.787l-0.342-0.887c0.537-0.529,1.332-0.943,2.236-0.943
				c1.711,0,2.432,1.372,2.432,2.702c0,1.715-1.063,3.103-2.737,4.989l-0.624,0.687v0.028h3.557v1.044H567.292z"/>
			<path stroke="#000000" stroke-miterlimit="10" d="M574.186,529.897c0.232,0.029,0.5,0,0.867-0.043
				c0.623-0.1,1.21-0.386,1.662-0.9c0.525-0.558,0.904-1.373,1.051-2.459h-0.036c-0.44,0.629-1.075,0.986-1.882,0.986
				c-1.418,0-2.335-1.258-2.335-2.845c0-1.759,1.088-3.303,2.714-3.303c1.625,0,2.627,1.529,2.627,3.932
				c0,2.03-0.586,3.46-1.369,4.346c-0.61,0.701-1.453,1.13-2.309,1.244c-0.392,0.071-0.734,0.086-0.99,0.071V529.897z
				 M574.577,524.564c0,1.158,0.6,1.974,1.527,1.974c0.722,0,1.283-0.415,1.564-0.973c0.062-0.129,0.098-0.257,0.098-0.472
				c0-1.587-0.5-2.803-1.637-2.803C575.225,522.291,574.577,523.235,574.577,524.564z"/>
		</g>
		<g>
			<path stroke="#000000" stroke-miterlimit="10" d="M602.173,529.354c0.306,0.215,1.003,0.572,1.761,0.572
				c1.368,0,1.809-1.016,1.796-1.802c-0.013-1.301-1.015-1.858-2.054-1.858h-0.599v-0.944h0.599c0.783,0,1.772-0.472,1.772-1.572
				c0-0.743-0.403-1.401-1.394-1.401c-0.635,0-1.246,0.329-1.588,0.615l-0.294-0.915c0.428-0.357,1.234-0.715,2.09-0.715
				c1.564,0,2.273,1.086,2.273,2.216c0,0.972-0.501,1.787-1.467,2.201v0.029c0.978,0.214,1.761,1.072,1.772,2.373
				c0,1.487-1.002,2.788-2.896,2.788c-0.893,0-1.675-0.329-2.066-0.629L602.173,529.354z"/>
			<path stroke="#000000" stroke-miterlimit="10" d="M613.479,526.037c0,3.16-1.015,4.904-2.762,4.904
				c-1.553,0-2.616-1.701-2.641-4.775c0-3.131,1.161-4.832,2.774-4.832C612.513,521.333,613.479,523.078,613.479,526.037z
				 M609.165,526.18c0,2.416,0.636,3.788,1.613,3.788c1.088,0,1.613-1.501,1.613-3.874c0-2.288-0.488-3.789-1.613-3.789
				C609.849,522.305,609.165,523.649,609.165,526.18z"/>
		</g>
		<g>
			<path stroke="#000000" stroke-miterlimit="10" d="M638.18,529.354c0.306,0.215,1.002,0.572,1.76,0.572
				c1.369,0,1.809-1.016,1.797-1.802c-0.012-1.301-1.014-1.858-2.053-1.858h-0.6v-0.944h0.6c0.781,0,1.771-0.472,1.771-1.572
				c0-0.743-0.403-1.401-1.393-1.401c-0.637,0-1.247,0.329-1.59,0.615l-0.293-0.915c0.428-0.357,1.234-0.715,2.09-0.715
				c1.564,0,2.273,1.086,2.273,2.216c0,0.972-0.501,1.787-1.467,2.201v0.029c0.979,0.214,1.76,1.072,1.772,2.373
				c0,1.487-1.003,2.788-2.896,2.788c-0.893,0-1.675-0.329-2.065-0.629L638.18,529.354z"/>
			<path stroke="#000000" stroke-miterlimit="10" d="M646.528,522.663h-0.024l-1.381,0.872l-0.208-0.958l1.736-1.086h0.916v9.293
				h-1.039V522.663z"/>
		</g>
		<g>
			<path stroke="#000000" stroke-miterlimit="10" d="M672.551,529.354c0.305,0.215,1.002,0.572,1.76,0.572
				c1.369,0,1.809-1.016,1.797-1.802c-0.013-1.301-1.015-1.858-2.054-1.858h-0.599v-0.944h0.599c0.782,0,1.772-0.472,1.772-1.572
				c0-0.743-0.404-1.401-1.394-1.401c-0.636,0-1.247,0.329-1.589,0.615l-0.293-0.915c0.428-0.357,1.234-0.715,2.09-0.715
				c1.564,0,2.273,1.086,2.273,2.216c0,0.972-0.502,1.787-1.467,2.201v0.029c0.978,0.214,1.76,1.072,1.771,2.373
				c0,1.487-1.002,2.788-2.896,2.788c-0.893,0-1.674-0.329-2.065-0.629L672.551,529.354z"/>
			<path stroke="#000000" stroke-miterlimit="10" d="M678.564,530.784v-0.772l0.844-0.958c2.028-2.259,2.958-3.46,2.958-4.86
				c0-0.944-0.379-1.816-1.564-1.816c-0.722,0-1.32,0.43-1.688,0.787l-0.342-0.887c0.537-0.529,1.332-0.943,2.236-0.943
				c1.711,0,2.433,1.372,2.433,2.702c0,1.715-1.063,3.103-2.737,4.989l-0.624,0.687v0.028h3.557v1.044H678.564z"/>
		</g>
		<g>
			<path stroke="#000000" stroke-miterlimit="10" d="M705.532,529.354c0.305,0.215,1.002,0.572,1.76,0.572
				c1.369,0,1.809-1.016,1.797-1.802c-0.013-1.301-1.015-1.858-2.054-1.858h-0.599v-0.944h0.599c0.782,0,1.772-0.472,1.772-1.572
				c0-0.743-0.404-1.401-1.394-1.401c-0.636,0-1.247,0.329-1.589,0.615l-0.293-0.915c0.428-0.357,1.234-0.715,2.09-0.715
				c1.564,0,2.273,1.086,2.273,2.216c0,0.972-0.502,1.787-1.467,2.201v0.029c0.978,0.214,1.76,1.072,1.771,2.373
				c0,1.487-1.002,2.788-2.896,2.788c-0.893,0-1.674-0.329-2.065-0.629L705.532,529.354z"/>
			<path stroke="#000000" stroke-miterlimit="10" d="M711.801,529.354c0.306,0.215,1.002,0.572,1.76,0.572
				c1.369,0,1.809-1.016,1.797-1.802c-0.012-1.301-1.014-1.858-2.053-1.858h-0.6v-0.944h0.6c0.781,0,1.771-0.472,1.771-1.572
				c0-0.743-0.403-1.401-1.393-1.401c-0.637,0-1.247,0.329-1.59,0.615l-0.293-0.915c0.428-0.357,1.234-0.715,2.09-0.715
				c1.564,0,2.273,1.086,2.273,2.216c0,0.972-0.501,1.787-1.467,2.201v0.029c0.979,0.214,1.76,1.072,1.772,2.373
				c0,1.487-1.003,2.788-2.896,2.788c-0.893,0-1.675-0.329-2.065-0.629L711.801,529.354z"/>
		</g>
		<g>
			<path stroke="#000000" stroke-miterlimit="10" d="M740.399,529.354c0.306,0.215,1.002,0.572,1.76,0.572
				c1.369,0,1.809-1.016,1.797-1.802c-0.012-1.301-1.014-1.858-2.053-1.858h-0.6v-0.944h0.6c0.781,0,1.771-0.472,1.771-1.572
				c0-0.743-0.403-1.401-1.393-1.401c-0.637,0-1.247,0.329-1.59,0.615l-0.293-0.915c0.428-0.357,1.234-0.715,2.09-0.715
				c1.564,0,2.273,1.086,2.273,2.216c0,0.972-0.501,1.787-1.467,2.201v0.029c0.979,0.214,1.76,1.072,1.772,2.373
				c0,1.487-1.003,2.788-2.896,2.788c-0.893,0-1.675-0.329-2.065-0.629L740.399,529.354z"/>
			<path stroke="#000000" stroke-miterlimit="10" d="M749.737,530.784v-2.545h-3.691v-0.815l3.545-5.933h1.161v5.775h1.112v0.973
				h-1.112v2.545H749.737z M749.737,527.266v-3.103c0-0.485,0.012-0.972,0.037-1.458h-0.037c-0.244,0.543-0.439,0.943-0.66,1.373
				l-1.943,3.159v0.028H749.737z"/>
		</g>
		<g>
			<path stroke="#000000" stroke-miterlimit="10" d="M775.023,529.354c0.307,0.215,1.003,0.572,1.761,0.572
				c1.368,0,1.809-1.016,1.796-1.802c-0.012-1.301-1.014-1.858-2.053-1.858h-0.6v-0.944h0.6c0.782,0,1.771-0.472,1.771-1.572
				c0-0.743-0.402-1.401-1.393-1.401c-0.636,0-1.246,0.329-1.589,0.615l-0.294-0.915c0.428-0.357,1.234-0.715,2.09-0.715
				c1.564,0,2.273,1.086,2.273,2.216c0,0.972-0.5,1.787-1.467,2.201v0.029c0.979,0.214,1.761,1.072,1.773,2.373
				c0,1.487-1.003,2.788-2.896,2.788c-0.893,0-1.676-0.329-2.066-0.629L775.023,529.354z"/>
			<path stroke="#000000" stroke-miterlimit="10" d="M785.779,522.548h-3.031l-0.305,2.388c0.183-0.028,0.354-0.043,0.647-0.043
				c0.623,0,1.222,0.143,1.711,0.5c0.624,0.4,1.137,1.216,1.137,2.374c0,1.815-1.234,3.174-2.958,3.174
				c-0.867,0-1.589-0.286-1.98-0.572l0.27-0.958c0.33,0.229,0.979,0.516,1.711,0.516c1.002,0,1.883-0.772,1.87-2.017
				c0-1.201-0.696-2.044-2.273-2.044c-0.464,0-0.819,0.043-1.112,0.085l0.514-4.46h3.801V522.548z"/>
		</g>
	</g>
	<g>
		<g>
			<polyline fill="none" stroke="#000000" stroke-width="2" stroke-miterlimit="10" points="91.443,515.371 91.443,512.402 
				779.151,512.402 779.151,515.736 			"/>
			
				<line fill="none" stroke="#000000" stroke-width="2" stroke-miterlimit="10" x1="125.139" y1="511.985" x2="125.139" y2="515.235"/>
			
				<line fill="none" stroke="#000000" stroke-width="2" stroke-miterlimit="10" x1="160.202" y1="512.235" x2="160.202" y2="515.485"/>
			
				<line fill="none" stroke="#000000" stroke-width="2" stroke-miterlimit="10" x1="194.702" y1="512.235" x2="194.702" y2="515.485"/>
			
				<line fill="none" stroke="#000000" stroke-width="2" stroke-miterlimit="10" x1="228.327" y1="511.922" x2="228.327" y2="515.172"/>
			
				<line fill="none" stroke="#000000" stroke-width="2" stroke-miterlimit="10" x1="263.452" y1="512.047" x2="263.452" y2="515.297"/>
			
				<line fill="none" stroke="#000000" stroke-width="2" stroke-miterlimit="10" x1="298.014" y1="512.297" x2="298.014" y2="515.547"/>
			
				<line fill="none" stroke="#000000" stroke-width="2" stroke-miterlimit="10" x1="332.139" y1="512.11" x2="332.139" y2="515.36"/>
			
				<line fill="none" stroke="#000000" stroke-width="2" stroke-miterlimit="10" x1="367.139" y1="511.985" x2="367.139" y2="515.235"/>
			
				<line fill="none" stroke="#000000" stroke-width="2" stroke-miterlimit="10" x1="401.514" y1="512.297" x2="401.514" y2="515.547"/>
			
				<line fill="none" stroke="#000000" stroke-width="2" stroke-miterlimit="10" x1="435.639" y1="511.797" x2="435.639" y2="515.047"/>
			
				<line fill="none" stroke="#000000" stroke-width="2" stroke-miterlimit="10" x1="504.514" y1="512.297" x2="504.514" y2="515.547"/>
			
				<line fill="none" stroke="#000000" stroke-width="2" stroke-miterlimit="10" x1="538.889" y1="512.36" x2="538.889" y2="515.61"/>
			
				<line fill="none" stroke="#000000" stroke-width="2" stroke-miterlimit="10" x1="573.827" y1="512.297" x2="573.827" y2="515.547"/>
			
				<line fill="none" stroke="#000000" stroke-width="2" stroke-miterlimit="10" x1="608.202" y1="512.297" x2="608.202" y2="515.547"/>
			
				<line fill="none" stroke="#000000" stroke-width="2" stroke-miterlimit="10" x1="642.327" y1="512.485" x2="642.327" y2="515.735"/>
			
				<line fill="none" stroke="#000000" stroke-width="2" stroke-miterlimit="10" x1="677.077" y1="512.422" x2="677.077" y2="515.672"/>
			
				<line fill="none" stroke="#000000" stroke-width="2" stroke-miterlimit="10" x1="711.639" y1="512.297" x2="711.639" y2="515.547"/>
			
				<line fill="none" stroke="#000000" stroke-width="2" stroke-miterlimit="10" x1="745.952" y1="512.547" x2="745.952" y2="515.797"/>
		</g>
		
			<line fill="none" stroke="#000000" stroke-width="2" stroke-miterlimit="10" x1="469.639" y1="511.813" x2="469.639" y2="515.063"/>
	</g>
</g>
<g id="arrows">
	<polygon fill="#FBB040" stroke="#FBB040" stroke-miterlimit="10" points="44.85,479.674 79.287,514.861 79.287,502.279 
		209.85,502.173 209.85,457.597 79.287,457.703 79.287,444.485 	"/>
	<polygon fill="#EF4136" stroke="#EF4136" stroke-miterlimit="10" points="819.608,480.259 785.186,445.058 785.756,457.724 
		610.573,457.587 610.573,502.585 785.756,502.722 785.155,515.434 	"/>
	<polygon fill="#FBB040" stroke="#FBB040" stroke-miterlimit="10" points="606.637,502.183 436.831,502.32 436.831,457.661 
		606.637,457.524 	"/>
	<polygon fill="#8DC63F" stroke="#8DC63F" stroke-miterlimit="10" points="433.304,502.154 213.6,502.4 213.6,457.741 
		433.304,457.495 	"/>
	<g id="text_1_">
		<g>
			<path stroke="#000000" stroke-miterlimit="10" d="M85.221,470.843v8.808c0,3.303,1.476,4.712,3.457,4.712
				c2.18,0,3.611-1.453,3.611-4.712v-8.808h1.938v8.676c0,4.558-2.4,6.407-5.615,6.407c-3.039,0-5.329-1.718-5.329-6.341v-8.742
				H85.221z"/>
			<path stroke="#000000" stroke-miterlimit="10" d="M97.481,477.912c0-1.123-0.022-2.004-0.088-2.885h1.718l0.11,1.762h0.044
				c0.529-0.991,1.762-1.981,3.523-1.981c1.476,0,3.765,0.881,3.765,4.535v6.342h-1.938v-6.144c0-1.717-0.639-3.148-2.466-3.148
				c-1.255,0-2.246,0.903-2.598,1.981c-0.088,0.242-0.132,0.573-0.132,0.903v6.407h-1.938V477.912z"/>
			<path stroke="#000000" stroke-miterlimit="10" d="M118.88,470.051v12.881c0,0.946,0.044,2.025,0.088,2.752h-1.717l-0.088-1.85
				h-0.066c-0.572,1.189-1.85,2.092-3.589,2.092c-2.576,0-4.58-2.18-4.58-5.417c-0.022-3.545,2.202-5.702,4.778-5.702
				c1.651,0,2.73,0.771,3.215,1.607h0.044v-6.363H118.88z M116.965,479.365c0-0.242-0.022-0.572-0.088-0.814
				c-0.286-1.211-1.343-2.224-2.796-2.224c-2.003,0-3.192,1.761-3.192,4.095c0,2.158,1.079,3.941,3.148,3.941
				c1.299,0,2.488-0.881,2.84-2.312c0.066-0.265,0.088-0.528,0.088-0.837V479.365z"/>
			<path stroke="#000000" stroke-miterlimit="10" d="M123.193,480.708c0.044,2.62,1.696,3.699,3.655,3.699
				c1.387,0,2.246-0.242,2.951-0.55l0.352,1.387c-0.683,0.309-1.872,0.683-3.567,0.683c-3.281,0-5.24-2.18-5.24-5.395
				s1.894-5.725,4.998-5.725c3.501,0,4.404,3.038,4.404,4.998c0,0.396-0.022,0.683-0.066,0.902H123.193z M128.874,479.321
				c0.022-1.211-0.507-3.127-2.687-3.127c-1.981,0-2.818,1.784-2.972,3.127H128.874z"/>
			<path stroke="#000000" stroke-miterlimit="10" d="M133.143,478.352c0-1.255-0.022-2.334-0.088-3.325h1.696l0.088,2.114h0.066
				c0.484-1.432,1.673-2.334,2.973-2.334c0.198,0,0.352,0.021,0.528,0.044v1.827c-0.198-0.044-0.396-0.044-0.661-0.044
				c-1.365,0-2.334,1.013-2.598,2.466c-0.044,0.265-0.066,0.595-0.066,0.903v5.681h-1.938V478.352z"/>
			<path stroke="#000000" stroke-miterlimit="10" d="M141.662,475.027l1.431,5.417c0.286,1.188,0.573,2.29,0.771,3.391h0.066
				c0.242-1.079,0.594-2.224,0.947-3.369l1.739-5.438h1.629l1.651,5.329c0.396,1.276,0.705,2.399,0.947,3.479h0.066
				c0.176-1.079,0.462-2.202,0.815-3.457l1.519-5.351h1.916l-3.435,10.657h-1.762l-1.629-5.086
				c-0.375-1.189-0.683-2.246-0.947-3.501h-0.044c-0.264,1.276-0.594,2.378-0.969,3.522l-1.717,5.064h-1.762l-3.214-10.657H141.662z
				"/>
			<path stroke="#000000" stroke-miterlimit="10" d="M157.951,480.708c0.044,2.62,1.696,3.699,3.655,3.699
				c1.387,0,2.246-0.242,2.951-0.55l0.352,1.387c-0.683,0.309-1.872,0.683-3.567,0.683c-3.281,0-5.24-2.18-5.24-5.395
				s1.894-5.725,4.998-5.725c3.501,0,4.404,3.038,4.404,4.998c0,0.396-0.022,0.683-0.066,0.902H157.951z M163.632,479.321
				c0.022-1.211-0.507-3.127-2.687-3.127c-1.981,0-2.818,1.784-2.972,3.127H163.632z"/>
			<path stroke="#000000" stroke-miterlimit="10" d="M170.059,472.033c0,0.66-0.462,1.188-1.233,1.188
				c-0.705,0-1.167-0.528-1.167-1.188s0.484-1.211,1.211-1.211C169.574,470.822,170.059,471.35,170.059,472.033z M167.901,485.684
				v-10.657h1.938v10.657H167.901z"/>
			<path stroke="#000000" stroke-miterlimit="10" d="M182.167,484.121c0,2.466-0.506,3.941-1.52,4.889
				c-1.057,0.946-2.554,1.276-3.897,1.276c-1.277,0-2.687-0.308-3.545-0.881l0.484-1.497c0.705,0.463,1.805,0.859,3.126,0.859
				c1.981,0,3.435-1.035,3.435-3.743v-1.167h-0.044c-0.572,0.99-1.739,1.783-3.391,1.783c-2.642,0-4.536-2.246-4.536-5.196
				c0-3.611,2.356-5.637,4.822-5.637c1.85,0,2.84,0.946,3.325,1.827h0.044l0.066-1.607h1.717c-0.066,0.749-0.088,1.63-0.088,2.907
				V484.121z M180.229,479.233c0-0.33-0.022-0.617-0.11-0.859c-0.353-1.145-1.277-2.069-2.708-2.069c-1.849,0-3.17,1.563-3.17,4.029
				c0,2.092,1.079,3.831,3.148,3.831c1.211,0,2.29-0.748,2.687-1.981c0.11-0.33,0.154-0.704,0.154-1.035V479.233z"/>
			<path stroke="#000000" stroke-miterlimit="10" d="M185.357,470.051h1.938v6.671h0.044c0.309-0.55,0.793-1.057,1.387-1.387
				c0.573-0.33,1.255-0.528,1.982-0.528c1.431,0,3.721,0.881,3.721,4.535v6.342h-1.938v-6.121c0-1.718-0.639-3.148-2.466-3.148
				c-1.255,0-2.224,0.881-2.598,1.915c-0.11,0.286-0.132,0.573-0.132,0.925v6.43h-1.938V470.051z"/>
			<path stroke="#000000" stroke-miterlimit="10" d="M199.82,472.473v2.554h2.774v1.476h-2.774v5.747
				c0,1.321,0.374,2.069,1.453,2.069c0.528,0,0.837-0.044,1.123-0.132l0.088,1.475c-0.374,0.133-0.969,0.265-1.717,0.265
				c-0.903,0-1.629-0.309-2.092-0.814c-0.528-0.595-0.749-1.541-0.749-2.797v-5.813h-1.651v-1.476h1.651v-1.981L199.82,472.473z"/>
		</g>
		<g>
			<path stroke="#000000" stroke-miterlimit="10" d="M288.31,485.563v-14.841h2.114l4.734,7.509c1.079,1.739,1.96,3.303,2.643,4.822
				l0.066-0.022c-0.176-1.981-0.22-3.787-0.22-6.099v-6.21h1.806v14.841h-1.938l-4.712-7.53c-1.035-1.651-2.025-3.347-2.752-4.954
				l-0.066,0.021c0.11,1.872,0.132,3.655,0.132,6.121v6.342H288.31z"/>
			<path stroke="#000000" stroke-miterlimit="10" d="M312.373,480.146c0,3.941-2.752,5.659-5.307,5.659
				c-2.862,0-5.108-2.113-5.108-5.482c0-3.545,2.356-5.637,5.284-5.637C310.303,474.686,312.373,476.91,312.373,480.146z
				 M303.939,480.256c0,2.334,1.321,4.096,3.215,4.096c1.85,0,3.236-1.739,3.236-4.14c0-1.806-0.902-4.073-3.192-4.073
				C304.93,476.139,303.939,478.252,303.939,480.256z"/>
			<path stroke="#000000" stroke-miterlimit="10" d="M314.814,478.231c0-1.255-0.022-2.334-0.088-3.325h1.696l0.088,2.114h0.066
				c0.484-1.432,1.673-2.334,2.973-2.334c0.198,0,0.353,0.021,0.528,0.044v1.827c-0.198-0.044-0.396-0.044-0.661-0.044
				c-1.365,0-2.333,1.013-2.598,2.466c-0.044,0.265-0.066,0.595-0.066,0.903v5.681h-1.938V478.231z"/>
			<path stroke="#000000" stroke-miterlimit="10" d="M322.1,477.791c0-1.123-0.044-2.004-0.088-2.885h1.696l0.088,1.74h0.066
				c0.595-1.014,1.585-1.96,3.369-1.96c1.431,0,2.532,0.881,2.994,2.136h0.044c0.33-0.616,0.771-1.057,1.211-1.388
				c0.638-0.484,1.321-0.748,2.334-0.748c1.431,0,3.523,0.925,3.523,4.624v6.253h-1.894v-6.011c0-2.07-0.771-3.281-2.312-3.281
				c-1.123,0-1.96,0.814-2.312,1.739c-0.088,0.287-0.154,0.617-0.154,0.969v6.584h-1.894v-6.386c0-1.695-0.749-2.906-2.224-2.906
				c-1.189,0-2.092,0.969-2.4,1.938c-0.11,0.265-0.154,0.617-0.154,0.947v6.407H322.1V477.791z"/>
			<path stroke="#000000" stroke-miterlimit="10" d="M347.945,483.009c0,0.925,0.044,1.827,0.154,2.554h-1.739l-0.154-1.343h-0.066
				c-0.595,0.836-1.739,1.585-3.259,1.585c-2.158,0-3.259-1.52-3.259-3.061c0-2.576,2.29-3.985,6.408-3.963v-0.221
				c0-0.858-0.242-2.466-2.422-2.444c-1.013,0-2.047,0.286-2.796,0.793l-0.44-1.299c0.881-0.551,2.18-0.925,3.523-0.925
				c3.259,0,4.052,2.224,4.052,4.338V483.009z M346.074,480.125c-2.114-0.044-4.514,0.33-4.514,2.4c0,1.276,0.836,1.849,1.805,1.849
				c1.409,0,2.312-0.88,2.62-1.783c0.066-0.22,0.088-0.44,0.088-0.616V480.125z"/>
			<path stroke="#000000" stroke-miterlimit="10" d="M351.069,469.93h1.938v15.633h-1.938V469.93z"/>
		</g>
		<g>
			<path stroke="#000000" stroke-miterlimit="10" d="M481.219,477.614c0,5.086-3.104,7.816-6.891,7.816
				c-3.941,0-6.672-3.061-6.672-7.553c0-4.712,2.906-7.794,6.869-7.794C478.6,470.083,481.219,473.188,481.219,477.614z
				 M469.682,477.833c0,3.193,1.717,6.033,4.756,6.033s4.756-2.796,4.756-6.165c0-2.973-1.541-6.055-4.734-6.055
				C471.268,471.647,469.682,474.597,469.682,477.833z"/>
			<path stroke="#000000" stroke-miterlimit="10" d="M484.696,474.531l2.092,5.968c0.352,0.99,0.639,1.871,0.857,2.752h0.066
				c0.242-0.881,0.551-1.762,0.902-2.752l2.07-5.968h2.025l-4.184,10.657h-1.85l-4.051-10.657H484.696z"/>
			<path stroke="#000000" stroke-miterlimit="10" d="M495.393,480.211c0.045,2.62,1.695,3.699,3.656,3.699
				c1.387,0,2.246-0.242,2.949-0.55l0.354,1.387c-0.684,0.309-1.873,0.683-3.568,0.683c-3.279,0-5.24-2.18-5.24-5.395
				s1.895-5.725,4.998-5.725c3.502,0,4.404,3.038,4.404,4.998c0,0.396-0.021,0.683-0.066,0.902H495.393z M501.075,478.825
				c0.021-1.211-0.508-3.127-2.688-3.127c-1.98,0-2.818,1.784-2.971,3.127H501.075z"/>
			<path stroke="#000000" stroke-miterlimit="10" d="M505.342,477.856c0-1.255-0.021-2.334-0.088-3.325h1.695l0.088,2.114h0.066
				c0.484-1.432,1.674-2.334,2.973-2.334c0.199,0,0.354,0.021,0.529,0.044v1.827c-0.199-0.044-0.396-0.044-0.662-0.044
				c-1.363,0-2.332,1.013-2.598,2.466c-0.043,0.265-0.066,0.595-0.066,0.903v5.681h-1.938V477.856z"/>
			<path stroke="#000000" stroke-miterlimit="10" d="M513.862,474.531l1.432,5.417c0.285,1.188,0.572,2.29,0.771,3.391h0.064
				c0.242-1.079,0.596-2.224,0.947-3.369l1.74-5.438h1.629l1.65,5.329c0.396,1.276,0.705,2.399,0.947,3.479h0.066
				c0.176-1.079,0.463-2.202,0.814-3.457l1.52-5.351h1.916l-3.436,10.657h-1.762l-1.629-5.086c-0.375-1.189-0.682-2.246-0.947-3.501
				h-0.043c-0.266,1.276-0.596,2.378-0.969,3.522l-1.719,5.064h-1.762l-3.213-10.657H513.862z"/>
			<path stroke="#000000" stroke-miterlimit="10" d="M530.151,480.211c0.045,2.62,1.697,3.699,3.656,3.699
				c1.387,0,2.246-0.242,2.951-0.55l0.352,1.387c-0.684,0.309-1.871,0.683-3.566,0.683c-3.281,0-5.24-2.18-5.24-5.395
				s1.893-5.725,4.998-5.725c3.5,0,4.402,3.038,4.402,4.998c0,0.396-0.021,0.683-0.066,0.902H530.151z M535.833,478.825
				c0.021-1.211-0.506-3.127-2.686-3.127c-1.982,0-2.818,1.784-2.973,3.127H535.833z"/>
			<path stroke="#000000" stroke-miterlimit="10" d="M542.258,471.537c0,0.66-0.461,1.188-1.232,1.188
				c-0.705,0-1.166-0.528-1.166-1.188s0.484-1.211,1.211-1.211C541.774,470.326,542.258,470.854,542.258,471.537z M540.102,485.188
				v-10.657h1.938v10.657H540.102z"/>
			<path stroke="#000000" stroke-miterlimit="10" d="M554.368,483.625c0,2.466-0.506,3.941-1.52,4.889
				c-1.057,0.946-2.555,1.276-3.896,1.276c-1.277,0-2.688-0.308-3.545-0.881l0.484-1.497c0.705,0.463,1.805,0.859,3.127,0.859
				c1.98,0,3.434-1.035,3.434-3.743v-1.167h-0.043c-0.572,0.99-1.74,1.783-3.391,1.783c-2.643,0-4.537-2.246-4.537-5.196
				c0-3.611,2.357-5.637,4.822-5.637c1.85,0,2.84,0.946,3.324,1.827h0.045l0.066-1.607h1.717c-0.066,0.749-0.088,1.63-0.088,2.907
				V483.625z M552.43,478.737c0-0.33-0.021-0.617-0.109-0.859c-0.354-1.145-1.277-2.069-2.709-2.069c-1.85,0-3.17,1.563-3.17,4.029
				c0,2.092,1.078,3.831,3.148,3.831c1.211,0,2.289-0.748,2.686-1.981c0.109-0.33,0.154-0.704,0.154-1.035V478.737z"/>
			<path stroke="#000000" stroke-miterlimit="10" d="M557.557,469.555h1.938v6.671h0.045c0.309-0.55,0.793-1.057,1.387-1.387
				c0.572-0.33,1.256-0.528,1.982-0.528c1.43,0,3.721,0.881,3.721,4.535v6.342h-1.938v-6.121c0-1.718-0.639-3.148-2.467-3.148
				c-1.256,0-2.225,0.881-2.598,1.915c-0.111,0.286-0.133,0.573-0.133,0.925v6.43h-1.938V469.555z"/>
			<path stroke="#000000" stroke-miterlimit="10" d="M572.02,471.977v2.554h2.775v1.476h-2.775v5.747
				c0,1.321,0.375,2.069,1.453,2.069c0.529,0,0.838-0.044,1.123-0.132l0.088,1.475c-0.373,0.133-0.969,0.265-1.717,0.265
				c-0.902,0-1.629-0.309-2.092-0.814c-0.527-0.595-0.748-1.541-0.748-2.797v-5.813h-1.652v-1.476h1.652v-1.981L572.02,471.977z"/>
		</g>
		<g>
			<path stroke="#000000" stroke-miterlimit="10" d="M690.79,478.854c0,5.086-3.104,7.816-6.891,7.816
				c-3.941,0-6.672-3.061-6.672-7.553c0-4.712,2.906-7.794,6.869-7.794C688.17,471.324,690.79,474.428,690.79,478.854z
				 M679.252,479.074c0,3.193,1.717,6.033,4.756,6.033s4.756-2.796,4.756-6.165c0-2.973-1.541-6.055-4.734-6.055
				C680.838,472.887,679.252,475.837,679.252,479.074z"/>
			<path stroke="#000000" stroke-miterlimit="10" d="M693.209,470.795h1.914v6.693h0.045c0.682-1.189,1.916-1.938,3.633-1.938
				c2.664,0,4.514,2.202,4.514,5.416c0,3.81-2.422,5.703-4.801,5.703c-1.541,0-2.773-0.595-3.588-1.981h-0.045l-0.109,1.739h-1.652
				c0.045-0.727,0.09-1.806,0.09-2.752V470.795z M695.124,482.157c0,0.242,0.023,0.484,0.088,0.704
				c0.354,1.344,1.498,2.269,2.908,2.269c2.047,0,3.236-1.651,3.236-4.096c0-2.136-1.102-3.963-3.193-3.963
				c-1.299,0-2.531,0.925-2.928,2.378c-0.066,0.242-0.111,0.506-0.111,0.814V482.157z"/>
			<path stroke="#000000" stroke-miterlimit="10" d="M706.813,481.452c0.045,2.62,1.695,3.699,3.654,3.699
				c1.389,0,2.246-0.242,2.951-0.55l0.352,1.387c-0.682,0.309-1.871,0.683-3.566,0.683c-3.281,0-5.24-2.18-5.24-5.395
				s1.895-5.725,4.998-5.725c3.502,0,4.404,3.038,4.404,4.998c0,0.396-0.021,0.683-0.066,0.902H706.813z M712.495,480.065
				c0.021-1.211-0.508-3.127-2.688-3.127c-1.98,0-2.818,1.784-2.973,3.127H712.495z"/>
			<path stroke="#000000" stroke-miterlimit="10" d="M716.499,484.468c0.594,0.353,1.607,0.749,2.576,0.749
				c1.387,0,2.047-0.683,2.047-1.585c0-0.925-0.551-1.409-1.959-1.938c-1.938-0.704-2.84-1.739-2.84-3.016
				c0-1.718,1.408-3.127,3.676-3.127c1.08,0,2.025,0.286,2.6,0.66l-0.463,1.409c-0.418-0.264-1.189-0.639-2.18-0.639
				c-1.145,0-1.762,0.661-1.762,1.453c0,0.881,0.617,1.277,2.004,1.828c1.826,0.683,2.795,1.607,2.795,3.192
				c0,1.894-1.475,3.215-3.963,3.215c-1.166,0-2.246-0.309-2.994-0.749L716.499,484.468z"/>
			<path stroke="#000000" stroke-miterlimit="10" d="M726.559,481.452c0.043,2.62,1.695,3.699,3.654,3.699
				c1.387,0,2.246-0.242,2.951-0.55l0.352,1.387c-0.682,0.309-1.871,0.683-3.566,0.683c-3.281,0-5.24-2.18-5.24-5.395
				s1.893-5.725,4.998-5.725c3.5,0,4.404,3.038,4.404,4.998c0,0.396-0.023,0.683-0.066,0.902H726.559z M732.239,480.065
				c0.023-1.211-0.506-3.127-2.686-3.127c-1.982,0-2.818,1.784-2.973,3.127H732.239z"/>
		</g>
	</g>
</g>
<g id="text">
	
		<text transform="matrix(1 0 0 1 249.0552 60.4946)" stroke="#000000" stroke-miterlimit="10" font-family="'MyriadPro-Regular'" font-size="39.2186">Body Mass Index (BMI)</text>
	
		<text transform="matrix(1 0 0 1 404.8257 96.2808)" stroke="#000000" stroke-miterlimit="10" font-family="'MyriadPro-Regular'" font-size="21.8342">kg/m</text>
	
		<text transform="matrix(1 0 0 1 450.7739 87.2915)" stroke="#000000" stroke-miterlimit="10" font-family="'MyriadPro-Regular'" font-size="12">2</text>
	
		<text transform="matrix(1 0 0 1 43.8496 582.6655)" stroke="#000000" stroke-miterlimit="10" font-family="'MyriadPro-Regular'" font-size="20.0256">Body Mass Index (BMI) uses your height and weight to estimate how much body fat you have.</text>
</g>
<g id="Layer_9">
	<g>
		<path fill="#FFFFFF" stroke="#000000" stroke-width="2" stroke-miterlimit="10" d="M134.881,152.29
			c-0.813,0.826-6.171,2.643-11.827,6.607c-13.497-0.33-13.367,23.789-13.367,23.789s-4.243,9.582-6.686,25.771
			c-6.169,14.042-4.112,36.509-5.012,41.63c-0.901,5.121-4.372,17.016-1.801,28.414c1.415,4.295,3.342,12.555,4.243,12.72
			c0.899,0.165,2.184-5.782,2.056-8.095c-0.128-2.313-1.739-4.107-1.962-6.596c-0.222-2.49,0.856-5.863,1.448-5.959
			c1.028-0.165,2.057,9.417,3.599,7.93c1.542-1.487,1.672-8.26,1.672-8.26c1.156-2.808,0.128-9.085-1.543-10.242
			c-1.671-1.157-1.286-5.617-0.515-8.756c0.771-3.139,4.628-10.407,6.813-16.189c2.186-5.782,0.987-17.181,1.671-18.998
			c0.684-1.817,4.622-19.328,5.528-18.998c0.906,0.331,2.092,9.582,3.47,12.06s3.811,15.198,2.612,20.925
			c-1.196,5.726-3.256,12.555-3.941,20.044c-0.683,7.489-5.655,50.442-4.455,60.573c1.2,10.131,3.084,14.757,3.084,14.757
			s0.344,11.895,1.544,14.537c-2.572,10.793-0.857,37.663,0.514,43.612c1.371,5.948,2.4,18.721,1.542,21.805
			c-0.857,3.085-7.07,11.895-9.77,13.217c-2.699,1.321-0.899,4.625,0.771,4.79s13.24,0.496,14.653,0.496
			c1.414,0,4.115-3.8,3.6-5.782c-0.514-1.982-1.286-9.911-1.029-12.06c0.258-2.147,1.544-29.295,4.115-33.039
			c2.57-3.743,1.541-17.399-0.687-29.956c-0.856-3.523,0.341-12.776,2.058-16.52c3.084-7.268,4.797-48.678,4.797-48.678h2.572
			c0,0,2.743,42.951,4.113,46.035c1.371,3.084,2.699,10.958,1.543,16.74c-2.571,13.712-0.901,26.102,1.413,32.049
			s3.213,32.048,3.213,32.048s-1.285,11.895-1.285,14.042s2.569,4.295,3.855,4.46c1.285,0.165,12.983,0,15.939,0
			s1.542-5.617-1.799-6.607c-2.186-1.652-4.756-4.626-5.914-7.27c-1.156-2.643-1.542-21.144-1.542-21.144s4.499-38.657,1.928-50.552
			c1.286-3.634,0.128-11.563,0.128-11.563s2.228-5.287,3.6-12.556c1.371-7.269-2.912-55.286-3.94-62.554
			c-1.028-7.269-0.689-11.564-2.487-18.777c-1.798-7.215-0.064-17.953,1.147-20.265c1.212-2.313,2.069-16.851,2.708-17.346
			c0.639-0.496,4.182,16.354,4.628,17.841c0.446,1.487-0.257,12.225,1.542,18.833s7.456,18.006,8.097,22.632
			c0.644,4.626-1.028,8.095-1.926,10.077c-0.901,1.982-2.314,16.85-0.516,16.52c1.801-0.331,2.572-9.582,4.243-9.912
			c1.671-0.331,1.927,3.965,1.927,3.965s0.642,4.295-0.771,7.764s0.256,12.39,1.413,10.738c1.158-1.652,4.629-6.607,4.501-9.416
			c-0.13-2.809,1.799-15.694,0.515-18.833c-1.286-3.139-2.058-11.399-2.058-11.399s-0.77-25.11-1.929-31.883
			c-1.157-6.773-4.242-13.712-4.242-13.712s-1.028-15.528-3.6-23.788c1.029-2.147-1.413-26.597-12.854-26.597
			c-6.765-3.139-12.982-3.799-13.881-6.442c-0.9-2.644-0.643-4.625-0.387-8.921c2.314-1.487,3.085-6.773,3.085-6.773
			c2.186-0.165,1.285-8.755,1.029-10.408c-0.258-1.652-1.929-2.313-1.929-2.313s-0.128-5.617-0.771-9.912
			c-1.542-8.756-17.48-8.756-19.281-0.827c-1.798,5.121-1.798,12.06-1.798,12.06s-1.544,0.165-2.059,1.321
			c-0.513,1.156-0.127,9.416,2.059,9.582c0.128,4.956,3.341,8.26,3.341,8.26C135.651,144.856,135.693,151.464,134.881,152.29z"/>
		<path fill="none" stroke="#000000" stroke-miterlimit="10" d="M162.16,160.054c1.232-0.083-10.678,0.248-11.171,0.991
			c-0.493,0.744-3.559,2.258-3.559,2.258"/>
		<path fill="none" stroke="#000000" stroke-miterlimit="10" d="M140.722,163.441c0,0-2.628-0.909-4.107-1.983
			s-14.292-0.331-11.746-0.413"/>
		<path fill="none" stroke="#000000" stroke-miterlimit="10" d="M140.64,196.211c-0.39,0.661,2.344-4.356,3.287-4.604
			c0.943-0.248,4.476,5.369,4.052,4.625"/>
		<path fill="none" stroke="#000000" stroke-miterlimit="10" d="M162.735,196.645c-0.93,1.625-6.516,5.865-8.296,6.278"/>
		<path fill="none" stroke="#000000" stroke-miterlimit="10" d="M162.489,200.775c-0.664,1.625-4.645,5.865-5.914,6.278"/>
		<path fill="none" stroke="#000000" stroke-miterlimit="10" d="M162.817,205.979c-0.47,1.154-3.291,4.166-4.189,4.46"/>
		<path fill="none" stroke="#000000" stroke-miterlimit="10" d="M124.042,197.507c0.992,1.567,6.607,5.467,8.339,5.774"/>
		<path fill="none" stroke="#000000" stroke-miterlimit="10" d="M124.531,201.614c0.735,1.583,4.812,5.58,6.054,5.916"/>
		<path fill="none" stroke="#000000" stroke-miterlimit="10" d="M124.534,206.828c0.521,1.125,3.409,3.965,4.289,4.205"/>
		<path fill="none" stroke="#000000" stroke-miterlimit="10" d="M133.302,254.712c0,0-0.657-10.242-1.314-11.894
			c-0.657-1.652-2.615-5.341-2.3-4.735"/>
		<path fill="none" stroke="#000000" stroke-miterlimit="10" d="M153.453,255.373c0,0-0.411-9.912,0.083-12.142
			c0.493-2.23,3.532-7.764,2.792-6.277"/>
		<path fill="#FBB040" stroke="#000000" stroke-miterlimit="10" d="M117.742,286.211c1.028,0.661,22.709,3.854,23.651,3.304
			c0.943-0.553,0.515-10.795,0.515-10.795c0.858,0.585,1.942,0.836,2.893,0.002c0,0-0.065,10.46,0.534,11.231
			c0.601,0.772,23.483-1.21,23.909-2.862c0.428-1.652-2.483-35.022-3.341-36.123c-8.827,3.524-36.419,4.954-44.818-0.221
			C120.142,252.84,116.714,285.55,117.742,286.211z"/>
	</g>
	<g>
		<path fill="#FFFFFF" stroke="#000000" stroke-width="2" stroke-miterlimit="10" d="M312.516,152.246
			c-1.649,1.211-7.039,1.871-15.181,6.601c-17.327-0.33-17.162,23.762-17.162,23.762s-5.446,9.57-8.581,25.742
			c-7.92,14.026-5.28,36.467-6.436,41.583c-1.155,5.115-5.611,16.997-2.31,28.382c1.815,4.291,4.29,12.541,5.445,12.706
			c1.156,0.165,2.806-5.775,2.64-8.086c-0.165-2.31-2.232-4.102-2.519-6.589c-0.286-2.486,1.102-5.856,1.859-5.952
			c1.32-0.165,2.64,9.406,4.62,7.92c1.981-1.485,2.146-8.251,2.146-8.251c1.484-2.804,0.164-9.075-1.98-10.23
			c-2.145-1.155-1.651-5.61-0.66-8.746c0.99-3.135,5.94-10.396,8.745-16.171c2.806-5.776-0.33-17.656,2.145-18.976
			s7.096-18.977,7.096-18.977s1.484,10.066,4.455,12.046c2.971,1.979,4.893,15.18,3.354,20.9c-1.538,5.722-4.182,12.542-5.06,20.022
			c-0.877,7.481-7.26,50.385-5.72,60.506c1.541,10.12,3.96,14.74,3.96,14.74s0.44,11.881,1.979,14.522
			c-3.3,10.778-1.099,37.619,0.661,43.563c1.759,5.939,3.081,18.7,1.98,21.781c-1.102,3.08-9.076,11.882-12.541,13.201
			c-3.465,1.321-1.155,4.62,0.99,4.785c2.145,0.165,16.997,0.495,18.812,0.495c1.815,0,5.28-3.796,4.62-5.776
			c-0.66-1.979-1.65-9.9-1.32-12.045c0.33-2.145,1.98-29.264,5.28-33.002c3.3-3.741,1.979-17.381-0.881-29.924
			c-1.1-3.521,0.439-12.761,2.64-16.502c3.96-7.258,6.162-48.622,6.162-48.622h3.3c0,0,3.521,42.9,5.28,45.981
			c1.76,3.081,3.465,10.948,1.98,16.723c-3.3,13.696-1.155,26.072,1.815,32.014c2.971,5.94,4.125,32.011,4.125,32.011
			s-1.65,11.882-1.65,14.027c0,2.145,3.301,4.29,4.95,4.455c1.65,0.165,16.667,0,20.461,0c3.795,0,1.981-5.611-2.31-6.601
			c-2.805-1.65-6.105-4.619-7.59-7.26s-1.979-21.122-1.979-21.122s5.775-38.613,2.475-50.493c1.649-3.631,0.165-11.552,0.165-11.552
			s2.859-5.28,4.62-12.541c1.761-7.261-3.739-55.225-5.059-62.485c-1.32-7.261-0.883-11.551-3.192-18.757
			c-2.309-7.206-0.825-18.592,1.155-20.572c2.311-1.98,3.796-16.997,3.796-16.997s3.3,16.831,5.94,17.821
			c2.97,0.33-0.331,12.211,1.979,18.812c2.311,6.601,9.571,17.986,10.396,22.606c0.826,4.621-1.32,8.086-2.475,10.066
			c-1.155,1.98-2.97,16.831-0.66,16.501s3.3-9.571,5.446-9.901c2.145-0.331,2.475,3.96,2.475,3.96s0.825,4.291-0.99,7.755
			c-1.815,3.465,0.33,12.375,1.815,10.726c1.485-1.65,5.94-6.6,5.775-9.405c-0.165-2.806,2.311-15.676,0.661-18.811
			c-1.65-3.136-2.641-11.386-2.641-11.386s-0.99-25.083-2.475-31.848c-1.485-6.765-5.445-13.696-5.445-13.696
			s-1.32-15.511-4.62-23.762c1.32-2.146-1.815-26.567-16.501-26.567c-12.046-5.775-16.667-3.795-17.822-6.436
			c-1.155-2.64-0.825-4.62-0.495-8.911c2.97-1.485,3.96-6.766,3.96-6.766c2.805-0.164,1.65-8.746,1.32-10.396
			c-0.331-1.649-2.475-2.31-2.475-2.31s-0.165-5.609-0.991-9.9c-1.98-8.745-22.441-8.745-24.751-0.825
			c-2.311,5.116-2.311,12.045-2.311,12.045s-1.98,0.165-2.641,1.32c-0.66,1.155-0.164,9.406,2.641,9.571
			c0.221,5.556,4.291,8.25,4.291,8.25C313.506,144.82,314.166,151.036,312.516,152.246z"/>
		<path fill="none" stroke="#000000" stroke-miterlimit="10" d="M317.249,195.259c-0.882,0,2.888,0.221,4.097-0.962
			s2.011-4.949,3.384-5.088c1.374-0.138,2.559,3.604,3.575,4.951c1.016,1.346,5.802,0.026,3.987,0.439"/>
		<path fill="none" stroke="#000000" stroke-miterlimit="10" d="M301.738,160.607c-1.21,0,11.77,0.219,13.971,0.99
			c2.2,0.77,4.51,4.51,3.74,3.41"/>
		<path fill="none" stroke="#000000" stroke-miterlimit="10" d="M329.344,164.909c-0.742,1.145,2.008-2.914,4.018-3.643
			s17.66-2.29,14.594-1.873"/>
		<path fill="none" stroke="#000000" stroke-miterlimit="10" d="M337.983,254.499c0,0,0.11-8.635,4.235-13.256"/>
		<path fill="none" stroke="#000000" stroke-miterlimit="10" d="M309.602,254.664c0,0,0.054-9.46-3.576-13.091"/>
		<path fill="#8DC63F" stroke="#000000" stroke-miterlimit="10" d="M290.516,286.017c1.32,0.66,29.152,3.849,30.362,3.3
			c1.21-0.552,0.661-10.783,0.661-10.783c0.777,1.136,2.735,1.497,3.715,0.002c0,0-0.086,10.449,0.685,11.219
			c0.771,0.771,30.144-1.209,30.693-2.86c0.549-1.649-3.189-34.981-4.291-36.082c-11.332,3.52-46.754,4.949-57.537-0.221
			C293.595,252.683,289.196,285.356,290.516,286.017z"/>
	</g>
	<g>
		<path fill="#FFFFFF" stroke="#000000" stroke-width="2" stroke-miterlimit="10" d="M510.272,152.246c0,0-8.092,2.641-15.506,6.601
			c-17.697-0.33-18.014,20.46-18.85,23.542s-4.135,14.302-9.645,30.363c-5.271,11.441-3.193,32.067-4.373,37.183
			s-5.73,16.996-2.359,28.382c1.855,4.29,4.381,12.541,5.563,12.706c1.18,0.165,2.865-5.775,2.697-8.085
			c-0.17-2.31-2.283-4.102-2.574-6.589c-0.293-2.487,1.125-5.856,1.898-5.952c1.348-0.165,2.697,9.406,4.721,7.921
			c2.021-1.485,2.189-8.251,2.189-8.251c1.518-2.805,0.17-9.076-2.021-10.23c-2.191-1.155-1.688-5.61-0.674-8.746
			c1.012-3.135,6.066-10.396,8.932-16.171s2.531-16.227,4.613-18.977c2.078-2.75,3.393-18.921,4.826-18.976
			c0,0,0.021,13.2,1.91,17.381c1.887,4.181,2.543,12.265,0.234,16.721c-6.928,9.901-0.822,19.032-0.822,19.032
			c0,5.226-9.922,37.024-7.436,53.962c2.486,16.938,7.123,21.119,7.123,21.119s-1.09,13.861,0.482,16.502
			c-5.119,14.3,0.418,35.64,2.215,41.583c1.797,5.94,3.146,18.7,2.023,21.781c-1.125,3.081-9.271,11.881-12.811,13.201
			s-1.178,4.62,1.012,4.785c2.191,0.165,17.359,0.495,19.215,0.495c1.854,0,5.393-3.795,4.719-5.775s-1.686-9.9-1.348-12.046
			c0.336-2.146,2.021-29.264,5.393-33.003c3.371-3.741,0.195-24.644-0.02-28.822c-0.217-4.18,1.391-13.123,4.293-17.934
			c5.666-9.403,2.791-48.237,5.467-48.292c2.674-0.055,0.365,37.238,4.252,46.807c1.797,4.421,4.635,14.577,3.346,18.758
			c-1.293,4.181,0.359,23.212,3.393,29.152c3.035,5.94,4.213,32.013,4.213,32.013s-1.684,11.881-1.684,14.026
			s3.369,4.29,5.055,4.455s17.023,0,20.9,0c3.875,0,2.021-5.61-2.359-6.601c-2.867-1.65-6.236-4.62-7.754-7.261
			c-1.518-2.64-2.107-14.521-1.141-18.481c0.967-3.96,8.008-35.862,1.648-53.134c1.684-3.63,0.166-11.551,0.166-11.551
			s5.008-3.742,7.58-19.143s-6.541-54.728-6.541-54.728s5.924-14.796-1.664-23.597c-2.479-4.401,0.158-10.451,1.398-14.356
			c1.238-3.906-0.088-19.087,0.576-19.527c0.662-0.439,3.111,15.841,4.746,18.922c1.637,3.081,0.984,11.11,3.344,17.711
			s9.775,17.986,10.617,22.607c0.844,4.62-1.348,8.085-2.527,10.066c-1.18,1.98-3.033,16.831-0.674,16.501s3.371-9.571,5.561-9.901
			c2.191-0.33,2.529,3.96,2.529,3.96s0.842,4.291-1.012,7.755c-1.854,3.465,0.336,12.375,1.854,10.726s6.068-6.6,5.9-9.405
			c-0.17-2.805,2.359-15.676,0.674-18.812s-2.697-11.386-2.697-11.386s-1.01-25.082-2.527-31.847
			c-1.518-6.766-2.721-10.176-4.242-13.696s-3.957-20.903-5.16-24.642c-1.201-3.739-2.732-25.687-17.734-25.687
			c-12.303-5.775-17.021-3.795-18.203-6.436c-1.18-2.64-1.094-5.941,0.266-7.921c1.357-1.979,3.275-7.755,3.275-7.755
			c2.865-0.165,1.686-8.746,1.348-10.396c-0.338-1.65-2.529-2.31-2.529-2.31s-0.166-5.61-1.01-9.901
			c-2.021-8.746-22.922-8.746-25.281-0.825c-2.359,5.115-2.359,12.046-2.359,12.046s-2.023,0.165-2.697,1.32
			c-0.674,1.155-0.17,9.406,2.697,9.571c0.168,4.95,2.629,6.05,3.721,8.25C511.713,145.206,511.956,149.44,510.272,152.246z"/>
		<path fill="#FBB040" stroke="#000000" stroke-miterlimit="10" d="M484.542,285.136c1.35,0.66,33.035,4.73,34.27,4.181
			c1.238-0.552,0.676-10.782,0.676-10.782c0.793,1.136,2.793,1.497,3.793,0.002c0,0-0.088,10.449,0.701,11.218
			c0.785,0.771,33.926-2.089,34.486-3.739c0.561-1.65-5.422-33.387-6.545-34.488c-11.574,3.52-49.547,4.84-60.561-0.33
			C490.127,253.288,483.194,284.476,484.542,285.136z"/>
		<path fill="#FFFFFF" stroke="#000000" stroke-width="2" stroke-miterlimit="10" d="M498.954,249.218
			c-0.744-0.99,0.391,0.484,0.605,0.715c8.482,9.162,36.006,7.458,44.842-0.112c0.471-0.405,2.611-2.666,1.25-1.264"/>
		<path fill="#FFFFFF" stroke="#000000" stroke-width="2" stroke-miterlimit="10" d="M488.172,191.85
			c1.74,5.83,4.857,8.631,7.717,9.874c0.756,0.328,3.834,1.236,2.184,0.686"/>
		<path fill="#FFFFFF" stroke="#000000" stroke-width="2" stroke-miterlimit="10" d="M553.901,189.649
			c-0.832,2.926-2.162,6.905-6.92,9.449c-0.525,0.281-3.709,1.708-1.707,0.787"/>
	</g>
	<g>
		<path fill="#FFFFFF" stroke="#000000" stroke-width="2" stroke-miterlimit="10" d="M693.1,151.839
			c-1.049,1.158-9.133,2.861-17.709,6.822c-20.469-0.33-20.783,22.119-20.783,22.119s-5.924,11.224-9.627,27.4
			c-6.674,8.311-6.238,36.48-7.604,41.596c-1.365,5.117-6.629,17.002-2.729,28.391c2.143,4.292,5.068,12.545,6.432,12.71
			c1.365,0.165,3.314-5.777,3.121-8.088c-0.197-2.311-2.639-4.103-2.977-6.591s1.301-5.858,2.195-5.955
			c1.561-0.165,3.119,9.409,5.459,7.923s2.533-8.253,2.533-8.253c1.756-2.806,0.195-9.078-2.34-10.234
			c-2.533-1.155-1.947-5.611-0.779-8.749c1.17-3.136,6.238-11.611,8.467-16.836c2.23-5.225,3.518-14.748,5.926-17.992
			c2.408-3.244,6.049-19.204,6.855-19.312c0.809-0.108,0.395,9.516,2.721,11.885c1.309,4.679-17.68,23.166-4.559,40.44
			c-7.695,23.332-10.055,43.082-5.738,57.719c4.316,14.636,7.863,16.284,8.746,18.212c0.883,1.928,0.521,11.884,2.34,14.524
			c-3.898,10.783-1.299,37.633,0.779,43.576c2.08,5.943,3.641,18.707,2.34,21.789c-1.301,3.083-10.721,11.884-14.816,13.206
			c-4.094,1.319-1.363,4.621,1.17,4.787c2.537,0.164,20.08,0.494,22.225,0.494c2.143,0,6.238-3.796,5.457-5.777
			c-0.779-1.981-1.949-9.903-1.559-12.05c0.391-2.145,2.34-29.272,6.236-33.011c3.9-3.742,1.432-27.242,0.148-30.265
			c-1.285-3.021,1.25-8.861,5.662-15.681c4.412-6.82,3.619-48.367,4.779-48.474c1.158-0.106,2.07,42.088,4.158,47.153
			c2.086,5.066,6.15,13.535,4.203,17.883c-3.133,6.659,1.518,23.108,5.029,29.053c3.506,5.94,4.871,32.021,4.871,32.021
			s-1.949,11.884-1.949,14.03c0,2.145,3.898,4.291,5.85,4.456c1.949,0.166,19.688,0,24.172,0c4.482,0,2.338-5.611-2.729-6.603
			c-3.314-1.651-7.213-4.622-8.967-7.263c-1.756-2.642-2.342-21.128-2.342-21.128s6.822-38.626,2.924-50.51
			c1.949-3.632-0.258-8.474,0.525-9.847c0.781-1.373,1.441-2.26,5.297-15.078c3.857-12.818,0.977-52.768-3.771-60.358
			c13.055-16.669-3.561-36.147-2.914-41.982c2.066-1.923,1.816-15.573,2.619-15.681c0.803-0.108,3.061,15.458,6.51,18.652
			c3.449,3.193,3.771,15.128,5.053,18.982c1.279,3.854,9.1,17.002,10.076,21.624c0.975,4.622-1.561,8.088-2.926,10.069
			c-1.363,1.98-3.508,16.836-0.777,16.506c2.727-0.33,3.896-9.574,6.432-9.904c2.535-0.33,2.924,3.962,2.924,3.962
			s0.977,4.292-1.172,7.758c-2.143,3.467,0.393,12.381,2.148,10.729c1.752-1.65,7.016-6.603,6.82-9.408
			c-0.193-2.806,2.73-15.681,0.781-18.817s-3.121-11.39-3.121-11.39s-2.045-24.651-2.754-29.216s-5.545-13.923-6.602-16.341
			c-1.057-2.419-5.111-21.351-5.627-24.265c-0.518-2.914-1.977-26.08-19.326-26.08c-14.23-5.777-19.689-3.797-21.053-6.438
			c-1.363-2.641-1.076-6.549,0.094-7.813c2.527-1.593,4-7.868,4-7.868c3.314-0.165,1.951-8.748,1.559-10.399
			c-0.391-1.65-2.922-2.311-2.922-2.311s-0.197-5.613-1.172-9.904c-2.338-8.748-26.512-8.748-29.24-0.825
			c-2.729,5.116-2.729,12.05-2.729,12.05s-2.34,0.165-3.119,1.32c-0.781,1.156-0.195,9.409,3.119,9.574
			c0.193,4.952,3.67,7.534,4.504,9.023C694.764,145.075,694.147,150.682,693.1,151.839z"/>
		<path fill="#EF4136" stroke="#000000" stroke-miterlimit="10" d="M660.516,283.042c1.561,0.667,41.256,5.44,42.688,4.885
			c1.43-0.557,0.809-9.859,0.811-10.382c1.086,0.72,1.813,1.069,3.023,0.182c-0.25,2.612-0.131,10.203,0.781,10.979
			c0.91,0.778,40.387-2.049,40.35-3.832c-0.338-16.16-4.633-32.875-5.934-33.985c-13.385,3.554-62.199,2.054-74.936-3.166
			C665.87,249.834,658.958,282.375,660.516,283.042z"/>
		<path fill="none" stroke="#000000" stroke-width="2" stroke-miterlimit="10" d="M743.706,183.25
			c-0.316-2.18,1.934,8.844-6.271,13.102c-0.57,0.295-4.354,1.783-1.865,0.783"/>
		<path fill="none" stroke="#000000" stroke-width="2" stroke-miterlimit="10" d="M667.354,187.083
			c-0.055-3.499-1.072,7.83,7.352,9.757c0.777,0.178,3.896,1.294,2.258,0.739"/>
		<path fill="#FFFFFF" stroke="#000000" stroke-width="2" stroke-miterlimit="10" d="M675.661,246.557
			c-1.666-1.832,0.5,0.571,0.756,0.848c13.955,15.06,43.656,14.533,57.525,1.908c0.654-0.595,5.412-5.392,1.852-1.866"/>
	</g>
</g>
</svg>
