<?xml version="1.0" encoding="utf-8"?>
<!-- Generator: Adobe Illustrator 18.1.1, SVG Export Plug-In . SVG Version: 6.00 Build 0)  -->
<!DOCTYPE svg PUBLIC "-//W3C//DTD SVG 1.1//EN" "http://www.w3.org/Graphics/SVG/1.1/DTD/svg11.dtd">
<svg version="1.1" xmlns="http://www.w3.org/2000/svg" xmlns:xlink="http://www.w3.org/1999/xlink" x="0px" y="0px"
	 viewBox="0 0 1048 728" enable-background="new 0 0 1048 728" xml:space="preserve">
<g id="Layer_1">
</g>
<g id="Header_text">
</g>
<g id="SP_header">
</g>
<g id="hip_x2F_knee">
</g>
<g id="guts">
	<g id="heart">
	</g>
	<g id="Kidney">
	</g>
</g>
<g id="Pancreas">
</g>
<g id="txt">
</g>
<g id="little_txt">
</g>
<g id="SP_txt">
</g>
<g id="SP_little_txt">
</g>
<g id="shot">
</g>
<g id="Insulin">
</g>
<g id="fingerPrik">
	<g>
		<g>
			<path fill="#754C29" stroke="#754C29" stroke-miterlimit="10" d="M729.2,10.7c27.3-0.7,32.9,18.1,33.8,24.5
				c0.9,6.4,4.4,31.8,2.6,36.6c-1.8,4.8-9.9,5.1-15.1,5.4c-5.3,0.4-38.3,1-42.9,0c-4.6-1-11.3-2.4-12.4-6.9
				c-1.1-4.5-1.4-28.6-0.4-33.7C695.7,31.5,701.9,11.5,729.2,10.7z"/>
			<path fill="#FFFFFF" stroke="#000000" stroke-width="2" stroke-miterlimit="10" d="M700.2,51.5c0.1,10.2,7.2,12.1,10.4,17.4
				l0.3,15.3c-6-3.4-28.4-1.6-41,3.1c-12.5,4.7-14.2,22.1-18.3,36.1c-4.1,14-14.1,38.4-13.5,53.5c0.5,15.1,0.2,36-0.2,41.1
				c-0.3,5.1-1.8,16.3-3.7,22c-1.9,5.7,11.3,14.7,13.7,16.9c2.4,2.2,6.4-3.6,4.5-7c-1.9-3.4-3.7-8.3-3.2-11.8
				c0.5-3.5,3.8,8.6,6.4,7.9c2.6-0.6,1.9-10.2,1.9-10.2s-4.3-8.6-4.6-12.4c-0.3-3.8,0.6-18.4,3.1-22.4c2.6-4,9.5-18.1,12.1-24.5
				c2.6-6.4,4.1-21.7,4.1-21.7c7.1-5.5,7.4-26.6,8.3-26.3c1,0.3-1.6,17.4,7.3,22c0,0-7.3,9.3-7.9,23.3c-7.1,5.3-11.8,9.5-11.3,25.3
				c-1.9,5.7-6,38-1.7,61.3c4.3,21.1,14,33.4,17.4,43.5c0,0-2.2,7.9,1,22.6c-0.1,7.2-0.7,15.7,0.3,24.9c1,9.2,10.2,31.4,12.1,38
				c1.9,6.7,1.3,12.5,0.3,18.6c-1,6.1-11.8,9.3-13.4,12.9c-1.6,3.6,28.1,4.4,31.3,2.1c3.2-2.3,6.4-7.4,5.7-10.8
				c-0.6-3.4-2.2-7.8-1.9-12.1c0.3-4.2-2.9-20.3,0-28c2.9-7.6,9-25.7,2.5-44.5c0,0,2.2-9.7,0.8-16c7.1-27.8,2.8-73.6,2.8-73.6
				l3.7,0.7c0,0-6.6,49.7,1.5,71c-1.6,3.8-0.4,13.3,0.6,19.1c-3,5.6-2.4,32.8,1.1,41.5c3.5,8.7,2.2,29.2,2.2,29.2s-3.2,9.6-2.9,12.1
				c0.3,2.5,7.5,9.5,10.5,10.8c3,1.3,24.7,2.1,26.8,0.6c2.1-1.5-10.8-10-12.5-12.7c-1.6-2.7-2.6-15,0-21.8
				c2.6-6.8,10.2-22.9,12.5-28.6c1.2-3,2.9-20.1-0.1-35.4c2.3-7,3.6-16.2,3.3-21.5c3.7-7.1,8.6-16.1,14.4-32.5
				c6.1-17.2-2.6-72.5-2.6-72.5c2.7-15.9-8.9-23.5-13.1-28c0.1-10.4-3.2-20.3-3.2-20.3c8-6.8,2.2-22.7,3.7-22.9
				c3,0.4,4,16.3,8.9,19.1c3.5,3.8,2.2,21.3,6.5,29.9c4.3,8.6,8.6,15.5,11.5,20.4c2.9,5,5.7,17.1,5.7,21.2c0,4.1-5.4,8.4-5.2,11.1
				c0.2,2.7-0.5,15.7,1,16.4c1.4,0.6,4.5-7.8,6.5-10.3c1.9-2.5,1.7,9.2,0.5,11.8c-1.2,2.5,2.4,10.5,3.4,8.3c1-2.2,11.1-10.3,11.7-18
				c0.6-7.7-3.3-18-4.3-24.6c-1-6.7-0.1-36.9-1.1-44.2c-0.9-7.3-7.8-30-11.5-36.1c-3.7-6.1-3.1-34.4-17.7-44.9
				c-7.7-5.9-32.3-5.9-41.4-3.2V71.3c2.6-2.5,9.6-10,9.5-20c-8.9-2.4-26.8-22.6-26.8-22.6S713.9,46.3,700.2,51.5z"/>
			<path fill="#EF4136" stroke="#000000" stroke-miterlimit="10" d="M665.2,247.8c1,1.8,59.4,2.8,60.4,2.2c2.2-1,1.7-10.6,2.5-10.7
				c0.7-0.1,0.1,10.7,2.1,10.6c1,0.5,59.2-1.1,60-1.9c5-14.8,0.6-40.9-5.2-46c-31.6,20.3-92.3,16.8-117.1-0.1
				C662.8,206.9,657.4,230.7,665.2,247.8z"/>
			<path fill="#EF4136" stroke="#000000" stroke-miterlimit="10" d="M688.4,154c17.6-3,62.3-2.4,79.7,0.8c1.1,0,1.8-3.1,2.5-5.7
				c6.6-6.8,5.9-16.3,0-21.7c-10.4-9.4-6.6-44.4-6.8-45.2c-0.2-0.8-8.4-1.3-8.7-0.4c-0.3,0.8,2.8,40-27.5,41.2
				c-30.3,1.2-30.7-39.7-31-40.9c-0.3-1.2-8.9,0-8.9,0.9c0,1,6.2,38.3-6.5,48.7c-4.8,3.9-3.1,13.9,4,17.8
				C686.4,151.8,687.8,154.2,688.4,154z"/>
			<path fill="#FFFFFF" stroke="#000000" stroke-width="2" stroke-miterlimit="10" d="M680.1,173.9c6.6-5.2,11.5-3.9,10-4.2"/>
			<path fill="#FFFFFF" stroke="#000000" stroke-width="2" stroke-miterlimit="10" d="M771.9,170.7c-3.5-2.8-8.8-1.9-6.9-2"/>
			<path fill="#FFFFFF" stroke="#000000" stroke-width="2" stroke-miterlimit="10" d="M681.7,203.5c-1.9-2.4,1.3,1.8,2,2.5
				c19.5,20.8,65.9,25,84.8-0.7c0.4-0.5,2.4-3.5,1.1-1.6"/>
		</g>
		<text transform="matrix(1 0 0 1 707.2656 190.6504)" font-family="'MyriadPro-BoldCond'" font-size="28">41.5</text>
	</g>
	<g>
		<polygon fill="#FBB040" stroke="#FBB040" stroke-miterlimit="10" points="550,487.7 564.7,458.1 564.5,468.7 639.4,468.6 
			639.4,506.4 564.5,506.6 564.8,517.3 		"/>
		<polygon fill="#FBB040" stroke="#FBB040" stroke-miterlimit="10" points="808.5,506.1 735.9,506.2 735.9,468.7 808.5,468.5 		"/>
		<polygon fill="#EF4136" stroke="#EF4136" stroke-miterlimit="10" points="899.6,487.7 884.9,458.1 885.1,468.7 810.2,468.6 
			810.2,506.4 885.1,506.6 884.9,517.3 		"/>
		<polygon fill="#8DC63F" stroke="#8DC63F" stroke-miterlimit="10" points="734.4,506.1 640.5,506.3 640.5,468.7 734.4,468.5 		"/>
		<text transform="matrix(1 0 0 1 628.667 519.7695)" font-family="'MyriadPro-Bold'" font-size="13.3">18.5</text>
		<text transform="matrix(1 0 0 1 728.417 519.7695)" font-family="'MyriadPro-Bold'" font-size="13.3">25</text>
		<text transform="matrix(1 0 0 1 803.7593 519.7695)" font-family="'MyriadPro-Bold'" font-size="13.3">30</text>
		<text transform="matrix(0.8583 0 0 1 565.8398 494.9238)" font-family="'MyriadPro-Semibold'" font-size="14.25">Underweight</text>
		<text transform="matrix(0.8583 0 0 1 667.8506 494.9238)" font-family="'MyriadPro-Semibold'" font-size="14.25">Normal</text>
		<text transform="matrix(0.8583 0 0 1 741.0459 494.9238)" font-family="'MyriadPro-Semibold'" font-size="14.25">Overweight</text>
		<text transform="matrix(0.8583 0 0 1 834.5503 494.9238)" font-family="'MyriadPro-Semibold'" font-size="14.25">Obese</text>
	</g>
	<g>
		<g>
			
				<image overflow="visible" opacity="0.75" width="325" height="247" xlink:href="305581D9C86E64F6.png"  transform="matrix(0.24 0 0 0.24 813.3301 428.4707)">
			</image>
			<g>
				<path fill="#FFFFFF" d="M878.7,460.7c0,7.9-6.6,14.2-14.8,14.2h-30.4c-8.2,0-14.8-6.4-14.8-14.2v-12.6c0-7.9,6.6-14.2,14.8-14.2
					h30.4c8.2,0,14.8,6.4,14.8,14.2V460.7z"/>
				<path fill="none" stroke="#000000" stroke-width="5" stroke-miterlimit="10" d="M878.7,460.7c0,7.9-6.6,14.2-14.8,14.2h-30.4
					c-8.2,0-14.8-6.4-14.8-14.2v-12.6c0-7.9,6.6-14.2,14.8-14.2h30.4c8.2,0,14.8,6.4,14.8,14.2V460.7z"/>
			</g>
		</g>
		<text transform="matrix(1 0 0 1 830.3008 462.6797)" font-family="'MyriadPro-BoldCond'" font-size="24.3298">41.5</text>
	</g>
</g>
</svg>
