<?xml version="1.0" encoding="utf-8"?>
<!-- Generator: Adobe Illustrator 18.1.1, SVG Export Plug-In . SVG Version: 6.00 Build 0)  -->
<!DOCTYPE svg PUBLIC "-//W3C//DTD SVG 1.1//EN" "http://www.w3.org/Graphics/SVG/1.1/DTD/svg11.dtd">
<svg version="1.1" xmlns="http://www.w3.org/2000/svg" xmlns:xlink="http://www.w3.org/1999/xlink" x="0px" y="0px"
	 viewBox="0 0 1048 728" enable-background="new 0 0 1048 728" xml:space="preserve">
<g id="Layer_1">
</g>
<g id="Header_text">
</g>
<g id="SP_header">
</g>
<g id="hip_x2F_knee">
</g>
<g id="guts">
	<g id="heart">
	</g>
	<g id="Kidney">
	</g>
</g>
<g id="Pancreas">
</g>
<g id="txt">
</g>
<g id="little_txt">
</g>
<g id="SP_txt">
</g>
<g id="SP_little_txt">
</g>
<g id="shot">
</g>
<g id="Insulin">
</g>
<g id="fingerPrik">
	<g>
		<g>
			<path fill="#FFFFFF" stroke="#000000" stroke-width="2" stroke-miterlimit="10" d="M697.5,74.1c0,0-10.5,3.4-20.2,8.6
				c-23.1-0.4-23.5,26.7-24.6,30.7c-1.1,4-5.4,18.6-12.6,39.6c-6.9,14.9-4.2,41.8-5.7,48.5c-1.5,6.7-7.5,22.2-3.1,37
				c2.4,5.6,5.7,16.3,7.2,16.6c1.5,0.2,3.7-7.5,3.5-10.5c-0.2-3-3-5.3-3.4-8.6c-0.4-3.2,1.5-7.6,2.5-7.8c1.8-0.2,3.5,12.3,6.2,10.3
				c2.6-1.9,2.9-10.8,2.9-10.8c2-3.7,0.2-11.8-2.6-13.3c-2.9-1.5-2.2-7.3-0.9-11.4c1.3-4.1,7.9-13.6,11.6-21.1
				c3.7-7.5,3.3-21.2,6-24.7c2.7-3.6,4.4-24.7,6.3-24.7c0,0,0,17.2,2.5,22.7c2.5,5.4,3.3,16,0.3,21.8c-9,12.9-1.1,24.8-1.1,24.8
				c0,6.8-12.9,48.3-9.7,70.4c3.2,22.1,9.3,27.5,9.3,27.5s-1.4,18.1,0.6,21.5c-6.7,18.6,0.5,46.5,2.9,54.2
				c2.3,7.7,4.1,24.4,2.6,28.4c-1.5,4-12.1,15.5-16.7,17.2c-4.6,1.7-1.5,6,1.3,6.2c2.9,0.2,22.6,0.6,25.1,0.6c2.4,0,7-5,6.2-7.5
				c-0.9-2.6-2.2-12.9-1.8-15.7c0.4-2.8,2.6-38.2,7-43c4.4-4.9,0.3-32.1,0-37.6c-0.3-5.4,1.8-17.1,5.6-23.4
				c7.4-12.3,3.6-62.9,7.1-63c3.5-0.1,0.5,48.5,5.5,61c2.3,5.8,6,19,4.4,24.5c-1.7,5.5,0.5,30.3,4.4,38c4,7.7,5.5,41.7,5.5,41.7
				s-2.2,15.5-2.2,18.3c0,2.8,4.4,5.6,6.6,5.8c2.2,0.2,22.2,0,27.3,0c5.1,0,2.6-7.3-3.1-8.6c-3.7-2.2-8.1-6-10.1-9.5
				c-2-3.4-2.7-18.9-1.5-24.1c1.3-5.2,10.4-46.8,2.1-69.3c2.2-4.7,0.2-15.1,0.2-15.1s6.5-4.9,9.9-25c3.4-20.1-8.5-71.3-8.5-71.3
				s7.7-19.3-2.2-30.8c-3.2-5.7,0.2-13.6,1.8-18.7c1.6-5.1-0.1-24.9,0.8-25.5c0.9-0.6,4.1,20.7,6.2,24.7c2.1,4,1.3,14.5,4.4,23.1
				c3.1,8.6,12.7,23.4,13.8,29.5c1.1,6-1.8,10.5-3.3,13.1c-1.5,2.6-4,21.9-0.9,21.5c3.1-0.4,4.4-12.5,7.2-12.9
				c2.9-0.4,3.3,5.2,3.3,5.2s1.1,5.6-1.3,10.1c-2.4,4.5,0.4,16.1,2.4,14c2-2.2,7.9-8.6,7.7-12.3c-0.2-3.7,3.1-20.4,0.9-24.5
				c-2.2-4.1-3.5-14.8-3.5-14.8s-1.3-32.7-3.3-41.5c-2-8.8-3.5-13.3-5.5-17.9c-2-4.6-5.2-27.3-6.7-32.1c-1.6-4.9-3.6-33.5-23.1-33.5
				c-16-7.5-22.2-4.9-23.7-8.4c-1.5-3.4-1.4-7.7,0.3-10.3c1.8-2.6,4.3-10.1,4.3-10.1c3.7-0.2,2.2-11.4,1.8-13.6
				c-0.4-2.2-3.3-3-3.3-3s-0.2-7.3-1.3-12.9c-2.6-11.4-29.9-11.4-33-1.1c-3.1,6.7-3.1,15.7-3.1,15.7s-2.6,0.2-3.5,1.7
				c-0.9,1.5-0.2,12.3,3.5,12.5c0.2,6.5,3.4,7.9,4.9,10.8C699.4,64.9,699.7,70.4,697.5,74.1z"/>
			<path fill="#FBB040" stroke="#000000" stroke-miterlimit="10" d="M664,247.3c1.8,0.9,43.1,6.2,44.7,5.4
				c1.6-0.7,0.9-14.1,0.9-14.1c1,1.5,3.6,1.9,4.9,0c0,0-0.1,13.6,0.9,14.6c1,1,44.2-2.7,45-4.9c0.7-2.2-7.1-43.5-8.5-45
				c-15.1,4.6-64.6,6.3-79-0.4C671.3,205.8,662.2,246.5,664,247.3z"/>
			<path fill="#FFFFFF" stroke="#000000" stroke-width="2" stroke-miterlimit="10" d="M682.8,200.5c-1-1.3,0.5,0.6,0.8,0.9
				c11.1,11.9,46.9,9.7,58.5-0.1c0.6-0.5,3.4-3.5,1.6-1.6"/>
			<path fill="#FFFFFF" stroke="#000000" stroke-width="2" stroke-miterlimit="10" d="M668.7,125.7c2.3,7.6,6.3,11.3,10.1,12.9
				c1,0.4,5,1.6,2.8,0.9"/>
			<path fill="#FFFFFF" stroke="#000000" stroke-width="2" stroke-miterlimit="10" d="M754.4,122.9c-1.1,3.8-2.8,9-9,12.3
				c-0.7,0.4-4.8,2.2-2.2,1"/>
		</g>
		<text transform="matrix(1 0 0 1 690.7793 179.3359)" font-family="'MyriadPro-BoldCond'" font-size="28">27.3</text>
	</g>
	<g>
		<polygon fill="#FBB040" stroke="#FBB040" stroke-miterlimit="10" points="537.2,500.9 551.9,471.3 551.6,481.9 626.5,481.8 
			626.5,519.7 551.6,519.8 551.9,530.5 		"/>
		<polygon fill="#FBB040" stroke="#FBB040" stroke-miterlimit="10" points="795.7,519.3 723.1,519.4 723.1,481.9 795.7,481.8 		"/>
		<polygon fill="#EF4136" stroke="#EF4136" stroke-miterlimit="10" points="886.7,500.9 872,471.3 872.2,481.9 797.3,481.8 
			797.3,519.7 872.2,519.8 872,530.5 		"/>
		<polygon fill="#8DC63F" stroke="#8DC63F" stroke-miterlimit="10" points="721.6,519.3 627.6,519.5 627.6,481.9 721.6,481.7 		"/>
		<text transform="matrix(1 0 0 1 615.793 532.9824)" font-family="'MyriadPro-Bold'" font-size="13.3">18.5</text>
		<text transform="matrix(1 0 0 1 715.543 532.9824)" font-family="'MyriadPro-Bold'" font-size="13.3">25</text>
		<text transform="matrix(1 0 0 1 790.8853 532.9824)" font-family="'MyriadPro-Bold'" font-size="13.3">30</text>
		<text transform="matrix(0.8583 0 0 1 552.9658 508.1367)" font-family="'MyriadPro-Semibold'" font-size="14.25">Underweight</text>
		<text transform="matrix(0.8583 0 0 1 654.9766 508.1367)" font-family="'MyriadPro-Semibold'" font-size="14.25">Normal</text>
		<text transform="matrix(0.8583 0 0 1 728.1719 508.1367)" font-family="'MyriadPro-Semibold'" font-size="14.25">Overweight</text>
		<text transform="matrix(0.8583 0 0 1 821.6763 508.1367)" font-family="'MyriadPro-Semibold'" font-size="14.25">Obese</text>
	</g>
	<g>
		<g>
			
				<image overflow="visible" opacity="0.75" width="325" height="247" xlink:href="9E6C8B6769BC0DBD.png"  transform="matrix(0.24 0 0 0.24 724.0142 442.208)">
			</image>
			<g>
				<path fill="#FFFFFF" d="M789.3,474.4c0,7.9-6.6,14.2-14.8,14.2h-30.4c-8.2,0-14.8-6.4-14.8-14.2v-12.6c0-7.9,6.6-14.2,14.8-14.2
					h30.4c8.2,0,14.8,6.4,14.8,14.2V474.4z"/>
				<path fill="none" stroke="#000000" stroke-width="5" stroke-miterlimit="10" d="M789.3,474.4c0,7.9-6.6,14.2-14.8,14.2h-30.4
					c-8.2,0-14.8-6.4-14.8-14.2v-12.6c0-7.9,6.6-14.2,14.8-14.2h30.4c8.2,0,14.8,6.4,14.8,14.2V474.4z"/>
			</g>
		</g>
		<text transform="matrix(1 0 0 1 740.9854 476.416)" font-family="'MyriadPro-BoldCond'" font-size="24.3298">27.3</text>
	</g>
</g>
</svg>
