<?xml version="1.0" encoding="utf-8"?>
<!-- Generator: Adobe Illustrator 18.1.1, SVG Export Plug-In . SVG Version: 6.00 Build 0)  -->
<!DOCTYPE svg PUBLIC "-//W3C//DTD SVG 1.1//EN" "http://www.w3.org/Graphics/SVG/1.1/DTD/svg11.dtd">
<svg version="1.1" xmlns="http://www.w3.org/2000/svg" xmlns:xlink="http://www.w3.org/1999/xlink" x="0px" y="0px"
	 viewBox="0 0 1048 728" enable-background="new 0 0 1048 728" xml:space="preserve">
<g id="Layer_1">
</g>
<g id="Header_text">
</g>
<g id="SP_header">
</g>
<g id="hip_x2F_knee">
</g>
<g id="guts">
	<g id="heart">
	</g>
	<g id="Kidney">
	</g>
</g>
<g id="Pancreas">
</g>
<g id="txt">
</g>
<g id="little_txt">
</g>
<g id="SP_txt">
</g>
<g id="SP_little_txt">
</g>
<g id="shot">
</g>
<g id="Insulin">
</g>
<g id="fingerPrik">
	<g>
		<g>
			<path fill="#FFFFFF" stroke="#000000" stroke-width="3" stroke-miterlimit="10" d="M646.5,176.3c-2.1,2.3-18,5.7-34.8,13.6
				c-40.4-0.3-40.7,43.6-40.7,43.6s-11.5,22-18.6,53.7c-13,16.4-11.8,71.4-14.4,81.5c-2.6,10-12.8,33.3-5,55.6
				c4.3,8.4,10.2,24.5,12.9,24.8c2.7,0.3,6.5-11.3,6-15.9c-0.4-4.5-5.3-8-6-12.8c-0.7-4.9,2.5-11.5,4.2-11.7
				c3.1-0.3,6.3,18.4,10.9,15.4c4.6-2.9,4.9-16.2,4.9-16.2c3.4-5.5,0.3-17.8-4.8-20c-5-2.2-3.9-10.9-1.7-17.1
				c2.3-6.1,12.1-22.8,16.5-33c4.3-10.2,6.7-28.9,11.4-35.3c4.7-6.4,11.7-37.6,13.2-37.9c1.6-0.2,0.9,18.6,5.5,23.2
				c2.7,9.1-34.6,45.6-8.4,79.1c-14.8,45.7-19.2,84.4-10.5,113c8.7,28.6,15.8,31.7,17.5,35.5c1.8,3.8,1.2,23.2,4.8,28.4
				c-7.5,21.1-2,73.6,2.2,85.2c4.2,11.6,7.5,36.5,4.9,42.6c-2.5,6-21,23.4-29,26c-8.1,2.6-2.6,9.1,2.4,9.3c5,0.3,39.6,0.7,43.9,0.6
				c4.2,0,12.3-7.5,10.7-11.4c-1.6-3.9-4-19.3-3.3-23.5c0.7-4.2,4.2-57.3,11.8-64.6c7.6-7.4,2.4-53.3-0.1-59.2
				c-2.6-5.9,2.3-17.3,10.9-30.7c8.6-13.4,6.4-94.6,8.7-94.9c2.3-0.2,4.7,82.3,8.9,92.1c4.2,9.9,12.3,26.4,8.6,34.9
				c-6.1,13.1,3.3,45.2,10.3,56.7c7,11.6,10.1,62.5,10.1,62.5S707,692.8,707,697c0,4.2,7.8,8.3,11.6,8.6c3.8,0.3,38.9-0.3,47.7-0.4
				c8.8-0.1,4.5-11-5.5-12.9c-6.6-3.2-14.3-8.9-17.8-14.1c-3.5-5.1-4.9-41.3-4.9-41.3s12.9-75.6,5-98.8c3.8-7.1-0.6-16.6,0.9-19.3
				c1.5-2.7,2.8-4.4,10.2-29.6c7.4-25.1,1.2-103.2-8.3-118c25.5-32.8-7.6-70.6-6.4-82.1c4.1-3.8,3.4-30.5,4.9-30.7
				c1.6-0.2,6.3,30.2,13.1,36.4c6.9,6.2,7.7,29.5,10.2,37c2.6,7.5,18.2,33.1,20.2,42.1c2,9-3,15.8-5.6,19.7
				c-2.7,3.9-6.7,33-1.3,32.3c5.4-0.7,7.6-18.8,12.5-19.5c5-0.7,5.8,7.7,5.8,7.7s2,8.4-2.2,15.2c-4.2,6.8,1,24.2,4.4,20.9
				c3.4-3.3,13.7-13,13.3-18.5c-0.4-5.5,5.2-30.7,1.3-36.8c-3.9-6.1-6.3-22.2-6.3-22.2s-4.4-48.2-5.9-57.1
				c-1.5-8.9-11.2-27.1-13.3-31.9c-2.1-4.7-10.4-41.7-11.5-47.4c-1.1-5.7-4.3-51-38.5-50.7c-28.2-11.1-38.9-7.1-41.6-12.3
				c-2.7-5.1-2.2-12.8,0.1-15.3c5-3.2,7.8-15.4,7.8-15.4c6.5-0.4,3.7-17.1,2.9-20.4c-0.8-3.2-5.8-4.5-5.8-4.5s-0.5-11-2.5-19.4
				c-4.7-17.1-52.4-16.7-57.7-1.2c-5.3,10-5.2,23.6-5.2,23.6s-4.6,0.4-6.1,2.6c-1.5,2.3-0.2,18.4,6.3,18.7c0.5,9.7,7.4,14.7,9,17.6
				C649.7,163.1,648.6,174,646.5,176.3z"/>
		</g>
		<g>
			<g>
				
					<linearGradient id="SVGID_1_" gradientUnits="userSpaceOnUse" x1="2327.6426" y1="324.1967" x2="2327.6426" y2="301.8672" gradientTransform="matrix(1.0555 -6.930000e-02 6.550000e-02 0.9979 -1822.4354 269.9033)">
					<stop  offset="0" style="stop-color:#FFFFFF"/>
					<stop  offset="0.1175" style="stop-color:#FCFAF9"/>
					<stop  offset="0.2769" style="stop-color:#F3EDE8"/>
					<stop  offset="0.4603" style="stop-color:#E5D8CB"/>
					<stop  offset="0.6617" style="stop-color:#D2BAA3"/>
					<stop  offset="0.8752" style="stop-color:#B99571"/>
					<stop  offset="1" style="stop-color:#A97C50"/>
				</linearGradient>
				<path fill="url(#SVGID_1_)" stroke="#603913" stroke-width="2" d="M674.3,404.7c0,0-6.7-4.2-9.4-1.6c-0.7,1.6,0.8,2.6-0.6,4.7
					c-1.4,2.1-5.5,4.6-11.3,5.2c-5.8,0.7-9-4-9-6.2c0-2.2,2.5-6.2,2.5-6.2s-6.8-3.5-10.6-2.6c-3.8,0.8-3.3,5.1-3.3,5.1
					s1.9,0.9,3.3,3c1.4,2.1-1.7,4.6-1.9,5.9c-0.2,1.3,1.5,1.8,3.6,3.4c2.1,1.6,2,4.6,4.3,4.9c2.3,0.3,13.2,0.3,17.5-1.7
					c4.3-2,4.2-5.3,6.9-6.2s2.8,0.8,5.1,1.4c2.3,0.6,4-1.6,4-1.6"/>
				
					<linearGradient id="SVGID_2_" gradientUnits="userSpaceOnUse" x1="2294.9607" y1="345.9058" x2="2294.9607" y2="296.9802" gradientTransform="matrix(1.0555 -6.930000e-02 6.550000e-02 0.9979 -1822.4354 269.9033)">
					<stop  offset="0" style="stop-color:#FFFFFF"/>
					<stop  offset="0.1175" style="stop-color:#FCFAF9"/>
					<stop  offset="0.2769" style="stop-color:#F3EDE8"/>
					<stop  offset="0.4603" style="stop-color:#E5D8CB"/>
					<stop  offset="0.6617" style="stop-color:#D2BAA3"/>
					<stop  offset="0.8752" style="stop-color:#B99571"/>
					<stop  offset="1" style="stop-color:#A97C50"/>
				</linearGradient>
				<path fill="url(#SVGID_2_)" stroke="#603913" stroke-width="2" d="M616.5,456c0,0-1.4-8.7-3.4-18.3c-2-9.6-8.3-19.4-10.6-22.3
					c-2.3-2.9,2.3-9.7,2.3-9.7s-0.7-4,0.8-6.1c1.5-2.1,5.6-0.9,7.9-1.1c2.3-0.2,5-3.5,5-3.5s-1.4-4.4,0.9-6.6
					c2.3-2.2,6.2-1.3,8.2-0.7c2,0.6,12,7.6,8.3,14c-1.8,2.9-3.6,3.3-6,3.6c-2.4,0.3-5.2,6.4-5.7,8.8c-0.5,2.3,3.1,4.7,2.2,6.1
					c-0.8,1.4-2.5,3.5-2.9,5c-0.4,1.5,1.1,8,2.1,11.4c1,3.4,3.3,18.3,3.3,18.3"/>
				<path opacity="0.52" fill="#EE2A7B" stroke="#603913" stroke-width="2" d="M618.9,395.3c0,0-2.5-7.2,3.3-7.9
					c5.8-0.7,8.2,1.3,10.5,3.8c2.3,2.5,5.9,8,2.7,11.3c-2.3,2.3-6.2,2.2-6.2,2.2"/>
				
					<linearGradient id="SVGID_3_" gradientUnits="userSpaceOnUse" x1="2316.5806" y1="256.4634" x2="2320.2205" y2="285.107" gradientTransform="matrix(1.0555 -6.930000e-02 6.550000e-02 0.9979 -1822.4354 269.9033)">
					<stop  offset="9.363690e-02" style="stop-color:#FFFFFF"/>
					<stop  offset="0.2001" style="stop-color:#FCFAF9"/>
					<stop  offset="0.3446" style="stop-color:#F3EDE8"/>
					<stop  offset="0.5108" style="stop-color:#E5D8CB"/>
					<stop  offset="0.6933" style="stop-color:#D2BAA3"/>
					<stop  offset="0.8868" style="stop-color:#B99571"/>
					<stop  offset="1" style="stop-color:#A97C50"/>
				</linearGradient>
				<path fill="url(#SVGID_3_)" stroke="#603913" stroke-width="2" d="M612.1,365.4c0,0,0.3,5.3,2.1,6.9c1.8,1.6,3.6,6.1,3.5,7.4
					c-0.1,1.3-0.5,6.8,1.6,7.4c2,0.6,3.5-0.1,4.9,0.3c1.4,0.3,1.5,2.5,3.1,3c1.6,0.5,5,0.8,6,4.7c1,3.8,1.8,4.7,3.8,6.3
					c1.9,1.6,9.4,0.8,9.4,0.8s8.1-1.8,11-0.9c2.8,1,4,3.1,6.4,3.5c2.3,0.4,5.6-1.2,6.8-0.7c1.3,0.5,4,2.1,4,2.1l-1.3-10.5
					c0,0-8,1-12.1-0.7c-4.1-1.6-6.4-6.1-7-8.9c-0.6-2.9-3.8-2.5-6-3.2c-2.2-0.7-5.2-4-5.4-8.3c-0.3-4.3,3.2-12.5,3.2-12.5"/>
			</g>
			<g>
				
					<linearGradient id="SVGID_4_" gradientUnits="userSpaceOnUse" x1="537.7985" y1="583.5079" x2="537.7985" y2="556.8362" gradientTransform="matrix(1 -5.000000e-04 5.000000e-04 1 81.1483 1.4094)">
					<stop  offset="0" style="stop-color:#FFFFFF"/>
					<stop  offset="0.1175" style="stop-color:#FCFAF9"/>
					<stop  offset="0.2769" style="stop-color:#F3EDE8"/>
					<stop  offset="0.4603" style="stop-color:#E5D8CB"/>
					<stop  offset="0.6617" style="stop-color:#D2BAA3"/>
					<stop  offset="0.8752" style="stop-color:#B99571"/>
					<stop  offset="1" style="stop-color:#A97C50"/>
				</linearGradient>
				<path fill="url(#SVGID_4_)" stroke="#603913" d="M621.1,580.7l0-26.9l-2.6-3.3c0,0-1.3,0.6-1.2,2.1c0.1,1.5,0.5,28,0.5,28"/>
				
					<linearGradient id="SVGID_5_" gradientUnits="userSpaceOnUse" x1="548.5352" y1="583.9136" x2="548.5352" y2="551.4767" gradientTransform="matrix(1 -5.000000e-04 5.000000e-04 1 81.1483 1.4094)">
					<stop  offset="0" style="stop-color:#FFFFFF"/>
					<stop  offset="0.1175" style="stop-color:#FCFAF9"/>
					<stop  offset="0.2769" style="stop-color:#F3EDE8"/>
					<stop  offset="0.4603" style="stop-color:#E5D8CB"/>
					<stop  offset="0.6617" style="stop-color:#D2BAA3"/>
					<stop  offset="0.8752" style="stop-color:#B99571"/>
					<stop  offset="1" style="stop-color:#A97C50"/>
				</linearGradient>
				<path fill="url(#SVGID_5_)" stroke="#603913" stroke-width="2" d="M627.1,580.4c0,0-2.1-19.8-3.5-22.2c-1.4-2.5-5-7.1-6.3-8.2
					c-1.3-1.2-0.4-4.5-0.2-6c0.2-1.5,1-1.5,2.5-1.8c1.6-0.3,6.6-0.4,7.7-0.4c1.2,0,1.2,1.8,2.2,2.5c1.1,0.7,1.4-2.1,2.7-2.6
					c1.3-0.5,7.9-0.4,9.7-0.1c1.8,0.3,1.4,2.3,1.4,2.3s0,4.3-0.9,7.6c-0.9,3.3-4.3,7.2-5.7,9.5c-1.4,2.4-1.6,19.6-1.6,19.6"/>
				
					<linearGradient id="SVGID_6_" gradientUnits="userSpaceOnUse" x1="548.6679" y1="470.4911" x2="548.6679" y2="540.7897" gradientTransform="matrix(1 -5.000000e-04 5.000000e-04 1 81.1483 1.4094)">
					<stop  offset="0" style="stop-color:#FFFFFF"/>
					<stop  offset="0.1175" style="stop-color:#FCFAF9"/>
					<stop  offset="0.2769" style="stop-color:#F3EDE8"/>
					<stop  offset="0.4603" style="stop-color:#E5D8CB"/>
					<stop  offset="0.6617" style="stop-color:#D2BAA3"/>
					<stop  offset="0.8752" style="stop-color:#B99571"/>
					<stop  offset="1" style="stop-color:#A97C50"/>
				</linearGradient>
				<path fill="url(#SVGID_6_)" stroke="#603913" stroke-width="2" d="M623.2,491.4c0,0,1.7,31.9,0.9,33.3c-0.8,1.4-6.3,4.2-7.4,6.8
					c-1.1,2.6-0.3,7.4-0.1,8.6c0.2,1.2,1,2.1,3.3,2.3c2.3,0.3,7.7,0,7.8-1.7c0.2-1.7,1.3-2.5,2.7-2.6c1.4-0.2,2.3,3.4,3.3,3.7
					c1,0.3,6.6,0.2,7.8,0.1c1.2-0.1,2.4-1.6,2.3-2.5c-0.1-0.9,0.5-5.5-0.1-7.8c-0.7-2.3-6-6-6.8-7.4c-0.9-1.4-2.7-33.8-2.7-33.8"/>
				
					<linearGradient id="SVGID_7_" gradientUnits="userSpaceOnUse" x1="548.9119" y1="516.8214" x2="548.9119" y2="528.0093" gradientTransform="matrix(1 -5.000000e-04 5.000000e-04 1 81.1483 1.4094)">
					<stop  offset="0" style="stop-color:#FFFFFF"/>
					<stop  offset="0.1175" style="stop-color:#FCFAF9"/>
					<stop  offset="0.2769" style="stop-color:#F3EDE8"/>
					<stop  offset="0.4603" style="stop-color:#E5D8CB"/>
					<stop  offset="0.6617" style="stop-color:#D2BAA3"/>
					<stop  offset="0.8752" style="stop-color:#B99571"/>
					<stop  offset="1" style="stop-color:#A97C50"/>
				</linearGradient>
				<path fill="url(#SVGID_7_)" stroke="#603913" d="M623.2,524.7c0.4-4,14.6-4.8,14.2,0.3c-0.4,5.1-2.6,12.3-6.9,12.8
					C626.3,538.2,622.8,528.7,623.2,524.7z"/>
			</g>
			<g>
				<line fill="#C1272D" stroke="#C1272D" stroke-width="3" stroke-miterlimit="10" x1="612.8" y1="527.6" x2="530.1" y2="530.6"/>
				<circle fill="#C1272D" stroke="#C1272D" stroke-miterlimit="10" cx="611.8" cy="527.5" r="2.6"/>
			</g>
			<g>
				<line fill="#C1272D" stroke="#C1272D" stroke-width="3" stroke-miterlimit="10" x1="605.2" y1="439.7" x2="526.7" y2="518.3"/>
				<circle fill="#C1272D" stroke="#C1272D" stroke-miterlimit="10" cx="605.2" cy="439.6" r="2.6"/>
			</g>
			<g>
				<line fill="none" stroke="#ED1C24" stroke-width="4" x1="610" y1="553" x2="586.3" y2="569.1"/>
				<line fill="none" stroke="#ED1C24" stroke-width="4" x1="609.7" y1="537.8" x2="586.3" y2="537.7"/>
				<line fill="none" stroke="#ED1C24" stroke-width="4" x1="610.7" y1="518.3" x2="587.8" y2="508.4"/>
			</g>
			<g>
				<line fill="none" stroke="#ED1C24" stroke-width="4" x1="598" y1="424.6" x2="575.2" y2="440.1"/>
				<line fill="none" stroke="#ED1C24" stroke-width="4" x1="598.2" y1="409.4" x2="576.3" y2="408.6"/>
				<line fill="none" stroke="#ED1C24" stroke-width="4" x1="599.9" y1="389.9" x2="578.8" y2="379.5"/>
			</g>
			<g>
				<line fill="none" stroke="#ED1C24" stroke-width="4" x1="647" y1="522.6" x2="673.3" y2="507.2"/>
				<line fill="none" stroke="#ED1C24" stroke-width="4" x1="647.9" y1="536.8" x2="674.4" y2="536.5"/>
				<line fill="none" stroke="#ED1C24" stroke-width="4" x1="647.4" y1="555" x2="673.7" y2="563.7"/>
			</g>
		</g>
		<path fill="none" stroke="#00AEEF" stroke-miterlimit="10" d="M656.6,230.3c0.3,3.4,4.4,6.2,4.4,6.2"/>
		<path fill="#EE8CBA" stroke="#BE1E2D" stroke-width="2" d="M672.9,163.5c0,0-0.2,3.9,0.9,12.2c1.1,8.3-0.6,47-2.2,53.2
			c-1.6,6.2-0.5,24.5,4.6,31.6c5.1,7.1,16.2,7.5,16.2,7.5l1,4.8c0,0-10.5-0.5-15.2-3c-4.7-2.4-6.2-2.4-9.3-10
			c-3.1-7.6-5.9-34-1.3-47.5c4.7-25.5,2.1-42.2,0.8-48.9"/>
		<path fill="#6D6E71" stroke="#58595B" d="M617.9,292.6c0-2-1.1-10.5-1.1-10.5s-6.1-11.6-3.7-19.9c2.3-8.3,12.5-11.6,19.9-11.1
			c7.4,0.6,24.1,3.5,24.1,3.5s20.5,1.7,25.6,0c5.1-1.7,13.4-1.9,13.4-1.9s3.2,2,1.8,5.9c-1.5,3.9-4.6,8.1-7.3,8.8
			c-2.6,0.7-6,0.6-8.9,4c-2.9,3.4-6.8,6-11.5,8.4c-4.7,2.4-20.6,3.3-25,3.1c-4.4-0.3-8.9,1.1-12.2,3.1c-3.4,2-9,6.6-11.3,8.4
			C619.2,296.2,617.9,294.6,617.9,292.6z"/>
		<path fill="#F7941E" stroke="#F7941E" stroke-miterlimit="10" d="M640.5,299.9l4.5,0.2c0,0,1.8,7.9,7.3,9.8
			c5.5,1.8,5.8-1.1,5.8-1.1s5.9,4.5,15.1-0.4c0,0,3.3,4.2,17.7-0.3c0,0,7.5,3.3,12.4-1c0,0,7.9,1.7,10.1-1.4
			c6.1,0.2,10.9-0.6,10.9-2.5c0-1.9-10.6-5.1-11.3-4.4c-0.8,0.7-25-2.8-25-2.8s-13.3-1.7-20.6-3.5c-7.4-1.8-11.7,1.3-11.7,1.3
			s-2.1-3-6.2-2.1c-4.1,0.9-3.5,4.3-3.5,4.3l-6.3-0.6L640.5,299.9z"/>
		<path fill="none" stroke="#414042" d="M621.2,289.6c4.7-4.4,5.7-14.1,5.7-14.1"/>
		<path fill="none" stroke="#414042" d="M634.9,266c0,0,6.5-2.9,11.7-2c5.2,0.8,12.5,2.9,17.6,3.4c5.1,0.5,21-5.8,24.2-7.7"/>
		<path fill="#A7A9AC" stroke="#A7A9AC" d="M647.6,281.5c0,0,0.5-4.8-3.1-7.5c-3.6-2.7-4.5-1.4-6,0.7c-1.5,2.2-6.6,1.7-6.6,1.7
			c-2.3,1.4-6.5,5.2-11.6,3.2c-5.1-2-1.9-9,5.2-11.8c7.1-2.8,7.2,0.9,10.5,1.4c3.4,0.5,2.4-2.3,6.1-1.2c3.7,1,3.9,4,3.9,4
			s0.8-6.1,0.6-8c0,0,3.5-0.8,3.3,0.7c-0.2,1.5-3.7,9-1.9,10c1.8,1,2.3,6.7,2.3,6.7"/>
		<g>
			<path fill="#E6E7E8" stroke="#6D6E71" stroke-miterlimit="10" d="M705.1,332.7c0,0,11.1,5.9,10.5,12c-0.6,6.1-5.6,7.1-5.6,7.1
				s9.2,8.1-5.7,14.1c-0.7,10.8-11.5,6.6-13.9,8.5c-1.8,3.5-3.8,1.3-6.4,4.5c-2.7,3.2-5.5,1.3-11.2,3.2c-5.7,1.9-7.8-2.8-10.7-3.6
				c-2.9-0.8-4.2,1.1-9.7-0.6c-5.6-1.7-3.5-7.2-4.2-7.2c-11.6-5.6-4.6-11.8-4.6-11.8s-13.3-1.5-3.8-10.9c0,0-11.3-2.4-3.1-11.7
				c-9.1-2.7-6.8-8.7-3.6-10.9c3.2-2.2,9.3-1.6,9.3-1.6s4,6.6,12,6c7.9-0.6,18.4-0.5,18.4-0.5l22.7,0.6L705.1,332.7z"/>
			<path fill="none" stroke="#6D6E71" d="M638.4,332.2c0,0,4.5-3.6,16.6-1.5c12.1,2.1,20.4,7.6,17.9,14.3
				c-2.5,6.8-9.3,5.3-15.4,11.4"/>
			<path fill="none" stroke="#6D6E71" d="M670,349.5c0,0,2.9-4.4,12.5-1.9c9.7,2.5,4.2,10.9,6.8,11.4c2.7,0.5,2.5-7,6.1-8.8
				c3.6-1.8,9.7,1.1,11.3-3.2c1.6-4.3-4.7-6.6-4.7-6.6"/>
			<path fill="none" stroke="#6D6E71" d="M669.9,335.8c0,0-2.9-5.5,8.2-5c11,0.5,9.3,6.7,9.3,10.5c0,3.8-3.5,6.5-3.5,6.5"/>
			<path fill="none" stroke="#6D6E71" d="M638.1,328.6c0,0,3.6-0.2,4.1,2"/>
			<path fill="none" stroke="#6D6E71" d="M678.2,346.5c0,0,1.8-3.8-0.5-7.6"/>
			<path fill="none" stroke="#6D6E71" d="M638.3,336.6c0,0,16,0.3,17.7-0.4c3,6.4,8.5,6.2,8.5,6.2c0.5,3.3-5.3,3-9,4.6
				c-3.7,1.5-14.7,7.5-5.8,12.5c8.9,5,17.8,0,17.8,0s6.8-5,8.6-5.3c1.9-0.3,4.7,0.3,4.5,1.7c-0.1,1.3,0.1,10.7,8,11.9
				c8,1.2,11.3-2.2,12.3-4.9c1-2.7-1.2-6.4,1-7.6c2.3-1.2,8-3.3,8-3.3"/>
			<path fill="none" stroke="#6D6E71" d="M682.6,366.2c-0.9-4.2-3.4-8.6-13.2-7.5c-9.8,1-3.1,12.5-3.1,12.5"/>
			<path fill="none" stroke="#6D6E71" d="M648.5,370.1c8.9,3,10.1-7.4,11-7.5c0.9-0.1-5.3,11.6,3.5,13.6c8.8,2,10.4-0.5,10.9-4.1
				c0.5-3.5-4.9-6.7-1.3-6.6c3.5,0.1,4,2.8,8.8,4.5c4.8,1.7,6.8-2.2,6.8-2.2"/>
			<path fill="none" stroke="#6D6E71" d="M688.1,341.7c0,0,7.9,3,12.8-0.6c4.9-3.6,3.7-7.5,3.7-7.5"/>
			<path fill="none" stroke="#6D6E71" d="M656.7,338.9c0,0-3.5,3.4-6.4,7.5c-3,4.1-9.4,1.5-9.4,1.5"/>
			<path fill="none" stroke="#6D6E71" d="M687.6,336.6c4.5,1.4,6.5-2.5,11.2-1.4"/>
			<path fill="none" stroke="#6D6E71" d="M673.8,373.3c0,0,0.3,1.6,6.7,2.3c6.5,0.7,9-1.8,10.3-3.2c1.3-1.4,1.1-3.9,1.1-3.9"/>
			<path fill="none" stroke="#6D6E71" d="M643.4,352.5c0,0,2.5,0.5,7.9-6.5c3.8-5.3,10.8-1.3,10.8-1.3"/>
			<path fill="none" stroke="#6D6E71" d="M652.1,360.9c0,0-2.9,0.8-3.6,3.1"/>
			<path fill="none" stroke="#6D6E71" d="M650.5,337.1c0,0-5.2,1-5.5,5.7"/>
			<path fill="none" stroke="#6D6E71" d="M664.7,368.2c0,0-2.1,2-0.9,4.4"/>
			<path fill="none" stroke="#6D6E71" d="M678.7,341.8c0,0,0.5-2,2.1-2.9"/>
			<path fill="none" stroke="#6D6E71" d="M660.9,353.4c0,0-2.4-1.5-4.8-0.7"/>
			<path fill="none" stroke="#6D6E71" d="M645.1,341.2c0,0-1.6-1.2-3.7-1.2"/>
			<path fill="none" stroke="#6D6E71" d="M701.9,355.2c0,0,3,1.5,2.4,4.4"/>
			<path fill="none" stroke="#6D6E71" d="M687.1,344.2c0,0,3.8-4.1,12.3,0.3"/>
			<path fill="none" stroke="#6D6E71" d="M686.6,349.2c0,0,0.5-4,5.8-1.7c5.3,2.3,6.2,1.9,9.2,1.9"/>
		</g>
		<path fill="none" stroke="#FFF200" stroke-miterlimit="10" d="M643.8,298.5c0,0,4.1,0.5,6-1.8c1.9-2.3,3.9,7.4,7.4,9
			c3.5,1.6,10-5.1,12-3.9c1.9,1.2,10.4-1.6,10.4-1.6s26.1,5.3,30.3,5.3s6-2.6,6-2.6"/>
		<path fill="#D1D3D4" stroke="#414042" stroke-width="2" d="M655,284c0,0-5.4,6.9,2.8,8.8c2.5,4,6.7,3.1,6.7,3.1
			s11.7,10.1,31.9,9.5c11.4,0.1,25.1-4.2,30.2-21c5.2-16.9-0.5-23.6-2.9-26c-2.4-2.5-8.6-7.6-19.5-5c-10.8,2.6-12.4,7.3-14.8,10.7
			c-2.4,3.4-2.9,11.4-2.9,11.4s-3.5,0.2-5,2.9c-0.7,1.7-4.4,0.9-4.4,0.9s-3.8-1.8-7.6-0.9c-9.9-5.4-13,2.9-13,2.9L655,284z"/>
		<path fill="#58595B" stroke="#58595B" d="M634.2,308.5c3.5-6.1,1.1-11,2.3-16.9c1.2-5.9,3.4-11.2,10.8-11c7.4,0.3,8.7,1.1,11.2,2
			c2.5,0.9-1,4.1-1,4.1s-5.7-3-11.4,0c-5.7,3-3.9,10.7-4.1,12.7c-0.2,2-0.7,10.2-0.7,10.2"/>
		<path fill="none" stroke="#58595B" d="M657.7,283.2c0,0,1.3-1.9,3.7-1.2"/>
		<path fill="none" stroke="#58595B" d="M657.6,284.5c0,0,3.1,0.6,3.2,3.1"/>
		<path fill="#CE9EB5" stroke="#58595B" stroke-miterlimit="10" d="M725.8,330.3c2.2-0.8,3.9-2.5,4.1-4.7c0.2-2.1-0.9-4-2.8-5.2
			c0.4-0.6,0.6-1.3,0.7-2c0.3-3.3-2.9-6.4-7.3-6.8c-3.4-0.3-6.4,1-7.8,3.2c-1.1-0.5-2.3-0.8-3.7-1c-3.6-0.4-6.9,0.9-8.5,3
			c-1.4-1-3.2-1.7-5.3-1.9c-3.6-0.3-6.8,0.9-8.3,3c-1.2-1.4-3-2.4-5.2-2.6c-3.2-0.3-6.1,1.2-7.2,3.5c-1.1-2.3-4.1-4.1-7.9-4.5
			c-3.1-0.3-5.9,0.5-7.6,1.8c-0.5-2.4-3.2-4.5-6.5-4.8c-2.4-0.2-4.6,0.5-6.1,1.7c-0.2-3.2-4.2-6-9.2-6.5c-2.6-0.3-5.1,0.2-7,1.1
			c-1-0.7-2.2-1.1-3.5-1.2c-3.9-0.4-7.3,2.1-7.7,5.5c-0.2,1.6,0.4,3.1,1.4,4.3c-3.1,0.4-5.5,2.8-5.9,5.9c-0.3,2.5,0.9,4.8,2.9,6.1
			c-2.4,0.7-4.1,2.3-4.3,4.3c-0.2,2.4,1.7,4.6,4.6,5.6c-2,0.9-3.5,2.6-3.7,4.7c-0.3,2.7,1.6,5.3,4.5,6.3c-1.8,0.9-3.1,2.4-3.3,4.3
			c-0.3,2.8,2.1,5.4,5.4,6.1c-1.8,0.6-3,1.8-3.2,3.3c-0.2,2.4,2.6,4.7,6.3,5.1c1,0.1,1.9,0,2.8-0.1c-0.8,0.8-1.3,1.9-1.4,3
			c-0.3,3.1,2.3,5.9,5.8,6.2c1.5,0.1,2.9-0.2,4.1-0.9c1.2,0.7,2.8,1.9,2.6,2.9c-0.3,1.5-2.4,5.1,0,7c2.4,1.9,3.6,2.2,5.9,2.2
			c2.3,0,5.1-1.4,5.1-2.3c-0.1-0.9-5.6,0.1-7.1-1.4c-1.6-1.5-0.3-4.5-0.1-6.5c0-0.5-0.1-0.9-0.3-1.3c2.9-0.4,5.2-1.9,5.4-3.9
			c0.2-1.8-1.4-3.6-3.7-4.6c0.6-0.6,0.9-1.2,1-1.9c0.2-2.1-2-4.1-5.1-4.9c0.7-0.7,1.2-1.5,1.3-2.4c0.2-2.3-2-4.6-5.3-5.7
			c1.8-1.2,3-3.1,3.2-5.3c0.3-2.8-1.1-5.3-3.4-6.9c0.9-1.3,1.6-2.9,1.7-4.6c0.2-2-0.2-4-1.1-5.5c1-1,1.6-2.4,1.8-3.9
			c0.1-0.8,0-1.5-0.2-2.3c1.8,0.1,3.4-0.1,4.8-0.6c0.3,2.5,3.5,4.7,7.5,5.1c2,0.2,3.8-0.1,5.3-0.7c1.8,1.5,4.6,2.5,7.8,2.9
			c4.1,0.4,7.7-0.5,9.7-2.2c1.4,1.5,3.7,2.6,6.3,2.9c3.2,0.3,6.1-0.7,7.7-2.4c1.5,1,3.5,1.7,5.9,1.9c3.2,0.3,6-0.4,7.6-1.6
			c1.4,1.6,3.7,2.7,6.4,3c1.7,0.2,3.2,0,4.6-0.5c-0.1,0.4-0.2,0.9-0.3,1.3c-0.3,3.2,1.2,6.1,3.7,7.8c-1.3,1.1-2.2,2.7-2.4,4.6
			c-0.2,1.5,0.2,2.9,0.9,4.2c-3.9,0.4-7,2.6-7.3,5.5c-0.2,2.3,1.4,4.5,4,5.9c-1.8,0.8-3.1,2.4-3.6,4.2c-2.1,0.4-3.6,1.7-3.8,3.4
			c-0.1,0.7,0.1,1.3,0.4,1.9c-3.7-0.3-7,0.7-8.2,2.3c-1.2-0.7-2.6-1.2-4.2-1.3c-4-0.4-7.5,1.4-7.8,4c0,0.3,0,0.6,0,0.9
			c-0.7-0.2-1.4-0.3-2.1-0.4c-4.2-0.4-7.8,1.1-8,3.3c0,0.1,0,0.1,0,0.2c-1.6-1.4-3.8-2.5-6.4-2.7c-5.2-0.5-9.7,2.3-10.1,6.2
			c-0.2,2.3,1,4.6,3.2,6.1c-1.6,1-2.6,2.3-2.8,4c-0.3,3.5,3.5,6.7,8.7,7.2c0,0,0.1,0,0.1,0c-0.1,1.4,0.1,4.1,2.9,5.5
			c2.6,1.4,2.9,6.3,2.6,8.3c-0.3,2,5.9,4,6.3,2.5c0.9-2.9-1.9-7.7-1.9-7.7s2.7-1.8,1.8-4.6c-0.5-1.6-0.6-3.2-0.7-4.3
			c2.8-0.4,5.1-2.4,5.3-5.1c0.2-2.2-1-4.2-2.9-5.4c1-0.9,1.6-2,1.8-3.3c0.1-0.7,0-1.5-0.3-2.2c1.1,0.1,2.2,0,3.1-0.1
			c1,1.8,3.1,3.2,5.6,3.4c2.1,0.2,4.1-0.4,5.5-1.6c1.3,1,3,1.8,4.9,1.9c4.1,0.4,7.7-1.8,8.5-5c4.3,0.3,8-2.3,8.4-6
			c0.2-1.5-0.3-3-1.2-4.2c2.8-0.6,5-2.8,5.3-5.6c0.2-2-0.6-3.8-2-5.1c3.5-0.6,6.2-2.7,6.5-5.3c0.2-1.6-0.6-3.1-1.9-4.4
			c2.2-1,3.8-3.1,4-5.6c0.2-2.4-0.8-4.6-2.5-6c2-1.4,3.4-3.5,3.7-6.1C727.7,333.9,727,331.9,725.8,330.3z"/>
		<path fill="none" stroke="#414042" d="M630.8,322.8c0,0-3,10.6-1.6,14c1.4,3.5,1.4,11.8,0,14.9c-1.4,3-2.4,4.4,4.5,10.6
			c6.8,6.2,4.9,12.7,4.9,12.7"/>
		<path fill="none" stroke="#414042" d="M627.9,346.2c0.3,5.9-1.5,4.7-0.9,9.4c0.6,4.7,5.5,9.2,8.7,13.5c3.2,4.3,1.2,4.8,1.2,4.8"/>
		<path fill="none" stroke="#414042" d="M632.6,309.4c0,0,7.4,4.9,12.8,6.3c5.4,1.4,12.2,3.5,15.9,3.1c3.7-0.5,16.7,3,22.8,2.6
			c6-0.4,17.9,1.9,23,0.2c5.1-1.7,13.9-2.8,13.9-2.8"/>
		<path fill="none" stroke="#414042" d="M686.7,377.3c0,0,3-0.5,8.5,0.2c5.5,0.7,10.5-5,10.5-5c2.4-0.3-2.6,5.1-7.5,6.9
			c-4.9,1.9-12.8-0.1-12.8-0.1"/>
		<path fill="#BCBEC0" stroke="#58595B" stroke-width="2" d="M661.8,204c-0.2-3.5-7.6-4.7-12-2.3c-4.4,2.4-17.9,10-24.5,19.6
			c-6.5,9.6-10.9,34.3-10.6,39.9c0.2,5.6,3,6.2,6.8,6.2c3.8-0.1,9.1-7.1,15.7-7.4c6.6-0.2,17.6,2.5,19.9,1.7
			c2.3-0.8,5.1-26.2,1.2-30.2C654.5,227.5,662,207.4,661.8,204z"/>
		<path fill="#BCBEC0" stroke="#58595B" stroke-width="2" d="M683.1,211.6c1.8,2.7,2.4,21,2.4,21s-3.6,29.5,1,28.8
			c4.6-0.7,16.6-0.3,23.1,1.7c6.5,2,7.5,6.4,13.2,6.9c5.7,0.5,0.5-26.8-3.8-38.1c-4.3-11.2-16.3-24.6-21.9-27.5
			c-5.6-2.9-14.5-3.9-16.8-2C677.9,204.1,681.2,208.8,683.1,211.6z"/>
		<g>
			<path fill="#F6A2AE" stroke="#BE1E2D" stroke-width="2" d="M687.9,245.5c1.2-4.3-1.6-14.9-4.8-18.8c-3.2-3.9-9-6.8-9-6.8
				l-3.6-0.7c0,0-2.8-5.5-0.5-7.9c2.3-2.4,3.4,3.3,3.4,3.3l4.3-1.9c0,0-1.5-6.6-3.7-8.5c-2.2-1.9-7.3,0-8.7,1.7
				c-1.4,1.7-3.2,5.2-3.4,6.9c-0.2,1.6,0.7,5.7,1.2,6.4c0.6,0.7-5.5,0.9-7.4,0.9c-1.8,0-3.6-0.2-5,3.7c-1.4,3.9-1.5,8.9-1.5,8.9
				s0.3,10.9,2.4,14.4c2.1,3.5,10.9,12.2,20.4,14.8c9.5,2.6,9.7,2.8,12,0.2C686.3,259.2,686.7,249.8,687.9,245.5z"/>
			<path fill="#00AEEF" stroke="#00AEEF" stroke-miterlimit="10" d="M667.3,224.5c0,0,3.5-8.7,7.9-11.6c4.4-2.9,9.5-2,11.1-1.7
				c1.6,0.3-0.6,5.4-0.6,5.4s-4.1-1.7-8,1.8c-3.9,3.5-3.9,10-3.9,10"/>
			<path fill="none" stroke="#00AEEF" stroke-miterlimit="10" d="M656.7,227.3c0,0,0.1,7.9-0.7,10.1c-0.8,2.2,3.6,8.6,3.6,8.6"/>
			<path fill="none" stroke="#00AEEF" stroke-miterlimit="10" d="M673.1,227.2c4.7,7.4,2.3,9.3,2.6,11.5c0.3,2.1,4.3-0.1,4.1,3.5
				c-0.2,3.5-5.8,9.1-1.5,15.1"/>
		</g>
		<path fill="#BCBEC0" stroke="#414042" d="M724.9,320.1c0,0-3.5,1-6.9,0.7c-3.4-0.3-1,1.7-5.2,2.8c-4.2,1.1-9.6-0.1-9.6-0.1"/>
		<path fill="#BE1E2D" stroke="#ED1C24" stroke-width="2" stroke-miterlimit="10" d="M695.1,325c2.2,0,0,7.4,0,7.4
			c-3,1-4.9,3.1-4.6,9.4c0.3,6.3,1.8,9.1,8.2,9.1c6.4,0,11.3-7.2,12.8-13.8c1.5-6.6,1.2-9.9,1.1-13.5c-0.1-3.6-5.6-16.3-13.2-16.2
			c-7.6,0.1-9.5,5-10,10.6C688.9,323.6,693,325,695.1,325z"/>
		<path fill="#BE1E2D" stroke="#ED1C24" stroke-width="2" stroke-miterlimit="10" d="M645.6,325.1c0.9,0,7.4-2.8,6.8-8.8
			c-0.6-6-4.6-8.7-11.8-7.7c-7.2,1-10.1,8.7-11.3,13.7c-1.1,5-0.1,13.9-0.1,13.9s0.7,13.8,11,14.4c10.3,0.7,8.6-5.4,8.6-9.7
			c0-4.3-4.2-7-4.2-7S646,330.2,645.6,325.1z"/>
		<g>
			<g>
				<path fill="#E9BC8E" stroke="#000000" stroke-width="3" d="M566,239.8c2.4-2,7.6-2,13.4-1.1c5.9,0.8,13.6,4.8,13.6,4.8
					s-5.3,3.6-8,3.8c-2.7,0.2-16.4,44.4-16.3,47c0,2.6-4.2,5.1-6.6,3.9c-2.4-1.2-11.8-4.7-13.6-4.4c-1.8,0.3-3.4-3-1.1-6.8
					C549.8,283.1,563.6,241.8,566,239.8z"/>
				<path fill="#E9BC8E" stroke="#000000" stroke-width="3" d="M586.7,242.8c0,0,4.7,1.5,7.8,1.5c3.1,0,11.6,5.3,12.6,7.2
					c1,1.9-17.8,48.6-18.6,52c-0.8,3.4-7.1,4.7-9.1,2.4c-2-2.3-11.1-4.6-14.1-6.2c-3-1.6-1.5-4.4-1.5-4.4L586.7,242.8z"/>
			</g>
			<g>
				
					<ellipse transform="matrix(0.8564 0.5162 -0.5162 0.8564 220.1522 -260.2756)" fill="#A7A9AC" stroke="#000000" stroke-width="2" stroke-miterlimit="10" cx="578.1" cy="265.7" rx="10.8" ry="11.1"/>
				
					<ellipse transform="matrix(0.8565 0.5162 -0.5162 0.8565 219.3896 -260.5457)" fill="#6D6E71" stroke="#000000" stroke-width="2" stroke-miterlimit="10" cx="578.2" cy="264.2" rx="8.4" ry="8.6"/>
				<path fill="#E6E7E8" d="M584.9,266.9c-2,3.3-6.4,4.2-9.9,2.1c-3.5-2.1-4.7-6.5-2.8-9.8c2-3.3,6.4-4.2,9.9-2.1
					C585.6,259.3,586.9,263.6,584.9,266.9z"/>
				<path fill="#A7A9AC" stroke="#000000" stroke-width="2" stroke-miterlimit="10" d="M570.8,283.1c-0.6,0.2-4.8-2.5-5.1-3.1
					c-0.3-0.6,4.4-7.4,4.4-7.4l5.4,3.2C575.5,275.9,571.4,282.9,570.8,283.1z"/>
				<path fill="#E6E7E8" d="M569.9,281.7c-0.3,0.2-3.1-1.6-3.3-2c-0.2-0.4,3.5-5.6,3.5-5.6l3.3,1.9
					C573.3,276,570.2,281.5,569.9,281.7z"/>
				<line fill="none" stroke="#000000" x1="573.6" y1="260.7" x2="578.6" y2="264.3"/>
				<line fill="none" stroke="#000000" x1="578.4" y1="264" x2="578.3" y2="267.4"/>
			</g>
		</g>
		<path fill="none" stroke="#000000" stroke-width="2" d="M535.5,250.8"/>
		<path fill="none" stroke="#000000" stroke-width="3" d="M568,282.4c-2.5,2.4-6.4,0.6-9.3,4c-3,3.4-0.4,8.5-4.6,13.5
			c-4.2,5-12,1-16.2,4"/>
		<g>
			<line fill="#C1272D" stroke="#C1272D" stroke-width="3" stroke-miterlimit="10" x1="670.2" y1="394.3" x2="837.9" y2="275.8"/>
			<circle fill="#C1272D" stroke="#C1272D" stroke-miterlimit="10" cx="669.5" cy="394.6" r="3.7"/>
		</g>
		<g>
			<line fill="#C1272D" stroke="#C1272D" stroke-width="3" stroke-miterlimit="10" x1="720.4" y1="326.6" x2="837.9" y2="245.9"/>
			<circle fill="#C1272D" stroke="#C1272D" stroke-miterlimit="10" cx="719.7" cy="326.4" r="3.7"/>
		</g>
		<g>
			<circle fill="#C1272D" stroke="#C1272D" stroke-miterlimit="10" cx="729.1" cy="304.3" r="3.7"/>
			<line fill="#C1272D" stroke="#C1272D" stroke-width="3" stroke-miterlimit="10" x1="729.1" y1="304.3" x2="837.9" y2="219.6"/>
		</g>
		<g>
			<line fill="#C1272D" stroke="#C1272D" stroke-width="3" stroke-miterlimit="10" x1="681.7" y1="184.1" x2="837.9" y2="191.9"/>
			<circle fill="#C1272D" stroke="#C1272D" stroke-miterlimit="10" cx="679.9" cy="184.1" r="3.7"/>
		</g>
		<g>
			<line fill="#C1272D" stroke="#C1272D" stroke-width="3" stroke-miterlimit="10" x1="538.1" y1="172.2" x2="665.4" y2="231.1"/>
			
				<ellipse transform="matrix(0.9976 6.942158e-02 -6.942158e-02 0.9976 17.6687 -45.6259)" fill="#C1272D" stroke="#C1272D" stroke-miterlimit="10" cx="665.3" cy="231.4" rx="4.4" ry="3.8"/>
		</g>
		<g>
			<line fill="#C1272D" stroke="#C1272D" stroke-width="3" stroke-miterlimit="10" x1="493.7" y1="303.9" x2="543.9" y2="277.3"/>
			
				<ellipse transform="matrix(0.9996 -2.802435e-02 2.802435e-02 0.9996 -7.5635 15.3498)" fill="#C1272D" stroke="#C1272D" stroke-miterlimit="10" cx="543.8" cy="277.5" rx="2.8" ry="2.6"/>
		</g>
		<text transform="matrix(1 0 0 1 400.2842 130.1558)"><tspan x="0" y="0" fill="#C1272D" font-family="'MyriadPro-Bold'" font-size="27.1175">Heart Diseases</tspan><tspan x="0" y="27.9" fill="#C1272D" font-family="'MyriadPro-CondIt'" font-size="23.2436">Cardiovascular Diseases</tspan></text>
		<text transform="matrix(1 0 0 1 836.207 349.7837)"><tspan x="0" y="0" fill="#C1272D" font-family="'MyriadPro-Bold'" font-size="27.1175">Type 2 Diabetes</tspan><tspan x="12.9" y="27.9" fill="#C1272D" font-family="'MyriadPro-CondIt'" font-size="23.2436">Type 2 Diabetes Mellitus</tspan></text>
		<text transform="matrix(1 0 0 1 421.2842 537.7871)"><tspan x="0" y="0" fill="#C1272D" font-family="'MyriadPro-Bold'" font-size="27.1175">Arthritis</tspan><tspan x="0" y="27.9" fill="#C1272D" font-family="'MyriadPro-CondIt'" font-size="23.2436">Osteoarthritis</tspan></text>
		<text transform="matrix(1 0 0 1 837.8838 170.1309)"><tspan x="0" y="0" fill="#C1272D" font-family="'MyriadPro-Bold'" font-size="27.1175">Cancers</tspan><tspan x="0" y="27.9" fill="#C1272D" font-family="'MyriadPro-CondIt'" font-size="23.2436">   esophagus</tspan><tspan x="0" y="55.8" fill="#C1272D" font-family="'MyriadPro-CondIt'" font-size="23.2436">   pancreas</tspan><tspan x="0" y="83.7" fill="#C1272D" font-family="'MyriadPro-CondIt'" font-size="23.2436">   kidney</tspan><tspan x="0" y="111.6" fill="#C1272D" font-family="'MyriadPro-CondIt'" font-size="23.2436">   colon &amp; rectum</tspan></text>
		<text transform="matrix(1 0 0 1 400.2842 330.543)"><tspan x="0" y="0" fill="#C1272D" font-family="'MyriadPro-Bold'" font-size="27.1175">High Blood</tspan><tspan x="0" y="32.5" fill="#C1272D" font-family="'MyriadPro-Bold'" font-size="27.1175">Pressure</tspan><tspan x="0" y="60.4" fill="#C1272D" font-family="'MyriadPro-CondIt'" font-size="23.2436">Hypertension</tspan></text>
		<g>
			<path fill="#C49A6C" stroke="#754C29" stroke-width="2" d="M917.4,622.1c0,0-2.5-1.7-0.5-4.4c2-2.6,10.4-8.1,15.7-7.6
				c5.4,0.5,13.4,1,20.4-0.7c7-1.7,32.5,17.4,39.6,22.7c7.1,5.4,13.7,5.5,13.7,5.5l0.3,8.5c0,0-9.3,2.6-13.6,1.9
				c-4.4-0.7-10.2-1.6-12.7-3.3c-2.5-1.6-19.6,0.9-29-1.4c-11.5-1.9-30.8,0.3-34.2,1.2L917.4,622.1z"/>
			<path fill="#A7A9AC" stroke="#000000" stroke-width="2" d="M916.9,645.9c-1.7,3.5,0.5,11.2,0.5,11.2s-2.1,7-3.4,11.5
				c-1.3,4.5,2.5,15.3,2.5,15.3l36.3-0.1l53.5-0.2l0.3-37.4c0,0-8,2.3-13.6,1.9c-5.6-0.4-8.2-2.2-13.1-2.9
				c-4.9-0.7-24.2-0.2-29.7-1.5C944.6,642.4,918.6,642.4,916.9,645.9z"/>
			<path fill="none" stroke="#000000" stroke-width="2" d="M929.4,656.8c0,0,1.5-1.8,5.7,0.3c4.2,2.1,17.7,26.6,17.7,26.6"/>
			<path fill="none" stroke="#000000" stroke-width="2" d="M1007,655.9c-6.7-5.6-10.6-5.1-10.6-5.1"/>
			<path fill="none" stroke="#000000" stroke-width="2" d="M1008.1,661.9c0,0-15.3-6-21.8-6.7c-6.5-0.7-42-2.7-42-2.7"/>
			<path fill="none" stroke="#000000" stroke-width="2" d="M1007.7,665.7c0,0-14-2.5-20.6-2c-6.5,0.5-24,6.4-26.4,7.6
				c-2.4,1.3-3.6,5.1-3.6,5.1"/>
			<path fill="#E6E7E8" stroke="#000000" stroke-width="2" d="M848.9,564c0,0,18.7,10.7,28.4,9.3c2.7-0.5,5.7-4.1,5.7-4.1
				s8.8-0.6,11.2-2.5c4.4,0.2,8.5-2.2,8.5-2.2s1.2,14,0,17.2c-1.2,3.2,3,11.2,3,11.2c-1.6,6.9-0.3,17.2-0.3,17.2l10.4,9.8
				c0,0,5-9.2,17.3-10.2c20.3,1.6,11.5-1.6,22.6-0.8c7.5,0.2,32.4,19.1,38.2,23.3c5.8,4.2,12.5,5.5,12.5,5.5l0.3-110.5l-139.2,1.4
				L848.9,552V564z"/>
			<path fill="none" stroke="#000000" stroke-width="2" d="M956.6,646.7c-6.4,0.3-13,3.3-16.9,4.6c-3.9,1.3-4.6,0.4-7,1
				c-2.4,0.6-8.7,11-8.7,11"/>
			<path fill="none" stroke="#000000" stroke-width="2" d="M977.5,648.1c0,0,9.1,0.9,13,2"/>
			<path fill="none" stroke="#000000" stroke-width="2" d="M895.1,565.3c0,0,2.4-8,2-14.9c-0.4-6.9-1.1-20.6-1.1-20.6"/>
			<path fill="none" stroke="#000000" stroke-width="2" d="M902.4,564.3c4.1-2.9,10-13.6,10-13.6"/>
			<path fill="none" stroke="#000000" stroke-width="2" d="M879.3,566.7c1.1-1.1,1.1-6.5-0.2-6.2c-1.3,0.4-1.8,2.7-5.6,3.1
				c-3.8,0.4-17.3-5.3-17.3-5.3"/>
			<path fill="none" stroke="#000000" stroke-width="2" d="M914.2,570.2c0,0,17,9.9,24.7,13.6c7.8,3.8,48.2,18.4,48.2,18.4"/>
			<path fill="none" stroke="#000000" stroke-width="2" d="M913.3,582.4c0,0,13.6,4.4,18.6,8.2c5.1,3.8,17.9,5.1,22.8,5.4
				c4.9,0.3,28.2,7.6,28.2,7.6"/>
			<path fill="none" stroke="#000000" stroke-width="2" d="M923.3,591.7c0,0-4.1-1-7.3-1.1c-3.1-0.1-2,2.4-2,2.4s13,0.5,15.3,0.9
				c2.3,0.5,3.5,2.2,8.4,3.1c4.8,0.9,12.4,1.4,18.4,4.5c6,3.1,18.7,5.1,18.7,5.1"/>
			<path fill="none" stroke="#000000" stroke-width="2" d="M914.8,605.7c0,0,2.1-3.7,7.3-4.7c5.2-1,19.6-0.5,19.6-0.5"/>
			<path fill="none" stroke="#000000" stroke-width="2" d="M918.6,606.9c0,0,2-1.9,6.7-2.9c4.8-1,26.1-0.1,30.4,0.7
				c4.3,0.9,13.3,3.1,13.3,3.1"/>
			<path fill="none" stroke="#000000" stroke-width="2" d="M914.8,613.3c0,0,4.3-3.3,10-4.2c5.7-0.9,13.5,1,13.5,1"/>
			<path fill="#C49A6C" stroke="#754C29" stroke-width="2" d="M937.5,633.4c0,0,2.5,1.8,7.9,1.2"/>
			<path fill="#C49A6C" stroke="#754C29" stroke-width="2" d="M937.7,614.8c0,0,14.7,0.7,19.9,5.3"/>
			<g id="right_hand_1_">
				<path fill="#C49A6C" stroke="#000000" stroke-width="2" d="M962.8,650.8c0,0,0.1,1.8,0.7,2.3c0.5,0.5,4.1,2.4,5,1.5
					c1-0.9,8.3-11.1,8.3-11.1l-6.5-1.8L962.8,650.8z"/>
				<path fill="#C49A6C" stroke="#000000" stroke-width="2" d="M972,650.4c0,0,0,1,0.6,1.1c0.6,0.1,4.3,0.3,4.8,0.1
					c0.5-0.3,4.4-8.8,4.4-8.8l-5,0.9L972,650.4z"/>
				<path fill="#C49A6C" stroke="#000000" stroke-width="2" d="M1007.9,593.1l-23.7,9.7c0,0-1.2-0.5-4.8,0.4
					c-3.5,0.9-7.7,2.9-11.7,3.1c-4,0.3-6.6,3.2-8.9,3.1c-2.2,0-5.2-0.1-7.4-0.5c-2.1-0.4-1.4,0.9-4.1,1.5c-2.7,0.6-6.9-0.6-6.8,0.5
					c0,1.1,0.8,5.5,7,6.2c6.2,0.8,9.8,0.2,12-0.4c2.2-0.6,1.8,1.1,1.8,1.1s0.8,2.1,0,3.4c-0.8,1.3-5.6,6-5.6,6s-3.1,3.7-4.6,4.6
					c-1.5,1-5.6,2-6.4,2.2c-0.8,0.2-3.5,6.2-0.8,7.9c2.7,1.7,5.9-1.9,5.9-1.9l2.6,0.1l9.1-5.2l9.3,7.1l9.8,3.4c0,0,3.2,0.1,2.2-2.8
					c-0.5-1.3,7.6-9.6,8.6-10.8c1-1.2,4.1-6.5,4.9-8.2c0.8-1.7,6.8-4,6.8-4l4.5-0.1L1007.9,593.1z"/>
				<path fill="#C49A6C" stroke="#000000" stroke-width="2" d="M945.6,635.2c0,0-0.3,1.2,0.3,1.9c0.5,0.7,3.7,2.9,3.7,2.9"/>
				<path fill="#C49A6C" stroke="#000000" stroke-width="2" d="M970.3,641.8c0,0-8,9.7-8.9,10.6c-1,0.8-5.4-0.5-6.4-1.7
					c-1-1.2-2.4-3.8-2.4-3.8l-1.2-3.5c0,0,0.2-2.9,0.2-3.1c0-0.2,9.7-5.3,9.7-5.3L970.3,641.8z"/>
				<path fill="#C49A6C" stroke="#000000" stroke-width="2" d="M959.5,635.9c0,0-0.3,2.2-0.3,2.9c-0.1,0.8-2.7,4-2.7,4"/>
				<path fill="#C49A6C" stroke="#000000" stroke-width="2" d="M954.4,640.5c0,0,3-1.2,3.8,0"/>
			</g>
			<path fill="#C49A6C" stroke="#C49A6C" stroke-width="5" d="M961.3,634.9l9.2,6.8l5.9,2.1c0,0,5.4-0.6,4.2-0.5"/>
			<path fill="#C49A6C" stroke="#000000" stroke-width="2" d="M849.3,564c0,0,19.6,9.1,25.1,9.5c5.5,0.4,7.5-2.9,7.5-2.9
				s5.1,11.5,4.5,13.1l16.9,23.7l7.3,6.2l5.5,5.1l3.5,4.7l3.1,17.5l-19.1,7.8l-13.8-6.7l-1.6-6.9c0,0-2-1.8-2-4.2
				c0-2.4,1.3-6.2,1.3-6.2l1.8-6.9c0,0-17.3-11.1-24.7-18.2c-7.5-7.1-14.7-20-14.7-20L849.3,564z"/>
			<path fill="#D1D3D4" stroke="#58595B" stroke-width="2" d="M899.2,633.3c0,0,29.3-2.9,30.6-3.1c1.3-0.2,2.4,3.1,0.6,3.5
				c-1.7,0.5-30.3,5.6-30.3,5.6L899.2,633.3z"/>
			<line fill="none" stroke="#58595B" stroke-width="2" x1="931.3" y1="631.5" x2="932.6" y2="631.4"/>
			<path fill="#A7A9AC" stroke="#58595B" stroke-width="2" d="M894.8,634c0,0,2.5-0.7,4.5-0.7c2,0,3,5.6,0.9,6.1
				c-2.1,0.5-4.5,0.5-4.5,0.5L894.8,634z"/>
			<circle fill="#58595B" stroke="#58595B" stroke-width="2" cx="895.8" cy="636.9" r="3"/>
			<path fill="#C49A6C" stroke="#000000" stroke-width="2" d="M923.9,643c0,0,3.7-2.1,3.9-3.2c0.2-1.1-0.6-11.4-2-11.9
				c-1.4-0.5-3.3-2.8-4.8-3.3c-1.5-0.5-1.3-1.2-2.5-2.1c-1.3-0.9-2,1.1-2,1.1"/>
			<path fill="#C49A6C" stroke="#000000" stroke-width="2" d="M917,649.2c1.6,0.2,5.2-1.3,6.1-2.5c0.9-1.2,0.6-12.1-0.3-14.6
				c-0.9-2.5-2.7-4.5-3.9-5.3c-1.2-0.7-1.4-2.4-1.6-3.6c-0.3-1.3-3.4-1.3-4,0.7c-0.6,2-0.4,3.4-0.4,3.4"/>
			<path fill="#C49A6C" stroke="#000000" stroke-width="2" d="M905.8,651c0,0,8.2,1.3,9.4,0.6c1.2-0.6,4.7-6.5,4.6-8.7
				c-0.1-2.3,1.2-7.1,0.9-8.2c-0.3-1.1-1.2-3.6-2-4.5c-0.8-0.8,0-3.5-0.3-4.5c-0.3-1.1-4.7-0.7-5.6,0.9c-0.9,1.6-0.8,3.3-0.8,3.3"/>
			<path fill="#C49A6C" stroke="#000000" stroke-width="2" d="M888.3,640.2c-0.1,3.2,2.8,4.7,4.5,5.4c1.7,0.6,0.9,3.7,3.2,4.5
				c2.3,0.8,8.5,2,9.7,0.8c1.3-1.2,5.8-9.9,6.5-11.6c0.7-1.6,0-6.2,0-6.2s0.5-2.5,1.2-4.4c0.6-1.9-4.6-1-6,0.6c-1.4,1.6-2.6,7-2.6,7
				s-2.5,2-3.3,3.2c-0.8,1.2-1,3.5-1,3.5"/>
			<path fill="#C49A6C" stroke="#000000" stroke-width="2" d="M887.6,634.1v5.6c0,0,2.1,2.2,3.8,1.5c1.7-0.7,3.7-4.2,4.4-6.6
				c0.6-2.5,0.2-5.9,0.2-5.9c2.8-1.3,3.3-7.7,3.3-7.7"/>
			<rect x="849.2" y="527.9" fill="none" stroke="#FFFFFF" stroke-width="14" width="157.2" height="155.5"/>
			<rect x="852.5" y="530.6" fill="none" stroke="#000000" stroke-width="2" width="150.8" height="149.9"/>
			<path fill="#D1D3D4" stroke="#2E3192" stroke-width="2" stroke-miterlimit="10" d="M880.4,638.3c0-1.7-1.8-3.3-3.9-4.4
				c-0.2-0.6-1.6-2.7-2.3-3.2V626c1.1-0.6,1.8-1.4,1.8-2.3c0-2-3.4-3.7-7.7-3.7c-4.2,0-7.7,1.6-7.7,3.7c0,0.9,0.7,1.7,1.8,2.3v4.7
				c-0.7,0.5-2.1,2.6-2.3,3.1c-2.1,1.1-4.1,3.1-4.1,5.2c0,2.1,0,31.3,0.1,32.2c0,1,0.2,1.1,0.9,1.4c0,1.8,5.1,3.3,11.4,3.3
				c6.3,0,11.4-1.5,11.4-3.4c0,0,0.9-0.3,0.9-0.8C880.4,671.3,880.5,639.9,880.4,638.3z"/>
			<ellipse fill="#F15A29" stroke="#2E3192" stroke-miterlimit="10" cx="868.2" cy="622" rx="9.2" ry="2.6"/>
			<path fill="#F15A29" stroke="#2E3192" stroke-miterlimit="10" d="M876.6,617.5c0-1.4-4.1-2.6-8.7-2.6c-4.5,0-8.2,1.1-8.2,2.5
				c0,0.1-0.1,4.3-0.1,4.3c0,1.1,3.9,2,8.6,2c4.8,0,8.6-0.9,8.6-2C876.8,621.6,876.6,617.6,876.6,617.5z"/>
			<path fill="#F7941E" d="M875.3,616.7c0,0.9-3.3,1.6-7.5,1.7c-4.1,0.1-7.5-0.6-7.5-1.5c0-0.9,3.2-1.7,7.3-1.8
				C871.7,615,875.2,615.8,875.3,616.7z"/>
			<path fill="#E6E7E8" d="M880.1,666.6c-11.5,7.8-23.8,0-23.8,0v-22.8c12.3,7.4,23.8,0,23.8,0V666.6z"/>
			<polygon fill="#F7941E" points="857.9,667.1 856.6,666.5 856.6,644.6 857.8,645.2 			"/>
			<path fill="#F1F2F2" d="M865.3,642.4c-1.6,0.2-3-0.4-4-0.8c0,0,0.3-1.7,1.2-1.8c0.9-0.2,3.4,0.5,3.5,0.6
				C866,640.3,864.9,641.9,865.3,642.4z"/>
			<path fill="#F1F2F2" d="M877.1,634.9c-1.1-0.8,1,0.8-1.4,3.5c-2.4,2.7-4.1,3.1-4.7,3.5c-0.6,0.4,8.7,0.3,8.8-2.5
				C879.9,636.7,878.2,635.7,877.1,634.9z"/>
			<path opacity="0.65" fill="#F7941E" d="M866.6,619.6c-0.2,0-3,0.4-4.5,0.2c-1.5-0.3-2.2-2.4-0.8-1.8c1.4,0.5,4.7,0.7,5.3,0.7
				C867.2,618.7,866.8,619.5,866.6,619.6z"/>
			<path fill="#F1F2F2" d="M867,675.6c-1.4,0.4-6.3-0.4-8.4-1.3c-2.1-0.9-1.5-1.7-1.3-1.6c0.2,0.1,2.5,1.6,7,1.9
				C867.5,674.7,867,675.6,867,675.6z"/>
			<g>
				<g>
					<path stroke="#000000" d="M859.5,653.3c0,1.6,0,3.2,0,4.9c-0.2-0.1-0.4-0.1-0.6-0.2c0-1.6,0-3.2,0-4.9
						C859.1,653.2,859.3,653.3,859.5,653.3z"/>
					<path stroke="#000000" d="M860.6,656c0-0.4,0-0.7,0-1c0.2,0.1,0.4,0.1,0.6,0.2c0,0.2,0,0.4,0,0.6c0,0,0,0,0,0
						c0.2-0.3,0.6-0.5,1.2-0.4c0.5,0.1,1.2,0.5,1.2,1.7c0,0.7,0,1.4,0,2.1c-0.2,0-0.4-0.1-0.6-0.1c0-0.7,0-1.3,0-2
						c0-0.6-0.2-1.1-0.8-1.2c-0.4-0.1-0.7,0.1-0.8,0.4c0,0.1,0,0.2,0,0.3c0,0.7,0,1.4,0,2.1c-0.2-0.1-0.4-0.1-0.6-0.2
						C860.6,657.7,860.6,656.8,860.6,656z"/>
					<path stroke="#000000" d="M864.5,658.7c0.2,0.1,0.5,0.3,0.8,0.4c0.5,0.1,0.7-0.2,0.7-0.5c0-0.3-0.2-0.5-0.7-0.7
						c-0.6-0.3-0.9-0.7-0.9-1.1c0-0.6,0.5-1,1.2-0.9c0.4,0,0.7,0.2,0.9,0.3c-0.1,0.2-0.1,0.3-0.2,0.5c-0.1-0.1-0.4-0.2-0.7-0.3
						c-0.4,0-0.6,0.2-0.6,0.4c0,0.3,0.2,0.4,0.7,0.7c0.6,0.3,0.9,0.6,0.9,1.1c0,0.6-0.5,1-1.3,0.9c-0.4,0-0.7-0.2-1-0.4
						C864.4,659,864.4,658.9,864.5,658.7z"/>
					<path stroke="#000000" d="M870.4,658.6c0,0.4,0,0.7,0,1c-0.2,0-0.4,0-0.6,0c0-0.2,0-0.4,0-0.6c0,0,0,0,0,0
						c-0.2,0.3-0.5,0.7-1.2,0.7c-0.6,0-1.2-0.3-1.2-1.5c0-0.7,0-1.4,0-2c0.2,0,0.4,0,0.6,0c0,0.6,0,1.3,0,1.9c0,0.7,0.2,1.1,0.8,1.1
						c0.4,0,0.7-0.3,0.9-0.6c0-0.1,0.1-0.2,0.1-0.3c0-0.7,0-1.4,0-2.1c0.2,0,0.4,0,0.6,0C870.4,656.9,870.4,657.8,870.4,658.6z"/>
					<path stroke="#000000" d="M871.5,654.3c0.2,0,0.4-0.1,0.6-0.1c0,1.7,0,3.4,0,5.1c-0.2,0-0.4,0.1-0.6,0.1
						C871.5,657.8,871.5,656,871.5,654.3z"/>
					<path stroke="#000000" d="M874,654.6c0,0.2-0.2,0.4-0.4,0.5c-0.2,0-0.4-0.1-0.4-0.3c0-0.2,0.2-0.4,0.4-0.5
						C873.8,654.2,874,654.4,874,654.6z M873.2,659.2c0-1.2,0-2.3,0-3.5c0.2,0,0.4-0.1,0.6-0.1c0,1.2,0,2.3,0,3.5
						C873.7,659.1,873.5,659.2,873.2,659.2z"/>
					<path stroke="#000000" d="M874.9,656.3c0-0.4,0-0.7,0-0.9c0.2,0,0.4-0.1,0.6-0.1c0,0.2,0,0.4,0,0.6c0,0,0,0,0,0
						c0.2-0.4,0.6-0.8,1.1-1c0.5-0.1,1.2-0.1,1.2,1.1c0,0.7,0,1.4,0,2.1c-0.2,0.1-0.4,0.1-0.6,0.2c0-0.7,0-1.3,0-2
						c0-0.6-0.2-1-0.8-0.8c-0.4,0.1-0.7,0.5-0.8,0.9c0,0.1,0,0.2,0,0.3c0,0.7,0,1.4,0,2.1c-0.2,0.1-0.4,0.1-0.6,0.2
						C874.9,658,874.9,657.2,874.9,656.3z"/>
				</g>
			</g>
		</g>
		<g>
			<polyline fill="#C49A6C" stroke="#8B5E3C" stroke-width="2" stroke-miterlimit="10" points="884.2,516.5 892.3,465 898.4,467.3 
				914,487.2 914.2,502.6 913.3,515.2 			"/>
			<path fill="#C49A6C" stroke="#8B5E3C" stroke-width="3" stroke-miterlimit="10" d="M862.3,497.1c0,0,2.6,16.4,3.7,17.1
				c1.1,0.6,30.2,0.9,31.3,0.6c1.1-0.3-2.2-22-2.2-22"/>
			<path fill="#C49A6C" stroke="#8B5E3C" stroke-width="2" stroke-miterlimit="10" d="M914.9,466.1c0,0,7.5,4,6.6,9.6
				c-1,5.7-7.5,12.9-7.5,12.9s-2,2.1-4.7,0.9c-2.7-1.1-2.8-4.5-2.8-4.5"/>
			<path fill="#C49A6C" stroke="#8B5E3C" stroke-width="2" stroke-miterlimit="10" d="M904.9,451.9c0,0,4.7,1.2,6,3.8
				c1.3,2.6,4.8,8.5,4.3,15.1c-0.5,6.6-7.7,16-8.6,17.6c-1,1.6-4.3,2-6.1,0.4c-1.8-1.6-2.3-4.5-2.3-4.5l2.8-6.2"/>
			<path fill="#C49A6C" stroke="#8B5E3C" stroke-width="2" stroke-miterlimit="10" d="M887.5,448.3c0,0,2.4-2.8,6-3.8
				c3.6-1,8.6,4.5,8.6,4.5s1.8,3.6,4,6.4c2.2,2.8,3.1,11.1,0.9,14.5c-2.2,3.4-4.3,8.6-5.2,10.2c-0.9,1.7-2.4,2.5-5.7,0.1
				c-3.2-2.3-0.9-14.6-0.9-14.6"/>
			<path fill="#C49A6C" stroke="#8B5E3C" stroke-width="2" stroke-miterlimit="10" d="M865.6,513.7l-4.9-23.9c0,0-1.9-5.8-2.1-9.7
				c-0.2-3.9,2.6-10,2.6-10s4.3-7.2,5.8-11.4c1.5-4.1,6.2-16.6,8-20.5c1.9-3.9,5-8.7,5-8.7s2.1-8.5,3.5-11.5
				c1.4-3,6.7-10.3,6.7-10.3s4.5,1.4,5.1,3.8c0.6,2.4-0.5,8.8-1.5,13.5c-1,4.7-4.1,13.5-4.8,16.1c-0.7,2.6-2.1,12.9-2.1,12.9
				l-0.9,6.1"/>
			<path fill="#C49A6C" stroke="#8B5E3C" stroke-width="2" stroke-miterlimit="10" d="M867.9,501.3c0,0,0.1-1.8,0.6-5.1
				c1-6.7,2.8-17.1,3.6-19c1.2-2.9,5.3-7.2,7-9c1.7-1.8,3.8-13.9,5.6-15.6c1.8-1.7,6.5-5,8.6-5.7c2.1-0.7,7.7-7.4,7.7-7.4
				s4.4-1.8,5.9,2.8c1.5,4.7-1.4,12.6-3.6,15.7c-2.2,3.1-4.7,3.3-4.7,3.3s-4.2,5.8-5.4,8.8c-1.2,3-0.4,5.6,0.7,8.5
				c1.1,2.9,2.8,21.3,2.8,21.3l0.9,13.8"/>
			<path fill="#C2B59B" stroke="#8B5E3C" stroke-width="2" d="M897,477.6c0,0,3.6,2.6,4.1,3.3c0.5,0.7,6.9-10.2,3.3-13.2
				C900.7,464.8,897,477.6,897,477.6z"/>
			<path fill="#C2B59B" stroke="#8B5E3C" stroke-width="2" d="M900,485.8c0,0,4.4,3.6,5,2.7c0.6-0.8,7.2-10.2,3.3-11.5
				C904.3,475.7,900,485.8,900,485.8z"/>
			<path fill="#C2B59B" stroke="#8B5E3C" stroke-width="2" d="M909,487.5c0,0,3.6,2.4,4,1.5c0.3-0.8,4-8.1,1.5-10.1
				C912,477,909,487.5,909,487.5z"/>
			<path fill="#C2B59B" stroke="#8B5E3C" stroke-width="2" d="M894.4,446.5c0,0,5.7,2.3,8,0.5c2.3-1.8,5.6-4.8,2.3-7.3
				C901.2,437.5,894.4,446.5,894.4,446.5z"/>
			<ellipse fill="#ED1C24" cx="890.7" cy="415.1" rx="1.5" ry="1.4"/>
			<path fill="#C49A6C" stroke="#8B5E3C" stroke-width="2" stroke-miterlimit="10" d="M981,514.7c0,0-2.5-4.7-5.4-6.2
				c-2.9-1.5-7.4-4.7-9.8-7.6c-2.4-2.9-3.3-17.8-3.3-17.8l-7.4-49.5l-15.6-18l-18.8-9.5l-0.3-2.3c0,0,8.1-4,13.3-4.7
				c5.1-0.7,22.6-0.6,26.2,0.4c3.6,1,20.2,20.8,20.2,20.8s6.8,4.5,7.3,9.5c0.5,5,5.5,26.1,5.5,26.1s5,19.5,6.7,22.2
				c1.7,2.7,1.9,7.4,1.9,7.4l3.9,6.2l-0.4,22.5L981,514.7z"/>
			<path fill="#C49A6C" stroke="#8B5E3C" stroke-width="2" stroke-miterlimit="10" d="M949.3,428.6c0,0,5.4,3.2,9.5,4"/>
			<path fill="#C49A6C" stroke="#8B5E3C" stroke-width="2" stroke-miterlimit="10" d="M950.3,416.5c0,0,9,5,11.2,5.5
				c-0.1,3.6,0.4,4.2,0.4,4.2"/>
			<path fill="#C49A6C" stroke="#8B5E3C" stroke-width="2" stroke-miterlimit="10" d="M940.1,449.6c3,6.3,8.7,7.5,10.4,8.3
				c1.6,0.9-3.3-15.1-3.3-15.1S939.3,447.9,940.1,449.6z"/>
			<path fill="#C49A6C" stroke="#8B5E3C" stroke-width="2" stroke-miterlimit="10" d="M928.6,447.8c-0.1,1.5-0.4,6.4,2.6,8.1
				c2.9,1.7,6,5.5,9.4,5.8c3.3,0.3,4.3-4.9,3.5-6.2c-0.8-1.3-2.4-4.8-3.5-5.8c-1.4-2.4,6.3-4.7,6.3-4.7l-6-10.7
				C940.7,434.3,929.4,438,928.6,447.8z"/>
			<path fill="#C49A6C" stroke="#8B5E3C" stroke-width="2" stroke-miterlimit="10" d="M925.4,436.9c0,0-0.5,4.1,0.5,6.4
				c0.9,2.3,5.3,10.5,7,11.1c1.7,0.6,5.3-1.5,5.6-3.8c0.3-2.3,1.2-3.9,0-5.9c-1.2-2.1-2.8-10.9-2.8-10.9L933,430L925.4,436.9z"/>
			<path fill="#C49A6C" stroke="#8B5E3C" stroke-width="2" stroke-miterlimit="10" d="M925.4,421c-1.9-0.2-4.7,12.4-5.1,13.6
				c-0.4,1.2,1.8,4.3,4.1,4.1c2.3-0.2,10.8-8,10.8-8l-4.4-9.2C930.7,421.5,927.2,421.2,925.4,421z"/>
			<path fill="#662D91" stroke="#662D91" stroke-width="3" d="M898.5,408.9l0.2,9.2l1.9,0.3c0,0-0.3,1.9,0.6,2.2
				c0.9,0.3,19.6,1.2,19.6,1.2s-5.8-5.5-6.1-8c-0.3-2.5,3-5.3,4.3-6.3c2.1-1.7,1.1-3.6,1.1-3.6s-17.8,2.1-19.2,2.5
				c-1.4,0.4-1.1,2.4-1.1,2.4L898.5,408.9z"/>
			<path fill="#E365A6" stroke="#E365A6" stroke-width="3" d="M920,403.7c0,0,33.2-4.1,36.4-2.7c0.8,1.1,1.4,17.9,0.8,18.8
				c-1.7,1.4-35.7,2.1-35.7,2.1c-0.7-0.2-6.9-5.3-6.5-8.4c0.3-3.1,4.1-5.7,4.6-6.3C920,406.7,920,403.7,920,403.7z"/>
			<ellipse fill="#662D91" stroke="#662D91" cx="922.3" cy="413.5" rx="4.9" ry="2.7"/>
			<ellipse fill="#662D91" stroke="#662D91" cx="929.9" cy="412.9" rx="1.4" ry="1.7"/>
			<path fill="#662D91" stroke="#662D91" stroke-width="3" d="M941.4,405.7c-0.1,0.8,0.7,12.7,0.7,12.7s14-0.1,15-0.1
				c1-0.1,0.5-15-0.8-15.1C955,403.1,941.4,405.7,941.4,405.7z"/>
			<path fill="#C49A6C" stroke="#8B5E3C" stroke-width="2" stroke-miterlimit="10" d="M968.6,441.7c0,0-4.9-0.9-8.1-2.8
				c-3.3-1.9-12.5-14.8-14.7-17.5c-2.2-2.8-10.9-6.8-13.9-7.9c-2.9-1.1-5-1.9-7.6,1.5c-2.6,3.4,2.9,10.4,2.9,10.9
				c0,0.5,6.8,9.2,8.6,10.2c1.8,1,3.9,1.9,5.8,4c1.9,2.1,8.4,22,8.4,22l13,25.6l8.6,9.5"/>
			<path fill="#C2B59B" stroke="#8B5E3C" stroke-width="2" d="M920.5,435.1l4-3.3c0.8-2.2-0.3-5.5-1.1-5.7
				C922.7,425.9,919.6,430.5,920.5,435.1z"/>
			<path fill="#C2B59B" stroke="#8B5E3C" stroke-width="2" d="M931.8,452c0.6-0.3,3.4-4.6,3.4-4.6s-4.3-8.5-6.8-5.2
				C925.9,445.5,931.2,452.3,931.8,452z"/>
			<path fill="#C2B59B" stroke="#8B5E3C" stroke-width="2" d="M940.3,461.3c0.5-0.3,1.7-3.6,1.7-3.6s-5.9-5.8-7.4-2.5
				C933,458.5,939.9,461.7,940.3,461.3z"/>
			<path fill="#C2B59B" stroke="#8B5E3C" stroke-width="2" d="M929.3,423.9c2.6-4,6.8-6,6.8-6s-6-8.7-10.9-4
				C920.5,418.7,929.5,424.8,929.3,423.9z"/>
			<rect x="850.7" y="389.8" fill="none" stroke="#FFFFFF" stroke-width="16" width="153.5" height="124.5"/>
			<rect x="852.6" y="390.9" fill="none" stroke="#000000" stroke-width="2" stroke-miterlimit="10" width="151.4" height="122.5"/>
		</g>
	</g>
	<line fill="none" stroke="#808285" stroke-width="2" x1="379" y1="0.9" x2="379" y2="728.9"/>
	<text transform="matrix(1 0 0 1 534.2158 50.5791)" font-family="'MyriadPro-Bold'" font-size="40">Risks of Excess Weight</text>
</g>
</svg>
