<?xml version="1.0" encoding="utf-8"?>
<!-- Generator: Adobe Illustrator 18.1.1, SVG Export Plug-In . SVG Version: 6.00 Build 0)  -->
<!DOCTYPE svg PUBLIC "-//W3C//DTD SVG 1.1//EN" "http://www.w3.org/Graphics/SVG/1.1/DTD/svg11.dtd">
<svg version="1.1" xmlns="http://www.w3.org/2000/svg" xmlns:xlink="http://www.w3.org/1999/xlink" x="0px" y="0px"
	 viewBox="0 0 1048 728" enable-background="new 0 0 1048 728" xml:space="preserve">
<g id="Layer_1">
</g>
<g id="Header_text">
</g>
<g id="SP_header">
</g>
<g id="hip_x2F_knee">
</g>
<g id="guts">
	<g id="heart">
	</g>
	<g id="Kidney">
	</g>
</g>
<g id="Pancreas">
</g>
<g id="txt">
</g>
<g id="little_txt">
</g>
<g id="SP_txt">
</g>
<g id="SP_little_txt">
</g>
<g id="shot">
</g>
<g id="Insulin">
</g>
<g id="fingerPrik">
	<g>
		<g>
			<path fill="#754C29" stroke="#754C29" stroke-miterlimit="10" d="M275.6,56c21.5-0.4,25.7,18.6,26.4,25c0.6,6.4,3.2,32,1.7,36.7
				c-1.5,4.7-7.8,5-12,5.3c-4.1,0.3-30.2,0.5-33.8-0.5c-3.6-1-8.9-2.5-9.7-7.1c-0.9-4.5-0.8-28.7,0-33.8
				C249,76.4,254.1,56.4,275.6,56z"/>
			<path fill="#FFFFFF" stroke="#000000" stroke-width="2" stroke-miterlimit="10" d="M255.3,93.8c0,8.8,6.2,13.9,8.3,19.2
				c2.1,5.3,1.1,15.7,1.1,15.7s-17.6,0.4-25.5,0.6c-7.9,0.2-10.2,23-10.2,23l-2.6,25.5c-1.7,4.3-8.1,19.8-8.7,29.8
				c-0.6,10-1.3,51.9-1.5,57c-0.2,5.1-2.1,14.2-3.4,20c-1.3,5.7,7.5,14.8,9.1,17c1.6,2.2,4.2-3.6,3-7c-1.3-3.4-5.7-10-2.3-13
				c2.1-1.8,2.8,9.8,4.5,9.1c1.7-0.6,1.5-8.9,1.1-12.1c-0.4-3.2-2.6-5.7-3.3-8.6c-0.7-2.9,2.4-24.3,4.1-28.4c1.7-4,6-13.4,7.7-19.8
				c1.7-6.4,0.6-24.2,0.6-24.2c2.6-3.2,5.7-25,6.4-24.7c0.6,0.3-1.1,17.4,4.9,22.1c2.7,2.4-1.4,19.1-2.3,24.9
				c-1,5.7-7.7,10.4-10.2,23c-1.2,5.8-3.8,41.1-1.3,59.3c2.6,18.2,9.2,36.7,11.5,46.9c0,0-1.5,8,0.7,22.6c-0.1,7.2-0.4,15.7,0.2,25
				c0.6,9.2,6.8,31.5,8.1,38.2c1.3,6.7,0.9,12.5,0.2,18.7c-0.6,6.2-7.9,9.4-8.9,13c-1.1,3.6,18.7,4.5,20.8,2.1
				c2.1-2.3,4.3-7.4,3.8-10.8c-0.4-3.4-1.5-7.9-1.3-12.1c0.2-4.3-1.9-20.4,0-28.1c1.9-7.7,5.7-28.4,0.6-44.6c0,0,1.6-10.2,0.6-15.9
				c3.8-22.3,1.9-75.3,1.9-75.3l5.1,0.2c0,0-1.1,68.3,0.4,75.1c-0.8,2.3,0.4,11.5,1.9,16.6c-1.5,4.5-4.3,33.4-1.9,42.1
				c2.3,8.7,1.5,29.3,1.5,29.3s-2.1,9.7-1.9,12.1c0.2,2.5,5,9.5,7,10.8c2,1.3,16.5,2.1,17.9,0.6c1.4-1.5-7.2-10-8.3-12.8
				c-1.1-2.7-1.7-15.1,0-21.9c1.7-6.8,6.8-23,8.3-28.7c0.8-3.1,1.9-20.2,0-35.5c1.5-7,1.2-14.8,1-20.1c2.8-6.2,7.7-23.6,11.2-43.7
				c1.8-10.4-1.3-61.4-3.8-70.2c-2.5-8.7-7.9-12.5-8.9-16.6c-1.1-4-2.3-19.3-0.2-24.9c5.3-6.8,1.5-20.8,2.8-21.5
				c1.3-0.6,4,14.5,6.8,17.9c0,8.9-0.2,23.4,3.2,29.8c3.4,6.4,7.9,16.2,8.9,20.2c1.1,4,3.4,22.5,3.4,22.5s-4.5,7.5-4.3,10.2
				c0.2,2.7-0.3,15.8,0.6,16.4c1,0.6,2.2-10.9,5.8-10.5c2.5-0.2-0.4,9.4-1.2,11.9c-0.8,2.5,1.6,10.5,2.2,8.3
				c0.6-2.2,8.6-15.5,8-20.7c-0.6-5.3-2.4-15.3-3-22c-0.6-6.7-1.5-43.4-2.8-51c-1.3-7.7-7.9-27.4-7.9-27.4s-2.8-16.8-2.5-22.5
				c0.2-5.7-3.2-23-7-25.3c-3.8-2.3-27.4-2.6-27.4-2.6s-1.1-9.1,0-12.8c1.1-3.6,8.1-14.2,8.6-20.2c-5.9-2.4-20.1-22.5-20.1-22.5
				S264.4,88.5,255.3,93.8z"/>
			<path fill="#FFFFFF" stroke="#000000" stroke-miterlimit="10" d="M251.7,251.2c0,0,0.4-7.9-0.1-10.3c-0.5-2.4-2.6-5.2-2.6-5.2
				s-2.1-3.2-0.9-1.5"/>
			<path fill="#FFFFFF" stroke="#000000" stroke-miterlimit="10" d="M295.4,251c0,0-0.6-8.7,0.1-10.6c0.7-1.9,2.9-5.2,2.9-5.2
				s1.3-2.4,0.7-1.2"/>
			<path fill="none" stroke="#000000" stroke-miterlimit="10" d="M248.5,134.5c0,0,17.4,0.6,18.8,1.6c1.5,1,2.2,2,3,2.3"/>
			<path fill="none" stroke="#000000" stroke-miterlimit="10" d="M280,138.6c1-0.6,1.4-2.1,2.8-2.4c1.4-0.3,16.4-1.9,16.4-1.9"/>
			<path fill="#8DC63F" stroke="#000000" stroke-miterlimit="10" d="M233.5,292.6c0.6,1.8,39.5,2.8,40.2,2.2
				c0.6-0.5-1.2-13.4-0.2-12.4c1,1,3.4,1,4.4,0c1-1-0.9,11.8-0.2,12.3c0.6,0.5,38.3-0.6,38.8-1.5c0.5-0.9-2-45.4-3.2-46.6
				c-27.3,6.9-63,4.7-77.9-0.1C233.5,249.8,232.4,288.3,233.5,292.6z"/>
			<path fill="#8DC63F" stroke="#000000" stroke-miterlimit="10" d="M249.6,198.4c11.7-3,39.9-2.2,51.5,1.1c0.6,0.1,1.1-1.6,1.6-4.2
				c4.4-6.8,3-18,2.2-19.7c-5.4-13.3-5.6-46.7-5.7-47.5c-0.1-0.9-5.7-1.2-6-0.3c-0.2,0.8-2.8,38.2-18.6,38.3
				c-15.8,0.1-18.9-36.1-19.1-37.3c-0.2-1.2-7-0.9-7,0.1c0,1,0.8,33.8-5.4,49c-0.2,2.1,0,13.1,4.7,17
				C248.5,197.1,249.2,198.6,249.6,198.4z"/>
		</g>
		<text transform="matrix(1 0 0 1 253.585 228.293)" font-family="'MyriadPro-BoldCond'" font-size="28">21.8</text>
	</g>
	<g>
		<g>
			<polygon fill="#FBB040" stroke="#FBB040" stroke-miterlimit="10" points="97.2,531.8 111.9,502.2 111.6,512.8 186.5,512.7 
				186.5,550.6 111.6,550.7 111.9,561.4 			"/>
			<polygon fill="#FBB040" stroke="#FBB040" stroke-miterlimit="10" points="355.7,550.2 283.1,550.3 283.1,512.8 355.7,512.7 			
				"/>
			<polygon fill="#EF4136" stroke="#EF4136" stroke-miterlimit="10" points="446.7,531.8 432,502.2 432.3,512.8 357.4,512.7 
				357.4,550.6 432.3,550.7 432,561.4 			"/>
			<polygon fill="#8DC63F" stroke="#8DC63F" stroke-miterlimit="10" points="281.6,550.2 187.7,550.4 187.7,512.8 281.6,512.6 			
				"/>
			<text transform="matrix(1 0 0 1 175.8149 563.8828)" font-family="'MyriadPro-Bold'" font-size="13.3">18.5</text>
			<text transform="matrix(1 0 0 1 275.5649 563.8828)" font-family="'MyriadPro-Bold'" font-size="13.3">25</text>
			<text transform="matrix(1 0 0 1 350.9072 563.8828)" font-family="'MyriadPro-Bold'" font-size="13.3">30</text>
			<text transform="matrix(0.8583 0 0 1 122.3262 539.0371)" font-family="'MyriadPro-Semibold'" font-size="14.25">Bajo Peso</text>
			<text transform="matrix(0.8583 0 0 1 214.9985 539.0371)" font-family="'MyriadPro-Semibold'" font-size="14.25">Normal</text>
			<text transform="matrix(0.8583 0 0 1 291.1235 539.0371)" font-family="'MyriadPro-Semibold'" font-size="14.25">Sobrepeso</text>
			<text transform="matrix(0.8583 0 0 1 381.7471 539.0371)" font-family="'MyriadPro-Semibold'" font-size="14.25">Obesa</text>
		</g>
		<g>
			<g>
				
					<image overflow="visible" opacity="0.75" width="325" height="247" xlink:href="6770EF2C0D06EC02.png"  transform="matrix(0.24 0 0 0.24 199.2725 472.585)">
				</image>
				<g>
					<path fill="#FFFFFF" d="M264.6,504.8c0,7.9-6.6,14.2-14.8,14.2h-30.4c-8.2,0-14.8-6.4-14.8-14.2v-12.6
						c0-7.9,6.6-14.2,14.8-14.2h30.4c8.2,0,14.8,6.4,14.8,14.2V504.8z"/>
					<path fill="none" stroke="#000000" stroke-width="5" stroke-miterlimit="10" d="M264.6,504.8c0,7.9-6.6,14.2-14.8,14.2h-30.4
						c-8.2,0-14.8-6.4-14.8-14.2v-12.6c0-7.9,6.6-14.2,14.8-14.2h30.4c8.2,0,14.8,6.4,14.8,14.2V504.8z"/>
				</g>
			</g>
			<text transform="matrix(1 0 0 1 216.2417 506.793)" font-family="'MyriadPro-BoldCond'" font-size="24.3298">21.8</text>
		</g>
	</g>
</g>
</svg>
