<?xml version="1.0" encoding="utf-8"?>
<!-- Generator: Adobe Illustrator 18.1.1, SVG Export Plug-In . SVG Version: 6.00 Build 0)  -->
<!DOCTYPE svg PUBLIC "-//W3C//DTD SVG 1.1//EN" "http://www.w3.org/Graphics/SVG/1.1/DTD/svg11.dtd">
<svg version="1.1" xmlns="http://www.w3.org/2000/svg" xmlns:xlink="http://www.w3.org/1999/xlink" x="0px" y="0px"
	 viewBox="0 0 1048 728" enable-background="new 0 0 1048 728" xml:space="preserve">
<g id="Layer_1">
</g>
<g id="Header_text">
</g>
<g id="SP_header">
</g>
<g id="hip_x2F_knee">
</g>
<g id="guts">
	<g id="heart">
	</g>
	<g id="Kidney">
	</g>
</g>
<g id="Pancreas">
</g>
<g id="txt">
</g>
<g id="little_txt">
</g>
<g id="SP_txt">
</g>
<g id="SP_little_txt">
</g>
<g id="shot">
</g>
<g id="Insulin">
</g>
<g id="fingerPrik">
	<g>
		<polygon fill="#FBB040" stroke="#FBB040" stroke-miterlimit="10" points="113.7,527.9 128.4,498.3 128.2,509 203.1,508.9 
			203.1,546.7 128.2,546.8 128.4,557.5 		"/>
		<polygon fill="#FBB040" stroke="#FBB040" stroke-miterlimit="10" points="372.2,546.4 299.6,546.5 299.6,508.9 372.2,508.8 		"/>
		<polygon fill="#EF4136" stroke="#EF4136" stroke-miterlimit="10" points="463.3,527.9 448.5,498.3 448.8,509 373.9,508.9 
			373.9,546.7 448.8,546.8 448.5,557.5 		"/>
		<polygon fill="#8DC63F" stroke="#8DC63F" stroke-miterlimit="10" points="298.1,546.4 204.2,546.6 204.2,509 298.1,508.8 		"/>
		<text transform="matrix(1 0 0 1 192.3516 560.0474)" font-family="'MyriadPro-Bold'" font-size="13.3">18.5</text>
		<text transform="matrix(1 0 0 1 292.1016 560.0474)" font-family="'MyriadPro-Bold'" font-size="13.3">25</text>
		<text transform="matrix(1 0 0 1 367.4438 560.0474)" font-family="'MyriadPro-Bold'" font-size="13.3">30</text>
		<text transform="matrix(0.8583 0 0 1 138.8628 535.2017)" font-family="'MyriadPro-Semibold'" font-size="14.25">Bajo Peso</text>
		<text transform="matrix(0.8583 0 0 1 231.5352 535.2017)" font-family="'MyriadPro-Semibold'" font-size="14.25">Normal</text>
		<text transform="matrix(0.8583 0 0 1 307.6602 535.2017)" font-family="'MyriadPro-Semibold'" font-size="14.25">Sobrepeso</text>
		<text transform="matrix(0.8583 0 0 1 398.2837 535.2017)" font-family="'MyriadPro-Semibold'" font-size="14.25">Obesa</text>
	</g>
	<g>
		<g>
			<path fill="#754C29" stroke="#754C29" stroke-miterlimit="10" d="M291.7,51.3c24.5-0.4,29.4,18.6,30.1,25
				c0.7,6.4,3.6,32,1.9,36.7c-1.7,4.7-8.9,5-13.7,5.3c-4.7,0.3-34.5,0.6-38.6-0.5c-4.1-1-10.1-2.5-11.1-7.1c-1-4.5-1-28.7,0-33.8
				C261.3,71.8,267.2,51.7,291.7,51.3z"/>
			<path fill="#FFFFFF" stroke="#000000" stroke-width="2" stroke-miterlimit="10" d="M268.6,89.1c0,8.8,7.1,13.9,9.5,19.2
				c2.4,5.3,1.2,15.7,1.2,15.7s-20.2,0.4-29.1,0.6c-9,0.2-11.7,23-11.7,23l-2.9,25.5c-1.9,4.3-9.2,19.8-10,29.8
				c-0.7,10-1.5,51.9-1.7,57c-0.2,5.1-2.4,14.2-3.9,20c-1.5,5.7,8.6,14.8,10.4,17c1.8,2.2,4.9-3.6,3.4-7c-1.5-3.4-4.7-10-2.8-14
				c3-3,3.3,10.8,5.2,10.2c1.9-0.6,1.5-10.2,1.5-10.2s-2-7.2-4-10.5c-0.2-3.4,2.8-24.3,4.7-28.4c1.9-4,6.8-13.4,8.7-19.8
				c1.9-6.4,1.4-26.2,1.4-26.2c4-4.7,5.9-23.1,6.7-22.7c0.7,0.3-1.2,17.4,5.6,22.1c0,0-3.2,15.7-2.5,23.8
				c-7.5,4.9-12.6,17.6-11.9,24c-1.5,5.7-4.4,41.1-1.5,59.3c2.9,18.2,10.6,36.7,13.1,46.9c0,0-1.7,8,0.7,22.6
				c-0.1,7.2-0.5,15.7,0.2,25c0.7,9.2,7.8,31.5,9.2,38.2c1.5,6.7,1,12.5,0.2,18.7c-0.7,6.2-9,9.4-10.2,13
				c-1.2,3.6,21.4,4.5,23.8,2.1c2.4-2.3,4.9-7.4,4.4-10.8c-0.5-3.4-1.7-7.9-1.5-12.1c0.2-4.3-2.2-20.4,0-28.1
				c2.2-7.7,6.6-28.4,0.7-44.7c0,0,1.8-10.2,0.7-15.9c8.9-48.5,2.5-72.7,2.5-72.7l5.3-0.2c0,0-6.6,57.6,1.1,73.6
				c-1,2.3,0.1,10.8,1.8,15.9c-1.7,4.5-4.9,33.4-2.2,42.1c2.7,8.7,1.7,29.3,1.7,29.3s-2.4,9.7-2.2,12.1c0.2,2.5,5.7,9.5,8,10.8
				c2.3,1.3,18.8,2.1,20.4,0.6c1.6-1.5-8.2-10-9.5-12.8c-1.2-2.7-1.9-15.1,0-21.9c1.9-6.8,7.8-23,9.5-28.7
				c0.9-3.1,2.2-20.2-0.1-35.5c1.8-7,1.9-15.9,1.1-20.8c1.7-4.5,9.7-21.3,12.2-36.8c2.5-15.5-1.6-64.8-2.7-73.8
				c-1-8.9-4.8-16.1-10.8-20.7c0.9-7.9-0.7-23.3-0.7-23.3c6.1-6.8,1.7-20.8,3.2-21.5c1.5-0.6,4.6,14.5,7.8,17.9c0,8.9,1.4,19.3,3,27
				c1.6,7.7,7.7,17.2,9.6,23c1.9,5.7,5.2,22.5,5.2,22.5s-5.1,7.5-4.9,10.2c0.2,2.7-0.4,15.8,0.7,16.4c1.1,0.6,2.9-10.4,5.3-10.2
				c1.8,0.1,0.9,9.1,0,11.6c-0.9,2.6,1.8,10.5,2.6,8.3c0.7-2.2,9.8-15.5,9.1-20.7c-0.7-5.3-2.7-15.3-3.5-22
				c-0.7-6.7-1.8-43.4-3.2-51c-1.5-7.7-9-27.4-9-27.4s-3.2-16.8-2.9-22.5c0.2-5.7-3.6-23-8-25.3c-4.4-2.3-31.3-2.6-31.3-2.6
				s-1.2-9.1,0-12.8c1.2-3.6,9.3-14.2,9.8-20.3c-6.7-2.4-22.9-22.5-22.9-22.5S278.9,83.8,268.6,89.1z"/>
			<path fill="#FBB040" stroke="#000000" stroke-miterlimit="10" d="M243.6,288c0.7,1.8,45.2,2.8,45.9,2.2
				c0.7-0.5-1.3-13.4-0.2-12.4c1.1,1,3.9,1,5,0c1.1-1-1,11.8-0.2,12.3c0.7,0.5,42.8-0.4,43.4-1.3c0.6-0.8-1.4-45.6-2.7-46.8
				c-29.3,10.5-68.5,9.9-89-0.1C243.6,245.1,242.4,283.6,243.6,288z"/>
			<path fill="#FFFFFF" stroke="#000000" stroke-width="2" stroke-miterlimit="10" d="M259.6,240.8c-0.7-0.9,1.3,1.3,2,2
				c14.3,12.7,43.2,15.1,57.2-0.1c0.7-0.8,2.9-3.6,2-2.4"/>
			<path fill="#FBB040" stroke="#000000" stroke-miterlimit="10" d="M260.9,195c13.4-3,48.6-2.8,61.8,0.5c0,0,0.4-3.5,0-5.3
				c5-6.8,4.1-14.3,2.2-20.1c-12.5-8.5-6.1-45.9-6.2-46.8c-0.1-0.8-6.6-1.2-6.8-0.3c-0.2,0.9,1.3,38.4-21.2,38.3
				c-18.1-0.1-21.6-36.1-21.9-37.3c-0.2-1.2-8-0.9-8,0.1c0,1,7.4,36.2-6,48.4c-0.2,2.1-0.2,13.7,5.1,17.6
				C259.6,192.7,260.4,195.3,260.9,195z"/>
		</g>
		<text transform="matrix(1 0 0 1 271.4351 228.4932)" font-family="'MyriadPro-BoldCond'" font-size="28">27.3</text>
	</g>
	<g>
		<g>
			
				<image overflow="visible" opacity="0.75" width="325" height="247" xlink:href="AD428BC03B15FBE2.png"  transform="matrix(0.24 0 0 0.24 302.1211 469.001)">
			</image>
			<g>
				<path fill="#FFFFFF" d="M367.4,501.2c0,7.9-6.6,14.2-14.8,14.2h-30.4c-8.2,0-14.8-6.4-14.8-14.2v-12.6c0-7.9,6.6-14.2,14.8-14.2
					h30.4c8.2,0,14.8,6.4,14.8,14.2V501.2z"/>
				<path fill="none" stroke="#000000" stroke-width="5" stroke-miterlimit="10" d="M367.4,501.2c0,7.9-6.6,14.2-14.8,14.2h-30.4
					c-8.2,0-14.8-6.4-14.8-14.2v-12.6c0-7.9,6.6-14.2,14.8-14.2h30.4c8.2,0,14.8,6.4,14.8,14.2V501.2z"/>
			</g>
		</g>
		<text transform="matrix(1 0 0 1 319.0918 503.2095)" font-family="'MyriadPro-BoldCond'" font-size="24.3298">27.3</text>
	</g>
</g>
</svg>
