<?xml version="1.0" encoding="utf-8"?>
<!-- Generator: Adobe Illustrator 18.1.1, SVG Export Plug-In . SVG Version: 6.00 Build 0)  -->
<!DOCTYPE svg PUBLIC "-//W3C//DTD SVG 1.1//EN" "http://www.w3.org/Graphics/SVG/1.1/DTD/svg11.dtd">
<svg version="1.1" xmlns="http://www.w3.org/2000/svg" xmlns:xlink="http://www.w3.org/1999/xlink" x="0px" y="0px"
	 viewBox="0 0 1048 728" enable-background="new 0 0 1048 728" xml:space="preserve">
<g id="Layer_1">
</g>
<g id="Header_text">
</g>
<g id="SP_header">
</g>
<g id="hip_x2F_knee">
</g>
<g id="guts">
	<g id="heart">
	</g>
	<g id="Kidney">
	</g>
</g>
<g id="Pancreas">
</g>
<g id="txt">
</g>
<g id="little_txt">
</g>
<g id="SP_txt">
</g>
<g id="SP_little_txt">
</g>
<g id="shot">
</g>
<g id="Insulin">
</g>
<g id="fingerPrik">
	<g>
		<g>
			<polygon fill="#FBB040" stroke="#FBB040" stroke-miterlimit="10" points="548.9,484.8 563.6,455.2 563.3,465.8 638.2,465.7 
				638.2,503.6 563.3,503.7 563.6,514.4 			"/>
			<polygon fill="#FBB040" stroke="#FBB040" stroke-miterlimit="10" points="807.4,503.2 734.8,503.4 734.8,465.8 807.4,465.7 			
				"/>
			<polygon fill="#EF4136" stroke="#EF4136" stroke-miterlimit="10" points="898.4,484.8 883.7,455.2 883.9,465.8 809,465.7 
				809,503.6 883.9,503.7 883.7,514.4 			"/>
			<polygon fill="#8DC63F" stroke="#8DC63F" stroke-miterlimit="10" points="733.3,503.2 639.3,503.4 639.3,465.9 733.3,465.7 			
				"/>
			<text transform="matrix(1 0 0 1 627.4912 516.8989)" font-family="'MyriadPro-Bold'" font-size="13.3">18.5</text>
			<text transform="matrix(1 0 0 1 727.2412 516.8989)" font-family="'MyriadPro-Bold'" font-size="13.3">25</text>
			<text transform="matrix(1 0 0 1 802.5835 516.8989)" font-family="'MyriadPro-Bold'" font-size="13.3">30</text>
			<text transform="matrix(0.8583 0 0 1 574.0024 492.0532)" font-family="'MyriadPro-Semibold'" font-size="14.25">Bajo Peso</text>
			<text transform="matrix(0.8583 0 0 1 666.6748 492.0532)" font-family="'MyriadPro-Semibold'" font-size="14.25">Normal</text>
			<text transform="matrix(0.8583 0 0 1 742.7998 492.0532)" font-family="'MyriadPro-Semibold'" font-size="14.25">Sobrepeso</text>
			<text transform="matrix(0.8583 0 0 1 833.4233 492.0532)" font-family="'MyriadPro-Semibold'" font-size="14.25">Obesa</text>
		</g>
		<g>
			<g>
				
					<image overflow="visible" opacity="0.75" width="325" height="247" xlink:href="30740971D333D074.png"  transform="matrix(0.24 0 0 0.24 568.3711 425.7031)">
				</image>
				<g>
					<path fill="#FFFFFF" d="M633.7,457.9c0,7.9-6.6,14.2-14.8,14.2h-30.4c-8.2,0-14.8-6.4-14.8-14.2v-12.6
						c0-7.9,6.6-14.2,14.8-14.2h30.4c8.2,0,14.8,6.4,14.8,14.2V457.9z"/>
					<path fill="none" stroke="#000000" stroke-width="5" stroke-miterlimit="10" d="M633.7,457.9c0,7.9-6.6,14.2-14.8,14.2h-30.4
						c-8.2,0-14.8-6.4-14.8-14.2v-12.6c0-7.9,6.6-14.2,14.8-14.2h30.4c8.2,0,14.8,6.4,14.8,14.2V457.9z"/>
				</g>
			</g>
			<text transform="matrix(1 0 0 1 585.3428 459.9106)" font-family="'MyriadPro-BoldCond'" font-size="24.3298">18.2</text>
		</g>
		<g>
			<g>
				<path fill="#754C29" stroke="#754C29" stroke-miterlimit="10" d="M724.4,18.9c17.6-0.4,21.1,18.6,21.6,25
					c0.5,6.4,2.6,32,1.4,36.7c-1.2,4.7-6.4,5-9.8,5.3c-3.4,0.3-24.8,0.5-27.7-0.5c-3-1-7.3-2.5-8-7.1c-0.7-4.5-0.7-28.7,0-33.9
					C702.6,39.3,706.8,19.3,724.4,18.9z"/>
				<path fill="#FFFFFF" stroke="#000000" stroke-width="2" stroke-miterlimit="10" d="M707.8,56.7c0,8.8,5.1,13.9,6.8,19.2
					c1.7,5.3,0.9,15.7,0.9,15.7s-14.5,0.4-20.9,0.6c-6.5,0.2-8.4,23-8.4,23l-2.1,25.5c-1.4,4.3-6.6,19.8-7.2,29.8
					c-0.5,10-1,51.9-1.2,57c-0.2,5.1-1.7,14.2-2.8,20c-1,5.7,6.2,14.8,7.5,17c1.3,2.2,3.5-3.6,2.4-7c-1-3.4-5.4-10.6-2.3-12.5
					c3-1.9,3.8,9.1,4.7,8.5c0.9-0.6,2.5-5.7,1-10c-1.4-4.3-3.3-6.7-3.5-10.5c-0.2-3.8,2-24.3,3.4-28.4c1.4-4,4.9-13.4,6.3-19.8
					c1.4-6.4,0.5-24.2,0.5-24.2c2.1-3.2,4.7-25,5.2-24.7c0.5,0.3-0.9,17.4,4,22.1c2.2,2.4-1.1,18.1-1.7,24.2
					c-0.6,6.2-7.5,17.9-8.6,23.6c-1,5.7-3.1,41.1-1,59.3c2.1,18.2,7.6,36.7,9.4,46.9c0,0-1.2,8,0.5,22.6c-0.1,7.2-0.4,15.7,0.2,25
					c0.5,9.2,5.6,31.5,6.6,38.2c1,6.7,0.7,12.5,0.2,18.7c-0.5,6.2-6.5,9.4-7.3,13c-0.9,3.6,15.4,4.5,17.1,2.1
					c1.8-2.3,3.5-7.4,3.1-10.8c-0.3-3.4-1.2-7.9-1-12.1c0.2-4.3-1.6-20.4,0-28.1c1.6-7.7,4.7-28.4,0.5-44.7c0,0,1.3-10.2,0.5-15.9
					c3.1-22.3-0.2-74.8-0.2-74.8l7.8-0.2c0,0-2.7,68.1-1.5,74.9c-0.7,2.3,0.4,11.5,1.6,16.6c-1.2,4.5-3.5,33.4-1.6,42.1
					c1.9,8.7,1.2,29.3,1.2,29.3s-1.7,9.7-1.6,12.1c0.2,2.5,4.1,9.5,5.8,10.8c1.7,1.3,13.5,2.1,14.7,0.6c1.2-1.5-5.9-10-6.8-12.8
					c-0.9-2.7-1.4-15.1,0-21.9c1.4-6.8,5.6-23,6.8-28.7c0.6-3.1,1.6-20.2,0-35.5c1.3-7,1.1-17.2,0.9-22.5c1.2-4.5,7-24.7,9.1-41.2
					c1.3-10.3-1.3-65.1-3.1-70.2c-1.9-5.1-6.5-12.5-7.3-16.6c-0.9-4-3-21-0.2-24.9c4.4-6.8,1.2-20.8,2.3-21.5
					c1.1-0.6,3.3,14.5,5.6,17.9c0,8.9,1.1,25.5,2.6,29.8c1.5,4.3,6.5,16.2,7.3,20.2c0.9,4,3,19.2,2.8,22.5
					c-0.2,3.4-2.5,8.3-3.5,10.2c-1,1.9-0.3,15.8,0.5,16.4c0.8,0.6,2-10.7,4.3-10c2.3,0.6,0.2,8.9-0.5,11.5
					c-0.7,2.6,1.3,10.5,1.8,8.3c0.5-2.2,7.1-15.5,6.5-20.7c-0.5-5.3-2-15.3-2.5-22c-0.5-6.7-1.3-43.4-2.3-51
					c-1-7.7-6.5-27.4-6.5-27.4s-2.3-16.8-2.1-22.5c0.2-5.7-2.6-23-5.8-25.3c-3.1-2.3-22.5-2.5-22.5-2.5s-0.9-9.1,0-12.8
					c0.9-3.6,6.7-14.2,7.1-20.2c-4.8-2.4-16.5-22.5-16.5-22.5S715.3,51.4,707.8,56.7z"/>
				<path fill="#FFFFFF" stroke="#000000" stroke-width="2" stroke-miterlimit="10" d="M707.6,56.4c0,8.8,5.1,13.9,6.8,19.2
					c1.7,5.3,0.9,15.7,0.9,15.7s-14.5,0.4-20.9,0.6c-6.5,0.2-8.4,23-8.4,23l-2.1,25.5c-1.4,4.3-6.6,19.8-7.2,29.8
					c-0.5,10-1,51.9-1.2,57c-0.2,5.1-1.7,14.2-2.8,20c-1,5.7,6.2,14.8,7.5,17c1.3,2.2,3.5-3.6,2.4-7c-1-3.4-5.4-10.6-2.3-12.5
					c3-1.9,3.8,9.1,4.7,8.5c0.9-0.6,2.5-5.7,1-10c-1.4-4.3-3.3-6.7-3.5-10.5c-0.2-3.8,2-24.3,3.4-28.4c1.4-4,4.9-13.4,6.3-19.8
					c1.4-6.4,0.5-24.2,0.5-24.2c2.1-3.2,4.7-25,5.2-24.7c0.5,0.3-0.9,17.4,4,22.1c2.2,2.4-1.1,18.1-1.7,24.2
					c-0.6,6.2-7.5,17.9-8.6,23.6c-1,5.7-3.1,41.1-1,59.3c2.1,18.2,7.6,36.7,9.4,46.9c0,0-1.2,8,0.5,22.6c-0.1,7.2-0.4,15.7,0.2,25
					c0.5,9.2,5.6,31.5,6.6,38.2c1,6.7,0.7,12.5,0.2,18.7c-0.5,6.2-6.5,9.4-7.3,13c-0.9,3.6,15.4,4.5,17.1,2.1
					c1.7-2.3,3.5-7.4,3.1-10.8c-0.3-3.4-1.2-7.9-1-12.1c0.2-4.2-1.6-20.4,0-28.1c1.6-7.7,4.7-28.4,0.5-44.6c0,0,1.3-10.2,0.5-15.9
					c3.1-22.3-0.2-74.8-0.2-74.8l7.8-0.2c0,0-2.7,68.1-1.5,74.9c-0.7,2.3,0.3,11.5,1.6,16.6c-1.2,4.5-3.5,33.4-1.6,42.1
					c1.9,8.7,1.2,29.3,1.2,29.3s-1.7,9.7-1.6,12.1c0.2,2.5,4.1,9.5,5.8,10.8c1.7,1.3,13.5,2.1,14.7,0.6c1.2-1.5-5.9-10-6.8-12.8
					c-0.9-2.7-1.4-15.1,0-21.9c1.4-6.8,5.6-23,6.8-28.7c0.6-3.1,1.6-20.2,0-35.5c1.3-7,1.1-17.2,0.9-22.5c1.2-4.5,7-24.7,9.1-41.2
					c1.3-10.3-1.3-65.1-3.1-70.2c-1.9-5.1-6.5-12.5-7.3-16.6c-0.9-4-3-21-0.2-24.9c4.4-6.8,1.2-20.8,2.3-21.5
					c1.1-0.6,3.3,14.5,5.6,17.9c0,8.9,1.1,25.5,2.6,29.8c1.5,4.3,6.5,16.2,7.3,20.2c0.9,4,3,19.2,2.8,22.5
					c-0.2,3.3-2.5,8.3-3.5,10.2c-1,1.9-0.3,15.8,0.5,16.4c0.8,0.6,2-10.7,4.3-10c2.3,0.6,0.2,8.9-0.5,11.5
					c-0.7,2.5,1.3,10.5,1.8,8.3c0.5-2.2,7.1-15.5,6.5-20.7c-0.5-5.3-2-15.3-2.5-22c-0.5-6.7-1.3-43.4-2.3-51
					c-1-7.7-6.5-27.4-6.5-27.4s-2.3-16.8-2.1-22.5c0.2-5.7-2.6-23-5.8-25.3c-3.1-2.3-22.5-2.6-22.5-2.6s-0.9-9.1,0-12.8
					c0.9-3.6,6.7-14.2,7.1-20.3c-4.8-2.4-16.5-22.5-16.5-22.5S715.1,51.1,707.6,56.4z"/>
				<path fill="#FBB040" stroke="#000000" stroke-miterlimit="10" d="M689.9,255.5c0.5,1.8,31.3,2.6,31.8,2.1
					c0.5-0.5-1.1-13.4-0.3-12.4c0.8,1,5.6,1.1,6.4,0.2c0.8-1-0.7,11.7-0.2,12.3c0.5,0.5,29.9-0.6,30.4-1.4
					c0.4-0.9-1.7-45.4-2.6-46.6c-22.4,6.9-51.7,4.7-64-0.1C689.9,212.7,689,251.2,689.9,255.5z"/>
				<path fill="none" stroke="#000000" stroke-miterlimit="10" d="M698.1,95.2c0,0,17.4,0.6,18.8,1.6c1.5,1,2.2,2,3,2.3"/>
				<path fill="none" stroke="#000000" stroke-miterlimit="10" d="M736.2,167c-0.6,0.4,0.2-0.1,0.6-0.3c1.3-0.7,4.3-2.5,5.5-5.7"/>
				<path fill="none" stroke="#000000" stroke-miterlimit="10" d="M729.5,99.3c1-0.6,1.4-2.1,2.8-2.4c1.4-0.3,16.4-1.9,16.4-1.9"/>
				<path fill="none" stroke="#000000" stroke-miterlimit="10" d="M705.3,160.5c0,0,1.9,3.3,5.4,4.8c0.4,0.2,2,0.6,1.2,0.4"/>
				<path fill="none" stroke="#000000" stroke-miterlimit="10" d="M738.3,169.6c-0.8,0.3,0.3-0.1,0.7-0.3c1.4-0.7,4.4-2.4,5.5-5.2"
					/>
				<path fill="none" stroke="#000000" stroke-miterlimit="10" d="M740.7,172.8c-0.7,0.4,0.3-0.1,0.7-0.4c1-0.7,3-2.1,3.8-4.5"/>
				<path fill="none" stroke="#000000" stroke-miterlimit="10" d="M703.4,163.1c0,0,1.8,3.5,5.2,5c0.3,0.2,1.8,0.7,1.1,0.4"/>
				<path fill="none" stroke="#000000" stroke-miterlimit="10" d="M702.6,166.5c0,0,1,2.8,3.4,4.5c0.4,0.3,2,1.2,1.3,0.7"/>
				<path fill="none" stroke="#000000" stroke-miterlimit="10" d="M706.4,213.5c0,0,0.1-5.3-0.3-7c-0.3-1.3-2.3-4.6-3.3-6.3
					c-0.4-0.6-1.5-2.4-0.6-0.9"/>
				<path fill="none" stroke="#000000" stroke-miterlimit="10" d="M740,213.9c0,0-0.5-6.9-0.1-8.5c0.3-1.1,2-4,3-5.7
					c0.4-0.7,1.4-2.3,0.7-1.1"/>
				<path fill="#FBB040" stroke="#000000" stroke-miterlimit="10" d="M703.1,161.3c9.6-3,31.8-1.8,41.3,1.5c0.5,0.1,1.1-3.3,1.5-4.8
					c3-4.3,3.8-15.8,1.9-21.4c-4.5-4.8-4-44.8-4.1-45.6c-0.1-0.9-4.7-1.2-4.9-0.3c-0.2,0.9-2.3,38.2-15.3,38.3
					c-13,0.1-15.5-36.1-15.7-37.3c-0.2-1.2-5.8-0.9-5.8,0.1c0,1,0.7,33.8-4.5,49c-0.2,2.1,0.8,11.5,3.8,17
					C702.2,160,702.8,161.5,703.1,161.3z"/>
			</g>
			<text transform="matrix(1 0 0 1 701.9829 195.0137)" font-family="'MyriadPro-BoldCond'" font-size="28">18.2</text>
		</g>
	</g>
</g>
</svg>
