<?xml version="1.0" encoding="utf-8"?>
<!-- Generator: Adobe Illustrator 18.1.1, SVG Export Plug-In . SVG Version: 6.00 Build 0)  -->
<!DOCTYPE svg PUBLIC "-//W3C//DTD SVG 1.1//EN" "http://www.w3.org/Graphics/SVG/1.1/DTD/svg11.dtd">
<svg version="1.1" xmlns="http://www.w3.org/2000/svg" xmlns:xlink="http://www.w3.org/1999/xlink" x="0px" y="0px"
	 viewBox="0 0 1048 728" enable-background="new 0 0 1048 728" xml:space="preserve">
<g id="Layer_1">
</g>
<g id="Header_text">
</g>
<g id="SP_header">
</g>
<g id="hip_x2F_knee">
</g>
<g id="guts">
	<g id="heart">
	</g>
	<g id="Kidney">
	</g>
</g>
<g id="Pancreas">
</g>
<g id="txt">
</g>
<g id="little_txt">
</g>
<g id="SP_txt">
</g>
<g id="SP_little_txt">
</g>
<g id="shot">
</g>
<g id="Insulin">
</g>
<g id="fingerPrik">
	<g>
		<g>
			<path fill="#FFFFFF" stroke="#000000" stroke-width="2" stroke-miterlimit="10" d="M660.4,114.6c-2.1,1.6-9.2,2.4-19.8,8.6
				c-22.6-0.4-22.4,31-22.4,31s-7.1,12.5-11.2,33.6c-10.3,18.3-6.9,47.5-8.4,54.2c-1.5,6.7-7.3,22.2-3,37c2.4,5.6,5.6,16.4,7.1,16.6
				c1.5,0.2,3.7-7.5,3.4-10.5c-0.2-3-2.9-5.3-3.3-8.6c-0.4-3.2,1.4-7.6,2.4-7.8c1.7-0.2,3.4,12.3,6,10.3c2.6-1.9,2.8-10.8,2.8-10.8
				c1.9-3.7,0.2-11.8-2.6-13.3c-2.8-1.5-2.2-7.3-0.9-11.4c1.3-4.1,7.7-13.6,11.4-21.1c3.7-7.5-0.4-23,2.8-24.7
				c3.2-1.7,9.3-24.7,9.3-24.7s1.9,13.1,5.8,15.7c3.9,2.6,6.4,19.8,4.4,27.2c-2,7.5-5.5,16.4-6.6,26.1c-1.1,9.8-9.5,65.7-7.5,78.9
				c2,13.2,5.2,19.2,5.2,19.2s0.6,15.5,2.6,18.9c-4.3,14.1-1.4,49,0.9,56.8c2.3,7.7,4,24.4,2.6,28.4c-1.4,4-11.8,15.5-16.3,17.2
				c-4.5,1.7-1.5,6,1.3,6.2c2.8,0.2,22.2,0.6,24.5,0.6c2.4,0,6.9-4.9,6-7.5c-0.9-2.6-2.2-12.9-1.7-15.7c0.4-2.8,2.6-38.2,6.9-43
				c4.3-4.9,2.6-22.7-1.1-39c-1.4-4.6,0.6-16.6,3.4-21.5c5.2-9.5,8-63.4,8-63.4h4.3c0,0,4.6,55.9,6.9,60c2.3,4,4.5,14.3,2.6,21.8
				c-4.3,17.9-1.5,34,2.4,41.7c3.9,7.7,5.4,41.7,5.4,41.7s-2.2,15.5-2.2,18.3c0,2.8,4.3,5.6,6.5,5.8c2.2,0.2,21.7,0,26.7,0
				c4.9,0,2.6-7.3-3-8.6c-3.7-2.2-8-6-9.9-9.5c-1.9-3.4-2.6-27.5-2.6-27.5s7.5-50.3,3.2-65.8c2.1-4.7,0.2-15.1,0.2-15.1
				s3.7-6.9,6-16.4c2.3-9.5-4.9-72-6.6-81.5c-1.7-9.5-1.2-15.1-4.2-24.5c-3-9.4-1.1-24.2,1.5-26.8c3-2.6,5-22.2,5-22.2
				s4.3,21.9,7.7,23.2c3.9,0.4-0.4,15.9,2.6,24.5c3,8.6,12.5,23.4,13.6,29.5c1.1,6-1.7,10.5-3.2,13.1c-1.5,2.6-3.9,21.9-0.9,21.5
				c3-0.4,4.3-12.5,7.1-12.9c2.8-0.4,3.2,5.2,3.2,5.2s1.1,5.6-1.3,10.1c-2.4,4.5,0.4,16.1,2.4,14c1.9-2.2,7.7-8.6,7.5-12.3
				c-0.2-3.7,3-20.4,0.9-24.5c-2.2-4.1-3.4-14.8-3.4-14.8s-1.3-32.7-3.2-41.5c-1.9-8.8-7.1-17.9-7.1-17.9s-1.7-20.2-6-31
				c1.7-2.8-2.4-34.6-21.5-34.6c-15.7-7.5-21.7-4.9-23.2-8.4c-1.5-3.4-1.1-6-0.6-11.6c3.9-1.9,5.2-8.8,5.2-8.8
				c3.7-0.2,2.2-11.4,1.7-13.6c-0.4-2.2-3.2-3-3.2-3s-0.2-7.3-1.3-12.9c-2.6-11.4-29.3-11.4-32.3-1.1c-3,6.7-3,15.7-3,15.7
				s-2.6,0.2-3.4,1.7c-0.9,1.5-0.2,12.3,3.4,12.5c0.3,7.2,5.6,10.8,5.6,10.8C661.7,104.9,662.6,113,660.4,114.6z"/>
			<path fill="none" stroke="#000000" stroke-miterlimit="10" d="M666.6,170.6c-1.2,0,3.8,0.3,5.3-1.3c1.6-1.5,2.6-6.5,4.4-6.6
				c1.8-0.2,3.3,4.7,4.7,6.5c1.3,1.8,7.6,0,5.2,0.6"/>
			<path fill="none" stroke="#000000" stroke-miterlimit="10" d="M646.4,125.5c-1.6,0,15.3,0.3,18.2,1.3c2.9,1,5.9,5.9,4.9,4.4"/>
			<path fill="none" stroke="#000000" stroke-miterlimit="10" d="M682.3,131.1c-1,1.5,2.6-3.8,5.2-4.8c2.6-1,23-3,19-2.4"/>
			<path fill="none" stroke="#000000" stroke-miterlimit="10" d="M693.6,247.9c0,0,0.1-11.3,5.5-17.3"/>
			<path fill="none" stroke="#000000" stroke-miterlimit="10" d="M656.6,248.1c0,0,0.1-12.3-4.7-17.1"/>
			<path fill="#8DC63F" stroke="#000000" stroke-miterlimit="10" d="M631.7,289c1.7,0.9,38,5,39.6,4.3c1.6-0.7,0.9-14.1,0.9-14.1
				c1,1.5,3.6,1.9,4.8,0c0,0-0.1,13.6,0.9,14.6c1,1,39.3-1.6,40-3.7c0.7-2.2-4.2-45.6-5.6-47c-14.8,4.6-61,6.5-75-0.3
				C635.7,245.5,630,288.1,631.7,289z"/>
		</g>
		<text transform="matrix(1 0 0 1 654.9141 216.3672)" font-family="'MyriadPro-BoldCond'" font-size="28">21.8</text>
	</g>
	<g>
		<g>
			<polygon fill="#FBB040" stroke="#FBB040" stroke-miterlimit="10" points="501.3,530.9 516,501.3 515.8,512 590.7,511.8 
				590.7,549.7 515.8,549.8 516,560.5 			"/>
			<polygon fill="#FBB040" stroke="#FBB040" stroke-miterlimit="10" points="759.8,549.3 687.2,549.5 687.2,511.9 759.8,511.8 			
				"/>
			<polygon fill="#EF4136" stroke="#EF4136" stroke-miterlimit="10" points="850.8,530.9 836.1,501.3 836.4,512 761.5,511.8 
				761.5,549.7 836.4,549.8 836.1,560.5 			"/>
			<polygon fill="#8DC63F" stroke="#8DC63F" stroke-miterlimit="10" points="685.7,549.3 591.8,549.5 591.8,512 685.7,511.8 			"/>
			<text transform="matrix(1 0 0 1 579.9307 563.0078)" font-family="'MyriadPro-Bold'" font-size="13.3">18.5</text>
			<text transform="matrix(1 0 0 1 679.6807 563.0078)" font-family="'MyriadPro-Bold'" font-size="13.3">25</text>
			<text transform="matrix(1 0 0 1 755.0229 563.0078)" font-family="'MyriadPro-Bold'" font-size="13.3">30</text>
			<text transform="matrix(0.8583 0 0 1 526.4419 538.1621)" font-family="'MyriadPro-Semibold'" font-size="14.25">Bajo Peso</text>
			<text transform="matrix(0.8583 0 0 1 619.1143 538.1621)" font-family="'MyriadPro-Semibold'" font-size="14.25">Normal</text>
			<text transform="matrix(0.8583 0 0 1 695.2393 538.1621)" font-family="'MyriadPro-Semibold'" font-size="14.25">Sobrepeso</text>
			<text transform="matrix(0.8583 0 0 1 785.5205 538.1621)" font-family="'MyriadPro-Semibold'" font-size="14.25">Obeso</text>
		</g>
		<g>
			<g>
				
					<image overflow="visible" opacity="0.75" width="325" height="247" xlink:href="1CB4D65A52EB20C3.png"  transform="matrix(0.24 0 0 0.24 603.3877 471.71)">
				</image>
				<g>
					<path fill="#FFFFFF" d="M668.7,504c0,7.9-6.6,14.2-14.8,14.2h-30.4c-8.2,0-14.8-6.4-14.8-14.2v-12.6c0-7.9,6.6-14.2,14.8-14.2
						h30.4c8.2,0,14.8,6.4,14.8,14.2V504z"/>
					<path fill="none" stroke="#000000" stroke-width="5" stroke-miterlimit="10" d="M668.7,504c0,7.9-6.6,14.2-14.8,14.2h-30.4
						c-8.2,0-14.8-6.4-14.8-14.2v-12.6c0-7.9,6.6-14.2,14.8-14.2h30.4c8.2,0,14.8,6.4,14.8,14.2V504z"/>
				</g>
			</g>
			<text transform="matrix(1 0 0 1 620.3574 505.918)" font-family="'MyriadPro-BoldCond'" font-size="24.3298">21.8</text>
		</g>
	</g>
</g>
</svg>
