<?xml version="1.0" encoding="utf-8"?>
<!-- Generator: Adobe Illustrator 18.1.1, SVG Export Plug-In . SVG Version: 6.00 Build 0)  -->
<!DOCTYPE svg PUBLIC "-//W3C//DTD SVG 1.1//EN" "http://www.w3.org/Graphics/SVG/1.1/DTD/svg11.dtd">
<svg version="1.1" xmlns="http://www.w3.org/2000/svg" xmlns:xlink="http://www.w3.org/1999/xlink" x="0px" y="0px"
	 viewBox="0 0 1048 728" enable-background="new 0 0 1048 728" xml:space="preserve">
<g id="Layer_1">
</g>
<g id="Header_text">
</g>
<g id="SP_header">
</g>
<g id="hip_x2F_knee">
</g>
<g id="guts">
	<g id="heart">
	</g>
	<g id="Kidney">
	</g>
</g>
<g id="Pancreas">
</g>
<g id="txt">
</g>
<g id="little_txt">
</g>
<g id="SP_txt">
</g>
<g id="SP_little_txt">
</g>
<g id="shot">
</g>
<g id="Insulin">
</g>
<g id="fingerPrik">
	<g>
		<polygon fill="#FBB040" stroke="#FBB040" stroke-miterlimit="10" points="115.2,523 129.9,493.4 129.7,504.1 204.6,504 
			204.6,541.8 129.7,541.9 130,552.6 		"/>
		<polygon fill="#FBB040" stroke="#FBB040" stroke-miterlimit="10" points="373.7,541.5 301.1,541.6 301.1,504 373.7,503.9 		"/>
		<polygon fill="#EF4136" stroke="#EF4136" stroke-miterlimit="10" points="464.8,523 450.1,493.4 450.3,504.1 375.4,504 
			375.4,541.8 450.3,541.9 450.1,552.6 		"/>
		<polygon fill="#8DC63F" stroke="#8DC63F" stroke-miterlimit="10" points="299.6,541.4 205.7,541.6 205.7,504.1 299.6,503.9 		"/>
		<text transform="matrix(1 0 0 1 193.8701 555.126)" font-family="'MyriadPro-Bold'" font-size="13.3">18.5</text>
		<text transform="matrix(1 0 0 1 293.6201 555.126)" font-family="'MyriadPro-Bold'" font-size="13.3">25</text>
		<text transform="matrix(1 0 0 1 368.9624 555.126)" font-family="'MyriadPro-Bold'" font-size="13.3">30</text>
		<text transform="matrix(0.8583 0 0 1 140.3813 530.2803)" font-family="'MyriadPro-Semibold'" font-size="14.25">Bajo Peso</text>
		<text transform="matrix(0.8583 0 0 1 233.0537 530.2803)" font-family="'MyriadPro-Semibold'" font-size="14.25">Normal</text>
		<text transform="matrix(0.8583 0 0 1 309.1787 530.2803)" font-family="'MyriadPro-Semibold'" font-size="14.25">Sobrepeso</text>
		<text transform="matrix(0.8583 0 0 1 399.46 530.2803)" font-family="'MyriadPro-Semibold'" font-size="14.25">Obeso</text>
	</g>
	<g>
		<g>
			<path fill="#FFFFFF" stroke="#000000" stroke-width="2" stroke-miterlimit="10" d="M276.7,110c-1.4,1.5-11.9,3.7-23.1,8.9
				c-26.7-0.4-27.1,28.8-27.1,28.8s-7.7,14.6-12.5,35.7c-8.7,10.8-8.1,47.5-9.9,54.2c-1.8,6.7-8.6,22.2-3.6,37
				c2.8,5.6,6.6,16.4,8.4,16.6c1.8,0.2,4.3-7.5,4.1-10.5c-0.3-3-3.4-5.3-3.9-8.6c-0.4-3.2,1.7-7.6,2.9-7.8c2-0.2,4.1,12.3,7.1,10.3
				c3-1.9,3.3-10.8,3.3-10.8c2.3-3.7,0.3-11.8-3-13.3c-3.3-1.5-2.5-7.3-1-11.4c1.5-4.1,8.1-15.1,11-21.9c2.9-6.8,4.6-19.2,7.7-23.5
				c3.1-4.2,7.9-25,8.9-25.2c1.1-0.1,0.5,12.4,3.5,15.5c1.7,6.1-23,30.2-5.9,52.7c-10,30.4-13.1,56.2-7.5,75.2
				c5.6,19.1,10.2,21.2,11.4,23.7c1.2,2.5,0.7,15.5,3,18.9c-5.1,14.1-1.7,49,1,56.8c2.7,7.7,4.7,24.4,3,28.4
				c-1.7,4-14,15.5-19.3,17.2c-5.3,1.7-1.8,6,1.5,6.2c3.3,0.2,26.2,0.6,29,0.6c2.8,0,8.1-4.9,7.1-7.5c-1-2.6-2.5-12.9-2-15.7
				c0.5-2.8,3-38.2,8.1-43c5.1-4.9,1.9-35.5,0.2-39.4c-1.7-3.9,1.6-11.5,7.4-20.4c5.8-8.9,4.7-63,6.2-63.2
				c1.5-0.1,2.7,54.9,5.4,61.5c2.7,6.6,8,17.6,5.5,23.3c-4.1,8.7,2,30.1,6.6,37.9c4.6,7.7,6.3,41.7,6.3,41.7s-2.5,15.5-2.5,18.3
				c0,2.8,5.1,5.6,7.6,5.8c2.5,0.2,25.7,0,31.5,0c5.8,0,3-7.3-3.6-8.6c-4.3-2.2-9.4-6-11.7-9.5c-2.3-3.4-3.1-27.5-3.1-27.5
				s8.9-50.3,3.8-65.8c2.5-4.7-0.3-11,0.7-12.8c1-1.8,1.9-2.9,6.9-19.7c5-16.7,1.3-68.8-4.9-78.7c17-21.7-4.6-47.1-3.8-54.7
				c2.7-2.5,2.4-20.3,3.4-20.4c1-0.1,4,20.1,8.5,24.3c4.5,4.2,4.9,19.7,6.6,24.7c1.7,5,11.9,22.2,13.1,28.2c1.3,6-2,10.5-3.8,13.1
				c-1.8,2.6-4.6,21.9-1,21.5c3.6-0.4,5.1-12.5,8.4-12.9c3.3-0.4,3.8,5.2,3.8,5.2s1.3,5.6-1.5,10.1c-2.8,4.5,0.5,16.1,2.8,14
				c2.3-2.1,9.1-8.6,8.9-12.3c-0.3-3.7,3.6-20.4,1-24.5c-2.5-4.1-4.1-14.8-4.1-14.8s-2.7-32.1-3.6-38.1c-0.9-6-7.2-18.1-8.6-21.3
				c-1.4-3.2-6.7-27.8-7.3-31.6c-0.7-3.8-2.6-34-25.2-34c-18.5-7.5-25.7-4.9-27.4-8.4c-1.8-3.4-1.4-8.5,0.1-10.2
				c3.3-2.1,5.2-10.3,5.2-10.3c4.3-0.2,2.5-11.4,2-13.6c-0.5-2.1-3.8-3-3.8-3s-0.3-7.3-1.5-12.9c-3-11.4-34.6-11.4-38.1-1.1
				c-3.6,6.7-3.6,15.7-3.6,15.7s-3,0.2-4.1,1.7c-1,1.5-0.3,12.3,4.1,12.5c0.3,6.5,4.8,9.8,5.9,11.8C278.8,101.2,278,108.5,276.7,110
				z"/>
			<path fill="#EF4136" stroke="#000000" stroke-miterlimit="10" d="M234.2,281c2,0.9,53.8,7.1,55.6,6.4c1.9-0.7,1.1-12.9,1.1-13.5
				c1.4,0.9,2.4,1.4,3.9,0.2c-0.3,3.4-0.2,13.3,1,14.3c1.2,1,52.6-2.7,52.6-5c-0.4-21.1-6-42.8-7.7-44.3
				c-17.4,4.6-81.1,2.7-97.7-4.1C241.2,237.8,232.2,280.2,234.2,281z"/>
			<path fill="none" stroke="#000000" stroke-width="2" stroke-miterlimit="10" d="M342.6,151c-0.4-2.8,2.5,11.5-8.2,17.1
				c-0.7,0.4-5.7,2.3-2.4,1"/>
			<path fill="none" stroke="#000000" stroke-width="2" stroke-miterlimit="10" d="M243.1,156c-0.1-4.6-1.4,10.2,9.6,12.7
				c1,0.2,5.1,1.7,2.9,1"/>
			<path fill="#FFFFFF" stroke="#000000" stroke-width="2" stroke-miterlimit="10" d="M253.9,233.5c-2.2-2.4,0.7,0.7,1,1.1
				c18.2,19.6,56.9,18.9,75,2.5c0.9-0.8,7.1-7,2.4-2.4"/>
		</g>
		<text transform="matrix(1 0 0 1 272.4639 216.7129)" font-family="'MyriadPro-BoldCond'" font-size="28">41.5</text>
	</g>
	<g>
		<g>
			
				<image overflow="visible" opacity="0.75" width="325" height="247" xlink:href="D1CE677CCC01BBDD.png"  transform="matrix(0.24 0 0 0.24 378.5322 463.8271)">
			</image>
			<g>
				<path fill="#FFFFFF" d="M443.9,496.1c0,7.9-6.6,14.2-14.8,14.2h-30.4c-8.2,0-14.8-6.4-14.8-14.2v-12.6c0-7.9,6.6-14.2,14.8-14.2
					h30.4c8.2,0,14.8,6.4,14.8,14.2V496.1z"/>
				<path fill="none" stroke="#000000" stroke-width="5" stroke-miterlimit="10" d="M443.9,496.1c0,7.9-6.6,14.2-14.8,14.2h-30.4
					c-8.2,0-14.8-6.4-14.8-14.2v-12.6c0-7.9,6.6-14.2,14.8-14.2h30.4c8.2,0,14.8,6.4,14.8,14.2V496.1z"/>
			</g>
		</g>
		<text transform="matrix(1 0 0 1 395.5039 498.0361)" font-family="'MyriadPro-BoldCond'" font-size="24.3298">41.5</text>
	</g>
</g>
</svg>
