<?xml version="1.0" encoding="utf-8"?>
<!-- Generator: Adobe Illustrator 18.1.1, SVG Export Plug-In . SVG Version: 6.00 Build 0)  -->
<!DOCTYPE svg PUBLIC "-//W3C//DTD SVG 1.1//EN" "http://www.w3.org/Graphics/SVG/1.1/DTD/svg11.dtd">
<svg version="1.1" xmlns="http://www.w3.org/2000/svg" xmlns:xlink="http://www.w3.org/1999/xlink" x="0px" y="0px"
	 viewBox="0 0 1048 728" enable-background="new 0 0 1048 728" xml:space="preserve">
<g id="Layer_1">
</g>
<g id="Header_text">
</g>
<g id="SP_header">
</g>
<g id="hip_x2F_knee">
</g>
<g id="guts">
	<g id="heart">
	</g>
	<g id="Kidney">
	</g>
</g>
<g id="Pancreas">
</g>
<g id="txt">
</g>
<g id="little_txt">
</g>
<g id="SP_txt">
</g>
<g id="SP_little_txt">
</g>
<g id="shot">
</g>
<g id="Insulin">
</g>
<g id="fingerPrik">
	<g>
		<g>
			<g>
				<path fill="#FFFFFF" stroke="#000000" stroke-width="2" stroke-miterlimit="10" d="M267.9,79.2c-1.1,1.1-8,3.4-15.4,8.6
					c-17.6-0.4-17.4,31-17.4,31s-5.5,12.5-8.7,33.6c-8,18.3-5.4,47.5-6.5,54.2c-1.2,6.7-5.7,22.2-2.3,37c1.8,5.6,4.3,16.3,5.5,16.6
					c1.2,0.2,2.8-7.5,2.7-10.5c-0.2-3-2.3-5.4-2.6-8.6c-0.3-3.2,1.1-7.6,1.9-7.8c1.3-0.2,2.7,12.3,4.7,10.3c2-1.9,2.2-10.8,2.2-10.8
					c1.5-3.7,0.2-11.8-2-13.3c-2.2-1.5-1.7-7.3-0.7-11.4c1-4.1,6-13.6,8.9-21.1c2.8-7.5,1.3-22.4,2.2-24.7c0.9-2.4,6-25.2,7.2-24.7
					c1.2,0.4,2.7,12.5,4.5,15.7c1.8,3.2,5,19.8,3.4,27.2c-1.6,7.5-4.2,16.4-5.1,26.1c-0.9,9.8-7.4,65.7-5.8,78.9
					c1.6,13.2,4,19.2,4,19.2s0.4,15.5,2,18.9c-3.3,14.1-1.1,49,0.7,56.8c1.8,7.8,3.1,24.4,2,28.4c-1.1,4-9.2,15.5-12.7,17.2
					c-3.5,1.7-1.2,6,1,6.2c2.2,0.2,17.2,0.6,19.1,0.6c1.8,0,5.4-4.9,4.7-7.5c-0.7-2.6-1.7-12.9-1.3-15.7c0.3-2.8,2-38.2,5.4-43
					c3.3-4.9,2-22.7-0.9-39c-1.1-4.6,0.4-16.6,2.7-21.5c4-9.5,6.3-63.4,6.3-63.4h3.3c0,0,3.6,55.9,5.4,59.9c1.8,4,3.5,14.3,2,21.8
					c-3.3,17.9-1.2,34,1.8,41.7c3,7.7,4.2,41.7,4.2,41.7s-1.7,15.5-1.7,18.3c0,2.8,3.3,5.6,5,5.8c1.7,0.2,16.9,0,20.8,0
					c3.8,0,2-7.3-2.3-8.6c-2.8-2.2-6.2-6-7.7-9.5c-1.5-3.4-2-27.5-2-27.5s5.9-50.3,2.5-65.8c1.7-4.7,0.2-15.1,0.2-15.1
					s2.9-6.9,4.7-16.3c1.8-9.5-3.8-72-5.1-81.5c-1.3-9.5-0.9-15.1-3.2-24.5c-2.3-9.4-0.1-23.4,1.5-26.4c1.6-3,2.7-21.9,3.5-22.6
					c0.8-0.6,5.4,21.3,6,23.2c0.6,1.9-0.3,15.9,2,24.5c2.3,8.6,9.7,23.4,10.5,29.5c0.8,6-1.3,10.5-2.5,13.1
					c-1.2,2.6-3,21.9-0.7,21.5c2.3-0.4,3.4-12.5,5.5-12.9c2.2-0.4,2.5,5.2,2.5,5.2s0.8,5.6-1,10.1c-1.8,4.5,0.3,16.1,1.8,14
					c1.5-2.2,6-8.6,5.9-12.3c-0.2-3.7,2.3-20.4,0.7-24.5c-1.7-4.1-2.7-14.8-2.7-14.8s-1-32.7-2.5-41.5c-1.5-8.8-5.5-17.9-5.5-17.9
					s-1.3-20.2-4.7-31c1.3-2.8-1.8-34.6-16.7-34.6c-8.8-4.1-16.9-4.9-18.1-8.4c-1.2-3.4-0.8-6-0.5-11.6c3-1.9,4-8.8,4-8.8
					c2.8-0.2,1.7-11.4,1.3-13.6c-0.3-2.2-2.5-3-2.5-3s-0.2-7.3-1-12.9c-2-11.4-22.8-11.4-25.1-1.1c-2.3,6.7-2.3,15.7-2.3,15.7
					s-2,0.2-2.7,1.7c-0.7,1.5-0.2,12.3,2.7,12.5c0.2,6.5,4.3,10.8,4.3,10.8C268.9,69.5,268.9,78.1,267.9,79.2z"/>
				<path fill="none" stroke="#000000" stroke-miterlimit="10" d="M303.4,89.3c1.6-0.1-13.9,0.3-14.5,1.3c-0.6,1-4.6,2.9-4.6,2.9"/>
				<path fill="none" stroke="#000000" stroke-miterlimit="10" d="M275.5,93.7c0,0-3.4-1.2-5.3-2.6c-1.9-1.4-18.6-0.4-15.3-0.5"/>
				<path fill="none" stroke="#000000" stroke-miterlimit="10" d="M275.4,136.4c-0.5,0.9,3.1-5.7,4.3-6c1.2-0.3,5.8,7,5.3,6"/>
				<path fill="none" stroke="#000000" stroke-miterlimit="10" d="M304.2,137c-1.2,2.1-8.5,7.6-10.8,8.2"/>
				<path fill="none" stroke="#000000" stroke-miterlimit="10" d="M303.8,142.3c-0.9,2.1-6,7.6-7.7,8.2"/>
				<path fill="none" stroke="#000000" stroke-miterlimit="10" d="M304.3,149.1c-0.6,1.5-4.3,5.4-5.5,5.8"/>
				<path fill="none" stroke="#000000" stroke-miterlimit="10" d="M253.8,138.1c1.3,2,8.6,7.1,10.9,7.5"/>
				<path fill="none" stroke="#000000" stroke-miterlimit="10" d="M254.4,143.4c1,2.1,6.3,7.3,7.9,7.7"/>
				<path fill="none" stroke="#000000" stroke-miterlimit="10" d="M254.4,150.2c0.7,1.5,4.4,5.2,5.6,5.5"/>
				<path fill="none" stroke="#000000" stroke-miterlimit="10" d="M265.8,212.6c0,0-0.9-13.3-1.7-15.5c-0.9-2.2-3.4-6.9-3-6.2"/>
				<path fill="none" stroke="#000000" stroke-miterlimit="10" d="M292.1,213.4c0,0-0.5-12.9,0.1-15.8c0.6-2.9,4.6-10.1,3.6-8.2"/>
				<path fill="#FBB040" stroke="#000000" stroke-miterlimit="10" d="M245.6,253.6c1.3,0.9,29.6,5,30.8,4.3
					c1.2-0.7,0.7-14.1,0.7-14.1c1.1,0.8,2.5,1.1,3.8,0c0,0-0.1,13.6,0.7,14.6c0.8,1,30.6-1.6,31.1-3.7c0.6-2.2-3.2-45.6-4.4-47
					c-11.5,4.6-47.4,6.4-58.4-0.3C248.7,210.1,244.2,252.7,245.6,253.6z"/>
			</g>
			<text transform="matrix(1 0 0 1 257.7085 184.2842)" font-family="'MyriadPro-BoldCond'" font-size="28">18.2</text>
		</g>
		<g>
			<polygon fill="#FBB040" stroke="#FBB040" stroke-miterlimit="10" points="104.1,489.7 118.8,460 118.6,470.7 193.4,470.6 
				193.4,508.4 118.6,508.5 118.8,519.2 			"/>
			<polygon fill="#FBB040" stroke="#FBB040" stroke-miterlimit="10" points="362.6,508.1 290,508.2 290,470.6 362.6,470.5 			"/>
			<polygon fill="#EF4136" stroke="#EF4136" stroke-miterlimit="10" points="453.6,489.7 438.9,460 439.2,470.7 364.3,470.6 
				364.3,508.4 439.2,508.5 438.9,519.2 			"/>
			<polygon fill="#8DC63F" stroke="#8DC63F" stroke-miterlimit="10" points="288.5,508.1 194.6,508.3 194.6,470.7 288.5,470.5 			
				"/>
			<text transform="matrix(1 0 0 1 182.7246 521.7495)" font-family="'MyriadPro-Bold'" font-size="13.3">18.5</text>
			<text transform="matrix(1 0 0 1 282.4746 521.7495)" font-family="'MyriadPro-Bold'" font-size="13.3">25</text>
			<text transform="matrix(1 0 0 1 357.8169 521.7495)" font-family="'MyriadPro-Bold'" font-size="13.3">30</text>
			<text transform="matrix(0.8583 0 0 1 129.2358 496.9038)" font-family="'MyriadPro-Semibold'" font-size="14.25">Bajo Peso</text>
			<text transform="matrix(0.8583 0 0 1 221.9082 496.9038)" font-family="'MyriadPro-Semibold'" font-size="14.25">Normal</text>
			<text transform="matrix(0.8583 0 0 1 298.0332 496.9038)" font-family="'MyriadPro-Semibold'" font-size="14.25">Sobrepeso</text>
			<text transform="matrix(0.8583 0 0 1 388.3145 496.9038)" font-family="'MyriadPro-Semibold'" font-size="14.25">Obeso</text>
		</g>
		<g>
			<g>
				
					<image overflow="visible" opacity="0.75" width="325" height="247" xlink:href="F22101B897086275.png"  transform="matrix(0.24 0 0 0.24 122.6055 430.5527)">
				</image>
				<g>
					<path fill="#FFFFFF" d="M187.9,462.8c0,7.9-6.6,14.2-14.8,14.2h-30.4c-8.2,0-14.8-6.4-14.8-14.2v-12.6
						c0-7.9,6.6-14.2,14.8-14.2h30.4c8.2,0,14.8,6.4,14.8,14.2V462.8z"/>
					<path fill="none" stroke="#000000" stroke-width="5" stroke-miterlimit="10" d="M187.9,462.8c0,7.9-6.6,14.2-14.8,14.2h-30.4
						c-8.2,0-14.8-6.4-14.8-14.2v-12.6c0-7.9,6.6-14.2,14.8-14.2h30.4c8.2,0,14.8,6.4,14.8,14.2V462.8z"/>
				</g>
			</g>
			<text transform="matrix(1 0 0 1 139.5762 464.7612)" font-family="'MyriadPro-BoldCond'" font-size="24.3298">18.2</text>
		</g>
	</g>
</g>
</svg>
