<?xml version="1.0" encoding="utf-8"?>
<!-- Generator: Adobe Illustrator 16.0.0, SVG Export Plug-In . SVG Version: 6.00 Build 0)  -->
<!DOCTYPE svg PUBLIC "-//W3C//DTD SVG 1.1//EN" "http://www.w3.org/Graphics/SVG/1.1/DTD/svg11.dtd">
<svg version="1.1" xmlns="http://www.w3.org/2000/svg" xmlns:xlink="http://www.w3.org/1999/xlink" x="0px" y="0px"
	 width="841.89px" height="595.28px" viewBox="0 0 841.89 595.28" enable-background="new 0 0 841.89 595.28" xml:space="preserve">
<g id="small_tetx">
	<g>
		<path d="M24.064,454.879c1.032-0.244,2.688-0.407,4.316-0.407c2.361,0,3.881,0.407,4.995,1.33c0.95,0.706,1.547,1.792,1.547,3.23
			c0,1.791-1.195,3.339-3.095,4.018v0.081c1.737,0.407,3.773,1.846,3.773,4.561c0,1.574-0.624,2.796-1.574,3.665
			c-1.249,1.167-3.312,1.71-6.298,1.71c-1.628,0-2.877-0.108-3.665-0.218V454.879z M26.426,462.371h2.145
			c2.47,0,3.936-1.33,3.936-3.095c0-2.117-1.602-2.986-3.991-2.986c-1.085,0-1.71,0.082-2.09,0.163V462.371z M26.426,471.111
			c0.488,0.082,1.14,0.109,1.981,0.109c2.443,0,4.696-0.896,4.696-3.557c0-2.47-2.145-3.528-4.723-3.528h-1.955V471.111z"/>
		<path d="M40.135,466.769c0.055,3.23,2.09,4.561,4.506,4.561c1.71,0,2.769-0.299,3.638-0.679l0.434,1.71
			c-0.841,0.38-2.307,0.842-4.397,0.842c-4.045,0-6.46-2.688-6.46-6.65c0-3.964,2.334-7.059,6.162-7.059
			c4.316,0,5.429,3.746,5.429,6.162c0,0.489-0.027,0.842-0.082,1.113H40.135z M47.139,465.059c0.027-1.493-0.625-3.854-3.312-3.854
			c-2.443,0-3.475,2.198-3.665,3.854H47.139z"/>
		<path d="M55.284,456.616v3.148h3.42v1.819h-3.42v7.085c0,1.629,0.461,2.552,1.792,2.552c0.652,0,1.032-0.055,1.385-0.163
			l0.108,1.818c-0.461,0.163-1.194,0.326-2.117,0.326c-1.113,0-2.009-0.38-2.579-1.005c-0.651-0.732-0.923-1.899-0.923-3.447v-7.166
			h-2.036v-1.819h2.036v-2.442L55.284,456.616z"/>
		<path d="M64.27,456.616v3.148h3.42v1.819h-3.42v7.085c0,1.629,0.461,2.552,1.792,2.552c0.652,0,1.032-0.055,1.385-0.163
			l0.108,1.818c-0.461,0.163-1.194,0.326-2.117,0.326c-1.113,0-2.009-0.38-2.579-1.005c-0.651-0.732-0.923-1.899-0.923-3.447v-7.166
			h-2.036v-1.819h2.036v-2.442L64.27,456.616z"/>
		<path d="M71.545,466.769c0.055,3.23,2.09,4.561,4.506,4.561c1.71,0,2.769-0.299,3.638-0.679l0.434,1.71
			c-0.841,0.38-2.307,0.842-4.397,0.842c-4.045,0-6.46-2.688-6.46-6.65c0-3.964,2.334-7.059,6.162-7.059
			c4.316,0,5.429,3.746,5.429,6.162c0,0.489-0.027,0.842-0.082,1.113H71.545z M78.549,465.059c0.027-1.493-0.625-3.854-3.312-3.854
			c-2.443,0-3.475,2.198-3.665,3.854H78.549z"/>
		<path d="M83.816,463.864c0-1.548-0.027-2.878-0.108-4.1h2.09l0.108,2.606h0.082c0.597-1.765,2.063-2.878,3.665-2.878
			c0.244,0,0.434,0.027,0.651,0.055v2.253c-0.244-0.055-0.488-0.055-0.814-0.055c-1.683,0-2.877,1.249-3.203,3.041
			c-0.054,0.325-0.081,0.732-0.081,1.112v7.004h-2.389V463.864z"/>
	</g>
	<g>
		<path d="M375.315,467.233l-1.9,5.755h-2.443l6.243-18.296h2.823l6.244,18.296h-2.524l-1.955-5.755H375.315z M381.341,465.388
			l-1.819-5.267c-0.407-1.194-0.679-2.28-0.95-3.339h-0.054c-0.271,1.059-0.543,2.199-0.923,3.312l-1.792,5.294H381.341z"/>
		<path d="M389.243,459.85l2.579,7.356c0.434,1.222,0.787,2.308,1.059,3.394h0.082c0.298-1.086,0.679-2.172,1.113-3.394l2.552-7.356
			h2.498l-5.158,13.139h-2.28l-4.995-13.139H389.243z"/>
		<path d="M402.436,466.854c0.055,3.23,2.09,4.561,4.506,4.561c1.71,0,2.769-0.299,3.638-0.679l0.434,1.71
			c-0.841,0.38-2.307,0.842-4.397,0.842c-4.045,0-6.46-2.688-6.46-6.65c0-3.964,2.334-7.059,6.162-7.059
			c4.316,0,5.429,3.746,5.429,6.162c0,0.489-0.027,0.842-0.082,1.113H402.436z M409.44,465.144c0.027-1.493-0.625-3.854-3.312-3.854
			c-2.443,0-3.475,2.198-3.665,3.854H409.44z"/>
		<path d="M414.707,463.949c0-1.548-0.027-2.878-0.108-4.1h2.09l0.108,2.606h0.082c0.597-1.765,2.063-2.878,3.665-2.878
			c0.244,0,0.435,0.027,0.651,0.055v2.253c-0.244-0.055-0.488-0.055-0.814-0.055c-1.683,0-2.877,1.249-3.203,3.041
			c-0.054,0.325-0.081,0.732-0.081,1.112v7.004h-2.389V463.949z"/>
		<path d="M432.679,469.84c0,1.14,0.054,2.253,0.19,3.148h-2.145l-0.19-1.656h-0.081c-0.732,1.032-2.145,1.955-4.018,1.955
			c-2.66,0-4.018-1.873-4.018-3.773c0-3.176,2.823-4.913,7.899-4.886v-0.271c0-1.059-0.299-3.041-2.986-3.014
			c-1.249,0-2.524,0.353-3.447,0.978l-0.543-1.602c1.086-0.679,2.688-1.141,4.343-1.141c4.018,0,4.995,2.742,4.995,5.348V469.84z
			 M430.371,466.283c-2.605-0.054-5.564,0.407-5.564,2.959c0,1.574,1.031,2.28,2.227,2.28c1.736,0,2.85-1.086,3.229-2.199
			c0.081-0.271,0.108-0.543,0.108-0.76V466.283z"/>
		<path d="M447.772,471.061c0,3.041-0.624,4.859-1.873,6.026c-1.303,1.168-3.149,1.575-4.805,1.575c-1.574,0-3.312-0.381-4.37-1.086
			l0.598-1.847c0.868,0.57,2.225,1.06,3.854,1.06c2.443,0,4.234-1.276,4.234-4.615v-1.438h-0.054
			c-0.706,1.222-2.145,2.198-4.181,2.198c-3.257,0-5.592-2.769-5.592-6.406c0-4.451,2.904-6.949,5.945-6.949
			c2.279,0,3.502,1.168,4.099,2.253h0.054l0.082-1.981h2.117c-0.081,0.923-0.108,2.009-0.108,3.584V471.061z M445.384,465.035
			c0-0.407-0.027-0.761-0.136-1.06c-0.435-1.411-1.574-2.551-3.339-2.551c-2.28,0-3.909,1.927-3.909,4.967
			c0,2.579,1.33,4.724,3.882,4.724c1.493,0,2.823-0.923,3.312-2.443c0.137-0.407,0.19-0.868,0.19-1.275V465.035z"/>
		<path d="M453.04,466.854c0.055,3.23,2.091,4.561,4.507,4.561c1.709,0,2.769-0.299,3.637-0.679l0.435,1.71
			c-0.841,0.38-2.308,0.842-4.397,0.842c-4.045,0-6.461-2.688-6.461-6.65c0-3.964,2.335-7.059,6.162-7.059
			c4.316,0,5.43,3.746,5.43,6.162c0,0.489-0.027,0.842-0.082,1.113H453.04z M460.044,465.144c0.026-1.493-0.624-3.854-3.312-3.854
			c-2.443,0-3.475,2.198-3.665,3.854H460.044z"/>
	</g>
	<g>
		<path d="M742.892,473.716l-4.641-18.296h2.497l2.171,9.257c0.543,2.28,1.032,4.561,1.357,6.324h0.055
			c0.299-1.818,0.869-3.99,1.493-6.352l2.442-9.229h2.471l2.227,9.283c0.516,2.172,1.004,4.344,1.275,6.271h0.055
			c0.379-2.009,0.895-4.045,1.465-6.325l2.416-9.229h2.416l-5.185,18.296h-2.47l-2.308-9.528c-0.57-2.334-0.95-4.126-1.194-5.972
			h-0.055c-0.299,1.818-0.732,3.61-1.412,5.972l-2.605,9.528H742.892z"/>
		<path d="M773.786,467.038c0,4.859-3.393,6.977-6.542,6.977c-3.528,0-6.298-2.606-6.298-6.76c0-4.37,2.904-6.949,6.516-6.949
			C771.235,460.306,773.786,463.048,773.786,467.038z M763.39,467.174c0,2.877,1.629,5.049,3.963,5.049
			c2.281,0,3.99-2.145,3.99-5.104c0-2.226-1.112-5.021-3.936-5.021C764.611,462.098,763.39,464.703,763.39,467.174z"/>
		<path d="M776.801,464.677c0-1.548-0.026-2.878-0.108-4.1h2.09l0.109,2.606h0.081c0.597-1.765,2.063-2.878,3.665-2.878
			c0.244,0,0.434,0.027,0.65,0.055v2.253c-0.244-0.055-0.488-0.055-0.814-0.055c-1.682,0-2.877,1.249-3.203,3.041
			c-0.054,0.325-0.08,0.732-0.08,1.112v7.004h-2.39V464.677z"/>
		<path d="M785.353,471.3c0.732,0.435,1.982,0.923,3.176,0.923c1.711,0,2.525-0.842,2.525-1.954c0-1.141-0.68-1.737-2.416-2.389
			c-2.389-0.869-3.502-2.145-3.502-3.719c0-2.118,1.736-3.855,4.533-3.855c1.33,0,2.497,0.354,3.203,0.814l-0.57,1.737
			c-0.516-0.325-1.466-0.787-2.688-0.787c-1.411,0-2.172,0.814-2.172,1.792c0,1.086,0.761,1.574,2.471,2.253
			c2.253,0.842,3.447,1.981,3.447,3.936c0,2.335-1.818,3.964-4.886,3.964c-1.438,0-2.769-0.38-3.692-0.923L785.353,471.3z"/>
		<path d="M797.759,467.581c0.055,3.23,2.09,4.561,4.506,4.561c1.711,0,2.77-0.299,3.639-0.679l0.434,1.71
			c-0.842,0.38-2.307,0.842-4.397,0.842c-4.045,0-6.46-2.688-6.46-6.65c0-3.964,2.334-7.059,6.161-7.059
			c4.316,0,5.429,3.746,5.429,6.162c0,0.489-0.026,0.842-0.081,1.113H797.759z M804.763,465.871
			c0.027-1.493-0.625-3.854-3.313-3.854c-2.442,0-3.475,2.198-3.664,3.854H804.763z"/>
	</g>
</g>
<g id="rectangle">
	<linearGradient id="SVGID_1_" gradientUnits="userSpaceOnUse" x1="26" y1="336" x2="808" y2="336">
		<stop  offset="0" style="stop-color:#00A651"/>
		<stop  offset="0.0297" style="stop-color:#00A956"/>
		<stop  offset="0.235" style="stop-color:#77C695"/>
		<stop  offset="0.4005" style="stop-color:#C0E2CA"/>
		<stop  offset="0.518" style="stop-color:#EBF5ED"/>
		<stop  offset="0.5767" style="stop-color:#FFFFFF"/>
		<stop  offset="1" style="stop-color:#ED1C24"/>
	</linearGradient>
	<rect x="26" y="278" opacity="0.91" fill="url(#SVGID_1_)" width="782" height="116"/>
</g>
<g id="graph_x2F_numbers">
	<line fill="none" stroke="#58595B" stroke-width="3" stroke-miterlimit="10" x1="25" y1="395.119" x2="808" y2="395.119"/>
	<line fill="none" stroke="#58595B" stroke-miterlimit="10" x1="25.521" y1="276.999" x2="25.521" y2="399.234"/>
	<line fill="none" stroke="#58595B" stroke-miterlimit="10" x1="123.027" y1="276.999" x2="123.027" y2="399.234"/>
	<line fill="none" stroke="#58595B" stroke-miterlimit="10" x1="221.239" y1="276.999" x2="221.239" y2="399.234"/>
	<line fill="none" stroke="#58595B" stroke-miterlimit="10" x1="319.452" y1="276.999" x2="319.452" y2="399.234"/>
	<line fill="none" stroke="#58595B" stroke-miterlimit="10" x1="416.958" y1="276.999" x2="416.958" y2="399.234"/>
	<line fill="none" stroke="#58595B" stroke-miterlimit="10" x1="514.463" y1="276.999" x2="514.463" y2="399.234"/>
	<line fill="none" stroke="#58595B" stroke-miterlimit="10" x1="613.382" y1="276.999" x2="613.382" y2="399.234"/>
	<line fill="none" stroke="#58595B" stroke-miterlimit="10" x1="710.181" y1="276.999" x2="710.181" y2="399.234"/>
	<line fill="none" stroke="#58595B" stroke-miterlimit="10" x1="808.393" y1="276.999" x2="808.393" y2="399.234"/>
	<g>
		<path stroke="#000000" stroke-miterlimit="10" d="M21.106,414.365h-0.038l-2.155,1.164l-0.324-1.278l2.708-1.449h1.431v12.397
			h-1.621V414.365z"/>
		<path stroke="#000000" stroke-miterlimit="10" d="M35.504,418.867c0,4.215-1.583,6.542-4.311,6.542
			c-2.422,0-4.082-2.27-4.12-6.371c0-4.177,1.812-6.446,4.33-6.446C33.997,412.592,35.504,414.919,35.504,418.867z M28.771,419.058
			c0,3.224,0.992,5.055,2.518,5.055c1.698,0,2.518-2.003,2.518-5.169c0-3.052-0.763-5.055-2.518-5.055
			C29.839,413.889,28.771,415.682,28.771,419.058z"/>
	</g>
	<g>
		<path stroke="#000000" stroke-miterlimit="10" d="M114.843,425.199v-1.03l1.316-1.277c3.166-3.014,4.616-4.616,4.616-6.485
			c0-1.259-0.591-2.422-2.441-2.422c-1.125,0-2.06,0.572-2.632,1.049l-0.534-1.183c0.839-0.706,2.079-1.259,3.49-1.259
			c2.67,0,3.796,1.831,3.796,3.604c0,2.289-1.66,4.14-4.272,6.657l-0.973,0.915v0.038h5.55v1.393H114.843z"/>
		<path stroke="#000000" stroke-miterlimit="10" d="M132.883,418.867c0,4.215-1.583,6.542-4.311,6.542
			c-2.422,0-4.082-2.27-4.12-6.371c0-4.177,1.812-6.446,4.33-6.446C131.376,412.592,132.883,414.919,132.883,418.867z
			 M126.15,419.058c0,3.224,0.992,5.055,2.518,5.055c1.698,0,2.518-2.003,2.518-5.169c0-3.052-0.763-5.055-2.518-5.055
			C127.218,413.889,126.15,415.682,126.15,419.058z"/>
	</g>
	<g>
		<path stroke="#000000" stroke-miterlimit="10" d="M213.689,423.292c0.477,0.286,1.564,0.763,2.747,0.763
			c2.136,0,2.823-1.354,2.804-2.403c-0.019-1.735-1.583-2.479-3.204-2.479h-0.935v-1.259h0.935c1.221,0,2.766-0.629,2.766-2.098
			c0-0.992-0.629-1.869-2.174-1.869c-0.992,0-1.946,0.438-2.479,0.819l-0.458-1.221c0.667-0.477,1.926-0.953,3.262-0.953
			c2.441,0,3.547,1.449,3.547,2.956c0,1.297-0.782,2.385-2.289,2.938v0.038c1.526,0.286,2.747,1.431,2.766,3.166
			c0,1.984-1.564,3.72-4.521,3.72c-1.392,0-2.613-0.438-3.223-0.84L213.689,423.292z"/>
		<path stroke="#000000" stroke-miterlimit="10" d="M231.33,418.867c0,4.215-1.583,6.542-4.311,6.542
			c-2.422,0-4.082-2.27-4.12-6.371c0-4.177,1.812-6.446,4.33-6.446C229.823,412.592,231.33,414.919,231.33,418.867z
			 M224.597,419.058c0,3.224,0.992,5.055,2.518,5.055c1.698,0,2.518-2.003,2.518-5.169c0-3.052-0.763-5.055-2.518-5.055
			C225.665,413.889,224.597,415.682,224.597,419.058z"/>
	</g>
	<g>
		<path stroke="#000000" stroke-miterlimit="10" d="M315.838,425.199v-3.396h-5.76v-1.087l5.531-7.915h1.812v7.705h1.736v1.297
			h-1.736v3.396H315.838z M315.838,420.507v-4.139c0-0.648,0.019-1.297,0.057-1.945h-0.057c-0.381,0.725-0.687,1.259-1.03,1.831
			l-3.032,4.215v0.038H315.838z"/>
		<path stroke="#000000" stroke-miterlimit="10" d="M328.69,418.867c0,4.215-1.583,6.542-4.311,6.542
			c-2.422,0-4.082-2.27-4.12-6.371c0-4.177,1.812-6.446,4.33-6.446C327.184,412.592,328.69,414.919,328.69,418.867z
			 M321.958,419.058c0,3.224,0.992,5.055,2.518,5.055c1.698,0,2.518-2.003,2.518-5.169c0-3.052-0.763-5.055-2.518-5.055
			C323.025,413.889,321.958,415.682,321.958,419.058z"/>
	</g>
	<g>
		<path stroke="#000000" stroke-miterlimit="10" d="M415.763,414.213h-4.73l-0.477,3.186c0.286-0.038,0.553-0.058,1.011-0.058
			c0.973,0,1.908,0.19,2.67,0.668c0.973,0.534,1.774,1.621,1.774,3.166c0,2.422-1.926,4.234-4.616,4.234
			c-1.354,0-2.479-0.382-3.09-0.763l0.419-1.278c0.515,0.306,1.526,0.687,2.67,0.687c1.564,0,2.937-1.03,2.918-2.689
			c0-1.602-1.087-2.728-3.547-2.728c-0.725,0-1.278,0.058-1.736,0.114l0.801-5.95h5.932V414.213z"/>
		<path stroke="#000000" stroke-miterlimit="10" d="M426.403,418.867c0,4.215-1.583,6.542-4.311,6.542
			c-2.422,0-4.082-2.27-4.12-6.371c0-4.177,1.812-6.446,4.33-6.446C424.896,412.592,426.403,414.919,426.403,418.867z
			 M419.67,419.058c0,3.224,0.992,5.055,2.517,5.055c1.698,0,2.518-2.003,2.518-5.169c0-3.052-0.762-5.055-2.518-5.055
			C420.738,413.889,419.67,415.682,419.67,419.058z"/>
	</g>
	<g>
		<path stroke="#000000" stroke-miterlimit="10" d="M513.485,413.984c-0.343-0.02-0.782,0.019-1.259,0.095
			c-2.651,0.42-4.024,2.327-4.311,4.387h0.038c0.591-0.801,1.64-1.449,3.014-1.449c2.193,0,3.738,1.603,3.738,4.006
			c0,2.288-1.545,4.387-4.14,4.387c-2.631,0-4.367-2.061-4.367-5.283c0-2.441,0.858-4.368,2.098-5.589
			c1.03-1.011,2.404-1.641,3.968-1.831c0.496-0.076,0.915-0.096,1.221-0.096V413.984z M513.008,421.137
			c0-1.774-1.01-2.842-2.555-2.842c-1.012,0-1.965,0.61-2.423,1.525c-0.095,0.191-0.171,0.42-0.171,0.725
			c0.019,2.041,0.973,3.567,2.746,3.567C512.035,424.112,513.008,422.91,513.008,421.137z"/>
		<path stroke="#000000" stroke-miterlimit="10" d="M524.449,418.867c0,4.215-1.582,6.542-4.311,6.542
			c-2.422,0-4.082-2.27-4.119-6.371c0-4.177,1.812-6.446,4.329-6.446C522.943,412.592,524.449,414.919,524.449,418.867z
			 M517.717,419.058c0,3.224,0.992,5.055,2.518,5.055c1.697,0,2.518-2.003,2.518-5.169c0-3.052-0.763-5.055-2.518-5.055
			C518.785,413.889,517.717,415.682,517.717,419.058z"/>
	</g>
	<g>
		<path stroke="#000000" stroke-miterlimit="10" d="M612.354,412.802v1.106l-5.397,11.291h-1.736l5.379-10.967v-0.039h-6.064v-1.392
			H612.354z"/>
		<path stroke="#000000" stroke-miterlimit="10" d="M622.346,418.867c0,4.215-1.582,6.542-4.311,6.542
			c-2.422,0-4.082-2.27-4.119-6.371c0-4.177,1.812-6.446,4.329-6.446C620.84,412.592,622.346,414.919,622.346,418.867z
			 M615.613,419.058c0,3.224,0.992,5.055,2.518,5.055c1.697,0,2.518-2.003,2.518-5.169c0-3.052-0.763-5.055-2.518-5.055
			C616.682,413.889,615.613,415.682,615.613,419.058z"/>
	</g>
	<g>
		<path stroke="#000000" stroke-miterlimit="10" d="M704.203,418.676c-1.393-0.648-1.983-1.717-1.983-2.784
			c0-1.965,1.659-3.3,3.853-3.3c2.403,0,3.624,1.487,3.624,3.052c0,1.049-0.534,2.193-2.06,2.899v0.057
			c1.545,0.61,2.498,1.717,2.498,3.204c0,2.175-1.85,3.605-4.215,3.605c-2.594,0-4.158-1.526-4.158-3.338
			c0-1.564,0.935-2.689,2.461-3.338L704.203,418.676z M708.438,421.976c0-1.487-1.049-2.231-2.728-2.708
			c-1.45,0.419-2.231,1.393-2.231,2.574c-0.057,1.24,0.896,2.347,2.479,2.347C707.465,424.188,708.438,423.254,708.438,421.976z
			 M703.822,415.777c-0.02,1.239,0.934,1.907,2.365,2.288c1.067-0.362,1.888-1.125,1.888-2.25c0-0.992-0.591-2.022-2.099-2.022
			C704.585,413.793,703.822,414.709,703.822,415.777z"/>
		<path stroke="#000000" stroke-miterlimit="10" d="M719.955,418.867c0,4.215-1.584,6.542-4.311,6.542
			c-2.423,0-4.082-2.27-4.121-6.371c0-4.177,1.813-6.446,4.33-6.446C718.447,412.592,719.955,414.919,719.955,418.867z
			 M713.222,419.058c0,3.224,0.991,5.055,2.518,5.055c1.698,0,2.518-2.003,2.518-5.169c0-3.052-0.763-5.055-2.518-5.055
			C714.289,413.889,713.222,415.682,713.222,419.058z"/>
	</g>
	<g>
		<path stroke="#000000" stroke-miterlimit="10" d="M799.428,424.017c0.363,0.038,0.783,0,1.354-0.058
			c0.974-0.133,1.889-0.515,2.595-1.201c0.82-0.744,1.411-1.831,1.64-3.28h-0.058c-0.686,0.839-1.678,1.315-2.938,1.315
			c-2.212,0-3.643-1.678-3.643-3.795c0-2.347,1.697-4.406,4.234-4.406s4.102,2.041,4.102,5.245c0,2.708-0.916,4.616-2.137,5.798
			c-0.953,0.935-2.27,1.507-3.605,1.66c-0.609,0.095-1.145,0.114-1.545,0.095V424.017z M800.039,416.902
			c0,1.545,0.934,2.632,2.384,2.632c1.126,0,2.003-0.553,2.441-1.297c0.095-0.172,0.152-0.343,0.152-0.629
			c0-2.117-0.782-3.739-2.556-3.739C801.049,413.869,800.039,415.129,800.039,416.902z"/>
		<path stroke="#000000" stroke-miterlimit="10" d="M816.496,418.867c0,4.215-1.584,6.542-4.311,6.542
			c-2.423,0-4.082-2.27-4.121-6.371c0-4.177,1.813-6.446,4.33-6.446C814.988,412.592,816.496,414.919,816.496,418.867z
			 M809.763,419.058c0,3.224,0.991,5.055,2.518,5.055c1.698,0,2.518-2.003,2.518-5.169c0-3.052-0.763-5.055-2.518-5.055
			C810.83,413.889,809.763,415.682,809.763,419.058z"/>
	</g>
</g>
</svg>
