<?xml version="1.0" encoding="utf-8"?>
<!-- Generator: Adobe Illustrator 16.0.0, SVG Export Plug-In . SVG Version: 6.00 Build 0)  -->
<!DOCTYPE svg PUBLIC "-//W3C//DTD SVG 1.1//EN" "http://www.w3.org/Graphics/SVG/1.1/DTD/svg11.dtd">
<svg version="1.1" xmlns="http://www.w3.org/2000/svg" xmlns:xlink="http://www.w3.org/1999/xlink" x="0px" y="0px"
	 width="841.89px" height="595.28px" viewBox="0 0 841.89 595.28" enable-background="new 0 0 841.89 595.28" xml:space="preserve">
<g id="rectangle">
	<linearGradient id="SVGID_1_" gradientUnits="userSpaceOnUse" x1="26" y1="336" x2="808" y2="336">
		<stop  offset="0" style="stop-color:#00A651"/>
		<stop  offset="0.0297" style="stop-color:#00A956"/>
		<stop  offset="0.235" style="stop-color:#77C695"/>
		<stop  offset="0.4005" style="stop-color:#C0E2CA"/>
		<stop  offset="0.518" style="stop-color:#EBF5ED"/>
		<stop  offset="0.5767" style="stop-color:#FFFFFF"/>
		<stop  offset="1" style="stop-color:#ED1C24"/>
	</linearGradient>
	<rect x="26" y="278" opacity="0.91" fill="url(#SVGID_1_)" width="782" height="116"/>
</g>
<g id="graph_x2F_numbers">
	<line fill="none" stroke="#58595B" stroke-width="3" stroke-miterlimit="10" x1="25" y1="395.119" x2="808" y2="395.119"/>
	<line fill="none" stroke="#58595B" stroke-miterlimit="10" x1="25.521" y1="276.999" x2="25.521" y2="399.234"/>
	<line fill="none" stroke="#58595B" stroke-miterlimit="10" x1="123.026" y1="276.999" x2="123.026" y2="399.234"/>
	<line fill="none" stroke="#58595B" stroke-miterlimit="10" x1="221.239" y1="276.999" x2="221.239" y2="399.234"/>
	<line fill="none" stroke="#58595B" stroke-miterlimit="10" x1="319.451" y1="276.999" x2="319.451" y2="399.234"/>
	<line fill="none" stroke="#58595B" stroke-miterlimit="10" x1="416.957" y1="276.999" x2="416.957" y2="399.234"/>
	<line fill="none" stroke="#58595B" stroke-miterlimit="10" x1="514.463" y1="276.999" x2="514.463" y2="399.234"/>
	<line fill="none" stroke="#58595B" stroke-miterlimit="10" x1="613.382" y1="276.999" x2="613.382" y2="399.234"/>
	<line fill="none" stroke="#58595B" stroke-miterlimit="10" x1="710.181" y1="276.999" x2="710.181" y2="399.234"/>
	<line fill="none" stroke="#58595B" stroke-miterlimit="10" x1="808.393" y1="276.999" x2="808.393" y2="399.234"/>
	<g>
		<path stroke="#000000" stroke-miterlimit="10" d="M21.106,414.365h-0.038l-2.155,1.164l-0.324-1.278l2.708-1.449h1.431v12.397
			h-1.621V414.365z"/>
		<path stroke="#000000" stroke-miterlimit="10" d="M35.504,418.867c0,4.215-1.583,6.542-4.311,6.542
			c-2.423,0-4.082-2.27-4.12-6.371c0-4.177,1.812-6.446,4.329-6.446C33.997,412.592,35.504,414.919,35.504,418.867z M28.771,419.058
			c0,3.224,0.992,5.055,2.518,5.055c1.698,0,2.518-2.003,2.518-5.169c0-3.052-0.763-5.055-2.518-5.055
			C29.839,413.889,28.771,415.682,28.771,419.058z"/>
	</g>
	<g>
		<path stroke="#000000" stroke-miterlimit="10" d="M114.843,425.199v-1.03l1.315-1.277c3.166-3.014,4.616-4.616,4.616-6.485
			c0-1.259-0.592-2.422-2.441-2.422c-1.125,0-2.061,0.572-2.632,1.049l-0.534-1.183c0.839-0.706,2.079-1.259,3.49-1.259
			c2.67,0,3.796,1.831,3.796,3.604c0,2.289-1.66,4.14-4.272,6.657l-0.973,0.915v0.038h5.55v1.393H114.843z"/>
		<path stroke="#000000" stroke-miterlimit="10" d="M132.883,418.867c0,4.215-1.583,6.542-4.311,6.542
			c-2.422,0-4.082-2.27-4.12-6.371c0-4.177,1.813-6.446,4.33-6.446C131.376,412.592,132.883,414.919,132.883,418.867z
			 M126.15,419.058c0,3.224,0.991,5.055,2.518,5.055c1.697,0,2.518-2.003,2.518-5.169c0-3.052-0.763-5.055-2.518-5.055
			C127.218,413.889,126.15,415.682,126.15,419.058z"/>
	</g>
	<g>
		<path stroke="#000000" stroke-miterlimit="10" d="M213.689,423.292c0.477,0.286,1.563,0.763,2.746,0.763
			c2.137,0,2.823-1.354,2.804-2.403c-0.019-1.735-1.583-2.479-3.204-2.479h-0.935v-1.259h0.935c1.221,0,2.766-0.629,2.766-2.098
			c0-0.992-0.629-1.869-2.174-1.869c-0.992,0-1.946,0.438-2.479,0.819l-0.458-1.221c0.667-0.477,1.926-0.953,3.262-0.953
			c2.441,0,3.547,1.449,3.547,2.956c0,1.297-0.781,2.385-2.288,2.938v0.038c1.525,0.286,2.746,1.431,2.766,3.166
			c0,1.984-1.564,3.72-4.521,3.72c-1.393,0-2.613-0.438-3.224-0.84L213.689,423.292z"/>
		<path stroke="#000000" stroke-miterlimit="10" d="M231.329,418.867c0,4.215-1.583,6.542-4.311,6.542
			c-2.422,0-4.082-2.27-4.12-6.371c0-4.177,1.813-6.446,4.33-6.446C229.822,412.592,231.329,414.919,231.329,418.867z
			 M224.597,419.058c0,3.224,0.991,5.055,2.518,5.055c1.697,0,2.518-2.003,2.518-5.169c0-3.052-0.763-5.055-2.518-5.055
			C225.664,413.889,224.597,415.682,224.597,419.058z"/>
	</g>
	<g>
		<path stroke="#000000" stroke-miterlimit="10" d="M315.838,425.199v-3.396h-5.761v-1.087l5.531-7.915h1.813v7.705h1.735v1.297
			h-1.735v3.396H315.838z M315.838,420.507v-4.139c0-0.648,0.019-1.297,0.057-1.945h-0.057c-0.382,0.725-0.687,1.259-1.03,1.831
			l-3.032,4.215v0.038H315.838z"/>
		<path stroke="#000000" stroke-miterlimit="10" d="M328.69,418.867c0,4.215-1.583,6.542-4.311,6.542
			c-2.423,0-4.082-2.27-4.12-6.371c0-4.177,1.812-6.446,4.329-6.446C327.184,412.592,328.69,414.919,328.69,418.867z
			 M321.957,419.058c0,3.224,0.992,5.055,2.518,5.055c1.698,0,2.518-2.003,2.518-5.169c0-3.052-0.763-5.055-2.518-5.055
			C323.025,413.889,321.957,415.682,321.957,419.058z"/>
	</g>
	<g>
		<path stroke="#000000" stroke-miterlimit="10" d="M415.763,414.213h-4.729l-0.478,3.186c0.286-0.038,0.554-0.058,1.011-0.058
			c0.974,0,1.908,0.19,2.671,0.668c0.973,0.534,1.773,1.621,1.773,3.166c0,2.422-1.926,4.234-4.615,4.234
			c-1.354,0-2.479-0.382-3.09-0.763l0.419-1.278c0.516,0.306,1.526,0.687,2.671,0.687c1.563,0,2.937-1.03,2.918-2.689
			c0-1.602-1.087-2.728-3.548-2.728c-0.725,0-1.277,0.058-1.735,0.114l0.801-5.95h5.932V414.213z"/>
		<path stroke="#000000" stroke-miterlimit="10" d="M426.403,418.867c0,4.215-1.583,6.542-4.311,6.542
			c-2.423,0-4.082-2.27-4.12-6.371c0-4.177,1.812-6.446,4.33-6.446C424.896,412.592,426.403,414.919,426.403,418.867z
			 M419.67,419.058c0,3.224,0.992,5.055,2.518,5.055c1.698,0,2.518-2.003,2.518-5.169c0-3.052-0.762-5.055-2.518-5.055
			C420.738,413.889,419.67,415.682,419.67,419.058z"/>
	</g>
	<g>
		<path stroke="#000000" stroke-miterlimit="10" d="M513.485,413.984c-0.343-0.02-0.782,0.019-1.259,0.095
			c-2.651,0.42-4.024,2.327-4.311,4.387h0.038c0.591-0.801,1.64-1.449,3.014-1.449c2.193,0,3.738,1.603,3.738,4.006
			c0,2.288-1.545,4.387-4.14,4.387c-2.631,0-4.367-2.061-4.367-5.283c0-2.441,0.858-4.368,2.098-5.589
			c1.03-1.011,2.404-1.641,3.968-1.831c0.496-0.076,0.915-0.096,1.221-0.096V413.984z M513.008,421.137
			c0-1.774-1.01-2.842-2.555-2.842c-1.012,0-1.965,0.61-2.423,1.525c-0.095,0.191-0.171,0.42-0.171,0.725
			c0.019,2.041,0.973,3.567,2.746,3.567C512.035,424.112,513.008,422.91,513.008,421.137z"/>
		<path stroke="#000000" stroke-miterlimit="10" d="M524.449,418.867c0,4.215-1.582,6.542-4.311,6.542
			c-2.422,0-4.082-2.27-4.119-6.371c0-4.177,1.812-6.446,4.329-6.446C522.943,412.592,524.449,414.919,524.449,418.867z
			 M517.717,419.058c0,3.224,0.992,5.055,2.518,5.055c1.697,0,2.518-2.003,2.518-5.169c0-3.052-0.763-5.055-2.518-5.055
			C518.785,413.889,517.717,415.682,517.717,419.058z"/>
	</g>
	<g>
		<path stroke="#000000" stroke-miterlimit="10" d="M612.354,412.802v1.106l-5.397,11.291h-1.736l5.379-10.967v-0.039h-6.064v-1.392
			H612.354z"/>
		<path stroke="#000000" stroke-miterlimit="10" d="M622.346,418.867c0,4.215-1.582,6.542-4.311,6.542
			c-2.422,0-4.082-2.27-4.119-6.371c0-4.177,1.812-6.446,4.329-6.446C620.84,412.592,622.346,414.919,622.346,418.867z
			 M615.613,419.058c0,3.224,0.992,5.055,2.518,5.055c1.697,0,2.518-2.003,2.518-5.169c0-3.052-0.763-5.055-2.518-5.055
			C616.682,413.889,615.613,415.682,615.613,419.058z"/>
	</g>
	<g>
		<path stroke="#000000" stroke-miterlimit="10" d="M704.203,418.676c-1.393-0.648-1.983-1.717-1.983-2.784
			c0-1.965,1.659-3.3,3.853-3.3c2.403,0,3.624,1.487,3.624,3.052c0,1.049-0.534,2.193-2.06,2.899v0.057
			c1.545,0.61,2.498,1.717,2.498,3.204c0,2.175-1.85,3.605-4.215,3.605c-2.594,0-4.158-1.526-4.158-3.338
			c0-1.564,0.935-2.689,2.461-3.338L704.203,418.676z M708.438,421.976c0-1.487-1.049-2.231-2.728-2.708
			c-1.45,0.419-2.231,1.393-2.231,2.574c-0.057,1.24,0.896,2.347,2.479,2.347C707.465,424.188,708.438,423.254,708.438,421.976z
			 M703.822,415.777c-0.02,1.239,0.934,1.907,2.365,2.288c1.067-0.362,1.888-1.125,1.888-2.25c0-0.992-0.591-2.022-2.099-2.022
			C704.585,413.793,703.822,414.709,703.822,415.777z"/>
		<path stroke="#000000" stroke-miterlimit="10" d="M719.955,418.867c0,4.215-1.584,6.542-4.311,6.542
			c-2.423,0-4.082-2.27-4.121-6.371c0-4.177,1.813-6.446,4.33-6.446C718.447,412.592,719.955,414.919,719.955,418.867z
			 M713.222,419.058c0,3.224,0.991,5.055,2.518,5.055c1.698,0,2.518-2.003,2.518-5.169c0-3.052-0.763-5.055-2.518-5.055
			C714.289,413.889,713.222,415.682,713.222,419.058z"/>
	</g>
	<g>
		<path stroke="#000000" stroke-miterlimit="10" d="M799.428,424.017c0.363,0.038,0.783,0,1.354-0.058
			c0.974-0.133,1.889-0.515,2.595-1.201c0.82-0.744,1.411-1.831,1.64-3.28h-0.058c-0.686,0.839-1.678,1.315-2.938,1.315
			c-2.212,0-3.643-1.678-3.643-3.795c0-2.347,1.697-4.406,4.234-4.406s4.102,2.041,4.102,5.245c0,2.708-0.916,4.616-2.137,5.798
			c-0.953,0.935-2.27,1.507-3.605,1.66c-0.609,0.095-1.145,0.114-1.545,0.095V424.017z M800.039,416.902
			c0,1.545,0.934,2.632,2.384,2.632c1.126,0,2.003-0.553,2.441-1.297c0.095-0.172,0.152-0.343,0.152-0.629
			c0-2.117-0.782-3.739-2.556-3.739C801.049,413.869,800.039,415.129,800.039,416.902z"/>
		<path stroke="#000000" stroke-miterlimit="10" d="M816.496,418.867c0,4.215-1.584,6.542-4.311,6.542
			c-2.423,0-4.082-2.27-4.121-6.371c0-4.177,1.813-6.446,4.33-6.446C814.988,412.592,816.496,414.919,816.496,418.867z
			 M809.763,419.058c0,3.224,0.991,5.055,2.518,5.055c1.698,0,2.518-2.003,2.518-5.169c0-3.052-0.763-5.055-2.518-5.055
			C810.83,413.889,809.763,415.682,809.763,419.058z"/>
	</g>
	<text transform="matrix(1 0 0 1 23.375 472.4092)" font-family="'MyriadPro-Regular'" font-size="26">Mejor</text>
	<text transform="matrix(1 0 0 1 364.6553 472.9893)" font-family="'MyriadPro-Regular'" font-size="26">Promedio</text>
	<text transform="matrix(1 0 0 1 759.0146 472.4082)" font-family="'MyriadPro-Regular'" font-size="26">Peor</text>
</g>
</svg>
