<?xml version="1.0" encoding="utf-8"?>
<!-- Generator: Adobe Illustrator 16.0.0, SVG Export Plug-In . SVG Version: 6.00 Build 0)  -->
<!DOCTYPE svg PUBLIC "-//W3C//DTD SVG 1.1//EN" "http://www.w3.org/Graphics/SVG/1.1/DTD/svg11.dtd">
<svg version="1.1" xmlns="http://www.w3.org/2000/svg" xmlns:xlink="http://www.w3.org/1999/xlink" x="0px" y="0px"
	 width="858.776px" height="595.28px" viewBox="0 0 858.776 595.28" enable-background="new 0 0 858.776 595.28"
	 xml:space="preserve">
<g id="ruler">
	<polygon fill="#8DC63F" stroke="#8DC63F" stroke-miterlimit="10" points="41.335,545.805 79.583,570.576 79.583,561.717 
		344.887,561.494 344.887,530.113 79.583,530.336 79.583,521.031 	"/>
	<path fill="#754C29" stroke="#754C29" stroke-width="2" stroke-miterlimit="10" d="M569.843,77
		c20.334-0.353,24.362,15.899,24.965,21.376c0.602,5.476,3.018,27.381,1.61,31.444c-1.409,4.064-7.4,4.266-11.327,4.521
		c-3.925,0.255-28.588,0.471-32.01-0.414c-3.424-0.884-8.404-2.163-9.21-6.05c-0.806-3.887-0.804-24.556,0-28.973
		C544.676,94.489,549.509,77.354,569.843,77z"/>
	<g id="Ruler_Text">
	</g>
	<path fill="#FFFFFF" stroke="#000000" stroke-width="2" stroke-miterlimit="10" d="M549.752,115.906
		c0.12,8.807,5.606,13.77,8.583,18.333v9.52c-8-2.02-18.566-2.285-30.25,1.73c-11.682,4.015-18.363,19.203-22.166,31.25
		c-3.802,12.046-11.334,22.667-12.667,35.667s-5.667,38.833-6.129,46.572c-0.538,3.761-2.907,14.011-4.691,18.938
		c-1.783,4.928,10.557,12.685,12.788,14.601c2.229,1.917,5.945-3.102,4.16-6.022c-1.778-2.92-3.455-7.119-2.981-10.131
		c0.475-3.012,3.579,7.393,5.958,6.845c2.381-0.547,1.786-8.762,1.786-8.762s-4.027-7.393-4.316-10.678
		c-0.289-3.285-0.797-16.501,1.584-19.968c12.842-21.728,16.405-39.078,16.405-39.078c6.582-4.747,6.849-22.908,7.739-22.634
		c0.894,0.274,0.579,15.056,3.846,18.982c0,0-5.181,8.527-4.32,20.078c-6.602,4.563-12.022,14.282-13.253,24.367
		c-1.229,10.086-2.82,30.209,1.137,50.286c3.967,18.199,13.035,28.748,16.159,37.51c0,0-2.079,6.844,0.909,19.43
		c-0.103,6.178-0.612,13.519,0.281,21.456c0.895,7.94,9.516,27.014,11.302,32.763c1.783,5.75,1.187,10.771,0.299,16.063
		c-0.892,5.291-11.006,8.029-12.492,11.134c-1.486,3.102,26.169,3.832,29.146,1.823c2.976-2.007,5.945-6.386,5.354-9.308
		c-0.596-2.92-2.085-6.752-1.785-10.403c0.299-3.652-2.679-17.523,0-24.095c2.675-6.57,8.378-22.176,2.372-38.331
		c0,0,2.011-8.35,0.744-13.826c6.644-23.908,2.418-62.819,2.418-62.819l3.632,0.032c0,0-6.114,42.8,1.399,61.145
		c-1.446,3.285-0.411,11.499,0.604,16.428c-2.792,4.79-2.251,28.248,1.023,35.729c3.271,7.484,2.083,25.188,2.083,25.188
		s-2.964,8.294-2.677,10.404c0.285,2.114,6.983,8.183,9.812,9.311c2.831,1.128,23.021,1.817,24.983,0.545
		c1.965-1.268-10.091-8.605-11.598-10.951c-1.511-2.341-2.383-12.959-0.003-18.8c2.381-5.84,9.52-19.71,11.601-24.639
		c1.109-2.623,2.677-17.342-0.069-30.49c2.153-6.016,3.333-13.957,3.035-18.519c3.46-6.116,7.999-13.909,13.394-28.019
		c5.653-14.786,3.812-41.64,0.876-59.357c-2.936-17.718-11.201-20.556-15.13-24.389c1.906-10.237-0.841-21.827-0.841-21.827
		c3.717-4.951-0.032-17.896,1.02-18.181c1.053-0.284,3.748,14.055,8.334,16.428c3.307,3.285,2.061,18.344,6.035,25.736
		c3.979,7.392,7.989,13.323,10.72,17.614c2.729,4.289,5.305,14.692,5.348,18.252c0.046,3.559-5.062,7.255-4.838,9.583
		c0.222,2.328-0.445,13.553,0.892,14.101c1.339,0.547,4.236-6.708,6.036-8.898c1.802-2.19,1.548,7.94,0.434,10.13
		c-1.115,2.19,2.23,9.035,3.123,7.118c0.893-1.916,10.361-8.84,10.923-15.469c0.563-6.628-4.78-17.771-5.175-22.052
		s-3.063-24.614-6.896-38.281s-8.343-26.373-11.832-31.667c-3.49-5.293-3.79-28.132-17.334-37.167c-7.172-5.111-23.75-4-32.75-2.663
		v-10.952c2.387-2.19,6.258-8.928,6.25-17.552c-8.256-2.054-19.026-19.135-19.026-19.135S562.466,111.388,549.752,115.906z"/>
	<path fill="#754C29" stroke="#754C29" stroke-width="2" stroke-miterlimit="10" d="M221.137,77
		c20.333-0.353,24.362,15.899,24.965,21.376c0.602,5.476,3.018,27.381,1.61,31.444c-1.41,4.064-7.4,4.266-11.327,4.521
		c-3.925,0.255-28.587,0.471-32.01-0.414c-3.423-0.884-8.405-2.163-9.21-6.05c-0.805-3.887-0.804-24.556,0-28.973
		C195.97,94.489,200.802,77.354,221.137,77z"/>
	<path fill="#FFFFFF" stroke="#000000" stroke-width="2" stroke-miterlimit="10" d="M201.959,114.127
		c0,7.522,5.886,11.898,7.901,16.458c2.014,4.559,1.007,13.494,1.007,13.494s-16.711,0.364-24.161,0.547
		c-7.447,0.183-9.663,19.694-9.663,19.694l-2.416,21.883c-1.61,3.647-7.654,16.958-8.255,25.529
		c-0.602,8.57-1.208,44.493-1.409,48.87c-0.2,4.377-2.012,12.218-3.22,17.142c-1.208,4.924,7.146,12.673,8.656,14.587
		c1.51,1.916,4.027-3.099,2.819-6.018c-1.207-2.917-5.435-8.57-2.214-11.123c1.97-1.562,2.617,8.387,4.228,7.84
		c1.612-0.547,1.409-7.658,1.007-10.394c-0.404-2.735-2.417-4.923-3.121-7.386c-0.705-2.461,1.657-21.249,3.269-24.714
		c1.612-3.463,4.222-11.229,5.833-16.7c1.611-5.471,2.674-20.676,2.674-20.676c2.419-2.736,5.439-21.426,6.042-21.153
		c0.604,0.273-1.007,14.952,4.629,18.964c2.567,2.051-1.308,16.412-2.213,21.335c-0.906,4.923-7.248,8.935-9.665,19.694
		c-1.109,4.942-3.623,35.285-1.208,50.876c2.415,15.591,8.758,31.457,10.873,40.208c0,0-1.409,6.84,0.614,19.411
		c-0.07,6.172-0.415,13.505,0.191,21.437c0.604,7.931,6.441,26.987,7.65,32.73c1.208,5.744,0.805,10.761,0.201,16.047
		c-0.602,5.29-7.448,8.024-8.455,11.124c-1.005,3.099,17.715,3.83,19.729,1.824c2.016-2.005,4.025-6.383,3.624-9.299
		c-0.4-2.919-1.411-6.746-1.207-10.396c0.203-3.648-1.812-17.506,0-24.069c1.812-6.565,5.436-24.346,0.603-38.296
		c0,0,1.511-8.752,0.604-13.674c3.625-19.148,1.813-64.554,1.813-64.554l4.833,0.181c0,0-1.009,58.538,0.402,64.371
		c-0.806,2.007,0.402,9.848,1.811,14.224c-1.409,3.831-4.027,28.631-1.813,36.106c2.216,7.476,1.412,25.165,1.412,25.165
		s-2.007,8.282-1.813,10.395c0.192,2.109,4.727,8.173,6.643,9.299c1.916,1.126,15.582,1.815,16.912,0.547
		c1.33-1.269-6.829-8.601-7.852-10.94c-1.021-2.342-1.612-12.949-0.001-18.782c1.611-5.836,6.446-19.692,7.853-24.617
		c0.751-2.62,1.813-17.322-0.046-30.462c1.456-6.01,1.155-12.665,0.953-17.224c2.617-5.287,7.248-20.241,10.569-37.475
		c1.713-8.886-1.209-52.699-3.624-60.175c-2.416-7.476-7.452-10.759-8.457-14.223c-1.005-3.464-2.214-16.594-0.199-21.335
		c5.034-5.834,1.407-17.871,2.618-18.417c1.209-0.547,3.823,12.4,6.442,15.317c0,7.658,0.741,18.98,3.963,24.451
		c3.221,5.47,6.504,14.936,7.511,18.401c1.008,3.465,3.221,19.33,3.221,19.33s-4.228,6.428-4.077,8.753
		c0.151,2.324-0.302,13.54,0.604,14.086c0.906,0.546,2.063-9.346,5.487-8.981c2.415-0.183-0.353,8.023-1.108,10.211
		c-0.754,2.188,1.509,9.027,2.114,7.113c0.604-1.915,8.153-13.267,7.549-17.78c-0.604-4.514-2.265-13.129-2.87-18.874
		c-0.602-5.744-1.461-37.199-2.667-43.764c-1.206-6.565-7.448-23.524-7.448-23.524s-2.619-14.406-2.416-19.329
		c0.202-4.924-3.021-19.694-6.644-21.7c-3.624-2.005-25.972-2.188-25.972-2.188s-1.007-7.841,0-10.941s7.701-12.172,8.154-17.37
		c-5.586-2.051-19.024-19.283-19.024-19.283S210.565,109.614,201.959,114.127z"/>
	<ellipse fill="none" stroke="#ED1C24" stroke-width="2" stroke-miterlimit="10" cx="567.756" cy="220.818" rx="44.88" ry="6.305"/>
	<ellipse fill="none" stroke="#00A651" stroke-width="2" stroke-miterlimit="10" cx="219.824" cy="220.818" rx="27.911" ry="6.32"/>
	
		<rect id="yellow" x="80.641" y="473.695" fill="#F9ED32" stroke="#F9ED32" stroke-miterlimit="10" width="696.201" height="35.268"/>
	
		<text transform="matrix(0.9696 0 0 1 205.6704 496.0625)" stroke="#000000" stroke-miterlimit="10" font-family="'MyriadPro-Regular'" font-size="16.2445">32</text>
	
		<text transform="matrix(0.9696 0 0 1 247.7354 495.9746)" stroke="#000000" stroke-miterlimit="10" font-family="'MyriadPro-Regular'" font-size="15.9415">33</text>
	
		<text transform="matrix(0.9696 0 0 1 289.3403 495.9951)" stroke="#000000" stroke-miterlimit="10" font-family="'MyriadPro-Regular'" font-size="16.0126">34</text>
	
		<text transform="matrix(0.9696 0 0 1 372.1792 495.7178)" stroke="#000000" stroke-miterlimit="10" font-family="'MyriadPro-Regular'" font-size="15.068">36</text>
	
		<text transform="matrix(0.9696 0 0 1 413.9014 495.7725)" stroke="#000000" stroke-miterlimit="10" font-family="'MyriadPro-Regular'" font-size="15.2518">37</text>
	
		<text transform="matrix(0.9696 0 0 1 455.2529 495.7422)" stroke="#000000" stroke-miterlimit="10" font-family="'MyriadPro-Regular'" font-size="15.1529">38</text>
	
		<text transform="matrix(0.9696 0 0 1 495.8408 495.6465)" stroke="#000000" stroke-miterlimit="10" font-family="'MyriadPro-Regular'" font-size="14.8263">39</text>
	
		<text transform="matrix(0.9696 0 0 1 578.5547 495.9609)" stroke="#000000" stroke-miterlimit="10" font-family="'MyriadPro-Regular'" font-size="15.8963">41</text>
	
		<text transform="matrix(0.9696 0 0 1 621.5439 495.6973)" stroke="#000000" stroke-miterlimit="10" font-family="'MyriadPro-Regular'" font-size="15">42</text>
	
		<text transform="matrix(0.9696 0 0 1 662.3516 495.7803)" stroke="#000000" stroke-miterlimit="10" font-family="'MyriadPro-Regular'" font-size="15.2813">43</text>
	<g>
		<path stroke="#000000" stroke-miterlimit="10" d="M708.813,496.375v-2.781h-4.578v-0.891l4.395-6.486h1.44v6.314h1.379v1.063
			h-1.379v2.781H708.813z M708.813,492.531v-3.393c0-0.531,0.016-1.063,0.044-1.594h-0.044c-0.303,0.594-0.545,1.031-0.819,1.5
			l-2.409,3.455v0.031H708.813z"/>
		<path stroke="#000000" stroke-miterlimit="10" d="M717.346,496.375v-2.781h-4.577v-0.891l4.395-6.486h1.44v6.314h1.378v1.063
			h-1.378v2.781H717.346z M717.346,492.531v-3.393c0-0.531,0.015-1.063,0.045-1.594h-0.045c-0.303,0.594-0.545,1.031-0.818,1.5
			l-2.41,3.455v0.031H717.346z"/>
	</g>
	
		<text transform="matrix(0.9696 0 0 1 745.3447 495.7129)" stroke="#000000" stroke-miterlimit="10" font-family="'MyriadPro-Regular'" font-size="15.0492">45</text>
	<line fill="none" stroke="#000000" stroke-width="2" stroke-miterlimit="10" x1="223.027" y1="509.254" x2="223.027" y2="493.26"/>
	
		<line fill="none" stroke="#000000" stroke-width="2" stroke-miterlimit="10" x1="244.071" y1="509.189" x2="244.071" y2="498.072"/>
	<line fill="none" stroke="#000000" stroke-width="2" stroke-miterlimit="10" x1="264.631" y1="509.254" x2="264.631" y2="493.26"/>
	
		<line fill="none" stroke="#000000" stroke-width="2" stroke-miterlimit="10" x1="285.675" y1="509.189" x2="285.675" y2="498.072"/>
	<line fill="none" stroke="#000000" stroke-width="2" stroke-miterlimit="10" x1="306.585" y1="509.254" x2="306.585" y2="493.26"/>
	<line fill="none" stroke="#000000" stroke-width="2" stroke-miterlimit="10" x1="327.63" y1="509.189" x2="327.63" y2="498.072"/>
	<line fill="none" stroke="#000000" stroke-width="2" stroke-miterlimit="10" x1="347.784" y1="509.254" x2="347.784" y2="493.26"/>
	
		<line fill="none" stroke="#000000" stroke-width="2" stroke-miterlimit="10" x1="368.829" y1="509.189" x2="368.829" y2="498.072"/>
	<line fill="none" stroke="#000000" stroke-width="2" stroke-miterlimit="10" x1="389.49" y1="509.254" x2="389.49" y2="493.26"/>
	
		<line fill="none" stroke="#000000" stroke-width="2" stroke-miterlimit="10" x1="410.537" y1="509.189" x2="410.537" y2="498.072"/>
	<line fill="none" stroke="#000000" stroke-width="2" stroke-miterlimit="10" x1="431.107" y1="509.254" x2="431.107" y2="493.26"/>
	
		<line fill="none" stroke="#000000" stroke-width="2" stroke-miterlimit="10" x1="452.151" y1="509.189" x2="452.151" y2="498.072"/>
	<line fill="none" stroke="#000000" stroke-width="2" stroke-miterlimit="10" x1="472.305" y1="509.254" x2="472.305" y2="493.26"/>
	
		<line fill="none" stroke="#000000" stroke-width="2" stroke-miterlimit="10" x1="493.351" y1="509.189" x2="493.351" y2="498.072"/>
	<line fill="none" stroke="#000000" stroke-width="2" stroke-miterlimit="10" x1="513.165" y1="509.254" x2="513.165" y2="493.26"/>
	<line fill="none" stroke="#000000" stroke-width="2" stroke-miterlimit="10" x1="534.21" y1="509.189" x2="534.21" y2="498.072"/>
	<line fill="none" stroke="#000000" stroke-width="2" stroke-miterlimit="10" x1="555.458" y1="509.254" x2="555.458" y2="493.26"/>
	
		<line fill="none" stroke="#000000" stroke-width="2" stroke-miterlimit="10" x1="576.503" y1="509.189" x2="576.503" y2="498.072"/>
	<line fill="none" stroke="#000000" stroke-width="2" stroke-miterlimit="10" x1="596.396" y1="509.254" x2="596.396" y2="493.26"/>
	
		<line fill="none" stroke="#000000" stroke-width="2" stroke-miterlimit="10" x1="617.441" y1="509.189" x2="617.441" y2="498.072"/>
	
		<line fill="none" stroke="#000000" stroke-width="2" stroke-miterlimit="10" x1="637.935" y1="509.254" x2="637.935" y2="494.549"/>
	
		<line fill="none" stroke="#000000" stroke-width="2" stroke-miterlimit="10" x1="658.979" y1="509.189" x2="658.979" y2="498.072"/>
	<line fill="none" stroke="#000000" stroke-width="2" stroke-miterlimit="10" x1="679.549" y1="509.254" x2="679.549" y2="493.26"/>
	
		<line fill="none" stroke="#000000" stroke-width="2" stroke-miterlimit="10" x1="700.595" y1="509.189" x2="700.595" y2="498.072"/>
	<line fill="none" stroke="#000000" stroke-width="2" stroke-miterlimit="10" x1="721.675" y1="509.254" x2="721.675" y2="493.26"/>
	<line fill="none" stroke="#000000" stroke-width="2" stroke-miterlimit="10" x1="763.291" y1="509.254" x2="763.291" y2="493.26"/>
	<line fill="none" stroke="#000000" stroke-width="2" stroke-miterlimit="10" x1="742.72" y1="509.189" x2="742.72" y2="498.072"/>
	
		<line fill="none" stroke="#000000" stroke-width="2" stroke-miterlimit="10" x1="202.467" y1="509.189" x2="202.467" y2="498.072"/>
	<line fill="none" stroke="#000000" stroke-width="2" stroke-miterlimit="10" x1="207.1" y1="509.254" x2="207.1" y2="502.238"/>
	
		<line fill="none" stroke="#000000" stroke-width="2" stroke-miterlimit="10" x1="212.679" y1="509.156" x2="212.679" y2="499.697"/>
	
		<line fill="none" stroke="#000000" stroke-width="2" stroke-miterlimit="10" x1="218.353" y1="509.156" x2="218.353" y2="502.141"/>
	
		<line fill="none" stroke="#000000" stroke-width="2" stroke-miterlimit="10" x1="227.808" y1="509.254" x2="227.808" y2="502.238"/>
	
		<line fill="none" stroke="#000000" stroke-width="2" stroke-miterlimit="10" x1="233.386" y1="509.156" x2="233.386" y2="499.697"/>
	<line fill="none" stroke="#000000" stroke-width="2" stroke-miterlimit="10" x1="239.06" y1="509.156" x2="239.06" y2="502.141"/>
	
		<line fill="none" stroke="#000000" stroke-width="2" stroke-miterlimit="10" x1="248.042" y1="509.254" x2="248.042" y2="502.238"/>
	
		<line fill="none" stroke="#000000" stroke-width="2" stroke-miterlimit="10" x1="253.622" y1="509.156" x2="253.622" y2="499.697"/>
	
		<line fill="none" stroke="#000000" stroke-width="2" stroke-miterlimit="10" x1="259.295" y1="509.156" x2="259.295" y2="502.141"/>
	
		<line fill="none" stroke="#000000" stroke-width="2" stroke-miterlimit="10" x1="269.034" y1="509.254" x2="269.034" y2="502.238"/>
	
		<line fill="none" stroke="#000000" stroke-width="2" stroke-miterlimit="10" x1="274.612" y1="509.156" x2="274.612" y2="499.697"/>
	
		<line fill="none" stroke="#000000" stroke-width="2" stroke-miterlimit="10" x1="280.286" y1="509.156" x2="280.286" y2="502.141"/>
	
		<line fill="none" stroke="#000000" stroke-width="2" stroke-miterlimit="10" x1="289.836" y1="509.254" x2="289.836" y2="502.238"/>
	
		<line fill="none" stroke="#000000" stroke-width="2" stroke-miterlimit="10" x1="295.415" y1="509.156" x2="295.415" y2="499.697"/>
	
		<line fill="none" stroke="#000000" stroke-width="2" stroke-miterlimit="10" x1="301.088" y1="509.156" x2="301.088" y2="502.141"/>
	
		<line fill="none" stroke="#000000" stroke-width="2" stroke-miterlimit="10" x1="311.016" y1="509.254" x2="311.016" y2="502.238"/>
	
		<line fill="none" stroke="#000000" stroke-width="2" stroke-miterlimit="10" x1="316.595" y1="509.156" x2="316.595" y2="499.697"/>
	
		<line fill="none" stroke="#000000" stroke-width="2" stroke-miterlimit="10" x1="322.269" y1="509.156" x2="322.269" y2="502.141"/>
	
		<line fill="none" stroke="#000000" stroke-width="2" stroke-miterlimit="10" x1="331.818" y1="509.254" x2="331.818" y2="502.238"/>
	
		<line fill="none" stroke="#000000" stroke-width="2" stroke-miterlimit="10" x1="337.397" y1="509.156" x2="337.397" y2="499.697"/>
	
		<line fill="none" stroke="#000000" stroke-width="2" stroke-miterlimit="10" x1="343.071" y1="509.156" x2="343.071" y2="502.141"/>
	
		<line fill="none" stroke="#000000" stroke-width="2" stroke-miterlimit="10" x1="352.432" y1="509.254" x2="352.432" y2="502.238"/>
	<line fill="none" stroke="#000000" stroke-width="2" stroke-miterlimit="10" x1="358.01" y1="509.156" x2="358.01" y2="499.697"/>
	
		<line fill="none" stroke="#000000" stroke-width="2" stroke-miterlimit="10" x1="363.684" y1="509.156" x2="363.684" y2="502.141"/>
	<line fill="none" stroke="#000000" stroke-width="2" stroke-miterlimit="10" x1="99.262" y1="509.254" x2="99.262" y2="493.26"/>
	
		<line fill="none" stroke="#000000" stroke-width="2" stroke-miterlimit="10" x1="120.308" y1="509.189" x2="120.308" y2="498.072"/>
	<line fill="none" stroke="#000000" stroke-width="2" stroke-miterlimit="10" x1="141.218" y1="509.254" x2="141.218" y2="493.26"/>
	
		<line fill="none" stroke="#000000" stroke-width="2" stroke-miterlimit="10" x1="162.262" y1="509.189" x2="162.262" y2="498.072"/>
	<line fill="none" stroke="#000000" stroke-width="2" stroke-miterlimit="10" x1="182.416" y1="509.254" x2="182.416" y2="493.26"/>
	<line fill="none" stroke="#000000" stroke-width="2" stroke-miterlimit="10" x1="82.674" y1="509.254" x2="82.674" y2="502.238"/>
	<line fill="none" stroke="#000000" stroke-width="2" stroke-miterlimit="10" x1="88.253" y1="509.156" x2="88.253" y2="499.697"/>
	<line fill="none" stroke="#000000" stroke-width="2" stroke-miterlimit="10" x1="93.927" y1="509.156" x2="93.927" y2="502.141"/>
	
		<line fill="none" stroke="#000000" stroke-width="2" stroke-miterlimit="10" x1="103.666" y1="509.254" x2="103.666" y2="502.238"/>
	
		<line fill="none" stroke="#000000" stroke-width="2" stroke-miterlimit="10" x1="109.245" y1="509.156" x2="109.245" y2="499.697"/>
	
		<line fill="none" stroke="#000000" stroke-width="2" stroke-miterlimit="10" x1="114.918" y1="509.156" x2="114.918" y2="502.141"/>
	
		<line fill="none" stroke="#000000" stroke-width="2" stroke-miterlimit="10" x1="124.468" y1="509.254" x2="124.468" y2="502.238"/>
	
		<line fill="none" stroke="#000000" stroke-width="2" stroke-miterlimit="10" x1="130.046" y1="509.156" x2="130.046" y2="499.697"/>
	<line fill="none" stroke="#000000" stroke-width="2" stroke-miterlimit="10" x1="135.72" y1="509.156" x2="135.72" y2="502.141"/>
	
		<line fill="none" stroke="#000000" stroke-width="2" stroke-miterlimit="10" x1="145.647" y1="509.254" x2="145.647" y2="502.238"/>
	
		<line fill="none" stroke="#000000" stroke-width="2" stroke-miterlimit="10" x1="151.227" y1="509.156" x2="151.227" y2="499.697"/>
	<line fill="none" stroke="#000000" stroke-width="2" stroke-miterlimit="10" x1="156.9" y1="509.156" x2="156.9" y2="502.141"/>
	<line fill="none" stroke="#000000" stroke-width="2" stroke-miterlimit="10" x1="166.45" y1="509.254" x2="166.45" y2="502.238"/>
	
		<line fill="none" stroke="#000000" stroke-width="2" stroke-miterlimit="10" x1="172.029" y1="509.156" x2="172.029" y2="499.697"/>
	
		<line fill="none" stroke="#000000" stroke-width="2" stroke-miterlimit="10" x1="177.703" y1="509.156" x2="177.703" y2="502.141"/>
	
		<line fill="none" stroke="#000000" stroke-width="2" stroke-miterlimit="10" x1="187.063" y1="509.254" x2="187.063" y2="502.238"/>
	
		<line fill="none" stroke="#000000" stroke-width="2" stroke-miterlimit="10" x1="192.642" y1="509.156" x2="192.642" y2="499.697"/>
	
		<line fill="none" stroke="#000000" stroke-width="2" stroke-miterlimit="10" x1="198.315" y1="509.156" x2="198.315" y2="502.141"/>
	
		<line fill="none" stroke="#000000" stroke-width="2" stroke-miterlimit="10" x1="373.234" y1="509.254" x2="373.234" y2="502.238"/>
	
		<line fill="none" stroke="#000000" stroke-width="2" stroke-miterlimit="10" x1="378.813" y1="509.156" x2="378.813" y2="499.697"/>
	
		<line fill="none" stroke="#000000" stroke-width="2" stroke-miterlimit="10" x1="384.486" y1="509.156" x2="384.486" y2="502.141"/>
	
		<line fill="none" stroke="#000000" stroke-width="2" stroke-miterlimit="10" x1="393.847" y1="509.254" x2="393.847" y2="502.238"/>
	
		<line fill="none" stroke="#000000" stroke-width="2" stroke-miterlimit="10" x1="399.425" y1="509.156" x2="399.425" y2="499.697"/>
	
		<line fill="none" stroke="#000000" stroke-width="2" stroke-miterlimit="10" x1="405.099" y1="509.156" x2="405.099" y2="502.141"/>
	
		<line fill="none" stroke="#000000" stroke-width="2" stroke-miterlimit="10" x1="415.027" y1="509.254" x2="415.027" y2="502.238"/>
	
		<line fill="none" stroke="#000000" stroke-width="2" stroke-miterlimit="10" x1="420.605" y1="509.156" x2="420.605" y2="499.697"/>
	
		<line fill="none" stroke="#000000" stroke-width="2" stroke-miterlimit="10" x1="426.279" y1="509.156" x2="426.279" y2="502.141"/>
	
		<line fill="none" stroke="#000000" stroke-width="2" stroke-miterlimit="10" x1="435.451" y1="509.254" x2="435.451" y2="502.238"/>
	<line fill="none" stroke="#000000" stroke-width="2" stroke-miterlimit="10" x1="441.03" y1="509.156" x2="441.03" y2="499.697"/>
	
		<line fill="none" stroke="#000000" stroke-width="2" stroke-miterlimit="10" x1="446.703" y1="509.156" x2="446.703" y2="502.141"/>
	
		<line fill="none" stroke="#000000" stroke-width="2" stroke-miterlimit="10" x1="456.254" y1="509.254" x2="456.254" y2="502.238"/>
	
		<line fill="none" stroke="#000000" stroke-width="2" stroke-miterlimit="10" x1="461.831" y1="509.156" x2="461.831" y2="499.697"/>
	
		<line fill="none" stroke="#000000" stroke-width="2" stroke-miterlimit="10" x1="467.505" y1="509.156" x2="467.505" y2="502.141"/>
	
		<line fill="none" stroke="#000000" stroke-width="2" stroke-miterlimit="10" x1="476.678" y1="509.254" x2="476.678" y2="502.238"/>
	
		<line fill="none" stroke="#000000" stroke-width="2" stroke-miterlimit="10" x1="482.256" y1="509.156" x2="482.256" y2="499.697"/>
	<line fill="none" stroke="#000000" stroke-width="2" stroke-miterlimit="10" x1="487.93" y1="509.156" x2="487.93" y2="502.141"/>
	<line fill="none" stroke="#000000" stroke-width="2" stroke-miterlimit="10" x1="497.29" y1="509.254" x2="497.29" y2="502.238"/>
	
		<line fill="none" stroke="#000000" stroke-width="2" stroke-miterlimit="10" x1="502.869" y1="509.156" x2="502.869" y2="499.697"/>
	
		<line fill="none" stroke="#000000" stroke-width="2" stroke-miterlimit="10" x1="508.541" y1="509.156" x2="508.541" y2="502.141"/>
	
		<line fill="none" stroke="#000000" stroke-width="2" stroke-miterlimit="10" x1="517.714" y1="509.254" x2="517.714" y2="502.238"/>
	
		<line fill="none" stroke="#000000" stroke-width="2" stroke-miterlimit="10" x1="523.292" y1="509.156" x2="523.292" y2="499.697"/>
	
		<line fill="none" stroke="#000000" stroke-width="2" stroke-miterlimit="10" x1="528.965" y1="509.156" x2="528.965" y2="502.141"/>
	
		<line fill="none" stroke="#000000" stroke-width="2" stroke-miterlimit="10" x1="539.083" y1="509.254" x2="539.083" y2="502.238"/>
	
		<line fill="none" stroke="#000000" stroke-width="2" stroke-miterlimit="10" x1="544.663" y1="509.156" x2="544.663" y2="499.697"/>
	
		<line fill="none" stroke="#000000" stroke-width="2" stroke-miterlimit="10" x1="550.336" y1="509.156" x2="550.336" y2="502.141"/>
	
		<line fill="none" stroke="#000000" stroke-width="2" stroke-miterlimit="10" x1="560.264" y1="509.254" x2="560.264" y2="502.238"/>
	
		<line fill="none" stroke="#000000" stroke-width="2" stroke-miterlimit="10" x1="565.843" y1="509.156" x2="565.843" y2="499.697"/>
	
		<line fill="none" stroke="#000000" stroke-width="2" stroke-miterlimit="10" x1="571.516" y1="509.156" x2="571.516" y2="502.141"/>
	
		<line fill="none" stroke="#000000" stroke-width="2" stroke-miterlimit="10" x1="580.311" y1="509.254" x2="580.311" y2="502.238"/>
	
		<line fill="none" stroke="#000000" stroke-width="2" stroke-miterlimit="10" x1="585.888" y1="509.156" x2="585.888" y2="499.697"/>
	
		<line fill="none" stroke="#000000" stroke-width="2" stroke-miterlimit="10" x1="591.561" y1="509.156" x2="591.561" y2="502.141"/>
	
		<line fill="none" stroke="#000000" stroke-width="2" stroke-miterlimit="10" x1="601.489" y1="509.254" x2="601.489" y2="502.238"/>
	
		<line fill="none" stroke="#000000" stroke-width="2" stroke-miterlimit="10" x1="607.068" y1="509.156" x2="607.068" y2="499.697"/>
	
		<line fill="none" stroke="#000000" stroke-width="2" stroke-miterlimit="10" x1="612.741" y1="509.156" x2="612.741" y2="502.141"/>
	
		<line fill="none" stroke="#000000" stroke-width="2" stroke-miterlimit="10" x1="622.292" y1="509.254" x2="622.292" y2="502.238"/>
	
		<line fill="none" stroke="#000000" stroke-width="2" stroke-miterlimit="10" x1="627.871" y1="509.156" x2="627.871" y2="499.697"/>
	
		<line fill="none" stroke="#000000" stroke-width="2" stroke-miterlimit="10" x1="633.544" y1="509.156" x2="633.544" y2="502.141"/>
	
		<line fill="none" stroke="#000000" stroke-width="2" stroke-miterlimit="10" x1="642.716" y1="509.254" x2="642.716" y2="502.238"/>
	
		<line fill="none" stroke="#000000" stroke-width="2" stroke-miterlimit="10" x1="648.294" y1="509.156" x2="648.294" y2="499.697"/>
	
		<line fill="none" stroke="#000000" stroke-width="2" stroke-miterlimit="10" x1="653.968" y1="509.156" x2="653.968" y2="502.141"/>
	<line fill="none" stroke="#000000" stroke-width="2" stroke-miterlimit="10" x1="663.14" y1="509.254" x2="663.14" y2="502.238"/>
	
		<line fill="none" stroke="#000000" stroke-width="2" stroke-miterlimit="10" x1="668.719" y1="509.156" x2="668.719" y2="499.697"/>
	
		<line fill="none" stroke="#000000" stroke-width="2" stroke-miterlimit="10" x1="674.392" y1="509.156" x2="674.392" y2="502.141"/>
	
		<line fill="none" stroke="#000000" stroke-width="2" stroke-miterlimit="10" x1="683.753" y1="509.254" x2="683.753" y2="502.238"/>
	
		<line fill="none" stroke="#000000" stroke-width="2" stroke-miterlimit="10" x1="689.332" y1="509.156" x2="689.332" y2="499.697"/>
	
		<line fill="none" stroke="#000000" stroke-width="2" stroke-miterlimit="10" x1="695.006" y1="509.156" x2="695.006" y2="502.141"/>
	
		<line fill="none" stroke="#000000" stroke-width="2" stroke-miterlimit="10" x1="705.311" y1="509.254" x2="705.311" y2="502.238"/>
	
		<line fill="none" stroke="#000000" stroke-width="2" stroke-miterlimit="10" x1="710.891" y1="509.156" x2="710.891" y2="499.697"/>
	
		<line fill="none" stroke="#000000" stroke-width="2" stroke-miterlimit="10" x1="716.563" y1="509.156" x2="716.563" y2="502.141"/>
	
		<line fill="none" stroke="#000000" stroke-width="2" stroke-miterlimit="10" x1="726.492" y1="509.254" x2="726.492" y2="502.238"/>
	
		<line fill="none" stroke="#000000" stroke-width="2" stroke-miterlimit="10" x1="768.342" y1="509.254" x2="768.342" y2="502.238"/>
	<line fill="none" stroke="#000000" stroke-width="2" stroke-miterlimit="10" x1="732.07" y1="509.156" x2="732.07" y2="499.697"/>
	
		<line fill="none" stroke="#000000" stroke-width="2" stroke-miterlimit="10" x1="772.842" y1="509.477" x2="772.842" y2="500.018"/>
	
		<line fill="none" stroke="#000000" stroke-width="2" stroke-miterlimit="10" x1="737.744" y1="509.156" x2="737.744" y2="502.141"/>
	
		<line fill="none" stroke="#000000" stroke-width="2" stroke-miterlimit="10" x1="748.104" y1="509.254" x2="748.104" y2="502.238"/>
	
		<line fill="none" stroke="#000000" stroke-width="2" stroke-miterlimit="10" x1="752.685" y1="509.156" x2="752.685" y2="499.697"/>
	
		<line fill="none" stroke="#000000" stroke-width="2" stroke-miterlimit="10" x1="758.356" y1="509.156" x2="758.356" y2="502.141"/>
	<g>
		<path stroke="#000000" d="M82.683,496.368v-0.842l1.044-1.047c2.512-2.465,3.663-3.777,3.663-5.307
			c0-1.029-0.469-1.982-1.937-1.982c-0.894,0-1.635,0.469-2.089,0.859l-0.424-0.967c0.667-0.578,1.649-1.031,2.77-1.031
			c2.118,0,3.011,1.498,3.011,2.949c0,1.875-1.316,3.387-3.39,5.447l-0.772,0.75v0.031h4.403v1.139H82.683z"/>
		<path stroke="#000000" d="M92.26,491.03c-1.105-0.529-1.574-1.404-1.574-2.277c0-1.607,1.316-2.701,3.058-2.701
			c1.906,0,2.875,1.219,2.875,2.498c0,0.857-0.424,1.795-1.634,2.371v0.047c1.226,0.5,1.982,1.404,1.982,2.623
			c0,1.779-1.468,2.949-3.343,2.949c-2.059,0-3.299-1.248-3.299-2.73c0-1.281,0.742-2.201,1.952-2.732L92.26,491.03z M95.62,493.731
			c0-1.219-0.832-1.826-2.164-2.217c-1.15,0.344-1.771,1.139-1.771,2.107c-0.045,1.014,0.711,1.918,1.967,1.918
			C94.848,495.54,95.62,494.776,95.62,493.731z M91.957,488.659c-0.014,1.014,0.742,1.561,1.877,1.873
			c0.847-0.297,1.498-0.922,1.498-1.842c0-0.813-0.47-1.654-1.664-1.654C92.563,487.036,91.957,487.784,91.957,488.659z"/>
	</g>
	<g>
		<path stroke="#000000" d="M125.969,494.808c0.378,0.234,1.241,0.625,2.179,0.625c1.695,0,2.239-1.109,2.224-1.967
			c-0.015-1.42-1.256-2.029-2.542-2.029h-0.741v-1.029h0.741c0.969,0,2.194-0.516,2.194-1.717c0-0.813-0.5-1.531-1.725-1.531
			c-0.787,0-1.543,0.359-1.967,0.672l-0.363-0.998c0.53-0.391,1.529-0.781,2.587-0.781c1.938,0,2.815,1.188,2.815,2.42
			c0,1.061-0.621,1.949-1.815,2.404v0.029c1.209,0.234,2.179,1.172,2.194,2.592c0,1.623-1.242,3.043-3.587,3.043
			c-1.104,0-2.073-0.359-2.557-0.688L125.969,494.808z"/>
		<path stroke="#000000" d="M139.964,491.187c0,3.449-1.255,5.354-3.419,5.354c-1.922,0-3.238-1.857-3.269-5.213
			c0-3.418,1.437-5.275,3.435-5.275C138.77,486.052,139.964,487.956,139.964,491.187z M134.623,491.343
			c0,2.639,0.787,4.135,1.997,4.135c1.347,0,1.998-1.637,1.998-4.229c0-2.496-0.605-4.135-1.998-4.135
			C135.47,487.114,134.623,488.581,134.623,491.343z"/>
	</g>
	<g>
		<path stroke="#000000" d="M168.92,494.808c0.378,0.234,1.24,0.625,2.179,0.625c1.695,0,2.24-1.109,2.225-1.967
			c-0.015-1.42-1.256-2.029-2.542-2.029h-0.742v-1.029h0.742c0.968,0,2.194-0.516,2.194-1.717c0-0.813-0.499-1.531-1.725-1.531
			c-0.787,0-1.543,0.359-1.967,0.672l-0.363-0.998c0.529-0.391,1.528-0.781,2.588-0.781c1.937,0,2.814,1.188,2.814,2.42
			c0,1.061-0.621,1.949-1.816,2.404v0.029c1.21,0.234,2.179,1.172,2.194,2.592c0,1.623-1.24,3.043-3.586,3.043
			c-1.104,0-2.073-0.359-2.557-0.688L168.92,494.808z"/>
		<path stroke="#000000" d="M179.253,487.503h-0.031l-1.71,0.953l-0.257-1.047l2.149-1.186h1.135v10.145h-1.286V487.503z"/>
	</g>
	<polygon fill="#EF4136" stroke="#EF4136" stroke-miterlimit="10" points="818.93,546.801 780.682,522.029 780.682,530.889 
		349.887,530.365 349.887,561.746 780.682,562.27 780.682,571.574 	"/>
	
		<text transform="matrix(1.0165 0 0 1 354.6768 551.7744)" stroke="#000000" stroke-miterlimit="10" font-family="'MyriadPro-Regular'" font-size="18.0754">Mayor riesgo a la salud del corazón</text>
	
		<text transform="matrix(1.0108 0 0 1 80.1113 551.2783)" stroke="#000000" stroke-miterlimit="10" font-family="'MyriadPro-Regular'" font-size="17.5198">Menor riesgo a la salud del corazón</text>
	
		<text transform="matrix(0.9986 0 0 1 537.083 495.834)" stroke="#000000" stroke-miterlimit="10" font-family="'MyriadPro-Regular'" font-size="15.4634">40</text>
	<path d="M193.512,216.688c-0.368,1.316-0.608,2.631-0.625,4c-0.007,0.595,1.685,0.908,1.747,0.307
		c0.139-1.337,0.51-2.991,0.878-4.307C195.641,216.225,193.693,216.038,193.512,216.688z"/>
	<path d="M246.476,216.436c-0.163-0.612-1.99-0.784-1.929-0.168c0.142,1.446,0.398,3.038,0.59,4.295
		c0.125,0.818,1.494,0.651,1.563-0.063C246.823,219.211,246.805,217.672,246.476,216.436z"/>
	<path d="M526.012,217.625c-0.003-0.721-2.003-0.718-2,0c0.005,0.981,0.061,1.959,0.125,2.938c0.049,0.735,2.046,0.698,2,0
		C526.072,219.584,526.017,218.606,526.012,217.625z"/>
	<path d="M612.074,217.625c0.006-0.072-1.985-0.175-2,0c-0.071,0.88-0.295,1.74-0.313,2.625c0,0.008,0.029,0.014,0.046,0.021
		c-0.017,0.034-0.046,0.064-0.046,0.104v0.313c0,0.594,2,0.594,2,0v-0.313c0-0.039-0.029-0.068-0.045-0.102
		c0.016-0.008,0.045-0.014,0.045-0.023C611.779,219.365,612.003,218.505,612.074,217.625z"/>
	
		<text transform="matrix(0.9986 0 0 1 329.8184 495.9961)" stroke="#000000" stroke-miterlimit="10" font-family="'MyriadPro-Regular'" font-size="16.0161">35</text>
</g>
<g id="text">
	
		<text transform="matrix(1 0 0 1 287.9399 46.7646)" stroke="#000000" stroke-miterlimit="10" font-family="'MyriadPro-Regular'" font-size="36.75">Medida de Cintura</text>
</g>
</svg>
