<?xml version="1.0" encoding="utf-8"?>
<!-- Generator: Adobe Illustrator 16.0.0, SVG Export Plug-In . SVG Version: 6.00 Build 0)  -->
<!DOCTYPE svg PUBLIC "-//W3C//DTD SVG 1.1//EN" "http://www.w3.org/Graphics/SVG/1.1/DTD/svg11.dtd">
<svg version="1.1" id="arrows" xmlns="http://www.w3.org/2000/svg" xmlns:xlink="http://www.w3.org/1999/xlink" x="0px" y="0px"
	 width="858.776px" height="595.28px" viewBox="0 0 858.776 595.28" enable-background="new 0 0 858.776 595.28"
	 xml:space="preserve">
<g>
	<g>
		
			<image overflow="visible" opacity="0.75" width="308" height="274" xlink:href="BD4E7862.png"  transform="matrix(0.24 0 0 0.24 526.9414 296.8203)">
		</image>
		<g>
			<path fill="#F9ED32" d="M588.249,333.453c0,9.139-6.174,16.547-13.79,16.547h-28.347c-7.616,0-13.79-7.408-13.79-16.547v-14.705
				c0-9.139,6.174-16.547,13.79-16.547h28.347c7.616,0,13.79,7.408,13.79,16.547V333.453z"/>
			<path fill="none" stroke="#000000" stroke-width="5" stroke-miterlimit="10" d="M588.249,333.453
				c0,9.139-6.174,16.547-13.79,16.547h-28.347c-7.616,0-13.79-7.408-13.79-16.547v-14.705c0-9.139,6.174-16.547,13.79-16.547
				h28.347c7.616,0,13.79,7.408,13.79,16.547V333.453z"/>
		</g>
	</g>
	
		<line fill="none" stroke="#000000" stroke-width="2" stroke-miterlimit="10" x1="541.448" y1="348.148" x2="541.448" y2="330.229"/>
	
		<line fill="none" stroke="#000000" stroke-width="2" stroke-miterlimit="10" x1="574.481" y1="348.252" x2="574.481" y2="324.549"/>
	
		<line fill="none" stroke="#000000" stroke-width="2" stroke-miterlimit="10" x1="549.266" y1="348.252" x2="549.266" y2="336.945"/>
	
		<line fill="none" stroke="#000000" stroke-width="2" stroke-miterlimit="10" x1="558.259" y1="348.096" x2="558.259" y2="332.848"/>
	
		<line fill="none" stroke="#000000" stroke-width="2" stroke-miterlimit="10" x1="567.404" y1="348.096" x2="567.404" y2="336.788"/>
	
		<line fill="none" stroke="#000000" stroke-width="2" stroke-miterlimit="10" x1="582.188" y1="348.252" x2="582.188" y2="336.945"/>
</g>
<g id="Red_arrow_text">
</g>
<g id="Green_arrow_text">
</g>
</svg>
