<?xml version="1.0" encoding="utf-8"?>
<!-- Generator: Adobe Illustrator 16.0.0, SVG Export Plug-In . SVG Version: 6.00 Build 0)  -->
<!DOCTYPE svg PUBLIC "-//W3C//DTD SVG 1.1//EN" "http://www.w3.org/Graphics/SVG/1.1/DTD/svg11.dtd">
<svg version="1.1" xmlns="http://www.w3.org/2000/svg" xmlns:xlink="http://www.w3.org/1999/xlink" x="0px" y="0px" width="864px"
	 height="648px" viewBox="0 0 864 648" enable-background="new 0 0 864 648" xml:space="preserve">
<g id="Layer_2">
	<path fill="none" stroke="#E4E4E4" stroke-width="2" stroke-miterlimit="10" d="M814.378,591.223c0,10.109-5.143,18.3-11.488,18.3
		H490.741c-6.346,0-11.488-8.19-11.488-18.3V287.837c0-10.105,5.143-18.3,11.488-18.3H802.89c6.346,0,11.488,8.194,11.488,18.3
		V591.223z"/>
</g>
<g id="middle_figures">
	<g>
		<path fill="none" stroke="#000000" stroke-width="2" stroke-miterlimit="10" d="M694.548,388.288
			c6.014-2.389,36.206-4.476,37.059-3.852c0.854,0.623-10.198,9.717-17.371,20.943c-1.786,2.797-31.037,2.832-32.779,0.908
			c-1.742-1.921,1.609-3.121,5.251-6.158S688.534,390.676,694.548,388.288z"/>
		<path fill="none" stroke="#000000" stroke-width="2" stroke-miterlimit="10" d="M682.853,404.54
			c6.937,0.387,23.927-0.111,28.513,0.138c4.587,0.249,6.194,6.634,4.062,9.597c-2.135,2.965-6.851,0.955-11.559,0.211
			c-4.706-0.744-22.218-5.852-23.745-7.774C678.596,404.786,682.853,404.54,682.853,404.54z"/>
		<path fill="none" stroke="#000000" stroke-width="3" stroke-miterlimit="10" d="M729.716,384.646c0,0,11.135,23.535,10.506,23.115
			c-0.631-0.42,4.273,0.874,2.595-1.959c-1.682-2.834-8.897-21.576-8.897-21.576L729.716,384.646z"/>
		<path fill="none" stroke="#000000" stroke-width="3" stroke-miterlimit="10" d="M719.907,370.286
			c-3.537,1.902,6.718-3.681,7.497-0.559c0.578,2.32-1.842,9.459-1.05,11.557c0.788,2.097,3.84,3.928,6.302,3.361
			c2.461-0.565,3.983-4.486,2.943-5.883c-1.042-1.398-2.884-10.457-1.681-12.188c1.198-1.73,9.235-6.252,6.721-4.691"/>
		<path fill="none" stroke="#000000" stroke-width="2" stroke-miterlimit="10" d="M701.557,405.45
			c0,10.793-8.747,19.542-19.54,19.542c-10.796,0-19.544-8.749-19.544-19.542s8.748-19.543,19.544-19.543
			C692.81,385.907,701.557,394.657,701.557,405.45z"/>
		<circle fill="none" stroke="#000000" stroke-width="3" stroke-miterlimit="10" cx="744.741" cy="407.656" r="18.386"/>
		<circle fill="none" stroke="#000000" stroke-width="3" stroke-miterlimit="10" cx="681.77" cy="405.415" r="17.961"/>
		<path fill="none" d="M762.071,407.901c0,9.668-7.837,17.507-17.509,17.507c-9.668,0-17.506-7.839-17.506-17.507
			c0-9.67,7.838-17.508,17.506-17.508C754.234,390.394,762.071,398.231,762.071,407.901z"/>
		<path stroke="#000000" stroke-width="3" stroke-miterlimit="10" d="M697.937,387.122c-0.522-3.252-5.877-5.98-9.232-7.028
			c-3.358-1.051-6.82-1.679-8.187-1.155c-1.362,0.525-3.461,2.833-0.628,3.043c2.831,0.211,2.728-1.573,8.079-0.734
			c5.353,0.839,4.408,4.827,5.141,1.678"/>
		<path fill="#00AEEF" stroke="#000000" stroke-width="2" stroke-miterlimit="10" d="M695.839,384.29
			c-3.881-3.358-5.979-3.777-8.185-5.142c-2.203-1.364-1.028-13.72-1.028-13.72l22.12,4.066l4.093,2.098l-11.018,13.536
			C701.821,385.129,699.723,387.647,695.839,384.29z"/>
		<path fill="#C49A6C" stroke="#000000" stroke-miterlimit="10" d="M706.296,375.896l5.667-4.757c0,0,3.397,1.707,5.386,3.567
			c3.219,3.01,0.49,11.054-2.098,6.226C711.752,378.203,706.296,375.896,706.296,375.896z"/>
		<path fill="#C49A6C" stroke="#000000" stroke-miterlimit="10" d="M703.64,375.126c3.427,0.77,13.501,4.617,15.11,9.654
			s-3.358,8.533-11.474,14.76c-4.198,3.498-6.784,2.588-6.855-2.028c2.029-8.815,5.807-7.555,6.294-9.374
			c-5-0.07-7.414-1.854-7.414-1.854S703.267,375.044,703.64,375.126z"/>
		<path fill="#ED1C24" stroke="#000000" stroke-miterlimit="10" d="M705.107,400.449c2.729,0.211-0.35,1.26,1.399,2.938
			c1.749,1.68,2.519,2.798,5.316,3.848c2.797,1.049,4.477,3.918,2.171,4.057c-2.311,0.141-5.317,0.838-7.487,0.91
			c-2.169,0.07-3.848-0.351-6.365-2.729c-2.52-2.379-5.456-7.485-5.177-8.604c0.278-1.118,1.817-2.448,5.597-3.987
			C701.12,399.12,702.38,400.239,705.107,400.449z"/>
		<path fill="#C49A6C" stroke="#000000" stroke-miterlimit="10" d="M713.466,357.218c0,0,4.199,0.42,5.354,0.734
			s2.517,3.253,4.198,3.882c1.678,0.631,5.874,1.05,8.184,1.261c2.308,0.209,0.525,1.889,1.259,2.728
			c0.732,0.839,1.364-1.469,3.357,0.419c0.735,0.84,0,0.945,1.469,1.051c1.468,0.104,5.771-2.623,2.94-3.358
			c-2.835-0.735-4.2-1.574-5.563-3.148c-1.364-1.573-5.351-4.722-7.555-4.826c-2.202-0.104-6.925-1.153-6.925-1.153l-5.563-1.889"/>
		<path fill="#C49A6C" stroke="#000000" stroke-miterlimit="10" d="M697.203,343.157c-1.469,1.26,0.944,3.463,6.716,4.617
			s4.302-2.099,6.506-2.204c2.203-0.104,3.569,0.105,3.987-1.469c0.42-1.573-0.733-8.813-1.261-9.653
			c-0.523-0.84-10.282-0.105-11.961,1.049C699.512,336.652,698.672,341.898,697.203,343.157z"/>
		<path fill="#F7941E" stroke="#000000" stroke-miterlimit="10" d="M705.283,365.927c0,0,0.104,3.463-0.42,3.568
			c-0.525,0.105-6.82,0.21-10.283-0.945c-3.464-1.154-7.239-1.363-8.395-4.616c-1.154-3.253-1.575-7.45,0.733-10.388
			c2.31-2.938,9.76-9.652,9.76-9.652s5.771,4.301,8.709,4.195c2.939-0.104,3.738-2.156,4.246-2.072s4.673,6.061,9.186,6.689
			c1.679,0.211-3.254,5.037-3.254,5.037s-3.462,0.42-6.296-0.525c-2.833-0.944-7.134,2.729-9.337,3.987
			C697.728,362.465,705.283,365.927,705.283,365.927z"/>
		<path fill="#C49A6C" stroke="#000000" stroke-miterlimit="10" d="M698.778,360.681c0,0,2.937,3.882,5.141,5.037
			c2.204,1.154,12.065,4.197,14.48,3.147c2.414-1.05,3.357-0.42,4.303,1.05c0.943,1.469-0.455,4.021,0.525,4.512
			c0.978,0.49,2.831-2.1,2.831-2.1s1.644-3.777,0.315-5.176c-1.329-1.4-2.658-0.35-5.353-1.049c-2.692-0.7-5.069-3.777-8.638-4.302
			c-3.566-0.525-4.057-1.016-4.057-1.016l-5.562-2.622"/>
		<path fill="#F7941E" stroke="#000000" stroke-miterlimit="10" d="M705.283,352.182c0.315,0.21,3.463,5.876,4.826,7.03
			c1.365,1.154-4.407,4.303-6.505,4.303c-2.1,0-5.562-1.785-8.08-3.463c-2.519-1.68-2.203-5.563-2.203-5.563"/>
		<path fill="none" stroke="#000000" stroke-width="2" stroke-miterlimit="10" d="M709.375,345.256
			c0.91,0.071-1.539-0.14-2.727-2.028c-1.19-1.889-1.82-7.555-1.82-7.555l-4.267-1.049c0,0-0.98,4.266-0.98,5.735
			s-0.979,2.378-3.217,2.868c-2.239,0.49-5.035-2.099-4.128-1.328"/>
		<path fill="none" stroke="#000000" stroke-width="4" stroke-miterlimit="10" d="M699.371,336.232c0,0-0.14,3.706-1.817,5.036
			c-1.678,1.329-5.414-2.516-3.561-0.959"/>
		<path fill="#EF4136" stroke="#000000" stroke-miterlimit="10" d="M696.852,333.993c1.121,2.309,3.081,2.52,3.081,2.52
			s1.469,0.77,4.266-1.19c2.8-1.958,5.387-1.397,7.765-1.538c2.379-0.139,0.701,2.588,2.729,2.868
			c2.028,0.279,3.078-3.638,1.467-6.017c-1.606-2.379-2.657-0.908-4.895-3.497c-2.239-2.589-8.325-3.358-11.264-0.351
			S695.734,331.685,696.852,333.993z"/>
		<path opacity="0.47" fill="#E6E7E8" d="M701.052,329.237c3.565-5.107,6.784-0.98,8.604-0.63c1.819,0.35,3.289,2.449,3.289,2.449
			l-1.331,1.888c0,0-5.876-0.979-8.883,0.771C699.723,335.464,699.301,330.845,701.052,329.237z"/>
	</g>
	<g>
		<path fill="#00AEEF" stroke="#00AEEF" stroke-miterlimit="10" d="M669.167,521.735c3.766-5.316,87.478-7.527,94.344-0.885
			s-1.55,42.964-8.857,52.929c-7.309,9.967-91.53,7.432-97.034,4.988C652.115,576.325,665.401,527.052,669.167,521.735z"/>
		<path fill="none" stroke="#2E3192" stroke-width="2" stroke-miterlimit="10" d="M727.855,529.929
			c0.664,0.223,3.102-4.65,8.637-4.65c5.536,0,3.987,2.436,9.745,0.664c5.757-1.771,4.871-2.658,11.072-4.65
			c6.201-1.994,13.813,5.822,11.96,4.208"/>
		<path fill="#00AEEF" stroke="#2E3192" stroke-width="2" stroke-miterlimit="10" d="M684.006,525.5c0,0-6.203-2.437-10.41,0.222
			s-2.657,5.314-7.308,6.2s-8.637,0.222-8.637,0.222"/>
		<g>
			<path fill="#FBB040" stroke="#000000" stroke-miterlimit="10" d="M737.265,533.734c-1.951-1.453-4.791-1.911-7.378-1.964
				c-0.012-1.128-0.031-7.544,1.008-8.775c1.141-1.351,6.104-3.768,7.041-9.315c0.938-5.548-7.511-5.831-12.873-11.591
				c-1.209-0.215-7.244,3.2-7.177,6.328c0.033,1.569,0.118,6.461,0.192,10.951c0.074,4.469,0.141,8.535,0.141,8.535
				s-0.022,0.226-0.063,0.611c-0.449-0.676-0.676-1.41-0.473-2.177c0.335-15.716-4.692-28.517-2.682-29.868
				c7.845-4.835,14.485-14.221,14.485-14.221s3.417,2.134,5.633,1.706c2.213-0.427,4.426-6.615,6.438-6.827
				c2.012-0.213,5.634-3.414,4.291-4.266c-1.34-0.855-7.31-2.988-10.058-1.921c-2.748,1.065-7.376,7.04-7.376,7.04
				s-20.454,12.8-21.46,16.214c-1.007,3.413,1.609,43.236,1.609,43.236l0.268,11.378l40.236,0.569
				C749.068,549.379,741.758,537.076,737.265,533.734z"/>
			<path fill="none" stroke="#000000" stroke-miterlimit="10" d="M721.032,522.97c-1.725-0.872-2.993-2.135-3.004-3.654"/>
			<path fill="none" stroke="#000000" stroke-miterlimit="10" d="M726.804,523.066c0,0,3.327-0.378,5.685-1.431"/>
			<path fill="#BE1E2D" stroke="#000000" stroke-width="2" stroke-miterlimit="10" d="M717.818,512.114
				c-0.135-0.426-2.771-6.871-1.208-11.234c1.565-4.364,3.45-6.191,10.06-7.965c6.61-1.774,12.991,3.286,14.717,7.583
				c1.744,4.339-0.813,13.655-3.627,15.204c0,0,2.237-5.732-3.858-8.375c-6.096-2.642-7.656-4.286-9.51-5.453
				C716.756,504.472,717.818,512.114,717.818,512.114z"/>
		</g>
		<path fill="#C49A6C" stroke="#000000" stroke-miterlimit="10" d="M679.52,559.903l-0.284-11.378c0,0-2.774-39.823-1.708-43.236
			c1.067-3.415,22.756-16.214,22.756-16.214s4.907-5.975,7.823-7.041c2.917-1.066,9.245,1.066,10.667,1.921
			c1.424,0.854-2.417,4.054-4.551,4.267s-4.481,6.4-6.828,6.826c-2.346,0.427-5.973-1.706-5.973-1.706s-7.04,9.387-15.36,14.224
			c-2.133,1.35,3.2,14.15,2.845,29.866c-0.925,3.271,6.259,5.974,6.259,5.974s9.742-1.918,14.507,1.422
			c4.766,3.342,12.516,15.646,12.516,15.646L679.52,559.903z"/>
		<path fill="#C49A6C" stroke="#000000" stroke-miterlimit="10" d="M689.262,553.076c-1.207-2.134,0.214-14.079,0.214-14.079
			s-0.07-4.067-0.149-8.534c-0.081-4.491-0.172-9.384-0.205-10.952c-0.072-3.129,6.328-6.541,7.607-6.328
			c5.688,5.759,14.648,6.043,13.653,11.59c-0.994,5.549-6.258,7.967-7.467,9.318c-1.209,1.35-1.066,8.959-1.066,8.959
			s-4.835,9.172-6.613,10.453C693.458,554.782,690.471,555.21,689.262,553.076z"/>
		<path fill="#BE1E2D" stroke="#000000" stroke-miterlimit="10" d="M689.19,538.569c-2.204,4.693-8.249,9.6-11.449,12.588
			c-3.201,2.985-0.641,10.24-0.641,10.24s37.653-0.428,35.947-1.066c-14.506-7.148-10.56-16.643-11.199-17.281
			C701.208,542.411,687.911,569.289,689.19,538.569z"/>
		<path fill="none" stroke="#000000" stroke-miterlimit="10" d="M692.457,534.063c-1.828-0.873-3.176-2.135-3.187-3.654"/>
		<path fill="none" stroke="#000000" stroke-miterlimit="10" d="M698.577,534.16c0,0,3.528-0.378,6.025-1.431"/>
		<path fill="#BE1E2D" stroke="#000000" stroke-width="2" stroke-miterlimit="10" d="M689.049,523.208
			c-0.143-0.426-2.94-6.871-1.28-11.234c1.658-4.363,3.656-6.191,10.667-7.965c7.01-1.774,13.775,3.286,15.605,7.583
			c1.831,4.295-0.643,13.541-3.845,15.204c0,0,2.373-5.734-4.094-8.375c-6.463-2.643-8.118-4.285-10.086-5.451
			C687.922,515.565,689.049,523.208,689.049,523.208z"/>
		<path fill="#00AEEF" stroke="#2E3192" stroke-width="2" stroke-miterlimit="10" d="M734.279,559.386
			c10.408-0.667-6.646,0.221-16.39,0.662c-9.744,0.443-7.753,6.423-16.611,4.652c-8.858-1.771-12.845-1.55-17.272-0.666
			c-4.429,0.888-8.638,8.641-17.938,9.081"/>
		<path fill="#00AEEF" stroke="#2E3192" stroke-width="2" stroke-miterlimit="10" d="M750.002,559.606c0,0-4.21,3.102-10.188,5.315
			c-5.979,2.215-13.289-5.315-20.153-0.888c-6.864,4.431-7.088,5.98-11.96,4.652c-4.87-1.33-3.763-6.202-15.943,1.552
			c-12.181,7.749-8.194-3.102-21.261,1.769"/>
	</g>
</g>
<g id="Far_Left_Side">
	<line fill="none" stroke="#E4E4E4" stroke-width="2" stroke-miterlimit="10" x1="432" y1="0.001" x2="432" y2="648"/>
</g>
<g id="middle_x2F_Watches">
	<g>
		<path fill="#FBB040" stroke="#000000" stroke-miterlimit="10" d="M569.63,433.422c1.283-0.549,3.135-1.805,4.391-2.943
			c1.262-1.138,2.285-1.965,2.98-2.579c0.701-0.612,1.576-1.128,2.4-1.419c0.826-0.293,1.664-1.037,1.992-1.391
			c0.326-0.353,0.617-0.93,0.631-1.338c0.014-0.406,0.125-1.174,0-1.496c-0.125-0.32-0.607-0.832-0.781-1.066
			c-0.176-0.23-0.154-0.956-0.322-1.278c-0.172-0.322-0.566-0.743-0.604-0.97c-0.041-0.229-0.266-0.188-0.453-0.058
			c-0.184,0.128-0.869,0.242-1.273,0.276c-0.41,0.033-0.98,0.875-1.221,1.321s-0.561,0.48-0.846,1.015
			c-0.291,0.536-0.771,1.383-1.105,1.959c-0.334,0.578-0.303,0.988-0.537,1.209c-0.232,0.217-1.428,0.814-2.311,1.514
			c-0.883,0.696-1.756,1.122-2.891,1.223c-0.543,0.049-0.975,0.106-1.283,0.119c-0.85,2.446-1.588,4.461-1.525,6.717
			C567.319,434.081,568.466,433.922,569.63,433.422z"/>
		<path fill="#FBB040" stroke="#000000" stroke-miterlimit="10" d="M556.556,412.825c1.102,2.202,7.525-3.026,7.209-4.175
			c-0.193-0.437-1.318-0.592-1.318-0.592s0.211-1.035,0.781-1.832c0.566-0.801,1.346-1.049,1.854-1.302
			c0.506-0.259,0.967-0.608,1.287-0.641c0.318-0.034,1.096-0.327,1.16-1.005c0.07-0.682-0.328-1.007-0.094-1.271
			c0.234-0.268,0.422-0.441,0.428-0.668c0.008-0.226-0.305-0.418-0.305-0.418l0.104-0.356c0,0,0.281-0.263,0.561-0.571
			c0.281-0.31-0.031-0.408-0.113-0.685c-0.082-0.274-0.029-0.587,0.156-0.626c0.18-0.044,0.73-0.251,0.963-0.475
			c0.234-0.214,0.158-0.672-0.236-1.09c-0.396-0.42-0.688-1.203-0.949-1.482c-0.266-0.278-0.301-0.597-0.287-0.957
			c0.01-0.363,0.162-0.858,0.029-1.041c-0.129-0.186-0.082-1.726-0.498-2.826c-0.42-1.1-0.953-1.436-0.953-1.436
			s0.309-0.305,0.021-0.424C557.524,391.899,555.308,404.076,556.556,412.825z"/>
		<path fill="#010101" stroke="#000000" stroke-miterlimit="10" d="M582.642,501.218c0,0,0.205-0.176,0.094-0.443
			c-0.109-0.264-0.455-1.221-0.908-2.503c-0.451-1.286-0.988-3.569-1.238-5.452c-0.248-1.878-0.908-7.354-1.213-9.303
			c-0.311-1.95-0.539-4.501-0.711-5.669c-0.174-1.167-0.174-2.483-0.568-3.639c-0.32-0.924-0.883-1.498-1.926-2.266
			c-0.639-1.479-1.477-3.019-2.135-4.046c-1.035-1.616-4.783-6.446-6.131-8.161c-1.352-1.721-3.814-4.154-4.203-4.709
			c-0.393-0.557-0.605-1.014-0.59-1.514c0.016-0.496,0.043-1.355,0.287-1.846c0.24-0.492,0.564-0.709,0.578-1.209
			c0.018-0.496,0.305-1.027,0.553-1.703c0.248-0.67,0.373-1.754,0.391-2.344c0.02-0.586-0.049-1.359-0.049-1.359
			s0.139-0.084,0.469-0.438c0.326-0.353,0.244-0.581,0.27-1.442c0.027-0.857,0.131-4.254,0.215-5.474
			c0.084-1.222,0.412-3.066,0.412-3.066s0.186-0.179,0.51-0.347c0.031-0.018,0.078-0.033,0.125-0.049
			c-0.063-2.256,0.676-4.271,1.525-6.717c-0.34,0.012-0.533-0.033-0.527-0.221c0.012-0.365,0.121-0.95,0.121-0.95
			c0.561-0.569,0.959-1.734,0.457-3.019c-0.504-1.283-1.029-1.844-1.232-2.668c-0.201-0.819-0.082-1.68-0.072-2.039
			c0.012-0.361,0.246-2.031,0.271-2.893c0.027-0.858-0.025-2.037-0.137-2.901c-0.098-0.776-0.494-1.509-0.926-2.248
			c-0.43-0.738-0.969-0.892-1.371-1.085c-0.381-0.185-0.834-0.494-1.217-0.846c-2.908,2.874-4.039,6.494-6.416,4.968
			c-2.434-2.489-2.148-5.503-1.711-6.981c0.439-1.479,1.994-2.865,2.379-8.752c-0.158-2.939,3.26-2.627,3.871-5.754
			c0.609-3.128,2.459-2.508,4.467-3.178c0.002-0.321-0.031-0.76-0.201-1.074c-0.301-0.554-0.701-0.701-1.061-0.803
			c-0.363-0.105-0.994-0.078-0.994-0.078s-0.535-0.287-1.033-0.303c-0.5-0.014-1.408,0.139-1.408,0.139s-0.17-0.414-0.76-0.435
			c-0.586-0.017-1.223,0.056-1.994,0.032c-0.768-0.025-0.912,0.287-1.779,0.484c-0.867,0.203-1.705,0.855-2.213,1.158
			c-0.506,0.297-1.256,1.139-1.549,1.764c-0.291,0.624-0.275,1.529-0.801,2.467c-0.529,0.932-0.607,2.02-0.844,2.327
			c-0.236,0.31-0.432,0.756-0.432,0.756s-0.221-0.097-0.41,0.078c-0.186,0.178-0.188,0.269-0.188,0.269s-0.91,0.105-1.426,0.678
			c-0.518,0.574-1.469,0.545-1.469,0.545s0.586,0.199,1.131,0.032c0,0-0.834,0.654-1.174,1.369
			c-0.338,0.716-1.539,1.448-1.539,1.448s0.824-0.245,1.387-0.861c0,0-0.617,0.885-0.82,1.558c-0.201,0.674-0.242,1.984-0.654,2.107
			c-0.408,0.122-0.309-0.233-0.475-0.737c-0.165-0.502-0.459-1.284-0.4-1.688c0,0-0.242,0.535,0.008,1.269
			c0.246,0.729,0.236,1.093,0.273,1.317c0.039,0.23,0.215,0.418,0.215,0.418s-0.687,0.16-0.901-0.207
			c-0.214-0.372,0-1.406-0.073-1.998c-0.071-0.592-0.223-1.549-0.836-2.201c0,0,0.335,0.826,0.414,1.191
			c0,0-0.265-0.188-0.609-0.742c-0.347-0.557-0.689-1.199-0.689-1.199s0.207,0.731,0.461,1.234l-0.397-0.236
			c0,0,0.212,0.415,0.243,0.775c0.035,0.366,0.244,0.96,0.091,1.547c-0.155,0.58-0.292,0.67-0.292,0.67s-0.395-0.467-0.375-1.057
			c0.018-0.587,0.052-1.72-0.16-2.179c0,0,0.018,0.908-0.124,1.084c0,0-0.334-0.917-0.55-1.243c0,0,0.071,0.552,0.149,1.004
			l-0.354-0.283c0,0,0.021,0.77,0.227,1.456c0.205,0.688,0.503,1.333,0.503,1.333s-0.872-1.161-1.31-1.539c0,0,0.955,1.3,1.163,1.85
			c0.21,0.551,0.075,0.546,0.075,0.546s-0.641,0.161-1,0.061c-0.357-0.104-0.742-0.886-0.742-0.886s-0.062,0.543,0.016,0.908
			l-0.223-0.053c0,0,0.08,0.41,0.295,0.73c0,0-0.675-0.199-1.025-0.574c-0.352-0.373-0.342-0.688-0.342-0.688
			s-0.018,0.586,0.291,0.914c0.307,0.326,0.66,0.565,0.66,0.565l-0.453-0.017c-0.017,0.542,0.595,1.287,0.595,1.287
			c-0.226-0.098-0.659-0.607-0.659-0.607s0.164,0.549,0.646,1.06c0.482,0.515,1.1,1.03,1.1,1.03
			c-0.407-0.013-0.668-0.383-0.668-0.383l-0.055,0.361l-0.264-0.371l-0.012,0.408c-0.445-0.239-0.874-1.023-0.874-1.023
			c-0.03,0.995,0.634,1.47,0.634,1.47c-0.447-0.148-1.464-0.997-1.464-0.997s0.737,1.064,1.274,1.308
			c0.535,0.243,1.396,0.226,1.396,0.226s0.388,0.736,1.318,1.264c0.937,0.523,2.219,0.066,2.219,0.066
			c-0.01,0.319-0.516,0.577-0.516,0.577c0.451,0.013,0.689-0.343,0.689-0.343s-0.063,0.633-0.613,0.796
			c-0.549,0.165-1.044,0.058-1.715-0.189c-0.673-0.248-1.746-0.733-1.746-0.733s0.354,0.328,1.066,0.711
			c0.713,0.386,1.974,0.651,1.974,0.651c-0.104,0.448-0.849,1.017-0.849,1.017c0.453,0.012,0.736-0.386,0.736-0.386
			c-0.057,0.36-0.524,0.893-0.524,0.893c0.454-0.033,0.841-0.792,0.841-0.792s0.469-0.529,0.965-0.514
			c0.498,0.016,1.332-0.592,1.332-0.592c0.227,0.1,0.201,0.82,0.201,0.82c0.193-0.354,0.17-1.082,0.17-1.082
			c0.281-0.307,0.566-0.752,0.566-0.752c0.123,0.503-0.193,1.941-0.193,1.941s0.57-0.293,0.719-0.697
			c0.148-0.406,0.764-1.883,0.764-1.883s0,0-0.252,0.852c-0.252,0.854,0.045,1.495,0.045,1.495s-0.115-0.679,0.266-1.304
			c0.383-0.621,0.545-1.521,0.545-1.521l0.17,0.368c0.287-0.492,0.311-1.262,0.311-1.262l0.172,0.323
			c0.014-0.408,0.307-1.076,0.307-1.076s0.168,0.369,0.098,1.229c-0.072,0.854-0.82,1.601-0.82,1.601
			c0.549-0.117,0.932-0.782,0.932-0.782l-0.016,0.447c0,0-0.01,0.365-0.191,0.359c-0.182-0.005-0.936,0.875-1.08,1.191
			c-0.146,0.309-0.658,0.748-0.936,0.922c-0.123,0.077-0.221,0.193-0.328,0.334c1.225-0.529,2.277-0.902,2.973-0.207
			c3.682,6.137,1.807,11.156-3.6,14.072c0.064,0.265,0.113,0.52,0.129,0.724c0.064,0.817,0.43,2.187,0.934,3.472
			c0.299,0.758,0.537,1.791,0.686,2.516c2.492,1.609,5.566,2.638,8.643,3.662c1.357,0-1.359,2.717-2.717,5.434
			c-2.322-1.162-4.635-1.343-6.107-3.062c-0.131,0.517-0.283,1.165-0.32,1.557c-0.068,0.722-0.297,2.255-0.305,2.571
			c-0.01,0.318-0.215,1.082-0.227,1.396c-0.008,0.322,0.25,0.734,0.25,0.734s0,0-0.463,0.348c-0.465,0.348-0.857,1.379-1.205,2.318
			c-0.346,0.941-0.815,2.918-0.68,5.775c0.141,2.86,2.531,5.969,2.531,5.969s-0.176,1.31-0.627,2.701
			c-0.449,1.389-1.154,5.129-1.215,7.075c-0.061,1.944-0.443,5.511-0.52,6.457c-0.014,0.186-0.029,0.954-0.27,1.398
			c-0.239,0.444-0.12,0.993-0.496,1.436c-0.377,0.439,0.109,0.818-0.256,0.986c-0.371,0.168-0.107,0.496-0.479,0.803
			c-0.374,0.305-0.148,0.446-0.255,0.942c-0.108,0.496-1.273,1.545-1.604,1.985c-0.33,0.444-1.542,1.539-1.968,2.113
			c-0.424,0.579-1.09,1.509-1.977,2.389c-0.889,0.879-3.393,4.195-3.96,4.996c-0.569,0.795-2.867,3.352-3.53,4.235
			c-0.661,0.886-1.658,2.352-1.755,2.574c-0.1,0.222-0.192,0.354,0.206,0.687c0.396,0.327,1.05,1.119,1.05,1.119
			s0.082,0.096,0.052,0.229c1.829,1.172,3.781,1.549,6.24,2.25c0.24-0.516,0.568-1.143,1.027-1.843
			c1.049-1.598,3.223-4.565,5.379-6.899c2.157-2.334,5.24-6.905,6.191-8.281c0.949-1.375,1.873-1.979,2.961-3.438
			c1.088-1.461,2.301-4.052,2.609-5.265c0.313-1.215,1.342-2.358,2.201-3.737c0.859-1.377,1.73-4.658,1.73-4.658
			s1.188,1.081,2.211,1.836c1.016,0.76,3.588,2.513,4.65,3.41c0.617,0.521,1.051,0.832,1.334,1.099c0,0,0.949,1.174,1.518,1.953
			s0.947,1.547,1.102,2.069c0.156,0.526,0.852,0.224,0.66,0.626c-0.189,0.4,0.018,0.226,0.123,0.973
			c0.105,0.744-0.008,2.76,0.346,5.385c0.352,2.629,1.975,6.791,2.691,8.384c0.721,1.593,1.557,3.323,1.734,4.429
			c0.176,1.104,0.354,2.625,0.395,2.949c0.039,0.322,0.352,0.475,0.576,0.459c0.227-0.016,0.844-0.131,0.844-0.131l0.027,0.043
			c1.816-0.521,3.881-0.387,5.084-1.449C582.667,501.228,582.642,501.218,582.642,501.218z M542.208,403.305
			c0,0,0.158,0.729,0.285,1.006c0,0-0.066-0.771,0.033-1.043c0,0,0.465,1.061,0.814,1.477c0.35,0.421,0.665,0.432,0.665,0.432
			s-0.191,0.309-0.688,0.295c-0.498-0.015-0.986-0.303-1.105-0.852C542.095,404.072,542.208,403.305,542.208,403.305z
			 M543.351,408.776c-1.082-0.124-1.425-0.767-1.425-0.767s0.491,0.193,1.167,0.307c0.677,0.112,1.813-0.035,1.813-0.035
			S544.435,408.899,543.351,408.776z M544.733,407.962c-0.36-0.014-1.311-0.042-1.944-0.063s-1.25-0.54-1.25-0.54
			s0.183-0.125,0.817-0.109c0.635,0.023,0.76,0.387,1.347,0.405c0.587,0.021,1.331-0.549,1.331-0.549
			S545.099,407.971,544.733,407.962z M544.447,406.999c-0.414,0.212-1.178,0.009-1.178,0.009s0.78-0.294,1.151-0.553
			c0.368-0.262,0.777-0.295,0.777-0.295S544.86,406.785,544.447,406.999z M546.946,409.659c-0.326,0.353-0.873,0.426-0.873,0.426
			c0.369-0.215,0.803-1.063,0.803-1.063S547.274,409.305,546.946,409.659z M548.519,408.668c-0.377,0.441-0.572,0.934-0.572,0.934
			s-0.141-1.367-0.07-2.178c0,0,0.059-0.361,0.207-0.81l0.164,0.505c0,0,0.074-0.816,0.357-1.215c0.283-0.397,0.469-0.48,0.469-0.48
			s0.164,0.547,0.141,1.316C549.187,407.507,548.896,408.227,548.519,408.668z M552.733,407.121l-0.326,0.308
			c0,0,0.045-1.45,0.061-1.991c0.02-0.546,0.141-1.538,0.141-1.538s0.193,1.049,0.172,1.64
			C552.765,406.126,552.733,407.121,552.733,407.121z M554.685,405.598c-0.137-0.006-0.232,0.128-0.604,0.387
			c-0.369,0.26-0.881,0.742-0.881,0.742c0.102-0.359,0.004-1.586-0.025-2.127c-0.029-0.547,0.082-1.176,0.227-1.488
			c0.146-0.314,0.598-0.207,0.598-0.207s-0.115,0.765-0.037,1.176c0.078,0.41,0.105,0.952,0.105,0.952
			c0.191-0.311,0.6-1.068,0.102-1.765c-0.342-0.477,0.52-0.75,0.52-0.75l0.354,0.821c0.41-0.034,0.426-1.116,0.426-1.116
			s-0.027,0.908-0.039,1.268c-0.012,0.363-0.121,0.994-0.178,1.264C555.2,405.023,554.685,405.598,554.685,405.598z"/>
		<path fill="#ED1C24" stroke="#000000" stroke-miterlimit="10" d="M597.581,504.563c-0.539-0.834-1.873-0.187-2.639-0.088
			s-1.229,0.397-1.58,0.272c-0.354-0.12-1.057-0.033-1.357-0.231c-0.307-0.195-0.441-0.068-0.9-0.363
			c-0.453-0.294-0.789-0.025-1.223-0.359c-0.432-0.334-0.793-0.353-0.998-0.373c-0.197-0.023-0.41,0.057-0.754-0.166
			c-0.342-0.221-0.809-0.252-1.072-0.425c-0.266-0.171-0.428,0.157-0.896-0.363c-0.475-0.521-0.799-0.353-1.154-0.637
			c-0.354-0.284-0.799-1.271-1.23-0.849c-0.432,0.419,0.09,1.237-0.223,1.094c-0.311-0.143-0.77-0.799-0.85-0.834
			c-1.203,1.063-3.268,0.928-5.084,1.449l0.117,0.194c0,0-0.059,0.348-0.047,0.638c0.01,0.289-0.025,0.865-0.025,1.205
			c0,0.342,0.438,0.947,0.438,0.947s0,0-0.195,0.3c-0.193,0.308-0.209,1.159-0.098,1.823c0.109,0.664,0.184,1.467,0.338,1.892
			c0.158,0.426,0.402,0.798,0.402,0.798s-0.209,0.402-0.191,0.795c0.02,0.387,0.021,1.307,0.201,1.692
			c0.182,0.388,0.563,0.634,1.381,0.782c0.816,0.152,2.309-0.231,2.645-0.338c0.338-0.106,0.293-0.783,0.623-0.461
			c0.328,0.322,0.842,0.115,1.518-0.096c0.676-0.214,1.719-0.99,2.066-1.197c0.35-0.206,0.736-0.224,1.746,0.05
			c1.012,0.272,3.201-0.034,5.172-1.244c1.965-1.206,3.832-3.344,4.074-3.726c0.248-0.379,0.156-0.819,0.156-0.819
			S598.118,505.399,597.581,504.563z"/>
		<path fill="#FBB040" stroke="#000000" stroke-miterlimit="10" d="M554.862,440.207c1.561,0.051,2.721-3.158,2.512-3.785
			c-0.41-1.229-2.412-1.434-2.85-1.854c-0.436-0.421-1.375-1.09-2.889-0.921c-1.227-0.321-2.201-0.536-2.201-0.536
			s-2.104-0.79-3.301-1.688c-1.196-0.896-2.687-2.441-3.169-2.953c-0.481-0.514-0.746-0.746-0.603-0.971
			c0.141-0.221,1.254-1.045,2.085-1.564c0.831-0.518,2.556-2.096,2.556-2.096s0.332,0.902,0.521,1.699
			c5.406-2.916,7.281-7.936,3.6-14.072c-1.867-0.96-4.189,1.499-4.654,1.847c-0.461,0.349-0.535,1.253-0.535,1.253
			s-1.872,1.89-2.896,2.762c-1.023,0.875-3.643,3.556-4.625,4.523c-0.979,0.965-3.131,3.071-3.609,3.92
			c-0.479,0.844-0.772,1.562-0.523,2.34c0.246,0.773,1.552,2.494,2.787,3.574c1.234,1.08,4.706,2.999,6.539,3.829
			c1.83,0.826,4.236,1.414,5.484,2.77C550.337,439.639,551.577,440.1,554.862,440.207z"/>
		<path stroke="#000000" stroke-miterlimit="10" d="M530.96,501.256c-0.186,0.177-0.537,1.005-0.789,1.468
			c2.227,0.499,4.154,1.591,6.359,2.133c0.1-0.043,0.211-0.116,0.261-0.249c0.054-0.148,0.21-0.618,0.519-1.278
			c-2.459-0.701-4.411-1.078-6.24-2.25C531.056,501.132,531.028,501.192,530.96,501.256z"/>
		<path fill="#ED1C24" stroke="#000000" stroke-miterlimit="10" d="M541.493,515.13c-0.887-0.709-1.971-0.787-2.152-0.793
			c-0.18-0.003-0.442-0.285-0.472-0.875c-0.026-0.591-0.384-0.738-0.599-1.106c-0.216-0.368-0.203-0.687-0.51-1.059
			c-0.309-0.374-0.07-0.679-0.152-1c-0.08-0.318,0.021-0.679-0.055-1.046c-0.081-0.361-0.115-0.726-0.284-1.094
			c-0.173-0.367-0.083-0.275,0.203-0.717c0.284-0.448,0.318-1.486-0.034-1.814c-0.352-0.327-1.239,0.506-1.239,0.506
			s-0.178-0.096-0.126-0.366c0.055-0.27,0.252-0.854,0.252-0.854s-3.928-1.688-6.154-2.188c-0.063,0.117-0.123,0.218-0.17,0.271
			c-0.235,0.265-0.43,0.709-0.43,0.709s-0.092-0.002-0.318-0.056c-0.223-0.052-0.736,0.431-1.574,1.173
			c-0.839,0.748-1.563,2.175-1.711,2.533c-0.146,0.356,0.061,0.951,0.061,0.951s-0.508,0.302-0.742,0.613
			c-0.236,0.307-0.524,0.842-0.578,1.158c-0.057,0.315,0.773,1.293,1.924,2.188c1.15,0.898,2.889,1.813,3.291,1.916
			c0.408,0.104,0.736-0.385,1.003-0.197c0.267,0.189,0.577,0.384,1.005,1.211c0.428,0.828,1.344,1.944,2.773,2.576
			c1.43,0.634,1.755,0.373,3.109,0.506c1.355,0.131,3.758,0.072,4.121,0.038c0.364-0.034,0.666-1.021,0.773-1.517
			C542.813,516.302,542.376,515.835,541.493,515.13z"/>
		<path fill="none" stroke="#F1F2F2" stroke-width="0.75" stroke-miterlimit="10" d="M553.841,445.419c0,0-2.943,9.281-0.906,12.224
			c2.037,2.941,14.373,14.26,18.107,15.504c3.734,1.245,5.434,3.734,4.754,5.771c-0.68,2.038,3.621,21.505,4.301,22.863"/>
	</g>
	<text transform="matrix(1 0 0 1 509.9453 74.4473)"><tspan x="0" y="0" font-family="'MyriadPro-Bold'" font-size="24">Los expertos recomiendan</tspan><tspan x="75.488" y="25.2" font-family="'MyriadPro-Bold'" font-size="21">un </tspan><tspan x="103.334" y="25.2" font-family="'MyriadPro-BoldIt'" font-size="21">mínimo</tspan><tspan x="171.037" y="25.2" font-family="'MyriadPro-Bold'" font-size="21"> de</tspan><tspan x="135.861" y="37.2" font-family="'MyriadPro-Bold'" font-size="10"> </tspan><tspan x="73.063" y="75.6" fill="#00AEEF" font-family="'MyriadPro-Bold'" font-size="32">2½ horas</tspan><tspan x="95.922" y="99.6" fill="#00AEEF" font-family="'MyriadPro-Bold'" font-size="20">(150 min)</tspan><tspan x="135.861" y="111.6" font-family="'MyriadPro-Bold'" font-size="10"> </tspan><tspan x="7.051" y="136.8" font-family="'MyriadPro-Bold'" font-size="21">de actividad física moderada</tspan><tspan x="83.856" y="162" font-family="'MyriadPro-Bold'" font-size="21">a la semana</tspan></text>
	<text transform="matrix(1 0 0 1 498.0098 302)" fill="#808285" font-family="'MyriadPro-SemiboldIt'" font-size="19">Ejemplos de Actividad Física Moderada</text>
	<text transform="matrix(1 0 0 1 494.8623 538.6445)" fill="#00AEEF" font-family="'MyriadPro-Bold'" font-size="16">Marcha Apresurada</text>
	<text transform="matrix(1 0 0 1 618.5469 444.5996)" fill="#00AEEF" font-family="'MyriadPro-Bold'" font-size="16">Ciclismo a Velocidad Ligera</text>
	<text transform="matrix(1 0 0 1 648.0596 600.0811)" fill="#00AEEF" font-family="'MyriadPro-Bold'" font-size="16">Aeróbico Acuático</text>
</g>
</svg>
