<?xml version="1.0" encoding="utf-8"?>
<!-- Generator: Adobe Illustrator 16.0.0, SVG Export Plug-In . SVG Version: 6.00 Build 0)  -->
<!DOCTYPE svg PUBLIC "-//W3C//DTD SVG 1.1//EN" "http://www.w3.org/Graphics/SVG/1.1/DTD/svg11.dtd">
<svg version="1.1" id="Layer_1" xmlns="http://www.w3.org/2000/svg" xmlns:xlink="http://www.w3.org/1999/xlink" x="0px" y="0px"
	 width="800px" height="1034px" viewBox="0 0 800 1034" enable-background="new 0 0 800 1034" xml:space="preserve">
<g>
	<path fill="#E4E4E4" d="M354.663,739.786c-6-72.774-66.967-129.966-141.289-129.966c-74.323,0-135.29,57.191-141.29,129.966
		c-0.535,6.486,4.822,11.809,11.33,11.809h11.815c6.525,0,11.741-5.222,12.451-11.709c5.829-53.215,50.926-94.622,105.693-94.622
		s99.865,41.407,105.694,94.622c0.711,6.487,5.927,11.709,12.452,11.709h11.813C349.842,751.595,355.198,746.272,354.663,739.786z"
		/>
</g>
<path fill="#FFFFFF" d="M300.091,690.052l28.68-20.836c-0.458-0.642-0.926-1.274-1.395-1.907l-28.675,20.833
	C299.171,688.773,299.635,689.411,300.091,690.052z"/>
<g>
	<path fill="#818181" d="M189.523,628.308l-1.337-6.157l-1.147,4.948l-1.034,0.226l-3.134-4.02l1.337,6.156l-1.396,0.303l-2-9.208
		l1.384-0.301l3.934,5.146l1.408-6.305l1.397-0.304l1.999,9.21L189.523,628.308z"/>
	<path fill="#818181" d="M198.216,626.002c-0.551,0.746-1.34,1.206-2.323,1.344c-0.969,0.139-1.856-0.084-2.591-0.648
		c-1.049-0.8-1.223-2.112-1.426-3.554l-0.07-0.499c-0.218-1.532-0.24-2.545,0.436-3.441c0.55-0.734,1.353-1.209,2.311-1.344
		c0.969-0.137,1.87,0.096,2.603,0.646c0.825,0.633,1.154,1.642,1.342,2.965l0.093,0.655
		C198.815,623.725,198.999,624.929,198.216,626.002z M196.2,619.51c-0.42-0.328-0.933-0.455-1.471-0.38
		c-0.523,0.074-0.994,0.343-1.307,0.774c-0.469,0.654-0.319,1.621-0.137,2.906c0.17,1.191,0.269,2.367,0.955,2.885
		c0.436,0.326,0.936,0.456,1.473,0.381c0.55-0.078,1.008-0.344,1.307-0.773c0.469-0.655,0.352-1.48,0.127-3.066
		C196.948,620.82,196.803,619.986,196.2,619.51z"/>
	<path fill="#818181" d="M207.149,623.622c-0.049,0.575-0.317,1.245-0.695,1.686c-0.547,0.639-1.356,0.991-2.372,1.069l-3.299,0.252
		l-0.716-9.393l3.297-0.252c1.623-0.124,2.99,0.581,3.432,2.193c0.111,0.402,0.199,0.848,0.238,1.361l0.06,0.805
		C207.169,622.32,207.188,623.088,207.149,623.622z M205.634,621.164c-0.111-1.452-0.281-1.97-0.686-2.377
		c-0.388-0.395-0.959-0.563-1.658-0.51l-1.701,0.129l0.521,6.834l1.701-0.129c0.7-0.053,1.237-0.307,1.562-0.757
		c0.337-0.463,0.422-1.093,0.304-2.624L205.634,621.164z"/>
	<path fill="#818181" d="M208.995,626.076l-0.125-9.424l6.035-0.079l0.017,1.282l-4.606,0.063l0.038,2.752l3.917-0.052l0.016,1.271
		l-3.916,0.053l0.037,2.832l4.605-0.062l0.018,1.283L208.995,626.076z"/>
	<path fill="#818181" d="M221.509,626.268l-1.795-4.06l-1.783-0.085l-0.189,3.965l-1.428-0.068l0.448-9.41l3.648,0.173
		c1.731,0.083,2.868,1.249,2.79,2.89c-0.039,0.818-0.361,1.466-0.953,1.928c-0.289,0.225-0.506,0.334-1.043,0.48l1.97,4.267
		L221.509,626.268z M220.243,618.06l-2.115-0.101l-0.14,2.947l2.114,0.102c0.979,0.046,1.627-0.492,1.67-1.392
		C221.815,618.704,221.221,618.107,220.243,618.06z"/>
	<path fill="#818181" d="M230.397,627.158l-0.438-1.956l-3.694-0.432l-0.877,1.804l-1.499-0.176l4.523-8.959l1.145,0.133l2.324,9.76
		L230.397,627.158z M228.771,619.627l-1.957,3.982l2.906,0.339L228.771,619.627z"/>
	<path fill="#818181" d="M236.434,619.888l-1.369,8.026l-1.409-0.24l1.369-8.027l-2.559-0.436l0.216-1.266l6.525,1.112l-0.216,1.266
		L236.434,619.888z"/>
	<path fill="#818181" d="M238.673,628.574l2.109-9.185l5.881,1.35l-0.287,1.252l-4.488-1.03l-0.617,2.684l3.818,0.876l-0.284,1.238
		l-3.817-0.878l-0.634,2.762l4.488,1.031l-0.287,1.25L238.673,628.574z"/>
</g>
<g>
	<path fill="#818181" d="M130.133,657.582l-6.109-7.176l1.089-0.926l5.277,6.198l3.457-2.944l0.832,0.979L130.133,657.582z"/>
	<path fill="#818181" d="M139.345,649.008c-0.119,0.919-0.588,1.703-1.381,2.301c-0.782,0.59-1.666,0.825-2.582,0.687
		c-1.305-0.192-2.09-1.257-2.967-2.419l-0.303-0.402c-0.932-1.235-1.441-2.11-1.286-3.223c0.128-0.908,0.599-1.711,1.371-2.292
		c0.781-0.591,1.684-0.822,2.592-0.694c1.027,0.152,1.805,0.877,2.608,1.943l0.398,0.529
		C138.769,646.726,139.511,647.69,139.345,649.008z M134.44,644.305c-0.527-0.084-1.037,0.053-1.471,0.379
		c-0.422,0.319-0.705,0.78-0.77,1.31c-0.094,0.799,0.507,1.574,1.287,2.608c0.725,0.962,1.381,1.941,2.234,2.063
		c0.537,0.074,1.037-0.053,1.47-0.38c0.444-0.335,0.716-0.788,0.771-1.31c0.092-0.8-0.41-1.465-1.373-2.744
		C135.728,645.09,135.198,644.43,134.44,644.305z"/>
	<path fill="#818181" d="M148.465,644.07l-1.05,0.67l-5.162-4.542l1.948,6.596l-1.048,0.67l-7.151-6.62l1.272-0.813l5.019,4.807
		l-2.039-6.711l0.96-0.612l5.242,4.665l-2.251-6.576l1.272-0.813L148.465,644.07z"/>
</g>
<g>
	<path fill="#818181" d="M280.745,645.644l2.154-3.511l-3.25-1.994l-2.155,3.511l-1.219-0.749l4.933-8.037l1.219,0.75l-2.113,3.442
		l3.251,1.995l2.112-3.443l1.23,0.756l-4.932,8.036L280.745,645.644z"/>
	<path fill="#818181" d="M283.346,647.354l5.29-7.799l1.184,0.803l-5.29,7.799L283.346,647.354z"/>
	<path fill="#818181" d="M291.083,651.672c-0.951,0.167-1.902-0.063-2.709-0.664c-0.775-0.576-1.26-1.365-1.385-2.284
		c-0.082-0.622,0.027-1.233,0.304-1.737c0.229-0.44,0.632-1.048,1.224-1.844l0.23-0.309c1.035-1.391,1.682-2.016,2.764-2.183
		c0.934-0.147,1.801,0.085,2.617,0.694c0.479,0.355,0.809,0.733,1.037,1.135c0.244,0.447,0.35,0.838,0.482,1.547l-1.363,0.19
		c-0.081-0.557-0.156-0.876-0.358-1.225c-0.126-0.209-0.319-0.436-0.575-0.626c-0.732-0.545-1.646-0.581-2.339,0.041
		c-0.394,0.351-0.823,0.904-1.337,1.595l-0.182,0.245c-0.965,1.296-1.211,1.804-1.138,2.437c0.065,0.511,0.339,0.963,0.785,1.295
		c0.499,0.371,1.085,0.493,1.624,0.367c0.473-0.127,0.867-0.411,1.246-0.921l0.309-0.414l-1.582-1.178l0.727-0.977l2.729,2.031
		l-0.854,1.147C292.581,651.056,291.946,651.507,291.083,651.672z"/>
	<path fill="#818181" d="M296.247,657.26l2.669-3.134l-2.902-2.47l-2.669,3.132l-1.087-0.926l6.108-7.174l1.088,0.927l-2.617,3.074
		l2.902,2.47l2.617-3.072l1.098,0.935l-6.108,7.174L296.247,657.26z"/>
</g>
<g>
	<path fill="#818181" d="M322.339,689.321l-0.557-0.962l6.599-7.41l0.75,1.295l-4.848,5.311l7.014-1.564l0.755,1.306
		L322.339,689.321z"/>
	<path fill="#818181" d="M324.323,692.86l8.419-4.232l2.712,5.391l-1.147,0.577l-2.069-4.115l-2.459,1.237l1.76,3.499l-1.135,0.571
		l-1.76-3.5l-2.531,1.272l2.07,4.114l-1.146,0.578L324.323,692.86z"/>
	<path fill="#818181" d="M329.618,704.198l2.871-3.391l-0.705-1.644l-3.652,1.565l-0.563-1.315l8.666-3.714l1.44,3.359
		c0.685,1.595,0.132,3.129-1.379,3.775c-0.755,0.323-1.478,0.316-2.153-0.014c-0.328-0.162-0.521-0.31-0.888-0.729l-2.98,3.64
		L329.618,704.198z M336.453,699.468l-0.835-1.947l-2.713,1.163l0.834,1.948c0.386,0.9,1.154,1.248,1.982,0.894
		C336.562,701.166,336.84,700.369,336.453,699.468z"/>
	<path fill="#818181" d="M335.358,708.416l-3.648,1.316l-0.484-1.345l3.647-1.316l4.259-4.534l0.531,1.47l-3.223,3.273l4.561,0.436
		l0.526,1.457L335.358,708.416z"/>
	<path fill="#818181" d="M334.972,720.385l3.971-1.084l-1.004-3.676l-3.971,1.084l-0.377-1.379l9.089-2.482l0.377,1.379
		l-3.894,1.063l1.004,3.678l3.894-1.063l0.38,1.391l-9.089,2.483L334.972,720.385z"/>
	<path fill="#818181" d="M335.699,723.436l9.201-2.056l0.312,1.396l-9.201,2.056L335.699,723.436z"/>
	<path fill="#818181" d="M338.378,731.878c-0.807-0.529-1.342-1.348-1.518-2.338c-0.17-0.951,0.018-1.858,0.556-2.613
		c0.366-0.508,0.866-0.879,1.413-1.058c0.467-0.163,1.177-0.329,2.154-0.504l0.377-0.067c1.708-0.304,2.606-0.314,3.51,0.304
		c0.78,0.534,1.252,1.296,1.431,2.3c0.104,0.586,0.085,1.087-0.022,1.536c-0.127,0.493-0.319,0.85-0.709,1.457l-1.123-0.795
		c0.322-0.46,0.486-0.745,0.577-1.138c0.052-0.237,0.067-0.535,0.011-0.849c-0.16-0.899-0.799-1.552-1.731-1.574
		c-0.526-0.015-1.22,0.097-2.067,0.246l-0.299,0.054c-1.59,0.282-2.119,0.485-2.498,0.995c-0.303,0.417-0.412,0.935-0.314,1.481
		c0.108,0.612,0.451,1.103,0.931,1.381c0.432,0.232,0.913,0.294,1.538,0.184l0.509-0.091l-0.345-1.942l1.197-0.214l0.596,3.351
		l-1.406,0.249C339.892,732.456,339.12,732.351,338.378,731.878z"/>
	<path fill="#818181" d="M338.316,739.491l4.091-0.456l-0.421-3.789l-4.091,0.456l-0.158-1.421l9.365-1.043l0.158,1.421
		l-4.012,0.447l0.422,3.788l4.012-0.447l0.16,1.435l-9.365,1.043L338.316,739.491z"/>
</g>
<g>
	<path fill="#818181" d="M88.673,736.899l-0.123,1.105l-9.717,2.045L79,738.563l7.059-1.396l-6.578-2.908l0.168-1.5L88.673,736.899z
		"/>
	<path fill="#818181" d="M89.175,732.898l-9.285-1.595l1.021-5.946l1.265,0.217l-0.779,4.539l2.714,0.466l0.662-3.86l1.252,0.215
		l-0.662,3.86l2.79,0.479l0.779-4.538l1.266,0.217L89.175,732.898z"/>
	<path fill="#818181" d="M91.645,720.631l-4.319,1.025l-0.408,1.739l3.865,0.908l-0.326,1.393l-9.176-2.156l0.835-3.557
		c0.397-1.688,1.752-2.594,3.351-2.218c0.798,0.188,1.376,0.622,1.723,1.289c0.168,0.324,0.236,0.558,0.283,1.112l4.556-1.16
		L91.645,720.631z M83.341,720.38l-0.482,2.062l2.872,0.676l0.484-2.062c0.225-0.954-0.187-1.689-1.063-1.896
		C84.263,718.951,83.565,719.427,83.341,720.38z"/>
	<path fill="#818181" d="M89.531,713.824l3.718,1.105l-0.408,1.369l-3.717-1.105l-6.118,1.12l0.445-1.496l4.536-0.722l-3.411-3.059
		l0.441-1.484L89.531,713.824z"/>
	<path fill="#818181" d="M95.063,709.354l-8.813-3.347l0.508-1.337l7.612,2.891l1.612-4.245l1.2,0.456L95.063,709.354z"/>
	<path fill="#818181" d="M99.005,697.409c0.339,0.863,0.305,1.776-0.102,2.682c-0.402,0.895-1.064,1.525-1.934,1.847
		c-1.236,0.459-2.438-0.097-3.768-0.693l-0.459-0.206c-1.412-0.635-2.28-1.155-2.68-2.205c-0.325-0.858-0.299-1.79,0.098-2.671
		c0.4-0.895,1.08-1.532,1.938-1.858c0.976-0.36,2.006-0.1,3.225,0.448l0.604,0.271C97.399,695.686,98.515,696.173,99.005,697.409z
		 M92.438,695.646c-0.502,0.181-0.883,0.547-1.106,1.042c-0.218,0.482-0.243,1.022-0.044,1.519c0.303,0.746,1.202,1.135,2.385,1.667
		c1.1,0.494,2.146,1.037,2.952,0.731c0.508-0.192,0.884-0.545,1.106-1.04c0.228-0.508,0.248-1.036,0.045-1.52
		c-0.304-0.745-1.064-1.088-2.525-1.745C93.946,695.715,93.163,695.392,92.438,695.646z"/>
	<path fill="#818181" d="M104.624,688.677l-0.596,1.093l-6.715-1.493l4.887,4.841l-0.598,1.093l-9.457-2.357l0.724-1.325
		l6.716,1.796l-5.021-4.899l0.546-1l6.842,1.563l-5.141-4.679l0.724-1.324L104.624,688.677z"/>
</g>
<path fill="#262262" d="M261.155,716.878c4.914,6.758,8.415,14.563,10.118,22.955c1.308,6.441,6.413,11.762,12.986,11.762
	c15.755,0,31.511,0,47.265,0c0.01-8.024-0.795-15.896-2.344-23.525c-3.404-16.785-10.404-32.401-20.23-45.915
	C293.019,693.729,277.087,705.304,261.155,716.878z"/>
<path fill="#9ADBF9" d="M165.594,716.878c-4.914,6.758-8.415,14.563-10.118,22.955c-1.309,6.441-6.414,11.762-12.986,11.762
	c-15.754,0-31.51,0-47.265,0c-0.01-8.024,0.796-15.896,2.344-23.525c3.404-16.785,10.404-32.401,20.231-45.915
	C133.731,693.729,149.661,705.304,165.594,716.878z"/>
<path fill="#2B3990" d="M231.628,695.415c12.078,3.912,22.322,11.554,29.527,21.463c15.932-11.574,31.863-23.148,47.795-34.724
	c-14.412-19.821-34.903-35.114-59.063-42.938C243.801,657.948,237.714,676.683,231.628,695.415z"/>
<path fill="#1C75BC" d="M195.119,695.413c11.647-3.78,24.429-3.947,36.512-0.009c6.086-18.73,12.173-37.461,18.259-56.192
	c-24.166-7.88-49.731-7.542-73.024,0.02C182.951,657.959,189.035,676.686,195.119,695.413z"/>
<path fill="#27AAE1" d="M165.596,716.88c7.216-9.922,17.47-17.559,29.525-21.465c-6.086-18.729-12.17-37.456-18.261-56.2
	c-24.113,7.813-44.629,23.092-59.063,42.938C133.729,693.729,149.663,705.304,165.596,716.88z"/>
<path fill="#FFFFFF" d="M166.386,716.001l-47.797-34.726c-0.234,0.315-1.166,1.585-1.396,1.906l47.808,34.734L166.386,716.001z"/>
<path fill="#FFFFFF" d="M196.251,695.07l-18.261-56.201c-0.376,0.118-0.754,0.232-1.128,0.354c-0.375,0.123-0.742,0.262-1.115,0.387
	l18.257,56.192L196.251,695.07z"/>
<path fill="#FFFFFF" d="M232.747,695.797l18.258-56.193c-0.374-0.127-0.741-0.266-1.117-0.388c0,0,0-0.003,0.002-0.004
	c-0.375-0.122-0.751-0.236-1.127-0.354l-18.264,56.209L232.747,695.797z"/>
<path fill="#FFFFFF" d="M261.188,718.779l68.945-49.83c-0.33-0.461-0.65-0.927-0.985-1.386c-0.333-0.457-0.688-0.896-1.027-1.351
	l-68.927,49.818L261.188,718.779z"/>
<path fill="#FFFFFF" d="M233.604,696.595l25.354-81.201c-0.54-0.171-1.075-0.353-1.619-0.519c-0.54-0.167-1.089-0.307-1.632-0.467
	L230.36,695.59L233.604,696.595z"/>
<path fill="#FFFFFF" d="M197.644,696.001l-26.751-80.753c-0.538,0.177-1.079,0.342-1.618,0.522
	c-0.535,0.181-1.063,0.388-1.596,0.573l26.744,80.731L197.644,696.001z"/>
<path fill="#FFFFFF" d="M167.084,715.763L98.22,665.818c-0.334,0.457-0.677,0.906-1.008,1.368c-0.33,0.459-0.637,0.935-0.962,1.397
	l68.846,49.931L167.084,715.763z"/>
<g>
	<g>
		<path fill="#FFFFFF" d="M255.454,710.137c7.016-14.06,12.607-25.386,12.607-25.386c0.609-1.236,0.256-2.667-0.858-3.476
			c-1.118-0.813-2.587-0.707-3.575,0.261c0,0-8.818,8.6-19.827,19.423C248.114,703.547,252.015,706.641,255.454,710.137z"/>
		<path fill="#F6F6F5" d="M255.337,710.021c6.837-13.707,12.332-24.839,12.58-25.341c0.577-1.17,0.237-2.515-0.809-3.274
			c-1.049-0.763-2.432-0.67-3.368,0.246c-0.396,0.386-9.067,8.842-19.802,19.393C248.15,703.583,251.965,706.607,255.337,710.021z"
			/>
		<path fill="#F0EFEE" d="M255.219,709.904c6.659-13.354,12.057-24.291,12.553-25.295c0.544-1.104,0.219-2.363-0.759-3.073
			c-0.98-0.713-2.278-0.634-3.16,0.23c-0.791,0.772-9.316,9.083-19.777,19.361C248.187,703.619,251.916,706.575,255.219,709.904z"/>
		<path fill="#EAE9E9" d="M255.102,709.787c6.48-13.002,11.781-23.744,12.526-25.25c0.512-1.037,0.201-2.211-0.709-2.871
			c-0.912-0.663-2.124-0.597-2.953,0.216c-1.187,1.158-9.565,9.325-19.752,19.331C248.224,703.654,251.866,706.543,255.102,709.787z
			"/>
		<path fill="#E5E3E3" d="M254.985,709.671c6.301-12.649,11.505-23.196,12.499-25.204c0.479-0.972,0.182-2.06-0.659-2.67
			c-0.844-0.613-1.97-0.561-2.746,0.2c-1.583,1.545-9.813,9.567-19.727,19.3C248.26,703.69,251.816,706.511,254.985,709.671z"/>
		<path fill="#DFDEDD" d="M254.868,709.555c6.123-12.296,11.23-22.648,12.471-25.158c0.446-0.906,0.164-1.908-0.609-2.469
			c-0.774-0.563-1.815-0.523-2.539,0.185c-1.978,1.931-10.062,9.81-19.702,19.271C248.296,703.727,251.767,706.479,254.868,709.555z
			"/>
		<path fill="#D9D8D8" d="M254.75,709.438c5.944-11.944,10.955-22.103,12.444-25.114c0.413-0.839,0.145-1.756-0.561-2.267
			c-0.705-0.514-1.66-0.486-2.331,0.17c-2.374,2.316-10.311,10.051-19.676,19.239C248.333,703.762,251.717,706.445,254.75,709.438z"
			/>
		<path fill="#D4D3D3" d="M254.633,709.322c5.766-11.592,10.679-21.555,12.417-25.068c0.381-0.773,0.126-1.604-0.511-2.066
			c-0.637-0.463-1.506-0.449-2.123,0.154c-2.769,2.704-10.56,10.293-19.651,19.209C248.369,703.798,251.668,706.413,254.633,709.322
			z"/>
		<path fill="#CFCECE" d="M254.515,709.205c5.587-11.238,10.404-21.007,12.39-25.022c0.348-0.707,0.108-1.452-0.461-1.864
			c-0.568-0.414-1.352-0.413-1.916,0.139c-3.165,3.09-10.808,10.535-19.626,19.179C248.405,703.834,251.618,706.38,254.515,709.205z
			"/>
		<path fill="#CAC9C9" d="M254.398,709.09c5.409-10.887,10.128-20.46,12.363-24.978c0.315-0.642,0.09-1.301-0.411-1.664
			c-0.5-0.363-1.198-0.376-1.709,0.124c-3.561,3.476-11.057,10.777-19.601,19.148C248.442,703.87,251.569,706.348,254.398,709.09z"
			/>
		<path fill="#C5C4C4" d="M254.28,708.973c5.23-10.533,9.853-19.912,12.336-24.932c0.283-0.575,0.071-1.149-0.361-1.462
			c-0.431-0.313-1.043-0.34-1.501,0.108c-3.956,3.862-11.306,11.02-19.576,19.117C248.479,703.905,251.52,706.315,254.28,708.973z"
			/>
		<path fill="#C0BFBF" d="M254.163,708.856c5.052-10.181,9.577-19.365,12.309-24.887c0.25-0.509,0.053-0.997-0.312-1.261
			c-0.362-0.264-0.889-0.303-1.294,0.094c-4.352,4.248-11.555,11.261-19.551,19.087C248.515,703.941,251.47,706.282,254.163,708.856
			z"/>
	</g>
	<g>
		<path fill="#FFFFFF" d="M205.244,764.671c6.85,4.976,16.474,3.45,21.452-3.402c2.238-3.076,16.346-31.073,27.144-52.719
			c-3.05-2.874-6.428-5.422-10.068-7.609c-17.267,16.979-39.667,39.177-41.923,42.271
			C196.871,750.064,198.396,759.69,205.244,764.671z"/>
		<path fill="#F8F8F8" d="M205.275,764.627c6.827,4.959,16.416,3.439,21.377-3.39c2.285-3.141,16.33-31.023,27.149-52.722
			c-3.028-2.849-6.377-5.377-9.987-7.549c-17.311,17.017-39.619,39.116-41.923,42.276
			C196.931,750.072,198.45,759.663,205.275,764.627z"/>
		<path fill="#F3F3F2" d="M205.307,764.583c6.804,4.943,16.358,3.429,21.303-3.378c2.331-3.204,16.313-30.971,27.154-52.724
			c-3.005-2.823-6.327-5.331-9.904-7.488c-17.356,17.054-39.572,39.056-41.924,42.282
			C196.992,750.081,198.504,759.637,205.307,764.583z"/>
		<path fill="#EFEEEE" d="M205.339,764.539c6.781,4.927,16.299,3.418,21.228-3.365c2.377-3.269,16.297-30.921,27.159-52.728
			c-2.983-2.797-6.276-5.284-9.823-7.428c-17.4,17.091-39.524,38.995-41.923,42.288
			C197.052,750.089,198.559,759.609,205.339,764.539z"/>
		<path fill="#EBEAEA" d="M205.37,764.496c6.759,4.91,16.241,3.406,21.152-3.354c2.425-3.333,16.281-30.869,27.166-52.729
			c-2.961-2.772-6.226-5.239-9.742-7.367c-17.445,17.127-39.477,38.935-41.924,42.292
			C197.112,750.098,198.613,759.583,205.37,764.496z"/>
		<path fill="#E7E6E6" d="M205.402,764.453c6.736,4.894,16.183,3.396,21.078-3.342c2.471-3.396,16.265-30.819,27.171-52.732
			c-2.939-2.746-6.176-5.194-9.66-7.307c-17.49,17.164-39.429,38.874-41.924,42.298
			C197.173,750.106,198.668,759.557,205.402,764.453z"/>
		<path fill="#E3E2E2" d="M205.433,764.409c6.713,4.876,16.125,3.385,21.003-3.329c2.517-3.462,16.248-30.769,27.175-52.736
			c-2.917-2.721-6.125-5.148-9.578-7.246c-17.536,17.201-39.382,38.814-41.925,42.303
			C197.232,750.115,198.722,759.529,205.433,764.409z"/>
		<path fill="#DFDEDE" d="M205.465,764.365c6.69,4.86,16.067,3.374,20.928-3.316c2.563-3.526,16.232-30.719,27.181-52.738
			c-2.895-2.695-6.074-5.104-9.497-7.187c-17.581,17.238-39.333,38.754-41.924,42.309
			C197.293,750.123,198.776,759.503,205.465,764.365z"/>
		<path fill="#DBDBDA" d="M205.496,764.322c6.668,4.844,16.009,3.363,20.854-3.305c2.61-3.591,16.216-30.668,27.187-52.742
			c-2.873-2.669-6.024-5.058-9.415-7.125c-17.625,17.275-39.286,38.693-41.925,42.313
			C197.354,750.131,198.831,759.477,205.496,764.322z"/>
		<path fill="#D7D7D7" d="M205.528,764.277c6.645,4.828,15.951,3.354,20.778-3.292c2.656-3.654,16.2-30.616,27.192-52.744
			c-2.85-2.644-5.973-5.012-9.333-7.064c-17.67,17.313-39.238,38.633-41.925,42.319C197.414,750.14,198.885,759.449,205.528,764.277
			z"/>
		<path fill="#D3D3D3" d="M205.559,764.234c6.623,4.811,15.893,3.342,20.704-3.28c2.703-3.719,16.183-30.565,27.197-52.747
			c-2.828-2.618-5.923-4.966-9.251-7.004c-17.715,17.349-39.191,38.572-41.925,42.324
			C197.474,750.147,198.94,759.422,205.559,764.234z"/>
		<path fill="#CFD0D0" d="M205.591,764.19c6.6,4.795,15.835,3.331,20.629-3.268c2.749-3.783,16.167-30.515,27.202-52.75
			c-2.806-2.593-5.872-4.921-9.169-6.943c-17.76,17.386-39.144,38.512-41.926,42.329
			C197.534,750.156,198.994,759.396,205.591,764.19z"/>
	</g>
	<g>
		
			<linearGradient id="SVGID_1_" gradientUnits="userSpaceOnUse" x1="436.1626" y1="3073.3301" x2="466.7333" y2="3073.3301" gradientTransform="matrix(0.809 0.5878 -0.5878 0.809 1676.4639 -2030.1078)">
			<stop  offset="0" style="stop-color:#717171"/>
			<stop  offset="0.49" style="stop-color:#414141"/>
			<stop  offset="0.51" style="stop-color:#121212"/>
			<stop  offset="1" style="stop-color:#010101"/>
		</linearGradient>
		<path fill="url(#SVGID_1_)" d="M265.981,680.876c0.5-1.016-0.795-1.957-1.604-1.167c-14.077,13.744-58.872,57.607-62.942,63.194
			c-0.002,0.003-0.005,0.006-0.005,0.009c-4.796,6.598-3.331,15.833,3.268,20.627c6.597,4.795,15.831,3.331,20.626-3.269
			C229.36,754.717,257.255,698.519,265.981,680.876z"/>
		
			<linearGradient id="SVGID_2_" gradientUnits="userSpaceOnUse" x1="444.0674" y1="3110.4297" x2="458.835" y2="3110.4297" gradientTransform="matrix(0.809 0.5878 -0.5878 0.809 1676.4639 -2030.1078)">
			<stop  offset="0" style="stop-color:#010101"/>
			<stop  offset="1" style="stop-color:#717171"/>
		</linearGradient>
		<circle fill="url(#SVGID_2_)" cx="213.377" cy="751.593" r="7.384"/>
	</g>
</g>
</svg>
