<?xml version="1.0" encoding="utf-8"?>
<!-- Generator: Adobe Illustrator 16.0.0, SVG Export Plug-In . SVG Version: 6.00 Build 0)  -->
<!DOCTYPE svg PUBLIC "-//W3C//DTD SVG 1.1//EN" "http://www.w3.org/Graphics/SVG/1.1/DTD/svg11.dtd">
<svg version="1.1" id="Layer_1" xmlns="http://www.w3.org/2000/svg" xmlns:xlink="http://www.w3.org/1999/xlink" x="0px" y="0px"
	 width="800px" height="1034px" viewBox="0 0 800 1034" enable-background="new 0 0 800 1034" xml:space="preserve">
<g>
	<g>
		<path fill="#E4E4E4" d="M354.663,365.786c-6-72.774-66.967-129.966-141.289-129.966c-74.323,0-135.29,57.192-141.29,129.966
			c-0.535,6.486,4.822,11.809,11.33,11.809h11.815c6.525,0,11.741-5.222,12.451-11.709c5.829-53.215,50.926-94.622,105.693-94.622
			s99.865,41.407,105.694,94.622c0.711,6.487,5.927,11.709,12.452,11.709h11.813C349.842,377.595,355.198,372.272,354.663,365.786z"
			/>
	</g>
	<path fill="#FFFFFF" d="M300.091,316.052l28.68-20.836c-0.458-0.642-0.926-1.274-1.395-1.907l-28.675,20.833
		C299.171,314.773,299.635,315.411,300.091,316.052z"/>
	<g>
		<path fill="#818181" d="M189.523,254.308l-1.337-6.157l-1.147,4.948l-1.034,0.226l-3.134-4.019l1.337,6.156l-1.396,0.303l-2-9.208
			l1.384-0.301l3.934,5.146l1.408-6.305l1.397-0.304l1.999,9.21L189.523,254.308z"/>
		<path fill="#818181" d="M198.216,252.002c-0.551,0.746-1.34,1.206-2.323,1.343c-0.969,0.139-1.856-0.084-2.591-0.648
			c-1.049-0.8-1.223-2.112-1.426-3.554l-0.07-0.499c-0.218-1.533-0.24-2.545,0.436-3.442c0.55-0.733,1.353-1.208,2.311-1.343
			c0.969-0.137,1.87,0.096,2.603,0.647c0.825,0.632,1.154,1.641,1.342,2.964l0.093,0.655
			C198.815,249.725,198.999,250.929,198.216,252.002z M196.2,245.51c-0.42-0.328-0.933-0.456-1.471-0.38
			c-0.523,0.074-0.994,0.342-1.307,0.774c-0.469,0.654-0.319,1.622-0.137,2.906c0.17,1.191,0.269,2.368,0.955,2.885
			c0.436,0.327,0.936,0.456,1.473,0.38c0.55-0.078,1.008-0.343,1.307-0.773c0.469-0.655,0.352-1.48,0.127-3.066
			C196.948,246.821,196.803,245.986,196.2,245.51z"/>
		<path fill="#818181" d="M207.149,249.622c-0.049,0.575-0.317,1.246-0.695,1.686c-0.547,0.639-1.356,0.992-2.372,1.07l-3.299,0.251
			l-0.716-9.393l3.297-0.251c1.623-0.124,2.99,0.581,3.432,2.193c0.111,0.403,0.199,0.848,0.238,1.362l0.06,0.804
			C207.169,248.32,207.188,249.088,207.149,249.622z M205.634,247.164c-0.111-1.452-0.281-1.969-0.686-2.376
			c-0.388-0.395-0.959-0.563-1.658-0.51l-1.701,0.129l0.521,6.834l1.701-0.129c0.7-0.053,1.237-0.307,1.562-0.756
			c0.337-0.463,0.422-1.093,0.304-2.624L205.634,247.164z"/>
		<path fill="#818181" d="M208.995,252.076l-0.125-9.423l6.035-0.08l0.017,1.283l-4.606,0.062l0.038,2.752l3.917-0.052l0.016,1.271
			l-3.916,0.052l0.037,2.833l4.605-0.062l0.018,1.283L208.995,252.076z"/>
		<path fill="#818181" d="M221.509,252.268l-1.795-4.06l-1.783-0.084l-0.189,3.964l-1.428-0.068l0.448-9.411l3.648,0.173
			c1.731,0.083,2.868,1.25,2.79,2.889c-0.039,0.819-0.361,1.466-0.953,1.928c-0.289,0.226-0.506,0.334-1.043,0.481l1.97,4.267
			L221.509,252.268z M220.243,244.06l-2.115-0.1l-0.14,2.947l2.114,0.101c0.979,0.046,1.627-0.492,1.67-1.391
			C221.815,244.704,221.221,244.107,220.243,244.06z"/>
		<path fill="#818181" d="M230.397,253.158l-0.438-1.956l-3.694-0.432l-0.877,1.803l-1.499-0.175l4.523-8.958l1.145,0.133
			l2.324,9.759L230.397,253.158z M228.771,245.626l-1.957,3.982l2.906,0.339L228.771,245.626z"/>
		<path fill="#818181" d="M236.434,245.888l-1.369,8.026l-1.409-0.24l1.369-8.027l-2.559-0.437l0.216-1.266l6.525,1.113
			l-0.216,1.266L236.434,245.888z"/>
		<path fill="#818181" d="M238.673,254.574l2.109-9.185l5.881,1.35l-0.287,1.252l-4.488-1.03l-0.617,2.683l3.818,0.876l-0.284,1.238
			l-3.817-0.877l-0.634,2.761l4.488,1.031l-0.287,1.25L238.673,254.574z"/>
	</g>
	<g>
		<path fill="#818181" d="M130.133,283.582l-6.109-7.176l1.089-0.926l5.277,6.198l3.457-2.944l0.832,0.979L130.133,283.582z"/>
		<path fill="#818181" d="M139.345,275.008c-0.119,0.919-0.588,1.703-1.381,2.301c-0.782,0.59-1.666,0.825-2.582,0.687
			c-1.305-0.192-2.09-1.257-2.967-2.419l-0.303-0.402c-0.932-1.235-1.441-2.11-1.286-3.223c0.128-0.908,0.599-1.711,1.371-2.292
			c0.781-0.591,1.684-0.822,2.592-0.694c1.027,0.152,1.805,0.877,2.608,1.943l0.398,0.529
			C138.769,272.726,139.511,273.69,139.345,275.008z M134.44,270.305c-0.527-0.084-1.037,0.053-1.471,0.379
			c-0.422,0.319-0.705,0.78-0.77,1.31c-0.094,0.799,0.507,1.574,1.287,2.608c0.725,0.962,1.381,1.941,2.234,2.063
			c0.537,0.074,1.037-0.053,1.47-0.38c0.444-0.335,0.716-0.788,0.771-1.31c0.092-0.8-0.41-1.465-1.373-2.744
			C135.728,271.09,135.198,270.43,134.44,270.305z"/>
		<path fill="#818181" d="M148.465,270.07l-1.05,0.67l-5.162-4.542l1.948,6.596l-1.048,0.67l-7.151-6.62l1.272-0.813l5.019,4.807
			l-2.039-6.711l0.96-0.612l5.242,4.665l-2.251-6.576l1.272-0.813L148.465,270.07z"/>
	</g>
	<g>
		<path fill="#818181" d="M280.745,271.644l2.154-3.511l-3.25-1.994l-2.155,3.511l-1.219-0.749l4.933-8.037l1.219,0.75l-2.113,3.442
			l3.251,1.995l2.112-3.443l1.23,0.756l-4.932,8.036L280.745,271.644z"/>
		<path fill="#818181" d="M283.346,273.354l5.29-7.799l1.184,0.803l-5.29,7.799L283.346,273.354z"/>
		<path fill="#818181" d="M291.083,277.672c-0.951,0.167-1.902-0.063-2.709-0.664c-0.775-0.576-1.26-1.365-1.385-2.284
			c-0.082-0.622,0.027-1.233,0.304-1.737c0.229-0.44,0.632-1.048,1.224-1.844l0.23-0.309c1.035-1.391,1.682-2.016,2.764-2.183
			c0.934-0.147,1.801,0.085,2.617,0.694c0.479,0.355,0.809,0.733,1.037,1.135c0.244,0.447,0.35,0.838,0.482,1.547l-1.363,0.19
			c-0.081-0.557-0.156-0.876-0.358-1.225c-0.126-0.209-0.319-0.436-0.575-0.626c-0.732-0.545-1.646-0.581-2.339,0.041
			c-0.394,0.351-0.823,0.904-1.337,1.595l-0.182,0.245c-0.965,1.296-1.211,1.804-1.138,2.437c0.065,0.511,0.339,0.963,0.785,1.295
			c0.499,0.371,1.085,0.493,1.624,0.367c0.473-0.127,0.867-0.411,1.246-0.921l0.309-0.414l-1.582-1.178l0.727-0.977l2.729,2.031
			l-0.854,1.147C292.581,277.056,291.946,277.507,291.083,277.672z"/>
		<path fill="#818181" d="M296.247,283.26l2.669-3.134l-2.902-2.47l-2.669,3.132l-1.087-0.926l6.108-7.174l1.088,0.927l-2.617,3.074
			l2.902,2.47l2.617-3.072l1.098,0.935l-6.108,7.174L296.247,283.26z"/>
	</g>
	<g>
		<path fill="#818181" d="M322.339,315.321l-0.557-0.962l6.599-7.41l0.75,1.295l-4.848,5.311l7.014-1.564l0.755,1.306
			L322.339,315.321z"/>
		<path fill="#818181" d="M324.323,318.86l8.419-4.232l2.712,5.391l-1.147,0.577l-2.069-4.115l-2.459,1.237l1.76,3.499l-1.135,0.571
			l-1.76-3.5l-2.531,1.272l2.07,4.114l-1.146,0.578L324.323,318.86z"/>
		<path fill="#818181" d="M329.618,330.198l2.871-3.391l-0.705-1.644l-3.652,1.565l-0.563-1.315l8.666-3.714l1.44,3.359
			c0.685,1.595,0.132,3.129-1.379,3.775c-0.755,0.323-1.478,0.316-2.153-0.014c-0.328-0.162-0.521-0.31-0.888-0.729l-2.98,3.64
			L329.618,330.198z M336.453,325.468l-0.835-1.947l-2.713,1.163l0.834,1.948c0.386,0.9,1.154,1.248,1.982,0.894
			C336.562,327.166,336.84,326.369,336.453,325.468z"/>
		<path fill="#818181" d="M335.358,334.416l-3.648,1.316l-0.484-1.345l3.647-1.316l4.259-4.534l0.531,1.47l-3.223,3.273l4.561,0.436
			l0.526,1.457L335.358,334.416z"/>
		<path fill="#818181" d="M334.972,346.385l3.971-1.084l-1.004-3.676l-3.971,1.084l-0.377-1.379l9.089-2.482l0.377,1.379
			l-3.894,1.063l1.004,3.678l3.894-1.063l0.38,1.391l-9.089,2.483L334.972,346.385z"/>
		<path fill="#818181" d="M335.699,349.436l9.201-2.056l0.312,1.396l-9.201,2.056L335.699,349.436z"/>
		<path fill="#818181" d="M338.378,357.878c-0.807-0.529-1.342-1.348-1.518-2.338c-0.17-0.951,0.018-1.858,0.556-2.613
			c0.366-0.508,0.866-0.879,1.413-1.058c0.467-0.163,1.177-0.329,2.154-0.504l0.377-0.067c1.708-0.304,2.606-0.314,3.51,0.304
			c0.78,0.534,1.252,1.296,1.431,2.3c0.104,0.586,0.085,1.087-0.022,1.536c-0.127,0.493-0.319,0.85-0.709,1.457l-1.123-0.795
			c0.322-0.46,0.486-0.745,0.577-1.138c0.052-0.237,0.067-0.535,0.011-0.849c-0.16-0.899-0.799-1.552-1.731-1.574
			c-0.526-0.015-1.22,0.097-2.067,0.246l-0.299,0.054c-1.59,0.282-2.119,0.485-2.498,0.995c-0.303,0.417-0.412,0.935-0.314,1.481
			c0.108,0.612,0.451,1.103,0.931,1.381c0.432,0.232,0.913,0.294,1.538,0.184l0.509-0.091l-0.345-1.942l1.197-0.214l0.596,3.351
			l-1.406,0.249C339.892,358.456,339.12,358.351,338.378,357.878z"/>
		<path fill="#818181" d="M338.316,365.491l4.091-0.456l-0.421-3.789l-4.091,0.456l-0.158-1.421l9.365-1.043l0.158,1.421
			l-4.012,0.447l0.422,3.788l4.012-0.447l0.16,1.435l-9.365,1.043L338.316,365.491z"/>
	</g>
	<g>
		<path fill="#818181" d="M88.673,362.899l-0.123,1.105l-9.717,2.045L79,364.563l7.059-1.396l-6.578-2.908l0.168-1.5L88.673,362.899
			z"/>
		<path fill="#818181" d="M89.175,358.898l-9.285-1.595l1.021-5.946l1.265,0.217l-0.779,4.539l2.714,0.466l0.662-3.86l1.252,0.215
			l-0.662,3.86l2.79,0.479l0.779-4.538l1.266,0.217L89.175,358.898z"/>
		<path fill="#818181" d="M91.645,346.631l-4.319,1.025l-0.408,1.739l3.865,0.908l-0.326,1.393l-9.176-2.156l0.835-3.557
			c0.397-1.688,1.752-2.594,3.351-2.218c0.798,0.188,1.376,0.622,1.723,1.289c0.168,0.324,0.236,0.558,0.283,1.112l4.556-1.16
			L91.645,346.631z M83.341,346.38l-0.482,2.062l2.872,0.676l0.484-2.062c0.225-0.954-0.187-1.689-1.063-1.896
			C84.263,344.951,83.565,345.427,83.341,346.38z"/>
		<path fill="#818181" d="M89.531,339.824l3.718,1.105l-0.408,1.369l-3.717-1.105l-6.118,1.12l0.445-1.496l4.536-0.722l-3.411-3.059
			l0.441-1.484L89.531,339.824z"/>
		<path fill="#818181" d="M95.063,335.354l-8.813-3.347l0.508-1.337l7.612,2.891l1.612-4.245l1.2,0.456L95.063,335.354z"/>
		<path fill="#818181" d="M99.005,323.409c0.339,0.863,0.305,1.776-0.102,2.682c-0.402,0.895-1.064,1.525-1.934,1.847
			c-1.236,0.459-2.438-0.097-3.768-0.693l-0.459-0.206c-1.412-0.635-2.28-1.155-2.68-2.205c-0.325-0.858-0.299-1.79,0.098-2.671
			c0.4-0.895,1.08-1.532,1.938-1.858c0.976-0.36,2.006-0.1,3.225,0.448l0.604,0.271C97.399,321.686,98.515,322.173,99.005,323.409z
			 M92.438,321.646c-0.502,0.181-0.883,0.547-1.106,1.042c-0.218,0.482-0.243,1.022-0.044,1.519
			c0.303,0.746,1.202,1.135,2.385,1.667c1.1,0.494,2.146,1.037,2.952,0.731c0.508-0.192,0.884-0.545,1.106-1.04
			c0.228-0.508,0.248-1.036,0.045-1.52c-0.304-0.745-1.064-1.088-2.525-1.745C93.946,321.715,93.163,321.392,92.438,321.646z"/>
		<path fill="#818181" d="M104.624,314.677l-0.596,1.093l-6.715-1.493l4.887,4.841l-0.598,1.093l-9.457-2.357l0.724-1.325
			l6.716,1.796l-5.021-4.899l0.546-1l6.842,1.563l-5.141-4.679l0.724-1.324L104.624,314.677z"/>
	</g>
	<path fill="#262262" d="M261.155,342.878c4.914,6.758,8.415,14.563,10.118,22.955c1.308,6.441,6.413,11.762,12.986,11.762
		c15.755,0,31.511,0,47.265,0c0.01-8.024-0.795-15.896-2.344-23.525c-3.404-16.785-10.404-32.401-20.23-45.915
		C293.019,319.729,277.087,331.304,261.155,342.878z"/>
	<path fill="#9ADBF9" d="M165.594,342.878c-4.914,6.758-8.415,14.563-10.118,22.955c-1.309,6.441-6.414,11.762-12.986,11.762
		c-15.754,0-31.51,0-47.265,0c-0.01-8.024,0.796-15.896,2.344-23.525c3.404-16.785,10.404-32.401,20.231-45.915
		C133.731,319.729,149.661,331.304,165.594,342.878z"/>
	<path fill="#2B3990" d="M231.628,321.415c12.078,3.912,22.322,11.554,29.527,21.463c15.932-11.574,31.863-23.148,47.795-34.724
		c-14.412-19.821-34.903-35.114-59.063-42.938C243.801,283.948,237.714,302.683,231.628,321.415z"/>
	<path fill="#1C75BC" d="M195.119,321.413c11.647-3.78,24.429-3.947,36.512-0.009c6.086-18.73,12.173-37.461,18.259-56.192
		c-24.166-7.88-49.731-7.542-73.024,0.02C182.951,283.959,189.035,302.686,195.119,321.413z"/>
	<path fill="#27AAE1" d="M165.596,342.88c7.216-9.922,17.47-17.559,29.525-21.465c-6.086-18.729-12.17-37.456-18.261-56.2
		c-24.113,7.813-44.629,23.092-59.063,42.938C133.729,319.729,149.663,331.304,165.596,342.88z"/>
	<path fill="#FFFFFF" d="M166.386,342.001l-47.797-34.726c-0.234,0.315-1.166,1.585-1.396,1.906l47.808,34.734L166.386,342.001z"/>
	<path fill="#FFFFFF" d="M196.251,321.07l-18.261-56.201c-0.376,0.118-0.754,0.232-1.128,0.354
		c-0.375,0.123-0.742,0.262-1.115,0.387l18.257,56.192L196.251,321.07z"/>
	<path fill="#FFFFFF" d="M232.747,321.797l18.258-56.193c-0.374-0.127-0.741-0.266-1.117-0.388c0-0.001,0-0.003,0.002-0.004
		c-0.375-0.122-0.751-0.236-1.127-0.354l-18.264,56.209L232.747,321.797z"/>
	<path fill="#FFFFFF" d="M261.188,344.779l68.945-49.83c-0.33-0.461-0.65-0.927-0.985-1.386c-0.333-0.457-0.688-0.896-1.027-1.351
		l-68.927,49.818L261.188,344.779z"/>
	<path fill="#FFFFFF" d="M233.604,322.595l25.354-81.201c-0.54-0.171-1.075-0.353-1.619-0.519c-0.54-0.167-1.089-0.306-1.632-0.466
		L230.36,321.59L233.604,322.595z"/>
	<path fill="#FFFFFF" d="M197.644,322.001l-26.751-80.752c-0.538,0.176-1.079,0.341-1.618,0.522
		c-0.535,0.18-1.063,0.387-1.596,0.573l26.744,80.731L197.644,322.001z"/>
	<path fill="#FFFFFF" d="M167.084,341.763L98.22,291.818c-0.334,0.457-0.677,0.906-1.008,1.368c-0.33,0.459-0.637,0.935-0.962,1.397
		l68.846,49.931L167.084,341.763z"/>
	<g>
		<g>
			<path fill="#FFFFFF" d="M186.137,325.161c-11.365-10.851-20.538-19.535-20.538-19.535c-1.001-0.947-2.473-1.031-3.574-0.205
				c-1.107,0.829-1.439,2.263-0.806,3.493c0,0,5.616,10.963,12.71,24.674C177.675,330.23,181.782,327.416,186.137,325.161z"/>
			<path fill="#F6F6F5" d="M185.991,325.238c-11.081-10.576-20.096-19.11-20.502-19.495c-0.947-0.896-2.333-0.969-3.366-0.193
				c-1.039,0.777-1.359,2.126-0.759,3.291c0.252,0.492,5.773,11.271,12.688,24.641C177.72,330.206,181.736,327.453,185.991,325.238z
				"/>
			<path fill="#F0EFEE" d="M185.845,325.316c-10.796-10.302-19.654-18.686-20.467-19.456c-0.894-0.845-2.193-0.906-3.159-0.182
				c-0.971,0.727-1.278,1.99-0.712,3.088c0.504,0.984,5.931,11.581,12.667,24.607C177.765,330.181,181.69,327.491,185.845,325.316z"
				/>
			<path fill="#EAE9E9" d="M185.699,325.394c-10.512-10.026-19.213-18.26-20.432-19.416c-0.841-0.795-2.054-0.844-2.953-0.17
				c-0.902,0.676-1.197,1.854-0.666,2.886c0.757,1.476,6.089,11.89,12.646,24.575C177.81,330.157,181.644,327.528,185.699,325.394z"
				/>
			<path fill="#E5E3E3" d="M185.553,325.472c-10.227-9.752-18.771-17.836-20.396-19.377c-0.787-0.744-1.914-0.782-2.746-0.158
				c-0.835,0.625-1.117,1.716-0.619,2.683c1.009,1.967,6.246,12.199,12.623,24.542C177.854,330.133,181.599,327.566,185.553,325.472
				z"/>
			<path fill="#DFDEDD" d="M185.408,325.55c-9.944-9.478-18.329-17.411-20.361-19.337c-0.733-0.694-1.774-0.719-2.539-0.146
				c-0.767,0.574-1.035,1.58-0.572,2.48c1.261,2.459,6.405,12.507,12.602,24.509C177.9,330.109,181.553,327.604,185.408,325.55z"/>
			<path fill="#D9D8D8" d="M185.262,325.627c-9.659-9.202-17.887-16.986-20.326-19.298c-0.68-0.643-1.635-0.656-2.332-0.134
				c-0.699,0.522-0.955,1.443-0.525,2.277c1.514,2.951,6.563,12.816,12.58,24.476C177.945,330.085,181.507,327.642,185.262,325.627z
				"/>
			<path fill="#D4D3D3" d="M185.116,325.705c-9.375-8.928-17.446-16.562-20.291-19.259c-0.626-0.592-1.496-0.594-2.125-0.122
				c-0.631,0.472-0.875,1.307-0.479,2.075c1.767,3.443,6.721,13.125,12.559,24.442C177.99,330.06,181.461,327.68,185.116,325.705z"
				/>
			<path fill="#CFCECE" d="M184.97,325.783c-9.09-8.654-17.004-16.138-20.255-19.22c-0.573-0.541-1.356-0.532-1.918-0.11
				c-0.563,0.421-0.793,1.17-0.432,1.873c2.019,3.935,6.878,13.435,12.536,24.41C178.035,330.036,181.416,327.717,184.97,325.783z"
				/>
			<path fill="#CAC9C9" d="M184.824,325.861c-8.807-8.379-16.562-15.712-20.219-19.18c-0.52-0.491-1.217-0.47-1.711-0.099
				c-0.495,0.371-0.712,1.033-0.385,1.67c2.271,4.427,7.036,13.743,12.515,24.377C178.08,330.012,181.37,327.755,184.824,325.861z"
				/>
			<path fill="#C5C4C4" d="M184.679,325.938c-8.522-8.104-16.121-15.288-20.185-19.141c-0.466-0.44-1.077-0.407-1.503-0.087
				c-0.427,0.319-0.632,0.897-0.339,1.468c2.523,4.919,7.193,14.052,12.493,24.344C178.125,329.987,181.324,327.792,184.679,325.938
				z"/>
			<path fill="#C0BFBF" d="M184.533,326.016c-8.238-7.83-15.679-14.863-20.149-19.101c-0.412-0.389-0.938-0.345-1.297-0.075
				c-0.359,0.269-0.551,0.76-0.292,1.265c2.775,5.411,7.352,14.361,12.471,24.311C178.17,329.963,181.278,327.831,184.533,326.016z"
				/>
		</g>
		<g>
			<path fill="#FFFFFF" d="M223.435,389.223c6.774-5.078,8.155-14.724,3.076-21.502c-2.279-3.046-24.869-24.784-42.367-41.486
				c-3.646,2.066-7.077,4.542-10.24,7.376c11.131,21.507,25.733,49.458,28.025,52.526
				C207.008,392.914,216.656,394.297,223.435,389.223z"/>
			<path fill="#F8F8F8" d="M223.402,389.18c6.752-5.062,8.128-14.671,3.066-21.427c-2.326-3.109-24.825-24.753-42.368-41.492
				c-3.614,2.052-7.018,4.507-10.158,7.315c11.153,21.561,25.689,49.395,28.029,52.528
				C207.034,392.858,216.646,394.237,223.402,389.18z"/>
			<path fill="#F3F3F2" d="M223.37,389.137c6.73-5.044,8.101-14.619,3.056-21.352c-2.375-3.172-24.782-24.722-42.369-41.498
				c-3.583,2.04-6.959,4.473-10.076,7.256c11.175,21.614,25.646,49.33,28.035,52.529C207.06,392.804,216.636,394.177,223.37,389.137
				z"/>
			<path fill="#EFEEEE" d="M223.337,389.094c6.708-5.028,8.073-14.567,3.045-21.277c-2.422-3.236-24.737-24.692-42.37-41.503
				c-3.552,2.025-6.901,4.438-9.994,7.195c11.197,21.668,25.602,49.268,28.039,52.532
				C207.085,392.748,216.627,394.117,223.337,389.094z"/>
			<path fill="#EBEAEA" d="M223.305,389.051c6.685-5.011,8.046-14.514,3.035-21.201c-2.47-3.3-24.694-24.662-42.372-41.51
				c-3.522,2.012-6.843,4.403-9.913,7.135c11.219,21.722,25.559,49.205,28.045,52.533
				C207.111,392.693,216.617,394.058,223.305,389.051z"/>
			<path fill="#E7E6E6" d="M223.272,389.008c6.662-4.994,8.019-14.462,3.024-21.126c-2.517-3.362-24.65-24.631-42.372-41.516
				c-3.491,1.998-6.785,4.368-9.831,7.074c11.241,21.775,25.514,49.142,28.049,52.536
				C207.137,392.639,216.608,393.998,223.272,389.008z"/>
			<path fill="#E3E2E2" d="M223.24,388.965c6.64-4.977,7.991-14.41,3.014-21.051c-2.565-3.426-24.606-24.601-42.374-41.521
				c-3.459,1.984-6.726,4.333-9.749,7.014c11.263,21.829,25.471,49.078,28.055,52.537
				C207.163,392.583,216.598,393.938,223.24,388.965z"/>
			<path fill="#DFDEDE" d="M223.207,388.921c6.618-4.959,7.964-14.356,3.004-20.976c-2.612-3.489-24.563-24.569-42.375-41.527
				c-3.429,1.97-6.667,4.298-9.666,6.954c11.285,21.883,25.427,49.016,28.059,52.539
				C207.188,392.528,216.589,393.878,223.207,388.921z"/>
			<path fill="#DBDBDA" d="M223.175,388.879c6.595-4.943,7.936-14.305,2.993-20.901c-2.661-3.552-24.519-24.539-42.376-41.533
				c-3.397,1.957-6.61,4.264-9.584,6.894c11.307,21.937,25.383,48.952,28.064,52.541
				C207.214,392.473,216.579,393.818,223.175,388.879z"/>
			<path fill="#D7D7D7" d="M223.143,388.835c6.572-4.925,7.909-14.252,2.983-20.825c-2.708-3.617-24.476-24.51-42.376-41.54
				c-3.367,1.943-6.552,4.229-9.503,6.833c11.329,21.991,25.34,48.889,28.069,52.543
				C207.239,392.418,216.57,393.758,223.143,388.835z"/>
			<path fill="#D3D3D3" d="M223.11,388.792c6.55-4.908,7.881-14.2,2.973-20.75c-2.756-3.679-24.432-24.479-42.378-41.545
				c-3.335,1.929-6.493,4.194-9.42,6.773c11.352,22.044,25.296,48.825,28.074,52.544C207.266,392.362,216.56,393.698,223.11,388.792
				z"/>
			<path fill="#CFD0D0" d="M223.078,388.749c6.528-4.892,7.854-14.147,2.962-20.675c-2.804-3.743-24.388-24.448-42.379-41.551
				c-3.305,1.916-6.434,4.16-9.338,6.713c11.373,22.098,25.252,48.762,28.079,52.546
				C207.291,392.308,216.55,393.639,223.078,388.749z"/>
		</g>
		<g>
			
				<linearGradient id="SVGID_1_" gradientUnits="userSpaceOnUse" x1="132.084" y1="1624.8711" x2="162.6547" y2="1624.8711" gradientTransform="matrix(0.8003 -0.5996 0.5996 0.8003 -901.1221 -864.1177)">
				<stop  offset="0" style="stop-color:#717171"/>
				<stop  offset="0.49" style="stop-color:#414141"/>
				<stop  offset="0.51" style="stop-color:#121212"/>
				<stop  offset="1" style="stop-color:#010101"/>
			</linearGradient>
			<path fill="url(#SVGID_1_)" d="M161.283,306.471c-0.823-0.777-2.104,0.182-1.588,1.189c8.98,17.504,37.679,73.245,41.817,78.782
				c0.002,0.003,0.004,0.007,0.007,0.008c4.889,6.528,14.146,7.853,20.672,2.962c6.527-4.89,7.854-14.144,2.961-20.673
				C221.037,363.243,175.566,320.013,161.283,306.471z"/>
			
				<linearGradient id="SVGID_2_" gradientUnits="userSpaceOnUse" x1="139.9883" y1="1661.9707" x2="154.7559" y2="1661.9707" gradientTransform="matrix(0.8003 -0.5996 0.5996 0.8003 -901.1221 -864.1177)">
				<stop  offset="0" style="stop-color:#010101"/>
				<stop  offset="1" style="stop-color:#717171"/>
			</linearGradient>
			<path fill="url(#SVGID_2_)" d="M219.246,373.166c2.444,3.265,1.782,7.891-1.483,10.336c-3.263,2.445-7.89,1.782-10.334-1.48
				c-2.447-3.264-1.784-7.891,1.48-10.336S216.8,369.902,219.246,373.166z"/>
		</g>
	</g>
</g>
</svg>
