<?xml version="1.0" encoding="utf-8"?>
<!-- Generator: Adobe Illustrator 16.0.0, SVG Export Plug-In . SVG Version: 6.00 Build 0)  -->
<!DOCTYPE svg PUBLIC "-//W3C//DTD SVG 1.1//EN" "http://www.w3.org/Graphics/SVG/1.1/DTD/svg11.dtd">
<svg version="1.1" id="Layer_1" xmlns="http://www.w3.org/2000/svg" xmlns:xlink="http://www.w3.org/1999/xlink" x="0px" y="0px"
	 width="800px" height="1034px" viewBox="0 0 800 1034" enable-background="new 0 0 800 1034" xml:space="preserve">
<g>
	<path fill="#E4E4E4" d="M354.663,927.786c-6-72.774-66.967-129.966-141.289-129.966c-74.323,0-135.29,57.191-141.29,129.966
		c-0.535,6.486,4.822,11.809,11.33,11.809h11.815c6.525,0,11.741-5.222,12.451-11.709c5.829-53.215,50.926-94.622,105.693-94.622
		s99.865,41.407,105.694,94.622c0.711,6.487,5.927,11.709,12.452,11.709h11.813C349.842,939.595,355.198,934.272,354.663,927.786z"
		/>
</g>
<path fill="#FFFFFF" d="M300.091,878.052l28.68-20.836c-0.458-0.642-0.926-1.274-1.395-1.907l-28.675,20.833
	C299.171,876.773,299.635,877.411,300.091,878.052z"/>
<g>
	<path fill="#818181" d="M189.523,816.308l-1.337-6.157l-1.147,4.948l-1.034,0.226l-3.134-4.02l1.337,6.156l-1.396,0.303l-2-9.208
		l1.384-0.301l3.934,5.146l1.408-6.305l1.397-0.304l1.999,9.21L189.523,816.308z"/>
	<path fill="#818181" d="M198.216,814.002c-0.551,0.746-1.34,1.206-2.323,1.344c-0.969,0.139-1.856-0.084-2.591-0.648
		c-1.049-0.8-1.223-2.112-1.426-3.554l-0.07-0.499c-0.218-1.532-0.24-2.545,0.436-3.441c0.55-0.734,1.353-1.209,2.311-1.344
		c0.969-0.137,1.87,0.096,2.603,0.646c0.825,0.633,1.154,1.642,1.342,2.965l0.093,0.655
		C198.815,811.725,198.999,812.929,198.216,814.002z M196.2,807.51c-0.42-0.328-0.933-0.455-1.471-0.38
		c-0.523,0.074-0.994,0.343-1.307,0.774c-0.469,0.654-0.319,1.621-0.137,2.906c0.17,1.191,0.269,2.367,0.955,2.885
		c0.436,0.326,0.936,0.456,1.473,0.381c0.55-0.078,1.008-0.344,1.307-0.773c0.469-0.655,0.352-1.48,0.127-3.066
		C196.948,808.82,196.803,807.986,196.2,807.51z"/>
	<path fill="#818181" d="M207.149,811.622c-0.049,0.575-0.317,1.245-0.695,1.686c-0.547,0.639-1.356,0.991-2.372,1.069l-3.299,0.252
		l-0.716-9.393l3.297-0.252c1.623-0.124,2.99,0.581,3.432,2.193c0.111,0.402,0.199,0.848,0.238,1.361l0.06,0.805
		C207.169,810.32,207.188,811.088,207.149,811.622z M205.634,809.164c-0.111-1.452-0.281-1.97-0.686-2.377
		c-0.388-0.395-0.959-0.563-1.658-0.51l-1.701,0.129l0.521,6.834l1.701-0.129c0.7-0.053,1.237-0.307,1.562-0.757
		c0.337-0.463,0.422-1.093,0.304-2.624L205.634,809.164z"/>
	<path fill="#818181" d="M208.995,814.076l-0.125-9.424l6.035-0.079l0.017,1.282l-4.606,0.063l0.038,2.752l3.917-0.052l0.016,1.271
		l-3.916,0.053l0.037,2.832l4.605-0.062l0.018,1.283L208.995,814.076z"/>
	<path fill="#818181" d="M221.509,814.268l-1.795-4.06l-1.783-0.085l-0.189,3.965l-1.428-0.068l0.448-9.41l3.648,0.173
		c1.731,0.083,2.868,1.249,2.79,2.89c-0.039,0.818-0.361,1.466-0.953,1.928c-0.289,0.225-0.506,0.334-1.043,0.48l1.97,4.267
		L221.509,814.268z M220.243,806.06l-2.115-0.101l-0.14,2.947l2.114,0.102c0.979,0.046,1.627-0.492,1.67-1.392
		C221.815,806.704,221.221,806.107,220.243,806.06z"/>
	<path fill="#818181" d="M230.397,815.158l-0.438-1.956l-3.694-0.432l-0.877,1.804l-1.499-0.176l4.523-8.959l1.145,0.133l2.324,9.76
		L230.397,815.158z M228.771,807.627l-1.957,3.982l2.906,0.339L228.771,807.627z"/>
	<path fill="#818181" d="M236.434,807.888l-1.369,8.026l-1.409-0.24l1.369-8.027l-2.559-0.436l0.216-1.266l6.525,1.112l-0.216,1.266
		L236.434,807.888z"/>
	<path fill="#818181" d="M238.673,816.574l2.109-9.185l5.881,1.35l-0.287,1.252l-4.488-1.03l-0.617,2.684l3.818,0.876l-0.284,1.238
		l-3.817-0.878l-0.634,2.762l4.488,1.031l-0.287,1.25L238.673,816.574z"/>
</g>
<g>
	<path fill="#818181" d="M130.133,845.582l-6.109-7.176l1.089-0.926l5.277,6.198l3.457-2.944l0.832,0.979L130.133,845.582z"/>
	<path fill="#818181" d="M139.345,837.008c-0.119,0.919-0.588,1.703-1.381,2.301c-0.782,0.59-1.666,0.825-2.582,0.687
		c-1.305-0.192-2.09-1.257-2.967-2.419l-0.303-0.402c-0.932-1.235-1.441-2.11-1.286-3.223c0.128-0.908,0.599-1.711,1.371-2.292
		c0.781-0.591,1.684-0.822,2.592-0.694c1.027,0.152,1.805,0.877,2.608,1.943l0.398,0.529
		C138.769,834.726,139.511,835.69,139.345,837.008z M134.44,832.305c-0.527-0.084-1.037,0.053-1.471,0.379
		c-0.422,0.319-0.705,0.78-0.77,1.31c-0.094,0.799,0.507,1.574,1.287,2.608c0.725,0.962,1.381,1.941,2.234,2.063
		c0.537,0.074,1.037-0.053,1.47-0.38c0.444-0.335,0.716-0.788,0.771-1.31c0.092-0.8-0.41-1.465-1.373-2.744
		C135.728,833.09,135.198,832.43,134.44,832.305z"/>
	<path fill="#818181" d="M148.465,832.07l-1.05,0.67l-5.162-4.542l1.948,6.596l-1.048,0.67l-7.151-6.62l1.272-0.813l5.019,4.807
		l-2.039-6.711l0.96-0.612l5.242,4.665l-2.251-6.576l1.272-0.813L148.465,832.07z"/>
</g>
<g>
	<path fill="#818181" d="M280.745,833.644l2.154-3.511l-3.25-1.994l-2.155,3.511l-1.219-0.749l4.933-8.037l1.219,0.75l-2.113,3.442
		l3.251,1.995l2.112-3.443l1.23,0.756l-4.932,8.036L280.745,833.644z"/>
	<path fill="#818181" d="M283.346,835.354l5.29-7.799l1.184,0.803l-5.29,7.799L283.346,835.354z"/>
	<path fill="#818181" d="M291.083,839.672c-0.951,0.167-1.902-0.063-2.709-0.664c-0.775-0.576-1.26-1.365-1.385-2.284
		c-0.082-0.622,0.027-1.233,0.304-1.737c0.229-0.44,0.632-1.048,1.224-1.844l0.23-0.309c1.035-1.391,1.682-2.016,2.764-2.183
		c0.934-0.147,1.801,0.085,2.617,0.694c0.479,0.355,0.809,0.733,1.037,1.135c0.244,0.447,0.35,0.838,0.482,1.547l-1.363,0.19
		c-0.081-0.557-0.156-0.876-0.358-1.225c-0.126-0.209-0.319-0.436-0.575-0.626c-0.732-0.545-1.646-0.581-2.339,0.041
		c-0.394,0.351-0.823,0.904-1.337,1.595l-0.182,0.245c-0.965,1.296-1.211,1.804-1.138,2.437c0.065,0.511,0.339,0.963,0.785,1.295
		c0.499,0.371,1.085,0.493,1.624,0.367c0.473-0.127,0.867-0.411,1.246-0.921l0.309-0.414l-1.582-1.178l0.727-0.977l2.729,2.031
		l-0.854,1.147C292.581,839.056,291.946,839.507,291.083,839.672z"/>
	<path fill="#818181" d="M296.247,845.26l2.669-3.134l-2.902-2.47l-2.669,3.132l-1.087-0.926l6.108-7.174l1.088,0.927l-2.617,3.074
		l2.902,2.47l2.617-3.072l1.098,0.935l-6.108,7.174L296.247,845.26z"/>
</g>
<g>
	<path fill="#818181" d="M322.339,877.321l-0.557-0.962l6.599-7.41l0.75,1.295l-4.848,5.311l7.014-1.564l0.755,1.306
		L322.339,877.321z"/>
	<path fill="#818181" d="M324.323,880.86l8.419-4.232l2.712,5.391l-1.147,0.577l-2.069-4.115l-2.459,1.237l1.76,3.499l-1.135,0.571
		l-1.76-3.5l-2.531,1.272l2.07,4.114l-1.146,0.578L324.323,880.86z"/>
	<path fill="#818181" d="M329.618,892.198l2.871-3.391l-0.705-1.644l-3.652,1.565l-0.563-1.315l8.666-3.714l1.44,3.359
		c0.685,1.595,0.132,3.129-1.379,3.775c-0.755,0.323-1.478,0.316-2.153-0.014c-0.328-0.162-0.521-0.31-0.888-0.729l-2.98,3.64
		L329.618,892.198z M336.453,887.468l-0.835-1.947l-2.713,1.163l0.834,1.948c0.386,0.9,1.154,1.248,1.982,0.894
		C336.562,889.166,336.84,888.369,336.453,887.468z"/>
	<path fill="#818181" d="M335.358,896.416l-3.648,1.316l-0.484-1.345l3.647-1.316l4.259-4.534l0.531,1.47l-3.223,3.273l4.561,0.436
		l0.526,1.457L335.358,896.416z"/>
	<path fill="#818181" d="M334.972,908.385l3.971-1.084l-1.004-3.676l-3.971,1.084l-0.377-1.379l9.089-2.482l0.377,1.379
		l-3.894,1.063l1.004,3.678l3.894-1.063l0.38,1.391l-9.089,2.483L334.972,908.385z"/>
	<path fill="#818181" d="M335.699,911.436l9.201-2.056l0.312,1.396l-9.201,2.056L335.699,911.436z"/>
	<path fill="#818181" d="M338.378,919.878c-0.807-0.529-1.342-1.348-1.518-2.338c-0.17-0.951,0.018-1.858,0.556-2.613
		c0.366-0.508,0.866-0.879,1.413-1.058c0.467-0.163,1.177-0.329,2.154-0.504l0.377-0.067c1.708-0.304,2.606-0.314,3.51,0.304
		c0.78,0.534,1.252,1.296,1.431,2.3c0.104,0.586,0.085,1.087-0.022,1.536c-0.127,0.493-0.319,0.85-0.709,1.457l-1.123-0.795
		c0.322-0.46,0.486-0.745,0.577-1.138c0.052-0.237,0.067-0.535,0.011-0.849c-0.16-0.899-0.799-1.552-1.731-1.574
		c-0.526-0.015-1.22,0.097-2.067,0.246l-0.299,0.054c-1.59,0.282-2.119,0.485-2.498,0.995c-0.303,0.417-0.412,0.935-0.314,1.481
		c0.108,0.612,0.451,1.103,0.931,1.381c0.432,0.232,0.913,0.294,1.538,0.184l0.509-0.091l-0.345-1.942l1.197-0.214l0.596,3.351
		l-1.406,0.249C339.892,920.456,339.12,920.351,338.378,919.878z"/>
	<path fill="#818181" d="M338.316,927.491l4.091-0.456l-0.421-3.789l-4.091,0.456l-0.158-1.421l9.365-1.043l0.158,1.421
		l-4.012,0.447l0.422,3.788l4.012-0.447l0.16,1.435l-9.365,1.043L338.316,927.491z"/>
</g>
<g>
	<path fill="#818181" d="M88.673,924.899l-0.123,1.105l-9.717,2.045L79,926.563l7.059-1.396l-6.578-2.908l0.168-1.5L88.673,924.899z
		"/>
	<path fill="#818181" d="M89.175,920.898l-9.285-1.595l1.021-5.946l1.265,0.217l-0.779,4.539l2.714,0.466l0.662-3.86l1.252,0.215
		l-0.662,3.86l2.79,0.479l0.779-4.538l1.266,0.217L89.175,920.898z"/>
	<path fill="#818181" d="M91.645,908.631l-4.319,1.025l-0.408,1.739l3.865,0.908l-0.326,1.393l-9.176-2.156l0.835-3.557
		c0.397-1.688,1.752-2.594,3.351-2.218c0.798,0.188,1.376,0.622,1.723,1.289c0.168,0.324,0.236,0.558,0.283,1.112l4.556-1.16
		L91.645,908.631z M83.341,908.38l-0.482,2.062l2.872,0.676l0.484-2.062c0.225-0.954-0.187-1.689-1.063-1.896
		C84.263,906.951,83.565,907.427,83.341,908.38z"/>
	<path fill="#818181" d="M89.531,901.824l3.718,1.105l-0.408,1.369l-3.717-1.105l-6.118,1.12l0.445-1.496l4.536-0.722l-3.411-3.059
		l0.441-1.484L89.531,901.824z"/>
	<path fill="#818181" d="M95.063,897.354l-8.813-3.347l0.508-1.337l7.612,2.891l1.612-4.245l1.2,0.456L95.063,897.354z"/>
	<path fill="#818181" d="M99.005,885.409c0.339,0.863,0.305,1.776-0.102,2.682c-0.402,0.895-1.064,1.525-1.934,1.847
		c-1.236,0.459-2.438-0.097-3.768-0.693l-0.459-0.206c-1.412-0.635-2.28-1.155-2.68-2.205c-0.325-0.858-0.299-1.79,0.098-2.671
		c0.4-0.895,1.08-1.532,1.938-1.858c0.976-0.36,2.006-0.1,3.225,0.448l0.604,0.271C97.399,883.686,98.515,884.173,99.005,885.409z
		 M92.438,883.646c-0.502,0.181-0.883,0.547-1.106,1.042c-0.218,0.482-0.243,1.022-0.044,1.519c0.303,0.746,1.202,1.135,2.385,1.667
		c1.1,0.494,2.146,1.037,2.952,0.731c0.508-0.192,0.884-0.545,1.106-1.04c0.228-0.508,0.248-1.036,0.045-1.52
		c-0.304-0.745-1.064-1.088-2.525-1.745C93.946,883.715,93.163,883.392,92.438,883.646z"/>
	<path fill="#818181" d="M104.624,876.677l-0.596,1.093l-6.715-1.493l4.887,4.841l-0.598,1.093l-9.457-2.357l0.724-1.325
		l6.716,1.796l-5.021-4.899l0.546-1l6.842,1.563l-5.141-4.679l0.724-1.324L104.624,876.677z"/>
</g>
<path fill="#262262" d="M261.155,904.878c4.914,6.758,8.415,14.563,10.118,22.955c1.308,6.441,6.413,11.762,12.986,11.762
	c15.755,0,31.511,0,47.265,0c0.01-8.024-0.795-15.896-2.344-23.525c-3.404-16.785-10.404-32.401-20.23-45.915
	C293.019,881.729,277.087,893.304,261.155,904.878z"/>
<path fill="#9ADBF9" d="M165.594,904.878c-4.914,6.758-8.415,14.563-10.118,22.955c-1.309,6.441-6.414,11.762-12.986,11.762
	c-15.754,0-31.51,0-47.265,0c-0.01-8.024,0.796-15.896,2.344-23.525c3.404-16.785,10.404-32.401,20.231-45.915
	C133.731,881.729,149.661,893.304,165.594,904.878z"/>
<path fill="#2B3990" d="M231.628,883.415c12.078,3.912,22.322,11.554,29.527,21.463c15.932-11.574,31.863-23.148,47.795-34.724
	c-14.412-19.821-34.903-35.114-59.063-42.938C243.801,845.948,237.714,864.683,231.628,883.415z"/>
<path fill="#1C75BC" d="M195.119,883.413c11.647-3.78,24.429-3.947,36.512-0.009c6.086-18.73,12.173-37.461,18.259-56.192
	c-24.166-7.88-49.731-7.542-73.024,0.02C182.951,845.959,189.035,864.686,195.119,883.413z"/>
<path fill="#27AAE1" d="M165.596,904.88c7.216-9.922,17.47-17.559,29.525-21.465c-6.086-18.729-12.17-37.456-18.261-56.2
	c-24.113,7.813-44.629,23.092-59.063,42.938C133.729,881.729,149.663,893.304,165.596,904.88z"/>
<path fill="#FFFFFF" d="M166.386,904.001l-47.797-34.726c-0.234,0.315-1.166,1.585-1.396,1.906l47.808,34.734L166.386,904.001z"/>
<path fill="#FFFFFF" d="M196.251,883.07l-18.261-56.201c-0.376,0.118-0.754,0.232-1.128,0.354c-0.375,0.123-0.742,0.262-1.115,0.387
	l18.257,56.192L196.251,883.07z"/>
<path fill="#FFFFFF" d="M232.747,883.797l18.258-56.193c-0.374-0.127-0.741-0.266-1.117-0.388c0,0,0-0.003,0.002-0.004
	c-0.375-0.122-0.751-0.236-1.127-0.354l-18.264,56.209L232.747,883.797z"/>
<path fill="#FFFFFF" d="M261.188,906.779l68.945-49.83c-0.33-0.461-0.65-0.927-0.985-1.386c-0.333-0.457-0.688-0.896-1.027-1.351
	l-68.927,49.818L261.188,906.779z"/>
<path fill="#FFFFFF" d="M233.604,884.595l25.354-81.201c-0.54-0.171-1.075-0.353-1.619-0.519c-0.54-0.167-1.089-0.307-1.632-0.467
	L230.36,883.59L233.604,884.595z"/>
<path fill="#FFFFFF" d="M197.644,884.001l-26.751-80.753c-0.538,0.177-1.079,0.342-1.618,0.522
	c-0.535,0.181-1.063,0.388-1.596,0.573l26.744,80.731L197.644,884.001z"/>
<path fill="#FFFFFF" d="M167.084,903.763L98.22,853.818c-0.334,0.457-0.677,0.906-1.008,1.368c-0.33,0.459-0.637,0.935-0.962,1.397
	l68.846,49.931L167.084,903.763z"/>
<g>
	<g>
		<path fill="#FFFFFF" d="M271.656,933.47c14.265-6.589,25.709-11.935,25.709-11.935c1.248-0.584,1.866-1.922,1.502-3.25
			c-0.364-1.333-1.577-2.169-2.953-2.031c0,0-12.259,1.201-27.617,2.769C270.046,923.738,271.157,928.591,271.656,933.47z"/>
		<path fill="#F6F6F5" d="M271.637,933.306c13.905-6.426,25.152-11.68,25.66-11.917c1.181-0.553,1.756-1.814,1.415-3.062
			c-0.342-1.251-1.479-2.044-2.782-1.913c-0.55,0.055-12.604,1.234-27.578,2.76C270.052,923.789,271.139,928.534,271.637,933.306z"
			/>
		<path fill="#F0EFEE" d="M271.618,933.142c13.546-6.262,24.595-11.425,25.61-11.897c1.114-0.522,1.647-1.709,1.328-2.874
			c-0.319-1.169-1.382-1.918-2.61-1.796c-1.101,0.108-12.95,1.268-27.54,2.752C270.058,923.84,271.121,928.479,271.618,933.142z"/>
		<path fill="#EAE9E9" d="M271.6,932.977c13.185-6.098,24.038-11.17,25.56-11.879c1.048-0.49,1.538-1.601,1.241-2.686
			c-0.297-1.087-1.284-1.793-2.439-1.678c-1.65,0.162-13.295,1.301-27.501,2.744C270.064,923.891,271.102,928.422,271.6,932.977z"/>
		<path fill="#E5E3E3" d="M271.581,932.813c12.825-5.935,23.48-10.915,25.51-11.861c0.981-0.459,1.429-1.494,1.154-2.497
			c-0.275-1.006-1.187-1.668-2.268-1.561c-2.201,0.218-13.641,1.334-27.462,2.736C270.07,923.941,271.084,928.365,271.581,932.813z"
			/>
		<path fill="#DFDEDD" d="M271.563,932.649c12.465-5.771,22.923-10.66,25.461-11.843c0.914-0.428,1.319-1.387,1.066-2.309
			c-0.252-0.924-1.089-1.543-2.096-1.442c-2.75,0.271-13.986,1.367-27.423,2.728C270.076,923.992,271.066,928.309,271.563,932.649z"
			/>
		<path fill="#D9D8D8" d="M271.543,932.484c12.106-5.607,22.366-10.404,25.412-11.824c0.847-0.396,1.21-1.279,0.98-2.12
			c-0.23-0.842-0.992-1.417-1.925-1.324c-3.301,0.325-14.332,1.4-27.385,2.719C270.082,924.043,271.047,928.252,271.543,932.484z"/>
		<path fill="#D4D3D3" d="M271.524,932.32c11.746-5.443,21.809-10.149,25.362-11.806c0.781-0.366,1.101-1.173,0.893-1.932
			c-0.208-0.761-0.895-1.293-1.754-1.208c-3.851,0.381-14.677,1.435-27.346,2.712C270.088,924.094,271.029,928.196,271.524,932.32z"
			/>
		<path fill="#CFCECE" d="M271.506,932.156c11.386-5.279,21.252-9.895,25.312-11.787c0.714-0.335,0.992-1.066,0.806-1.744
			c-0.185-0.678-0.796-1.167-1.582-1.089c-4.401,0.434-15.022,1.467-27.308,2.702C270.094,924.145,271.011,928.14,271.506,932.156z"
			/>
		<path fill="#CAC9C9" d="M271.487,931.992c11.026-5.116,20.694-9.64,25.262-11.77c0.647-0.303,0.883-0.959,0.719-1.555
			c-0.163-0.597-0.699-1.042-1.412-0.972c-4.951,0.488-15.367,1.5-27.269,2.695C270.1,924.195,270.993,928.084,271.487,931.992z"/>
		<path fill="#C5C4C4" d="M271.468,931.828c10.667-4.953,20.137-9.385,25.212-11.751c0.581-0.272,0.773-0.852,0.632-1.367
			c-0.141-0.514-0.602-0.917-1.24-0.854c-5.501,0.542-15.713,1.534-27.23,2.687C270.106,924.246,270.975,928.027,271.468,931.828z"
			/>
		<path fill="#C0BFBF" d="M271.449,931.664c10.307-4.789,19.58-9.13,25.163-11.732c0.514-0.241,0.664-0.745,0.545-1.179
			c-0.118-0.433-0.504-0.792-1.068-0.736c-6.052,0.597-16.059,1.567-27.191,2.679C270.112,924.297,270.956,927.971,271.449,931.664z
			"/>
	</g>
	<g>
		<path fill="#FFFFFF" d="M198.376,944.653c2.236,8.165,10.702,12.99,18.872,10.753c3.67-1.002,32.182-14.037,54.141-24.184
			c-0.585-4.15-1.629-8.25-3.104-12.233c-24.091,2.461-55.45,5.786-59.146,6.791C200.971,928.019,196.144,936.485,198.376,944.653z"
			/>
		<path fill="#F8F8F8" d="M198.428,944.639c2.229,8.138,10.664,12.945,18.805,10.716c3.747-1.022,32.137-14.008,54.147-24.183
			c-0.583-4.116-1.618-8.183-3.078-12.135c-24.149,2.462-55.375,5.769-59.149,6.795
			C201.013,928.063,196.203,936.498,198.428,944.639z"/>
		<path fill="#F3F3F2" d="M198.48,944.624c2.221,8.111,10.625,12.901,18.739,10.679c3.822-1.044,32.093-13.979,54.152-24.181
			c-0.582-4.083-1.607-8.116-3.051-12.037c-24.207,2.462-55.301,5.751-59.153,6.799C201.054,928.107,196.262,936.512,198.48,944.624
			z"/>
		<path fill="#EFEEEE" d="M198.532,944.61c2.213,8.083,10.586,12.855,18.673,10.642c3.899-1.066,32.049-13.949,54.159-24.182
			c-0.581-4.048-1.596-8.049-3.026-11.938c-24.265,2.463-55.225,5.733-59.156,6.803C201.096,928.15,196.321,936.524,198.532,944.61z
			"/>
		<path fill="#EBEAEA" d="M198.584,944.596c2.207,8.057,10.548,12.812,18.607,10.604c3.976-1.087,32.004-13.92,54.164-24.18
			c-0.579-4.015-1.585-7.981-2.999-11.84c-24.323,2.464-55.151,5.716-59.16,6.807C201.138,928.195,196.381,936.537,198.584,944.596z
			"/>
		<path fill="#E7E6E6" d="M198.636,944.582c2.199,8.029,10.509,12.767,18.541,10.566c4.052-1.107,31.959-13.89,54.17-24.178
			c-0.578-3.98-1.574-7.915-2.974-11.742c-24.381,2.465-55.076,5.699-59.163,6.811C201.18,928.24,196.44,936.551,198.636,944.582z"
			/>
		<path fill="#E3E2E2" d="M198.688,944.567c2.191,8.003,10.471,12.722,18.475,10.529c4.128-1.128,31.915-13.86,54.176-24.177
			c-0.576-3.947-1.563-7.848-2.947-11.644c-24.439,2.466-55.001,5.681-59.167,6.815
			C201.222,928.283,196.499,936.563,198.688,944.567z"/>
		<path fill="#DFDEDE" d="M198.74,944.553c2.184,7.976,10.432,12.677,18.408,10.492c4.205-1.149,31.871-13.831,54.183-24.176
			c-0.575-3.913-1.552-7.78-2.922-11.545c-24.497,2.467-54.926,5.664-59.17,6.819C201.264,928.328,196.559,936.576,198.74,944.553z"
			/>
		<path fill="#DBDBDA" d="M198.792,944.538c2.176,7.949,10.394,12.632,18.342,10.456c4.282-1.172,31.827-13.803,54.188-24.176
			c-0.573-3.879-1.54-7.713-2.895-11.446c-24.555,2.468-54.851,5.646-59.174,6.823C201.305,928.372,196.617,936.59,198.792,944.538z
			"/>
		<path fill="#D7D7D7" d="M198.843,944.523c2.169,7.923,10.355,12.588,18.277,10.419c4.358-1.192,31.782-13.773,54.194-24.174
			c-0.572-3.846-1.53-7.646-2.869-11.349c-24.614,2.468-54.777,5.629-59.178,6.827C201.347,928.417,196.677,936.604,198.843,944.523
			z"/>
		<path fill="#D3D3D3" d="M198.896,944.51c2.162,7.895,10.317,12.543,18.21,10.381c4.434-1.213,31.738-13.743,54.2-24.173
			c-0.571-3.812-1.519-7.579-2.844-11.25c-24.671,2.469-54.702,5.611-59.181,6.831C201.389,928.461,196.736,936.615,198.896,944.51z
			"/>
		<path fill="#CFD0D0" d="M198.947,944.495c2.154,7.868,10.278,12.498,18.145,10.344c4.511-1.234,31.693-13.714,54.206-24.172
			c-0.569-3.777-1.508-7.512-2.817-11.151c-24.729,2.47-54.627,5.594-59.185,6.835C201.431,928.505,196.795,936.629,198.947,944.495
			z"/>
	</g>
	<g>
		
			<linearGradient id="SVGID_1_" gradientUnits="userSpaceOnUse" x1="1126.0391" y1="3594.0869" x2="1156.6104" y2="3594.0869" gradientTransform="matrix(0.2641 0.9645 -0.9645 0.2641 3413.7561 -1120.2778)">
			<stop  offset="0" style="stop-color:#717171"/>
			<stop  offset="0.49" style="stop-color:#414141"/>
			<stop  offset="0.51" style="stop-color:#121212"/>
			<stop  offset="1" style="stop-color:#010101"/>
		</linearGradient>
		<path fill="url(#SVGID_1_)" d="M298.163,917.21c1.025-0.48,0.604-2.024-0.522-1.914c-19.579,1.93-81.962,8.168-88.632,9.985
			c-0.003,0.001-0.007,0.001-0.009,0.004c-7.867,2.151-12.497,10.276-10.342,18.143c2.152,7.866,10.275,12.496,18.143,10.342
			C223.423,951.958,280.324,925.526,298.163,917.21z"/>
		
			<linearGradient id="SVGID_2_" gradientUnits="userSpaceOnUse" x1="1133.9443" y1="3631.1875" x2="1148.7119" y2="3631.1875" gradientTransform="matrix(0.2641 0.9645 -0.9645 0.2641 3413.7561 -1120.2778)">
			<stop  offset="0" style="stop-color:#010101"/>
			<stop  offset="1" style="stop-color:#717171"/>
		</linearGradient>
		<path fill="url(#SVGID_2_)" d="M214.85,946.65c-3.935,1.075-7.994-1.238-9.071-5.174c-1.077-3.933,1.239-7.993,5.171-9.069
			c3.934-1.079,7.995,1.236,9.071,5.17C221.098,941.511,218.783,945.572,214.85,946.65z"/>
	</g>
</g>
</svg>
