<?xml version="1.0" encoding="utf-8"?>
<!-- Generator: Adobe Illustrator 16.0.0, SVG Export Plug-In . SVG Version: 6.00 Build 0)  -->
<!DOCTYPE svg PUBLIC "-//W3C//DTD SVG 1.1//EN" "http://www.w3.org/Graphics/SVG/1.1/DTD/svg11.dtd">
<svg version="1.1" id="Layer_1" xmlns="http://www.w3.org/2000/svg" xmlns:xlink="http://www.w3.org/1999/xlink" x="0px" y="0px"
	 width="800px" height="1034px" viewBox="0 0 800 1034" enable-background="new 0 0 800 1034" xml:space="preserve">
<g>
	<path fill="#E4E4E4" d="M354.663,177.786c-6-72.774-66.967-129.966-141.289-129.966c-74.323,0-135.29,57.192-141.29,129.966
		c-0.535,6.486,4.822,11.809,11.33,11.809h11.815c6.525,0,11.741-5.222,12.451-11.709c5.829-53.215,50.926-94.622,105.693-94.622
		s99.865,41.407,105.694,94.622c0.711,6.487,5.927,11.709,12.452,11.709h11.813C349.842,189.595,355.198,184.272,354.663,177.786z"
		/>
</g>
<path fill="#FFFFFF" d="M300.091,128.052l28.68-20.836c-0.458-0.642-0.926-1.274-1.395-1.907l-28.675,20.833
	C299.171,126.773,299.635,127.411,300.091,128.052z"/>
<g>
	<path fill="#818181" d="M189.523,66.308l-1.337-6.157l-1.147,4.948l-1.034,0.226l-3.134-4.019l1.337,6.156l-1.396,0.303l-2-9.208
		l1.384-0.301l3.934,5.146l1.408-6.305l1.397-0.304l1.999,9.21L189.523,66.308z"/>
	<path fill="#818181" d="M198.216,64.002c-0.551,0.746-1.34,1.206-2.323,1.343c-0.969,0.139-1.856-0.084-2.591-0.648
		c-1.049-0.8-1.223-2.112-1.426-3.554l-0.07-0.499c-0.218-1.533-0.24-2.545,0.436-3.442c0.55-0.733,1.353-1.208,2.311-1.343
		c0.969-0.137,1.87,0.096,2.603,0.647c0.825,0.632,1.154,1.641,1.342,2.964l0.093,0.655
		C198.815,61.725,198.999,62.929,198.216,64.002z M196.2,57.51c-0.42-0.328-0.933-0.456-1.471-0.38
		c-0.523,0.074-0.994,0.342-1.307,0.774c-0.469,0.654-0.319,1.622-0.137,2.906c0.17,1.191,0.269,2.368,0.955,2.885
		c0.436,0.327,0.936,0.456,1.473,0.38c0.55-0.078,1.008-0.343,1.307-0.773c0.469-0.655,0.352-1.48,0.127-3.066
		C196.948,58.821,196.803,57.986,196.2,57.51z"/>
	<path fill="#818181" d="M207.149,61.622c-0.049,0.575-0.317,1.246-0.695,1.686c-0.547,0.639-1.356,0.992-2.372,1.07l-3.299,0.251
		l-0.716-9.393l3.297-0.251c1.623-0.124,2.99,0.581,3.432,2.193c0.111,0.403,0.199,0.848,0.238,1.362l0.06,0.804
		C207.169,60.32,207.188,61.088,207.149,61.622z M205.634,59.164c-0.111-1.452-0.281-1.969-0.686-2.376
		c-0.388-0.395-0.959-0.563-1.658-0.51l-1.701,0.129l0.521,6.834l1.701-0.129c0.7-0.053,1.237-0.307,1.562-0.756
		c0.337-0.463,0.422-1.093,0.304-2.624L205.634,59.164z"/>
	<path fill="#818181" d="M208.995,64.076l-0.125-9.423l6.035-0.08l0.017,1.283l-4.606,0.062l0.038,2.752l3.917-0.052l0.016,1.271
		l-3.916,0.052l0.037,2.833l4.605-0.062l0.018,1.283L208.995,64.076z"/>
	<path fill="#818181" d="M221.509,64.268l-1.795-4.06l-1.783-0.084l-0.189,3.964l-1.428-0.068l0.448-9.411l3.648,0.173
		c1.731,0.083,2.868,1.25,2.79,2.889c-0.039,0.819-0.361,1.466-0.953,1.928c-0.289,0.226-0.506,0.334-1.043,0.481l1.97,4.267
		L221.509,64.268z M220.243,56.06l-2.115-0.1l-0.14,2.947l2.114,0.101c0.979,0.046,1.627-0.492,1.67-1.391
		C221.815,56.704,221.221,56.107,220.243,56.06z"/>
	<path fill="#818181" d="M230.397,65.158l-0.438-1.956l-3.694-0.432l-0.877,1.803l-1.499-0.175l4.523-8.958l1.145,0.133l2.324,9.759
		L230.397,65.158z M228.771,57.626l-1.957,3.982l2.906,0.339L228.771,57.626z"/>
	<path fill="#818181" d="M236.434,57.888l-1.369,8.026l-1.409-0.24l1.369-8.027l-2.559-0.437l0.216-1.266l6.525,1.113l-0.216,1.266
		L236.434,57.888z"/>
	<path fill="#818181" d="M238.673,66.574l2.109-9.185l5.881,1.35l-0.287,1.252l-4.488-1.03l-0.617,2.683l3.818,0.876l-0.284,1.238
		l-3.817-0.877l-0.634,2.761l4.488,1.031l-0.287,1.25L238.673,66.574z"/>
</g>
<g>
	<path fill="#818181" d="M130.133,95.582l-6.109-7.176l1.089-0.926l5.277,6.198l3.457-2.944l0.832,0.979L130.133,95.582z"/>
	<path fill="#818181" d="M139.345,87.008c-0.119,0.919-0.588,1.703-1.381,2.301c-0.782,0.59-1.666,0.825-2.582,0.687
		c-1.305-0.192-2.09-1.257-2.967-2.419l-0.303-0.402c-0.932-1.235-1.441-2.11-1.286-3.223c0.128-0.908,0.599-1.711,1.371-2.292
		c0.781-0.591,1.684-0.822,2.592-0.694c1.027,0.152,1.805,0.877,2.608,1.943l0.398,0.529
		C138.769,84.726,139.511,85.69,139.345,87.008z M134.44,82.305c-0.527-0.084-1.037,0.053-1.471,0.379
		c-0.422,0.319-0.705,0.78-0.77,1.31c-0.094,0.799,0.507,1.574,1.287,2.608c0.725,0.962,1.381,1.941,2.234,2.063
		c0.537,0.074,1.037-0.053,1.47-0.38c0.444-0.335,0.716-0.788,0.771-1.31c0.092-0.8-0.41-1.465-1.373-2.744
		C135.728,83.09,135.198,82.43,134.44,82.305z"/>
	<path fill="#818181" d="M148.465,82.07l-1.05,0.67l-5.162-4.542l1.948,6.596l-1.048,0.67l-7.151-6.62l1.272-0.813l5.019,4.807
		l-2.039-6.711l0.96-0.612l5.242,4.665l-2.251-6.576l1.272-0.813L148.465,82.07z"/>
</g>
<g>
	<path fill="#818181" d="M280.745,83.644l2.154-3.511l-3.25-1.994l-2.155,3.511l-1.219-0.749l4.933-8.037l1.219,0.75l-2.113,3.442
		l3.251,1.995l2.112-3.443l1.23,0.756l-4.932,8.036L280.745,83.644z"/>
	<path fill="#818181" d="M283.346,85.354l5.29-7.799l1.184,0.803l-5.29,7.799L283.346,85.354z"/>
	<path fill="#818181" d="M291.083,89.672c-0.951,0.167-1.902-0.063-2.709-0.664c-0.775-0.576-1.26-1.365-1.385-2.284
		c-0.082-0.622,0.027-1.233,0.304-1.737c0.229-0.44,0.632-1.048,1.224-1.844l0.23-0.309c1.035-1.391,1.682-2.016,2.764-2.183
		c0.934-0.147,1.801,0.085,2.617,0.694c0.479,0.355,0.809,0.733,1.037,1.135c0.244,0.447,0.35,0.838,0.482,1.547l-1.363,0.19
		c-0.081-0.557-0.156-0.876-0.358-1.225c-0.126-0.209-0.319-0.436-0.575-0.626c-0.732-0.545-1.646-0.581-2.339,0.041
		c-0.394,0.351-0.823,0.904-1.337,1.595l-0.182,0.245c-0.965,1.296-1.211,1.804-1.138,2.437c0.065,0.511,0.339,0.963,0.785,1.295
		c0.499,0.371,1.085,0.493,1.624,0.367c0.473-0.127,0.867-0.411,1.246-0.921l0.309-0.414l-1.582-1.178l0.727-0.977l2.729,2.031
		l-0.854,1.147C292.581,89.056,291.946,89.507,291.083,89.672z"/>
	<path fill="#818181" d="M296.247,95.26l2.669-3.134l-2.902-2.47l-2.669,3.132l-1.087-0.926l6.108-7.174l1.088,0.927l-2.617,3.074
		l2.902,2.47l2.617-3.072l1.098,0.935l-6.108,7.174L296.247,95.26z"/>
</g>
<g>
	<path fill="#818181" d="M322.339,127.321l-0.557-0.962l6.599-7.41l0.75,1.295l-4.848,5.311l7.014-1.564l0.755,1.306
		L322.339,127.321z"/>
	<path fill="#818181" d="M324.323,130.86l8.419-4.232l2.712,5.391l-1.147,0.577l-2.069-4.115l-2.459,1.237l1.76,3.499l-1.135,0.571
		l-1.76-3.5l-2.531,1.272l2.07,4.114l-1.146,0.578L324.323,130.86z"/>
	<path fill="#818181" d="M329.618,142.198l2.871-3.391l-0.705-1.644l-3.652,1.565l-0.563-1.315l8.666-3.714l1.44,3.359
		c0.685,1.595,0.132,3.129-1.379,3.775c-0.755,0.323-1.478,0.316-2.153-0.014c-0.328-0.162-0.521-0.31-0.888-0.729l-2.98,3.64
		L329.618,142.198z M336.453,137.468l-0.835-1.947l-2.713,1.163l0.834,1.948c0.386,0.9,1.154,1.248,1.982,0.894
		C336.562,139.166,336.84,138.369,336.453,137.468z"/>
	<path fill="#818181" d="M335.358,146.416l-3.648,1.316l-0.484-1.345l3.647-1.316l4.259-4.534l0.531,1.47l-3.223,3.273l4.561,0.436
		l0.526,1.457L335.358,146.416z"/>
	<path fill="#818181" d="M334.972,158.385l3.971-1.084l-1.004-3.676l-3.971,1.084l-0.377-1.379l9.089-2.482l0.377,1.379
		l-3.894,1.063l1.004,3.678l3.894-1.063l0.38,1.391l-9.089,2.483L334.972,158.385z"/>
	<path fill="#818181" d="M335.699,161.436l9.201-2.056l0.312,1.396l-9.201,2.056L335.699,161.436z"/>
	<path fill="#818181" d="M338.378,169.878c-0.807-0.529-1.342-1.348-1.518-2.338c-0.17-0.951,0.018-1.858,0.556-2.613
		c0.366-0.508,0.866-0.879,1.413-1.058c0.467-0.163,1.177-0.329,2.154-0.504l0.377-0.067c1.708-0.304,2.606-0.314,3.51,0.304
		c0.78,0.534,1.252,1.296,1.431,2.3c0.104,0.586,0.085,1.087-0.022,1.536c-0.127,0.493-0.319,0.85-0.709,1.457l-1.123-0.795
		c0.322-0.46,0.486-0.745,0.577-1.138c0.052-0.237,0.067-0.535,0.011-0.849c-0.16-0.899-0.799-1.552-1.731-1.574
		c-0.526-0.015-1.22,0.097-2.067,0.246l-0.299,0.054c-1.59,0.282-2.119,0.485-2.498,0.995c-0.303,0.417-0.412,0.935-0.314,1.481
		c0.108,0.612,0.451,1.103,0.931,1.381c0.432,0.232,0.913,0.294,1.538,0.184l0.509-0.091l-0.345-1.942l1.197-0.214l0.596,3.351
		l-1.406,0.249C339.892,170.456,339.12,170.351,338.378,169.878z"/>
	<path fill="#818181" d="M338.316,177.491l4.091-0.456l-0.421-3.789l-4.091,0.456l-0.158-1.421l9.365-1.043l0.158,1.421
		l-4.012,0.447l0.422,3.788l4.012-0.447l0.16,1.435l-9.365,1.043L338.316,177.491z"/>
</g>
<g>
	<path fill="#818181" d="M88.673,174.899l-0.123,1.105l-9.717,2.045L79,176.563l7.059-1.396l-6.578-2.908l0.168-1.5L88.673,174.899z
		"/>
	<path fill="#818181" d="M89.175,170.898l-9.285-1.595l1.021-5.946l1.265,0.217l-0.779,4.539l2.714,0.466l0.662-3.86l1.252,0.215
		l-0.662,3.86l2.79,0.479l0.779-4.538l1.266,0.217L89.175,170.898z"/>
	<path fill="#818181" d="M91.645,158.631l-4.319,1.025l-0.408,1.739l3.865,0.908l-0.326,1.393l-9.176-2.156l0.835-3.557
		c0.397-1.688,1.752-2.594,3.351-2.218c0.798,0.188,1.376,0.622,1.723,1.289c0.168,0.324,0.236,0.558,0.283,1.112l4.556-1.16
		L91.645,158.631z M83.341,158.38l-0.482,2.062l2.872,0.676l0.484-2.062c0.225-0.954-0.187-1.689-1.063-1.896
		C84.263,156.951,83.565,157.427,83.341,158.38z"/>
	<path fill="#818181" d="M89.531,151.824l3.718,1.105l-0.408,1.369l-3.717-1.105l-6.118,1.12l0.445-1.496l4.536-0.722l-3.411-3.059
		l0.441-1.484L89.531,151.824z"/>
	<path fill="#818181" d="M95.063,147.354l-8.813-3.347l0.508-1.337l7.612,2.891l1.612-4.245l1.2,0.456L95.063,147.354z"/>
	<path fill="#818181" d="M99.005,135.409c0.339,0.863,0.305,1.776-0.102,2.682c-0.402,0.895-1.064,1.525-1.934,1.847
		c-1.236,0.459-2.438-0.097-3.768-0.693l-0.459-0.206c-1.412-0.635-2.28-1.155-2.68-2.205c-0.325-0.858-0.299-1.79,0.098-2.671
		c0.4-0.895,1.08-1.532,1.938-1.858c0.976-0.36,2.006-0.1,3.225,0.448l0.604,0.271C97.399,133.686,98.515,134.173,99.005,135.409z
		 M92.438,133.646c-0.502,0.181-0.883,0.547-1.106,1.042c-0.218,0.482-0.243,1.022-0.044,1.519c0.303,0.746,1.202,1.135,2.385,1.667
		c1.1,0.494,2.146,1.037,2.952,0.731c0.508-0.192,0.884-0.545,1.106-1.04c0.228-0.508,0.248-1.036,0.045-1.52
		c-0.304-0.745-1.064-1.088-2.525-1.745C93.946,133.715,93.163,133.392,92.438,133.646z"/>
	<path fill="#818181" d="M104.624,126.677l-0.596,1.093l-6.715-1.493l4.887,4.841l-0.598,1.093l-9.457-2.357l0.724-1.325
		l6.716,1.796l-5.021-4.899l0.546-1l6.842,1.563l-5.141-4.679l0.724-1.324L104.624,126.677z"/>
</g>
<path fill="#262262" d="M261.155,154.878c4.914,6.758,8.415,14.563,10.118,22.955c1.308,6.441,6.413,11.762,12.986,11.762
	c15.755,0,31.511,0,47.265,0c0.01-8.024-0.795-15.896-2.344-23.525c-3.404-16.785-10.404-32.401-20.23-45.915
	C293.019,131.729,277.087,143.304,261.155,154.878z"/>
<path fill="#9ADBF9" d="M165.594,154.878c-4.914,6.758-8.415,14.563-10.118,22.955c-1.309,6.441-6.414,11.762-12.986,11.762
	c-15.754,0-31.51,0-47.265,0c-0.01-8.024,0.796-15.896,2.344-23.525c3.404-16.785,10.404-32.401,20.231-45.915
	C133.731,131.729,149.661,143.304,165.594,154.878z"/>
<path fill="#2B3990" d="M231.628,133.415c12.078,3.912,22.322,11.554,29.527,21.463c15.932-11.574,31.863-23.148,47.795-34.724
	c-14.412-19.821-34.903-35.114-59.063-42.938C243.801,95.948,237.714,114.683,231.628,133.415z"/>
<path fill="#1C75BC" d="M195.119,133.413c11.647-3.78,24.429-3.947,36.512-0.009c6.086-18.73,12.173-37.461,18.259-56.192
	c-24.166-7.88-49.731-7.542-73.024,0.02C182.951,95.959,189.035,114.686,195.119,133.413z"/>
<path fill="#27AAE1" d="M165.596,154.88c7.216-9.922,17.47-17.559,29.525-21.465c-6.086-18.729-12.17-37.456-18.261-56.2
	c-24.113,7.813-44.629,23.092-59.063,42.938C133.729,131.729,149.663,143.304,165.596,154.88z"/>
<path fill="#FFFFFF" d="M166.386,154.001l-47.797-34.726c-0.234,0.315-1.166,1.585-1.396,1.906l47.808,34.734L166.386,154.001z"/>
<path fill="#FFFFFF" d="M196.251,133.07L177.99,76.869c-0.376,0.118-0.754,0.232-1.128,0.354c-0.375,0.123-0.742,0.262-1.115,0.387
	l18.257,56.192L196.251,133.07z"/>
<path fill="#FFFFFF" d="M232.747,133.797l18.258-56.193c-0.374-0.127-0.741-0.266-1.117-0.388c0-0.001,0-0.003,0.002-0.004
	c-0.375-0.122-0.751-0.236-1.127-0.354l-18.264,56.209L232.747,133.797z"/>
<path fill="#FFFFFF" d="M261.188,156.779l68.945-49.83c-0.33-0.461-0.65-0.927-0.985-1.386c-0.333-0.457-0.688-0.896-1.027-1.351
	l-68.927,49.818L261.188,156.779z"/>
<path fill="#FFFFFF" d="M233.604,134.595l25.354-81.201c-0.54-0.171-1.075-0.353-1.619-0.519c-0.54-0.167-1.089-0.306-1.632-0.466
	L230.36,133.59L233.604,134.595z"/>
<path fill="#FFFFFF" d="M197.644,134.001l-26.751-80.752c-0.538,0.176-1.079,0.341-1.618,0.522c-0.535,0.18-1.063,0.387-1.596,0.573
	l26.744,80.731L197.644,134.001z"/>
<path fill="#FFFFFF" d="M167.084,153.763L98.22,103.818c-0.334,0.457-0.677,0.906-1.008,1.368c-0.33,0.459-0.637,0.935-0.962,1.397
	l68.846,49.931L167.084,153.763z"/>
<g>
	<g>
		<path fill="#FFFFFF" d="M159.331,165.652c-15.655-1.347-28.245-2.377-28.245-2.377c-1.374-0.111-2.573,0.744-2.915,2.078
			c-0.344,1.339,0.295,2.666,1.558,3.228c0,0,11.242,5.034,25.358,11.285C155.906,174.903,157.347,170.138,159.331,165.652z"/>
		<path fill="#F6F6F5" d="M159.266,165.804c-15.261-1.311-27.634-2.322-28.192-2.368c-1.3-0.106-2.425,0.705-2.746,1.957
			c-0.323,1.257,0.272,2.509,1.467,3.041c0.504,0.226,11.559,5.176,25.32,11.272C155.926,174.855,157.334,170.195,159.266,165.804z"
			/>
		<path fill="#F0EFEE" d="M159.201,165.956c-14.868-1.274-27.024-2.268-28.141-2.36c-1.226-0.099-2.277,0.667-2.577,1.837
			c-0.301,1.174,0.25,2.351,1.377,2.854c1.009,0.451,11.875,5.318,25.282,11.261C155.946,174.809,157.322,170.254,159.201,165.956z"
			/>
		<path fill="#EAE9E9" d="M159.136,166.108c-14.474-1.238-26.414-2.213-28.088-2.351c-1.153-0.094-2.13,0.628-2.409,1.716
			c-0.28,1.092,0.227,2.195,1.287,2.667c1.514,0.677,12.192,5.46,25.245,11.248C155.965,174.761,157.311,170.312,159.136,166.108z"
			/>
		<path fill="#E5E3E3" d="M159.071,166.26c-14.081-1.202-25.803-2.158-28.036-2.342c-1.079-0.088-1.981,0.589-2.239,1.596
			c-0.26,1.01,0.204,2.037,1.196,2.479c2.019,0.902,12.508,5.603,25.207,11.236C155.985,174.714,157.298,170.37,159.071,166.26z"/>
		<path fill="#DFDEDD" d="M159.006,166.412c-13.687-1.166-25.192-2.104-27.983-2.334c-1.006-0.081-1.834,0.551-2.07,1.476
			c-0.238,0.928,0.182,1.881,1.105,2.292c2.524,1.128,12.825,5.745,25.17,11.224C156.006,174.668,157.287,170.428,159.006,166.412z"
			/>
		<path fill="#D9D8D8" d="M158.94,166.564c-13.293-1.13-24.582-2.049-27.931-2.326c-0.933-0.076-1.686,0.511-1.902,1.355
			c-0.217,0.845,0.159,1.723,1.016,2.105c3.028,1.354,13.141,5.887,25.131,11.212C156.025,174.621,157.274,170.486,158.94,166.564z"
			/>
		<path fill="#D4D3D3" d="M158.876,166.716c-12.9-1.094-23.973-1.994-27.879-2.316c-0.859-0.069-1.539,0.473-1.733,1.234
			c-0.196,0.764,0.137,1.567,0.925,1.918c3.533,1.579,13.458,6.029,25.094,11.2C156.045,174.573,157.263,170.544,158.876,166.716z"
			/>
		<path fill="#CFCECE" d="M158.811,166.868c-12.506-1.058-23.362-1.94-27.827-2.309c-0.786-0.063-1.39,0.435-1.564,1.115
			c-0.175,0.681,0.114,1.409,0.834,1.73c4.038,1.805,13.775,6.171,25.057,11.188C156.065,174.526,157.25,170.602,158.811,166.868z"
			/>
		<path fill="#CAC9C9" d="M158.746,167.021c-12.112-1.022-22.751-1.885-27.774-2.3c-0.712-0.058-1.243,0.395-1.396,0.994
			c-0.154,0.599,0.091,1.252,0.745,1.543c4.542,2.031,14.091,6.313,25.019,11.175C156.086,174.479,157.238,170.66,158.746,167.021z"
			/>
		<path fill="#C5C4C4" d="M158.681,167.172c-11.719-0.985-22.141-1.831-27.723-2.292c-0.638-0.051-1.094,0.357-1.226,0.874
			c-0.133,0.517,0.067,1.095,0.654,1.356c5.047,2.256,14.407,6.456,24.981,11.164C156.105,174.432,157.226,170.718,158.681,167.172z
			"/>
		<path fill="#C0BFBF" d="M158.616,167.324c-11.326-0.949-21.531-1.776-27.67-2.283c-0.565-0.045-0.946,0.318-1.057,0.753
			c-0.112,0.434,0.045,0.938,0.563,1.169c5.552,2.482,14.724,6.598,24.943,11.151C156.125,174.385,157.214,170.776,158.616,167.324z
			"/>
	</g>
	<g>
		<path fill="#FFFFFF" d="M228.52,192.261c2.104-8.2-2.857-16.587-11.061-18.693c-3.684-0.949-34.908-3.759-59.009-5.831
			c-1.549,3.893-2.675,7.972-3.369,12.162c22.144,9.804,51.028,22.459,54.736,23.418C218.02,205.423,226.41,200.463,228.52,192.261z
			"/>
		<path fill="#F8F8F8" d="M228.467,192.248c2.097-8.173-2.846-16.529-11.022-18.628c-3.761-0.968-34.855-3.763-59.014-5.834
			c-1.534,3.863-2.651,7.909-3.343,12.063c22.195,9.832,50.955,22.438,54.741,23.417
			C218.005,205.364,226.365,200.422,228.467,192.248z"/>
		<path fill="#F3F3F2" d="M228.415,192.235c2.09-8.146-2.834-16.471-10.983-18.563c-3.838-0.987-34.802-3.767-59.018-5.838
			c-1.519,3.833-2.627,7.844-3.316,11.965c22.245,9.859,50.88,22.416,54.746,23.415C217.991,205.305,226.32,200.381,228.415,192.235
			z"/>
		<path fill="#EFEEEE" d="M228.362,192.221c2.083-8.119-2.823-16.413-10.944-18.498c-3.915-1.007-34.749-3.77-59.023-5.843
			c-1.502,3.804-2.604,7.781-3.29,11.868c22.296,9.888,50.807,22.394,54.751,23.413C217.977,205.246,226.274,200.34,228.362,192.221
			z"/>
		<path fill="#EBEAEA" d="M228.311,192.208c2.076-8.091-2.812-16.354-10.906-18.433c-3.991-1.026-34.695-3.773-59.027-5.846
			c-1.487,3.773-2.58,7.717-3.264,11.769c22.347,9.916,50.732,22.372,54.756,23.411C217.963,205.187,226.23,200.3,228.311,192.208z"
			/>
		<path fill="#E7E6E6" d="M228.259,192.195c2.069-8.064-2.8-16.297-10.866-18.368c-4.068-1.045-34.643-3.776-59.032-5.85
			c-1.471,3.743-2.556,7.654-3.237,11.671c22.397,9.944,50.659,22.35,54.761,23.409
			C217.948,205.128,226.185,200.259,228.259,192.195z"/>
		<path fill="#E3E2E2" d="M228.206,192.182c2.063-8.037-2.789-16.239-10.827-18.303c-4.146-1.065-34.589-3.78-59.037-5.854
			c-1.456,3.713-2.532,7.59-3.211,11.573c22.448,9.972,50.585,22.328,54.766,23.407C217.934,205.069,226.14,200.218,228.206,192.182
			z"/>
		<path fill="#DFDEDE" d="M228.154,192.168c2.055-8.01-2.778-16.181-10.789-18.237c-4.222-1.085-34.536-3.785-59.042-5.858
			c-1.44,3.683-2.509,7.526-3.185,11.474c22.5,10,50.512,22.306,54.771,23.406C217.919,205.009,226.095,200.178,228.154,192.168z"/>
		<path fill="#DBDBDA" d="M228.102,192.155c2.048-7.982-2.767-16.123-10.75-18.172c-4.299-1.105-34.483-3.788-59.046-5.862
			c-1.425,3.653-2.485,7.463-3.159,11.376c22.55,10.028,50.438,22.284,54.776,23.404C217.905,204.95,226.05,200.137,228.102,192.155
			z"/>
		<path fill="#D7D7D7" d="M228.05,192.142c2.041-7.956-2.755-16.065-10.711-18.108c-4.375-1.124-34.429-3.791-59.05-5.865
			c-1.409,3.624-2.461,7.399-3.132,11.278c22.601,10.057,50.364,22.262,54.78,23.402
			C217.891,204.891,226.005,200.096,228.05,192.142z"/>
		<path fill="#D3D3D3" d="M227.998,192.129c2.034-7.928-2.744-16.007-10.672-18.042c-4.453-1.144-34.376-3.795-59.055-5.869
			c-1.394,3.593-2.438,7.334-3.107,11.179c22.652,10.084,50.291,22.24,54.785,23.4C217.876,204.832,225.959,200.055,227.998,192.129
			z"/>
		<path fill="#CFD0D0" d="M227.945,192.116c2.027-7.901-2.732-15.949-10.633-17.978c-4.53-1.163-34.323-3.798-59.06-5.873
			c-1.378,3.563-2.414,7.271-3.081,11.081c22.703,10.112,50.217,22.218,54.791,23.399
			C217.862,204.773,225.915,200.015,227.945,192.116z"/>
	</g>
	<g>
		
			<linearGradient id="SVGID_1_" gradientUnits="userSpaceOnUse" x1="525.9106" y1="1075.5713" x2="556.4809" y2="1075.5713" gradientTransform="matrix(0.2487 -0.9686 0.9686 0.2487 -998.9641 436.9977)">
			<stop  offset="0" style="stop-color:#717171"/>
			<stop  offset="0.49" style="stop-color:#414141"/>
			<stop  offset="0.51" style="stop-color:#121212"/>
			<stop  offset="1" style="stop-color:#010101"/>
		</linearGradient>
		<path fill="url(#SVGID_1_)" d="M128.25,166.636c-1.128-0.091-1.527,1.459-0.494,1.921c17.961,8.029,75.234,33.531,81.927,35.259
			c0.003,0.001,0.007,0.002,0.01,0.001c7.899,2.03,15.948-2.731,17.976-10.631c2.029-7.899-2.731-15.946-10.632-17.975
			C210.386,173.503,147.866,168.255,128.25,166.636z"/>
		
			<linearGradient id="SVGID_2_" gradientUnits="userSpaceOnUse" x1="533.8149" y1="1112.6699" x2="548.5815" y2="1112.6699" gradientTransform="matrix(0.2487 -0.9686 0.9686 0.2487 -998.9641 436.9977)">
			<stop  offset="0" style="stop-color:#010101"/>
			<stop  offset="1" style="stop-color:#717171"/>
		</linearGradient>
		<circle fill="url(#SVGID_2_)" cx="213.365" cy="189.514" r="7.384"/>
	</g>
</g>
</svg>
