<?xml version="1.0" encoding="utf-8"?>
<!-- Generator: Adobe Illustrator 16.0.0, SVG Export Plug-In . SVG Version: 6.00 Build 0)  -->
<!DOCTYPE svg PUBLIC "-//W3C//DTD SVG 1.1//EN" "http://www.w3.org/Graphics/SVG/1.1/DTD/svg11.dtd">
<svg version="1.1" id="Layer_1" xmlns="http://www.w3.org/2000/svg" xmlns:xlink="http://www.w3.org/1999/xlink" x="0px" y="0px"
	 width="800px" height="1034px" viewBox="0 0 800 1034" enable-background="new 0 0 800 1034" xml:space="preserve">
<g>
	<g>
		<path fill="#E4E4E4" d="M354.663,549.786c-6-72.774-66.967-129.966-141.289-129.966c-74.323,0-135.29,57.191-141.29,129.966
			c-0.535,6.486,4.822,11.809,11.33,11.809h11.815c6.525,0,11.741-5.222,12.451-11.709c5.829-53.215,50.926-94.622,105.693-94.622
			s99.865,41.407,105.694,94.622c0.711,6.487,5.927,11.709,12.452,11.709h11.813C349.842,561.595,355.198,556.272,354.663,549.786z"
			/>
	</g>
	<path fill="#FFFFFF" d="M300.091,500.052l28.68-20.836c-0.458-0.642-0.926-1.274-1.395-1.907l-28.675,20.833
		C299.171,498.773,299.635,499.411,300.091,500.052z"/>
	<g>
		<path fill="#818181" d="M189.523,438.308l-1.337-6.157l-1.147,4.948l-1.034,0.226l-3.134-4.02l1.337,6.156l-1.396,0.303l-2-9.208
			l1.384-0.301l3.934,5.146l1.408-6.305l1.397-0.304l1.999,9.21L189.523,438.308z"/>
		<path fill="#818181" d="M198.216,436.002c-0.551,0.746-1.34,1.206-2.323,1.344c-0.969,0.139-1.856-0.084-2.591-0.648
			c-1.049-0.8-1.223-2.112-1.426-3.554l-0.07-0.499c-0.218-1.532-0.24-2.545,0.436-3.441c0.55-0.734,1.353-1.209,2.311-1.344
			c0.969-0.137,1.87,0.096,2.603,0.646c0.825,0.633,1.154,1.642,1.342,2.965l0.093,0.655
			C198.815,433.725,198.999,434.929,198.216,436.002z M196.2,429.51c-0.42-0.328-0.933-0.455-1.471-0.38
			c-0.523,0.074-0.994,0.343-1.307,0.774c-0.469,0.654-0.319,1.621-0.137,2.906c0.17,1.191,0.269,2.367,0.955,2.885
			c0.436,0.326,0.936,0.456,1.473,0.381c0.55-0.078,1.008-0.344,1.307-0.773c0.469-0.655,0.352-1.48,0.127-3.066
			C196.948,430.82,196.803,429.986,196.2,429.51z"/>
		<path fill="#818181" d="M207.149,433.622c-0.049,0.575-0.317,1.245-0.695,1.686c-0.547,0.639-1.356,0.991-2.372,1.069
			l-3.299,0.252l-0.716-9.393l3.297-0.252c1.623-0.124,2.99,0.581,3.432,2.193c0.111,0.402,0.199,0.848,0.238,1.361l0.06,0.805
			C207.169,432.32,207.188,433.088,207.149,433.622z M205.634,431.164c-0.111-1.452-0.281-1.97-0.686-2.377
			c-0.388-0.395-0.959-0.563-1.658-0.51l-1.701,0.129l0.521,6.834l1.701-0.129c0.7-0.053,1.237-0.307,1.562-0.757
			c0.337-0.463,0.422-1.093,0.304-2.624L205.634,431.164z"/>
		<path fill="#818181" d="M208.995,436.076l-0.125-9.424l6.035-0.079l0.017,1.282l-4.606,0.063l0.038,2.752l3.917-0.052l0.016,1.271
			l-3.916,0.053l0.037,2.832l4.605-0.062l0.018,1.283L208.995,436.076z"/>
		<path fill="#818181" d="M221.509,436.268l-1.795-4.06l-1.783-0.085l-0.189,3.965l-1.428-0.068l0.448-9.41l3.648,0.173
			c1.731,0.083,2.868,1.249,2.79,2.89c-0.039,0.818-0.361,1.466-0.953,1.928c-0.289,0.225-0.506,0.334-1.043,0.48l1.97,4.267
			L221.509,436.268z M220.243,428.06l-2.115-0.101l-0.14,2.947l2.114,0.102c0.979,0.046,1.627-0.492,1.67-1.392
			C221.815,428.704,221.221,428.107,220.243,428.06z"/>
		<path fill="#818181" d="M230.397,437.158l-0.438-1.956l-3.694-0.432l-0.877,1.804l-1.499-0.176l4.523-8.959l1.145,0.133
			l2.324,9.76L230.397,437.158z M228.771,429.627l-1.957,3.982l2.906,0.339L228.771,429.627z"/>
		<path fill="#818181" d="M236.434,429.888l-1.369,8.026l-1.409-0.24l1.369-8.027l-2.559-0.436l0.216-1.266l6.525,1.112
			l-0.216,1.266L236.434,429.888z"/>
		<path fill="#818181" d="M238.673,438.574l2.109-9.185l5.881,1.35l-0.287,1.252l-4.488-1.03l-0.617,2.684l3.818,0.876l-0.284,1.238
			l-3.817-0.878l-0.634,2.762l4.488,1.031l-0.287,1.25L238.673,438.574z"/>
	</g>
	<g>
		<path fill="#818181" d="M130.133,467.582l-6.109-7.176l1.089-0.926l5.277,6.198l3.457-2.944l0.832,0.979L130.133,467.582z"/>
		<path fill="#818181" d="M139.345,459.008c-0.119,0.919-0.588,1.703-1.381,2.301c-0.782,0.59-1.666,0.825-2.582,0.687
			c-1.305-0.192-2.09-1.257-2.967-2.419l-0.303-0.402c-0.932-1.235-1.441-2.11-1.286-3.223c0.128-0.908,0.599-1.711,1.371-2.292
			c0.781-0.591,1.684-0.822,2.592-0.694c1.027,0.152,1.805,0.877,2.608,1.943l0.398,0.529
			C138.769,456.726,139.511,457.69,139.345,459.008z M134.44,454.305c-0.527-0.084-1.037,0.053-1.471,0.379
			c-0.422,0.319-0.705,0.78-0.77,1.31c-0.094,0.799,0.507,1.574,1.287,2.608c0.725,0.962,1.381,1.941,2.234,2.063
			c0.537,0.074,1.037-0.053,1.47-0.38c0.444-0.335,0.716-0.788,0.771-1.31c0.092-0.8-0.41-1.465-1.373-2.744
			C135.728,455.09,135.198,454.43,134.44,454.305z"/>
		<path fill="#818181" d="M148.465,454.07l-1.05,0.67l-5.162-4.542l1.948,6.596l-1.048,0.67l-7.151-6.62l1.272-0.813l5.019,4.807
			l-2.039-6.711l0.96-0.612l5.242,4.665l-2.251-6.576l1.272-0.813L148.465,454.07z"/>
	</g>
	<g>
		<path fill="#818181" d="M280.745,455.644l2.154-3.511l-3.25-1.994l-2.155,3.511l-1.219-0.749l4.933-8.037l1.219,0.75l-2.113,3.442
			l3.251,1.995l2.112-3.443l1.23,0.756l-4.932,8.036L280.745,455.644z"/>
		<path fill="#818181" d="M283.346,457.354l5.29-7.799l1.184,0.803l-5.29,7.799L283.346,457.354z"/>
		<path fill="#818181" d="M291.083,461.672c-0.951,0.167-1.902-0.063-2.709-0.664c-0.775-0.576-1.26-1.365-1.385-2.284
			c-0.082-0.622,0.027-1.233,0.304-1.737c0.229-0.44,0.632-1.048,1.224-1.844l0.23-0.309c1.035-1.391,1.682-2.016,2.764-2.183
			c0.934-0.147,1.801,0.085,2.617,0.694c0.479,0.355,0.809,0.733,1.037,1.135c0.244,0.447,0.35,0.838,0.482,1.547l-1.363,0.19
			c-0.081-0.557-0.156-0.876-0.358-1.225c-0.126-0.209-0.319-0.436-0.575-0.626c-0.732-0.545-1.646-0.581-2.339,0.041
			c-0.394,0.351-0.823,0.904-1.337,1.595l-0.182,0.245c-0.965,1.296-1.211,1.804-1.138,2.437c0.065,0.511,0.339,0.963,0.785,1.295
			c0.499,0.371,1.085,0.493,1.624,0.367c0.473-0.127,0.867-0.411,1.246-0.921l0.309-0.414l-1.582-1.178l0.727-0.977l2.729,2.031
			l-0.854,1.147C292.581,461.056,291.946,461.507,291.083,461.672z"/>
		<path fill="#818181" d="M296.247,467.26l2.669-3.134l-2.902-2.47l-2.669,3.132l-1.087-0.926l6.108-7.174l1.088,0.927l-2.617,3.074
			l2.902,2.47l2.617-3.072l1.098,0.935l-6.108,7.174L296.247,467.26z"/>
	</g>
	<g>
		<path fill="#818181" d="M322.339,499.321l-0.557-0.962l6.599-7.41l0.75,1.295l-4.848,5.311l7.014-1.564l0.755,1.306
			L322.339,499.321z"/>
		<path fill="#818181" d="M324.323,502.86l8.419-4.232l2.712,5.391l-1.147,0.577l-2.069-4.115l-2.459,1.237l1.76,3.499l-1.135,0.571
			l-1.76-3.5l-2.531,1.272l2.07,4.114l-1.146,0.578L324.323,502.86z"/>
		<path fill="#818181" d="M329.618,514.198l2.871-3.391l-0.705-1.644l-3.652,1.565l-0.563-1.315l8.666-3.714l1.44,3.359
			c0.685,1.595,0.132,3.129-1.379,3.775c-0.755,0.323-1.478,0.316-2.153-0.014c-0.328-0.162-0.521-0.31-0.888-0.729l-2.98,3.64
			L329.618,514.198z M336.453,509.468l-0.835-1.947l-2.713,1.163l0.834,1.948c0.386,0.9,1.154,1.248,1.982,0.894
			C336.562,511.166,336.84,510.369,336.453,509.468z"/>
		<path fill="#818181" d="M335.358,518.416l-3.648,1.316l-0.484-1.345l3.647-1.316l4.259-4.534l0.531,1.47l-3.223,3.273l4.561,0.436
			l0.526,1.457L335.358,518.416z"/>
		<path fill="#818181" d="M334.972,530.385l3.971-1.084l-1.004-3.676l-3.971,1.084l-0.377-1.379l9.089-2.482l0.377,1.379
			l-3.894,1.063l1.004,3.678l3.894-1.063l0.38,1.391l-9.089,2.483L334.972,530.385z"/>
		<path fill="#818181" d="M335.699,533.436l9.201-2.056l0.312,1.396l-9.201,2.056L335.699,533.436z"/>
		<path fill="#818181" d="M338.378,541.878c-0.807-0.529-1.342-1.348-1.518-2.338c-0.17-0.951,0.018-1.858,0.556-2.613
			c0.366-0.508,0.866-0.879,1.413-1.058c0.467-0.163,1.177-0.329,2.154-0.504l0.377-0.067c1.708-0.304,2.606-0.314,3.51,0.304
			c0.78,0.534,1.252,1.296,1.431,2.3c0.104,0.586,0.085,1.087-0.022,1.536c-0.127,0.493-0.319,0.85-0.709,1.457l-1.123-0.795
			c0.322-0.46,0.486-0.745,0.577-1.138c0.052-0.237,0.067-0.535,0.011-0.849c-0.16-0.899-0.799-1.552-1.731-1.574
			c-0.526-0.015-1.22,0.097-2.067,0.246l-0.299,0.054c-1.59,0.282-2.119,0.485-2.498,0.995c-0.303,0.417-0.412,0.935-0.314,1.481
			c0.108,0.612,0.451,1.103,0.931,1.381c0.432,0.232,0.913,0.294,1.538,0.184l0.509-0.091l-0.345-1.942l1.197-0.214l0.596,3.351
			l-1.406,0.249C339.892,542.456,339.12,542.351,338.378,541.878z"/>
		<path fill="#818181" d="M338.316,549.491l4.091-0.456l-0.421-3.789l-4.091,0.456l-0.158-1.421l9.365-1.043l0.158,1.421
			l-4.012,0.447l0.422,3.788l4.012-0.447l0.16,1.435l-9.365,1.043L338.316,549.491z"/>
	</g>
	<g>
		<path fill="#818181" d="M88.673,546.899l-0.123,1.105l-9.717,2.045L79,548.563l7.059-1.396l-6.578-2.908l0.168-1.5L88.673,546.899
			z"/>
		<path fill="#818181" d="M89.175,542.898l-9.285-1.595l1.021-5.946l1.265,0.217l-0.779,4.539l2.714,0.466l0.662-3.86l1.252,0.215
			l-0.662,3.86l2.79,0.479l0.779-4.538l1.266,0.217L89.175,542.898z"/>
		<path fill="#818181" d="M91.645,530.631l-4.319,1.025l-0.408,1.739l3.865,0.908l-0.326,1.393l-9.176-2.156l0.835-3.557
			c0.397-1.688,1.752-2.594,3.351-2.218c0.798,0.188,1.376,0.622,1.723,1.289c0.168,0.324,0.236,0.558,0.283,1.112l4.556-1.16
			L91.645,530.631z M83.341,530.38l-0.482,2.062l2.872,0.676l0.484-2.062c0.225-0.954-0.187-1.689-1.063-1.896
			C84.263,528.951,83.565,529.427,83.341,530.38z"/>
		<path fill="#818181" d="M89.531,523.824l3.718,1.105l-0.408,1.369l-3.717-1.105l-6.118,1.12l0.445-1.496l4.536-0.722l-3.411-3.059
			l0.441-1.484L89.531,523.824z"/>
		<path fill="#818181" d="M95.063,519.354l-8.813-3.347l0.508-1.337l7.612,2.891l1.612-4.245l1.2,0.456L95.063,519.354z"/>
		<path fill="#818181" d="M99.005,507.409c0.339,0.863,0.305,1.776-0.102,2.682c-0.402,0.895-1.064,1.525-1.934,1.847
			c-1.236,0.459-2.438-0.097-3.768-0.693l-0.459-0.206c-1.412-0.635-2.28-1.155-2.68-2.205c-0.325-0.858-0.299-1.79,0.098-2.671
			c0.4-0.895,1.08-1.532,1.938-1.858c0.976-0.36,2.006-0.1,3.225,0.448l0.604,0.271C97.399,505.686,98.515,506.173,99.005,507.409z
			 M92.438,505.646c-0.502,0.181-0.883,0.547-1.106,1.042c-0.218,0.482-0.243,1.022-0.044,1.519
			c0.303,0.746,1.202,1.135,2.385,1.667c1.1,0.494,2.146,1.037,2.952,0.731c0.508-0.192,0.884-0.545,1.106-1.04
			c0.228-0.508,0.248-1.036,0.045-1.52c-0.304-0.745-1.064-1.088-2.525-1.745C93.946,505.715,93.163,505.392,92.438,505.646z"/>
		<path fill="#818181" d="M104.624,498.677l-0.596,1.093l-6.715-1.493l4.887,4.841l-0.598,1.093l-9.457-2.357l0.724-1.325
			l6.716,1.796l-5.021-4.899l0.546-1l6.842,1.563l-5.141-4.679l0.724-1.324L104.624,498.677z"/>
	</g>
	<path fill="#262262" d="M261.155,526.878c4.914,6.758,8.415,14.563,10.118,22.955c1.308,6.441,6.413,11.762,12.986,11.762
		c15.755,0,31.511,0,47.265,0c0.01-8.024-0.795-15.896-2.344-23.525c-3.404-16.785-10.404-32.401-20.23-45.915
		C293.019,503.729,277.087,515.304,261.155,526.878z"/>
	<path fill="#9ADBF9" d="M165.594,526.878c-4.914,6.758-8.415,14.563-10.118,22.955c-1.309,6.441-6.414,11.762-12.986,11.762
		c-15.754,0-31.51,0-47.265,0c-0.01-8.024,0.796-15.896,2.344-23.525c3.404-16.785,10.404-32.401,20.231-45.915
		C133.731,503.729,149.661,515.304,165.594,526.878z"/>
	<path fill="#2B3990" d="M231.628,505.415c12.078,3.912,22.322,11.554,29.527,21.463c15.932-11.574,31.863-23.148,47.795-34.724
		c-14.412-19.821-34.903-35.114-59.063-42.938C243.801,467.948,237.714,486.683,231.628,505.415z"/>
	<path fill="#1C75BC" d="M195.119,505.413c11.647-3.78,24.429-3.947,36.512-0.009c6.086-18.73,12.173-37.461,18.259-56.192
		c-24.166-7.88-49.731-7.542-73.024,0.02C182.951,467.959,189.035,486.686,195.119,505.413z"/>
	<path fill="#27AAE1" d="M165.596,526.88c7.216-9.922,17.47-17.559,29.525-21.465c-6.086-18.729-12.17-37.456-18.261-56.2
		c-24.113,7.813-44.629,23.092-59.063,42.938C133.729,503.729,149.663,515.304,165.596,526.88z"/>
	<path fill="#FFFFFF" d="M166.386,526.001l-47.797-34.726c-0.234,0.315-1.166,1.585-1.396,1.906l47.808,34.734L166.386,526.001z"/>
	<path fill="#FFFFFF" d="M196.251,505.07l-18.261-56.201c-0.376,0.118-0.754,0.232-1.128,0.354
		c-0.375,0.123-0.742,0.262-1.115,0.387l18.257,56.192L196.251,505.07z"/>
	<path fill="#FFFFFF" d="M232.747,505.797l18.258-56.193c-0.374-0.127-0.741-0.266-1.117-0.388c0-0.001,0-0.003,0.002-0.004
		c-0.375-0.122-0.751-0.236-1.127-0.354l-18.264,56.209L232.747,505.797z"/>
	<path fill="#FFFFFF" d="M261.188,528.779l68.945-49.83c-0.33-0.461-0.65-0.927-0.985-1.386c-0.333-0.457-0.688-0.896-1.027-1.351
		l-68.927,49.818L261.188,528.779z"/>
	<path fill="#FFFFFF" d="M233.604,506.595l25.354-81.201c-0.54-0.171-1.075-0.353-1.619-0.519c-0.54-0.167-1.089-0.307-1.632-0.467
		L230.36,505.59L233.604,506.595z"/>
	<path fill="#FFFFFF" d="M197.644,506.001l-26.751-80.753c-0.538,0.177-1.079,0.342-1.618,0.522
		c-0.535,0.181-1.063,0.388-1.596,0.573l26.744,80.731L197.644,506.001z"/>
	<path fill="#FFFFFF" d="M167.084,525.763L98.22,475.818c-0.334,0.457-0.677,0.906-1.008,1.368c-0.33,0.459-0.637,0.935-0.962,1.397
		l68.846,49.931L167.084,525.763z"/>
	<g>
		<g>
			<path fill="#FFFFFF" d="M221.665,502.887c-2.93-15.437-5.339-27.836-5.339-27.836c-0.264-1.354-1.412-2.278-2.788-2.247
				c-1.382,0.031-2.487,1.004-2.688,2.373c0,0-1.811,12.183-4.017,27.463C211.833,502.087,216.81,502.188,221.665,502.887z"/>
			<path fill="#F6F6F5" d="M221.5,502.865c-2.859-15.048-5.227-27.233-5.333-27.783c-0.25-1.281-1.334-2.146-2.626-2.117
				c-1.297,0.029-2.342,0.939-2.532,2.235c-0.081,0.547-1.862,12.525-4.016,27.423C211.883,502.093,216.751,502.191,221.5,502.865z"
				/>
			<path fill="#F0EFEE" d="M221.336,502.844c-2.787-14.659-5.114-26.632-5.327-27.731c-0.235-1.208-1.257-2.014-2.464-1.986
				c-1.212,0.027-2.197,0.875-2.376,2.098c-0.162,1.094-1.914,12.869-4.015,27.384C211.934,502.1,216.691,502.195,221.336,502.844z"
				/>
			<path fill="#EAE9E9" d="M221.172,502.822c-2.715-14.271-5.002-26.029-5.321-27.68c-0.221-1.135-1.179-1.881-2.303-1.855
				c-1.127,0.025-2.052,0.811-2.22,1.96c-0.243,1.641-1.964,13.212-4.012,27.345C211.984,502.105,216.633,502.199,221.172,502.822z"
				/>
			<path fill="#E5E3E3" d="M221.009,502.801c-2.645-13.882-4.89-25.427-5.315-27.627c-0.207-1.063-1.103-1.749-2.142-1.726
				c-1.042,0.023-1.907,0.747-2.064,1.822c-0.324,2.188-2.017,13.556-4.011,27.305C212.035,502.112,216.573,502.203,221.009,502.801
				z"/>
			<path fill="#DFDEDD" d="M220.845,502.779c-2.573-13.493-4.778-24.824-5.31-27.574c-0.194-0.99-1.025-1.617-1.981-1.596
				c-0.957,0.021-1.761,0.683-1.908,1.685c-0.405,2.734-2.068,13.898-4.01,27.266C212.086,502.119,216.515,502.208,220.845,502.779z
				"/>
			<path fill="#D9D8D8" d="M220.681,502.758c-2.501-13.105-4.665-24.223-5.304-27.521c-0.179-0.918-0.947-1.485-1.818-1.465
				c-0.873,0.019-1.616,0.617-1.752,1.546c-0.486,3.281-2.12,14.242-4.008,27.226C212.137,502.126,216.455,502.211,220.681,502.758z
				"/>
			<path fill="#D4D3D3" d="M220.517,502.735c-2.43-12.716-4.553-23.619-5.298-27.468c-0.165-0.846-0.87-1.354-1.657-1.335
				c-0.787,0.017-1.471,0.553-1.596,1.408c-0.567,3.828-2.171,14.585-4.007,27.187C212.188,502.132,216.396,502.216,220.517,502.735
				z"/>
			<path fill="#CFCECE" d="M220.353,502.714c-2.358-12.327-4.441-23.017-5.292-27.416c-0.151-0.772-0.793-1.221-1.496-1.204
				c-0.703,0.015-1.326,0.488-1.44,1.271c-0.647,4.375-2.223,14.929-4.005,27.146C212.238,502.139,216.337,502.22,220.353,502.714z"
				/>
			<path fill="#CAC9C9" d="M220.189,502.692c-2.287-11.938-4.329-22.414-5.286-27.363c-0.138-0.701-0.716-1.089-1.335-1.074
				c-0.617,0.013-1.181,0.425-1.284,1.133c-0.729,4.922-2.273,15.271-4.004,27.107C212.289,502.146,216.277,502.224,220.189,502.692
				z"/>
			<path fill="#C5C4C4" d="M220.025,502.671c-2.215-11.55-4.216-21.813-5.28-27.312c-0.123-0.628-0.638-0.956-1.172-0.943
				c-0.533,0.011-1.036,0.36-1.128,0.995c-0.81,5.469-2.326,15.614-4.002,27.067C212.339,502.151,216.219,502.228,220.025,502.671z"
				/>
			<path fill="#C0BFBF" d="M219.861,502.649c-2.144-11.161-4.104-21.21-5.274-27.259c-0.109-0.556-0.562-0.824-1.011-0.813
				c-0.448,0.009-0.891,0.296-0.973,0.857c-0.891,6.016-2.377,15.958-4.001,27.028C212.39,502.158,216.159,502.231,219.861,502.649z
				"/>
		</g>
		<g>
			<path fill="#FFFFFF" d="M214.729,576.689c8.464-0.188,15.199-7.229,15.012-15.697c-0.081-3.804-5.809-34.627-10.322-58.391
				c-4.167-0.44-8.399-0.423-12.621,0.041c-3.459,23.968-7.844,55.197-7.766,59.026
				C199.221,570.136,206.264,576.873,214.729,576.689z"/>
			<path fill="#F8F8F8" d="M214.728,576.635c8.436-0.187,15.146-7.202,14.959-15.642c-0.083-3.883-5.791-34.576-10.32-58.396
				c-4.134-0.434-8.331-0.417-12.519,0.04c-3.472,24.024-7.843,55.12-7.763,59.031C199.274,570.105,206.291,576.818,214.728,576.635
				z"/>
			<path fill="#F3F3F2" d="M214.727,576.582c8.408-0.187,15.094-7.177,14.907-15.588c-0.085-3.962-5.772-34.525-10.316-58.4
				c-4.102-0.428-8.264-0.412-12.417,0.037c-3.486,24.082-7.842,55.044-7.759,59.035
				C199.327,570.076,206.317,576.765,214.727,576.582z"/>
			<path fill="#EFEEEE" d="M214.726,576.527c8.379-0.186,15.041-7.149,14.854-15.531c-0.087-4.042-5.755-34.477-10.314-58.407
				c-4.068-0.42-8.195-0.406-12.315,0.036c-3.499,24.139-7.841,54.967-7.757,59.04C199.38,570.046,206.345,576.71,214.726,576.527z"
				/>
			<path fill="#EBEAEA" d="M214.724,576.475c8.352-0.186,14.988-7.123,14.803-15.478c-0.089-4.12-5.737-34.426-10.312-58.413
				c-4.035-0.412-8.127-0.4-12.213,0.036c-3.512,24.194-7.839,54.89-7.754,59.044C199.434,570.017,206.372,576.656,214.724,576.475z
				"/>
			<path fill="#E7E6E6" d="M214.723,576.421c8.324-0.185,14.936-7.097,14.75-15.422c-0.09-4.2-5.718-34.376-10.309-58.419
				c-4.001-0.406-8.06-0.395-12.111,0.035c-3.526,24.25-7.838,54.813-7.751,59.048C199.486,569.986,206.399,576.602,214.723,576.421
				z"/>
			<path fill="#E3E2E2" d="M214.721,576.366c8.295-0.184,14.882-7.07,14.698-15.366c-0.093-4.279-5.701-34.326-10.306-58.424
				c-3.969-0.399-7.992-0.39-12.01,0.033c-3.539,24.308-7.837,54.735-7.748,59.053C199.539,569.957,206.426,576.548,214.721,576.366
				z"/>
			<path fill="#DFDEDE" d="M214.72,576.313c8.268-0.183,14.83-7.043,14.646-15.312c-0.095-4.358-5.684-34.275-10.304-58.429
				c-3.935-0.393-7.924-0.385-11.908,0.031c-3.553,24.364-7.836,54.659-7.745,59.057
				C199.593,569.927,206.453,576.493,214.72,576.313z"/>
			<path fill="#DBDBDA" d="M214.719,576.259c8.239-0.183,14.777-7.017,14.593-15.257c-0.097-4.438-5.665-34.225-10.301-58.435
				c-3.902-0.386-7.856-0.378-11.807,0.03c-3.566,24.421-7.834,54.582-7.742,59.062C199.646,569.896,206.48,576.439,214.719,576.259
				z"/>
			<path fill="#D7D7D7" d="M214.717,576.205c8.212-0.182,14.725-6.99,14.542-15.201c-0.098-4.518-5.646-34.175-10.298-58.44
				c-3.869-0.379-7.789-0.372-11.705,0.028c-3.579,24.478-7.833,54.506-7.739,59.066
				C199.699,569.867,206.507,576.385,214.717,576.205z"/>
			<path fill="#D3D3D3" d="M214.716,576.151c8.183-0.182,14.671-6.964,14.489-15.147c-0.101-4.596-5.629-34.124-10.296-58.445
				c-3.836-0.372-7.72-0.367-11.602,0.028c-3.593,24.534-7.833,54.429-7.736,59.069C199.752,569.838,206.534,576.33,214.716,576.151
				z"/>
			<path fill="#CFD0D0" d="M214.714,576.098c8.155-0.181,14.619-6.938,14.437-15.092c-0.103-4.676-5.611-34.074-10.293-58.451
				c-3.803-0.365-7.653-0.361-11.501,0.026c-3.606,24.591-7.831,54.352-7.733,59.074
				C199.805,569.808,206.561,576.276,214.714,576.098z"/>
		</g>
		<g>
			
				<linearGradient id="SVGID_1_" gradientUnits="userSpaceOnUse" x1="91.7534" y1="2343.1553" x2="122.3226" y2="2343.1553" gradientTransform="matrix(0.9998 -0.0221 0.0221 0.9998 53.6578 -1816.0557)">
				<stop  offset="0" style="stop-color:#717171"/>
				<stop  offset="0.49" style="stop-color:#414141"/>
				<stop  offset="0.51" style="stop-color:#121212"/>
				<stop  offset="1" style="stop-color:#010101"/>
			</linearGradient>
			<path fill="url(#SVGID_1_)" d="M212.324,473.227c-0.217-1.112-1.818-1.076-1.984,0.042c-2.88,19.462-11.967,81.494-11.823,88.405
				c0,0.004,0,0.008,0.001,0.01c0.179,8.155,6.937,14.617,15.091,14.437c8.153-0.179,14.616-6.935,14.435-15.091
				C227.894,554.164,216.063,492.55,212.324,473.227z"/>
			
				<linearGradient id="SVGID_2_" gradientUnits="userSpaceOnUse" x1="99.6577" y1="2380.2539" x2="114.4243" y2="2380.2539" gradientTransform="matrix(0.9998 -0.0221 0.0221 0.9998 53.6578 -1816.0557)">
				<stop  offset="0" style="stop-color:#010101"/>
				<stop  offset="1" style="stop-color:#717171"/>
			</linearGradient>
			<circle fill="url(#SVGID_2_)" cx="213.282" cy="561.357" r="7.384"/>
		</g>
	</g>
</g>
</svg>
