<?xml version="1.0" encoding="utf-8"?>
<!-- Generator: Adobe Illustrator 16.0.0, SVG Export Plug-In . SVG Version: 6.00 Build 0)  -->
<!DOCTYPE svg PUBLIC "-//W3C//DTD SVG 1.1//EN" "http://www.w3.org/Graphics/SVG/1.1/DTD/svg11.dtd">
<svg version="1.1" id="Layer_1" xmlns="http://www.w3.org/2000/svg" xmlns:xlink="http://www.w3.org/1999/xlink" x="0px" y="0px"
	 width="694px" height="986px" viewBox="0 0 694 986" enable-background="new 0 0 694 986" xml:space="preserve">
<g>
	<path fill="#E4E4E4" d="M336.497,745.862c-6-72.773-66.967-129.966-141.29-129.966S59.918,673.089,53.918,745.862
		c-0.535,6.486,4.822,11.809,11.33,11.809h11.815c6.525,0,11.741-5.221,12.452-11.709c5.829-53.215,50.925-94.621,105.692-94.621
		c54.768,0,99.866,41.406,105.695,94.621c0.711,6.488,5.927,11.709,12.452,11.709h11.813
		C331.676,757.671,337.032,752.349,336.497,745.862z"/>
</g>
<path fill="#FFFFFF" d="M281.925,696.128l28.68-20.836c-0.458-0.641-0.926-1.273-1.395-1.906l-28.675,20.832
	C281.005,694.851,281.469,695.487,281.925,696.128z"/>
<g>
	<path fill="#818181" d="M171.357,634.384l-1.336-6.156l-1.148,4.947l-1.034,0.227l-3.134-4.02l1.337,6.156l-1.397,0.303l-2-9.209
		l1.384-0.301l3.934,5.146l1.408-6.305l1.397-0.305l2,9.21L171.357,634.384z"/>
	<path fill="#818181" d="M180.05,632.079c-0.55,0.746-1.34,1.205-2.323,1.344c-0.969,0.138-1.856-0.084-2.59-0.648
		c-1.05-0.801-1.223-2.113-1.426-3.555l-0.07-0.498c-0.218-1.533-0.241-2.545,0.435-3.442c0.55-0.733,1.353-1.208,2.311-1.343
		c0.969-0.137,1.871,0.096,2.603,0.646c0.826,0.632,1.154,1.641,1.342,2.965l0.093,0.654
		C180.649,629.802,180.833,631.005,180.05,632.079z M178.034,625.587c-0.42-0.328-0.933-0.456-1.47-0.381
		c-0.524,0.074-0.995,0.343-1.307,0.775c-0.469,0.653-0.319,1.621-0.137,2.906c0.169,1.191,0.269,2.367,0.956,2.885
		c0.435,0.326,0.935,0.455,1.472,0.38c0.55-0.078,1.008-0.343,1.308-0.773c0.469-0.655,0.352-1.479,0.127-3.065
		C178.782,626.897,178.637,626.063,178.034,625.587z"/>
	<path fill="#818181" d="M188.983,629.698c-0.049,0.575-0.317,1.246-0.695,1.686c-0.547,0.639-1.356,0.992-2.372,1.07l-3.299,0.252
		l-0.716-9.394l3.297-0.251c1.624-0.125,2.991,0.58,3.432,2.192c0.111,0.403,0.199,0.848,0.238,1.362l0.06,0.804
		C189.003,628.397,189.022,629.165,188.983,629.698z M187.467,627.24c-0.11-1.452-0.281-1.97-0.685-2.376
		c-0.388-0.395-0.959-0.563-1.658-0.511l-1.701,0.13l0.521,6.834l1.701-0.13c0.7-0.053,1.237-0.307,1.562-0.757
		c0.337-0.463,0.422-1.093,0.304-2.623L187.467,627.24z"/>
	<path fill="#818181" d="M190.83,632.153l-0.125-9.424l6.035-0.08l0.017,1.283l-4.606,0.063l0.038,2.752l3.917-0.053l0.016,1.271
		l-3.917,0.052l0.038,2.833l4.605-0.063l0.018,1.283L190.83,632.153z"/>
	<path fill="#818181" d="M203.343,632.345l-1.795-4.061l-1.783-0.084l-0.189,3.965l-1.428-0.068l0.448-9.411l3.648,0.173
		c1.731,0.084,2.868,1.25,2.79,2.89c-0.039,0.819-0.361,1.466-0.953,1.928c-0.289,0.226-0.506,0.335-1.043,0.481l1.97,4.266
		L203.343,632.345z M202.077,624.136l-2.115-0.1l-0.14,2.947l2.114,0.101c0.979,0.046,1.627-0.491,1.67-1.392
		C203.649,624.78,203.055,624.184,202.077,624.136z"/>
	<path fill="#818181" d="M212.231,633.235l-0.438-1.957l-3.694-0.432l-0.877,1.804l-1.499-0.175l4.523-8.959l1.145,0.133l2.324,9.76
		L212.231,633.235z M210.604,625.703l-1.957,3.982l2.906,0.339L210.604,625.703z"/>
	<path fill="#818181" d="M218.268,625.964l-1.369,8.027l-1.409-0.241l1.369-8.026l-2.559-0.437l0.216-1.266l6.525,1.112
		l-0.216,1.266L218.268,625.964z"/>
	<path fill="#818181" d="M220.507,634.65l2.109-9.185l5.881,1.35l-0.287,1.252l-4.488-1.029l-0.617,2.683l3.818,0.876l-0.284,1.238
		l-3.817-0.877l-0.634,2.762l4.488,1.03l-0.287,1.251L220.507,634.65z"/>
</g>
<g>
	<path fill="#818181" d="M111.967,663.659l-6.109-7.176l1.088-0.926l5.277,6.197l3.458-2.943l0.832,0.979L111.967,663.659z"/>
	<path fill="#818181" d="M121.179,655.085c-0.12,0.918-0.588,1.703-1.381,2.301c-0.782,0.59-1.666,0.824-2.582,0.686
		c-1.305-0.191-2.091-1.256-2.967-2.418l-0.303-0.402c-0.932-1.236-1.441-2.111-1.286-3.223c0.128-0.908,0.599-1.711,1.371-2.293
		c0.781-0.59,1.684-0.822,2.592-0.694c1.027,0.153,1.805,0.877,2.608,1.944l0.399,0.528
		C120.602,652.802,121.345,653.767,121.179,655.085z M116.275,650.382c-0.528-0.084-1.038,0.053-1.471,0.379
		c-0.422,0.318-0.705,0.779-0.769,1.309c-0.094,0.799,0.506,1.574,1.287,2.609c0.725,0.961,1.381,1.941,2.234,2.063
		c0.537,0.074,1.037-0.053,1.47-0.381c0.444-0.334,0.715-0.787,0.77-1.309c0.093-0.801-0.41-1.465-1.373-2.744
		C117.562,651.166,117.032,650.507,116.275,650.382z"/>
	<path fill="#818181" d="M130.299,650.147l-1.05,0.67l-5.163-4.543l1.949,6.596l-1.048,0.67l-7.151-6.62l1.272-0.813l5.019,4.808
		l-2.039-6.711l0.959-0.613l5.243,4.666l-2.251-6.576l1.272-0.813L130.299,650.147z"/>
</g>
<g>
	<path fill="#818181" d="M262.579,651.72l2.154-3.51l-3.25-1.994l-2.155,3.51l-1.219-0.748l4.933-8.037l1.219,0.749l-2.113,3.442
		l3.251,1.996l2.112-3.443l1.23,0.755l-4.932,8.036L262.579,651.72z"/>
	<path fill="#818181" d="M265.18,653.431l5.29-7.799l1.184,0.802l-5.29,7.8L265.18,653.431z"/>
	<path fill="#818181" d="M272.917,657.749c-0.951,0.166-1.902-0.064-2.709-0.664c-0.775-0.576-1.26-1.365-1.385-2.285
		c-0.082-0.621,0.027-1.232,0.304-1.736c0.229-0.441,0.632-1.049,1.224-1.845l0.23-0.308c1.035-1.391,1.682-2.016,2.764-2.184
		c0.934-0.146,1.801,0.086,2.617,0.695c0.479,0.355,0.809,0.732,1.037,1.135c0.244,0.446,0.35,0.838,0.482,1.547l-1.363,0.189
		c-0.081-0.557-0.156-0.875-0.358-1.225c-0.126-0.209-0.319-0.436-0.575-0.625c-0.732-0.546-1.646-0.582-2.339,0.04
		c-0.394,0.351-0.823,0.905-1.337,1.595l-0.182,0.246c-0.965,1.295-1.211,1.803-1.138,2.436c0.065,0.512,0.339,0.963,0.785,1.295
		c0.499,0.371,1.085,0.494,1.624,0.367c0.473-0.127,0.867-0.41,1.246-0.92l0.309-0.414l-1.582-1.178l0.727-0.977l2.729,2.031
		l-0.854,1.146C274.415,657.132,273.78,657.583,272.917,657.749z"/>
	<path fill="#818181" d="M278.081,663.337l2.669-3.135l-2.902-2.469l-2.669,3.131l-1.087-0.926l6.108-7.174l1.088,0.928
		l-2.617,3.074l2.902,2.469l2.617-3.072l1.098,0.936l-6.108,7.174L278.081,663.337z"/>
</g>
<g>
	<path fill="#818181" d="M304.173,695.397l-0.557-0.961l6.599-7.41l0.75,1.295l-4.848,5.311l7.014-1.564l0.755,1.305
		L304.173,695.397z"/>
	<path fill="#818181" d="M306.157,698.937l8.419-4.232l2.712,5.391l-1.147,0.578l-2.069-4.115l-2.459,1.236l1.76,3.5l-1.135,0.57
		l-1.76-3.5l-2.531,1.273l2.07,4.113l-1.146,0.578L306.157,698.937z"/>
	<path fill="#818181" d="M311.452,710.274l2.871-3.391l-0.705-1.643l-3.652,1.564l-0.563-1.314l8.666-3.715l1.44,3.359
		c0.685,1.596,0.132,3.129-1.379,3.775c-0.755,0.324-1.478,0.316-2.153-0.014c-0.328-0.162-0.521-0.309-0.888-0.729l-2.98,3.641
		L311.452,710.274z M318.287,705.544l-0.835-1.947l-2.713,1.164l0.834,1.947c0.386,0.9,1.154,1.248,1.982,0.895
		C318.396,707.243,318.674,706.446,318.287,705.544z"/>
	<path fill="#818181" d="M317.192,714.493l-3.648,1.316l-0.484-1.346l3.647-1.316l4.259-4.533l0.531,1.469l-3.223,3.273l4.561,0.436
		l0.526,1.457L317.192,714.493z"/>
	<path fill="#818181" d="M316.806,726.462l3.971-1.084l-1.004-3.676l-3.971,1.084l-0.377-1.379l9.089-2.482l0.377,1.379
		l-3.894,1.063l1.004,3.678l3.894-1.064l0.38,1.391l-9.089,2.484L316.806,726.462z"/>
	<path fill="#818181" d="M317.533,729.513l9.201-2.057l0.312,1.396l-9.201,2.055L317.533,729.513z"/>
	<path fill="#818181" d="M320.212,737.954c-0.807-0.529-1.342-1.348-1.518-2.338c-0.17-0.951,0.018-1.857,0.556-2.613
		c0.366-0.508,0.866-0.879,1.413-1.057c0.467-0.164,1.177-0.33,2.154-0.504l0.377-0.068c1.708-0.303,2.606-0.314,3.51,0.305
		c0.78,0.533,1.252,1.295,1.431,2.299c0.104,0.586,0.085,1.088-0.022,1.537c-0.127,0.492-0.319,0.85-0.709,1.457l-1.123-0.795
		c0.322-0.461,0.486-0.746,0.577-1.139c0.052-0.236,0.067-0.535,0.011-0.848c-0.16-0.9-0.799-1.553-1.731-1.574
		c-0.526-0.016-1.22,0.096-2.067,0.246l-0.299,0.053c-1.59,0.283-2.119,0.486-2.498,0.996c-0.303,0.416-0.412,0.934-0.314,1.48
		c0.108,0.613,0.451,1.104,0.931,1.381c0.432,0.232,0.913,0.295,1.538,0.184l0.509-0.09l-0.345-1.943l1.197-0.213l0.596,3.35
		l-1.406,0.25C321.726,738.532,320.954,738.427,320.212,737.954z"/>
	<path fill="#818181" d="M320.15,745.567l4.091-0.455l-0.421-3.789l-4.091,0.455l-0.158-1.42l9.365-1.043l0.158,1.42l-4.012,0.447
		l0.422,3.789l4.012-0.447l0.16,1.434l-9.365,1.043L320.15,745.567z"/>
</g>
<g>
	<path fill="#818181" d="M70.507,742.976l-0.124,1.105l-9.717,2.045l0.167-1.486l7.059-1.396l-6.578-2.908l0.168-1.5L70.507,742.976
		z"/>
	<path fill="#818181" d="M71.009,738.976l-9.285-1.596l1.021-5.945l1.265,0.217l-0.779,4.539l2.713,0.465l0.663-3.859l1.252,0.215
		l-0.663,3.859l2.791,0.479l0.779-4.537l1.266,0.217L71.009,738.976z"/>
	<path fill="#818181" d="M73.479,726.708l-4.319,1.025l-0.409,1.738l3.866,0.908l-0.327,1.393l-9.175-2.156l0.835-3.557
		c0.397-1.688,1.752-2.594,3.35-2.217c0.798,0.188,1.376,0.621,1.723,1.289c0.168,0.324,0.236,0.557,0.283,1.111l4.556-1.16
		L73.479,726.708z M65.175,726.456l-0.483,2.063l2.873,0.676l0.484-2.063c0.225-0.953-0.187-1.689-1.064-1.896
		C66.096,725.028,65.399,725.503,65.175,726.456z"/>
	<path fill="#818181" d="M71.365,719.901l3.717,1.105l-0.407,1.369l-3.717-1.105l-6.119,1.119l0.445-1.496l4.537-0.721l-3.412-3.059
		l0.441-1.484L71.365,719.901z"/>
	<path fill="#818181" d="M76.897,715.431l-8.813-3.346l0.508-1.338l7.612,2.891l1.612-4.244l1.201,0.455L76.897,715.431z"/>
	<path fill="#818181" d="M80.839,703.485c0.338,0.863,0.304,1.777-0.103,2.682c-0.402,0.895-1.063,1.525-1.933,1.848
		c-1.237,0.459-2.439-0.098-3.768-0.693l-0.459-0.207c-1.413-0.635-2.281-1.154-2.68-2.205c-0.326-0.857-0.3-1.789,0.097-2.67
		c0.401-0.895,1.08-1.533,1.938-1.859c0.975-0.359,2.005-0.1,3.224,0.449l0.604,0.27C79.234,701.763,80.349,702.249,80.839,703.485z
		 M74.273,701.724c-0.503,0.18-0.884,0.547-1.107,1.041c-0.217,0.482-0.243,1.023-0.044,1.52c0.303,0.746,1.202,1.135,2.385,1.666
		c1.099,0.494,2.146,1.037,2.952,0.732c0.508-0.193,0.884-0.545,1.107-1.041c0.227-0.508,0.248-1.035,0.044-1.52
		c-0.303-0.744-1.064-1.088-2.525-1.744C75.781,701.792,74.997,701.468,74.273,701.724z"/>
	<path fill="#818181" d="M86.458,694.753l-0.596,1.094l-6.714-1.494l4.886,4.842l-0.598,1.092l-9.456-2.357l0.723-1.324l6.716,1.795
		l-5.021-4.898l0.546-1l6.841,1.563l-5.141-4.678l0.724-1.324L86.458,694.753z"/>
</g>
<path fill="#ED1C24" d="M242.989,722.954c4.914,6.758,8.415,14.564,10.118,22.955c1.308,6.441,6.413,11.762,12.986,11.762
	c15.755,0,31.511,0,47.265,0c0.01-8.023-0.795-15.895-2.344-23.525c-3.404-16.785-10.404-32.4-20.23-45.914
	C274.853,699.806,258.921,711.38,242.989,722.954z"/>
<path fill="#10B04B" d="M147.428,722.954c-4.914,6.758-8.415,14.564-10.118,22.955c-1.308,6.441-6.414,11.762-12.986,11.762
	c-15.754,0-31.51,0-47.265,0c-0.01-8.023,0.795-15.895,2.344-23.525c3.404-16.785,10.404-32.4,20.231-45.914
	C115.565,699.806,131.496,711.38,147.428,722.954z"/>
<path fill="#F58020" d="M213.462,701.491c12.078,3.912,22.322,11.555,29.527,21.463c15.932-11.574,31.863-23.148,47.795-34.723
	c-14.412-19.822-34.903-35.115-59.063-42.939C225.635,664.024,219.548,682.759,213.462,701.491z"/>
<path fill="#FDEE14" d="M176.953,701.489c11.647-3.779,24.429-3.947,36.512-0.008c6.086-18.73,12.173-37.461,18.259-56.193
	c-24.166-7.879-49.731-7.541-73.024,0.02C164.785,664.036,170.869,682.763,176.953,701.489z"/>
<path fill="#87C540" d="M147.43,722.956c7.215-9.922,17.469-17.559,29.525-21.465c-6.086-18.729-12.17-37.455-18.261-56.2
	c-24.113,7.813-44.629,23.093-59.063,42.938C115.564,699.806,131.497,711.38,147.43,722.956z"/>
<path fill="#FFFFFF" d="M148.219,722.077l-47.796-34.725c-0.235,0.314-1.167,1.584-1.396,1.906l47.808,34.734L148.219,722.077z"/>
<path fill="#FFFFFF" d="M178.085,701.147l-18.261-56.201c-0.376,0.117-0.754,0.231-1.128,0.354s-0.742,0.262-1.115,0.387
	l18.257,56.191L178.085,701.147z"/>
<path fill="#FFFFFF" d="M214.581,701.874l18.258-56.193c-0.374-0.127-0.741-0.266-1.117-0.389c0,0,0-0.002,0.002-0.004
	c-0.375-0.121-0.751-0.236-1.127-0.354l-18.264,56.21L214.581,701.874z"/>
<path fill="#FFFFFF" d="M243.021,724.856l68.945-49.83c-0.33-0.461-0.65-0.928-0.985-1.387c-0.333-0.457-0.688-0.896-1.027-1.35
	l-68.927,49.818L243.021,724.856z"/>
<path fill="#FFFFFF" d="M215.438,702.671l25.354-81.201c-0.54-0.17-1.075-0.352-1.619-0.519c-0.54-0.167-1.089-0.306-1.632-0.466
	l-25.348,81.182L215.438,702.671z"/>
<path fill="#FFFFFF" d="M179.478,702.077l-26.751-80.752c-0.538,0.176-1.079,0.341-1.618,0.521
	c-0.536,0.181-1.063,0.388-1.597,0.574l26.744,80.73L179.478,702.077z"/>
<path fill="#FFFFFF" d="M148.918,721.839l-68.864-49.943c-0.334,0.457-0.677,0.906-1.009,1.367c-0.33,0.459-0.637,0.936-0.961,1.398
	l68.846,49.93L148.918,721.839z"/>
<g>
	<g>
		<path fill="#FFFFFF" d="M237.288,716.214c7.016-14.061,12.607-25.387,12.607-25.387c0.609-1.236,0.256-2.666-0.858-3.475
			c-1.118-0.813-2.587-0.707-3.575,0.26c0,0-8.818,8.6-19.827,19.424C229.948,709.624,233.849,712.718,237.288,716.214z"/>
		<path fill="#F6F6F5" d="M237.17,716.097c6.837-13.707,12.332-24.839,12.581-25.341c0.576-1.17,0.237-2.515-0.809-3.273
			c-1.05-0.763-2.433-0.67-3.368,0.245c-0.396,0.386-9.067,8.841-19.802,19.393C229.984,709.66,233.799,712.685,237.17,716.097z"/>
		<path fill="#F0EFEE" d="M237.053,715.981c6.659-13.355,12.057-24.292,12.553-25.296c0.544-1.104,0.219-2.363-0.759-3.072
			c-0.98-0.713-2.278-0.634-3.16,0.229c-0.791,0.772-9.316,9.083-19.777,19.362C230.021,709.695,233.75,712.652,237.053,715.981z"/>
		<path fill="#EAE9E9" d="M236.936,715.864c6.48-13.002,11.781-23.745,12.526-25.251c0.511-1.037,0.2-2.21-0.709-2.87
			c-0.912-0.663-2.124-0.597-2.953,0.215c-1.187,1.158-9.564,9.325-19.752,19.331C230.057,709.731,233.7,712.619,236.936,715.864z"
			/>
		<path fill="#E5E3E3" d="M236.819,715.748c6.301-12.649,11.505-23.197,12.499-25.205c0.479-0.971,0.182-2.059-0.659-2.669
			c-0.844-0.613-1.97-0.561-2.746,0.199c-1.583,1.544-9.813,9.567-19.727,19.301C230.094,709.768,233.65,712.587,236.819,715.748z"
			/>
		<path fill="#DFDEDD" d="M236.702,715.632c6.123-12.297,11.23-22.649,12.472-25.159c0.446-0.905,0.163-1.907-0.61-2.468
			c-0.774-0.563-1.815-0.523-2.538,0.184c-1.979,1.932-10.063,9.809-19.702,19.271C230.131,709.804,233.602,712.555,236.702,715.632
			z"/>
		<path fill="#D9D8D8" d="M236.584,715.515c5.944-11.943,10.954-22.103,12.444-25.114c0.413-0.838,0.145-1.754-0.56-2.266
			c-0.706-0.514-1.661-0.486-2.332,0.169c-2.374,2.317-10.311,10.051-19.676,19.239C230.167,709.84,233.552,712.521,236.584,715.515
			z"/>
		<path fill="#D4D3D3" d="M236.467,715.398c5.766-11.591,10.679-21.555,12.417-25.068c0.38-0.773,0.126-1.604-0.51-2.065
			c-0.637-0.463-1.506-0.449-2.124,0.154c-2.77,2.703-10.56,10.292-19.651,19.209C230.203,709.875,233.502,712.488,236.467,715.398z
			"/>
		<path fill="#CFCECE" d="M236.35,715.281c5.587-11.237,10.403-21.007,12.39-25.022c0.348-0.706,0.108-1.451-0.46-1.864
			c-0.569-0.412-1.352-0.412-1.917,0.14c-3.165,3.089-10.809,10.534-19.626,19.179C230.24,709.911,233.452,712.456,236.35,715.281z"
			/>
		<path fill="#CAC9C9" d="M236.232,715.166c5.409-10.886,10.128-20.46,12.363-24.978c0.315-0.641,0.09-1.301-0.411-1.663
			c-0.5-0.363-1.197-0.376-1.708,0.124c-3.561,3.476-11.057,10.776-19.601,19.147C230.275,709.946,233.403,712.424,236.232,715.166z
			"/>
		<path fill="#C5C4C4" d="M236.115,715.049c5.23-10.532,9.852-19.912,12.335-24.932c0.282-0.574,0.071-1.147-0.361-1.461
			c-0.432-0.313-1.043-0.34-1.501,0.108c-3.956,3.861-11.306,11.018-19.576,19.116C230.312,709.982,233.354,712.391,236.115,715.049
			z"/>
		<path fill="#C0BFBF" d="M235.997,714.933c5.052-10.18,9.577-19.365,12.309-24.887c0.25-0.508,0.053-0.996-0.312-1.26
			c-0.362-0.264-0.889-0.303-1.294,0.094c-4.352,4.248-11.555,11.26-19.551,19.086C230.349,710.019,233.304,712.358,235.997,714.933
			z"/>
	</g>
	<g>
		<path fill="#FFFFFF" d="M187.078,770.747c6.85,4.977,16.474,3.451,21.452-3.402c2.238-3.076,16.346-31.072,27.144-52.719
			c-3.05-2.873-6.428-5.422-10.068-7.609c-17.267,16.98-39.667,39.178-41.923,42.271
			C178.705,756.142,180.229,765.767,187.078,770.747z"/>
		<path fill="#F8F8F8" d="M187.109,770.703c6.827,4.96,16.416,3.44,21.377-3.39c2.285-3.141,16.33-31.021,27.149-52.722
			c-3.027-2.848-6.377-5.377-9.987-7.549c-17.312,17.018-39.619,39.117-41.923,42.276
			C178.765,756.149,180.284,765.739,187.109,770.703z"/>
		<path fill="#F3F3F2" d="M187.142,770.659c6.804,4.944,16.357,3.43,21.302-3.378c2.331-3.204,16.313-30.971,27.154-52.724
			c-3.005-2.822-6.327-5.331-9.904-7.488c-17.356,17.054-39.572,39.057-41.924,42.282
			C178.826,756.158,180.338,765.713,187.142,770.659z"/>
		<path fill="#EFEEEE" d="M187.173,770.615c6.781,4.928,16.299,3.419,21.227-3.365c2.377-3.269,16.297-30.92,27.16-52.727
			c-2.983-2.797-6.276-5.285-9.823-7.428c-17.401,17.091-39.524,38.995-41.924,42.287
			C178.886,756.166,180.393,765.686,187.173,770.615z"/>
		<path fill="#EBEAEA" d="M187.204,770.572c6.759,4.91,16.241,3.408,21.152-3.354c2.425-3.333,16.281-30.869,27.166-52.729
			c-2.961-2.771-6.226-5.24-9.742-7.367c-17.445,17.128-39.477,38.936-41.924,42.292
			C178.946,756.175,180.447,765.659,187.204,770.572z"/>
		<path fill="#E7E6E6" d="M187.236,770.529c6.735,4.894,16.183,3.396,21.078-3.342c2.47-3.397,16.264-30.818,27.17-52.732
			c-2.939-2.745-6.176-5.193-9.66-7.307c-17.49,17.165-39.429,38.875-41.924,42.298
			C179.006,756.184,180.502,765.633,187.236,770.529z"/>
		<path fill="#E3E2E2" d="M187.268,770.484c6.713,4.879,16.125,3.387,21.002-3.328c2.517-3.462,16.249-30.768,27.176-52.735
			c-2.917-2.72-6.125-5.148-9.578-7.247c-17.536,17.203-39.382,38.814-41.925,42.304
			C179.066,756.191,180.556,765.605,187.268,770.484z"/>
		<path fill="#DFDEDE" d="M187.299,770.441c6.69,4.861,16.067,3.375,20.928-3.316c2.563-3.526,16.232-30.717,27.181-52.739
			c-2.894-2.693-6.074-5.103-9.496-7.186c-17.581,17.239-39.334,38.755-41.926,42.31
			C179.127,756.199,180.61,765.578,187.299,770.441z"/>
		<path fill="#DBDBDA" d="M187.331,770.397c6.667,4.845,16.009,3.364,20.853-3.304c2.61-3.591,16.216-30.666,27.187-52.742
			c-2.872-2.668-6.024-5.057-9.415-7.125c-17.625,17.276-39.287,38.693-41.925,42.314
			C179.187,756.208,180.665,765.552,187.331,770.397z"/>
		<path fill="#D7D7D7" d="M187.362,770.354c6.645,4.828,15.951,3.354,20.778-3.292c2.657-3.654,16.2-30.615,27.192-52.744
			c-2.85-2.643-5.973-5.011-9.333-7.064c-17.67,17.313-39.238,38.633-41.925,42.319
			C179.247,756.217,180.719,765.525,187.362,770.354z"/>
		<path fill="#D3D3D3" d="M187.394,770.311c6.621,4.812,15.893,3.343,20.703-3.28c2.702-3.719,16.183-30.564,27.197-52.747
			c-2.828-2.617-5.923-4.966-9.25-7.004c-17.715,17.35-39.192,38.572-41.926,42.325
			C179.308,756.225,180.773,765.498,187.394,770.311z"/>
		<path fill="#CFD0D0" d="M187.425,770.267c6.599,4.795,15.834,3.332,20.628-3.268c2.749-3.783,16.167-30.514,27.202-52.75
			c-2.806-2.592-5.872-4.92-9.169-6.943c-17.76,17.387-39.144,38.512-41.926,42.33C179.368,756.233,180.828,765.472,187.425,770.267
			z"/>
	</g>
	<g>
		
			<linearGradient id="SVGID_1_" gradientUnits="userSpaceOnUse" x1="233.4976" y1="2573.4316" x2="264.0688" y2="2573.4316" gradientTransform="matrix(0.809 0.5878 -0.5878 0.809 1528.4135 -1500.4867)">
			<stop  offset="0" style="stop-color:#717171"/>
			<stop  offset="0.49" style="stop-color:#414141"/>
			<stop  offset="0.51" style="stop-color:#121212"/>
			<stop  offset="1" style="stop-color:#010101"/>
		</linearGradient>
		<path fill="url(#SVGID_1_)" d="M247.815,686.952c0.5-1.016-0.795-1.957-1.604-1.166c-14.077,13.744-58.872,57.607-62.942,63.193
			c-0.001,0.004-0.005,0.006-0.005,0.01c-4.796,6.598-3.331,15.832,3.268,20.627c6.597,4.795,15.831,3.33,20.626-3.27
			C211.194,760.794,239.089,704.595,247.815,686.952z"/>
		
			<linearGradient id="SVGID_2_" gradientUnits="userSpaceOnUse" x1="241.4014" y1="2610.5303" x2="256.1689" y2="2610.5303" gradientTransform="matrix(0.809 0.5878 -0.5878 0.809 1528.4135 -1500.4867)">
			<stop  offset="0" style="stop-color:#010101"/>
			<stop  offset="1" style="stop-color:#717171"/>
		</linearGradient>
		<circle fill="url(#SVGID_2_)" cx="195.211" cy="757.669" r="7.384"/>
	</g>
</g>
</svg>
