<?xml version="1.0" encoding="utf-8"?>
<!-- Generator: Adobe Illustrator 16.0.0, SVG Export Plug-In . SVG Version: 6.00 Build 0)  -->
<!DOCTYPE svg PUBLIC "-//W3C//DTD SVG 1.1//EN" "http://www.w3.org/Graphics/SVG/1.1/DTD/svg11.dtd">
<svg version="1.1" id="Layer_1" xmlns="http://www.w3.org/2000/svg" xmlns:xlink="http://www.w3.org/1999/xlink" x="0px" y="0px"
	 width="694px" height="986px" viewBox="0 0 694 986" enable-background="new 0 0 694 986" xml:space="preserve">
<g>
	<path fill="#E4E4E4" d="M336.497,542.785c-6-72.773-66.967-129.966-141.29-129.966S59.918,470.012,53.918,542.785
		c-0.535,6.486,4.822,11.809,11.33,11.809h11.815c6.525,0,11.741-5.221,12.452-11.709c5.829-53.215,50.925-94.621,105.692-94.621
		c54.768,0,99.866,41.406,105.695,94.621c0.711,6.488,5.927,11.709,12.452,11.709h11.813
		C331.676,554.594,337.032,549.271,336.497,542.785z"/>
</g>
<path fill="#FFFFFF" d="M281.925,493.051l28.68-20.836c-0.458-0.641-0.926-1.273-1.395-1.906l-28.675,20.832
	C281.005,491.773,281.469,492.41,281.925,493.051z"/>
<g>
	<path fill="#818181" d="M171.357,431.307l-1.336-6.156l-1.148,4.947l-1.034,0.227l-3.134-4.02l1.337,6.156l-1.397,0.303l-2-9.209
		l1.384-0.301l3.934,5.146l1.408-6.305l1.397-0.305l2,9.21L171.357,431.307z"/>
	<path fill="#818181" d="M180.05,429.002c-0.55,0.746-1.34,1.205-2.323,1.344c-0.969,0.138-1.856-0.084-2.59-0.648
		c-1.05-0.801-1.223-2.113-1.426-3.555l-0.07-0.498c-0.218-1.533-0.241-2.545,0.435-3.442c0.55-0.733,1.353-1.208,2.311-1.343
		c0.969-0.137,1.871,0.096,2.603,0.646c0.826,0.632,1.154,1.641,1.342,2.965l0.093,0.654
		C180.649,426.725,180.833,427.928,180.05,429.002z M178.034,422.51c-0.42-0.328-0.933-0.456-1.47-0.381
		c-0.524,0.074-0.995,0.343-1.307,0.775c-0.469,0.653-0.319,1.621-0.137,2.906c0.169,1.191,0.269,2.367,0.956,2.885
		c0.435,0.326,0.935,0.455,1.472,0.38c0.55-0.078,1.008-0.343,1.308-0.773c0.469-0.655,0.352-1.479,0.127-3.065
		C178.782,423.82,178.637,422.986,178.034,422.51z"/>
	<path fill="#818181" d="M188.983,426.621c-0.049,0.575-0.317,1.246-0.695,1.686c-0.547,0.639-1.356,0.992-2.372,1.07l-3.299,0.252
		l-0.716-9.394l3.297-0.251c1.624-0.125,2.991,0.58,3.432,2.192c0.111,0.403,0.199,0.848,0.238,1.362l0.06,0.804
		C189.003,425.32,189.022,426.088,188.983,426.621z M187.467,424.163c-0.11-1.452-0.281-1.97-0.685-2.376
		c-0.388-0.395-0.959-0.563-1.658-0.511l-1.701,0.13l0.521,6.834l1.701-0.13c0.7-0.053,1.237-0.307,1.562-0.757
		c0.337-0.463,0.422-1.093,0.304-2.623L187.467,424.163z"/>
	<path fill="#818181" d="M190.83,429.076l-0.125-9.424l6.035-0.08l0.017,1.283l-4.606,0.063l0.038,2.752l3.917-0.053l0.016,1.271
		l-3.917,0.052l0.038,2.833l4.605-0.063l0.018,1.283L190.83,429.076z"/>
	<path fill="#818181" d="M203.343,429.268l-1.795-4.061l-1.783-0.084l-0.189,3.965l-1.428-0.068l0.448-9.411l3.648,0.173
		c1.731,0.084,2.868,1.25,2.79,2.89c-0.039,0.819-0.361,1.466-0.953,1.928c-0.289,0.226-0.506,0.335-1.043,0.481l1.97,4.266
		L203.343,429.268z M202.077,421.059l-2.115-0.1l-0.14,2.947l2.114,0.101c0.979,0.046,1.627-0.491,1.67-1.392
		C203.649,421.703,203.055,421.106,202.077,421.059z"/>
	<path fill="#818181" d="M212.231,430.158l-0.438-1.957l-3.694-0.432l-0.877,1.804l-1.499-0.175l4.523-8.959l1.145,0.133l2.324,9.76
		L212.231,430.158z M210.604,422.626l-1.957,3.982l2.906,0.339L210.604,422.626z"/>
	<path fill="#818181" d="M218.268,422.887l-1.369,8.027l-1.409-0.241l1.369-8.026l-2.559-0.437l0.216-1.266l6.525,1.112
		l-0.216,1.266L218.268,422.887z"/>
	<path fill="#818181" d="M220.507,431.573l2.109-9.185l5.881,1.35l-0.287,1.252l-4.488-1.029l-0.617,2.683l3.818,0.876l-0.284,1.238
		l-3.817-0.877l-0.634,2.762l4.488,1.03l-0.287,1.251L220.507,431.573z"/>
</g>
<g>
	<path fill="#818181" d="M111.967,460.582l-6.109-7.176l1.088-0.926l5.277,6.197l3.458-2.943l0.832,0.979L111.967,460.582z"/>
	<path fill="#818181" d="M121.179,452.008c-0.12,0.918-0.588,1.703-1.381,2.301c-0.782,0.59-1.666,0.824-2.582,0.686
		c-1.305-0.191-2.091-1.256-2.967-2.418l-0.303-0.402c-0.932-1.236-1.441-2.111-1.286-3.223c0.128-0.908,0.599-1.711,1.371-2.293
		c0.781-0.59,1.684-0.822,2.592-0.694c1.027,0.153,1.805,0.877,2.608,1.944l0.399,0.528
		C120.602,449.725,121.345,450.689,121.179,452.008z M116.275,447.305c-0.528-0.084-1.038,0.053-1.471,0.379
		c-0.422,0.318-0.705,0.779-0.769,1.309c-0.094,0.799,0.506,1.574,1.287,2.609c0.725,0.961,1.381,1.941,2.234,2.063
		c0.537,0.074,1.037-0.053,1.47-0.381c0.444-0.334,0.715-0.787,0.77-1.309c0.093-0.801-0.41-1.465-1.373-2.744
		C117.562,448.089,117.032,447.43,116.275,447.305z"/>
	<path fill="#818181" d="M130.299,447.07l-1.05,0.67l-5.163-4.543l1.949,6.596l-1.048,0.67l-7.151-6.62l1.272-0.813l5.019,4.808
		l-2.039-6.711l0.959-0.613l5.243,4.666l-2.251-6.576l1.272-0.813L130.299,447.07z"/>
</g>
<g>
	<path fill="#818181" d="M262.579,448.643l2.154-3.51l-3.25-1.994l-2.155,3.51l-1.219-0.748l4.933-8.037l1.219,0.749l-2.113,3.442
		l3.251,1.996l2.112-3.443l1.23,0.755l-4.932,8.036L262.579,448.643z"/>
	<path fill="#818181" d="M265.18,450.354l5.29-7.799l1.184,0.802l-5.29,7.8L265.18,450.354z"/>
	<path fill="#818181" d="M272.917,454.672c-0.951,0.166-1.902-0.064-2.709-0.664c-0.775-0.576-1.26-1.365-1.385-2.285
		c-0.082-0.621,0.027-1.232,0.304-1.736c0.229-0.441,0.632-1.049,1.224-1.845l0.23-0.308c1.035-1.391,1.682-2.016,2.764-2.184
		c0.934-0.146,1.801,0.086,2.617,0.695c0.479,0.355,0.809,0.732,1.037,1.135c0.244,0.446,0.35,0.838,0.482,1.547l-1.363,0.189
		c-0.081-0.557-0.156-0.875-0.358-1.225c-0.126-0.209-0.319-0.436-0.575-0.625c-0.732-0.546-1.646-0.582-2.339,0.04
		c-0.394,0.351-0.823,0.905-1.337,1.595l-0.182,0.246c-0.965,1.295-1.211,1.803-1.138,2.436c0.065,0.512,0.339,0.963,0.785,1.295
		c0.499,0.371,1.085,0.494,1.624,0.367c0.473-0.127,0.867-0.41,1.246-0.92l0.309-0.414l-1.582-1.178l0.727-0.977l2.729,2.031
		l-0.854,1.146C274.415,454.055,273.78,454.506,272.917,454.672z"/>
	<path fill="#818181" d="M278.081,460.26l2.669-3.135l-2.902-2.469l-2.669,3.131l-1.087-0.926l6.108-7.174l1.088,0.928l-2.617,3.074
		l2.902,2.469l2.617-3.072l1.098,0.936l-6.108,7.174L278.081,460.26z"/>
</g>
<g>
	<path fill="#818181" d="M304.173,492.32l-0.557-0.961l6.599-7.41l0.75,1.295l-4.848,5.311l7.014-1.564l0.755,1.305L304.173,492.32z
		"/>
	<path fill="#818181" d="M306.157,495.859l8.419-4.232l2.712,5.391l-1.147,0.578l-2.069-4.115l-2.459,1.236l1.76,3.5l-1.135,0.57
		l-1.76-3.5l-2.531,1.273l2.07,4.113l-1.146,0.578L306.157,495.859z"/>
	<path fill="#818181" d="M311.452,507.197l2.871-3.391l-0.705-1.643l-3.652,1.564l-0.563-1.314l8.666-3.715l1.44,3.359
		c0.685,1.596,0.132,3.129-1.379,3.775c-0.755,0.324-1.478,0.316-2.153-0.014c-0.328-0.162-0.521-0.309-0.888-0.729l-2.98,3.641
		L311.452,507.197z M318.287,502.467l-0.835-1.947l-2.713,1.164l0.834,1.947c0.386,0.9,1.154,1.248,1.982,0.895
		C318.396,504.166,318.674,503.369,318.287,502.467z"/>
	<path fill="#818181" d="M317.192,511.416l-3.648,1.316l-0.484-1.346l3.647-1.316l4.259-4.533l0.531,1.469l-3.223,3.273l4.561,0.436
		l0.526,1.457L317.192,511.416z"/>
	<path fill="#818181" d="M316.806,523.385l3.971-1.084l-1.004-3.676l-3.971,1.084l-0.377-1.379l9.089-2.482l0.377,1.379
		l-3.894,1.063l1.004,3.678l3.894-1.064l0.38,1.391l-9.089,2.484L316.806,523.385z"/>
	<path fill="#818181" d="M317.533,526.436l9.201-2.057l0.312,1.396l-9.201,2.055L317.533,526.436z"/>
	<path fill="#818181" d="M320.212,534.877c-0.807-0.529-1.342-1.348-1.518-2.338c-0.17-0.951,0.018-1.857,0.556-2.613
		c0.366-0.508,0.866-0.879,1.413-1.057c0.467-0.164,1.177-0.33,2.154-0.504l0.377-0.068c1.708-0.303,2.606-0.314,3.51,0.305
		c0.78,0.533,1.252,1.295,1.431,2.299c0.104,0.586,0.085,1.088-0.022,1.537c-0.127,0.492-0.319,0.85-0.709,1.457l-1.123-0.795
		c0.322-0.461,0.486-0.746,0.577-1.139c0.052-0.236,0.067-0.535,0.011-0.848c-0.16-0.9-0.799-1.553-1.731-1.574
		c-0.526-0.016-1.22,0.096-2.067,0.246l-0.299,0.053c-1.59,0.283-2.119,0.486-2.498,0.996c-0.303,0.416-0.412,0.934-0.314,1.48
		c0.108,0.613,0.451,1.104,0.931,1.381c0.432,0.232,0.913,0.295,1.538,0.184l0.509-0.09l-0.345-1.943l1.197-0.213l0.596,3.35
		l-1.406,0.25C321.726,535.455,320.954,535.35,320.212,534.877z"/>
	<path fill="#818181" d="M320.15,542.49l4.091-0.455l-0.421-3.789l-4.091,0.455l-0.158-1.42l9.365-1.043l0.158,1.42l-4.012,0.447
		l0.422,3.789l4.012-0.447l0.16,1.434l-9.365,1.043L320.15,542.49z"/>
</g>
<g>
	<path fill="#818181" d="M70.507,539.898l-0.124,1.105l-9.717,2.045l0.167-1.486l7.059-1.396l-6.578-2.908l0.168-1.5L70.507,539.898
		z"/>
	<path fill="#818181" d="M71.009,535.898l-9.285-1.596l1.021-5.945l1.265,0.217l-0.779,4.539l2.713,0.465l0.663-3.859l1.252,0.215
		l-0.663,3.859l2.791,0.479l0.779-4.537l1.266,0.217L71.009,535.898z"/>
	<path fill="#818181" d="M73.479,523.631l-4.319,1.025l-0.409,1.738l3.866,0.908l-0.327,1.393l-9.175-2.156l0.835-3.557
		c0.397-1.688,1.752-2.594,3.35-2.217c0.798,0.188,1.376,0.621,1.723,1.289c0.168,0.324,0.236,0.557,0.283,1.111l4.556-1.16
		L73.479,523.631z M65.175,523.379l-0.483,2.063l2.873,0.676l0.484-2.063c0.225-0.953-0.187-1.689-1.064-1.896
		C66.096,521.951,65.399,522.426,65.175,523.379z"/>
	<path fill="#818181" d="M71.365,516.824l3.717,1.105l-0.407,1.369l-3.717-1.105l-6.119,1.119l0.445-1.496l4.537-0.721l-3.412-3.059
		l0.441-1.484L71.365,516.824z"/>
	<path fill="#818181" d="M76.897,512.354l-8.813-3.346l0.508-1.338l7.612,2.891l1.612-4.244l1.201,0.455L76.897,512.354z"/>
	<path fill="#818181" d="M80.839,500.408c0.338,0.863,0.304,1.777-0.103,2.682c-0.402,0.895-1.063,1.525-1.933,1.848
		c-1.237,0.459-2.439-0.098-3.768-0.693l-0.459-0.207c-1.413-0.635-2.281-1.154-2.68-2.205c-0.326-0.857-0.3-1.789,0.097-2.67
		c0.401-0.895,1.08-1.533,1.938-1.859c0.975-0.359,2.005-0.1,3.224,0.449l0.604,0.27C79.234,498.686,80.349,499.172,80.839,500.408z
		 M74.273,498.646c-0.503,0.18-0.884,0.547-1.107,1.041c-0.217,0.482-0.243,1.023-0.044,1.52c0.303,0.746,1.202,1.135,2.385,1.666
		c1.099,0.494,2.146,1.037,2.952,0.732c0.508-0.193,0.884-0.545,1.107-1.041c0.227-0.508,0.248-1.035,0.044-1.52
		c-0.303-0.744-1.064-1.088-2.525-1.744C75.781,498.715,74.997,498.391,74.273,498.646z"/>
	<path fill="#818181" d="M86.458,491.676l-0.596,1.094l-6.714-1.494l4.886,4.842l-0.598,1.092l-9.456-2.357l0.723-1.324l6.716,1.795
		l-5.021-4.898l0.546-1l6.841,1.563l-5.141-4.678l0.724-1.324L86.458,491.676z"/>
</g>
<path fill="#ED1C24" d="M242.989,519.877c4.914,6.758,8.415,14.564,10.118,22.955c1.308,6.441,6.413,11.762,12.986,11.762
	c15.755,0,31.511,0,47.265,0c0.01-8.023-0.795-15.895-2.344-23.525c-3.404-16.785-10.404-32.4-20.23-45.914
	C274.853,496.729,258.921,508.303,242.989,519.877z"/>
<path fill="#10B04B" d="M147.428,519.877c-4.914,6.758-8.415,14.564-10.118,22.955c-1.308,6.441-6.414,11.762-12.986,11.762
	c-15.754,0-31.51,0-47.265,0c-0.01-8.023,0.795-15.895,2.344-23.525c3.404-16.785,10.404-32.4,20.231-45.914
	C115.565,496.729,131.496,508.303,147.428,519.877z"/>
<path fill="#F58020" d="M213.462,498.414c12.078,3.912,22.322,11.555,29.527,21.463c15.932-11.574,31.863-23.148,47.795-34.723
	c-14.412-19.822-34.903-35.115-59.063-42.939C225.635,460.947,219.548,479.682,213.462,498.414z"/>
<path fill="#FDEE14" d="M176.953,498.412c11.647-3.779,24.429-3.947,36.512-0.008c6.086-18.73,12.173-37.461,18.259-56.193
	c-24.166-7.879-49.731-7.541-73.024,0.02C164.785,460.959,170.869,479.686,176.953,498.412z"/>
<path fill="#87C540" d="M147.43,519.879c7.215-9.922,17.469-17.559,29.525-21.465c-6.086-18.729-12.17-37.455-18.261-56.2
	c-24.113,7.813-44.629,23.093-59.063,42.938C115.564,496.729,131.497,508.303,147.43,519.879z"/>
<path fill="#FFFFFF" d="M148.219,519l-47.796-34.725c-0.235,0.314-1.167,1.584-1.396,1.906l47.808,34.734L148.219,519z"/>
<path fill="#FFFFFF" d="M178.085,498.07l-18.261-56.201c-0.376,0.117-0.754,0.231-1.128,0.354s-0.742,0.262-1.115,0.387
	l18.257,56.191L178.085,498.07z"/>
<path fill="#FFFFFF" d="M214.581,498.797l18.258-56.193c-0.374-0.127-0.741-0.266-1.117-0.389c0,0,0-0.002,0.002-0.004
	c-0.375-0.121-0.751-0.236-1.127-0.354l-18.264,56.21L214.581,498.797z"/>
<path fill="#FFFFFF" d="M243.021,521.779l68.945-49.83c-0.33-0.461-0.65-0.928-0.985-1.387c-0.333-0.457-0.688-0.896-1.027-1.35
	l-68.927,49.818L243.021,521.779z"/>
<path fill="#FFFFFF" d="M215.438,499.594l25.354-81.201c-0.54-0.17-1.075-0.352-1.619-0.519c-0.54-0.167-1.089-0.306-1.632-0.466
	l-25.348,81.182L215.438,499.594z"/>
<path fill="#FFFFFF" d="M179.478,499l-26.751-80.752c-0.538,0.176-1.079,0.341-1.618,0.521c-0.536,0.181-1.063,0.388-1.597,0.574
	l26.744,80.73L179.478,499z"/>
<path fill="#FFFFFF" d="M148.918,518.762l-68.864-49.943c-0.334,0.457-0.677,0.906-1.009,1.367c-0.33,0.459-0.637,0.936-0.961,1.398
	l68.846,49.93L148.918,518.762z"/>
<g>
	<g>
		<path fill="#FFFFFF" d="M205.104,495.826c-2.51-15.512-4.58-27.973-4.58-27.973c-0.227-1.359-1.349-2.314-2.725-2.32
			c-1.382-0.007-2.513,0.936-2.751,2.298c0,0-2.141,12.13-4.762,27.345C195.298,494.759,200.271,494.994,205.104,495.826z"/>
		<path fill="#F6F6F5" d="M204.941,495.8c-2.449-15.121-4.484-27.367-4.576-27.92c-0.215-1.286-1.275-2.181-2.567-2.186
			c-1.297-0.007-2.366,0.875-2.591,2.165c-0.096,0.544-2.202,12.471-4.76,27.305C195.349,494.767,200.212,494.996,204.941,495.8z"/>
		<path fill="#F0EFEE" d="M204.778,495.774c-2.388-14.73-4.388-26.763-4.571-27.867c-0.203-1.214-1.202-2.047-2.409-2.052
			c-1.213-0.006-2.22,0.815-2.433,2.031c-0.192,1.089-2.263,12.813-4.758,27.266C195.399,494.774,200.153,494.999,204.778,495.774z"
			/>
		<path fill="#EAE9E9" d="M204.615,495.748c-2.328-14.34-4.293-26.157-4.567-27.814c-0.19-1.141-1.128-1.912-2.251-1.918
			c-1.127-0.005-2.073,0.756-2.273,1.898c-0.287,1.634-2.323,13.155-4.754,27.227C195.45,494.782,200.093,495.001,204.615,495.748z"
			/>
		<path fill="#E5E3E3" d="M204.452,495.722c-2.266-13.949-4.197-25.552-4.562-27.761c-0.179-1.068-1.055-1.779-2.094-1.783
			c-1.043-0.005-1.926,0.695-2.113,1.766c-0.384,2.178-2.385,13.495-4.752,27.186C195.5,494.791,200.034,495.004,204.452,495.722z"
			/>
		<path fill="#DFDEDD" d="M204.289,495.695c-2.206-13.559-4.101-24.945-4.558-27.708c-0.166-0.995-0.98-1.644-1.936-1.648
			c-0.958-0.004-1.779,0.635-1.953,1.632c-0.479,2.723-2.445,13.838-4.75,27.146C195.551,494.799,199.975,495.006,204.289,495.695z"
			/>
		<path fill="#D9D8D8" d="M204.125,495.67c-2.145-13.168-4.006-24.342-4.554-27.656c-0.154-0.922-0.907-1.51-1.777-1.514
			c-0.873-0.004-1.633,0.574-1.794,1.498c-0.575,3.268-2.506,14.18-4.748,27.107C195.602,494.807,199.916,495.008,204.125,495.67z"
			/>
		<path fill="#D4D3D3" d="M203.962,495.644c-2.084-12.777-3.91-23.735-4.549-27.603c-0.143-0.85-0.833-1.377-1.62-1.38
			c-0.788-0.004-1.485,0.515-1.634,1.365c-0.671,3.812-2.567,14.521-4.745,27.067C195.652,494.814,199.856,495.011,203.962,495.644z
			"/>
		<path fill="#CFCECE" d="M203.799,495.617c-2.023-12.387-3.814-23.13-4.545-27.55c-0.13-0.777-0.76-1.242-1.462-1.245
			c-0.703-0.004-1.339,0.454-1.475,1.232c-0.767,4.355-2.628,14.861-4.742,27.026C195.702,494.822,199.797,495.014,203.799,495.617z
			"/>
		<path fill="#CAC9C9" d="M203.635,495.592c-1.962-11.996-3.718-22.525-4.541-27.498c-0.117-0.704-0.686-1.107-1.304-1.11
			s-1.192,0.394-1.315,1.099c-0.862,4.9-2.688,15.203-4.74,26.987C195.753,494.83,199.738,495.016,203.635,495.592z"/>
		<path fill="#C5C4C4" d="M203.472,495.565c-1.901-11.605-3.623-21.92-4.536-27.444c-0.105-0.632-0.612-0.975-1.146-0.977
			c-0.533-0.002-1.045,0.334-1.155,0.966c-0.958,5.444-2.75,15.545-4.738,26.947C195.803,494.838,199.678,495.018,203.472,495.565z"
			/>
		<path fill="#C0BFBF" d="M203.309,495.539c-1.84-11.215-3.526-21.314-4.531-27.392c-0.093-0.559-0.539-0.84-0.988-0.842
			c-0.448-0.002-0.898,0.273-0.996,0.832c-1.054,5.989-2.81,15.887-4.735,26.908C195.854,494.846,199.619,495.021,203.309,495.539z"
			/>
	</g>
	<g>
		<path fill="#FFFFFF" d="M196.164,569.412c8.467,0.043,15.391-6.813,15.433-15.283c0.022-3.805-4.863-34.771-8.729-58.65
			c-4.153-0.553-8.384-0.65-12.617-0.302c-4.109,23.866-9.342,54.964-9.369,58.793C180.84,562.439,187.695,569.366,196.164,569.412z
			"/>
		<path fill="#F8F8F8" d="M196.164,569.358c8.438,0.042,15.337-6.788,15.379-15.229c0.022-3.885-4.847-34.722-8.727-58.656
			c-4.121-0.545-8.316-0.643-12.516-0.301c-4.124,23.923-9.339,54.888-9.366,58.798
			C180.894,562.411,187.724,569.313,196.164,569.358z"/>
		<path fill="#F3F3F2" d="M196.164,569.305c8.41,0.042,15.284-6.763,15.326-15.177c0.022-3.963-4.831-34.669-8.725-58.661
			c-4.087-0.537-8.249-0.635-12.413-0.299c-4.139,23.979-9.336,54.811-9.363,58.802
			C180.948,562.383,187.752,569.259,196.164,569.305z"/>
		<path fill="#EFEEEE" d="M196.164,569.25c8.382,0.043,15.231-6.737,15.272-15.122c0.023-4.042-4.813-34.619-8.721-58.666
			c-4.054-0.53-8.181-0.628-12.312-0.298c-4.154,24.035-9.332,54.732-9.36,58.807C181.001,562.354,187.781,569.205,196.164,569.25z"
			/>
		<path fill="#EBEAEA" d="M196.164,569.196c8.354,0.043,15.177-6.712,15.219-15.068c0.022-4.121-4.798-34.568-8.719-58.672
			c-4.022-0.522-8.113-0.62-12.21-0.297c-4.168,24.092-9.329,54.657-9.357,58.812C181.055,562.326,187.81,569.152,196.164,569.196z"
			/>
		<path fill="#E7E6E6" d="M196.165,569.143c8.326,0.043,15.124-6.687,15.165-15.015c0.023-4.2-4.78-34.518-8.716-58.677
			c-3.989-0.515-8.046-0.613-12.108-0.295c-4.184,24.146-9.326,54.578-9.354,58.815
			C181.109,562.298,187.838,569.099,196.165,569.143z"/>
		<path fill="#E3E2E2" d="M196.165,569.089c8.297,0.042,15.07-6.662,15.111-14.962c0.023-4.279-4.765-34.467-8.713-58.682
			c-3.956-0.507-7.979-0.606-12.007-0.295c-4.199,24.204-9.323,54.503-9.352,58.82C181.163,562.27,187.867,569.045,196.165,569.089z
			"/>
		<path fill="#DFDEDE" d="M196.164,569.035c8.27,0.042,15.017-6.637,15.058-14.908c0.023-4.358-4.749-34.416-8.711-58.688
			c-3.923-0.499-7.911-0.598-11.905-0.293c-4.214,24.26-9.319,54.426-9.349,58.825C181.217,562.241,187.896,568.991,196.164,569.035
			z"/>
		<path fill="#DBDBDA" d="M196.165,568.98c8.241,0.043,14.962-6.611,15.004-14.854c0.023-4.438-4.732-34.365-8.708-58.693
			c-3.89-0.491-7.843-0.591-11.803-0.291c-4.229,24.316-9.316,54.349-9.346,58.829C181.271,562.213,187.924,568.938,196.165,568.98z
			"/>
		<path fill="#D7D7D7" d="M196.165,568.927c8.213,0.042,14.91-6.586,14.951-14.8c0.023-4.518-4.715-34.314-8.706-58.699
			c-3.857-0.483-7.774-0.583-11.701-0.289c-4.243,24.372-9.313,54.271-9.343,58.833
			C181.324,562.185,187.953,568.884,196.165,568.927z"/>
		<path fill="#D3D3D3" d="M196.165,568.873c8.185,0.042,14.856-6.562,14.896-14.747c0.024-4.596-4.699-34.264-8.703-58.703
			c-3.824-0.476-7.708-0.576-11.599-0.289c-4.258,24.429-9.31,54.195-9.34,58.839C181.378,562.156,187.981,568.83,196.165,568.873z"
			/>
		<path fill="#CFD0D0" d="M196.165,568.819c8.157,0.042,14.802-6.536,14.843-14.693c0.024-4.676-4.683-34.213-8.701-58.709
			c-3.791-0.468-7.64-0.568-11.498-0.287c-4.273,24.484-9.307,54.118-9.337,58.843C181.432,562.128,188.01,568.776,196.165,568.819z
			"/>
	</g>
	<g>
		
			<linearGradient id="SVGID_1_" gradientUnits="userSpaceOnUse" x1="91.2329" y1="2423.6914" x2="121.8026" y2="2423.6914" gradientTransform="matrix(1 0.0051 -0.0051 1 101.1633 -1907.2871)">
			<stop  offset="0" style="stop-color:#717171"/>
			<stop  offset="0.49" style="stop-color:#414141"/>
			<stop  offset="0.51" style="stop-color:#121212"/>
			<stop  offset="1" style="stop-color:#010101"/>
		</linearGradient>
		<path fill="url(#SVGID_1_)" d="M196.574,465.921c-0.187-1.116-1.788-1.125-1.983-0.01c-3.409,19.376-14.18,81.138-14.225,88.05
			c0.001,0.004,0,0.008,0.002,0.011c-0.044,8.156,6.536,14.8,14.692,14.842c8.155,0.043,14.798-6.536,14.84-14.693
			C209.937,547.255,199.785,485.34,196.574,465.921z"/>
		
			<linearGradient id="SVGID_2_" gradientUnits="userSpaceOnUse" x1="99.1372" y1="2460.79" x2="113.9043" y2="2460.79" gradientTransform="matrix(1 0.0051 -0.0051 1 101.1633 -1907.2871)">
			<stop  offset="0" style="stop-color:#010101"/>
			<stop  offset="1" style="stop-color:#717171"/>
		</linearGradient>
		<circle fill="url(#SVGID_2_)" cx="195.134" cy="554.046" r="7.384"/>
	</g>
</g>
</svg>
