<?xml version="1.0" encoding="utf-8"?>
<!-- Generator: Adobe Illustrator 16.0.0, SVG Export Plug-In . SVG Version: 6.00 Build 0)  -->
<!DOCTYPE svg PUBLIC "-//W3C//DTD SVG 1.1//EN" "http://www.w3.org/Graphics/SVG/1.1/DTD/svg11.dtd">
<svg version="1.1" id="Layer_1" xmlns="http://www.w3.org/2000/svg" xmlns:xlink="http://www.w3.org/1999/xlink" x="0px" y="0px"
	 width="694px" height="986px" viewBox="0 0 694 986" enable-background="new 0 0 694 986" xml:space="preserve">
<g>
	<path fill="#E4E4E4" d="M336.497,936.353c-6-72.773-66.967-129.966-141.29-129.966S59.918,863.579,53.918,936.353
		c-0.535,6.486,4.822,11.809,11.33,11.809h11.815c6.525,0,11.741-5.221,12.452-11.709c5.829-53.215,50.925-94.621,105.692-94.621
		c54.768,0,99.866,41.406,105.695,94.621c0.711,6.488,5.927,11.709,12.452,11.709h11.813
		C331.676,948.161,337.032,942.839,336.497,936.353z"/>
</g>
<path fill="#FFFFFF" d="M281.925,886.618l28.68-20.836c-0.458-0.641-0.926-1.273-1.395-1.906l-28.675,20.832
	C281.005,885.341,281.469,885.978,281.925,886.618z"/>
<g>
	<path fill="#818181" d="M171.357,824.874l-1.336-6.156l-1.148,4.947l-1.034,0.227l-3.134-4.02l1.337,6.156l-1.397,0.303l-2-9.209
		l1.384-0.301l3.934,5.146l1.408-6.305l1.397-0.305l2,9.21L171.357,824.874z"/>
	<path fill="#818181" d="M180.05,822.569c-0.55,0.746-1.34,1.205-2.323,1.344c-0.969,0.138-1.856-0.084-2.59-0.648
		c-1.05-0.801-1.223-2.113-1.426-3.555l-0.07-0.498c-0.218-1.533-0.241-2.545,0.435-3.442c0.55-0.733,1.353-1.208,2.311-1.343
		c0.969-0.137,1.871,0.096,2.603,0.646c0.826,0.632,1.154,1.641,1.342,2.965l0.093,0.654
		C180.649,820.292,180.833,821.495,180.05,822.569z M178.034,816.077c-0.42-0.328-0.933-0.456-1.47-0.381
		c-0.524,0.074-0.995,0.343-1.307,0.775c-0.469,0.653-0.319,1.621-0.137,2.906c0.169,1.191,0.269,2.367,0.956,2.885
		c0.435,0.326,0.935,0.455,1.472,0.38c0.55-0.078,1.008-0.343,1.308-0.773c0.469-0.655,0.352-1.479,0.127-3.065
		C178.782,817.388,178.637,816.554,178.034,816.077z"/>
	<path fill="#818181" d="M188.983,820.188c-0.049,0.575-0.317,1.246-0.695,1.686c-0.547,0.639-1.356,0.992-2.372,1.07l-3.299,0.252
		l-0.716-9.394l3.297-0.251c1.624-0.125,2.991,0.58,3.432,2.192c0.111,0.403,0.199,0.848,0.238,1.362l0.06,0.804
		C189.003,818.888,189.022,819.655,188.983,820.188z M187.467,817.73c-0.11-1.452-0.281-1.97-0.685-2.376
		c-0.388-0.395-0.959-0.563-1.658-0.511l-1.701,0.13l0.521,6.834l1.701-0.13c0.7-0.053,1.237-0.307,1.562-0.757
		c0.337-0.463,0.422-1.093,0.304-2.623L187.467,817.73z"/>
	<path fill="#818181" d="M190.83,822.644l-0.125-9.424l6.035-0.08l0.017,1.283l-4.606,0.063l0.038,2.752l3.917-0.053l0.016,1.271
		l-3.917,0.052l0.038,2.833l4.605-0.063l0.018,1.283L190.83,822.644z"/>
	<path fill="#818181" d="M203.343,822.835l-1.795-4.061l-1.783-0.084l-0.189,3.965l-1.428-0.068l0.448-9.411l3.648,0.173
		c1.731,0.084,2.868,1.25,2.79,2.89c-0.039,0.819-0.361,1.466-0.953,1.928c-0.289,0.226-0.506,0.335-1.043,0.481l1.97,4.266
		L203.343,822.835z M202.077,814.626l-2.115-0.1l-0.14,2.947l2.114,0.101c0.979,0.046,1.627-0.491,1.67-1.392
		C203.649,815.271,203.055,814.674,202.077,814.626z"/>
	<path fill="#818181" d="M212.231,823.726l-0.438-1.957l-3.694-0.432l-0.877,1.804l-1.499-0.175l4.523-8.959l1.145,0.133l2.324,9.76
		L212.231,823.726z M210.604,816.193l-1.957,3.982l2.906,0.339L210.604,816.193z"/>
	<path fill="#818181" d="M218.268,816.454l-1.369,8.027l-1.409-0.241l1.369-8.026l-2.559-0.437l0.216-1.266l6.525,1.112
		l-0.216,1.266L218.268,816.454z"/>
	<path fill="#818181" d="M220.507,825.141l2.109-9.185l5.881,1.35l-0.287,1.252l-4.488-1.029l-0.617,2.683l3.818,0.876l-0.284,1.238
		l-3.817-0.877l-0.634,2.762l4.488,1.03l-0.287,1.251L220.507,825.141z"/>
</g>
<g>
	<path fill="#818181" d="M111.967,854.149l-6.109-7.176l1.088-0.926l5.277,6.197l3.458-2.943l0.832,0.979L111.967,854.149z"/>
	<path fill="#818181" d="M121.179,845.575c-0.12,0.918-0.588,1.703-1.381,2.301c-0.782,0.59-1.666,0.824-2.582,0.686
		c-1.305-0.191-2.091-1.256-2.967-2.418l-0.303-0.402c-0.932-1.236-1.441-2.111-1.286-3.223c0.128-0.908,0.599-1.711,1.371-2.293
		c0.781-0.59,1.684-0.822,2.592-0.694c1.027,0.153,1.805,0.877,2.608,1.944l0.399,0.528
		C120.602,843.292,121.345,844.257,121.179,845.575z M116.275,840.872c-0.528-0.084-1.038,0.053-1.471,0.379
		c-0.422,0.318-0.705,0.779-0.769,1.309c-0.094,0.799,0.506,1.574,1.287,2.609c0.725,0.961,1.381,1.941,2.234,2.063
		c0.537,0.074,1.037-0.053,1.47-0.381c0.444-0.334,0.715-0.787,0.77-1.309c0.093-0.801-0.41-1.465-1.373-2.744
		C117.562,841.656,117.032,840.997,116.275,840.872z"/>
	<path fill="#818181" d="M130.299,840.638l-1.05,0.67l-5.163-4.543l1.949,6.596l-1.048,0.67l-7.151-6.62l1.272-0.813l5.019,4.808
		l-2.039-6.711l0.959-0.613l5.243,4.666l-2.251-6.576l1.272-0.813L130.299,840.638z"/>
</g>
<g>
	<path fill="#818181" d="M262.579,842.21l2.154-3.51l-3.25-1.994l-2.155,3.51l-1.219-0.748l4.933-8.037l1.219,0.749l-2.113,3.442
		l3.251,1.996l2.112-3.443l1.23,0.755l-4.932,8.036L262.579,842.21z"/>
	<path fill="#818181" d="M265.18,843.921l5.29-7.799l1.184,0.802l-5.29,7.8L265.18,843.921z"/>
	<path fill="#818181" d="M272.917,848.239c-0.951,0.166-1.902-0.064-2.709-0.664c-0.775-0.576-1.26-1.365-1.385-2.285
		c-0.082-0.621,0.027-1.232,0.304-1.736c0.229-0.441,0.632-1.049,1.224-1.845l0.23-0.308c1.035-1.391,1.682-2.016,2.764-2.184
		c0.934-0.146,1.801,0.086,2.617,0.695c0.479,0.355,0.809,0.732,1.037,1.135c0.244,0.446,0.35,0.838,0.482,1.547l-1.363,0.189
		c-0.081-0.557-0.156-0.875-0.358-1.225c-0.126-0.209-0.319-0.436-0.575-0.625c-0.732-0.546-1.646-0.582-2.339,0.04
		c-0.394,0.351-0.823,0.905-1.337,1.595l-0.182,0.246c-0.965,1.295-1.211,1.803-1.138,2.436c0.065,0.512,0.339,0.963,0.785,1.295
		c0.499,0.371,1.085,0.494,1.624,0.367c0.473-0.127,0.867-0.41,1.246-0.92l0.309-0.414l-1.582-1.178l0.727-0.977l2.729,2.031
		l-0.854,1.146C274.415,847.622,273.78,848.073,272.917,848.239z"/>
	<path fill="#818181" d="M278.081,853.827l2.669-3.135l-2.902-2.469l-2.669,3.131l-1.087-0.926l6.108-7.174l1.088,0.928
		l-2.617,3.074l2.902,2.469l2.617-3.072l1.098,0.936l-6.108,7.174L278.081,853.827z"/>
</g>
<g>
	<path fill="#818181" d="M304.173,885.888l-0.557-0.961l6.599-7.41l0.75,1.295l-4.848,5.311l7.014-1.564l0.755,1.305
		L304.173,885.888z"/>
	<path fill="#818181" d="M306.157,889.427l8.419-4.232l2.712,5.391l-1.147,0.578l-2.069-4.115l-2.459,1.236l1.76,3.5l-1.135,0.57
		l-1.76-3.5l-2.531,1.273l2.07,4.113l-1.146,0.578L306.157,889.427z"/>
	<path fill="#818181" d="M311.452,900.765l2.871-3.391l-0.705-1.643l-3.652,1.564l-0.563-1.314l8.666-3.715l1.44,3.359
		c0.685,1.596,0.132,3.129-1.379,3.775c-0.755,0.324-1.478,0.316-2.153-0.014c-0.328-0.162-0.521-0.309-0.888-0.729l-2.98,3.641
		L311.452,900.765z M318.287,896.034l-0.835-1.947l-2.713,1.164l0.834,1.947c0.386,0.9,1.154,1.248,1.982,0.895
		C318.396,897.733,318.674,896.937,318.287,896.034z"/>
	<path fill="#818181" d="M317.192,904.983l-3.648,1.316l-0.484-1.346l3.647-1.316l4.259-4.533l0.531,1.469l-3.223,3.273l4.561,0.436
		l0.526,1.457L317.192,904.983z"/>
	<path fill="#818181" d="M316.806,916.952l3.971-1.084l-1.004-3.676l-3.971,1.084l-0.377-1.379l9.089-2.482l0.377,1.379
		l-3.894,1.063l1.004,3.678l3.894-1.064l0.38,1.391l-9.089,2.484L316.806,916.952z"/>
	<path fill="#818181" d="M317.533,920.003l9.201-2.057l0.312,1.396l-9.201,2.055L317.533,920.003z"/>
	<path fill="#818181" d="M320.212,928.444c-0.807-0.529-1.342-1.348-1.518-2.338c-0.17-0.951,0.018-1.857,0.556-2.613
		c0.366-0.508,0.866-0.879,1.413-1.057c0.467-0.164,1.177-0.33,2.154-0.504l0.377-0.068c1.708-0.303,2.606-0.314,3.51,0.305
		c0.78,0.533,1.252,1.295,1.431,2.299c0.104,0.586,0.085,1.088-0.022,1.537c-0.127,0.492-0.319,0.85-0.709,1.457l-1.123-0.795
		c0.322-0.461,0.486-0.746,0.577-1.139c0.052-0.236,0.067-0.535,0.011-0.848c-0.16-0.9-0.799-1.553-1.731-1.574
		c-0.526-0.016-1.22,0.096-2.067,0.246l-0.299,0.053c-1.59,0.283-2.119,0.486-2.498,0.996c-0.303,0.416-0.412,0.934-0.314,1.48
		c0.108,0.613,0.451,1.104,0.931,1.381c0.432,0.232,0.913,0.295,1.538,0.184l0.509-0.09l-0.345-1.943l1.197-0.213l0.596,3.35
		l-1.406,0.25C321.726,929.022,320.954,928.917,320.212,928.444z"/>
	<path fill="#818181" d="M320.15,936.058l4.091-0.455l-0.421-3.789l-4.091,0.455l-0.158-1.42l9.365-1.043l0.158,1.42l-4.012,0.447
		l0.422,3.789l4.012-0.447l0.16,1.434l-9.365,1.043L320.15,936.058z"/>
</g>
<g>
	<path fill="#818181" d="M70.507,933.466l-0.124,1.105l-9.717,2.045l0.167-1.486l7.059-1.396l-6.578-2.908l0.168-1.5L70.507,933.466
		z"/>
	<path fill="#818181" d="M71.009,929.466l-9.285-1.596l1.021-5.945l1.265,0.217l-0.779,4.539l2.713,0.465l0.663-3.859l1.252,0.215
		l-0.663,3.859l2.791,0.479l0.779-4.537l1.266,0.217L71.009,929.466z"/>
	<path fill="#818181" d="M73.479,917.198l-4.319,1.025l-0.409,1.738l3.866,0.908l-0.327,1.393l-9.175-2.156l0.835-3.557
		c0.397-1.688,1.752-2.594,3.35-2.217c0.798,0.188,1.376,0.621,1.723,1.289c0.168,0.324,0.236,0.557,0.283,1.111l4.556-1.16
		L73.479,917.198z M65.175,916.946l-0.483,2.063l2.873,0.676l0.484-2.063c0.225-0.953-0.187-1.689-1.064-1.896
		C66.096,915.519,65.399,915.993,65.175,916.946z"/>
	<path fill="#818181" d="M71.365,910.392l3.717,1.105l-0.407,1.369l-3.717-1.105l-6.119,1.119l0.445-1.496l4.537-0.721l-3.412-3.059
		l0.441-1.484L71.365,910.392z"/>
	<path fill="#818181" d="M76.897,905.921l-8.813-3.346l0.508-1.338l7.612,2.891l1.612-4.244l1.201,0.455L76.897,905.921z"/>
	<path fill="#818181" d="M80.839,893.976c0.338,0.863,0.304,1.777-0.103,2.682c-0.402,0.895-1.063,1.525-1.933,1.848
		c-1.237,0.459-2.439-0.098-3.768-0.693l-0.459-0.207c-1.413-0.635-2.281-1.154-2.68-2.205c-0.326-0.857-0.3-1.789,0.097-2.67
		c0.401-0.895,1.08-1.533,1.938-1.859c0.975-0.359,2.005-0.1,3.224,0.449l0.604,0.27C79.234,892.253,80.349,892.739,80.839,893.976z
		 M74.273,892.214c-0.503,0.18-0.884,0.547-1.107,1.041c-0.217,0.482-0.243,1.023-0.044,1.52c0.303,0.746,1.202,1.135,2.385,1.666
		c1.099,0.494,2.146,1.037,2.952,0.732c0.508-0.193,0.884-0.545,1.107-1.041c0.227-0.508,0.248-1.035,0.044-1.52
		c-0.303-0.744-1.064-1.088-2.525-1.744C75.781,892.282,74.997,891.958,74.273,892.214z"/>
	<path fill="#818181" d="M86.458,885.243l-0.596,1.094l-6.714-1.494l4.886,4.842l-0.598,1.092l-9.456-2.357l0.723-1.324l6.716,1.795
		l-5.021-4.898l0.546-1l6.841,1.563l-5.141-4.678l0.724-1.324L86.458,885.243z"/>
</g>
<path fill="#ED1C24" d="M242.989,913.444c4.914,6.758,8.415,14.564,10.118,22.955c1.308,6.441,6.413,11.762,12.986,11.762
	c15.755,0,31.511,0,47.265,0c0.01-8.023-0.795-15.895-2.344-23.525c-3.404-16.785-10.404-32.4-20.23-45.914
	C274.853,890.296,258.921,901.87,242.989,913.444z"/>
<path fill="#10B04B" d="M147.428,913.444c-4.914,6.758-8.415,14.564-10.118,22.955c-1.308,6.441-6.414,11.762-12.986,11.762
	c-15.754,0-31.51,0-47.265,0c-0.01-8.023,0.795-15.895,2.344-23.525c3.404-16.785,10.404-32.4,20.231-45.914
	C115.565,890.296,131.496,901.87,147.428,913.444z"/>
<path fill="#F58020" d="M213.462,891.981c12.078,3.912,22.322,11.555,29.527,21.463c15.932-11.574,31.863-23.148,47.795-34.723
	c-14.412-19.822-34.903-35.115-59.063-42.939C225.635,854.515,219.548,873.249,213.462,891.981z"/>
<path fill="#FDEE14" d="M176.953,891.979c11.647-3.779,24.429-3.947,36.512-0.008c6.086-18.73,12.173-37.461,18.259-56.193
	c-24.166-7.879-49.731-7.541-73.024,0.02C164.785,854.526,170.869,873.253,176.953,891.979z"/>
<path fill="#87C540" d="M147.43,913.446c7.215-9.922,17.469-17.559,29.525-21.465c-6.086-18.729-12.17-37.455-18.261-56.2
	c-24.113,7.813-44.629,23.093-59.063,42.938C115.564,890.296,131.497,901.87,147.43,913.446z"/>
<path fill="#FFFFFF" d="M148.219,912.567l-47.796-34.725c-0.235,0.314-1.167,1.584-1.396,1.906l47.808,34.734L148.219,912.567z"/>
<path fill="#FFFFFF" d="M178.085,891.638l-18.261-56.201c-0.376,0.117-0.754,0.231-1.128,0.354s-0.742,0.262-1.115,0.387
	l18.257,56.191L178.085,891.638z"/>
<path fill="#FFFFFF" d="M214.581,892.364l18.258-56.193c-0.374-0.127-0.741-0.266-1.117-0.389c0,0,0-0.002,0.002-0.004
	c-0.375-0.121-0.751-0.236-1.127-0.354l-18.264,56.21L214.581,892.364z"/>
<path fill="#FFFFFF" d="M243.021,915.347l68.945-49.83c-0.33-0.461-0.65-0.928-0.985-1.387c-0.333-0.457-0.688-0.896-1.027-1.35
	l-68.927,49.818L243.021,915.347z"/>
<path fill="#FFFFFF" d="M215.438,893.161l25.354-81.201c-0.54-0.17-1.075-0.352-1.619-0.519c-0.54-0.167-1.089-0.306-1.632-0.466
	l-25.348,81.182L215.438,893.161z"/>
<path fill="#FFFFFF" d="M179.478,892.567l-26.751-80.752c-0.538,0.176-1.079,0.341-1.618,0.521
	c-0.536,0.181-1.063,0.388-1.597,0.574l26.744,80.73L179.478,892.567z"/>
<path fill="#FFFFFF" d="M148.918,912.329l-68.864-49.943c-0.334,0.457-0.677,0.906-1.009,1.367c-0.33,0.459-0.637,0.936-0.961,1.398
	l68.846,49.93L148.918,912.329z"/>
<g>
	<g>
		<path fill="#FFFFFF" d="M254.267,940.399c14.308-6.494,25.788-11.764,25.788-11.764c1.253-0.576,1.879-1.908,1.523-3.239
			c-0.356-1.335-1.563-2.18-2.939-2.052c0,0-12.266,1.12-27.636,2.586C252.721,930.658,253.8,935.519,254.267,940.399z"/>
		<path fill="#F6F6F5" d="M254.249,940.235c13.947-6.333,25.229-11.513,25.739-11.746c1.185-0.546,1.769-1.802,1.435-3.052
			c-0.335-1.253-1.466-2.054-2.77-1.933c-0.55,0.051-12.611,1.151-27.596,2.578C252.727,930.709,253.782,935.462,254.249,940.235z"
			/>
		<path fill="#F0EFEE" d="M254.231,940.07c13.586-6.171,24.67-11.261,25.688-11.728c1.119-0.514,1.659-1.695,1.347-2.863
			c-0.313-1.171-1.369-1.928-2.598-1.814c-1.101,0.102-12.958,1.183-27.559,2.57C252.733,930.76,253.765,935.405,254.231,940.07z"/>
		<path fill="#EAE9E9" d="M254.214,939.906c13.225-6.01,24.111-11.01,25.639-11.71c1.051-0.483,1.549-1.589,1.259-2.676
			c-0.291-1.089-1.272-1.802-2.428-1.694c-1.651,0.151-13.303,1.213-27.519,2.561C252.738,930.811,253.747,935.348,254.214,939.906z
			"/>
		<path fill="#E5E3E3" d="M254.196,939.742c12.864-5.849,23.553-10.759,25.589-11.691c0.984-0.453,1.439-1.483,1.17-2.488
			c-0.269-1.007-1.176-1.677-2.257-1.576c-2.202,0.202-13.648,1.244-27.48,2.554C252.744,930.861,253.729,935.292,254.196,939.742z"
			/>
		<path fill="#DFDEDD" d="M254.179,939.578c12.503-5.688,22.994-10.508,25.54-11.673c0.916-0.423,1.328-1.378,1.081-2.302
			c-0.247-0.924-1.079-1.55-2.087-1.457c-2.752,0.254-13.994,1.275-27.441,2.546C252.75,930.912,253.711,935.235,254.179,939.578z"
			/>
		<path fill="#D9D8D8" d="M254.161,939.414c12.143-5.526,22.435-10.257,25.49-11.656c0.85-0.391,1.219-1.271,0.994-2.112
			c-0.226-0.843-0.983-1.425-1.917-1.338c-3.303,0.304-14.339,1.306-27.402,2.537C252.755,930.963,253.693,935.179,254.161,939.414z
			"/>
		<path fill="#D4D3D3" d="M254.143,939.249c11.782-5.364,21.876-10.005,25.44-11.637c0.783-0.36,1.108-1.165,0.905-1.925
			c-0.203-0.762-0.886-1.299-1.746-1.22c-3.854,0.354-14.685,1.337-27.363,2.529C252.761,931.014,253.675,935.121,254.143,939.249z"
			/>
		<path fill="#CFCECE" d="M254.125,939.085c11.42-5.203,21.317-9.754,25.39-11.619c0.716-0.33,0.999-1.059,0.817-1.737
			s-0.79-1.173-1.576-1.101c-4.404,0.405-15.031,1.368-27.325,2.521C252.767,931.064,253.657,935.064,254.125,939.085z"/>
		<path fill="#CAC9C9" d="M254.108,938.92c11.06-5.041,20.758-9.502,25.34-11.601c0.648-0.298,0.889-0.952,0.729-1.55
			c-0.16-0.597-0.693-1.047-1.406-0.981c-4.954,0.456-15.375,1.398-27.285,2.514C252.772,931.115,253.639,935.008,254.108,938.92z"
			/>
		<path fill="#C5C4C4" d="M254.09,938.756c10.699-4.88,20.2-9.251,25.291-11.582c0.581-0.269,0.778-0.847,0.641-1.363
			c-0.138-0.514-0.596-0.92-1.235-0.861c-5.504,0.506-15.721,1.429-27.247,2.505C252.778,931.166,253.622,934.951,254.09,938.756z"
			/>
		<path fill="#C0BFBF" d="M254.072,938.592c10.338-4.719,19.641-9,25.241-11.564c0.514-0.237,0.668-0.74,0.552-1.175
			c-0.116-0.433-0.5-0.795-1.064-0.743c-6.055,0.557-16.067,1.46-27.208,2.497C252.784,931.217,253.604,934.895,254.072,938.592z"/>
	</g>
	<g>
		<path fill="#FFFFFF" d="M180.916,951.096c2.181,8.181,10.615,13.063,18.799,10.879c3.677-0.979,32.274-13.823,54.299-23.824
			c-0.557-4.153-1.573-8.261-3.021-12.255c-24.107,2.303-55.489,5.419-59.19,6.398C183.62,934.479,178.736,942.913,180.916,951.096z
			"/>
		<path fill="#F8F8F8" d="M180.967,951.081c2.173,8.153,10.576,13.018,18.734,10.842c3.753-0.999,32.229-13.794,54.305-23.823
			c-0.555-4.119-1.562-8.193-2.995-12.156c-24.166,2.304-55.414,5.401-59.194,6.402
			C183.661,934.523,178.795,942.927,180.967,951.081z"/>
		<path fill="#F3F3F2" d="M181.02,951.067c2.166,8.126,10.538,12.973,18.667,10.804c3.83-1.02,32.185-13.765,54.312-23.822
			c-0.555-4.085-1.552-8.126-2.971-12.057c-24.223,2.303-55.338,5.385-59.197,6.406C183.703,934.568,178.854,942.939,181.02,951.067
			z"/>
		<path fill="#EFEEEE" d="M181.071,951.053c2.159,8.1,10.5,12.928,18.602,10.767c3.906-1.04,32.14-13.735,54.317-23.821
			c-0.554-4.052-1.542-8.059-2.945-11.959c-24.282,2.305-55.264,5.368-59.201,6.41C183.744,934.612,178.913,942.953,181.071,951.053
			z"/>
		<path fill="#EBEAEA" d="M181.124,951.039c2.152,8.072,10.461,12.883,18.536,10.729c3.982-1.061,32.095-13.706,54.323-23.819
			c-0.552-4.019-1.531-7.991-2.92-11.86c-24.339,2.304-55.188,5.352-59.204,6.414C183.785,934.657,178.973,942.967,181.124,951.039z
			"/>
		<path fill="#E7E6E6" d="M181.176,951.025c2.145,8.045,10.423,12.838,18.47,10.69c4.06-1.081,32.051-13.677,54.33-23.817
			c-0.551-3.984-1.521-7.924-2.894-11.763c-24.398,2.306-55.114,5.334-59.208,6.419C183.827,934.701,179.032,942.98,181.176,951.025
			z"/>
		<path fill="#E3E2E2" d="M181.228,951.011c2.137,8.018,10.385,12.792,18.404,10.653c4.136-1.102,32.006-13.647,54.335-23.817
			c-0.55-3.95-1.511-7.856-2.869-11.663c-24.456,2.306-55.038,5.317-59.211,6.423C183.868,934.746,179.091,942.994,181.228,951.011z
			"/>
		<path fill="#DFDEDE" d="M181.279,950.997c2.13,7.99,10.347,12.747,18.339,10.615c4.212-1.122,31.961-13.618,54.341-23.815
			c-0.549-3.917-1.5-7.789-2.844-11.565c-24.514,2.307-54.963,5.3-59.215,6.427C183.91,934.79,179.15,943.007,181.279,950.997z"/>
		<path fill="#DBDBDA" d="M181.332,950.982c2.123,7.964,10.308,12.703,18.272,10.578c4.289-1.143,31.917-13.59,54.347-23.814
			c-0.548-3.883-1.49-7.723-2.818-11.467c-24.572,2.307-54.889,5.283-59.219,6.431C183.951,934.835,179.21,943.021,181.332,950.982z
			"/>
		<path fill="#D7D7D7" d="M181.384,950.969c2.115,7.936,10.27,12.657,18.207,10.54c4.365-1.163,31.872-13.561,54.354-23.813
			c-0.547-3.85-1.48-7.654-2.793-11.367c-24.631,2.307-54.813,5.266-59.222,6.434C183.992,934.879,179.269,943.033,181.384,950.969z
			"/>
		<path fill="#D3D3D3" d="M181.435,950.954c2.108,7.909,10.232,12.613,18.141,10.503c4.442-1.184,31.828-13.531,54.36-23.813
			c-0.546-3.815-1.47-7.587-2.768-11.269c-24.689,2.307-54.738,5.249-59.227,6.438C184.034,934.923,179.328,943.047,181.435,950.954
			z"/>
		<path fill="#CFD0D0" d="M181.487,950.94c2.101,7.882,10.194,12.567,18.075,10.465c4.519-1.204,31.783-13.502,54.366-23.812
			c-0.545-3.781-1.459-7.52-2.743-11.17c-24.747,2.308-54.663,5.232-59.229,6.442C184.075,934.968,179.387,943.061,181.487,950.94z"
			/>
	</g>
	<g>
		
			<linearGradient id="SVGID_1_" gradientUnits="userSpaceOnUse" x1="371.877" y1="2746.5752" x2="402.4482" y2="2746.5752" gradientTransform="matrix(0.2577 0.9662 -0.9662 0.2577 2785.2869 -145.3659)">
			<stop  offset="0" style="stop-color:#717171"/>
			<stop  offset="0.49" style="stop-color:#414141"/>
			<stop  offset="0.51" style="stop-color:#121212"/>
			<stop  offset="1" style="stop-color:#010101"/>
		</linearGradient>
		<path fill="url(#SVGID_1_)" d="M280.883,924.315c1.028-0.473,0.616-2.02-0.511-1.916c-19.591,1.799-82.015,7.623-88.695,9.395
			c-0.004,0.002-0.007,0.002-0.01,0.005c-7.882,2.1-12.564,10.192-10.462,18.074c2.1,7.88,10.192,12.563,18.075,10.461
			C205.912,958.567,262.988,932.514,280.883,924.315z"/>
		
			<linearGradient id="SVGID_2_" gradientUnits="userSpaceOnUse" x1="379.7822" y1="2783.6758" x2="394.5498" y2="2783.6758" gradientTransform="matrix(0.2577 0.9662 -0.9662 0.2577 2785.2869 -145.3659)">
			<stop  offset="0" style="stop-color:#010101"/>
			<stop  offset="1" style="stop-color:#717171"/>
		</linearGradient>
		<circle fill="url(#SVGID_2_)" cx="195.472" cy="946.067" r="7.384"/>
	</g>
</g>
</svg>
