<?xml version="1.0" encoding="utf-8"?>
<!-- Generator: Adobe Illustrator 16.0.0, SVG Export Plug-In . SVG Version: 6.00 Build 0)  -->
<!DOCTYPE svg PUBLIC "-//W3C//DTD SVG 1.1//EN" "http://www.w3.org/Graphics/SVG/1.1/DTD/svg11.dtd">
<svg version="1.1" id="Layer_1" xmlns="http://www.w3.org/2000/svg" xmlns:xlink="http://www.w3.org/1999/xlink" x="0px" y="0px"
	 width="694px" height="986px" viewBox="0 0 694 986" enable-background="new 0 0 694 986" xml:space="preserve">
<g>
	<path fill="#E4E4E4" d="M336.497,353.555c-6-72.774-66.967-129.966-141.29-129.966S59.918,280.78,53.918,353.555
		c-0.535,6.486,4.822,11.809,11.33,11.809h11.815c6.525,0,11.741-5.222,12.452-11.709c5.829-53.215,50.925-94.622,105.692-94.622
		c54.768,0,99.866,41.407,105.695,94.622c0.711,6.487,5.927,11.709,12.452,11.709h11.813
		C331.676,365.363,337.032,360.041,336.497,353.555z"/>
</g>
<path fill="#FFFFFF" d="M281.925,303.82l28.68-20.836c-0.458-0.642-0.926-1.274-1.395-1.907l-28.675,20.833
	C281.005,302.542,281.469,303.18,281.925,303.82z"/>
<g>
	<path fill="#818181" d="M171.357,242.076l-1.336-6.157l-1.148,4.948l-1.034,0.226l-3.134-4.019l1.337,6.156l-1.397,0.303l-2-9.208
		l1.384-0.301l3.934,5.146l1.408-6.305l1.397-0.304l2,9.209L171.357,242.076z"/>
	<path fill="#818181" d="M180.05,239.771c-0.55,0.746-1.34,1.206-2.323,1.344c-0.969,0.138-1.856-0.084-2.59-0.649
		c-1.05-0.8-1.223-2.112-1.426-3.554l-0.07-0.499c-0.218-1.533-0.241-2.545,0.435-3.442c0.55-0.733,1.353-1.208,2.311-1.343
		c0.969-0.137,1.871,0.096,2.603,0.647c0.826,0.632,1.154,1.641,1.342,2.964l0.093,0.655
		C180.649,237.493,180.833,238.697,180.05,239.771z M178.034,233.279c-0.42-0.328-0.933-0.456-1.47-0.38
		c-0.524,0.074-0.995,0.342-1.307,0.774c-0.469,0.654-0.319,1.622-0.137,2.906c0.169,1.191,0.269,2.368,0.956,2.885
		c0.435,0.327,0.935,0.456,1.472,0.38c0.55-0.078,1.008-0.343,1.308-0.773c0.469-0.655,0.352-1.48,0.127-3.066
		C178.782,234.589,178.637,233.755,178.034,233.279z"/>
	<path fill="#818181" d="M188.983,237.391c-0.049,0.575-0.317,1.246-0.695,1.686c-0.547,0.639-1.356,0.992-2.372,1.07l-3.299,0.251
		l-0.716-9.393l3.297-0.251c1.624-0.124,2.991,0.581,3.432,2.193c0.111,0.403,0.199,0.848,0.238,1.362l0.06,0.804
		C189.003,236.089,189.022,236.856,188.983,237.391z M187.467,234.932c-0.11-1.452-0.281-1.969-0.685-2.376
		c-0.388-0.395-0.959-0.563-1.658-0.51l-1.701,0.129l0.521,6.834l1.701-0.129c0.7-0.053,1.237-0.307,1.562-0.756
		c0.337-0.463,0.422-1.093,0.304-2.624L187.467,234.932z"/>
	<path fill="#818181" d="M190.83,239.845l-0.125-9.423l6.035-0.08l0.017,1.283l-4.606,0.062l0.038,2.752l3.917-0.052l0.016,1.271
		l-3.917,0.052l0.038,2.833l4.605-0.062l0.018,1.283L190.83,239.845z"/>
	<path fill="#818181" d="M203.343,240.036l-1.795-4.06l-1.783-0.084l-0.189,3.964l-1.428-0.068l0.448-9.411l3.648,0.173
		c1.731,0.083,2.868,1.25,2.79,2.889c-0.039,0.819-0.361,1.466-0.953,1.928c-0.289,0.226-0.506,0.334-1.043,0.481l1.97,4.267
		L203.343,240.036z M202.077,231.828l-2.115-0.1l-0.14,2.947l2.114,0.101c0.979,0.046,1.627-0.492,1.67-1.391
		C203.649,232.473,203.055,231.875,202.077,231.828z"/>
	<path fill="#818181" d="M212.231,240.927l-0.438-1.956l-3.694-0.432l-0.877,1.803l-1.499-0.175l4.523-8.958l1.145,0.133l2.324,9.76
		L212.231,240.927z M210.604,233.395l-1.957,3.982l2.906,0.339L210.604,233.395z"/>
	<path fill="#818181" d="M218.268,233.656l-1.369,8.027l-1.409-0.241l1.369-8.026l-2.559-0.437l0.216-1.266l6.525,1.113
		l-0.216,1.266L218.268,233.656z"/>
	<path fill="#818181" d="M220.507,242.342l2.109-9.184l5.881,1.35l-0.287,1.252l-4.488-1.03l-0.617,2.683l3.818,0.876l-0.284,1.238
		l-3.817-0.877l-0.634,2.761l4.488,1.031l-0.287,1.251L220.507,242.342z"/>
</g>
<g>
	<path fill="#818181" d="M111.967,271.351l-6.109-7.176l1.088-0.926l5.277,6.198l3.458-2.944l0.832,0.979L111.967,271.351z"/>
	<path fill="#818181" d="M121.179,262.776c-0.12,0.919-0.588,1.703-1.381,2.301c-0.782,0.59-1.666,0.825-2.582,0.687
		c-1.305-0.192-2.091-1.257-2.967-2.419l-0.303-0.402c-0.932-1.235-1.441-2.11-1.286-3.223c0.128-0.908,0.599-1.711,1.371-2.292
		c0.781-0.59,1.684-0.822,2.592-0.695c1.027,0.153,1.805,0.877,2.608,1.944l0.399,0.528
		C120.602,260.494,121.345,261.459,121.179,262.776z M116.275,258.073c-0.528-0.084-1.038,0.053-1.471,0.379
		c-0.422,0.319-0.705,0.78-0.769,1.31c-0.094,0.799,0.506,1.574,1.287,2.608c0.725,0.962,1.381,1.941,2.234,2.063
		c0.537,0.074,1.037-0.053,1.47-0.38c0.444-0.335,0.715-0.788,0.77-1.31c0.093-0.8-0.41-1.465-1.373-2.744
		C117.562,258.858,117.032,258.198,116.275,258.073z"/>
	<path fill="#818181" d="M130.299,257.839l-1.05,0.67l-5.163-4.542l1.949,6.596l-1.048,0.67l-7.151-6.621l1.272-0.813l5.019,4.808
		l-2.039-6.711l0.959-0.613l5.243,4.665l-2.251-6.576l1.272-0.813L130.299,257.839z"/>
</g>
<g>
	<path fill="#818181" d="M262.579,259.412l2.154-3.51l-3.25-1.994l-2.155,3.51l-1.219-0.749l4.933-8.037l1.219,0.749l-2.113,3.443
		l3.251,1.995l2.112-3.443l1.23,0.755l-4.932,8.037L262.579,259.412z"/>
	<path fill="#818181" d="M265.18,261.122l5.29-7.798l1.184,0.802l-5.29,7.799L265.18,261.122z"/>
	<path fill="#818181" d="M272.917,265.44c-0.951,0.167-1.902-0.063-2.709-0.664c-0.775-0.576-1.26-1.365-1.385-2.284
		c-0.082-0.622,0.027-1.233,0.304-1.737c0.229-0.44,0.632-1.048,1.224-1.844l0.23-0.308c1.035-1.391,1.682-2.016,2.764-2.183
		c0.934-0.147,1.801,0.085,2.617,0.695c0.479,0.355,0.809,0.733,1.037,1.134c0.244,0.447,0.35,0.838,0.482,1.547l-1.363,0.19
		c-0.081-0.557-0.156-0.875-0.358-1.225c-0.126-0.209-0.319-0.436-0.575-0.626c-0.732-0.545-1.646-0.581-2.339,0.041
		c-0.394,0.351-0.823,0.905-1.337,1.595l-0.182,0.245c-0.965,1.296-1.211,1.804-1.138,2.437c0.065,0.511,0.339,0.963,0.785,1.295
		c0.499,0.371,1.085,0.493,1.624,0.367c0.473-0.127,0.867-0.411,1.246-0.921l0.309-0.414l-1.582-1.178l0.727-0.977l2.729,2.031
		l-0.854,1.147C274.415,264.824,273.78,265.275,272.917,265.44z"/>
	<path fill="#818181" d="M278.081,271.028l2.669-3.134l-2.902-2.47l-2.669,3.132l-1.087-0.926l6.108-7.174l1.088,0.927l-2.617,3.074
		l2.902,2.47l2.617-3.072l1.098,0.935l-6.108,7.174L278.081,271.028z"/>
</g>
<g>
	<path fill="#818181" d="M304.173,303.09l-0.557-0.962l6.599-7.41l0.75,1.295l-4.848,5.311l7.014-1.564l0.755,1.306L304.173,303.09z
		"/>
	<path fill="#818181" d="M306.157,306.629l8.419-4.232l2.712,5.391l-1.147,0.577l-2.069-4.115l-2.459,1.237l1.76,3.499l-1.135,0.571
		l-1.76-3.5l-2.531,1.272l2.07,4.114l-1.146,0.578L306.157,306.629z"/>
	<path fill="#818181" d="M311.452,317.967l2.871-3.391l-0.705-1.644l-3.652,1.565l-0.563-1.315l8.666-3.714l1.44,3.359
		c0.685,1.595,0.132,3.129-1.379,3.775c-0.755,0.323-1.478,0.316-2.153-0.014c-0.328-0.162-0.521-0.31-0.888-0.729l-2.98,3.64
		L311.452,317.967z M318.287,313.236l-0.835-1.947l-2.713,1.163l0.834,1.948c0.386,0.9,1.154,1.248,1.982,0.894
		C318.396,314.935,318.674,314.138,318.287,313.236z"/>
	<path fill="#818181" d="M317.192,322.185l-3.648,1.316l-0.484-1.345l3.647-1.316l4.259-4.534l0.531,1.47l-3.223,3.273l4.561,0.436
		l0.526,1.457L317.192,322.185z"/>
	<path fill="#818181" d="M316.806,334.153l3.971-1.084l-1.004-3.676l-3.971,1.084l-0.377-1.379l9.089-2.482l0.377,1.379
		l-3.894,1.063l1.004,3.678l3.894-1.063l0.38,1.391l-9.089,2.483L316.806,334.153z"/>
	<path fill="#818181" d="M317.533,337.204l9.201-2.056l0.312,1.396l-9.201,2.056L317.533,337.204z"/>
	<path fill="#818181" d="M320.212,345.646c-0.807-0.529-1.342-1.348-1.518-2.338c-0.17-0.951,0.018-1.858,0.556-2.613
		c0.366-0.508,0.866-0.879,1.413-1.058c0.467-0.163,1.177-0.329,2.154-0.504l0.377-0.067c1.708-0.304,2.606-0.314,3.51,0.304
		c0.78,0.534,1.252,1.296,1.431,2.3c0.104,0.586,0.085,1.087-0.022,1.536c-0.127,0.493-0.319,0.85-0.709,1.457l-1.123-0.795
		c0.322-0.46,0.486-0.745,0.577-1.138c0.052-0.237,0.067-0.535,0.011-0.849c-0.16-0.899-0.799-1.552-1.731-1.574
		c-0.526-0.015-1.22,0.097-2.067,0.246l-0.299,0.054c-1.59,0.282-2.119,0.485-2.498,0.995c-0.303,0.417-0.412,0.935-0.314,1.481
		c0.108,0.612,0.451,1.103,0.931,1.381c0.432,0.232,0.913,0.294,1.538,0.184l0.509-0.091l-0.345-1.942l1.197-0.214l0.596,3.351
		l-1.406,0.249C321.726,346.225,320.954,346.119,320.212,345.646z"/>
	<path fill="#818181" d="M320.15,353.26l4.091-0.456l-0.421-3.789l-4.091,0.456l-0.158-1.421l9.365-1.043l0.158,1.421l-4.012,0.447
		l0.422,3.788l4.012-0.447l0.16,1.435l-9.365,1.043L320.15,353.26z"/>
</g>
<g>
	<path fill="#818181" d="M70.507,350.668l-0.124,1.105l-9.717,2.045l0.167-1.487l7.059-1.396l-6.578-2.908l0.168-1.5L70.507,350.668
		z"/>
	<path fill="#818181" d="M71.009,346.667l-9.285-1.595l1.021-5.946l1.265,0.217l-0.779,4.539l2.713,0.466l0.663-3.86l1.252,0.215
		l-0.663,3.86l2.791,0.479l0.779-4.538l1.266,0.217L71.009,346.667z"/>
	<path fill="#818181" d="M73.479,334.399l-4.319,1.025l-0.409,1.739l3.866,0.908l-0.327,1.393l-9.175-2.156l0.835-3.557
		c0.397-1.688,1.752-2.594,3.35-2.218c0.798,0.188,1.376,0.622,1.723,1.289c0.168,0.324,0.236,0.558,0.283,1.112l4.556-1.16
		L73.479,334.399z M65.175,334.148l-0.483,2.062l2.873,0.676l0.484-2.062c0.225-0.954-0.187-1.689-1.064-1.896
		C66.096,332.72,65.399,333.195,65.175,334.148z"/>
	<path fill="#818181" d="M71.365,327.593l3.717,1.105l-0.407,1.369l-3.717-1.105l-6.119,1.12l0.445-1.496l4.537-0.722l-3.412-3.059
		l0.441-1.484L71.365,327.593z"/>
	<path fill="#818181" d="M76.897,323.123l-8.813-3.347l0.508-1.337l7.612,2.891l1.612-4.245l1.201,0.456L76.897,323.123z"/>
	<path fill="#818181" d="M80.839,311.178c0.338,0.863,0.304,1.776-0.103,2.682c-0.402,0.895-1.063,1.525-1.933,1.847
		c-1.237,0.459-2.439-0.097-3.768-0.693l-0.459-0.206c-1.413-0.635-2.281-1.155-2.68-2.205c-0.326-0.858-0.3-1.79,0.097-2.671
		c0.401-0.895,1.08-1.532,1.938-1.858c0.975-0.36,2.005-0.1,3.224,0.448l0.604,0.271C79.234,309.454,80.349,309.941,80.839,311.178z
		 M74.273,309.415c-0.503,0.181-0.884,0.547-1.107,1.042c-0.217,0.482-0.243,1.022-0.044,1.519c0.303,0.746,1.202,1.135,2.385,1.667
		c1.099,0.494,2.146,1.037,2.952,0.731c0.508-0.192,0.884-0.545,1.107-1.04c0.227-0.508,0.248-1.036,0.044-1.52
		c-0.303-0.745-1.064-1.088-2.525-1.745C75.781,309.483,74.997,309.16,74.273,309.415z"/>
	<path fill="#818181" d="M86.458,302.445l-0.596,1.093l-6.714-1.493l4.886,4.841l-0.598,1.093l-9.456-2.357l0.723-1.325l6.716,1.796
		l-5.021-4.899l0.546-1l6.841,1.563l-5.141-4.679l0.724-1.324L86.458,302.445z"/>
</g>
<path fill="#ED1C24" d="M242.989,330.646c4.914,6.758,8.415,14.563,10.118,22.955c1.308,6.441,6.413,11.762,12.986,11.762
	c15.755,0,31.511,0,47.265,0c0.01-8.024-0.795-15.896-2.344-23.525c-3.404-16.785-10.404-32.401-20.23-45.915
	C274.853,307.498,258.921,319.072,242.989,330.646z"/>
<path fill="#10B04B" d="M147.428,330.646c-4.914,6.758-8.415,14.563-10.118,22.955c-1.308,6.441-6.414,11.762-12.986,11.762
	c-15.754,0-31.51,0-47.265,0c-0.01-8.024,0.795-15.896,2.344-23.525c3.404-16.785,10.404-32.401,20.231-45.915
	C115.565,307.498,131.496,319.072,147.428,330.646z"/>
<path fill="#F58020" d="M213.462,309.184c12.078,3.912,22.322,11.554,29.527,21.463c15.932-11.574,31.863-23.148,47.795-34.724
	c-14.412-19.821-34.903-35.114-59.063-42.938C225.635,271.717,219.548,290.451,213.462,309.184z"/>
<path fill="#FDEE14" d="M176.953,309.182c11.647-3.78,24.429-3.947,36.512-0.009c6.086-18.73,12.173-37.461,18.259-56.192
	c-24.166-7.879-49.731-7.542-73.024,0.02C164.785,271.728,170.869,290.454,176.953,309.182z"/>
<path fill="#87C540" d="M147.43,330.648c7.215-9.922,17.469-17.559,29.525-21.465c-6.086-18.729-12.17-37.456-18.261-56.201
	c-24.113,7.813-44.629,23.092-59.063,42.938C115.564,307.497,131.497,319.072,147.43,330.648z"/>
<path fill="#FFFFFF" d="M148.219,329.77l-47.796-34.726c-0.235,0.315-1.167,1.585-1.396,1.906l47.808,34.734L148.219,329.77z"/>
<path fill="#FFFFFF" d="M178.085,308.839l-18.261-56.201c-0.376,0.118-0.754,0.232-1.128,0.354s-0.742,0.261-1.115,0.387
	l18.257,56.192L178.085,308.839z"/>
<path fill="#FFFFFF" d="M214.581,309.565l18.258-56.193c-0.374-0.126-0.741-0.266-1.117-0.388c0-0.001,0-0.002,0.002-0.004
	c-0.375-0.122-0.751-0.236-1.127-0.355l-18.264,56.209L214.581,309.565z"/>
<path fill="#FFFFFF" d="M243.021,332.548l68.945-49.83c-0.33-0.461-0.65-0.927-0.985-1.386c-0.333-0.457-0.688-0.896-1.027-1.351
	L241.027,329.8L243.021,332.548z"/>
<path fill="#FFFFFF" d="M215.438,310.363l25.354-81.201c-0.54-0.171-1.075-0.353-1.619-0.519c-0.54-0.167-1.089-0.306-1.632-0.466
	l-25.348,81.181L215.438,310.363z"/>
<path fill="#FFFFFF" d="M179.478,309.77l-26.751-80.752c-0.538,0.176-1.079,0.341-1.618,0.522c-0.536,0.18-1.063,0.387-1.597,0.573
	l26.744,80.731L179.478,309.77z"/>
<path fill="#FFFFFF" d="M148.918,329.531l-68.864-49.944c-0.334,0.457-0.677,0.906-1.009,1.368c-0.33,0.459-0.637,0.935-0.961,1.397
	l68.846,49.931L148.918,329.531z"/>
<g>
	<g>
		<path fill="#FFFFFF" d="M170.469,311.565c-10.834-11.38-19.583-20.491-19.583-20.491c-0.955-0.994-2.421-1.148-3.561-0.375
			c-1.144,0.775-1.544,2.192-0.971,3.451c0,0,5.087,11.218,11.52,25.252C161.775,316.226,166.011,313.61,170.469,311.565z"/>
		<path fill="#F6F6F5" d="M170.319,311.636c-10.563-11.092-19.162-20.045-19.55-20.45c-0.904-0.94-2.285-1.08-3.354-0.354
			c-1.074,0.728-1.458,2.06-0.915,3.25c0.229,0.503,5.23,11.534,11.5,25.218C161.821,316.204,165.964,313.646,170.319,311.636z"/>
		<path fill="#F0EFEE" d="M170.17,311.707c-10.292-10.804-18.741-19.601-19.517-20.409c-0.853-0.888-2.147-1.01-3.147-0.332
			c-1.004,0.68-1.371,1.927-0.858,3.05c0.458,1.007,5.373,11.85,11.479,25.184C161.868,316.182,165.916,313.681,170.17,311.707z"/>
		<path fill="#EAE9E9" d="M170.021,311.777c-10.022-10.517-18.32-19.155-19.483-20.368c-0.802-0.834-2.012-0.941-2.942-0.311
			c-0.933,0.633-1.283,1.795-0.802,2.851c0.686,1.51,5.516,12.166,11.46,25.15C161.914,316.159,165.869,313.716,170.021,311.777z"/>
		<path fill="#E5E3E3" d="M169.871,311.848c-9.751-10.229-17.899-18.71-19.449-20.327c-0.751-0.781-1.875-0.872-2.735-0.288
			c-0.863,0.584-1.196,1.662-0.746,2.65c0.914,2.014,5.659,12.482,11.439,25.115C161.96,316.138,165.821,313.752,169.871,311.848z"
			/>
		<path fill="#DFDEDD" d="M169.723,311.919c-9.48-9.941-17.479-18.265-19.416-20.286c-0.7-0.728-1.739-0.803-2.529-0.267
			c-0.793,0.537-1.109,1.529-0.689,2.45c1.143,2.517,5.801,12.799,11.419,25.082C162.006,316.116,165.774,313.788,169.723,311.919z"
			/>
		<path fill="#D9D8D8" d="M169.572,311.99c-9.209-9.653-17.057-17.82-19.382-20.245c-0.649-0.675-1.603-0.734-2.323-0.245
			c-0.722,0.489-1.022,1.396-0.633,2.25c1.371,3.02,5.944,13.115,11.399,25.047C162.052,316.094,165.727,313.823,169.572,311.99z"/>
		<path fill="#D4D3D3" d="M169.423,312.061c-8.939-9.365-16.636-17.375-19.349-20.204c-0.598-0.621-1.466-0.665-2.116-0.223
			c-0.652,0.442-0.936,1.264-0.577,2.049c1.6,3.524,6.087,13.431,11.378,25.014C162.098,316.071,165.679,313.858,169.423,312.061z"
			/>
		<path fill="#CFCECE" d="M169.274,312.132c-8.667-9.078-16.215-16.93-19.315-20.164c-0.547-0.567-1.33-0.596-1.911-0.201
			c-0.582,0.395-0.848,1.131-0.521,1.85c1.828,4.027,6.229,13.747,11.358,24.979C162.144,316.05,165.631,313.894,169.274,312.132z"
			/>
		<path fill="#CAC9C9" d="M169.124,312.202c-8.396-8.789-15.794-16.484-19.282-20.123c-0.495-0.515-1.192-0.527-1.704-0.179
			c-0.512,0.347-0.761,0.998-0.465,1.649c2.057,4.53,6.374,14.064,11.338,24.946C162.19,316.027,165.584,313.93,169.124,312.202z"/>
		<path fill="#C5C4C4" d="M168.975,312.273c-8.126-8.502-15.374-16.039-19.249-20.082c-0.445-0.461-1.056-0.458-1.498-0.157
			c-0.441,0.298-0.674,0.865-0.408,1.449c2.286,5.034,6.516,14.379,11.318,24.912C162.236,316.005,165.536,313.965,168.975,312.273z
			"/>
		<path fill="#C0BFBF" d="M168.826,312.344c-7.855-8.214-14.952-15.594-19.215-20.041c-0.394-0.408-0.92-0.389-1.292-0.136
			c-0.371,0.251-0.587,0.732-0.352,1.249c2.514,5.537,6.659,14.696,11.298,24.877C162.282,315.983,165.489,314,168.826,312.344z"/>
	</g>
	<g>
		<path fill="#FFFFFF" d="M204.671,377.332c7.009-4.749,8.848-14.317,4.098-21.33c-2.131-3.151-23.66-25.941-40.341-43.458
			c-3.74,1.891-7.285,4.2-10.581,6.88c10.094,22.013,23.347,50.628,25.49,53.803C188.087,380.237,197.658,382.078,204.671,377.332z"
			/>
		<path fill="#F8F8F8" d="M204.641,377.287c6.985-4.733,8.818-14.267,4.084-21.256c-2.176-3.217-23.618-25.909-40.342-43.465
			c-3.708,1.879-7.225,4.168-10.496,6.824c10.113,22.067,23.306,50.563,25.495,53.804
			C188.115,380.183,197.651,382.018,204.641,377.287z"/>
		<path fill="#F3F3F2" d="M204.61,377.243c6.962-4.717,8.788-14.216,4.07-21.181c-2.221-3.282-23.576-25.876-40.344-43.47
			c-3.677,1.866-7.165,4.136-10.411,6.767c10.133,22.122,23.266,50.497,25.5,53.807C188.144,380.129,197.644,381.958,204.61,377.243
			z"/>
		<path fill="#EFEEEE" d="M204.58,377.198c6.939-4.701,8.758-14.165,4.056-21.106c-2.265-3.349-23.533-25.844-40.344-43.477
			c-3.646,1.854-7.105,4.104-10.327,6.711c10.152,22.177,23.225,50.432,25.504,53.809
			C188.172,380.075,197.638,381.897,204.58,377.198z"/>
		<path fill="#EBEAEA" d="M204.55,377.153c6.916-4.686,8.728-14.113,4.042-21.032c-2.31-3.414-23.491-25.811-40.345-43.482
			c-3.614,1.842-7.045,4.072-10.242,6.654c10.171,22.231,23.184,50.367,25.509,53.811
			C188.201,380.021,197.631,381.837,204.55,377.153z"/>
		<path fill="#E7E6E6" d="M204.52,377.109c6.893-4.67,8.698-14.063,4.028-20.958c-2.354-3.479-23.449-25.779-40.346-43.488
			c-3.583,1.83-6.985,4.04-10.157,6.599c10.191,22.286,23.144,50.301,25.514,53.813C188.229,379.968,197.624,381.776,204.52,377.109
			z"/>
		<path fill="#E3E2E2" d="M204.488,377.064c6.87-4.653,8.669-14.012,4.015-20.883c-2.398-3.544-23.406-25.746-40.347-43.494
			c-3.55,1.817-6.925,4.008-10.071,6.542c10.21,22.341,23.103,50.236,25.518,53.814
			C188.257,379.914,197.618,381.716,204.488,377.064z"/>
		<path fill="#DFDEDE" d="M204.458,377.02c6.847-4.638,8.639-13.961,4.001-20.808c-2.444-3.61-23.364-25.714-40.348-43.5
			c-3.519,1.805-6.865,3.976-9.987,6.486c10.23,22.396,23.063,50.171,25.523,53.817C188.286,379.859,197.61,381.656,204.458,377.02z
			"/>
		<path fill="#DBDBDA" d="M204.428,376.976c6.824-4.622,8.609-13.91,3.987-20.734c-2.489-3.675-23.322-25.681-40.349-43.506
			c-3.487,1.793-6.806,3.944-9.902,6.43c10.249,22.45,23.021,50.105,25.528,53.819C188.313,379.806,197.604,381.595,204.428,376.976
			z"/>
		<path fill="#D7D7D7" d="M204.397,376.931c6.8-4.605,8.579-13.859,3.973-20.659c-2.533-3.741-23.28-25.647-40.349-43.512
			c-3.456,1.781-6.746,3.912-9.818,6.373c10.269,22.505,22.981,50.041,25.533,53.821
			C188.342,379.752,197.598,381.535,204.397,376.931z"/>
		<path fill="#D3D3D3" d="M204.367,376.886c6.777-4.59,8.549-13.808,3.959-20.584c-2.578-3.807-23.238-25.616-40.351-43.518
			c-3.424,1.769-6.685,3.88-9.732,6.316c10.288,22.56,22.94,49.975,25.538,53.823C188.37,379.698,197.59,381.475,204.367,376.886z"
			/>
		<path fill="#CFD0D0" d="M204.337,376.842c6.754-4.574,8.519-13.757,3.945-20.51c-2.623-3.872-23.195-25.583-40.351-43.524
			c-3.393,1.756-6.625,3.848-9.648,6.26c10.308,22.615,22.899,49.91,25.542,53.825C188.399,379.645,197.584,381.415,204.337,376.842
			z"/>
	</g>
	<g>
		
			<linearGradient id="SVGID_1_" gradientUnits="userSpaceOnUse" x1="-40.1455" y1="2278.3076" x2="-9.5738" y2="2278.3076" gradientTransform="matrix(0.8279 -0.5608 0.5608 0.8279 -1082.7638 -1565.6332)">
			<stop  offset="0" style="stop-color:#717171"/>
			<stop  offset="0.49" style="stop-color:#414141"/>
			<stop  offset="0.51" style="stop-color:#121212"/>
			<stop  offset="1" style="stop-color:#010101"/>
		</linearGradient>
		<path fill="url(#SVGID_1_)" d="M146.534,291.712c-0.785-0.816-2.111,0.082-1.643,1.112c8.136,17.913,34.145,74.958,38.015,80.686
			c0.002,0.002,0.003,0.006,0.006,0.007c4.573,6.755,13.756,8.519,20.508,3.944c6.753-4.573,8.518-13.754,3.943-20.508
			C203.514,351.268,160.156,305.919,146.534,291.712z"/>
		
			<linearGradient id="SVGID_2_" gradientUnits="userSpaceOnUse" x1="-32.2407" y1="2315.4102" x2="-17.4727" y2="2315.4102" gradientTransform="matrix(0.8279 -0.5608 0.5608 0.8279 -1082.7638 -1565.6332)">
			<stop  offset="0" style="stop-color:#010101"/>
			<stop  offset="1" style="stop-color:#717171"/>
		</linearGradient>
		<path fill="url(#SVGID_2_)" d="M201.252,361.094c2.286,3.378,1.404,7.967-1.974,10.254c-3.375,2.287-7.966,1.403-10.252-1.972
			c-2.289-3.376-1.406-7.967,1.971-10.253C194.374,356.835,198.964,357.718,201.252,361.094z"/>
	</g>
</g>
</svg>
