<?xml version="1.0" encoding="utf-8"?>
<!-- Generator: Adobe Illustrator 16.0.0, SVG Export Plug-In . SVG Version: 6.00 Build 0)  -->
<!DOCTYPE svg PUBLIC "-//W3C//DTD SVG 1.1//EN" "http://www.w3.org/Graphics/SVG/1.1/DTD/svg11.dtd">
<svg version="1.1" id="Layer_1" xmlns="http://www.w3.org/2000/svg" xmlns:xlink="http://www.w3.org/1999/xlink" x="0px" y="0px"
	 width="694px" height="986px" viewBox="0 0 694 986" enable-background="new 0 0 694 986" xml:space="preserve">
<g>
	<path fill="#E4E4E4" d="M336.497,158.17c-6-72.774-66.967-129.966-141.29-129.966S59.918,85.396,53.918,158.17
		c-0.535,6.486,4.822,11.809,11.33,11.809h11.815c6.525,0,11.741-5.222,12.452-11.709c5.829-53.215,50.925-94.622,105.692-94.622
		c54.768,0,99.866,41.407,105.695,94.622c0.711,6.487,5.927,11.709,12.452,11.709h11.813
		C331.676,169.979,337.032,164.657,336.497,158.17z"/>
</g>
<path fill="#FFFFFF" d="M281.925,108.436l28.68-20.836c-0.458-0.642-0.926-1.274-1.395-1.907l-28.675,20.833
	C281.005,107.158,281.469,107.795,281.925,108.436z"/>
<g>
	<path fill="#818181" d="M171.357,46.692l-1.336-6.157l-1.148,4.948l-1.034,0.226l-3.134-4.019l1.337,6.156l-1.397,0.303l-2-9.208
		l1.384-0.301l3.934,5.146l1.408-6.305l1.397-0.304l2,9.209L171.357,46.692z"/>
	<path fill="#818181" d="M180.05,44.387c-0.55,0.746-1.34,1.206-2.323,1.344c-0.969,0.138-1.856-0.084-2.59-0.649
		c-1.05-0.8-1.223-2.112-1.426-3.554l-0.07-0.499c-0.218-1.533-0.241-2.545,0.435-3.442c0.55-0.733,1.353-1.208,2.311-1.343
		c0.969-0.137,1.871,0.096,2.603,0.647c0.826,0.632,1.154,1.641,1.342,2.964l0.093,0.655
		C180.649,42.109,180.833,43.313,180.05,44.387z M178.034,37.895c-0.42-0.328-0.933-0.456-1.47-0.38
		c-0.524,0.074-0.995,0.342-1.307,0.774c-0.469,0.654-0.319,1.622-0.137,2.906c0.169,1.191,0.269,2.368,0.956,2.885
		c0.435,0.327,0.935,0.456,1.472,0.38c0.55-0.078,1.008-0.343,1.308-0.773c0.469-0.655,0.352-1.48,0.127-3.066
		C178.782,39.205,178.637,38.371,178.034,37.895z"/>
	<path fill="#818181" d="M188.983,42.006c-0.049,0.575-0.317,1.246-0.695,1.686c-0.547,0.639-1.356,0.992-2.372,1.07l-3.299,0.251
		l-0.716-9.393l3.297-0.251c1.624-0.124,2.991,0.581,3.432,2.193c0.111,0.403,0.199,0.848,0.238,1.362l0.06,0.804
		C189.003,40.705,189.022,41.472,188.983,42.006z M187.467,39.548c-0.11-1.452-0.281-1.969-0.685-2.376
		c-0.388-0.395-0.959-0.563-1.658-0.51l-1.701,0.129l0.521,6.834l1.701-0.129c0.7-0.053,1.237-0.307,1.562-0.756
		c0.337-0.463,0.422-1.093,0.304-2.624L187.467,39.548z"/>
	<path fill="#818181" d="M190.83,44.46l-0.125-9.423l6.035-0.08l0.017,1.283l-4.606,0.062l0.038,2.752l3.917-0.052l0.016,1.271
		l-3.917,0.052l0.038,2.833l4.605-0.062l0.018,1.283L190.83,44.46z"/>
	<path fill="#818181" d="M203.343,44.652l-1.795-4.06l-1.783-0.084l-0.189,3.964l-1.428-0.068l0.448-9.411l3.648,0.173
		c1.731,0.083,2.868,1.25,2.79,2.889c-0.039,0.819-0.361,1.466-0.953,1.928c-0.289,0.226-0.506,0.334-1.043,0.481l1.97,4.267
		L203.343,44.652z M202.077,36.444l-2.115-0.1l-0.14,2.947l2.114,0.101c0.979,0.046,1.627-0.492,1.67-1.391
		C203.649,37.088,203.055,36.491,202.077,36.444z"/>
	<path fill="#818181" d="M212.231,45.542l-0.438-1.956l-3.694-0.432l-0.877,1.803l-1.499-0.175l4.523-8.958l1.145,0.133l2.324,9.76
		L212.231,45.542z M210.604,38.011l-1.957,3.982l2.906,0.339L210.604,38.011z"/>
	<path fill="#818181" d="M218.268,38.272l-1.369,8.027l-1.409-0.241l1.369-8.026l-2.559-0.437l0.216-1.266l6.525,1.113l-0.216,1.266
		L218.268,38.272z"/>
	<path fill="#818181" d="M220.507,46.958l2.109-9.184l5.881,1.35l-0.287,1.252l-4.488-1.03l-0.617,2.683l3.818,0.876l-0.284,1.238
		l-3.817-0.877l-0.634,2.761l4.488,1.031l-0.287,1.251L220.507,46.958z"/>
</g>
<g>
	<path fill="#818181" d="M111.967,75.966l-6.109-7.176l1.088-0.926l5.277,6.198l3.458-2.944l0.832,0.979L111.967,75.966z"/>
	<path fill="#818181" d="M121.179,67.392c-0.12,0.919-0.588,1.703-1.381,2.301c-0.782,0.59-1.666,0.825-2.582,0.687
		c-1.305-0.192-2.091-1.257-2.967-2.419l-0.303-0.402c-0.932-1.235-1.441-2.11-1.286-3.223c0.128-0.908,0.599-1.711,1.371-2.292
		c0.781-0.59,1.684-0.822,2.592-0.695c1.027,0.153,1.805,0.877,2.608,1.944l0.399,0.528
		C120.602,65.11,121.345,66.075,121.179,67.392z M116.275,62.689c-0.528-0.084-1.038,0.053-1.471,0.379
		c-0.422,0.319-0.705,0.78-0.769,1.31c-0.094,0.799,0.506,1.574,1.287,2.608c0.725,0.962,1.381,1.941,2.234,2.063
		c0.537,0.074,1.037-0.053,1.47-0.38c0.444-0.335,0.715-0.788,0.77-1.31c0.093-0.8-0.41-1.465-1.373-2.744
		C117.562,63.474,117.032,62.814,116.275,62.689z"/>
	<path fill="#818181" d="M130.299,62.455l-1.05,0.67l-5.163-4.542l1.949,6.596l-1.048,0.67l-7.151-6.621l1.272-0.813l5.019,4.808
		l-2.039-6.711l0.959-0.613l5.243,4.665l-2.251-6.576l1.272-0.813L130.299,62.455z"/>
</g>
<g>
	<path fill="#818181" d="M262.579,64.028l2.154-3.51l-3.25-1.994l-2.155,3.51l-1.219-0.749l4.933-8.037l1.219,0.749l-2.113,3.443
		l3.251,1.995l2.112-3.443l1.23,0.755l-4.932,8.037L262.579,64.028z"/>
	<path fill="#818181" d="M265.18,65.738l5.29-7.798l1.184,0.802l-5.29,7.799L265.18,65.738z"/>
	<path fill="#818181" d="M272.917,70.056c-0.951,0.167-1.902-0.063-2.709-0.664c-0.775-0.576-1.26-1.365-1.385-2.284
		c-0.082-0.622,0.027-1.233,0.304-1.737c0.229-0.44,0.632-1.048,1.224-1.844l0.23-0.308c1.035-1.391,1.682-2.016,2.764-2.183
		c0.934-0.147,1.801,0.085,2.617,0.695c0.479,0.355,0.809,0.733,1.037,1.134c0.244,0.447,0.35,0.838,0.482,1.547l-1.363,0.19
		c-0.081-0.557-0.156-0.875-0.358-1.225c-0.126-0.209-0.319-0.436-0.575-0.626c-0.732-0.545-1.646-0.581-2.339,0.041
		c-0.394,0.351-0.823,0.905-1.337,1.595l-0.182,0.245c-0.965,1.296-1.211,1.804-1.138,2.437c0.065,0.511,0.339,0.963,0.785,1.295
		c0.499,0.371,1.085,0.493,1.624,0.367c0.473-0.127,0.867-0.411,1.246-0.921l0.309-0.414l-1.582-1.178l0.727-0.977l2.729,2.031
		l-0.854,1.147C274.415,69.44,273.78,69.891,272.917,70.056z"/>
	<path fill="#818181" d="M278.081,75.644l2.669-3.134l-2.902-2.47l-2.669,3.132l-1.087-0.926l6.108-7.174L281.288,66l-2.617,3.074
		l2.902,2.47l2.617-3.072l1.098,0.935l-6.108,7.174L278.081,75.644z"/>
</g>
<g>
	<path fill="#818181" d="M304.173,107.706l-0.557-0.962l6.599-7.41l0.75,1.295l-4.848,5.311l7.014-1.564l0.755,1.306
		L304.173,107.706z"/>
	<path fill="#818181" d="M306.157,111.245l8.419-4.232l2.712,5.391l-1.147,0.577l-2.069-4.115l-2.459,1.237l1.76,3.499l-1.135,0.571
		l-1.76-3.5l-2.531,1.272l2.07,4.114l-1.146,0.578L306.157,111.245z"/>
	<path fill="#818181" d="M311.452,122.583l2.871-3.391l-0.705-1.644l-3.652,1.565l-0.563-1.315l8.666-3.714l1.44,3.359
		c0.685,1.595,0.132,3.129-1.379,3.775c-0.755,0.323-1.478,0.316-2.153-0.014c-0.328-0.162-0.521-0.31-0.888-0.729l-2.98,3.64
		L311.452,122.583z M318.287,117.852l-0.835-1.947l-2.713,1.163l0.834,1.948c0.386,0.9,1.154,1.248,1.982,0.894
		C318.396,119.55,318.674,118.753,318.287,117.852z"/>
	<path fill="#818181" d="M317.192,126.8l-3.648,1.316l-0.484-1.345l3.647-1.316l4.259-4.534l0.531,1.47l-3.223,3.273l4.561,0.436
		l0.526,1.457L317.192,126.8z"/>
	<path fill="#818181" d="M316.806,138.769l3.971-1.084l-1.004-3.676l-3.971,1.084l-0.377-1.379l9.089-2.482l0.377,1.379
		l-3.894,1.063l1.004,3.678l3.894-1.063l0.38,1.391l-9.089,2.483L316.806,138.769z"/>
	<path fill="#818181" d="M317.533,141.82l9.201-2.056l0.312,1.396l-9.201,2.056L317.533,141.82z"/>
	<path fill="#818181" d="M320.212,150.262c-0.807-0.529-1.342-1.348-1.518-2.338c-0.17-0.951,0.018-1.858,0.556-2.613
		c0.366-0.508,0.866-0.879,1.413-1.058c0.467-0.163,1.177-0.329,2.154-0.504l0.377-0.067c1.708-0.304,2.606-0.314,3.51,0.304
		c0.78,0.534,1.252,1.296,1.431,2.3c0.104,0.586,0.085,1.087-0.022,1.536c-0.127,0.493-0.319,0.85-0.709,1.457l-1.123-0.795
		c0.322-0.46,0.486-0.745,0.577-1.138c0.052-0.237,0.067-0.535,0.011-0.849c-0.16-0.899-0.799-1.552-1.731-1.574
		c-0.526-0.015-1.22,0.097-2.067,0.246l-0.299,0.054c-1.59,0.282-2.119,0.485-2.498,0.995c-0.303,0.417-0.412,0.935-0.314,1.481
		c0.108,0.612,0.451,1.103,0.931,1.381c0.432,0.232,0.913,0.294,1.538,0.184l0.509-0.091l-0.345-1.942l1.197-0.214l0.596,3.351
		l-1.406,0.249C321.726,150.84,320.954,150.735,320.212,150.262z"/>
	<path fill="#818181" d="M320.15,157.875l4.091-0.456l-0.421-3.789l-4.091,0.456l-0.158-1.421l9.365-1.043l0.158,1.421l-4.012,0.447
		l0.422,3.788l4.012-0.447l0.16,1.435l-9.365,1.043L320.15,157.875z"/>
</g>
<g>
	<path fill="#818181" d="M70.507,155.284l-0.124,1.105l-9.717,2.045l0.167-1.487l7.059-1.396l-6.578-2.908l0.168-1.5L70.507,155.284
		z"/>
	<path fill="#818181" d="M71.009,151.283l-9.285-1.595l1.021-5.946l1.265,0.217l-0.779,4.539l2.713,0.466l0.663-3.86l1.252,0.215
		l-0.663,3.86l2.791,0.479l0.779-4.538l1.266,0.217L71.009,151.283z"/>
	<path fill="#818181" d="M73.479,139.015l-4.319,1.025l-0.409,1.739l3.866,0.908l-0.327,1.393l-9.175-2.156l0.835-3.557
		c0.397-1.688,1.752-2.594,3.35-2.218c0.798,0.188,1.376,0.622,1.723,1.289c0.168,0.324,0.236,0.558,0.283,1.112l4.556-1.16
		L73.479,139.015z M65.175,138.764l-0.483,2.062l2.873,0.676l0.484-2.062c0.225-0.954-0.187-1.689-1.064-1.896
		C66.096,137.335,65.399,137.811,65.175,138.764z"/>
	<path fill="#818181" d="M71.365,132.208l3.717,1.105l-0.407,1.369l-3.717-1.105l-6.119,1.12l0.445-1.496l4.537-0.722l-3.412-3.059
		l0.441-1.484L71.365,132.208z"/>
	<path fill="#818181" d="M76.897,127.739l-8.813-3.347l0.508-1.337l7.612,2.891l1.612-4.245l1.201,0.456L76.897,127.739z"/>
	<path fill="#818181" d="M80.839,115.793c0.338,0.863,0.304,1.776-0.103,2.682c-0.402,0.895-1.063,1.525-1.933,1.847
		c-1.237,0.459-2.439-0.097-3.768-0.693l-0.459-0.206c-1.413-0.635-2.281-1.155-2.68-2.205c-0.326-0.858-0.3-1.79,0.097-2.671
		c0.401-0.895,1.08-1.532,1.938-1.858c0.975-0.36,2.005-0.1,3.224,0.448l0.604,0.271C79.234,114.07,80.349,114.557,80.839,115.793z
		 M74.273,114.031c-0.503,0.181-0.884,0.547-1.107,1.042c-0.217,0.482-0.243,1.022-0.044,1.519c0.303,0.746,1.202,1.135,2.385,1.667
		c1.099,0.494,2.146,1.037,2.952,0.731c0.508-0.192,0.884-0.545,1.107-1.04c0.227-0.508,0.248-1.036,0.044-1.52
		c-0.303-0.745-1.064-1.088-2.525-1.745C75.781,114.099,74.997,113.776,74.273,114.031z"/>
	<path fill="#818181" d="M86.458,107.061l-0.596,1.093l-6.714-1.493l4.886,4.841l-0.598,1.093l-9.456-2.357l0.723-1.325l6.716,1.796
		l-5.021-4.899l0.546-1l6.841,1.563l-5.141-4.679l0.724-1.324L86.458,107.061z"/>
</g>
<path fill="#ED1C24" d="M242.989,135.262c4.914,6.758,8.415,14.563,10.118,22.955c1.308,6.441,6.413,11.762,12.986,11.762
	c15.755,0,31.511,0,47.265,0c0.01-8.024-0.795-15.896-2.344-23.525c-3.404-16.785-10.404-32.401-20.23-45.915
	C274.853,112.114,258.921,123.688,242.989,135.262z"/>
<path fill="#10B04B" d="M147.428,135.262c-4.914,6.758-8.415,14.563-10.118,22.955c-1.308,6.441-6.414,11.762-12.986,11.762
	c-15.754,0-31.51,0-47.265,0c-0.01-8.024,0.795-15.896,2.344-23.525c3.404-16.785,10.404-32.401,20.231-45.915
	C115.565,112.114,131.496,123.688,147.428,135.262z"/>
<path fill="#F58020" d="M213.462,113.799c12.078,3.912,22.322,11.554,29.527,21.463c15.932-11.574,31.863-23.148,47.795-34.724
	c-14.412-19.821-34.903-35.114-59.063-42.938C225.635,76.333,219.548,95.067,213.462,113.799z"/>
<path fill="#FDEE14" d="M176.953,113.797c11.647-3.78,24.429-3.947,36.512-0.009c6.086-18.73,12.173-37.461,18.259-56.192
	c-24.166-7.879-49.731-7.542-73.024,0.02C164.785,76.343,170.869,95.07,176.953,113.797z"/>
<path fill="#87C540" d="M147.43,135.264c7.215-9.922,17.469-17.559,29.525-21.465c-6.086-18.729-12.17-37.456-18.261-56.201
	c-24.113,7.813-44.629,23.092-59.063,42.938C115.564,112.113,131.497,123.688,147.43,135.264z"/>
<path fill="#FFFFFF" d="M148.219,134.385L100.423,99.66c-0.235,0.315-1.167,1.585-1.396,1.906l47.808,34.734L148.219,134.385z"/>
<path fill="#FFFFFF" d="M178.085,113.455l-18.261-56.201c-0.376,0.118-0.754,0.232-1.128,0.354s-0.742,0.261-1.115,0.387
	l18.257,56.192L178.085,113.455z"/>
<path fill="#FFFFFF" d="M214.581,114.181l18.258-56.193c-0.374-0.126-0.741-0.266-1.117-0.388c0-0.001,0-0.002,0.002-0.004
	c-0.375-0.122-0.751-0.236-1.127-0.355l-18.264,56.209L214.581,114.181z"/>
<path fill="#FFFFFF" d="M243.021,137.164l68.945-49.83c-0.33-0.461-0.65-0.927-0.985-1.386c-0.333-0.457-0.688-0.896-1.027-1.351
	l-68.927,49.818L243.021,137.164z"/>
<path fill="#FFFFFF" d="M215.438,114.979l25.354-81.201c-0.54-0.171-1.075-0.353-1.619-0.519c-0.54-0.167-1.089-0.306-1.632-0.466
	l-25.348,81.181L215.438,114.979z"/>
<path fill="#FFFFFF" d="M179.478,114.385l-26.751-80.752c-0.538,0.176-1.079,0.341-1.618,0.522c-0.536,0.18-1.063,0.387-1.597,0.573
	l26.744,80.731L179.478,114.385z"/>
<path fill="#FFFFFF" d="M148.918,134.147L80.054,84.203c-0.334,0.457-0.677,0.906-1.009,1.368c-0.33,0.459-0.637,0.935-0.961,1.397
	l68.846,49.931L148.918,134.147z"/>
<g>
	<g>
		<path fill="#FFFFFF" d="M141.093,145.946c-15.655-1.34-28.245-2.364-28.245-2.364c-1.374-0.11-2.574,0.746-2.915,2.079
			c-0.343,1.339,0.296,2.666,1.56,3.228c0,0,11.245,5.028,25.363,11.272C137.672,155.197,139.111,150.432,141.093,145.946z"/>
		<path fill="#F6F6F5" d="M141.027,146.098c-15.261-1.304-27.634-2.309-28.192-2.355c-1.301-0.104-2.426,0.707-2.746,1.958
			c-0.322,1.256,0.273,2.508,1.469,3.041c0.505,0.225,11.562,5.17,25.326,11.26C137.692,155.15,139.099,150.489,141.027,146.098z"/>
		<path fill="#F0EFEE" d="M140.963,146.25c-14.868-1.268-27.024-2.255-28.141-2.347c-1.228-0.099-2.278,0.667-2.577,1.838
			c-0.3,1.174,0.251,2.352,1.379,2.854c1.01,0.451,11.878,5.312,25.288,11.248C137.712,155.103,139.086,150.548,140.963,146.25z"/>
		<path fill="#EAE9E9" d="M140.898,146.401c-14.475-1.231-26.415-2.2-28.088-2.338c-1.154-0.093-2.13,0.629-2.408,1.718
			c-0.28,1.092,0.228,2.194,1.288,2.666c1.515,0.676,12.194,5.454,25.25,11.236C137.732,155.056,139.075,150.605,140.898,146.401z"
			/>
		<path fill="#E5E3E3" d="M140.833,146.554c-14.081-1.195-25.804-2.146-28.036-2.33c-1.08-0.086-1.982,0.59-2.239,1.598
			c-0.259,1.01,0.205,2.037,1.197,2.479c2.02,0.902,12.511,5.596,25.213,11.224C137.752,155.009,139.063,150.664,140.833,146.554z"
			/>
		<path fill="#DFDEDD" d="M140.769,146.706c-13.688-1.16-25.193-2.092-27.984-2.321c-1.006-0.081-1.834,0.551-2.07,1.477
			c-0.237,0.928,0.183,1.88,1.107,2.292c2.523,1.127,12.827,5.738,25.175,11.211C137.772,154.962,139.051,150.722,140.769,146.706z"
			/>
		<path fill="#D9D8D8" d="M140.703,146.858c-13.294-1.124-24.583-2.038-27.932-2.312c-0.933-0.075-1.687,0.512-1.901,1.356
			c-0.217,0.845,0.159,1.723,1.017,2.105c3.028,1.352,13.144,5.88,25.137,11.199C137.792,154.915,139.039,150.78,140.703,146.858z"
			/>
		<path fill="#D4D3D3" d="M140.639,147.01c-12.9-1.088-23.974-1.983-27.88-2.304c-0.859-0.068-1.538,0.474-1.733,1.236
			c-0.196,0.763,0.137,1.566,0.926,1.917c3.533,1.578,13.46,6.022,25.1,11.188C137.812,154.868,139.026,150.838,140.639,147.01z"/>
		<path fill="#CFCECE" d="M140.573,147.162c-12.507-1.052-23.362-1.929-27.827-2.296c-0.786-0.063-1.391,0.435-1.564,1.116
			c-0.174,0.681,0.115,1.408,0.836,1.729c4.038,1.804,13.777,6.164,25.062,11.176C137.832,154.821,139.015,150.896,140.573,147.162z
			"/>
		<path fill="#CAC9C9" d="M140.509,147.313c-12.113-1.016-22.753-1.874-27.776-2.287c-0.712-0.056-1.242,0.396-1.395,0.996
			c-0.154,0.599,0.091,1.251,0.745,1.542c4.543,2.029,14.093,6.306,25.024,11.164C137.852,154.774,139.003,150.954,140.509,147.313z
			"/>
		<path fill="#C5C4C4" d="M140.444,147.466c-11.72-0.98-22.143-1.82-27.724-2.278c-0.639-0.05-1.094,0.357-1.226,0.875
			c-0.132,0.516,0.069,1.095,0.655,1.355c5.048,2.254,14.41,6.448,24.986,11.151C137.872,154.727,138.991,151.012,140.444,147.466z"
			/>
		<path fill="#C0BFBF" d="M140.379,147.618c-11.326-0.944-21.532-1.765-27.671-2.27c-0.565-0.044-0.946,0.318-1.057,0.754
			c-0.112,0.434,0.046,0.938,0.564,1.168c5.553,2.479,14.727,6.59,24.949,11.139C137.892,154.68,138.979,151.07,140.379,147.618z"/>
	</g>
	<g>
		<path fill="#FFFFFF" d="M210.294,172.521c2.1-8.202-2.865-16.586-11.07-18.688c-3.684-0.947-34.91-3.742-59.011-5.802
			c-1.548,3.895-2.671,7.974-3.363,12.165c22.148,9.792,51.039,22.435,54.748,23.391
			C199.802,185.688,208.189,180.723,210.294,172.521z"/>
		<path fill="#F8F8F8" d="M210.242,172.507c2.093-8.174-2.854-16.528-11.032-18.623c-3.761-0.966-34.856-3.746-59.016-5.806
			c-1.532,3.864-2.648,7.91-3.336,12.066c22.199,9.82,50.965,22.413,54.752,23.389C199.788,185.628,208.144,180.682,210.242,172.507
			z"/>
		<path fill="#F3F3F2" d="M210.19,172.494c2.086-8.147-2.842-16.47-10.993-18.558c-3.837-0.985-34.803-3.749-59.02-5.809
			c-1.517,3.834-2.624,7.846-3.311,11.968c22.25,9.849,50.892,22.391,54.757,23.388C199.773,185.569,208.099,180.641,210.19,172.494
			z"/>
		<path fill="#EFEEEE" d="M210.137,172.48c2.08-8.12-2.831-16.412-10.953-18.493c-3.915-1.005-34.751-3.752-59.025-5.813
			c-1.501,3.804-2.601,7.782-3.285,11.869c22.301,9.877,50.818,22.369,54.763,23.386C199.759,185.51,208.054,180.601,210.137,172.48
			z"/>
		<path fill="#EBEAEA" d="M210.085,172.468c2.073-8.093-2.819-16.354-10.914-18.428c-3.992-1.025-34.697-3.757-59.03-5.817
			c-1.485,3.774-2.577,7.719-3.259,11.771c22.353,9.904,50.745,22.346,54.768,23.384
			C199.744,185.451,208.009,180.56,210.085,172.468z"/>
		<path fill="#E7E6E6" d="M210.033,172.455c2.066-8.065-2.808-16.296-10.875-18.363c-4.068-1.044-34.644-3.76-59.034-5.821
			c-1.47,3.745-2.553,7.655-3.232,11.673c22.402,9.933,50.671,22.325,54.772,23.383C199.73,185.392,207.964,180.52,210.033,172.455z
			"/>
		<path fill="#E3E2E2" d="M209.98,172.441c2.06-8.038-2.797-16.238-10.836-18.298c-4.146-1.064-34.591-3.764-59.039-5.825
			c-1.454,3.714-2.529,7.591-3.206,11.575c22.454,9.961,50.598,22.303,54.778,23.381
			C199.716,185.333,207.919,180.479,209.98,172.441z"/>
		<path fill="#DFDEDE" d="M209.929,172.428c2.053-8.01-2.786-16.18-10.797-18.232c-4.223-1.083-34.538-3.767-59.044-5.829
			c-1.438,3.684-2.505,7.527-3.18,11.476c22.504,9.989,50.523,22.281,54.782,23.379
			C199.701,185.274,207.873,180.438,209.929,172.428z"/>
		<path fill="#DBDBDA" d="M209.876,172.415c2.046-7.983-2.773-16.122-10.758-18.167c-4.299-1.103-34.484-3.771-59.048-5.833
			c-1.423,3.654-2.481,7.463-3.154,11.377c22.556,10.018,50.45,22.259,54.788,23.378
			C199.687,185.215,207.828,180.397,209.876,172.415z"/>
		<path fill="#D7D7D7" d="M209.824,172.401c2.039-7.956-2.763-16.064-10.719-18.102c-4.376-1.123-34.432-3.775-59.054-5.836
			c-1.407,3.624-2.457,7.399-3.127,11.279c22.606,10.045,50.375,22.237,54.792,23.376
			C199.672,185.156,207.784,180.356,209.824,172.401z"/>
		<path fill="#D3D3D3" d="M209.772,172.388c2.032-7.928-2.751-16.006-10.68-18.037c-4.453-1.142-34.378-3.778-59.058-5.84
			c-1.392,3.594-2.434,7.335-3.101,11.181c22.657,10.074,50.302,22.215,54.797,23.374
			C199.658,185.097,207.738,180.315,209.772,172.388z"/>
		<path fill="#CFD0D0" d="M209.72,172.375c2.025-7.901-2.74-15.948-10.641-17.972c-4.53-1.161-34.325-3.782-59.063-5.844
			c-1.376,3.564-2.41,7.272-3.075,11.083c22.708,10.102,50.228,22.193,54.802,23.373
			C199.644,185.038,207.693,180.275,209.72,172.375z"/>
	</g>
	<g>
		
			<linearGradient id="SVGID_1_" gradientUnits="userSpaceOnUse" x1="-182.5278" y1="2106.0166" x2="-151.9566" y2="2106.0166" gradientTransform="matrix(0.2482 -0.9687 0.9687 0.2482 -1839.389 -524.146)">
			<stop  offset="0" style="stop-color:#717171"/>
			<stop  offset="0.49" style="stop-color:#414141"/>
			<stop  offset="0.51" style="stop-color:#121212"/>
			<stop  offset="1" style="stop-color:#010101"/>
		</linearGradient>
		<path fill="url(#SVGID_1_)" d="M110.012,146.944c-1.128-0.09-1.526,1.46-0.493,1.921c17.964,8.021,75.25,33.494,81.944,35.219
			c0.003,0,0.007,0.002,0.01,0.001c7.901,2.027,15.946-2.739,17.97-10.64c2.026-7.9-2.738-15.944-10.641-17.969
			C192.152,153.771,129.629,148.554,110.012,146.944z"/>
		
			<linearGradient id="SVGID_2_" gradientUnits="userSpaceOnUse" x1="-174.6235" y1="2143.1172" x2="-159.8555" y2="2143.1172" gradientTransform="matrix(0.2482 -0.9687 0.9687 0.2482 -1839.389 -524.146)">
			<stop  offset="0" style="stop-color:#010101"/>
			<stop  offset="1" style="stop-color:#717171"/>
		</linearGradient>
		<circle fill="url(#SVGID_2_)" cx="195.139" cy="169.78" r="7.384"/>
	</g>
</g>
</svg>
